<svg width="50" height="50" viewBox="0 0 50 50" fill="none" xmlns="http://www.w3.org/2000/svg">
<path d="M18.8144 3.37479V1.37613C18.7984 1.20325 18.8188 1.02893 18.8742 0.864376C18.9296 0.699822 19.0189 0.548666 19.1362 0.420617C19.2535 0.292568 19.3963 0.190458 19.5555 0.120842C19.7147 0.0512261 19.8866 0.0156447 20.0603 0.0163829C20.2284 0.0178987 20.3943 0.054294 20.5476 0.123264C20.7008 0.192233 20.838 0.292271 20.9506 0.417033C21.0631 0.541796 21.1484 0.688563 21.2012 0.848024C21.2539 1.00749 21.273 1.17616 21.2571 1.34336C21.2571 2.01504 21.2571 2.68673 21.2571 3.39117H28.6341C28.6341 2.75226 28.6341 2.09696 28.6341 1.45804C28.6202 1.29013 28.6419 1.12117 28.6979 0.962233C28.7538 0.803296 28.8428 0.657968 28.9588 0.535775C29.0749 0.413583 29.2155 0.317282 29.3715 0.253183C29.5274 0.189083 29.6951 0.158633 29.8636 0.163825C30.0315 0.161174 30.198 0.193352 30.3527 0.258326C30.5075 0.3233 30.647 0.419655 30.7626 0.541297C30.8781 0.662939 30.9672 0.807219 31.0241 0.965017C31.081 1.12281 31.1045 1.2907 31.0931 1.45804C31.0931 2.09696 31.0931 2.71949 31.0931 3.42394H33.7817C35.0853 3.41143 36.3586 3.81671 37.4148 4.58034C38.471 5.34397 39.2546 6.42576 39.6505 7.667C39.8647 8.37924 39.9751 9.11857 39.9784 9.86225C39.9784 13.7777 39.9784 17.6931 39.9784 21.5921V22.2474C42.2306 22.5157 44.3527 23.4449 46.0768 24.9178C48.1071 26.5767 49.4574 28.9228 49.8714 31.5108C50.2854 34.0989 49.7343 36.7487 48.3226 38.9575C46.376 41.8709 44.1822 44.6114 41.7653 47.1488C41.4702 47.46 41.1751 47.8041 40.8472 48.099C40.5828 48.3934 40.2593 48.6288 39.8977 48.79C39.5362 48.9512 39.1448 49.0345 38.7489 49.0345C38.353 49.0345 37.9615 48.9512 37.6 48.79C37.2385 48.6288 36.915 48.3934 36.6505 48.099C34.0955 45.5351 31.7595 42.7623 29.6669 39.8094C28.2485 37.9148 27.4628 35.6222 27.421 33.2564C27.5278 30.6808 28.4999 28.2162 30.1803 26.2604C31.8608 24.3046 34.1517 22.9717 36.6833 22.4768L37.5194 22.3293V21.7068C37.5194 17.8241 37.5194 13.9579 37.5194 10.0916C37.5723 9.53987 37.5028 8.98325 37.3159 8.46143C37.1289 7.93961 36.829 7.46544 36.4376 7.07273C36.0462 6.68001 35.5729 6.37843 35.0515 6.18949C34.53 6.00054 33.9733 5.92887 33.421 5.9796H31.0767C31.0767 6.58576 31.0767 7.15914 31.0767 7.71615C31.0728 8.02353 31.0174 8.3281 30.9128 8.61719C30.7982 8.85196 30.6089 9.04207 30.3745 9.1577C30.1401 9.27333 29.8739 9.30794 29.6177 9.2561C29.3397 9.20654 29.0877 9.06161 28.9052 8.84629C28.7226 8.63097 28.621 8.35875 28.6177 8.07656C28.6177 7.40488 28.6177 6.7332 28.6177 6.02875H11.4374V7.86359C11.4374 8.73186 10.9456 9.27248 10.1915 9.2561C9.43741 9.23972 8.99477 8.73186 8.99477 7.87997C8.99477 7.02808 8.99477 6.65129 8.99477 6.0779C7.80523 5.98734 6.61054 5.98734 5.42101 6.0779C4.61787 6.22084 3.89113 6.64285 3.36918 7.26938C2.84722 7.8959 2.56363 8.68662 2.56854 9.50184C2.56854 11.7954 2.56854 14.0889 2.56854 16.3989C2.56854 22.0672 2.56854 27.7355 2.56854 33.4039C2.54565 33.9493 2.63574 34.4937 2.83317 35.0027C3.0306 35.5118 3.33111 35.9746 3.71588 36.3622C4.10064 36.7497 4.56135 37.0537 5.06915 37.2551C5.57696 37.4564 6.1209 37.5508 6.6669 37.5323C11.7161 37.5323 16.7817 37.5323 21.8472 37.5323C22.06 37.5159 22.2738 37.5159 22.4866 37.5323C22.7724 37.5636 23.0374 37.6967 23.2331 37.9073C23.4288 38.1179 23.542 38.3918 23.5522 38.679C23.5605 38.9782 23.4607 39.2704 23.271 39.5021C23.0813 39.7338 22.8145 39.8894 22.5194 39.9405H6.2243C4.79845 39.9566 3.41181 39.4742 2.30421 38.5767C1.19661 37.6793 0.43768 36.4232 0.158701 35.0257C0.0491949 34.4868 -0.00028061 33.9373 0.0111662 33.3875C0.0111662 25.5239 0.0111662 17.6658 0.0111662 9.81311C-0.0414216 8.93885 0.0921545 8.06339 0.403092 7.24453C0.71403 6.42566 1.19526 5.68203 1.81498 5.06272C2.4347 4.44341 3.17883 3.96252 3.99824 3.65179C4.81765 3.34106 5.6937 3.20756 6.56854 3.26011H8.97838C8.97838 2.58843 8.97838 1.98228 8.97838 1.35975C8.97838 0.737212 9.43739 0 10.1751 0C10.9128 0 11.4046 0.52424 11.421 1.40889V3.21096L18.8144 3.37479ZM38.7489 24.5082C37.7532 24.6683 36.7679 24.8871 35.7981 25.1635C30.88 26.8017 28.2571 32.7813 30.9784 37.2701C33.1341 40.529 35.6109 43.564 38.3718 46.3297C38.4154 46.3939 38.474 46.4464 38.5426 46.4827C38.6112 46.5191 38.6876 46.5381 38.7653 46.5381C38.8429 46.5381 38.9193 46.5191 38.9879 46.4827C39.0565 46.4464 39.1151 46.3939 39.1587 46.3297L39.9948 45.445C42.2898 43.0539 44.3638 40.4604 46.1915 37.6961C46.8966 36.6701 47.3462 35.4906 47.503 34.2558C47.5968 33.0286 47.4395 31.7951 47.0405 30.6307C46.6415 29.4663 46.0093 28.3953 45.1825 27.4831C44.3556 26.571 43.3514 25.8368 42.2312 25.3253C41.111 24.8138 39.8982 24.5358 38.6669 24.5082H38.7489Z" fill="white"/>
<path d="M20.0931 17.2998H29.9292C30.149 17.2695 30.3728 17.3 30.5764 17.388C30.7801 17.4759 30.9556 17.618 31.0841 17.7987C31.2125 17.9795 31.2889 18.1919 31.305 18.413C31.321 18.6341 31.2761 18.8554 31.1751 19.0528C31.0619 19.2766 30.8844 19.4616 30.6654 19.5842C30.4464 19.7068 30.1958 19.7613 29.9456 19.7408H10.4374C9.56856 19.7408 9.02758 19.3149 8.9784 18.6104C8.95857 18.4378 8.97718 18.2628 9.03288 18.0982C9.08858 17.9335 9.18 17.7832 9.30061 17.658C9.42122 17.5328 9.56804 17.4357 9.73056 17.3738C9.89307 17.3119 10.0673 17.2866 10.2407 17.2998H20.0768H20.0931Z" fill="white"/>
<path d="M17.2897 28.0468H10.6176C10.4267 28.0636 10.2347 28.0636 10.0438 28.0468C9.88951 28.0426 9.7376 28.0078 9.5969 27.9443C9.4562 27.8809 9.32952 27.7901 9.22426 27.6773C9.11899 27.5645 9.03724 27.4319 8.98375 27.2872C8.93025 27.1425 8.9061 26.9886 8.91268 26.8345C8.90825 26.5244 9.02618 26.2251 9.24094 26.0013C9.45571 25.7775 9.75003 25.6472 10.0602 25.6386C10.7487 25.6386 11.4373 25.6386 12.1258 25.6386H24.2405C24.5573 25.5909 24.8802 25.6687 25.1404 25.8553C25.4007 26.042 25.5778 26.3228 25.634 26.6379C25.672 26.8267 25.6645 27.0219 25.612 27.2072C25.5596 27.3926 25.4637 27.5627 25.3323 27.7037C25.2009 27.8446 25.0378 27.9522 24.8565 28.0175C24.6752 28.0829 24.4809 28.1042 24.2897 28.0796L17.2897 28.0468Z" fill="white"/>
<path d="M38.6832 39.1704C37.9485 39.1726 37.2206 39.0296 36.5414 38.7496C35.8622 38.4696 35.2451 38.0582 34.7255 37.539C34.206 37.0199 33.7943 36.4032 33.5142 35.7244C33.234 35.0456 33.0909 34.3182 33.093 33.584C33.093 32.1037 33.6792 30.6836 34.7236 29.6338C35.7679 28.584 37.1855 27.9899 38.6668 27.9812C40.1509 27.9812 41.5745 28.5692 42.6255 29.6164C43.6764 30.6636 44.269 32.0845 44.2734 33.5676C44.2734 35.0508 43.6849 36.4734 42.637 37.5236C41.5891 38.5739 40.1673 39.1661 38.6832 39.1704ZM38.6832 36.7294C39.0987 36.7188 39.5081 36.6265 39.8879 36.4577C40.2677 36.2889 40.6105 36.047 40.8967 35.7458C41.183 35.4445 41.407 35.0899 41.556 34.7021C41.705 34.3143 41.7761 33.901 41.7652 33.4857C41.7523 32.6542 41.4138 31.8608 40.8223 31.2758C40.2308 30.6908 39.4334 30.3608 38.6012 30.3567C37.7678 30.3653 36.9714 30.7022 36.3852 31.2942C35.7989 31.8863 35.47 32.6856 35.4701 33.5185C35.4743 33.9365 35.5615 34.3495 35.7265 34.7337C35.8915 35.1178 36.1311 35.4654 36.4315 35.7564C36.7318 36.0474 37.0869 36.276 37.4762 36.429C37.8656 36.5819 38.2814 36.6562 38.6996 36.6475L38.6832 36.7294Z" fill="white"/>
</svg>
