<svg width="50" height="51" viewBox="0 0 50 51" fill="none" xmlns="http://www.w3.org/2000/svg">
<g clip-path="url(#clip0_844_29)">
<path d="M26.629 50.139L25.1419 50.9972C23.8406 48.6858 22.5139 46.4193 21.2956 44.0938C21.0142 43.5648 21.1169 42.8389 21.0367 42.1622H16.0044C16.1451 42.4013 16.2619 42.6081 16.3871 42.8079C17.0488 43.852 17.3879 45.0681 17.362 46.3039C17.3437 47.7038 17.362 49.1036 17.362 50.5245H15.6935C15.6851 50.3585 15.6696 50.1897 15.6696 50.0223C15.6696 48.7223 15.6696 47.4238 15.6696 46.1253C15.6772 45.3319 15.4628 44.5522 15.0506 43.8743C14.5272 43.0021 14.0306 42.1115 13.4678 41.2646C13.0838 40.6864 13.1161 40.2038 13.4678 39.62C14.6721 37.6011 15.837 35.5584 17.0117 33.5226C17.3691 32.905 17.3705 32.279 16.9808 31.6811C16.5911 31.0832 16.0199 30.882 15.3376 30.9594C14.7242 31.0297 14.3359 31.4095 14.039 31.923C12.4868 34.613 10.9313 37.301 9.37248 39.9872C9.27681 40.1518 9.17833 40.315 9.05312 40.526L7.53794 39.6523C8.45661 38.7984 8.41441 37.8234 8.10068 36.7795C8.01908 36.4981 8.06832 36.1858 8.06832 35.8876C8.06832 32.1669 8.06832 28.4453 8.06832 24.7227V24.16L7.98672 24.1347C7.91357 24.2754 7.83337 24.4245 7.76444 24.5736C6.72055 26.833 5.68229 29.0967 4.63137 31.3533C4.10395 32.487 3.83623 33.7242 3.84775 34.9745C3.859 39.9421 3.84775 44.9098 3.84775 49.8774V50.5316H2.15952V49.9477C2.15952 44.9632 2.16796 39.9773 2.15952 34.9914C2.14966 33.4785 2.47694 31.9824 3.11759 30.6119C4.33171 28.0049 5.50925 25.3812 6.75572 22.7897C6.99348 22.2917 7.47744 21.9147 7.81931 21.4602C7.96092 21.285 8.04668 21.0714 8.06551 20.8469C8.07958 15.9144 8.0655 10.982 8.07957 6.04812C8.07957 3.75916 9.07281 1.99918 11.034 0.807572C11.8618 0.295394 12.8152 0.0222352 13.7886 0.0183254C19.5412 0.00707057 25.2939 -0.0182529 31.0465 0.0183254C34.2162 0.042242 36.7471 2.6604 36.7753 5.86523C36.8048 9.30499 36.7753 12.7462 36.7753 16.1873V35.4613L36.8695 35.367L38.9418 36.8977C40.616 35.7384 42.6067 36.0817 43.9151 37.8262C44.7929 37.196 45.7538 36.916 46.8385 37.1734C48.2651 37.5111 49.4004 38.7421 49.4187 40.1996C49.4637 43.6042 49.4328 47.0102 49.4313 50.4162C49.4313 50.4471 49.4074 50.4767 49.3821 50.533H47.7558V49.9843C47.7558 46.8428 47.7558 43.6999 47.7558 40.5583C47.7558 39.2711 46.6007 38.4326 45.464 38.8856C45.1448 38.998 44.869 39.2078 44.6756 39.4856C44.4822 39.7633 44.381 40.0948 44.3863 40.4331C44.3667 40.9762 44.3863 41.522 44.3779 42.0651C44.3695 42.6081 44.0332 42.9669 43.5591 42.9809C43.0639 42.995 42.7052 42.625 42.6953 42.0581C42.6841 41.2688 42.6953 40.4782 42.6953 39.6889C42.6826 38.6689 41.9483 37.9191 40.9888 37.9303C40.0293 37.9416 39.3357 38.6788 39.3231 39.6748C39.3118 40.4472 39.3231 41.2224 39.3231 41.9919C39.3231 42.6067 38.9826 42.9866 38.4705 42.9767C37.9584 42.9669 37.6405 42.5927 37.6377 41.9708C37.6377 40.9523 37.6377 39.9337 37.6377 38.9151C37.6377 37.8445 36.9342 37.0862 35.9494 37.0862C34.9646 37.0862 34.2612 37.8403 34.2612 38.9151C34.2612 39.8282 34.2612 40.744 34.2612 41.6543C34.2612 42.5645 34.015 42.9711 33.4283 42.9809C32.8417 42.9908 32.5716 42.5814 32.5716 41.6796C32.5716 37.3793 32.5716 33.0785 32.5716 28.7773C32.5716 27.3705 31.2139 26.5263 30.0519 27.2002C29.43 27.5604 29.1923 28.1273 29.1937 28.835C29.2012 32.943 29.2012 37.051 29.1937 41.1591C29.1937 42.2649 29.1853 43.3707 29.1937 44.4764C29.1937 44.9702 29.0446 45.3585 28.5395 45.4838C28.057 45.6047 27.7446 45.3346 27.5139 44.9309C27.0187 44.0624 26.5188 43.1967 26.0142 42.3338C25.4515 41.3687 24.4667 41.0564 23.6085 41.5572C22.7503 42.0581 22.5393 43.0611 23.0992 44.0319C24.2472 46.0479 25.4261 48.0653 26.629 50.139ZM9.75655 35.7258L9.86066 35.7525C9.96054 35.5893 10.0618 35.4275 10.1575 35.2629C10.9847 33.8364 11.7993 32.4014 12.6392 30.9833C13.4453 29.6228 14.9282 28.9897 16.3744 29.3527C18.6029 29.9155 19.6299 32.317 18.4847 34.3569C17.4352 36.221 16.3406 38.0612 15.2686 39.914C15.1772 40.0716 15.1012 40.2362 14.9872 40.4528C17.4 40.4528 19.7213 40.4528 22.0426 40.443C22.2287 40.4159 22.4046 40.3413 22.5533 40.2263C23.7703 39.4638 25.0125 39.4089 26.228 40.1757C26.6022 40.4189 27.0569 40.5053 27.4942 40.4163V39.8268C27.4942 36.176 27.4942 32.5238 27.5012 28.873C27.4967 28.453 27.5531 28.0345 27.6687 27.6307C27.906 26.8777 28.4011 26.2324 29.0669 25.8082C29.7328 25.3839 30.5268 25.2078 31.3096 25.3108C32.9852 25.5556 34.2246 26.9132 34.2415 28.5916C34.2654 30.8032 34.2485 33.0148 34.2499 35.2263V35.7581C34.9731 35.7131 35.1109 35.3459 35.1095 34.7157C35.087 25.1847 35.0814 15.6527 35.0926 6.11987C35.0926 3.48201 33.2947 1.6953 30.6484 1.69389C25.1598 1.69389 19.673 1.69389 14.1882 1.69389C13.9248 1.68772 13.6613 1.70277 13.4003 1.73891C11.1859 2.09625 9.75655 3.80137 9.75655 6.09032C9.75655 15.8164 9.75655 25.5415 9.75655 35.2657V35.7258Z" fill="white"/>
<path d="M6.08044 12.0793L4.91275 13.1907L3.86886 12.2059V21.878H2.16938V12.2945L2.06386 12.2453L1.18598 13.292L0 11.9808C0.770958 11.1972 1.60523 10.3249 2.46904 9.48361C2.53598 9.41073 2.6172 9.3524 2.70764 9.31223C2.79808 9.27207 2.89582 9.25094 2.99477 9.25015C3.09373 9.24935 3.19179 9.26892 3.28286 9.30763C3.37394 9.34634 3.45608 9.40337 3.52418 9.47516C4.38799 10.3249 5.21944 11.1986 6.08044 12.0793Z" fill="white"/>
<path d="M40.806 12.1721L39.9534 13.2652L38.7843 12.075C39.6284 11.1999 40.4725 10.3094 41.3518 9.45685C41.4185 9.39007 41.498 9.3374 41.5855 9.30199C41.673 9.26657 41.7668 9.24913 41.8612 9.25071C41.9556 9.25228 42.0487 9.27284 42.1349 9.31116C42.2212 9.34947 42.2989 9.40476 42.3633 9.47373C43.2272 10.3178 44.0516 11.1943 44.9224 12.0778L43.7463 13.1808L42.7151 12.2058V21.8724H41.0156V12.2945L40.806 12.1721Z" fill="white"/>
<path d="M2.18762 23.6254H3.80832V25.2517H2.18762V23.6254Z" fill="white"/>
<path d="M42.6658 23.6282V25.2489H41.0338V23.6282H42.6658Z" fill="white"/>
<path d="M42.6644 27.006V28.6295H41.0409V27.006H42.6644Z" fill="white"/>
<path d="M22.4493 26.968C21.3346 26.9721 20.2301 26.7554 19.1997 26.3304C18.1692 25.9054 17.2331 25.2805 16.4454 24.4918C15.6578 23.7031 15.0341 22.7662 14.6105 21.7351C14.1868 20.7041 13.9716 19.5994 13.9772 18.4847C13.9856 13.8702 17.7757 10.1181 22.4464 10.1139C27.0666 10.1139 30.8777 13.9237 30.8623 18.5396C30.8589 20.7712 29.972 22.9108 28.3954 24.4903C26.8188 26.0697 24.6809 26.9606 22.4493 26.968ZM22.4183 11.8049C21.529 11.8049 20.6485 11.9806 19.8272 12.3218C19.006 12.663 18.2602 13.1631 17.6328 13.7933C17.0053 14.4235 16.5085 15.1714 16.1709 15.9941C15.8333 16.8168 15.6615 17.6981 15.6654 18.5874C15.6752 22.2846 18.7211 25.2911 22.4493 25.2854C24.2351 25.2732 25.9438 24.556 27.2033 23.2899C28.4628 22.0238 29.1711 20.3114 29.174 18.5255C29.1655 16.7396 28.4498 15.0299 27.1838 13.7704C25.9177 12.5109 24.2042 11.8042 22.4183 11.8049Z" fill="white"/>
<path d="M22.4183 38.7659C21.8373 38.7659 21.2577 38.7786 20.678 38.7659C20.0116 38.7523 19.3774 38.4764 18.913 37.9981C18.4487 37.5198 18.1917 36.8777 18.1977 36.2111C18.2054 35.554 18.4691 34.9258 18.9329 34.4602C19.3966 33.9946 20.0238 33.7284 20.6808 33.7181C21.842 33.6984 23.0022 33.6984 24.1614 33.7181C24.818 33.7284 25.4445 33.9948 25.9074 34.4606C26.3702 34.9263 26.6327 35.5545 26.6389 36.2111C26.6431 36.8769 26.3849 37.5176 25.9201 37.9945C25.4554 38.4714 24.8215 38.746 24.1558 38.7589C23.5804 38.7786 23.0007 38.7659 22.4183 38.7659ZM22.4704 35.3979C21.9076 35.3979 21.3449 35.3867 20.7821 35.3979C20.2419 35.412 19.8902 35.7595 19.8916 36.242C19.893 36.7246 20.2475 37.0707 20.7878 37.0777C21.8785 37.0899 22.9689 37.0899 24.0587 37.0777C24.5961 37.0777 24.9521 36.7147 24.9492 36.2336C24.9464 35.7525 24.5919 35.4134 24.0531 35.3979C23.5143 35.3825 23.0008 35.3979 22.4732 35.3979H22.4704Z" fill="white"/>
<path d="M25.7666 5.03659H19.0714V3.41589H25.7666V5.03659Z" fill="white"/>
<path d="M15.6794 5.02955V3.42151H17.3184V5.02955H15.6794Z" fill="white"/>
<path d="M23.2625 22.7798V23.5691H21.5869V22.7869C20.7259 22.7095 19.9788 22.4056 19.5216 21.6825C19.2642 21.2731 19.1404 20.7779 18.9265 20.2517H20.6977C20.8272 20.9551 21.3238 21.1211 21.9766 21.0775C22.3986 21.0494 22.8207 21.086 23.2428 21.0677C23.7478 21.0452 24.0869 20.7033 24.1023 20.2475C24.1136 19.7706 23.7605 19.4104 23.2273 19.3921C22.718 19.3752 22.2073 19.3921 21.698 19.3921C20.2588 19.3823 19.1446 18.4073 19.0475 17.0624C18.9462 15.6808 19.8916 14.5624 21.3533 14.3429L21.5531 14.3148L21.5911 13.5255H23.2625V14.3035C24.1206 14.3907 24.8733 14.682 25.3277 15.4121C25.5838 15.8229 25.7076 16.3167 25.92 16.8429H24.1516C24.0207 16.1395 23.5241 15.9734 22.8713 16.0171C22.4493 16.0452 22.0272 16.0171 21.6052 16.0283C21.0987 16.0494 20.7611 16.3885 20.747 16.8457C20.7343 17.324 21.0874 17.6898 21.6206 17.7025C22.1299 17.7208 22.6406 17.7025 23.1499 17.7025C24.5919 17.7123 25.7019 18.6873 25.8018 20.0308C25.9017 21.3744 24.9718 22.5125 23.5509 22.7461C23.4721 22.7573 23.4031 22.7629 23.2625 22.7798Z" fill="white"/>
</g>
<defs>
<clipPath id="clip0_844_29">
<rect width="49.4468" height="51" fill="white"/>
</clipPath>
</defs>
</svg>
