<svg width="40" height="39" viewBox="0 0 40 39" fill="none" xmlns="http://www.w3.org/2000/svg">
<g clip-path="url(#clip0_1018_8448)">
<path d="M0 26.7531H1.79935V26.2614C1.79935 19.7564 1.79935 13.2515 1.79935 6.74654C1.79935 5.45223 2.28907 4.46872 3.46887 3.89415C3.77822 3.74391 4.11496 3.65833 4.45851 3.64265C5.43487 3.60994 6.41429 3.63141 7.41212 3.63141V4.77032H6.99499C6.20471 4.77032 5.4134 4.75805 4.62311 4.77645C3.71935 4.7969 3.0405 5.45632 2.96485 6.35907C2.95258 6.51038 2.95258 6.66577 2.95258 6.81708V26.7593H5.20177V20.5229H13.2273V25.011L15.5675 25.3269V24.2524H15.9836C18.3943 24.2524 20.804 24.2606 23.2148 24.2442C23.5705 24.2442 23.6319 24.3649 23.6237 24.6839C23.6073 25.9332 23.6176 27.1835 23.6176 28.4329V28.8888C24.4099 28.9144 25.2053 28.7958 25.9353 29.3366V20.5229H33.9751V26.8339L36.2488 26.7132V26.3605C36.2488 19.8307 36.2366 13.2999 36.2601 6.77005C36.2601 5.5882 35.5148 4.73044 34.2552 4.756C31.8077 4.80508 29.3581 4.77032 26.9096 4.77032H26.427C26.5538 5.09645 26.6622 5.37453 26.7777 5.66897C26.5796 5.86824 26.37 6.05565 26.1499 6.23025C25.8044 6.47561 25.6878 6.77926 25.7011 7.20354C25.6971 7.35234 25.7278 7.50004 25.7908 7.63491C25.8538 7.76979 25.9474 7.88812 26.0641 7.98053C26.794 8.60724 26.7848 8.61746 26.4117 9.51407C26.2266 9.96187 26.0293 10.4045 25.8637 10.8585C25.7758 11.0977 25.6664 11.2081 25.3924 11.1652C25.1144 11.1258 24.8331 11.1156 24.553 11.1345C24.397 11.1518 24.2473 11.2062 24.1165 11.293C23.5583 11.6396 23.4795 12.164 23.6104 12.7519C23.6973 13.1373 23.5726 13.3428 23.1759 13.4747C22.5625 13.6792 21.9675 13.9491 21.3755 14.2139C21.1526 14.3161 21.0065 14.3038 20.8562 14.1024C20.7059 13.901 20.5188 13.7528 20.3767 13.5575C20.208 13.3275 19.9872 13.307 19.7254 13.2569C19.0926 13.1353 18.7849 13.5381 18.4822 13.9399C18.2359 14.2691 18.0079 14.3304 17.6265 14.1443C17.0591 13.8601 16.46 13.6332 15.865 13.4093C15.6268 13.3183 15.5021 13.2048 15.5665 12.9369C15.5982 12.802 15.5665 12.6517 15.6002 12.5188C15.7536 11.9228 15.4172 11.5506 15.0011 11.2367C14.8794 11.1458 14.6729 11.1447 14.5042 11.1345C14.1628 11.1243 13.7416 11.2633 13.5013 11.11C13.261 10.9566 13.1946 10.5211 13.0617 10.2062C12.8715 9.76148 12.6957 9.31062 12.4984 8.86896C12.4196 8.69209 12.4237 8.56736 12.5883 8.44468C12.7529 8.322 12.8817 8.1574 13.0474 8.04187C13.2047 7.94662 13.3292 7.80563 13.4043 7.63775C13.4794 7.46987 13.5014 7.28308 13.4676 7.10232C13.4348 6.85798 13.5095 6.6075 13.2488 6.41734C12.9717 6.21287 12.6231 6.00328 12.5137 5.71702C12.4207 5.47063 12.6231 5.11383 12.7028 4.77236H8.60215V3.61607H9.02234C10.3105 3.61607 11.5977 3.61096 12.8858 3.62118C13.1312 3.62118 13.2876 3.57824 13.3837 3.3247C13.4195 3.26851 13.4673 3.221 13.5237 3.18563C13.5801 3.15026 13.6437 3.12792 13.7099 3.12023C13.9259 3.09978 14.1437 3.11219 14.356 3.15703C14.7343 3.23166 14.9929 3.0916 15.2608 2.82681C15.3859 2.71444 15.4827 2.5741 15.5433 2.41722C15.6039 2.26034 15.6265 2.09136 15.6094 1.92406C15.5552 1.00394 15.5726 1.00394 16.4273 0.650202C16.9098 0.451864 17.3944 0.257617 17.8709 0.0439432C18.0549 -0.0388681 18.1714 -0.0143314 18.2921 0.146179C18.4127 0.30669 18.5824 0.437552 18.6959 0.604196C18.927 0.944643 19.2357 1.00701 19.6334 1.04075C20.209 1.08982 20.4217 0.683941 20.6854 0.356785C20.9492 0.0296299 21.1762 -0.0521592 21.5728 0.144134C22.1515 0.434485 22.7659 0.655315 23.3691 0.89557C23.5624 0.972247 23.6646 1.07142 23.6247 1.2902C23.6012 1.41493 23.6247 1.5509 23.591 1.67052C23.4151 2.29723 23.7208 2.71639 24.1829 3.064C24.2725 3.12826 24.3794 3.1639 24.4896 3.16623C24.7319 3.16523 24.974 3.14987 25.2145 3.12023C25.5212 3.08547 25.7911 3.07115 25.8913 3.46885C25.9107 3.54655 26.1346 3.61403 26.2655 3.61505C27.6037 3.62527 28.943 3.62118 30.2823 3.62118C31.6216 3.62118 32.9855 3.62118 34.338 3.62118C36.1946 3.62118 37.3949 4.8245 37.3949 6.68826C37.3949 13.3847 37.3949 20.0809 37.3949 26.7766C37.3949 27.0966 37.49 27.2776 37.7507 27.4923C38.2772 27.9207 38.7291 28.441 39.2566 28.9676L32.0449 33.4884L31.4315 32.5182L37.4583 28.7355C36.5249 27.7857 35.0557 27.5955 33.8197 28.2631C31.8016 29.3509 29.7926 30.4561 27.7796 31.5541C27.6896 31.6032 27.6027 31.6564 27.5107 31.6993C27.126 31.8599 26.8116 32.1529 26.6243 32.5254C26.2563 33.241 25.602 33.6806 24.8076 33.6919C22.1443 33.7297 19.4801 33.7062 16.7872 33.7062V32.5714H17.1961C19.6324 32.5714 22.0687 32.5714 24.5039 32.5714C25.4016 32.5714 25.9956 31.8199 25.7819 30.9867C25.6367 30.4193 25.1409 30.0513 24.4978 30.0492C22.6739 30.0492 20.85 30.04 19.0272 30.0564C18.7256 30.0564 18.5865 29.9644 18.4577 29.6955C18.0743 28.8929 17.7001 28.0771 17.006 27.4729C15.7372 26.3616 14.2108 26.1295 12.6067 26.2481C10.6908 26.3943 8.89147 26.9791 7.15755 27.7816C7.00053 27.862 6.82857 27.909 6.6525 27.9196C4.50555 27.9288 2.36779 27.9258 0.224921 27.9196C0.149272 27.9146 0.0740951 27.904 0 27.8879V26.7531ZM13.7876 5.36738C13.9654 5.52686 14.1065 5.67408 14.2701 5.79677C14.3959 5.88022 14.4957 5.99728 14.5582 6.13463C14.6207 6.27198 14.6435 6.42412 14.6238 6.57376C14.5922 7.01849 14.6331 7.4673 14.6065 7.91203C14.5916 8.08032 14.5195 8.2384 14.402 8.35983C13.76 8.96711 13.7456 8.96404 14.1311 9.75739C14.1842 9.86679 14.3877 9.99765 14.4869 9.97413C15.1637 9.8126 15.6339 10.0958 16.0204 10.607C16.0742 10.6783 16.1379 10.7417 16.2095 10.7951C16.6819 11.1396 16.8945 11.5813 16.7657 12.1722C16.7401 12.2857 16.7504 12.4902 16.8127 12.5249C17.1069 12.7009 17.4261 12.8313 17.7594 12.9114C17.877 12.9339 18.0774 12.6926 18.1898 12.5362C18.2846 12.3874 18.4206 12.2695 18.5813 12.1969C18.742 12.1242 18.9204 12.1 19.0946 12.1272C19.5036 12.1651 19.9125 12.1129 20.3215 12.1456C20.5123 12.1632 20.6921 12.2433 20.8326 12.3736C21.4328 12.9921 21.4266 13.0075 22.2057 12.6241C22.3079 12.573 22.4398 12.39 22.4194 12.299C22.2599 11.5762 22.5932 11.0895 23.1207 10.6632C23.318 10.5047 23.4683 10.286 23.6697 10.1326C23.8023 10.0281 23.9651 9.96926 24.1339 9.96493C25.0069 10.0007 25.0141 10.013 25.3157 9.16442C25.3545 9.06219 25.3157 8.83727 25.2411 8.78922C24.6133 8.3997 24.4896 7.82718 24.5694 7.15344C24.597 6.91523 24.5438 6.66475 24.5837 6.42961C24.6083 6.23947 24.6899 6.06125 24.8178 5.91843C25.423 5.33773 25.4312 5.34693 25.0969 4.57811C25.0867 4.5546 25.0836 4.52086 25.0662 4.50961C24.964 4.44214 24.8403 4.30514 24.7544 4.32559C24.0388 4.49019 23.544 4.16406 23.1186 3.63345C22.9776 3.45556 22.7731 3.32674 22.6443 3.13863C22.5188 2.97772 22.4415 2.78451 22.4214 2.58144C22.4214 1.73902 22.4296 1.75026 21.6526 1.4272C21.4277 1.33416 21.2886 1.37608 21.1741 1.5601C20.8408 2.09787 20.3562 2.27576 19.7489 2.17352C19.6227 2.15308 19.4939 2.15308 19.3676 2.17352C18.7951 2.2686 18.3596 2.07128 18.0385 1.58975C17.9741 1.49263 17.8259 1.3495 17.7605 1.36995C17.428 1.45488 17.1105 1.59002 16.8189 1.77071C16.7166 1.84023 16.7381 2.15307 16.7739 2.34221C16.8506 2.75115 16.7115 3.04151 16.4028 3.30425C16.094 3.567 15.8313 3.88802 15.5266 4.15792C15.4066 4.26054 15.2559 4.32057 15.0982 4.32866C14.173 4.33684 14.173 4.32866 13.8387 5.20584C13.8244 5.25083 13.8111 5.29888 13.7876 5.36738ZM27.1069 30.5788C27.1592 30.5659 27.2104 30.5491 27.2602 30.5287C29.0494 29.5544 30.8385 28.5862 32.6215 27.5935C32.736 27.5301 32.826 27.3175 32.826 27.1723C32.8393 25.4517 32.8352 23.73 32.8331 22.0083C32.8331 21.8979 32.8178 21.7885 32.8096 21.6791H27.1059L27.1069 30.5788ZM6.36624 26.8615C8.24534 26.0201 10.0989 25.3453 12.072 25.1235V21.6771H6.36624V26.8615ZM16.6369 25.4302C16.7637 25.6684 16.8086 25.9015 16.9436 25.9843C17.8842 26.5592 18.6334 27.3998 19.0967 28.4001C19.2817 28.7897 19.5056 28.9256 19.9309 28.9113C20.7642 28.8725 21.6015 28.9001 22.4388 28.9001V25.4302H16.6369Z" fill="white"/>
<path d="M0 33.793C0.1646 33.7849 0.329202 33.7695 0.493802 33.7685C2.81456 33.7685 5.13429 33.7787 7.45403 33.7603C8.05096 33.7551 8.64468 33.848 9.21147 34.0353C12.9032 35.2315 16.6011 36.4062 20.2918 37.6054C21.6413 38.044 22.8876 37.8948 24.0868 37.13C26.0845 35.8572 28.0986 34.6099 30.1055 33.3473C30.2077 33.2819 30.3212 33.2215 30.4643 33.1428L31.0614 34.0885C30.9448 34.1683 30.8375 34.249 30.724 34.3196C28.7171 35.5791 26.703 36.8264 24.7043 38.1023C23.2096 39.0541 21.6434 39.2514 19.9565 38.7045C16.169 37.4776 12.377 36.2617 8.58067 35.0567C8.31599 34.9731 8.04034 34.9293 7.76279 34.9268C5.31525 34.9166 2.86772 34.9207 0.421212 34.9217C0.281149 34.9217 0.142111 34.9381 0.00307008 34.9463L0 33.793Z" fill="white"/>
<path d="M15.6084 23.0787V15.3804H23.5941V23.0787H15.6084ZM16.7565 16.5295V21.9378H22.448V16.5295H16.7565Z" fill="white"/>
<path d="M5.22632 13.627H13.211V19.3256H5.22632V13.627ZM12.0761 14.7873H6.37136V18.1713H12.0761V14.7873Z" fill="white"/>
<path d="M25.968 13.627H33.9567V19.3195H25.968V13.627ZM32.8065 18.1836V14.7884H27.1171V18.1836H32.8065Z" fill="white"/>
<path d="M6.75473 8.45901V7.36304H7.86399V8.45901H6.75473Z" fill="white"/>
<path d="M10.1623 7.35693V8.45904H9.06219V7.35898L10.1623 7.35693Z" fill="white"/>
<path d="M30.128 8.45913H29.0351V7.35498H30.1269L30.128 8.45913Z" fill="white"/>
<path d="M32.4293 7.36304V8.45083H31.3282V7.36304H32.4293Z" fill="white"/>
<path d="M16.736 7.11575C16.7309 5.56892 18.0283 4.27563 19.5884 4.27052C21.1485 4.26541 22.451 5.55359 22.4684 7.09633C22.4807 8.73211 21.2416 9.99268 19.6058 9.99574C17.97 9.99881 16.7411 8.76584 16.736 7.11575ZM19.5935 8.85377C20.0443 8.85549 20.4777 8.68026 20.8006 8.36577C21.1235 8.05127 21.3101 7.62262 21.3203 7.17198C21.3256 6.94183 21.2843 6.71298 21.1989 6.49916C21.1136 6.28535 20.9859 6.09098 20.8236 5.92772C20.6613 5.76445 20.4677 5.63565 20.2544 5.54905C20.0411 5.46245 19.8125 5.41983 19.5823 5.42375C18.608 5.43601 17.8831 6.17927 17.8852 7.16176C17.885 7.38562 17.9292 7.60729 18.0151 7.81399C18.1011 8.02069 18.2271 8.20833 18.3859 8.3661C18.5447 8.52387 18.7332 8.64864 18.9405 8.73321C19.1477 8.81779 19.3697 8.8605 19.5935 8.85888V8.85377Z" fill="white"/>
</g>
<defs>
<clipPath id="clip0_1018_8448">
<rect width="39.2587" height="39" fill="white"/>
</clipPath>
</defs>
</svg>
