<svg width="37" height="37" viewBox="0 0 37 37" fill="none" xmlns="http://www.w3.org/2000/svg">
<g clip-path="url(#clip0_1018_8377)">
<path d="M0.366575 36.9998C-0.185318 36.5097 -0.115853 36.0967 0.578837 35.7996C0.290561 35.4258 0.1036 34.9839 0.0359923 34.5168C-0.0316155 34.0496 0.022416 33.5729 0.192898 33.1327C0.418335 32.5616 0.811552 32.0723 1.32071 31.7292C1.82986 31.3861 2.43105 31.2053 3.045 31.2107C4.97469 31.2107 6.90439 31.2107 8.83408 31.2107H9.24318V29.775H0.995658C0.28553 29.775 0.0192205 29.5049 0.0192205 28.7909C0.0192205 27.79 0.0192205 26.7917 0.0192205 25.796C0.0192205 25.1515 0.304821 24.8659 0.941621 24.8659H2.90606C2.90606 24.3179 2.9408 23.7775 2.90606 23.245C2.80958 21.925 3.40007 21.3153 4.77016 21.3847C6.2483 21.4465 7.7303 21.3847 9.26633 21.3847C9.26633 21.0297 9.26633 20.6862 9.26633 20.3427C9.24797 20.2249 9.26406 20.1044 9.31267 19.9956C9.36128 19.8868 9.44033 19.7944 9.54029 19.7295C9.64025 19.6646 9.75686 19.6301 9.87603 19.63C9.9952 19.6299 10.1118 19.6643 10.2119 19.729C10.6712 19.9413 11.115 20.1806 11.555 20.4276C11.5871 20.453 11.6244 20.4713 11.6642 20.481C11.704 20.4908 11.7455 20.4919 11.7858 20.4842C11.8261 20.4765 11.8642 20.4602 11.8976 20.4365C11.931 20.4127 11.959 20.3821 11.9795 20.3465C13.4345 18.7102 14.9049 17.0854 16.356 15.4451C16.4581 15.3103 16.5075 15.1429 16.495 14.9743C16.4484 14.5151 16.5579 14.0536 16.8057 13.6643C17.0536 13.275 17.4254 12.9805 17.8612 12.8285C18.3033 12.6762 18.7848 12.6831 19.2223 12.848C19.6599 13.0129 20.0262 13.3254 20.2579 13.7315C20.496 14.1271 20.5878 14.5937 20.5173 15.05C20.4468 15.5063 20.2184 15.9234 19.8719 16.2286C19.7666 16.2987 19.6892 16.4035 19.6532 16.5248C19.6173 16.6461 19.625 16.7762 19.6751 16.8924C20.2926 19.0537 20.887 21.2226 21.489 23.3877C21.516 23.4881 21.5508 23.5884 21.5778 23.6811C23.9513 23.847 25.3407 24.9431 25.5298 26.7686C25.6416 27.6028 25.4524 28.4496 24.9962 29.1569C24.54 29.8642 23.8466 30.3858 23.0405 30.628C22.2427 30.8708 21.3849 30.8248 20.6177 30.498C19.8505 30.1712 19.223 29.5846 18.8454 28.8411C17.977 27.1275 18.5173 25.4718 20.4277 24.0323L18.9573 18.7295C18.799 18.1467 18.6408 17.5716 18.4748 16.9927C18.4498 16.9061 18.3952 16.831 18.3205 16.7805C18.2857 16.7805 18.1584 16.8306 18.1314 16.8885C17.1974 18.7179 16.2711 20.5472 15.3256 22.419C16.0975 22.805 16.1939 23.4688 16.1824 24.2252C16.1553 25.769 16.1824 27.2819 16.1824 28.8102C16.1824 29.501 15.9083 29.775 15.2214 29.775H12.7437V31.2107C13.9555 31.1721 15.0091 31.5272 15.7038 32.577C16.3985 33.6267 16.3213 34.7305 15.6073 35.8111H21.956V31.8321L23.1138 31.67V35.815H30.0607V35.4561C30.0607 26.9062 30.0607 18.359 30.0607 9.81427C30.0607 9.16589 29.8909 8.99221 29.258 8.98835H23.9166C23.3068 8.98835 23.1447 9.16975 23.1447 9.79111C23.1447 10.6093 23.1679 11.4275 23.1447 12.2457C23.0787 13.3805 23.1906 14.5186 23.4766 15.6188C23.6754 16.3189 23.6754 17.0606 23.4766 17.7608C23.146 19.0558 23.0159 20.3938 23.0907 21.7282C23.0907 22.0408 23.0907 22.3534 23.0907 22.6776L21.9329 22.5194C22.0101 21.1918 21.7592 19.8448 22.1258 18.5365C22.4837 17.2953 22.4703 15.9764 22.0873 14.7427C21.9912 14.3829 21.947 14.0112 21.956 13.6389C21.956 12.3152 21.956 10.9914 21.956 9.66761C21.9389 9.41992 21.975 9.17142 22.0621 8.93889C22.1491 8.70636 22.285 8.49519 22.4605 8.31963C22.6361 8.14406 22.8473 8.00818 23.0798 7.92115C23.3124 7.83412 23.5608 7.79795 23.8085 7.8151H29.3313C29.582 7.79579 29.834 7.83116 30.0697 7.91876C30.3054 8.00636 30.5193 8.1441 30.6965 8.32246C30.8738 8.50082 31.0102 8.71554 31.0963 8.95179C31.1825 9.18804 31.2163 9.44017 31.1954 9.69076V35.842H35.8267V2.01443C35.8267 1.32746 35.6646 1.16923 34.9737 1.16923H29.6516C29.065 1.16923 28.8798 1.35448 28.8798 1.9411V6.63027H27.722V4.93213C27.0967 4.93213 26.5101 4.90898 25.9235 4.93213C25.8502 4.93383 25.7781 4.95075 25.7117 4.9818C25.6453 5.01286 25.5861 5.05739 25.5378 5.11255C25.4895 5.16772 25.4533 5.23231 25.4313 5.30224C25.4093 5.37217 25.4021 5.4459 25.4102 5.51876C25.4102 5.88154 25.4102 6.24047 25.4102 6.62641H24.2524C24.2484 6.11044 24.2781 5.59477 24.3411 5.08265C24.4165 4.70711 24.6202 4.36955 24.9175 4.12797C25.2147 3.88639 25.5868 3.75588 25.9698 3.75888C26.5448 3.75888 27.1276 3.75888 27.7412 3.75888C27.7412 3.12208 27.7412 2.51229 27.7412 1.90251C27.7412 0.706098 28.4475 0.00368843 29.6709 -0.00017096C31.3807 -0.00017096 33.0904 0.0345636 34.8001 -0.00017096C35.8807 -0.0310461 36.6371 0.335596 37.0038 1.38535V36.9998H0.366575ZM1.1809 28.5941H15.0284C15.0284 26.9693 15.0284 25.3715 15.0284 23.7737C15.0284 23.6463 14.8509 23.4765 14.7119 23.3877C13.3882 22.6815 12.0528 21.9868 10.7252 21.2921C10.6364 21.2458 10.5438 21.2111 10.401 21.1493V26.0314H1.19635L1.1809 28.5941ZM8.07764 35.842C9.76033 35.842 11.4469 35.842 13.1296 35.842C14.4148 35.842 15.3102 34.7189 14.9474 33.6151C14.8038 33.2346 14.5436 32.9091 14.204 32.6852C13.8643 32.4613 13.4626 32.3505 13.0563 32.3686H4.32245C3.86704 32.3686 3.40778 32.3686 2.95237 32.3686C1.71737 32.4303 0.87601 33.5572 1.25423 34.6263C1.40028 34.9934 1.65551 35.3069 1.98543 35.5243C2.31535 35.7417 2.70406 35.8526 3.09903 35.842C4.75857 35.842 6.4181 35.842 8.07764 35.842ZM24.2871 27.17C24.2871 26.5558 24.0431 25.9668 23.6089 25.5326C23.1746 25.0983 22.5856 24.8543 21.9715 24.8543C21.3607 24.8594 20.7766 25.1056 20.3465 25.5393C19.9164 25.9731 19.6751 26.5591 19.6751 27.17C19.6832 27.7787 19.9308 28.3598 20.3642 28.7874C20.7976 29.215 21.3819 29.4548 21.9908 29.4547C22.5936 29.4457 23.1691 29.202 23.595 28.7754C24.0209 28.3487 24.2637 27.7728 24.2717 27.17H24.2871ZM9.25861 22.5387C7.58363 22.5387 5.93954 22.5387 4.29543 22.5387C4.22211 22.5387 4.07931 22.6467 4.07931 22.7046C4.07931 23.4109 4.07931 24.1133 4.07931 24.8119H9.26633L9.25861 22.5387ZM14.3299 21.871L17.0005 16.5798L16.9157 16.545L12.8363 21.0914L14.3299 21.871ZM18.5096 15.5995C18.6239 15.599 18.7371 15.5759 18.8425 15.5316C18.9479 15.4872 19.0435 15.4225 19.1239 15.3411C19.2042 15.2597 19.2676 15.1632 19.3106 15.0572C19.3535 14.9512 19.3751 14.8378 19.3741 14.7234C19.3702 14.4997 19.2801 14.2862 19.1227 14.1273C18.9652 13.9684 18.7525 13.8764 18.5289 13.8705C18.2982 13.8674 18.0757 13.9558 17.9101 14.1164C17.7444 14.277 17.6491 14.4966 17.6451 14.7273C17.6409 14.9573 17.7278 15.1797 17.8869 15.3459C18.0459 15.5122 18.2642 15.6089 18.4942 15.6149L18.5096 15.5995ZM10.4434 29.7789V31.2107H11.5511V29.7943L10.4434 29.7789Z" fill="white"/>
<path d="M18.8686 5.17549C18.6524 5.03269 18.4826 4.92077 18.2935 4.78955C18.2299 4.74879 18.1749 4.69588 18.1317 4.63384C18.0885 4.57181 18.058 4.50188 18.0419 4.42804C18.0258 4.3542 18.0243 4.2779 18.0377 4.20351C18.0511 4.12913 18.079 4.05811 18.1199 3.99452C18.1605 3.93058 18.2135 3.87549 18.2759 3.83254C18.3383 3.78958 18.4087 3.75964 18.4829 3.74451C18.5571 3.72938 18.6336 3.72937 18.7079 3.74447C18.7821 3.75958 18.8525 3.78949 18.9149 3.83242C19.3742 4.11416 19.8296 4.40747 20.2695 4.72394C20.3477 4.7724 20.4122 4.84002 20.457 4.92039C20.5017 5.00076 20.5252 5.09122 20.5252 5.18321C20.5252 5.2752 20.5017 5.36566 20.457 5.44603C20.4122 5.5264 20.3477 5.59402 20.2695 5.64248C19.8257 5.96667 19.3587 6.2677 18.884 6.55329C18.8207 6.593 18.7501 6.61936 18.6762 6.63074C18.6024 6.64213 18.5271 6.63831 18.4548 6.61952C18.3825 6.60072 18.3148 6.56735 18.2559 6.52145C18.197 6.47555 18.148 6.4181 18.1121 6.35261C18.0333 6.23025 18.0038 6.08255 18.0296 5.93931C18.0554 5.79606 18.1345 5.66792 18.2511 5.58073C18.3437 5.50354 18.4518 5.44565 18.5482 5.38004L18.8686 5.17549Z" fill="white"/>
<path d="M19.4707 33.5266C18.9612 33.5266 18.6756 33.1407 18.8261 32.7547C19.0138 32.3132 19.229 31.884 19.4707 31.4696C19.5039 31.4075 19.5495 31.3529 19.6046 31.3091C19.6597 31.2653 19.7231 31.2332 19.791 31.2148C19.859 31.1964 19.9299 31.192 19.9996 31.202C20.0693 31.2119 20.1362 31.236 20.1962 31.2727C20.2624 31.3022 20.322 31.3447 20.3714 31.3976C20.4208 31.4506 20.4591 31.513 20.484 31.581C20.5088 31.6491 20.5197 31.7214 20.516 31.7938C20.5123 31.8661 20.4941 31.937 20.4625 32.0022C20.2821 32.4216 20.0772 32.8301 19.8489 33.2256C19.7446 33.3506 19.6159 33.453 19.4707 33.5266Z" fill="white"/>
<path d="M18.637 30.5163C18.637 30.9987 17.5602 32.114 17.2013 32.06C17.105 32.0488 17.0121 32.0172 16.9289 31.9673C16.8457 31.9174 16.7741 31.8503 16.7189 31.7706C16.6771 31.6762 16.6579 31.5733 16.6626 31.4702C16.6672 31.3671 16.6958 31.2665 16.7459 31.1762C17.0366 30.8092 17.3681 30.4765 17.7339 30.1844C17.8245 30.1356 17.9246 30.1073 18.0273 30.1013C18.1299 30.0953 18.2326 30.1118 18.3283 30.1496C18.4826 30.2229 18.5753 30.4391 18.637 30.5163Z" fill="white"/>
<path d="M30.8828 3.47336C30.775 3.48304 30.6665 3.48304 30.5586 3.47336C30.4188 3.45974 30.2893 3.39365 30.1962 3.28839C30.1031 3.18312 30.0533 3.0465 30.0569 2.90603C30.0528 2.75927 30.1068 2.61682 30.2074 2.5098C30.3079 2.40278 30.4467 2.33988 30.5934 2.33484C30.7964 2.32133 31.0001 2.32133 31.2032 2.33484C31.279 2.33433 31.3542 2.34883 31.4244 2.3775C31.4946 2.40617 31.5585 2.44845 31.6123 2.5019C31.6661 2.55535 31.7088 2.61891 31.7379 2.68893C31.7671 2.75895 31.7821 2.83405 31.7821 2.90989C31.779 3.06275 31.7156 3.20821 31.6057 3.3145C31.4958 3.42079 31.3483 3.47929 31.1955 3.47722C31.0874 3.47722 30.9793 3.47722 30.8713 3.47722L30.8828 3.47336Z" fill="white"/>
<path d="M33.7967 3.48118H33.5806C33.4991 3.48818 33.4171 3.47806 33.3398 3.45149C33.2624 3.42491 33.1915 3.38246 33.1315 3.32686C33.0716 3.27126 33.0239 3.20373 32.9916 3.12862C32.9592 3.05351 32.943 2.97246 32.9438 2.89069C32.9457 2.81227 32.9635 2.73504 32.9961 2.66371C33.0287 2.59237 33.0755 2.52842 33.1337 2.47572C33.1918 2.42302 33.26 2.38269 33.3342 2.35716C33.4083 2.33163 33.4869 2.32145 33.5652 2.32722C33.7195 2.32722 33.8778 2.32722 34.0321 2.32722C34.1134 2.31965 34.1954 2.32923 34.2727 2.35535C34.3501 2.38148 34.421 2.42355 34.4811 2.47886C34.5411 2.53416 34.5888 2.60146 34.6212 2.6764C34.6536 2.75133 34.6698 2.83223 34.669 2.91385C34.6665 2.99226 34.6484 3.06939 34.6156 3.14066C34.5828 3.21194 34.5361 3.27592 34.4782 3.32881C34.4202 3.38171 34.3523 3.42245 34.2783 3.44862C34.2043 3.47479 34.1259 3.48586 34.0476 3.48118H33.7967Z" fill="white"/>
<path d="M27.9922 32.0831C27.8844 32.0928 27.7759 32.0928 27.668 32.0831C27.5281 32.0695 27.3986 32.0034 27.3056 31.8982C27.2125 31.7929 27.1627 31.6563 27.1663 31.5158C27.1637 31.441 27.1761 31.3665 27.2029 31.2966C27.2296 31.2267 27.2701 31.1629 27.3219 31.1089C27.3737 31.055 27.4358 31.0119 27.5045 30.9824C27.5733 30.9528 27.6472 30.9374 27.722 30.9369C27.9264 30.9234 28.1314 30.9234 28.3357 30.9369C28.4828 30.9429 28.6218 31.0058 28.7233 31.1124C28.8248 31.219 28.881 31.3609 28.8799 31.5081C28.8804 31.5834 28.866 31.6581 28.8375 31.7278C28.809 31.7976 28.767 31.861 28.7139 31.9145C28.6608 31.9679 28.5977 32.0103 28.5281 32.0393C28.4586 32.0682 28.384 32.0831 28.3087 32.0831C28.1994 32.0889 28.0899 32.0889 27.9806 32.0831H27.9922Z" fill="white"/>
<path d="M30.9137 4.63501C31.5081 4.63501 31.7782 4.8164 31.7821 5.21006C31.786 5.60372 31.5042 5.79283 30.9214 5.79283C30.3387 5.79283 30.0569 5.61144 30.0531 5.21778C30.0492 4.82412 30.3271 4.63501 30.9137 4.63501Z" fill="white"/>
<path d="M33.8353 4.64275C33.9432 4.63503 34.0516 4.63503 34.1595 4.64275C34.2994 4.65622 34.4292 4.72149 34.5234 4.82573C34.6177 4.92998 34.6696 5.06569 34.6689 5.20622C34.6742 5.35274 34.6218 5.49549 34.5229 5.60374C34.424 5.712 34.2866 5.77714 34.1402 5.78513C33.9244 5.8025 33.7076 5.8025 33.4918 5.78513C33.3454 5.78015 33.2065 5.71871 33.1044 5.61368C33.0022 5.50865 32.9447 5.36817 32.9438 5.22166C32.9422 5.146 32.9557 5.0708 32.9835 5.00041C33.0113 4.93002 33.0528 4.86585 33.1056 4.81163C33.1583 4.75741 33.2214 4.71422 33.291 4.68457C33.3606 4.65491 33.4354 4.63939 33.5111 4.63889C33.6192 4.63889 33.7272 4.63889 33.8391 4.63889L33.8353 4.64275Z" fill="white"/>
<path d="M33.7967 10.4165H33.5806C33.4991 10.4235 33.4171 10.4134 33.3398 10.3868C33.2624 10.3602 33.1915 10.3178 33.1315 10.2622C33.0716 10.2066 33.0239 10.1391 32.9916 10.0639C32.9592 9.98883 32.943 9.90779 32.9438 9.82602C32.9457 9.74759 32.9635 9.67037 32.9961 9.59903C33.0287 9.5277 33.0755 9.46374 33.1337 9.41104C33.1918 9.35835 33.26 9.31801 33.3342 9.29248C33.4083 9.26696 33.4869 9.25677 33.5652 9.26255C33.7195 9.26255 33.8778 9.26255 34.036 9.26255C34.1171 9.25493 34.1989 9.26451 34.276 9.29067C34.3532 9.31682 34.4239 9.35896 34.4837 9.41433C34.5434 9.4697 34.5908 9.53705 34.6227 9.61198C34.6546 9.68691 34.6704 9.76774 34.669 9.84917C34.6665 9.92758 34.6484 10.0047 34.6156 10.076C34.5828 10.1473 34.5361 10.2112 34.4782 10.2641C34.4202 10.317 34.3523 10.3578 34.2783 10.3839C34.2043 10.4101 34.1259 10.4212 34.0476 10.4165H33.7967Z" fill="white"/>
<path d="M33.7774 28.8954C33.681 28.9012 33.5843 28.9012 33.4879 28.8954C33.3425 28.8885 33.2052 28.8264 33.1041 28.7216C33.0029 28.6169 32.9456 28.4775 32.9438 28.3319C32.9395 28.1857 32.9923 28.0435 33.0909 27.9354C33.1896 27.8274 33.3265 27.762 33.4725 27.753C33.6896 27.7357 33.9077 27.7357 34.1248 27.753C34.2722 27.758 34.4117 27.8207 34.5135 27.9275C34.6152 28.0343 34.671 28.1767 34.6689 28.3242C34.6713 28.4699 34.6179 28.6111 34.5196 28.7187C34.4213 28.8263 34.2855 28.8923 34.1402 28.9031C34.0205 28.9147 33.897 28.8954 33.7774 28.8954Z" fill="white"/>
<path d="M33.7889 33.5266C33.681 33.5324 33.5728 33.5324 33.4648 33.5266C33.3187 33.5138 33.1832 33.4454 33.0862 33.3355C32.9892 33.2256 32.9383 33.0826 32.9438 32.9361C32.9395 32.7923 32.9916 32.6525 33.0889 32.5465C33.1862 32.4406 33.3211 32.3768 33.4648 32.3688C33.6562 32.3553 33.8484 32.3553 34.0398 32.3688C34.1218 32.3622 34.2043 32.373 34.2818 32.4006C34.3593 32.4281 34.43 32.4718 34.4895 32.5287C34.5489 32.5855 34.5956 32.6543 34.6265 32.7305C34.6575 32.8068 34.6719 32.8887 34.6689 32.9709C34.665 33.049 34.6455 33.1255 34.6116 33.196C34.5777 33.2665 34.53 33.3294 34.4714 33.3812C34.4128 33.433 34.3444 33.4725 34.2703 33.4975C34.1962 33.5225 34.1178 33.5324 34.0398 33.5266H33.7889Z" fill="white"/>
<path d="M25.1362 34.3987H24.9934C24.538 34.3987 24.2756 34.1787 24.2756 33.8198C24.2756 33.4609 24.5419 33.2486 24.9973 33.2448C25.1285 33.2448 25.2636 33.2448 25.3832 33.2448C25.4617 33.2411 25.54 33.2534 25.6136 33.2808C25.6872 33.3082 25.7545 33.3502 25.8115 33.4043C25.8684 33.4583 25.9139 33.5234 25.9451 33.5954C25.9763 33.6675 25.9926 33.7451 25.993 33.8237C25.99 33.9772 25.9268 34.1235 25.8171 34.231C25.7075 34.3385 25.56 34.3988 25.4064 34.3987H25.1362Z" fill="white"/>
<path d="M33.8353 6.95452C33.9432 6.9468 34.0515 6.9468 34.1595 6.95452C34.3 6.96625 34.4309 7.031 34.5255 7.13563C34.6201 7.24026 34.6714 7.37695 34.6689 7.51799C34.6752 7.66478 34.6231 7.80808 34.524 7.91657C34.4249 8.02505 34.2869 8.08989 34.1402 8.0969C33.9231 8.11426 33.705 8.11426 33.4879 8.0969C33.3419 8.09189 33.2035 8.03032 33.1019 7.92519C33.0004 7.82006 32.9437 7.67958 32.9438 7.53343C32.9428 7.45791 32.9566 7.38293 32.9846 7.31277C33.0125 7.24261 33.054 7.17865 33.1067 7.12453C33.1594 7.07041 33.2222 7.0272 33.2916 6.99737C33.361 6.96754 33.4356 6.95166 33.5111 6.95066C33.6192 6.95066 33.7272 6.95066 33.8353 6.95066V6.95452Z" fill="white"/>
<path d="M28.0269 34.3987H27.8802C27.4287 34.3987 27.1624 34.1787 27.1662 33.8198C27.1701 33.4609 27.4287 33.2486 27.8879 33.2448C28.0192 33.2448 28.1504 33.2448 28.2739 33.2448C28.3521 33.2411 28.4304 33.2534 28.5037 33.2808C28.5771 33.3083 28.6442 33.3503 28.7008 33.4045C28.7575 33.4586 28.8025 33.5237 28.8333 33.5957C28.8641 33.6678 28.8799 33.7453 28.8798 33.8237C28.8789 33.9022 28.8621 33.9798 28.8304 34.0517C28.7988 34.1236 28.7529 34.1883 28.6956 34.242C28.6383 34.2957 28.5707 34.3373 28.4969 34.3642C28.4231 34.3912 28.3446 34.4029 28.2662 34.3987H28.0269Z" fill="white"/>
<path d="M25.1478 10.127H25.3292C25.7499 10.127 26.0084 10.3624 26.0046 10.7136C26.0007 11.0648 25.7383 11.2732 25.3138 11.2809C25.1671 11.2809 25.0243 11.2809 24.8776 11.2809C24.7995 11.2835 24.7216 11.2703 24.6487 11.2422C24.5758 11.2141 24.5092 11.1716 24.453 11.1172C24.3968 11.0628 24.3522 10.9977 24.3217 10.9257C24.2912 10.8537 24.2755 10.7763 24.2756 10.6981C24.277 10.6196 24.2943 10.5421 24.3264 10.4704C24.3585 10.3987 24.4048 10.3342 24.4625 10.2809C24.5202 10.2275 24.5881 10.1864 24.6621 10.1599C24.7361 10.1335 24.8146 10.1223 24.8931 10.127C24.978 10.1231 25.0629 10.127 25.1478 10.127Z" fill="white"/>
<path d="M28.0038 11.2733C27.8844 11.285 27.7642 11.285 27.6448 11.2733C27.5105 11.257 27.3872 11.1908 27.2993 11.0879C27.2114 10.985 27.1653 10.8528 27.1701 10.7176C27.1644 10.6478 27.1725 10.5776 27.1941 10.5109C27.2156 10.4443 27.2502 10.3827 27.2958 10.3295C27.3414 10.2764 27.3971 10.2328 27.4597 10.2014C27.5222 10.17 27.5904 10.1513 27.6603 10.1464C27.8873 10.1211 28.1164 10.1211 28.3434 10.1464C28.4855 10.1532 28.6198 10.2134 28.7193 10.3151C28.8188 10.4167 28.8761 10.5522 28.8799 10.6944C28.8819 10.8467 28.824 10.9936 28.7185 11.1034C28.613 11.2132 28.4686 11.277 28.3164 11.2811C28.2083 11.2811 28.1003 11.2811 27.9922 11.2811L28.0038 11.2733Z" fill="white"/>
<path d="M33.7929 12.7283H33.5767C33.4956 12.7347 33.414 12.7242 33.3371 12.6973C33.2602 12.6705 33.1898 12.628 33.1302 12.5724C33.0707 12.5169 33.0234 12.4496 32.9913 12.3747C32.9592 12.2999 32.943 12.2192 32.9438 12.1378C32.9457 12.0594 32.9635 11.9821 32.9961 11.9108C33.0287 11.8395 33.0755 11.7755 33.1337 11.7228C33.1918 11.6701 33.26 11.6298 33.3342 11.6043C33.4083 11.5787 33.4869 11.5685 33.5652 11.5743C33.7234 11.5743 33.8778 11.5743 34.036 11.5743C34.1171 11.5667 34.1989 11.5763 34.276 11.6024C34.3532 11.6286 34.4239 11.6707 34.4837 11.7261C34.5434 11.7815 34.5908 11.8488 34.6227 11.9237C34.6546 11.9987 34.6704 12.0795 34.669 12.1609C34.6665 12.2392 34.6484 12.3162 34.6156 12.3872C34.5827 12.4583 34.5359 12.522 34.4779 12.5746C34.4199 12.6272 34.352 12.6676 34.278 12.6933C34.2041 12.7191 34.1257 12.7296 34.0476 12.7244L33.7929 12.7283Z" fill="white"/>
<path d="M25.1517 12.4388H25.3717C25.4528 12.4324 25.5344 12.4429 25.6113 12.4698C25.6882 12.4966 25.7586 12.5392 25.8182 12.5947C25.8777 12.6502 25.925 12.7176 25.9571 12.7924C25.9892 12.8672 26.0054 12.9479 26.0046 13.0293C26.0017 13.1078 25.983 13.1848 25.9498 13.2559C25.9166 13.327 25.8694 13.3907 25.8111 13.4432C25.7528 13.4958 25.6846 13.5361 25.6104 13.5618C25.5363 13.5875 25.4577 13.598 25.3794 13.5928C25.2211 13.5928 25.0668 13.5928 24.9085 13.5928C24.8274 13.5992 24.7458 13.5887 24.6689 13.5619C24.592 13.535 24.5216 13.4925 24.462 13.437C24.4025 13.3814 24.3552 13.3141 24.3231 13.2393C24.291 13.1644 24.2748 13.0837 24.2756 13.0023C24.278 12.9237 24.2963 12.8464 24.3293 12.7751C24.3624 12.7037 24.4095 12.6398 24.468 12.5871C24.5264 12.5345 24.5948 12.4942 24.6692 12.4687C24.7436 12.4432 24.8224 12.4331 24.9008 12.4388H25.1517Z" fill="white"/>
<path d="M28.0076 13.5889C27.8998 13.5985 27.7913 13.5985 27.6835 13.5889C27.5429 13.5791 27.4112 13.5162 27.3152 13.413C27.2192 13.3099 27.166 13.174 27.1663 13.0331C27.16 12.8866 27.2114 12.7434 27.3096 12.6344C27.4077 12.5254 27.5448 12.4593 27.6912 12.4503C27.8827 12.4388 28.0747 12.4388 28.2662 12.4503C28.4206 12.443 28.5716 12.4968 28.6865 12.6001C28.8014 12.7035 28.8709 12.848 28.8799 13.0022C28.8807 13.0836 28.8645 13.1643 28.8324 13.2392C28.8003 13.314 28.753 13.3813 28.6934 13.4369C28.6339 13.4924 28.5635 13.5349 28.4866 13.5618C28.4097 13.5886 28.3281 13.5991 28.2469 13.5927H27.9961L28.0076 13.5889Z" fill="white"/>
<path d="M25.1131 15.9008C25.0167 15.9085 24.92 15.9085 24.8236 15.9008C24.6778 15.894 24.5401 15.8319 24.4383 15.7273C24.3365 15.6227 24.2784 15.4832 24.2756 15.3373C24.2723 15.1907 24.326 15.0485 24.4253 14.9406C24.5246 14.8326 24.6618 14.7673 24.8082 14.7584C25.024 14.741 25.2408 14.741 25.4566 14.7584C25.6027 14.7643 25.7409 14.826 25.8429 14.9309C25.9449 15.0357 26.0027 15.1756 26.0046 15.3219C26.006 15.4684 25.9519 15.61 25.8531 15.7181C25.7542 15.8263 25.618 15.8929 25.472 15.9046C25.3524 15.9124 25.2327 15.9008 25.1131 15.9008Z" fill="white"/>
<path d="M28.0385 15.9044C27.4441 15.9044 27.1701 15.7269 27.1662 15.3371C27.1624 14.9473 27.4364 14.7505 28.0192 14.7505C28.6019 14.7505 28.8875 14.928 28.8914 15.3178C28.8953 15.7076 28.6174 15.9044 28.0385 15.9044Z" fill="white"/>
<path d="M33.7735 17.348C33.6771 17.3538 33.5805 17.3538 33.4841 17.348C33.3384 17.3411 33.2009 17.2783 33.1003 17.1726C32.9997 17.067 32.9436 16.9266 32.9438 16.7807C32.9416 16.6341 32.9962 16.4924 33.0962 16.3852C33.1962 16.278 33.3338 16.2136 33.4802 16.2057C33.6832 16.1902 33.8871 16.1902 34.09 16.2057C34.1658 16.2041 34.2412 16.2178 34.3116 16.2458C34.382 16.2739 34.4461 16.3158 34.5001 16.369C34.554 16.4223 34.5968 16.4858 34.6258 16.5558C34.6548 16.6259 34.6695 16.701 34.6689 16.7769C34.6694 16.8524 34.6551 16.9273 34.6266 16.9972C34.5982 17.0672 34.5563 17.1309 34.5032 17.1846C34.4502 17.2384 34.3871 17.2812 34.3175 17.3105C34.2479 17.3399 34.1733 17.3553 34.0977 17.3558C33.9897 17.3558 33.8816 17.3558 33.7735 17.3558V17.348Z" fill="white"/>
<path d="M25.1053 18.2126C25.0102 18.2183 24.9148 18.2183 24.8197 18.2126C24.6736 18.2038 24.5363 18.14 24.4353 18.034C24.3343 17.928 24.2773 17.7877 24.2756 17.6414C24.2734 17.4952 24.3282 17.3538 24.4283 17.2472C24.5284 17.1407 24.666 17.0772 24.812 17.0702C25.0163 17.0547 25.2214 17.0547 25.4257 17.0702C25.5012 17.0697 25.5761 17.084 25.646 17.1125C25.716 17.1409 25.7797 17.1828 25.8334 17.2359C25.8872 17.2889 25.93 17.352 25.9593 17.4216C25.9887 17.4912 26.0041 17.5658 26.0046 17.6414C26.0036 17.7933 25.9434 17.9388 25.8367 18.0469C25.73 18.1551 25.5853 18.2173 25.4334 18.2203C25.3253 18.2203 25.2134 18.2203 25.1053 18.2203V18.2126Z" fill="white"/>
<path d="M28.0423 17.0623C28.1157 17.0623 28.1851 17.0623 28.2585 17.0623C28.3387 17.0575 28.4191 17.0693 28.4945 17.0969C28.57 17.1244 28.6391 17.1673 28.6973 17.2226C28.7556 17.278 28.8019 17.3447 28.8333 17.4187C28.8647 17.4927 28.8805 17.5724 28.8798 17.6527C28.8769 17.7312 28.8583 17.8082 28.825 17.8793C28.7918 17.9504 28.7446 18.0141 28.6863 18.0667C28.628 18.1192 28.5598 18.1595 28.4856 18.1852C28.4115 18.2109 28.3329 18.2214 28.2546 18.2162C28.1002 18.2162 27.942 18.2162 27.7876 18.2162C27.7064 18.2227 27.6248 18.2121 27.548 18.1853C27.4711 18.1585 27.4006 18.1159 27.3411 18.0604C27.2816 18.0048 27.2343 17.9375 27.2022 17.8627C27.1701 17.7878 27.1539 17.7072 27.1547 17.6257C27.1571 17.5471 27.1753 17.4698 27.2084 17.3985C27.2415 17.3271 27.2886 17.2632 27.347 17.2106C27.4054 17.1579 27.4739 17.1176 27.5483 17.0922C27.6227 17.0667 27.7015 17.0565 27.7799 17.0623C27.8725 17.0584 27.9574 17.0623 28.0423 17.0623Z" fill="white"/>
<path d="M33.8199 13.8822H34.036C34.1172 13.8758 34.1988 13.8863 34.2757 13.9131C34.3525 13.94 34.423 13.9825 34.4825 14.0381C34.5421 14.0936 34.5894 14.1609 34.6215 14.2358C34.6536 14.3106 34.6697 14.3913 34.6689 14.4727C34.6671 14.5511 34.6493 14.6283 34.6166 14.6997C34.584 14.771 34.5372 14.835 34.4791 14.8877C34.421 14.9404 34.3528 14.9807 34.2786 15.0062C34.2044 15.0318 34.1258 15.0419 34.0476 15.0362C33.8894 15.0362 33.7311 15.0362 33.5767 15.0362C33.4954 15.0432 33.4136 15.0331 33.3364 15.0065C33.2593 14.9799 33.1886 14.9374 33.1289 14.8817C33.0693 14.826 33.022 14.7585 32.9901 14.6833C32.9582 14.6082 32.9424 14.5273 32.9438 14.4457C32.9467 14.3678 32.9653 14.2912 32.9983 14.2206C33.0313 14.15 33.0782 14.0867 33.1362 14.0345C33.1941 13.9823 33.2619 13.9423 33.3356 13.9168C33.4093 13.8913 33.4874 13.8808 33.5652 13.8861L33.8199 13.8822Z" fill="white"/>
<path d="M33.7735 19.656C33.6657 19.6657 33.5572 19.6657 33.4494 19.656C33.3088 19.6433 33.1783 19.5776 33.0844 19.4722C32.9905 19.3668 32.9403 19.2297 32.9438 19.0886C32.9406 18.9421 32.995 18.8003 33.0953 18.6935C33.1956 18.5867 33.3338 18.5235 33.4802 18.5174C33.6845 18.502 33.8896 18.502 34.0939 18.5174C34.2447 18.5164 34.3898 18.5751 34.4975 18.6806C34.6053 18.7862 34.6669 18.9301 34.6689 19.0809C34.6694 19.1564 34.6551 19.2313 34.6266 19.3013C34.5982 19.3712 34.5563 19.4349 34.5032 19.4887C34.4502 19.5424 34.3871 19.5852 34.3175 19.6146C34.2479 19.6439 34.1732 19.6593 34.0977 19.6598C33.9897 19.6598 33.8816 19.6598 33.7735 19.6598V19.656Z" fill="white"/>
<path d="M25.1594 19.3741H25.3755C25.4538 19.3684 25.5325 19.3784 25.6068 19.4036C25.6812 19.4288 25.7497 19.4687 25.8084 19.5209C25.8671 19.5731 25.9147 19.6365 25.9484 19.7074C25.9821 19.7783 26.0012 19.8553 26.0046 19.9337C26.0059 20.0151 25.9902 20.0959 25.9586 20.1709C25.927 20.2459 25.8801 20.3135 25.8209 20.3694C25.7617 20.4253 25.6916 20.4683 25.6149 20.4956C25.5382 20.5229 25.4567 20.534 25.3755 20.5281H24.9047C24.8235 20.534 24.742 20.5229 24.6653 20.4956C24.5886 20.4683 24.5184 20.4253 24.4593 20.3694C24.4001 20.3135 24.3532 20.2459 24.3216 20.1709C24.29 20.0959 24.2743 20.0151 24.2756 19.9337C24.279 19.8553 24.2981 19.7783 24.3318 19.7074C24.3655 19.6365 24.4131 19.5731 24.4718 19.5209C24.5304 19.4687 24.599 19.4288 24.6733 19.4036C24.7477 19.3784 24.8264 19.3684 24.9047 19.3741H25.1594Z" fill="white"/>
<path d="M28.0462 20.5281C27.4441 20.5281 27.1778 20.3621 27.1662 19.9685C27.1547 19.5748 27.4364 19.3741 28.0462 19.3741H28.2623C28.3397 19.37 28.4171 19.3812 28.4901 19.4071C28.5631 19.4331 28.6303 19.4732 28.6877 19.5252C28.7451 19.5773 28.7916 19.6402 28.8246 19.7103C28.8576 19.7804 28.8764 19.8563 28.8798 19.9337C28.8811 20.0151 28.8654 20.0959 28.8338 20.1709C28.8022 20.2459 28.7553 20.3135 28.6961 20.3694C28.6369 20.4253 28.5668 20.4683 28.4901 20.4956C28.4134 20.5229 28.3319 20.534 28.2507 20.5281H28.0462Z" fill="white"/>
<path d="M33.8276 20.8213C33.9355 20.8136 34.0438 20.8136 34.1518 20.8213C34.2927 20.832 34.4244 20.8957 34.5203 20.9995C34.6163 21.1033 34.6693 21.2396 34.6689 21.3809C34.6753 21.5279 34.624 21.6715 34.5259 21.7811C34.4279 21.8907 34.2908 21.9576 34.1441 21.9676C33.9526 21.9811 33.7605 21.9811 33.569 21.9676C33.4908 21.9739 33.4121 21.9642 33.3377 21.9392C33.2633 21.9141 33.1948 21.8742 33.1363 21.8219C33.0779 21.7695 33.0306 21.7059 32.9975 21.6347C32.9644 21.5635 32.9462 21.4864 32.9438 21.408C32.9425 21.3262 32.9582 21.2451 32.9901 21.1698C33.0219 21.0945 33.0692 21.0267 33.1288 20.9708C33.1884 20.9148 33.259 20.8719 33.3361 20.8448C33.4133 20.8178 33.4952 20.8071 33.5767 20.8136H33.8276V20.8213Z" fill="white"/>
<path d="M25.1517 21.6859H25.3678C25.4492 21.6795 25.5309 21.69 25.608 21.7168C25.6851 21.7436 25.7558 21.7861 25.8156 21.8416C25.8754 21.8971 25.9231 21.9643 25.9557 22.0392C25.9882 22.114 26.0049 22.1948 26.0046 22.2764C26.0017 22.3548 25.983 22.4319 25.9498 22.503C25.9166 22.5741 25.8694 22.6378 25.8111 22.6903C25.7528 22.7428 25.6846 22.7831 25.6104 22.8088C25.5363 22.8345 25.4577 22.8451 25.3794 22.8399H24.9085C24.8274 22.8463 24.7458 22.8358 24.6689 22.8089C24.592 22.7821 24.5216 22.7396 24.462 22.684C24.4025 22.6285 24.3552 22.5611 24.3231 22.4863C24.291 22.4115 24.2748 22.3308 24.2756 22.2494C24.278 22.1708 24.2963 22.0935 24.3293 22.0221C24.3624 21.9508 24.4095 21.8868 24.468 21.8342C24.5264 21.7816 24.5948 21.7413 24.6692 21.7158C24.7436 21.6903 24.8224 21.6801 24.9008 21.6859H25.1517Z" fill="white"/>
<path d="M28.0308 21.6859H28.1774C28.629 21.6859 28.8953 21.9058 28.8914 22.2648C28.8876 22.6237 28.6251 22.836 28.1697 22.8398C28.0385 22.8398 27.9034 22.8398 27.7838 22.8398C27.7055 22.8435 27.6273 22.8312 27.5539 22.8038C27.4805 22.7763 27.4135 22.7342 27.3568 22.6801C27.3002 22.626 27.2551 22.5609 27.2244 22.4889C27.1936 22.4168 27.1778 22.3393 27.1779 22.2609C27.1782 22.1822 27.1946 22.1044 27.2261 22.0322C27.2576 21.9601 27.3035 21.8951 27.3609 21.8413C27.4183 21.7875 27.4861 21.7459 27.5602 21.7192C27.6342 21.6925 27.7129 21.6811 27.7915 21.6859H28.0308Z" fill="white"/>
<path d="M33.8083 23.1293H33.9163C34.4026 23.1293 34.6882 23.3377 34.6882 23.7082C34.6882 24.0787 34.4219 24.2832 33.9163 24.2871C33.7928 24.2871 33.6732 24.2871 33.5536 24.2871C33.4753 24.2913 33.397 24.2795 33.3234 24.2526C33.2499 24.2256 33.1825 24.184 33.1255 24.1302C33.0685 24.0764 33.023 24.0116 32.9917 23.9398C32.9605 23.8679 32.9442 23.7904 32.9438 23.712C32.9436 23.6335 32.9596 23.5558 32.9906 23.4837C33.0217 23.4115 33.0672 23.3465 33.1243 23.2926C33.1814 23.2388 33.249 23.1972 33.3228 23.1704C33.3967 23.1436 33.4752 23.1323 33.5536 23.137C33.6385 23.1254 33.7234 23.1293 33.8083 23.1293Z" fill="white"/>
<path d="M28.0308 23.9978H28.1774C28.629 23.9978 28.8953 24.2178 28.8914 24.5767C28.8876 24.9356 28.6251 25.1479 28.1697 25.1518C28.0385 25.1518 27.9034 25.1518 27.7838 25.1518C27.7052 25.1554 27.6267 25.1431 27.553 25.1154C27.4794 25.0877 27.4122 25.0453 27.3555 24.9907C27.2988 24.9362 27.2538 24.8707 27.2232 24.7982C27.1927 24.7256 27.1773 24.6477 27.1779 24.569C27.1788 24.4906 27.1956 24.4132 27.2273 24.3415C27.259 24.2698 27.3049 24.2053 27.3623 24.1519C27.4197 24.0985 27.4873 24.0573 27.5611 24.0308C27.6349 24.0043 27.7133 23.9931 27.7915 23.9978C27.8648 23.9939 27.9497 23.9978 28.0308 23.9978Z" fill="white"/>
<path d="M33.8122 25.4412H33.955C34.4065 25.4412 34.6728 25.6611 34.669 26.0239C34.6651 26.3867 34.4027 26.5913 33.9473 26.599C33.816 26.599 33.681 26.599 33.5613 26.599C33.483 26.6026 33.4049 26.5904 33.3315 26.5629C33.2581 26.5355 33.191 26.4934 33.1344 26.4393C33.0777 26.3852 33.0327 26.3201 33.0019 26.248C32.9711 26.176 32.9553 26.0984 32.9554 26.0201C32.9563 25.9415 32.9731 25.864 33.0048 25.7921C33.0364 25.7202 33.0823 25.6554 33.1396 25.6017C33.1969 25.548 33.2645 25.5064 33.3383 25.4795C33.4121 25.4526 33.4906 25.4409 33.569 25.445L33.8122 25.4412Z" fill="white"/>
<path d="M28.0192 27.4634H27.7992C27.7183 27.4704 27.6367 27.4604 27.5599 27.434C27.483 27.4076 27.4125 27.3654 27.3529 27.3102C27.2933 27.255 27.2459 27.1879 27.2138 27.1132C27.1816 27.0386 27.1655 26.958 27.1663 26.8768C27.1677 26.798 27.1851 26.7204 27.2175 26.6486C27.2499 26.5768 27.2966 26.5124 27.3548 26.4593C27.413 26.4061 27.4813 26.3655 27.5558 26.3397C27.6302 26.3139 27.7091 26.3036 27.7876 26.3094H28.2546C28.335 26.3036 28.4157 26.3144 28.4916 26.3413C28.5676 26.3682 28.6371 26.4105 28.6959 26.4657C28.7546 26.5208 28.8013 26.5875 28.833 26.6616C28.8647 26.7356 28.8806 26.8155 28.8799 26.8961C28.878 26.9746 28.8602 27.052 28.8276 27.1235C28.795 27.1951 28.7483 27.2593 28.6902 27.3123C28.6322 27.3653 28.564 27.406 28.4898 27.432C28.4156 27.4579 28.3369 27.4686 28.2585 27.4634H28.0192Z" fill="white"/>
<path d="M28.023 29.7752H27.8802C27.4287 29.7752 27.1624 29.5552 27.1662 29.1924C27.1701 28.8296 27.4325 28.6251 27.8879 28.6212C28.0192 28.6212 28.1542 28.6212 28.2739 28.6212C28.3521 28.6176 28.4304 28.6298 28.5037 28.6573C28.5771 28.6848 28.6442 28.7268 28.7008 28.7809C28.7575 28.8351 28.8025 28.9001 28.8333 28.9722C28.8641 29.0442 28.8799 29.1218 28.8798 29.2001C28.8789 29.2787 28.8621 29.3562 28.8304 29.4281C28.7988 29.5 28.7529 29.5648 28.6956 29.6185C28.6383 29.6722 28.5707 29.7138 28.4969 29.7407C28.4231 29.7676 28.3446 29.7794 28.2662 29.7752C28.1928 29.7791 28.1079 29.7752 28.023 29.7752Z" fill="white"/>
<path d="M33.816 31.2108C33.2216 31.2108 32.9476 31.0333 32.9438 30.6396C32.9399 30.2459 33.2139 30.053 33.7967 30.053C34.3794 30.053 34.665 30.2305 34.6689 30.6203C34.6728 31.0101 34.3949 31.2108 33.816 31.2108Z" fill="white"/>
<path d="M25.1247 32.0869C25.0513 32.0869 24.9819 32.0869 24.9085 32.0869C24.8274 32.0934 24.7458 32.0828 24.6689 32.056C24.592 32.0292 24.5216 31.9866 24.462 31.9311C24.4025 31.8756 24.3552 31.8082 24.3231 31.7334C24.291 31.6586 24.2748 31.5779 24.2756 31.4965C24.278 31.4179 24.2963 31.3406 24.3293 31.2692C24.3624 31.1979 24.4095 31.1339 24.468 31.0813C24.5264 31.0286 24.5948 30.9884 24.6692 30.9629C24.7436 30.9374 24.8224 30.9272 24.9008 30.933C25.0591 30.933 25.2134 30.933 25.3717 30.933C25.4528 30.9266 25.5344 30.9371 25.6113 30.9639C25.6882 30.9908 25.7586 31.0333 25.8182 31.0888C25.8777 31.1444 25.925 31.2117 25.9571 31.2865C25.9892 31.3614 26.0054 31.4421 26.0046 31.5235C26.0012 31.6017 25.9822 31.6785 25.9488 31.7494C25.9154 31.8202 25.8682 31.8837 25.81 31.9362C25.7518 31.9886 25.6838 32.0289 25.6099 32.0548C25.5359 32.0807 25.4576 32.0916 25.3794 32.0869C25.2945 32.0908 25.2096 32.0869 25.1247 32.0869Z" fill="white"/>
<path d="M7.50654 9.69854C7.47042 9.9045 7.37362 10.095 7.22853 10.2456C7.08345 10.3962 6.89669 10.5 6.69221 10.5437C6.61707 10.5438 6.54268 10.5287 6.4735 10.4994C6.40431 10.4701 6.34175 10.4271 6.28953 10.3731C6.2373 10.319 6.19649 10.2551 6.16953 10.1849C6.14257 10.1148 6.13 10.0399 6.1326 9.96484C6.16228 9.75812 6.25548 9.56574 6.3993 9.41432C6.54311 9.2629 6.73044 9.15992 6.93536 9.11963C7.08723 9.12264 7.23192 9.18484 7.33861 9.29298C7.4453 9.40111 7.50556 9.54663 7.50654 9.69854Z" fill="white"/>
<path d="M6.16348 11.5473C6.15817 11.7564 6.08312 11.9577 5.95025 12.1192C5.81738 12.2808 5.63432 12.3933 5.43018 12.4388C5.27898 12.4409 5.13304 12.3833 5.02396 12.2786C4.91489 12.1739 4.85146 12.0304 4.84741 11.8792C4.85637 11.671 4.93331 11.4715 5.06643 11.3112C5.19956 11.1509 5.38157 11.0386 5.58457 10.9915C5.65934 10.989 5.73387 11.0014 5.80376 11.0281C5.87364 11.0548 5.93745 11.0953 5.99143 11.1471C6.0454 11.1989 6.08844 11.2611 6.11799 11.3298C6.14754 11.3985 6.16301 11.4725 6.16348 11.5473Z" fill="white"/>
<path d="M8.21663 8.96149C8.06443 8.95548 7.92052 8.8905 7.81536 8.7803C7.7102 8.6701 7.65203 8.52332 7.65315 8.371C7.69459 8.16693 7.80068 7.98164 7.9557 7.8426C8.11073 7.70357 8.30643 7.61819 8.51379 7.59912C8.58885 7.60151 8.66266 7.61908 8.73074 7.65078C8.79882 7.68248 8.85977 7.72764 8.90991 7.78355C8.96004 7.83946 8.99833 7.90495 9.02246 7.97607C9.04658 8.04718 9.05603 8.12245 9.05025 8.19733C9.00231 8.39279 8.89754 8.56968 8.74918 8.70568C8.60082 8.84168 8.41552 8.93069 8.21663 8.96149Z" fill="white"/>
<path d="M14.3376 6.01293C14.257 6.02201 14.1753 6.01437 14.0978 5.99049C14.0202 5.9666 13.9484 5.92699 13.8868 5.87411C13.8253 5.82124 13.7753 5.75624 13.7399 5.68318C13.7046 5.61011 13.6847 5.53055 13.6815 5.44946C13.6815 5.06352 13.9941 4.83196 14.4958 4.8281C14.5793 4.81654 14.6642 4.82296 14.7449 4.84692C14.8257 4.87088 14.9003 4.91183 14.9639 4.96703C15.0275 5.02222 15.0786 5.09038 15.1137 5.16693C15.1488 5.24348 15.1671 5.32666 15.1674 5.41087C15.1635 5.78137 14.8471 6.01293 14.3376 6.01293Z" fill="white"/>
<path d="M4.5657 15.8545C4.5657 16.3793 4.29555 16.6881 3.89803 16.6649C3.82294 16.6606 3.74947 16.6412 3.68198 16.608C3.61448 16.5748 3.55433 16.5284 3.50505 16.4716C3.45577 16.4147 3.41838 16.3486 3.39507 16.2771C3.37175 16.2056 3.36299 16.1301 3.3693 16.0552C3.3693 15.5226 3.63559 15.2022 4.01767 15.2215C4.09621 15.2242 4.17333 15.2431 4.24423 15.277C4.31513 15.3109 4.37827 15.3591 4.42971 15.4185C4.48115 15.4779 4.51978 15.5473 4.54318 15.6223C4.56658 15.6973 4.57424 15.7764 4.5657 15.8545Z" fill="white"/>
<path d="M10.1232 7.59905C10.0483 7.60267 9.97332 7.59129 9.90282 7.56556C9.83233 7.53984 9.76769 7.50029 9.71268 7.44924C9.65768 7.39819 9.61342 7.33667 9.58251 7.26828C9.55161 7.1999 9.53468 7.12603 9.53271 7.05102C9.55367 6.8473 9.64921 6.65853 9.80097 6.52102C9.95273 6.38351 10.15 6.30698 10.3548 6.30615C10.4308 6.30766 10.5058 6.32413 10.5754 6.35462C10.6451 6.38511 10.7081 6.42903 10.7608 6.48387C10.8134 6.5387 10.8548 6.60338 10.8825 6.6742C10.9102 6.74503 10.9236 6.82061 10.9221 6.89664C10.8923 7.08876 10.796 7.26433 10.65 7.39271C10.504 7.52108 10.3176 7.59411 10.1232 7.59905Z" fill="white"/>
<path d="M12.3925 5.35287C12.5437 5.35255 12.6893 5.40984 12.7997 5.51309C12.9101 5.61633 12.977 5.75777 12.9869 5.90862C12.9663 6.10867 12.8685 6.2928 12.7142 6.42182C12.56 6.55085 12.3615 6.61458 12.1609 6.59945C12.083 6.60593 12.0046 6.59601 11.9307 6.57031C11.8568 6.54462 11.7892 6.50372 11.7321 6.45026C11.675 6.39681 11.6297 6.33198 11.5992 6.25996C11.5687 6.18793 11.5537 6.11032 11.555 6.03212C11.5783 5.83199 11.679 5.64892 11.8355 5.522C11.992 5.39508 12.1919 5.33438 12.3925 5.35287Z" fill="white"/>
<path d="M4.51165 14.4843C4.35976 14.4895 4.212 14.4344 4.10063 14.3309C3.98926 14.2275 3.92334 14.0842 3.91731 13.9324C3.90026 13.7377 3.9577 13.5437 4.07804 13.3897C4.19837 13.2357 4.37264 13.1331 4.56569 13.1026C4.7169 13.1005 4.86284 13.1581 4.97191 13.2628C5.08098 13.3675 5.14442 13.511 5.14846 13.6622C5.17252 13.8556 5.11904 14.0506 4.99971 14.2046C4.88038 14.3587 4.7049 14.4592 4.51165 14.4843Z" fill="white"/>
<path d="M4.33795 18.1315C4.34814 18.211 4.34193 18.2917 4.3197 18.3687C4.29746 18.4457 4.25969 18.5174 4.2087 18.5792C4.15771 18.6411 4.09458 18.6918 4.02322 18.7283C3.95186 18.7648 3.87378 18.7863 3.79379 18.7914C3.71237 18.7922 3.63167 18.7761 3.55684 18.744C3.48201 18.7119 3.4147 18.6645 3.35916 18.605C3.30362 18.5455 3.26108 18.475 3.23424 18.3981C3.20741 18.3213 3.19686 18.2397 3.20329 18.1585C3.19362 18.0772 3.20097 17.9949 3.22482 17.9166C3.24868 17.8383 3.28853 17.7658 3.34187 17.7038C3.39521 17.6417 3.46089 17.5914 3.5347 17.5561C3.60851 17.5208 3.68885 17.5012 3.77063 17.4985C3.85027 17.5003 3.92868 17.5185 4.00103 17.5518C4.07339 17.5851 4.13815 17.6329 4.19132 17.6922C4.24448 17.7515 4.28494 17.8211 4.31016 17.8966C4.33538 17.9722 4.34483 18.0521 4.33795 18.1315Z" fill="white"/>
<path d="M16.6263 4.63504C16.7072 4.62469 16.7895 4.63159 16.8676 4.65528C16.9457 4.67897 17.018 4.71891 17.0796 4.77249C17.1412 4.82606 17.1907 4.89206 17.225 4.96615C17.2593 5.04024 17.2775 5.12074 17.2785 5.20237C17.281 5.28394 17.2662 5.36513 17.235 5.44052C17.2037 5.51592 17.1568 5.5838 17.0973 5.63966C17.0378 5.69551 16.9671 5.73806 16.8898 5.76448C16.8126 5.79089 16.7307 5.80057 16.6494 5.79286C16.5685 5.80079 16.4868 5.79224 16.4092 5.76773C16.3317 5.74321 16.2599 5.70324 16.1982 5.65022C16.1365 5.5972 16.0862 5.53223 16.0504 5.45924C16.0145 5.38625 15.9937 5.30675 15.9894 5.22553C15.9903 5.14426 16.0078 5.06403 16.0407 4.98973C16.0736 4.91543 16.1213 4.84861 16.1809 4.79335C16.2405 4.73809 16.3107 4.69556 16.3873 4.66834C16.4638 4.64112 16.5452 4.62979 16.6263 4.63504Z" fill="white"/>
<path d="M31.7513 7.70341L30.879 6.99714C31.4657 6.84663 31.8053 7.10135 31.7513 7.70341Z" fill="white"/>
<path d="M25.3524 24.0208C25.8425 24.0208 26.0278 24.2562 25.9583 24.7926L25.3524 24.0208Z" fill="white"/>
<path d="M13.2956 25.1632C13.2956 25.2365 13.2956 25.306 13.2956 25.3793C13.302 25.4607 13.2915 25.5425 13.2647 25.6195C13.2379 25.6966 13.1954 25.7673 13.14 25.8271C13.0845 25.887 13.0172 25.9347 12.9423 25.9672C12.8675 25.9997 12.7868 26.0164 12.7052 26.0161C12.6269 26.0137 12.5499 25.9955 12.4789 25.9627C12.4078 25.9299 12.344 25.8831 12.2914 25.8251C12.2389 25.7671 12.1985 25.6991 12.1727 25.6252C12.147 25.5512 12.1365 25.4729 12.1417 25.3948C12.1417 25.2365 12.1417 25.0821 12.1417 24.9239C12.1347 24.8428 12.1447 24.7611 12.1711 24.684C12.1974 24.6069 12.2395 24.5362 12.2947 24.4763C12.3499 24.4164 12.4169 24.3686 12.4916 24.336C12.5662 24.3035 12.6469 24.2868 12.7283 24.2871C12.8066 24.2901 12.8834 24.3086 12.9544 24.3415C13.0255 24.3745 13.0893 24.4212 13.142 24.479C13.1948 24.5369 13.2356 24.6046 13.262 24.6783C13.2883 24.7521 13.2998 24.8303 13.2956 24.9085C13.2995 24.9934 13.2956 25.0783 13.2956 25.1632Z" fill="white"/>
<path d="M4.04848 34.1132C4.04645 34.2654 3.98456 34.4107 3.87622 34.5176C3.76787 34.6245 3.62178 34.6844 3.46957 34.6844C3.31804 34.6824 3.17335 34.6211 3.06655 34.5135C2.95976 34.406 2.89939 34.2609 2.89839 34.1094C2.89788 34.0334 2.91235 33.958 2.94098 33.8875C2.9696 33.8171 3.01181 33.753 3.06521 33.6989C3.11861 33.6448 3.18216 33.6017 3.2522 33.5722C3.32224 33.5426 3.39741 33.5271 3.47344 33.5266C3.62732 33.5286 3.77416 33.5915 3.88189 33.7014C3.98963 33.8113 4.04951 33.9593 4.04848 34.1132Z" fill="white"/>
<path d="M5.78905 33.5266C5.94093 33.5296 6.08564 33.5918 6.19233 33.7C6.29902 33.8081 6.35928 33.9536 6.36026 34.1055C6.35724 34.2574 6.29505 34.4021 6.18691 34.5088C6.07878 34.6155 5.93326 34.6757 5.78135 34.6767C5.62916 34.6747 5.48387 34.6128 5.37697 34.5044C5.27006 34.3961 5.21013 34.25 5.21014 34.0978C5.21217 33.9456 5.27406 33.8003 5.38241 33.6934C5.49076 33.5865 5.63684 33.5266 5.78905 33.5266Z" fill="white"/>
<path d="M8.66819 34.1249C8.66219 34.2761 8.59761 34.419 8.48813 34.5234C8.37866 34.6278 8.23285 34.6856 8.08156 34.6845C8.00603 34.6825 7.93166 34.6656 7.86265 34.6349C7.79365 34.6041 7.73138 34.56 7.67941 34.5052C7.62744 34.4504 7.58679 34.3858 7.55977 34.3153C7.53276 34.2447 7.51989 34.1695 7.52194 34.094C7.52498 33.9411 7.5884 33.7957 7.6983 33.6894C7.80821 33.5831 7.95569 33.5246 8.10858 33.5267C8.18477 33.5286 8.25982 33.5458 8.32934 33.577C8.39887 33.6083 8.46148 33.653 8.51355 33.7087C8.56562 33.7643 8.60612 33.8298 8.63267 33.9012C8.65922 33.9727 8.67129 34.0487 8.66819 34.1249Z" fill="white"/>
<path d="M10.4011 33.5266C10.5533 33.5266 10.6994 33.5865 10.8077 33.6934C10.9161 33.8003 10.978 33.9456 10.98 34.0978C10.98 34.2494 10.9206 34.3949 10.8146 34.5031C10.7085 34.6114 10.5642 34.6737 10.4127 34.6767C10.2607 34.6768 10.1148 34.6175 10.006 34.5115C9.89709 34.4055 9.83392 34.2612 9.8299 34.1094C9.82986 33.9568 9.88966 33.8103 9.99646 33.7013C10.1033 33.5924 10.2485 33.5296 10.4011 33.5266Z" fill="white"/>
<path d="M12.6897 34.6843C12.5378 34.6753 12.3955 34.6073 12.2931 34.4948C12.1907 34.3823 12.1363 34.2342 12.1417 34.0822C12.1487 33.929 12.2158 33.7847 12.3285 33.6807C12.4412 33.5766 12.5904 33.5212 12.7437 33.5265C12.8956 33.5354 13.0379 33.6034 13.1403 33.7159C13.2427 33.8284 13.297 33.9765 13.2917 34.1285C13.2847 34.2818 13.2176 34.426 13.1049 34.5301C12.9922 34.6341 12.843 34.6895 12.6897 34.6843Z" fill="white"/>
</g>
<defs>
<clipPath id="clip0_1018_8377">
<rect width="36.9846" height="37" fill="white"/>
</clipPath>
</defs>
</svg>
