<svg width="49" height="49" viewBox="0 0 49 49" fill="none" xmlns="http://www.w3.org/2000/svg">
<g clip-path="url(#clip0_844_98)">
<path d="M45.836 42.6503C45.8384 42.754 45.8201 42.8572 45.7822 42.9537C45.7444 43.0503 45.6877 43.1384 45.6155 43.2129C45.5433 43.2873 45.457 43.3467 45.3616 43.3875C45.2663 43.4283 45.1637 43.4498 45.06 43.4506C44.8583 43.4572 44.6621 43.384 44.5139 43.2468C44.3658 43.1097 44.2777 42.9197 44.2687 42.7181C44.2612 42.6145 44.2749 42.5105 44.3088 42.4124C44.3427 42.3143 44.3962 42.224 44.466 42.1472C44.5358 42.0703 44.6204 42.0085 44.7149 41.9653C44.8093 41.9221 44.9115 41.8986 45.0153 41.8961C45.1191 41.8901 45.223 41.9049 45.321 41.9399C45.4189 41.9748 45.5088 42.029 45.5854 42.0994C45.6619 42.1698 45.7236 42.2548 45.7666 42.3494C45.8097 42.4441 45.8333 42.5464 45.836 42.6503Z" fill="white"/>
<path d="M23.7126 42.6886C23.7062 42.8972 23.6178 43.0948 23.4664 43.2384C23.3151 43.382 23.1132 43.4601 22.9046 43.4556C22.698 43.4503 22.5018 43.3639 22.3583 43.2152C22.2148 43.0664 22.1355 42.8672 22.1376 42.6605C22.1406 42.5576 22.1638 42.4564 22.206 42.3625C22.2482 42.2686 22.3085 42.184 22.3834 42.1135C22.4583 42.0429 22.5464 41.9879 22.6427 41.9514C22.7389 41.915 22.8414 41.8979 22.9443 41.9011C23.1503 41.9045 23.3467 41.9892 23.4906 42.1367C23.6345 42.2842 23.7143 42.4826 23.7126 42.6886Z" fill="white"/>
<rect x="17" y="38" width="32" height="11" rx="5.5" fill="#FFF500"/>
<path d="M49 41.9127V43.4468C48.9619 43.5485 48.9308 43.6528 48.9067 43.7587C48.3953 46.7322 45.7964 48.9809 42.7705 48.9898C35.8494 49.0077 28.9283 49.0077 22.0072 48.9898C19.4223 48.9834 17.0739 47.2742 16.1893 44.8351C15.7513 43.6279 15.6917 42.3159 16.0183 41.0739C16.3449 39.8319 17.0422 38.7189 18.0174 37.8833C19.3456 36.7532 20.8899 36.2828 22.6195 36.3569C22.9762 36.3723 23.3354 36.3569 23.6895 36.3569V34.7602H23.1449C22.0289 34.7602 20.9129 34.7602 19.7969 34.7602C18.1784 34.7526 17.18 33.5893 17.4434 31.999C17.9611 28.8721 18.4955 25.7477 19.003 22.6195C19.0287 22.3912 18.9715 22.1612 18.8419 21.9714C17.8333 20.5959 16.8157 19.228 15.7738 17.8806C14.2337 15.874 12.2585 14.2428 9.99685 13.1097C9.84729 13.0343 9.69132 12.9717 9.50468 12.8886C9.49445 13.065 9.48423 13.1749 9.48423 13.2849C9.48423 18.4998 9.48423 23.7143 9.48423 28.9283C9.48151 29.0567 9.4905 29.1851 9.51108 29.3118C10.2142 33.069 10.9275 36.8235 11.6114 40.5845C11.6907 41.0153 11.8671 41.1278 12.2621 41.0959C12.8157 41.0537 13.3449 41.1406 13.7642 41.5625C14.4954 42.2988 14.4469 44.357 13.6773 45.055C13.6307 45.0983 13.5816 45.1388 13.5303 45.1764C13.0803 45.5075 12.6354 45.8527 12.1803 46.1659C10.6764 47.1765 8.85097 47.593 7.05753 47.3349C5.26408 47.0768 3.63023 46.1623 2.47236 44.7686C-0.595734 41.0294 -0.825841 36.394 1.88175 32.3786C2.02237 32.1703 2.03643 32.0424 1.87024 31.8456C1.37935 31.2588 0.894846 30.6656 0.437188 30.0558C-0.387362 28.9513 -1.37097e-05 27.5413 1.27324 27.0146C1.50463 26.9187 1.59156 26.8177 1.59028 26.5697C1.58432 22.5838 1.58432 18.5974 1.59028 14.6105C1.59028 14.3677 1.53403 14.2488 1.27324 14.1836C0.420571 13.9714 0.00765606 13.4165 0.00637769 12.5217C0.00637769 10.9749 -0.00384929 9.42803 0.00637769 7.8812C0.0152611 6.12086 0.610964 4.41376 1.69921 3.03007C2.78745 1.64639 4.30607 0.665145 6.01473 0.241646C6.36884 0.153438 6.72806 0.0882413 7.08472 0.0128174H8.32858C8.89874 0.304286 9.41903 0.678849 9.45099 1.36789C9.47145 1.80126 9.6632 1.9585 10.0109 2.1119C13.6227 3.69623 17.2312 5.29335 20.8362 6.90324C22.1976 7.50791 23.1053 8.52166 23.5335 9.94705C23.8685 11.0643 23.7227 12.1586 23.2932 13.2197C23.1526 13.5674 23.2267 13.818 23.407 14.1388C23.9375 15.0797 24.4207 16.0474 24.8937 17.019C25.0216 17.2811 25.1392 17.4025 25.4498 17.4025C26.856 17.3846 28.2546 17.3948 29.6569 17.3923C29.7803 17.3858 29.9032 17.3726 30.0251 17.3527C30.0379 17.2248 30.0456 17.1289 30.0558 17.0356C30.109 16.57 30.2647 16.122 30.5117 15.7238C30.7588 15.3256 31.091 14.987 31.4844 14.7325C31.8779 14.478 32.3229 14.3139 32.7874 14.2519C33.2519 14.1899 33.7244 14.2316 34.1709 14.374C35.4748 14.7934 36.3441 15.9937 36.3646 17.4217C36.3773 18.4546 36.3646 19.4863 36.3646 20.5243C37.3182 20.6521 37.8347 21.1712 37.9625 22.1171H38.493C39.8008 22.1171 41.1073 22.1171 42.4151 22.1171C43.6551 22.1171 44.2521 22.7231 44.2585 23.9721C44.2585 24.3965 44.2585 24.8209 44.2585 25.2798C44.7916 25.2798 45.2518 25.2798 45.712 25.2798C46.7513 25.2939 47.4059 25.9062 47.4148 26.9341C47.4327 28.9905 47.4327 31.047 47.4148 33.1035C47.4059 34.1466 46.7756 34.7513 45.7248 34.7564C44.3697 34.7641 43.0147 34.7564 41.6596 34.7564H41.1303V36.3569C41.7056 36.3569 42.2463 36.3569 42.7922 36.3569C44.1326 36.3764 45.4317 36.8232 46.5005 37.6324C47.5692 38.4415 48.3517 39.5707 48.7341 40.8555C48.83 41.2058 48.9092 41.5612 49 41.9127ZM7.88882 1.63379C7.8047 1.61498 7.7192 1.60301 7.63315 1.598C6.29912 1.63471 5.01499 2.11311 3.98212 2.95819C2.10419 4.46411 1.44455 6.48138 1.60179 8.8208C1.61201 8.96653 1.77948 9.14295 1.9201 9.23116C2.84053 9.80259 3.77246 10.3561 4.70312 10.9109C5.21446 11.2177 5.52639 11.6575 5.55324 12.2647C5.74925 16.4851 5.94186 20.7058 6.13106 24.927C6.18475 26.0852 6.23972 27.2434 6.29469 28.4182H7.87604C7.89376 28.3034 7.9057 28.1878 7.91183 28.0718C7.91183 22.8893 7.90842 17.7063 7.9016 12.523C7.89094 12.4204 7.85989 12.3209 7.81028 12.2305C7.76066 12.14 7.69349 12.0604 7.61269 11.9963C5.88945 10.7077 5.87027 8.17778 7.61269 6.91347C7.71755 6.84759 7.80209 6.75393 7.85693 6.6429C7.91177 6.53187 7.93475 6.40782 7.92334 6.28451C7.91311 4.8783 7.92334 3.47209 7.92334 2.07355C7.91311 1.92654 7.89777 1.78975 7.88882 1.63379ZM23.3149 17.3923C23.3026 17.3171 23.2855 17.2428 23.2638 17.1698C23.2076 17.042 23.15 16.9065 23.0861 16.7787C20.2583 11.141 15.5693 8.37081 9.39091 7.93489C9.01461 7.93976 8.65224 8.07791 8.36821 8.32479C7.55644 9.03173 7.83896 10.4021 8.84121 10.8611C9.70794 11.2587 10.5951 11.6281 11.4312 12.0781C14.0992 13.5367 16.1957 15.623 17.933 18.0967C18.3881 18.7448 18.8828 19.3648 19.4236 20.0858C19.5054 19.6243 19.5719 19.2715 19.6294 18.9174C19.793 17.8947 20.3504 17.4063 21.3756 17.3936C22.0046 17.3859 22.6387 17.3923 23.3149 17.3923ZM45.8399 26.9098H33.2415V33.1968H33.6595C35.9708 33.1968 38.2821 33.1968 40.5934 33.1904C40.7344 33.1838 40.8693 33.1308 40.9769 33.0396C42.5314 31.7194 44.0804 30.392 45.6238 29.0574C45.7395 28.9575 45.8149 28.8189 45.836 28.6675C45.8539 28.0974 45.8399 27.5247 45.8399 26.9098ZM26.3792 44.5845C26.2833 44.7213 26.2104 44.8261 26.1376 44.9284C24.872 46.7105 22.507 47.1528 20.7173 45.9434C19.8604 45.3676 19.2637 44.4783 19.0557 43.4671C18.8477 42.4558 19.045 41.4032 19.6051 40.5359C20.1645 39.6682 21.0417 39.0543 22.0486 38.8258C23.0554 38.5973 24.1117 38.7725 24.9909 39.3138C25.2062 39.4388 25.4502 39.5057 25.6991 39.5081C30.6592 39.5192 35.6193 39.5222 40.5794 39.5171H41.0523V37.9587C40.9789 37.9441 40.9046 37.9339 40.8299 37.9281C34.594 37.9281 28.3581 37.8897 22.1235 37.9434C18.9966 37.9702 16.8477 40.7558 17.5214 43.7408C18.0174 45.9524 19.9285 47.4059 22.3702 47.4072C28.4306 47.4123 34.4909 47.4123 40.5512 47.4072C40.72 47.4072 40.8887 47.3918 41.0626 47.3842V45.519C40.3774 46.2554 39.6167 46.6248 38.6848 46.6146C37.7299 46.6031 36.9884 46.1569 36.3569 45.4768C35.7075 46.2106 34.9507 46.6133 33.9881 46.6146C33.0255 46.6159 32.2597 46.1812 31.6307 45.4819C30.0392 47.2768 27.3482 46.8958 26.3792 44.5845ZM5.72454 30.3793L5.5967 30.3013C5.5264 30.4205 5.44958 30.5357 5.36659 30.6464C4.77854 31.3393 4.16492 32.0105 3.59604 32.72C1.36017 35.5068 0.953653 38.5634 2.43656 41.7964C3.25472 43.5861 4.49218 45.0358 6.49667 45.5855C7.09367 45.7491 7.72391 45.7875 8.41423 45.8949C7.50531 40.6241 6.61556 35.5017 5.72454 30.3793ZM42.7066 37.9587V47.3522C45.0268 47.5913 47.2857 45.4142 47.4033 42.8498C47.526 40.201 45.3643 37.9319 42.7066 37.9587ZM20.693 22.1363C20.3414 24.2456 19.9976 26.3115 19.6486 28.4067H25.2491V22.1363H20.693ZM26.9276 42.6478H41.0523V41.1316H26.6067C26.7205 41.6596 26.8215 42.139 26.9276 42.6478ZM25.3002 36.316H39.4902V34.8012H25.3002V36.316ZM19.3724 30.0622C19.2587 30.7564 19.1449 31.4288 19.0375 32.1076C18.9033 32.9565 19.118 33.2019 19.9899 33.2019H25.2504V30.0622H19.3724ZM12.6444 42.6746H12.0116C10.8738 42.6746 10.3407 42.2413 10.1324 41.1342C9.58948 38.257 9.04873 35.3794 8.51011 32.5014C8.35542 31.6794 8.19307 30.8599 8.03839 30.0584H7.27136C8.16622 35.2179 9.06109 40.3455 9.95595 45.496C11.0017 45.1841 11.7457 44.5244 12.5319 43.9313C12.6017 43.85 12.6386 43.7456 12.6354 43.6385C12.6533 43.3368 12.6444 43.0377 12.6444 42.6746ZM31.5822 18.9596C28.1753 18.9596 24.8311 18.9596 21.483 18.9672C21.3846 18.9672 21.2158 19.0606 21.2005 19.1347C21.1034 19.5911 21.042 20.0551 20.9678 20.5192H31.5783L31.5822 18.9596ZM25.2824 42.6849C25.2875 42.0574 25.0433 41.4536 24.6034 41.006C24.1635 40.5585 23.564 40.3039 22.9365 40.2982C22.6258 40.2973 22.3179 40.3577 22.0305 40.4758C21.7431 40.594 21.4818 40.7676 21.2615 40.9867C21.0411 41.2058 20.8661 41.4662 20.7464 41.753C20.6268 42.0397 20.5647 42.3473 20.5639 42.658C20.5581 43.2857 20.8018 43.89 21.2415 44.3381C21.6811 44.7861 22.2807 45.0412 22.9084 45.0473C23.5364 45.0487 24.1393 44.8006 24.5845 44.3576C25.0296 43.9146 25.2807 43.3129 25.2824 42.6849ZM4.64048 26.8535C4.44872 22.6183 4.25696 18.4405 4.06904 14.2679H3.20614V26.8535H4.64048ZM31.5796 25.2568V22.1414H26.9148V25.2568H31.5796ZM26.911 26.9021V29.9983H31.5847V26.9021H26.911ZM15.5066 7.63831C17.9709 8.63969 20.1725 10.1931 21.942 12.1791C22.1935 11.4664 22.1691 10.6854 21.8736 9.98976C21.5781 9.29415 21.0329 8.73439 20.3453 8.42067C19.4415 7.99114 18.5198 7.59996 17.6057 7.19343C17.0739 6.95693 16.5396 6.72427 15.9707 6.47371C15.8096 6.88023 15.6652 7.24201 15.5066 7.63831ZM36.3185 25.2594V22.1465H33.2338V25.2594H36.3185ZM9.50468 6.27556L14.0365 7.04258L14.5236 5.82813L9.50468 3.59993V6.27556ZM34.7346 20.5281C34.7346 19.3444 34.7922 18.1862 34.7142 17.0356C34.663 16.2686 33.7976 15.7176 33.0344 15.8084C32.6546 15.8433 32.3022 16.0211 32.0485 16.3059C31.7948 16.5906 31.6588 16.9611 31.6678 17.3424C32.8618 17.6659 33.2019 18.1171 33.2019 19.3802V20.5307L34.7346 20.5281ZM26.9072 31.6295V33.1636H31.5796V31.6295H26.9072ZM42.658 25.253V23.742H37.9574V25.253H42.658ZM4.81817 28.4489C3.77758 28.4489 2.89039 28.4323 2.00575 28.4566C1.65037 28.4655 1.48034 28.7877 1.6836 29.0625C2.13231 29.6698 2.61809 30.2476 3.11027 30.8625C3.5986 30.2962 4.06137 29.7925 4.4794 29.2543C4.62897 29.0523 4.6801 28.7749 4.81433 28.4438L4.81817 28.4489ZM43.2601 33.1789H45.8041V31.0057L43.2601 33.1789ZM3.977 12.6188C3.9003 12.2353 2.26654 11.1474 1.62352 11.0017V12.6188H3.977ZM39.9478 44.2816H37.5189C37.7989 44.7814 38.1862 45.0217 38.6861 45.0371C39.2064 45.0524 39.6206 44.8172 39.9478 44.2816ZM30.4252 44.2995H28.0347C28.3671 44.8274 28.7915 45.0742 29.3386 45.0332C29.5707 45.0268 29.7962 44.9544 29.9887 44.8244C30.1811 44.6945 30.3325 44.5124 30.4252 44.2995ZM32.7634 44.2816C33.1034 44.8287 33.5304 45.0716 34.0712 45.0332C34.3069 45.0293 34.5363 44.9559 34.7305 44.8222C34.9247 44.6885 35.0751 44.5004 35.1629 44.2816H32.7634Z" fill="white"/>
</g>
<defs>
<clipPath id="clip0_844_98">
<rect width="49" height="49" fill="white"/>
</clipPath>
</defs>
</svg>
