<svg width="47" height="38" viewBox="0 0 47 38" fill="none" xmlns="http://www.w3.org/2000/svg">
<g clip-path="url(#clip0_1018_8480)">
<path d="M13.0002 9.35235H34.6149C34.3124 7.89863 34.0369 6.56749 33.7638 5.24861C33.8499 5.17752 33.9139 5.07701 33.9606 5.08681C35.5398 5.36138 36.1056 4.48621 36.5484 3.12565C37.4167 0.465822 38.2703 -0.0269203 41.0917 4.56976e-05C42.5947 4.56976e-05 43.0916 0.443759 43.4532 1.91218C43.6992 2.93689 44.0312 3.94198 44.3289 4.9716L46.4443 5.12604C44.688 8.95031 45.4358 12.8849 45.394 16.7631C45.3743 18.4791 45.33 20.1951 45.4137 21.9111C45.4629 22.9653 45.1824 23.6492 44.2182 24.191C42.9038 24.9448 41.6408 25.7842 40.4374 26.7037C40.0176 27.029 39.7443 27.5068 39.6773 28.0324C39.6035 30.5623 39.6232 33.0971 39.665 35.6319C39.665 35.985 40.029 36.3183 40.157 36.6836C40.274 37.1175 40.3652 37.5579 40.43 38.0025H12.0064C12.3508 37.3872 12.6165 36.9851 12.8059 36.5512C12.927 36.2571 12.9904 35.9425 12.9928 35.6246C13.01 33.9502 12.9486 32.2734 13.0199 30.6016C13.0592 29.67 12.7395 29.3391 11.8318 29.4347C11.2787 29.4632 10.7245 29.4632 10.1714 29.4347C10.132 30.1529 10.1001 30.7511 10.0607 31.4596H5.79777V28.8341L4.42517 28.6061C4.38089 29.366 4.33908 30.0426 4.29726 30.7805H0.115518C0.0859999 30.4667 0.0294143 30.1554 0.0294143 29.8416C0.0294143 25.7992 0.0515589 21.7518 0.00482178 17.7118C0.00482178 16.8906 0.285245 16.5817 1.0355 16.3905C4.56539 15.4883 8.07559 14.5029 11.6129 13.6277C12.6411 13.3825 13.1798 12.9903 13.0248 11.843C12.9166 11.0855 13.0002 10.3011 13.0002 9.35235ZM21.0095 13.7184V26.5223L23.002 26.6474C23.0782 27.1376 23.1397 27.5274 23.2037 27.9368H29.4812L29.6165 26.6376L31.6582 26.5125V13.7184H21.0095ZM18.8153 30.783L18.648 29.4543L17.3664 29.5303V36.5463H35.2225V29.5254H33.9926C33.9212 29.9838 33.8597 30.3711 33.8032 30.7511H29.6214L29.4812 29.5254H23.1692L23.0143 30.783H18.8153ZM1.52255 26.5003L7.86405 27.3093C8.0633 27.3362 8.25762 27.4098 8.45687 27.4416C9.60316 27.6377 10.7494 27.8339 11.9007 28.0153C12.7493 28.1501 13.0297 27.7922 13.0223 26.9293C12.9805 23.1761 13.0051 19.4229 13.0002 15.6697C12.982 15.404 12.9475 15.1395 12.8969 14.8779C10.838 15.0642 10.838 15.0642 10.838 16.9126V26.6032L9.36209 26.4978V15.6795L1.52255 17.7829V26.5003ZM14.5179 10.8404V36.5439H15.8905V12.2745H36.7845V36.6346L38.135 36.5635V10.8404H14.5179ZM43.9697 13.0124H39.7339V25.3702C40.4718 24.8799 41.0474 24.3896 41.7018 24.1126C43.6204 23.2791 44.1911 21.9062 44.0115 19.8495C43.8148 17.5941 43.9673 15.3069 43.9673 13.0124H43.9697ZM35.5398 6.55278C35.6984 7.12183 35.8184 7.70086 35.899 8.28596C35.9605 9.20036 36.4254 9.44305 37.2716 9.3695C38.0267 9.30577 38.7918 9.3695 39.5961 9.3695L39.6945 11.4876C40.7793 11.4876 41.7214 11.5243 42.6463 11.463C42.9366 11.4434 43.4015 11.2032 43.4605 10.9728C43.8369 9.53375 44.1222 8.07269 44.4445 6.56014L35.5398 6.55278ZM18.6136 27.9736C18.9284 26.993 19.4081 26.135 19.4303 25.277C19.5188 21.8131 19.4672 18.3443 19.4672 14.8779V13.7429H17.3566V27.8927C17.5236 27.9448 17.6948 27.9825 17.8683 28.0055C18.1044 28.0153 18.3455 27.9883 18.6136 27.9736ZM33.0898 13.6816C33.5695 18.5012 32.4478 23.2815 33.8499 28.0177L35.1856 27.9442V13.6816H33.0898ZM42.7595 4.97895C42.5406 4.18958 42.3881 3.43453 42.1125 2.72606C41.933 2.26519 41.5271 1.48318 41.3106 1.50034C40.3267 1.62781 39.1484 1.74548 38.44 2.34364C37.825 2.86089 37.7389 4.00572 37.3823 4.96914L42.7595 4.97895ZM2.92466 29.3685L2.85087 28.0913H1.52255V29.3685H2.92466ZM20.2445 29.3391H21.6515L21.5703 28.0251L20.2445 28.0839V29.3391ZM30.9916 28.0913C31.026 28.5816 31.0506 28.9664 31.0752 29.3562H32.3838V28.0913H30.9916ZM8.58232 30.0671C8.80863 28.9885 8.19858 28.8169 7.30566 28.7581V30.0671H8.58232Z" fill="white"/>
<path d="M1.54236 32.3494H2.84854L2.93955 33.6756L1.54236 33.7393V32.3494Z" fill="white"/>
<path d="M7.24921 34.3792V33.1045H8.5972V34.3792H7.24921Z" fill="white"/>
<path d="M1.46362 35.2446H2.85589V36.5586L1.53742 36.6542L1.46362 35.2446Z" fill="white"/>
<path d="M7.30579 35.9727L8.57015 35.8967V37.2867L7.30579 37.348V35.9727Z" fill="white"/>
<path d="M28.768 24.3503H23.8655V23.0413H28.768V24.3503Z" fill="white"/>
</g>
<defs>
<clipPath id="clip0_1018_8480">
<rect width="46.4444" height="38" fill="white"/>
</clipPath>
</defs>
</svg>
