<svg width="40" height="40" viewBox="0 0 40 40" fill="none" xmlns="http://www.w3.org/2000/svg">
<g clip-path="url(#clip0_844_148)">
<path d="M15.8207 27.0735C17.4825 28.4372 18.4426 30.1292 18.6902 32.2258H24.4581C24.8693 27.8216 27.2458 25.2556 31.5897 24.4764V15.4558C29.0744 15.1555 27.0875 13.9921 25.7174 11.8588C24.6744 10.2347 24.329 8.44583 24.6066 6.5386C25.1437 2.84578 28.4405 0.0129339 32.2075 0.00324708C36.0263 -0.010745 39.3489 2.81242 39.8892 6.54506C40.2121 8.7558 39.6965 10.7642 38.3113 12.5207C36.9261 14.2773 35.1136 15.2115 32.9061 15.4515V24.4979C38.0315 24.993 40.324 29.7514 39.957 33.0008C39.5351 36.7313 36.5451 39.7643 32.651 39.972C28.8365 40.1765 25.3827 37.5536 24.6239 33.568H18.7354C17.9658 37.4427 15.7346 39.7761 11.6823 39.9602C8.73321 40.0937 6.08549 38.1983 5.00918 35.4569C3.97377 32.8103 4.54744 29.3639 7.49223 27.1004H0.0032605C0.110892 25.1125 -0.31963 23.1181 0.578013 21.269C0.976248 20.4467 1.53916 19.704 2.02565 18.9269C1.82438 18.2919 1.54777 17.5923 1.37987 16.868C1.13554 15.782 1.39493 14.7595 1.98367 13.8274C2.2915 13.3398 2.63484 12.8748 2.9685 12.4034C3.59334 11.55 3.92079 10.5151 3.90058 9.45756C3.88444 8.2381 3.82632 7.01649 4.13199 5.81102C5.02425 2.30332 8.36404 -0.194794 11.9697 0.0140102C13.6767 0.111954 15.0856 0.857838 16.1608 2.19569C16.3809 2.47724 16.6645 2.70262 16.9885 2.85332C18.4954 3.56906 19.2918 4.79068 19.3564 6.44927C19.3951 7.46854 19.3812 8.49426 19.3564 9.51137C19.3323 10.5129 19.6345 11.495 20.2174 12.3098C20.4553 12.651 20.6932 12.9922 20.9418 13.3258C22.1979 15.0189 22.2194 16.7937 21.2733 18.6234C21.1312 18.8968 21.1442 19.0453 21.3573 19.2692C22.5711 20.5162 23.2423 22.1927 23.2247 23.9329C23.2311 24.965 23.2247 25.9983 23.2247 27.0735H15.8207ZM3.18807 18.166L3.88874 17.8076C4.97905 17.2543 6.17913 17.1693 7.35877 17.0046C8.5384 16.84 8.52011 16.8464 8.81824 15.6862C8.88605 15.4203 8.83654 15.2933 8.61482 15.1286C7.20701 14.0857 6.48588 12.6779 6.46973 10.9213C6.45897 9.76646 6.46973 8.6105 6.46973 7.45562C6.46973 7.34045 6.4848 7.22529 6.49449 7.07353C8.38664 7.14026 10.2896 7.31462 11.5585 5.55701C11.6053 5.56975 11.6504 5.58781 11.6931 5.61082C11.7449 5.65337 11.7938 5.6994 11.8394 5.74859C12.7253 6.73126 13.8339 7.15748 15.1491 7.09613C15.6808 7.07245 16.2147 7.09613 16.7797 7.09613C16.7797 8.45228 16.8023 9.76538 16.7797 11.0785C16.7463 12.6111 16.1501 13.9199 14.95 14.8671C14.4527 15.261 14.3548 15.5958 14.5431 16.1587C14.7433 16.7539 14.8187 16.8475 15.4494 16.9433C17.0219 17.1844 18.6417 17.2447 20.0517 18.2015C20.7061 16.9691 20.9386 15.768 20.1809 14.542C19.8633 14.0286 19.4985 13.5465 19.1541 13.0503C18.4242 12.0248 18.0445 10.7913 18.0713 9.5329C18.0896 8.51256 18.1025 7.48791 18.0659 6.4708C18.0239 5.28685 17.4384 4.41181 16.3309 3.99528C15.9103 3.83815 15.5481 3.55562 15.2933 3.1859C14.3559 1.92877 13.0912 1.29374 11.5209 1.30451C8.70954 1.32388 6.18774 3.28276 5.42033 6.00475C5.09744 7.15425 5.18031 8.3242 5.19108 9.48877C5.2174 10.787 4.82158 12.0587 4.06311 13.1127C3.74021 13.5723 3.39795 14.0254 3.09443 14.5022C2.31948 15.7238 2.53367 16.939 3.18807 18.166ZM11.6382 27.0832C10.1043 27.0832 8.63266 27.6895 7.54394 28.7699C6.45523 29.8504 5.83775 31.3174 5.8261 32.8512C5.8227 33.6144 5.96967 34.3709 6.25862 35.0773C6.54757 35.7838 6.97283 36.4264 7.51014 36.9685C8.04744 37.5106 8.68626 37.9416 9.39012 38.2368C10.094 38.532 10.8491 38.6857 11.6123 38.6891C13.1462 38.6891 14.6179 38.0828 15.7066 37.0024C16.7953 35.9219 17.4128 34.4549 17.4244 32.9211C17.4278 32.1579 17.2809 31.4014 16.9919 30.695C16.703 29.9885 16.2777 29.3459 15.7404 28.8038C15.2031 28.2617 14.5643 27.8307 13.8604 27.5355C13.1565 27.2403 12.4014 27.0866 11.6382 27.0832ZM30.0248 8.18321C28.7074 6.38146 28.7181 4.73901 30.0248 3.48296C30.5848 2.9412 31.3231 2.6223 32.1015 2.58604C32.8798 2.54978 33.6446 2.79865 34.2525 3.28599C34.8853 3.77864 35.3052 4.4951 35.4257 5.28793C35.6108 6.40514 35.2201 7.3383 34.457 8.16814C35.9262 8.80747 36.9508 9.84933 37.6009 11.2894C39.2897 8.85698 39.0895 5.16416 36.4902 2.89422C35.2693 1.81512 33.683 1.24192 32.0543 1.29131C30.4256 1.3407 28.8769 2.00897 27.7236 3.16007C25.2395 5.6119 25.3934 9.22184 26.9099 11.2797C27.5095 9.8841 28.6256 8.77448 30.0248 8.18321ZM37.5891 35.7873C39.2552 33.4582 39.1584 29.6448 36.3793 27.2963C33.765 25.0888 29.8278 25.3482 27.5062 27.8765C25.1125 30.4844 25.5624 34.0792 26.9099 35.7443C27.8097 34.0965 27.9723 33.935 29.9925 32.6585C28.7009 30.7136 28.7472 29.097 30.127 27.8829C30.7132 27.369 31.4662 27.0856 32.2458 27.0856C33.0253 27.0856 33.7783 27.369 34.3645 27.8829C35.7508 29.0948 35.7992 30.7427 34.485 32.6843C35.8806 33.2805 36.9925 34.3919 37.5891 35.7873ZM7.75916 8.46627C7.75916 9.31441 7.74409 10.1884 7.75916 11.057C7.79898 12.9943 9.27675 14.5873 11.2346 14.8144C13.0643 15.0296 14.9328 13.8134 15.3127 11.9707C15.5495 10.8212 15.4838 9.60932 15.5549 8.41892C15.4702 8.40304 15.3847 8.39226 15.2987 8.38663C14.0168 8.4426 12.8232 8.19074 11.7609 7.42441C11.6909 7.37382 11.5209 7.41687 11.4197 7.46315C10.9106 7.69564 10.4295 8.02606 9.89778 8.16491C9.22401 8.34035 8.50827 8.36725 7.75916 8.46627ZM5.16955 25.7744H10.0259C9.99788 25.6668 9.98174 25.5721 9.9516 25.487C9.13468 23.1891 8.31346 20.8923 7.50407 18.5911C7.41904 18.3511 7.31033 18.2855 7.06493 18.3436C6.79155 18.4082 6.50741 18.4232 6.22864 18.462C4.2041 18.7375 2.71664 19.7697 1.81577 21.6123C1.16998 22.9362 1.32497 24.3537 1.32282 25.768H3.90596V21.9438H5.1717L5.16955 25.7744ZM15.8476 18.3296C14.9694 20.7922 14.0843 23.2734 13.1924 25.7733H18.0756V21.9535H19.3672V25.768H21.9331C21.9331 25.0877 21.9449 24.4323 21.9331 23.7768C21.9154 22.6404 21.5361 21.5392 20.8503 20.6329C19.6147 18.9711 17.8517 18.4286 15.8476 18.3296ZM32.2678 14.1901C33.7554 14.1764 35.1935 13.6546 36.3438 12.7112C36.5591 12.5347 36.6172 12.3765 36.5246 12.0999C36.2236 11.2101 35.6529 10.4361 34.8917 9.88561C34.1306 9.3351 33.2168 9.03538 32.2775 9.02811C31.3313 9.02459 30.4077 9.31766 29.6367 9.86613C28.8656 10.4146 28.2858 11.1909 27.9787 12.0859C27.8797 12.3787 27.9432 12.5444 28.1768 12.7317C29.3343 13.6701 30.7777 14.1846 32.2678 14.1901ZM31.9525 38.6891C33.7359 38.6891 35.2374 38.1391 36.3589 37.2027C36.5655 37.0305 36.614 36.8798 36.5289 36.6236C36.23 35.726 35.657 34.9448 34.8906 34.39C34.1243 33.8353 33.2031 33.535 32.2571 33.5314C31.3108 33.5314 30.3884 33.8284 29.6199 34.3805C28.8514 34.9325 28.2755 35.7118 27.9733 36.6086C27.8797 36.8916 27.9475 37.0466 28.1628 37.2188C29.3564 38.1767 30.7136 38.6708 31.9525 38.6891ZM8.72783 18.2015C8.89682 18.6805 9.09378 19.2606 9.31442 19.831C9.34537 19.876 9.3864 19.9132 9.43423 19.9395C9.48207 19.9659 9.53539 19.9807 9.58996 19.9828C10.9432 19.9921 12.2965 19.9921 13.6498 19.9828C13.7402 19.9828 13.8898 19.9365 13.9135 19.8752C14.1417 19.281 14.3494 18.6794 14.5205 18.1972C14.1481 17.8065 13.7833 17.532 13.568 17.1682C13.3527 16.8045 13.2656 16.3287 13.1213 15.896C12.1435 16.1883 11.1016 16.1883 10.1238 15.896C9.97851 16.3352 9.90855 16.7905 9.68467 17.1564C9.4608 17.5224 9.0884 17.8205 8.72783 18.2015ZM32.2377 7.73654C32.7463 7.73721 33.2349 7.53841 33.5985 7.18281C33.9622 6.82722 34.1719 6.34319 34.1826 5.8347C34.1863 5.57938 34.1395 5.32584 34.0448 5.08868C33.9502 4.85151 33.8096 4.63539 33.6312 4.45275C33.4527 4.2701 33.2399 4.12453 33.0051 4.02441C32.7701 3.92429 32.5178 3.8716 32.2624 3.86935C31.7536 3.86728 31.2644 4.06549 30.9004 4.42115C30.5365 4.77681 30.3272 5.26136 30.3175 5.77012C30.3115 6.28548 30.5104 6.78213 30.8705 7.15088C31.2305 7.51964 31.7223 7.73029 32.2377 7.73654ZM34.1826 30.3154C34.1827 29.8073 33.9831 29.3195 33.627 28.9571C33.2708 28.5947 32.7866 28.3868 32.2786 28.378C32.0233 28.3749 31.7698 28.4223 31.5329 28.5174C31.2959 28.6126 31.0801 28.7536 30.8979 28.9325C30.7157 29.1113 30.5706 29.3244 30.471 29.5595C30.3714 29.7946 30.3192 30.0471 30.3175 30.3025C30.3175 30.5574 30.3679 30.8099 30.4656 31.0454C30.5634 31.2808 30.7067 31.4947 30.8873 31.6747C31.0679 31.8547 31.2822 31.9972 31.518 32.0942C31.7538 32.1912 32.0064 32.2407 32.2614 32.2398C32.7701 32.2356 33.2569 32.0314 33.6163 31.6713C33.9758 31.3112 34.1792 30.8242 34.1826 30.3154ZM9.84289 21.2894C9.88917 21.4401 9.91823 21.5553 9.95806 21.6661C10.408 22.9276 10.8535 24.1901 11.3164 25.4461C11.3659 25.5807 11.5166 25.6776 11.6199 25.7927C11.7275 25.6851 11.8793 25.5871 11.9288 25.4548C12.3959 24.1858 12.8469 22.9104 13.3 21.636C13.3377 21.5284 13.3613 21.4207 13.3979 21.2894H9.84289Z" fill="white"/>
<path d="M11.6383 27.0833C12.4016 27.0866 13.1567 27.2403 13.8605 27.5355C14.5644 27.8308 15.2032 28.2617 15.7405 28.8038C16.2778 29.3459 16.7031 29.9885 16.992 30.695C17.281 31.4015 17.4279 32.1579 17.4245 32.9212C17.4129 34.455 16.7954 35.922 15.7067 37.0024C14.618 38.0829 13.1463 38.6891 11.6125 38.6891C10.8492 38.6857 10.0941 38.532 9.39024 38.2368C8.68638 37.9416 8.04757 37.5106 7.51026 36.9685C6.97296 36.4264 6.54769 35.7838 6.25874 35.0774C5.9698 34.3709 5.82283 33.6145 5.82623 32.8512C5.83788 31.3174 6.45535 29.8504 7.54407 28.7699C8.63279 27.6895 10.1045 27.0832 11.6383 27.0833ZM9.067 36.1103H10.9979V37.3739H12.2895V36.1296C13.5412 35.9467 14.2871 35.1093 14.2032 34.0201C14.1214 32.9534 13.2646 32.2431 12.057 32.2409C11.6814 32.2409 11.3036 32.256 10.9301 32.2312C10.7675 32.2221 10.6151 32.1491 10.5061 32.0281C10.3971 31.9072 10.3402 31.7481 10.3478 31.5855C10.3693 31.2303 10.5728 30.986 10.9215 30.9698C11.5737 30.9397 12.2292 30.9612 12.903 30.9612L12.9363 31.5715H14.1892V29.6664H12.2615V28.3963H10.9871V29.633C10.9236 29.6513 10.8989 29.6621 10.8795 29.6664C9.71924 29.8386 8.99381 30.6641 9.06162 31.7351C9.12943 32.7888 9.9894 33.5314 11.1486 33.5357C11.5371 33.5357 11.9268 33.5228 12.3153 33.5433C12.3964 33.5451 12.4764 33.5629 12.5507 33.5956C12.6249 33.6283 12.692 33.6754 12.7481 33.7341C12.8042 33.7927 12.8481 33.8619 12.8775 33.9376C12.9068 34.0132 12.921 34.0939 12.9191 34.1751C12.9094 34.5313 12.7114 34.7886 12.3648 34.8069C11.7007 34.8424 11.0334 34.8165 10.364 34.8165C10.35 34.5798 10.3381 34.386 10.3263 34.202H9.067V36.1103Z" fill="#FFF500"/>
<path d="M37.5892 35.7874C36.993 34.3912 35.8811 33.2789 34.4851 32.6822C35.7993 30.7449 35.7509 29.0927 34.3646 27.8808C33.7784 27.3669 33.0254 27.0835 32.2459 27.0835C31.4663 27.0835 30.7133 27.3669 30.1272 27.8808C28.7473 29.0949 28.7021 30.7115 29.9926 32.6564C27.9724 33.9329 27.8099 34.0943 26.9101 35.7422C25.5625 34.0771 25.1126 30.4822 27.5063 27.8743C29.8279 25.3461 33.7651 25.0867 36.3794 27.2942C39.1606 29.6449 39.2575 33.4582 37.5892 35.7874Z" fill="#FFF500"/>
<path d="M31.9523 38.689C30.7135 38.6708 29.3563 38.1767 28.1626 37.2188C27.9474 37.0466 27.8796 36.8959 27.9732 36.6085C28.2753 35.7118 28.8512 34.9325 29.6198 34.3804C30.3883 33.8284 31.3107 33.5314 32.2569 33.5314C33.203 33.5349 34.1241 33.8353 34.8905 34.39C35.6569 34.9448 36.2299 35.726 36.5288 36.6236C36.6138 36.883 36.5654 37.0305 36.3587 37.2027C35.2372 38.1391 33.7358 38.6901 31.9523 38.689Z" fill="#FFF500"/>
<path d="M34.1824 30.3153C34.179 30.8241 33.9756 31.3111 33.6162 31.6712C33.2567 32.0313 32.77 32.2355 32.2612 32.2398C32.0062 32.2406 31.7536 32.1911 31.5178 32.0941C31.282 31.9972 31.0677 31.8546 30.8871 31.6746C30.7065 31.4946 30.5632 31.2808 30.4655 31.0453C30.3677 30.8098 30.3174 30.5574 30.3174 30.3024C30.3191 30.0471 30.3712 29.7946 30.4708 29.5595C30.5704 29.3244 30.7155 29.1112 30.8977 28.9324C31.08 28.7536 31.2958 28.6125 31.5327 28.5174C31.7697 28.4222 32.0231 28.3748 32.2784 28.378C32.7864 28.3867 33.2707 28.5947 33.6268 28.9571C33.983 29.3194 34.1825 29.8072 34.1824 30.3153Z" fill="#FFF500"/>
<path d="M9.06661 36.1102V34.1976H10.3184C10.3302 34.3827 10.342 34.5754 10.356 34.8122C11.0255 34.8122 11.6928 34.838 12.3569 34.8025C12.7035 34.7842 12.9015 34.5269 12.9112 34.1707C12.913 34.0895 12.8989 34.0088 12.8696 33.9332C12.8402 33.8575 12.7963 33.7884 12.7402 33.7297C12.6841 33.671 12.617 33.624 12.5428 33.5912C12.4685 33.5585 12.3885 33.5407 12.3074 33.5389C11.9188 33.5184 11.5292 33.5324 11.1407 33.5313C9.98147 33.5313 9.1215 32.7844 9.05369 31.7307C8.98588 30.6598 9.71132 29.8342 10.8716 29.662C10.8963 29.662 10.9211 29.6469 10.9792 29.6286V28.392H12.2536V29.662H14.1812V31.5671H12.9284L12.895 30.9568C12.2213 30.9568 11.5658 30.9353 10.9136 30.9654C10.5648 30.9816 10.3614 31.2259 10.3399 31.5811C10.3322 31.7437 10.3891 31.9028 10.4982 32.0238C10.6072 32.1447 10.7596 32.2177 10.9222 32.2269C11.2967 32.2516 11.6756 32.2365 12.0491 32.2365C13.2567 32.2365 14.1134 32.9491 14.1952 34.0157C14.2792 35.1049 13.5333 35.9423 12.2815 36.1253V37.3695H10.99V36.1102H9.06661Z" fill="white"/>
</g>
<defs>
<clipPath id="clip0_844_148">
<rect width="40" height="39.9795" fill="white"/>
</clipPath>
</defs>
</svg>
