<svg width="32" height="33" viewBox="0 0 32 33" fill="none" xmlns="http://www.w3.org/2000/svg">
<g clip-path="url(#clip0_1018_8460)">
<path d="M8.4583 0H25.1521C25.2872 0.116248 25.4285 0.225062 25.5542 0.350097C27.5899 2.38219 29.6256 4.41495 31.6613 6.44839C31.7721 6.55075 31.8596 6.67571 31.9179 6.81481C31.9762 6.95392 32.0039 7.10393 31.9992 7.25469C31.9916 14.6527 31.9884 22.0504 31.9898 29.4479C31.9981 29.7532 31.967 30.0583 31.8972 30.3556C31.5538 31.6303 30.5164 32.3731 29.1126 32.3737H9.00575C7.23634 32.3737 6.10901 31.243 6.10563 29.4675C6.10563 28.2659 6.08873 27.0642 6.11577 25.8639C6.12388 25.5023 6.00019 25.3401 5.68659 25.1792C2.56817 23.5794 0.68184 21.0348 0.128986 17.5852C-0.588103 13.1056 1.71658 8.8058 5.80284 6.82079C6.03466 6.7086 6.11441 6.57748 6.11239 6.31998C6.10225 5.05612 6.09549 3.79091 6.12523 2.52704C6.14348 1.76332 6.49628 1.14018 7.07143 0.634634C7.47628 0.287241 7.96154 0.136524 8.4583 0ZM7.18295 6.21049C11.576 5.13992 15.3805 6.08613 18.2272 9.63575C21.0739 13.1854 21.1868 17.0952 19.1734 21.1714C19.2588 21.2347 19.341 21.3023 19.4194 21.3741C20.9685 22.9239 22.5324 24.4594 24.0592 26.0321C25.2426 27.2487 24.9791 29.2209 23.5516 30.1427C22.4703 30.8402 21.101 30.6699 20.1183 29.6967C18.6219 28.2129 17.1328 26.722 15.6508 25.2238C15.4224 24.992 15.2669 24.9535 14.9662 25.113C13.1332 26.0965 11.0348 26.4712 8.97466 26.1829C8.38328 26.1051 7.79933 25.9693 7.19985 25.8578C7.19185 25.9075 7.18667 25.9575 7.1843 26.0078C7.1843 27.2196 7.1843 28.4315 7.1843 29.6433C7.1831 29.7798 7.1983 29.9159 7.22958 30.0488C7.43234 30.8504 8.05548 31.2944 8.97736 31.2944C15.6684 31.2944 22.3594 31.2849 29.0504 31.3052C30.1048 31.3086 30.9293 30.6483 30.9253 29.4263C30.9009 22.2622 30.9131 15.0981 30.9131 7.93393V7.55613H30.5144C29.0917 7.55613 27.669 7.55613 26.247 7.55613C25.0899 7.55207 24.4492 6.90663 24.4478 5.75293C24.4478 4.3201 24.4478 2.88705 24.4478 1.45378V1.0976C24.3444 1.09084 24.2735 1.08273 24.2025 1.08273C19.0921 1.08273 13.9819 1.08273 8.87193 1.08273C7.86219 1.08273 7.19376 1.76265 7.18227 2.77238C7.17349 3.59423 7.18227 4.41608 7.18227 5.23792L7.18295 6.21049ZM10.2669 6.86067C5.21417 6.84309 1.10628 10.953 1.08803 16.0449C1.06911 21.097 5.1824 25.1691 10.3311 25.1988C15.2737 25.2258 19.3998 21.0835 19.4323 16.0618C19.4674 11.0091 15.3501 6.88027 10.2669 6.86067ZM16.3497 24.3655C17.8453 25.872 19.3586 27.396 20.8718 28.9201C20.9332 28.9778 20.9987 29.0309 21.0678 29.0789C21.4034 29.323 21.8198 29.4291 22.2312 29.3756C22.6427 29.322 23.018 29.1128 23.2799 28.791C23.826 28.1118 23.7463 27.2365 23.0623 26.5472C21.6205 25.0986 20.1771 23.6529 18.7321 22.2101C18.6941 22.1733 18.6542 22.1386 18.6124 22.1061L16.3497 24.3655ZM25.5238 1.90187C25.5238 3.21913 25.5238 4.50124 25.5238 5.78334C25.5238 6.28145 25.7083 6.46664 26.2125 6.46799C27.4236 6.47205 28.6341 6.46799 29.8453 6.46799C29.9175 6.46341 29.9893 6.4537 30.0602 6.43893L25.5238 1.90187Z" fill="white"/>
<path d="M15.8178 4.31202C13.9214 4.31202 12.0254 4.31202 10.1298 4.31202C10.0034 4.31891 9.87667 4.31143 9.75198 4.28971C9.64187 4.26835 9.54226 4.21026 9.46946 4.12493C9.39665 4.0396 9.35496 3.93209 9.3512 3.81999C9.33545 3.70871 9.35904 3.59542 9.41789 3.49967C9.47675 3.40392 9.56718 3.33172 9.67358 3.29552C9.80267 3.25137 9.93869 3.23099 10.075 3.23537C13.8991 3.23176 17.7229 3.23176 21.5464 3.23537C21.6723 3.23289 21.7978 3.24906 21.9188 3.28336C22.0332 3.3122 22.1329 3.3822 22.1989 3.47997C22.2648 3.57773 22.2924 3.69639 22.2764 3.81323C22.2749 3.93657 22.2273 4.05489 22.143 4.14493C22.0587 4.23498 21.9438 4.29024 21.8208 4.29985C21.7057 4.3126 21.5898 4.31689 21.4741 4.31269L15.8178 4.31202Z" fill="white"/>
<path d="M24.1823 9.71876C25.4461 9.71876 26.71 9.71876 27.9739 9.71876C28.0999 9.71265 28.2263 9.72127 28.3503 9.74445C28.4661 9.76566 28.5704 9.82791 28.644 9.91977C28.7176 10.0116 28.7556 10.127 28.7511 10.2446C28.7605 10.3565 28.7302 10.4682 28.6656 10.5601C28.601 10.6521 28.5062 10.7183 28.3976 10.7474C28.2657 10.7841 28.129 10.8005 27.9921 10.7961C25.4441 10.7988 22.8957 10.7988 20.3468 10.7961C20.2313 10.7965 20.1162 10.7843 20.0034 10.7596C19.8811 10.7403 19.7708 10.6748 19.6953 10.5766C19.6198 10.4784 19.585 10.3549 19.5979 10.2317C19.5954 10.1084 19.6397 9.98864 19.722 9.89669C19.8043 9.80474 19.9184 9.74743 20.0413 9.73634C20.1666 9.72079 20.2929 9.71469 20.4191 9.71809C21.6771 9.71584 22.9315 9.71606 24.1823 9.71876Z" fill="white"/>
<path d="M24.7149 20.4988C23.6304 20.4988 22.5461 20.4988 21.462 20.4988C21.3464 20.5039 21.2306 20.4987 21.116 20.4833C20.9992 20.4688 20.8914 20.4133 20.8117 20.3266C20.7321 20.2399 20.6859 20.1278 20.6814 20.0102C20.6639 19.8937 20.6896 19.7748 20.7537 19.6759C20.8178 19.5771 20.9159 19.5051 21.0294 19.4736C21.1612 19.4358 21.298 19.4185 21.435 19.4222C23.6239 19.4195 25.8134 19.4195 28.0037 19.4222C28.1086 19.4193 28.2135 19.4277 28.3166 19.4472C28.5998 19.5087 28.7539 19.6919 28.7545 19.9825C28.7545 20.2596 28.5518 20.4657 28.253 20.4928C28.1071 20.5063 27.9591 20.5009 27.8117 20.5009C26.7785 20.5004 25.7463 20.4997 24.7149 20.4988Z" fill="white"/>
<path d="M24.9704 17.2641C23.9282 17.2641 22.8865 17.2641 21.8452 17.2641C21.5519 17.2641 21.3248 17.162 21.2369 16.866C21.1356 16.5152 21.3829 16.2057 21.7776 16.1901C22.1243 16.1766 22.4717 16.1861 22.8191 16.1861H27.9327C28.0165 16.1861 28.101 16.1827 28.1855 16.1861C28.5281 16.2084 28.7593 16.4368 28.7498 16.7403C28.7403 17.0437 28.5173 17.2492 28.1848 17.2587C27.8063 17.2695 27.4271 17.2587 27.0487 17.2587L24.9704 17.2641Z" fill="white"/>
<path d="M24.9967 12.9548C26.0274 12.9548 27.0588 12.9481 28.0894 12.9616C28.2652 12.9601 28.4372 13.0127 28.5821 13.1123C28.8768 13.3448 28.7849 13.8253 28.4375 13.9679C28.3092 14.0135 28.1735 14.0346 28.0374 14.0301C26.0067 14.0337 23.9759 14.0337 21.9452 14.0301C21.8925 14.0301 21.8398 14.0301 21.7877 14.0301C21.4336 14.001 21.2166 13.7882 21.222 13.4786C21.2274 13.1691 21.4451 12.9622 21.8087 12.9568C22.2926 12.9487 22.7765 12.9568 23.2604 12.9568L24.9967 12.9548Z" fill="white"/>
<path d="M29.8365 27.6293C29.8365 27.9449 29.8426 28.2606 29.8365 28.5755C29.8136 29.5001 29.1803 30.1705 28.2544 30.2077C27.5501 30.2368 26.8438 30.2219 26.1389 30.2131C25.7665 30.2084 25.5306 29.9786 25.5306 29.6657C25.5306 29.3528 25.7692 29.1439 26.1518 29.1405C26.783 29.1351 27.4149 29.1405 28.0442 29.1405C28.5626 29.1405 28.7531 28.9493 28.7558 28.439C28.7558 27.7976 28.7471 27.1548 28.7599 26.5135C28.7694 26.0221 29.2114 25.7349 29.5662 25.9978C29.7014 26.0992 29.748 26.3249 29.8325 26.4952C29.8366 26.516 29.8366 26.5373 29.8325 26.5581V27.6293H29.8365Z" fill="white"/>
<path d="M25.7908 23.737C25.0008 23.737 24.2107 23.737 23.4213 23.737C23.1705 23.737 22.934 23.6457 22.886 23.3876C22.8542 23.2152 22.8914 22.9665 23.0009 22.8469C23.1104 22.7272 23.3537 22.6745 23.5416 22.6664C24.0674 22.6434 24.5946 22.6583 25.1211 22.6583C26.0673 22.6583 27.0169 22.6583 27.9644 22.6583C28.0905 22.6562 28.2164 22.6671 28.3402 22.6907C28.6166 22.7495 28.7565 22.9415 28.7504 23.2118C28.7444 23.4822 28.5963 23.6788 28.3165 23.7113C28.0548 23.7347 27.7919 23.7433 27.5292 23.737C26.95 23.737 26.3707 23.737 25.7915 23.737H25.7908Z" fill="white"/>
<path d="M19.5878 7.55605C18.9565 7.55605 18.3246 7.55605 17.6954 7.55605C17.5799 7.55787 17.4644 7.55086 17.35 7.53509C17.2272 7.52445 17.1131 7.46718 17.0311 7.37505C16.9492 7.28293 16.9056 7.16293 16.9093 7.03969C16.8992 6.76934 17.033 6.57334 17.3095 6.51184C17.4329 6.48694 17.5586 6.47516 17.6846 6.4767C18.9583 6.4767 20.2321 6.4767 21.5059 6.4767C21.5694 6.4767 21.6329 6.4767 21.6958 6.4767C22.056 6.50576 22.2811 6.71122 22.2851 7.0113C22.2892 7.32355 22.056 7.54523 21.6769 7.55199C20.9821 7.56281 20.2873 7.55537 19.5925 7.55537L19.5878 7.55605Z" fill="white"/>
<path d="M2.17153 16.011C2.22019 11.2881 6.06719 7.81892 10.5144 7.94936C14.9919 8.08048 18.4517 11.8018 18.3334 16.374C18.2219 20.6839 14.4134 24.2505 10.0879 24.1261C5.54475 23.9963 2.14585 20.3034 2.17153 16.011ZM10.2589 23.04C14.1525 23.0136 17.2736 19.8959 17.2554 16.0496C17.2372 12.089 14.1187 9.00168 10.1697 9.03479C6.2882 9.06723 3.23466 12.2404 3.26169 16.2104C3.28737 19.9358 6.49434 23.067 10.2589 23.0427V23.04Z" fill="white"/>
<path d="M10.1575 15.6456C11.4105 15.6456 12.6638 15.6456 13.9173 15.6456C14.0434 15.6429 14.1694 15.6522 14.2938 15.6733C14.5688 15.7246 14.7169 15.9037 14.7196 16.1802C14.7223 16.4566 14.579 16.6384 14.3046 16.6965C14.191 16.718 14.0755 16.728 13.9599 16.7263C11.4223 16.7263 8.88418 16.7263 6.34564 16.7263H6.31388C5.82861 16.7215 5.57043 16.5363 5.56502 16.191C5.55962 15.8456 5.82253 15.6456 6.30306 15.6442C7.5881 15.6438 8.87291 15.6442 10.1575 15.6456Z" fill="white"/>
<path d="M10.1271 13.4848C9.54788 13.4848 8.96935 13.4882 8.39081 13.4848C7.96637 13.4814 7.71495 13.2706 7.72509 12.938C7.73387 12.6177 7.97786 12.4109 8.38473 12.4088C9.56343 12.4034 10.7419 12.4034 11.9202 12.4088C12.3257 12.4088 12.5663 12.6251 12.5676 12.9495C12.569 13.2739 12.3345 13.4814 11.9262 13.4855C11.3268 13.4889 10.7266 13.4841 10.1271 13.4848Z" fill="white"/>
<path d="M10.1873 18.8897C10.7665 18.8897 11.345 18.8857 11.9235 18.8897C12.3331 18.8938 12.5676 19.0925 12.5676 19.4236C12.5676 19.7548 12.325 19.9643 11.9229 19.9643C10.7338 19.9702 9.54474 19.9702 8.35568 19.9643C8.061 19.9643 7.81499 19.8609 7.7474 19.5311C7.69401 19.2723 7.78795 19.0668 8.02247 18.9566C8.14903 18.9067 8.28461 18.8837 8.42056 18.889C9.00923 18.8857 9.59994 18.8897 10.1873 18.8897Z" fill="white"/>
</g>
<defs>
<clipPath id="clip0_1018_8460">
<rect width="32" height="32.3744" fill="white"/>
</clipPath>
</defs>
</svg>
