<svg width="32" height="44" viewBox="0 0 32 44" fill="none" xmlns="http://www.w3.org/2000/svg">
<g clip-path="url(#clip0_844_118)">
<path d="M10.6695 1.03265C10.6695 3.08138 10.6695 5.04544 10.6695 7.00831C10.6811 7.34999 10.6583 7.69197 10.6015 8.0291C10.452 8.77399 10.0475 9.44348 9.45769 9.92233C8.86784 10.4012 8.12951 10.6594 7.36979 10.6526C5.45105 10.6681 3.53111 10.6526 1.61236 10.6526H1.05426V11.2835C1.05426 20.1223 1.05426 28.9616 1.05426 37.8013C1.05426 37.9945 1.10078 38.2234 1.01492 38.3701C0.911168 38.5454 0.684586 38.7612 0.517635 38.7553C0.350683 38.7493 0.159882 38.5168 0.0406311 38.3403C-0.0237644 38.2508 0.0215541 38.0803 0.0215541 37.9468C0.0215541 28.7803 0.0215541 19.6135 0.0215541 10.4463C0.0115935 10.2783 0.0382106 10.1102 0.0995651 9.95353C0.16092 9.79685 0.255547 9.65535 0.376919 9.53881C3.44882 6.48837 6.51436 3.43078 9.57355 0.366034C9.68953 0.242864 9.83081 0.146261 9.98766 0.0828598C10.1445 0.0194585 10.3132 -0.00923816 10.4822 -0.00125896C16.4027 0.0074861 22.3254 0.00987117 28.2506 0.00589614C30.4627 0.00589614 31.8091 1.3582 31.8091 3.56434C31.8091 15.8567 31.8091 28.1487 31.8091 40.4403C31.8091 42.6178 30.458 43.9797 28.2757 43.9797C20.033 43.9797 11.7904 43.9594 3.5478 43.9987C1.73877 44.0071 -0.20502 42.7275 0.0239415 40.073C0.0501767 39.7594 0.207582 39.5614 0.517635 39.5459C0.827687 39.5304 1.01849 39.72 1.05308 40.0289C1.07573 40.2352 1.06262 40.4451 1.06739 40.6538C1.10078 41.9882 2.01304 42.9064 3.35104 42.9541C3.42616 42.9541 3.5001 42.9541 3.57404 42.9541C11.8023 42.9541 20.0307 42.9541 28.259 42.9541C28.5711 42.9571 28.8821 42.9169 29.1832 42.8349C29.6221 42.707 30.0099 42.4449 30.2922 42.0854C30.5745 41.7258 30.7372 41.2869 30.7573 40.8302C30.768 40.6526 30.7668 40.4725 30.7668 40.2948C30.7668 28.0931 30.7668 15.8897 30.7668 3.68479C30.7801 3.35849 30.7541 3.03178 30.6893 2.7117C30.4246 1.64798 29.5338 1.02788 28.3043 1.02788C24.0343 1.02788 19.7643 1.02788 15.4944 1.02788H10.6742L10.6695 1.03265ZM9.65106 1.8674L2.01901 9.58174C2.0524 9.58174 2.17881 9.59486 2.30521 9.59605C3.95564 9.59605 5.60607 9.59605 7.2565 9.59605C8.71494 9.59605 9.64152 8.65874 9.64868 7.18957C9.65464 5.53914 9.64868 3.88871 9.64868 2.23827L9.65106 1.8674Z" fill="white"/>
<path d="M16.6343 40.1601V39.6617C16.6343 37.5629 16.6343 35.4644 16.6343 33.3664C16.6343 32.7034 16.7822 32.5555 17.4464 32.5543C18.1746 32.5543 18.9037 32.5543 19.6335 32.5543C20.3025 32.5543 20.4539 32.7022 20.4539 33.3605C20.4539 35.4585 20.4539 37.5565 20.4539 39.6545V40.1613H21.9028V29.2546C21.9028 28.5284 22.0221 28.4092 22.7626 28.408H24.8602C25.6139 28.408 25.7236 28.5272 25.7236 29.2952C25.7236 32.7336 25.7236 36.1712 25.7236 39.608V40.1864C26.1923 40.1864 26.6192 40.1864 27.0461 40.1864C27.5505 40.1864 27.7843 40.3486 27.7867 40.6896C27.789 41.0307 27.5482 41.206 27.0568 41.206H4.9203C4.78674 41.206 4.65199 41.2119 4.51843 41.1988C4.22507 41.1714 4.04858 41.0032 4.04142 40.7099C4.03358 40.6423 4.04069 40.5739 4.06225 40.5094C4.0838 40.4449 4.11927 40.3859 4.16615 40.3366C4.21302 40.2874 4.27017 40.249 4.33352 40.2243C4.39687 40.1996 4.46488 40.1891 4.53274 40.1935C5.03478 40.1792 5.53802 40.1935 6.09969 40.1935V39.6736C6.09969 38.4537 6.09969 37.2325 6.09969 36.0126C6.09969 35.5189 6.28215 35.3305 6.7675 35.3245C7.58556 35.315 8.40401 35.315 9.22287 35.3245C9.73922 35.3245 9.90976 35.507 9.91095 36.04C9.91095 37.2445 9.91095 38.4501 9.91095 39.6557V40.1637H11.3598V39.6629C11.3598 36.8803 11.3598 34.0978 11.3598 31.3153C11.3598 30.6189 11.4958 30.4805 12.1946 30.4805H14.3411C15.0566 30.4805 15.1866 30.6189 15.1866 31.3487C15.1866 34.101 15.1866 36.8537 15.1866 39.6068V40.1625L16.6343 40.1601ZM22.9868 29.4538V40.153H24.6396V29.4538H22.9868ZM12.4498 31.5431V40.1542H14.1038V31.5466L12.4498 31.5431ZM17.7231 33.6156V40.1566H19.3807V33.6156H17.7231ZM8.86035 36.4002H7.19084V40.1554H8.86035V36.4002Z" fill="white"/>
<path d="M22.9283 3.8685V8.86392C23.1 8.87346 23.2563 8.88897 23.4113 8.88897C24.9735 8.88897 26.5349 8.88897 28.0955 8.88897C28.9517 8.88897 29.0817 9.02849 29.0256 9.88113C28.805 13.1725 26.1481 15.8067 22.8246 16.0333C21.2302 16.1385 19.6516 15.6633 18.3803 14.6953C17.1089 13.7274 16.2308 12.3321 15.908 10.7672C15.5624 9.10377 15.8664 7.37118 16.7576 5.92476C17.6487 4.47835 19.0596 3.42774 20.7007 2.98843C22.3515 2.55566 24.1055 2.77359 25.6003 3.59719C27.095 4.42079 28.2162 5.78711 28.7323 7.41383C28.7728 7.54143 28.8599 7.69646 28.8193 7.79663C28.7454 7.98504 28.6237 8.23666 28.4616 8.28794C28.2994 8.33922 28.049 8.21281 27.8927 8.09237C27.783 8.00651 27.7663 7.8014 27.7115 7.64756C26.9554 5.56902 25.4743 4.33597 23.3278 3.89116C23.1954 3.87422 23.0619 3.86665 22.9283 3.8685ZM18.1094 12.9614C19.3281 11.7426 20.5493 10.5287 21.7561 9.30038C21.8515 9.20379 21.8753 9.00583 21.8753 8.85438C21.8837 7.30412 21.8813 5.7634 21.8753 4.21791C21.8753 4.10581 21.8551 3.99252 21.8443 3.88401C20.108 3.84227 18.0808 5.30667 17.2627 7.18368C16.422 9.10123 16.7821 11.5912 18.1094 12.9614ZM27.9786 9.93957H27.4563C26.2077 9.93957 24.952 9.98846 23.713 9.92168C22.9188 9.87875 22.3583 10.1173 21.8229 10.7028C20.8689 11.7414 19.8409 12.7062 18.8106 13.7341C20.5743 15.0554 22.4525 15.4144 24.4631 14.6035C26.5237 13.7711 27.6483 12.1743 27.9786 9.93957Z" fill="white"/>
<path d="M25.3265 23.8919C25.1166 24.0898 24.9986 24.1948 24.8865 24.3069L19.1755 30.0166C18.6019 30.5902 18.46 30.589 17.8757 30.0023C16.3505 28.4783 14.8265 26.9531 13.2738 25.3992C13.1486 25.5185 13.0353 25.621 12.9161 25.7319L8.59678 30.05C8.50257 30.1442 8.40837 30.2957 8.30104 30.3076C8.08758 30.3326 7.78588 30.3565 7.66782 30.236C7.54976 30.1156 7.58673 29.8175 7.60819 29.6028C7.61773 29.5074 7.75248 29.4227 7.83715 29.3393C9.45499 27.7182 11.0744 26.0984 12.6954 24.4798C13.1724 24.0028 13.3501 24.0028 13.8379 24.4965C15.28 25.9354 16.7209 27.376 18.1607 28.8181C18.28 28.9374 18.3992 29.0411 18.4827 29.1258L24.5645 23.044C24.2365 23.044 23.9229 23.044 23.6105 23.044C23.4173 23.044 23.1907 23.0881 23.0416 23.0023C22.8628 22.8997 22.6243 22.6648 22.6422 22.5157C22.666 22.3297 22.9164 22.0328 23.081 22.0244C24.0159 21.9767 24.9544 21.9863 25.8905 22.0089C26.2042 22.0161 26.3521 22.2677 26.3556 22.567C26.3628 23.4447 26.3556 24.3224 26.3556 25.2001C26.3556 25.5113 26.1863 25.7176 25.8786 25.7367C25.5364 25.7594 25.3503 25.5447 25.3325 25.2203C25.311 24.8197 25.3265 24.4178 25.3265 23.8919Z" fill="white"/>
<path d="M7.15504 14.6666H3.58944C3.47019 14.6666 3.31516 14.7048 3.24003 14.6452C3.0707 14.5104 2.82981 14.3303 2.82385 14.161C2.81789 13.9917 3.0385 13.7854 3.20665 13.6542C3.30324 13.5791 3.49284 13.616 3.64071 13.616C6.00347 13.616 8.36584 13.616 10.7278 13.616C10.816 13.616 10.9055 13.616 10.9949 13.616C11.3336 13.6446 11.5733 13.7949 11.5566 14.167C11.5411 14.5104 11.3181 14.6559 10.9878 14.6631C10.735 14.6702 10.4833 14.6631 10.2305 14.6631L7.15504 14.6666Z" fill="white"/>
<path d="M7.15985 21.4639C8.3929 21.4639 9.62596 21.4639 10.8566 21.4639C11.2144 21.4639 11.5209 21.5402 11.5566 21.9672C11.5864 22.313 11.3277 22.5121 10.8531 22.5133C8.40285 22.5133 5.95184 22.5133 3.50004 22.5133C3.03258 22.5133 2.75711 22.2987 2.79408 21.9636C2.84059 21.545 3.13752 21.4615 3.50243 21.4639C4.72475 21.4639 5.9423 21.4639 7.15985 21.4639Z" fill="white"/>
<path d="M7.16813 17.2724H3.38191C3.03131 17.2724 2.79639 17.1078 2.79997 16.7477C2.79997 16.4078 3.03847 16.2575 3.36284 16.2456C3.48209 16.2456 3.60134 16.2456 3.72059 16.2456H9.0666C9.63066 16.2456 10.1959 16.2456 10.76 16.2456C11.324 16.2456 11.5744 16.4066 11.5649 16.7751C11.5566 17.1245 11.3264 17.2771 10.779 17.2771C9.57461 17.2755 8.37097 17.2739 7.16813 17.2724Z" fill="white"/>
<path d="M7.15987 18.8583C8.42154 18.8583 9.68441 18.8583 10.9461 18.8583C11.3885 18.8583 11.6294 19.1147 11.5495 19.4772C11.4839 19.7754 11.2693 19.8767 10.989 19.8767C8.45056 19.8767 5.91131 19.8767 3.37127 19.8767C3.02067 19.8767 2.78455 19.705 2.80125 19.3437C2.81794 18.9823 3.07194 18.8536 3.41777 18.8547C4.66514 18.8619 5.91727 18.8583 7.15987 18.8583Z" fill="white"/>
<path d="M13.8188 14.6666C13.64 14.6666 13.4277 14.7275 13.2929 14.6523C13.0986 14.5438 12.8386 14.3399 12.8326 14.1682C12.8267 13.9965 13.0711 13.6983 13.2512 13.6614C13.6448 13.5829 14.0501 13.5829 14.4437 13.6614C14.6202 13.6971 14.8647 14.0012 14.8563 14.1729C14.848 14.3447 14.588 14.5522 14.3912 14.6499C14.2362 14.7263 14.012 14.6666 13.8188 14.6666Z" fill="white"/>
<path d="M13.8332 22.5169C13.634 22.5062 13.3955 22.5551 13.2297 22.4668C13.064 22.3786 12.8124 22.1305 12.8302 21.9815C12.858 21.8694 12.9129 21.7659 12.99 21.68C13.0672 21.5942 13.1642 21.5286 13.2727 21.489C13.6512 21.4116 14.0414 21.4116 14.4199 21.489C14.5275 21.5297 14.6235 21.5962 14.6994 21.6827C14.7753 21.7692 14.8288 21.873 14.8551 21.9851C14.8718 22.1353 14.6345 22.3738 14.4545 22.4692C14.2744 22.5646 14.049 22.5062 13.8332 22.5169Z" fill="white"/>
<path d="M13.8354 17.264C13.6423 17.264 13.4145 17.3296 13.2666 17.2473C13.077 17.1435 12.8504 16.9325 12.8301 16.7464C12.8146 16.5998 13.0687 16.3124 13.2368 16.2814C13.6321 16.2283 14.0323 16.2211 14.4293 16.2599C14.7274 16.2754 14.886 16.4829 14.8813 16.7667C14.8838 16.8303 14.8736 16.8938 14.8512 16.9535C14.8288 17.0131 14.7948 17.0676 14.751 17.1138C14.7072 17.1601 14.6546 17.1971 14.5963 17.2227C14.5379 17.2482 14.4751 17.2619 14.4114 17.2628C14.2206 17.2795 14.0262 17.2628 13.8342 17.2628L13.8354 17.264Z" fill="white"/>
<path d="M13.8558 18.8643C14.049 18.8643 14.2434 18.8488 14.4342 18.8643C14.7323 18.8942 14.9231 19.1028 14.8682 19.3724C14.8289 19.556 14.619 19.8112 14.4509 19.8422C14.0567 19.9151 13.6525 19.9151 13.2584 19.8422C13.0795 19.8076 12.8267 19.5202 12.8302 19.3521C12.8338 19.1839 13.0914 18.9729 13.2858 18.8751C13.4372 18.7964 13.6626 18.8596 13.8546 18.8596L13.8558 18.8643Z" fill="white"/>
<path d="M22.9869 29.4537H24.6397V40.1529H22.9833L22.9869 29.4537Z" fill="#FFF500"/>
<path d="M12.4498 31.5466H14.1038V40.1577H12.4498V31.5466Z" fill="#FFF500"/>
<path d="M17.723 33.6156H19.3806V40.1565H17.723V33.6156Z" fill="#FFF500"/>
<path d="M8.85433 36.4001V40.1554H7.18481V36.4001H8.85433Z" fill="#FFF500"/>
</g>
<defs>
<clipPath id="clip0_844_118">
<rect width="31.8066" height="44" fill="white"/>
</clipPath>
</defs>
</svg>
