<svg width="37" height="37" viewBox="0 0 37 37" fill="none" xmlns="http://www.w3.org/2000/svg">
<g clip-path="url(#clip0_1018_8368)">
<path d="M9.66789 36.6079C9.047 36.3748 8.91518 35.8724 8.97154 35.24H8.55888C6.91495 35.24 5.27006 35.24 3.62612 35.24C1.46923 35.24 0.0153867 33.7814 0.0153867 31.6274C0.0153867 23.7984 0.0153867 15.9697 0.0153867 8.14135C0.0065114 8.02271 0.0116387 7.90344 0.0306677 7.78601C0.0984883 7.51281 0.27521 7.35234 0.567507 7.35998C0.688631 7.35681 0.806718 7.39811 0.899467 7.47608C0.992217 7.55404 1.0532 7.66328 1.0709 7.78314C1.09167 7.92447 1.09712 8.06763 1.08714 8.21013C1.08714 15.9914 1.08714 23.7723 1.08714 31.5529C1.08714 33.2188 2.03377 34.1673 3.69967 34.1673C5.42671 34.1673 7.15471 34.1673 8.8827 34.1673C8.9796 34.1725 9.07634 34.1544 9.16488 34.1147C9.25343 34.075 9.33123 34.0148 9.39184 33.939C9.62914 33.6931 9.90144 33.4835 10.2 33.3172C10.3671 33.2216 10.455 33.1404 10.4368 32.9437C10.328 31.7974 11.2612 30.7572 12.6339 30.7935C14.6717 30.847 16.7095 30.847 18.7473 30.7935C20.1667 30.7552 21.0761 31.8289 20.9653 33.0057C20.9596 33.064 20.9653 33.1242 20.9653 33.2073C21.4716 33.3878 21.8909 33.6849 22.1698 34.152C22.1906 34.1784 22.217 34.1998 22.247 34.2147C22.2771 34.2295 22.3101 34.2375 22.3437 34.238C22.8652 34.2227 23.4011 34.2638 23.9064 34.1616C25.0384 33.9323 25.7968 32.8166 25.6516 31.6684C25.5274 31.678 25.4013 31.6885 25.2752 31.6971C25.0551 31.7197 24.8327 31.6931 24.624 31.6192C24.4154 31.5454 24.2258 31.4262 24.0688 31.2701C22.2482 29.4514 20.4288 27.6307 18.6107 25.8082C18.1875 25.3831 18.0949 24.8606 18.241 24.2874C18.3713 23.7617 18.7027 23.308 19.1638 23.0239C19.625 22.7397 20.1792 22.6477 20.7074 22.7677C20.7715 22.7787 20.8372 22.7759 20.9002 22.7595C20.9631 22.743 21.0218 22.7132 21.0723 22.6722C22.5815 21.182 24.0822 19.6833 25.5742 18.1759C25.6516 18.0986 25.6698 17.9362 25.6698 17.813C25.6698 17.5656 25.6153 17.3191 25.6143 17.0717C25.6096 14.8948 25.6143 12.7178 25.6143 10.4807H25.2093C23.1238 10.4807 21.0385 10.4807 18.9536 10.4807C17.1941 10.4807 16.1835 9.46911 16.1835 7.71054V1.10997C15.5922 1.10997 15.0257 1.10997 14.4593 1.10997C10.825 1.09787 7.19069 1.08577 3.55639 1.07367C2.0844 1.07367 1.09383 2.06901 1.09001 3.54196C1.09001 4.11509 1.09001 4.68823 1.09001 5.26136C1.09001 5.67497 0.87986 5.93001 0.551264 5.92428C0.222668 5.91855 0.0182503 5.67115 0.0192055 5.25563C0.0192055 4.50482 -0.0352386 3.74638 0.0526417 3.00608C0.261835 1.23988 1.69658 0.00764177 3.48571 0.00477611C7.4174 -0.00159203 11.3494 -0.00159203 15.2817 0.00477611H15.7823C16.1409 -0.00357179 16.4976 0.0606653 16.8308 0.193627C17.164 0.326588 17.467 0.525531 17.7214 0.778506C20.4756 3.50089 23.2269 6.22613 25.9754 8.95424C26.2315 9.20529 26.4332 9.50627 26.5681 9.83852C26.703 10.1708 26.7682 10.5272 26.7597 10.8857V15.4497C26.8867 15.4144 26.986 15.3857 27.0863 15.3542C27.7292 15.1851 28.2957 15.2874 28.7914 15.7822C30.5328 17.5455 32.2856 19.2974 34.0337 21.0559C34.6469 21.673 34.7501 22.4467 34.3279 23.208C33.8933 23.9913 32.9715 24.467 32.2073 24.2531C31.9312 24.1757 31.7765 24.2359 31.5979 24.4298C31.3571 24.6925 31.0859 24.9265 30.8012 25.194C31.4966 25.7451 32.1567 26.2695 32.8186 26.793C33.5752 27.3919 34.3212 28.0052 35.093 28.5831C35.7817 29.0989 36.374 29.6749 36.629 30.526V31.3131C36.3644 31.7974 36.1791 32.3533 35.819 32.7517C35.1637 33.4795 34.347 33.9887 33.2905 33.7327C32.5703 33.5579 32.0802 33.044 31.6389 32.4909C30.8193 31.4535 30.0055 30.4123 29.1878 29.373C28.8229 28.9088 28.4561 28.4455 28.0626 27.9479C27.7464 28.2726 27.4484 28.564 27.1723 28.8744C27.1437 28.9195 27.1248 28.9701 27.1169 29.0229C27.109 29.0757 27.1123 29.1296 27.1265 29.181C27.242 29.6013 27.2612 30.0407 27.0309 30.3951C26.73 30.8555 26.7644 31.337 26.7616 31.828C26.7501 33.8416 25.2686 35.3155 23.253 35.3193H22.3933C22.5022 35.9421 22.2864 36.3624 21.7514 36.605H14.6733C14.5462 36.4445 14.3513 36.3013 14.3074 36.1217C14.2195 35.7654 14.4984 35.5314 14.957 35.5304C16.9445 35.5304 18.9319 35.5304 20.9194 35.5304H21.3015C21.441 34.7223 21.1105 34.2389 20.4179 34.237C17.2759 34.2294 14.1342 34.2294 10.9928 34.237C10.2878 34.237 9.90001 34.8197 10.113 35.5304C10.7817 35.5304 11.4628 35.5352 12.141 35.5304C12.4495 35.5304 12.7217 35.5791 12.8211 35.9125C12.9204 36.2459 12.7342 36.4531 12.461 36.6041L9.66789 36.6079ZM31.0496 23.3953C30.5347 22.8947 30.0189 22.3999 29.5117 21.8975C29.2079 21.5966 29.1773 21.2938 29.4075 21.054C29.6377 20.8143 29.9558 20.8305 30.2758 21.1495C30.8834 21.7552 31.4861 22.3665 32.0907 22.9712C32.4537 23.3332 32.811 23.3141 33.2017 22.9215C33.5694 22.5518 33.5904 22.1401 33.2523 21.8001C31.5329 20.0666 29.8106 18.3345 28.0855 16.6037C27.7321 16.2493 27.3481 16.2674 26.9698 16.6476C26.6536 16.9657 26.5352 17.4423 26.9049 17.7757C27.3987 18.2228 27.8505 18.7166 28.3234 19.1875C28.5058 19.37 28.6042 19.5696 28.4991 19.8304C28.3444 20.2125 27.9155 20.2793 27.5917 19.967C27.2096 19.5983 26.8399 19.2152 26.5123 18.8857L21.8317 23.5663L26.3518 28.0921L31.0496 23.3953ZM24.6429 9.4137L17.2543 1.80728V2.23331C17.2543 4.09217 17.2543 5.95071 17.2543 7.80893C17.2543 8.85203 17.8188 9.41084 18.8781 9.41275C19.9747 9.41275 21.071 9.41275 22.167 9.41275L24.6429 9.4137ZM28.8516 27.2181C30.1536 28.8706 31.445 30.5184 32.746 32.1585C33.0144 32.4966 33.3669 32.7125 33.8207 32.7029C34.4482 32.6905 35.2458 32.0391 35.4761 31.3542C35.6671 30.7753 35.4761 30.2738 34.858 29.7828C33.3672 28.6003 31.8742 27.4196 30.379 26.2409C30.272 26.1559 30.1612 26.0737 30.0657 26.0021L28.8516 27.2181ZM26.1168 29.6004C26.0619 29.4796 25.9909 29.3668 25.9057 29.2651C24.1519 27.5018 22.3924 25.7432 20.6271 23.9894C20.5188 23.8833 20.3804 23.8133 20.2307 23.7888C19.8897 23.7477 19.4952 24.0486 19.3194 24.424C19.158 24.7689 19.3099 25.0039 19.5487 25.2417C21.2534 26.9382 22.9531 28.6388 24.6477 30.3435C24.8932 30.591 25.1339 30.7113 25.4692 30.569C25.6571 30.4845 25.8175 30.3489 25.932 30.1776C26.0465 30.0064 26.1105 29.8063 26.1168 29.6004ZM11.5459 33.1347H19.8668C19.9623 32.2597 19.6242 31.8795 18.7826 31.8786C16.713 31.8786 14.6433 31.8786 12.5737 31.8786C11.7665 31.8843 11.4179 32.3046 11.5459 33.1395V33.1347Z" fill="white"/>
<path d="M11.5591 19.114H5.59377C5.46305 19.1183 5.33218 19.1135 5.20212 19.0997C5.08206 19.0893 4.97014 19.0346 4.88807 18.9464C4.806 18.8582 4.75963 18.7426 4.75795 18.6221C4.74103 18.5009 4.77123 18.3779 4.84232 18.2784C4.91341 18.1789 5.01997 18.1104 5.14004 18.0871C5.27892 18.0566 5.4211 18.0438 5.5632 18.0489C9.57513 18.0489 13.5871 18.0489 17.599 18.0489C17.7178 18.0444 17.8368 18.0515 17.9543 18.0699C18.2543 18.1292 18.4138 18.3193 18.3947 18.6249C18.3765 18.9115 18.2036 19.0796 17.9171 19.1102C17.7865 19.1205 17.6554 19.1237 17.5245 19.1197L11.5591 19.114Z" fill="white"/>
<path d="M10.4816 27.6937H5.589C5.45825 27.6982 5.32736 27.6931 5.19736 27.6784C5.0766 27.6665 4.96463 27.61 4.88336 27.5199C4.80209 27.4298 4.75738 27.3126 4.75796 27.1913C4.7421 27.0707 4.77279 26.9487 4.84378 26.85C4.91478 26.7513 5.02073 26.6834 5.14005 26.6602C5.27937 26.6305 5.42181 26.618 5.56417 26.6229C8.86159 26.6229 12.159 26.6229 15.4564 26.6229C15.5871 26.6177 15.7179 26.6279 15.8462 26.6535C15.9717 26.6739 16.0842 26.7431 16.1591 26.8459C16.234 26.9487 16.2654 27.0769 16.2464 27.2027C16.2467 27.3241 16.2007 27.4411 16.1178 27.5298C16.035 27.6185 15.9214 27.6723 15.8003 27.6803C15.6823 27.6934 15.5636 27.6979 15.445 27.6937H10.4816Z" fill="white"/>
<path d="M9.89992 23.4066H5.71892C5.58812 23.4119 5.4571 23.4062 5.32727 23.3894C5.05408 23.3407 4.87545 23.1411 4.91462 22.8927C4.94423 22.7017 5.11808 22.5183 5.27569 22.3864C5.36548 22.311 5.54888 22.3368 5.69025 22.3368C8.50115 22.3368 11.3124 22.3368 14.1239 22.3368C14.2429 22.3326 14.362 22.3409 14.4792 22.3616C14.6055 22.3783 14.7202 22.4439 14.7986 22.5443C14.8771 22.6447 14.913 22.7719 14.8986 22.8984C14.8871 23.185 14.7257 23.3589 14.4372 23.3971C14.3188 23.4074 14.1998 23.4106 14.0809 23.4066H9.89992Z" fill="white"/>
<path d="M9.5226 10.5333C8.24898 10.5333 6.97535 10.5333 5.70172 10.5333C5.58274 10.5373 5.46362 10.5322 5.34542 10.518C5.22455 10.5068 5.11218 10.451 5.03023 10.3615C4.94828 10.272 4.90263 10.1551 4.9022 10.0337C4.88746 9.91325 4.91858 9.79166 4.98937 9.69308C5.06016 9.59451 5.16543 9.52618 5.28429 9.50165C5.42392 9.47192 5.56668 9.45941 5.70936 9.4644C8.26935 9.4644 10.83 9.4644 13.3912 9.4644C13.5219 9.45882 13.6527 9.46876 13.781 9.49401C13.9069 9.51423 14.0198 9.58341 14.0949 9.68647C14.1701 9.78953 14.2014 9.91813 14.1822 10.0442C14.1825 10.1655 14.1366 10.2823 14.054 10.371C13.9713 10.4596 13.858 10.5136 13.737 10.5218C13.6188 10.5349 13.4997 10.5394 13.3807 10.5352C12.0957 10.5352 10.8096 10.5346 9.5226 10.5333Z" fill="white"/>
<path d="M9.16536 14.8231H5.55845C5.43949 14.827 5.32041 14.8222 5.20214 14.8088C5.08224 14.798 4.97057 14.7432 4.88858 14.6551C4.80659 14.5669 4.76007 14.4516 4.75797 14.3312C4.74312 14.2103 4.7741 14.0882 4.84483 13.989C4.91556 13.8898 5.0209 13.8207 5.14006 13.7953C5.24321 13.7682 5.34959 13.7553 5.45624 13.7571C7.95573 13.7571 10.4555 13.7571 12.9557 13.7571C13.0626 13.7547 13.1693 13.7689 13.2719 13.7991C13.3887 13.8303 13.4896 13.904 13.5549 14.0058C13.6201 14.1076 13.6449 14.2302 13.6243 14.3493C13.6209 14.4644 13.576 14.5744 13.4979 14.659C13.4197 14.7436 13.3137 14.7971 13.1993 14.8098C13.0812 14.8255 12.962 14.8313 12.843 14.8269L9.16536 14.8231Z" fill="white"/>
<path d="M18.5341 14.823C17.6057 14.823 16.6781 14.823 15.7497 14.823C15.3112 14.823 15.081 14.6444 15.0762 14.3091C15.0715 13.9738 15.3074 13.7541 15.7516 13.7532C17.62 13.7532 19.4884 13.7532 21.3568 13.7532C21.8612 13.7532 22.142 14.1095 21.971 14.4992C21.8516 14.7714 21.6224 14.8259 21.354 14.8249C20.414 14.8211 19.4741 14.823 18.5341 14.823Z" fill="white"/>
</g>
<defs>
<clipPath id="clip0_1018_8368">
<rect width="36.6241" height="36.6079" fill="white"/>
</clipPath>
</defs>
</svg>
