<svg width="43" height="39" viewBox="0 0 43 39" fill="none" xmlns="http://www.w3.org/2000/svg">
<g clip-path="url(#clip0_844_188)">
<path d="M18.4571 31.05C16.1315 28.9571 16.719 26.092 18.188 24.6971C18.9803 23.9398 20.0356 23.5194 21.1316 23.5247C22.2276 23.53 23.2788 23.9604 24.0638 24.7253C25.528 26.1449 26.071 28.9735 23.8147 31.0054C24.4328 31.4202 25.1073 31.7845 25.6761 32.2698C27.5282 33.8445 28.2615 35.9046 28.1439 38.2972C28.124 38.7144 27.8584 38.9647 27.4388 38.9964C27.3366 39.0047 27.2332 38.9964 27.131 38.9964H15.0867C14.2782 38.9964 14.0808 38.792 14.0726 37.9858C14.0385 34.7471 15.5357 32.472 18.4571 31.05ZM26.7244 37.5733C26.7796 35.5356 25.5374 33.4908 23.636 32.573C21.5325 31.5577 19.5018 31.7504 17.6486 33.1771C16.2243 34.2699 15.5227 35.7565 15.484 37.5733H26.7244ZM21.1141 24.9263C20.3661 24.9263 19.6488 25.2234 19.1198 25.7523C18.5909 26.2813 18.2938 26.9986 18.2938 27.7466C18.2974 28.4865 18.5917 29.1954 19.1131 29.7203C19.6345 30.2453 20.3414 30.5443 21.0812 30.5529C21.8288 30.5579 22.5479 30.2659 23.0802 29.741C23.6126 29.2161 23.9148 28.5013 23.9204 27.7537C23.9223 27.0069 23.6279 26.2898 23.1018 25.7598C22.5758 25.2298 21.8609 24.93 21.1141 24.9263Z" fill="white"/>
<path d="M7.76428 12.962C9.81764 12.9726 11.783 13.797 13.2295 15.2545C14.6759 16.7119 15.4854 18.6835 15.4804 20.7369C15.467 22.7905 14.6398 24.7549 13.1801 26.1994C11.7204 27.6439 9.74736 28.4505 7.69377 28.4424C5.64755 28.426 3.69073 27.6016 2.24963 26.1488C0.808531 24.696 -6.59752e-05 22.7326 4.03748e-09 20.6864C0.00839735 18.6334 0.83039 16.6675 2.2858 15.2196C3.74121 13.7717 5.71131 12.9598 7.76428 12.962ZM1.40667 20.6723C1.39727 24.1566 4.22117 27.0181 7.68907 27.0357C9.3717 27.0461 10.9895 26.3877 12.1868 25.2054C13.3841 24.0231 14.0628 22.4136 14.0737 20.731C14.0778 19.0557 13.4193 17.4467 12.2417 16.255C11.0641 15.0633 9.46305 14.3857 7.78778 14.3699C6.10616 14.3605 4.48958 15.019 3.29312 16.2007C2.09666 17.3824 1.41817 18.9907 1.40667 20.6723Z" fill="white"/>
<path d="M42.2199 20.6828C42.22 22.736 41.4059 24.7054 39.9562 26.1593C38.5064 27.6132 36.5394 28.4329 34.4862 28.4388C32.4325 28.4367 30.4634 27.62 29.0109 26.168C27.5585 24.716 26.7412 22.7471 26.7384 20.6934C26.7436 18.6475 27.557 16.6866 29.0013 15.2376C30.4456 13.7887 32.404 12.9691 34.4498 12.9573C36.504 12.9535 38.4758 13.7648 39.9325 15.2132C41.3892 16.6615 42.2119 18.6286 42.2199 20.6828ZM40.8098 20.6934C40.8039 19.0189 40.1364 17.4146 38.9528 16.2301C37.7692 15.0456 36.1654 14.377 34.4909 14.3698C32.8089 14.3698 31.1957 15.0376 30.0058 16.2264C28.8159 17.4152 28.1466 19.0278 28.1451 20.7098C28.1503 22.3847 28.8175 23.9896 30.0012 25.1746C31.1849 26.3596 32.789 27.0286 34.4639 27.0357C36.1463 27.0357 37.7599 26.3676 38.9499 25.1783C40.1398 23.989 40.8088 22.3758 40.8098 20.6934Z" fill="white"/>
<path d="M32.5014 28.963L33.6389 29.7856C32.4187 31.4678 30.8729 32.8877 29.0934 33.961L28.366 32.7682C29.9825 31.7857 31.3881 30.4924 32.5014 28.963Z" fill="white"/>
<path d="M8.58215 29.7938L9.71736 28.9712C10.8355 30.4953 12.2416 31.7853 13.8563 32.7681L13.1382 33.9609C11.3533 32.8943 9.80337 31.4767 8.58215 29.7938Z" fill="white"/>
<path d="M11.0324 8.85486L11.9537 9.9313L9.66565 12.3991L8.52222 11.5695L11.0324 8.85486Z" fill="white"/>
<path d="M30.5212 10.1839L31.4614 9.13916L33.3028 11.0899L32.1994 11.9689L30.5212 10.1839Z" fill="white"/>
<path d="M26.7243 37.5734H15.4839C15.5227 35.7566 16.2242 34.27 17.6485 33.1771C19.5018 31.7552 21.5266 31.5577 23.636 32.5731C25.5327 33.4909 26.7795 35.5357 26.7243 37.5734Z" fill="#FFF500"/>
<path d="M21.1141 24.9263C21.8615 24.9291 22.5772 25.2284 23.1041 25.7586C23.6309 26.2887 23.9258 27.0063 23.9239 27.7537C23.9183 28.5013 23.6161 29.2161 23.0837 29.741C22.5513 30.2659 21.8323 30.5579 21.0847 30.5529C20.3449 30.5443 19.638 30.2453 19.1166 29.7203C18.5952 29.1954 18.3009 28.4866 18.2972 27.7467C18.2972 26.9992 18.5939 26.2824 19.1221 25.7536C19.6502 25.2248 20.3667 24.9272 21.1141 24.9263Z" fill="white"/>
<path d="M13.344 21.4067H10.9608C9.9936 21.4067 9.02645 21.4196 8.06047 21.3985C7.75023 21.3926 7.61273 21.4866 7.49169 21.7816C7.23577 22.4202 6.75118 22.9406 6.13241 23.2412C5.51364 23.5419 4.80506 23.6014 4.14484 23.408C2.80868 23.0272 1.91203 21.6359 2.13884 20.2927C2.38327 18.8272 3.62542 17.7978 5.08849 17.8977C6.2425 17.9776 7.06511 18.584 7.50932 19.651C7.62683 19.9342 7.76197 20.0165 8.05106 20.0036C8.63277 19.9812 9.21683 19.9965 9.83143 19.9965V18.6275H11.2416V19.9742H11.9467V18.6228H13.3369L13.344 21.4067ZM4.92279 19.2914C4.55224 19.2933 4.1973 19.4409 3.93472 19.7023C3.67215 19.9638 3.52304 20.3181 3.51965 20.6887C3.5211 21.058 3.66677 21.4121 3.9256 21.6756C4.18443 21.939 4.53594 22.0909 4.90516 22.0989C5.09217 22.1 5.27754 22.064 5.45059 21.9931C5.62364 21.9223 5.78095 21.8178 5.91346 21.6859C6.04597 21.5539 6.15105 21.397 6.22265 21.2243C6.29424 21.0515 6.33095 20.8663 6.33063 20.6793C6.32208 20.3109 6.17024 19.9603 5.90737 19.702C5.6445 19.4438 5.2913 19.2982 4.92279 19.2961V19.2914Z" fill="white"/>
<path d="M29.319 7.72198C29.319 9.77495 28.5051 11.7442 27.0556 13.198C25.6062 14.6519 23.6394 15.4718 21.5865 15.478C19.5335 15.4759 17.5651 14.6598 16.1128 13.2088C14.6605 11.7578 13.8427 9.79022 13.8386 7.73726C13.8435 5.6914 14.6566 3.73035 16.1007 2.28118C17.5448 0.832004 19.503 0.0120962 21.5488 1.29747e-05C23.6024 -0.00374063 25.5737 0.807083 27.0303 2.25466C28.4869 3.70225 29.31 5.66842 29.319 7.72198ZM27.9088 7.73256C27.9032 6.05767 27.2357 4.4529 26.0518 3.26813C24.868 2.08336 23.2637 1.41467 21.5888 1.40785C19.9058 1.40785 18.2917 2.07643 17.1016 3.26651C15.9115 4.45659 15.2429 6.07069 15.2429 7.75371C15.2485 9.4284 15.9158 11.033 17.0995 12.2177C18.2831 13.4025 19.8871 14.0713 21.5618 14.0784C22.3951 14.079 23.2204 13.9155 23.9906 13.5972C24.7607 13.2788 25.4606 12.8119 26.0503 12.2231C26.6401 11.6343 27.108 10.935 27.4275 10.1654C27.747 9.39568 27.9117 8.57061 27.9123 7.73726L27.9088 7.73256Z" fill="white"/>
<g clip-path="url(#clip1_844_188)">
<path d="M23.5551 9.00025C23.5938 8.96436 23.6335 8.93068 23.6711 8.89369C23.8119 8.75346 23.9543 8.61764 24.0918 8.47078C24.111 8.44935 24.1347 8.43252 24.1613 8.42153C24.1879 8.41054 24.2166 8.40567 24.2453 8.40728C24.5075 8.40728 24.7698 8.40728 25.0326 8.40728C25.1629 8.40728 25.201 8.36919 25.201 8.24165C25.201 7.61998 25.201 6.99831 25.201 6.37664C25.1997 6.32439 25.1829 6.27368 25.1529 6.23088C24.9282 5.92447 24.6986 5.62357 24.4727 5.31825C24.4549 5.2909 24.4303 5.26867 24.4012 5.25376C24.3722 5.23885 24.3397 5.23177 24.3071 5.23323C23.8892 5.23323 23.4718 5.23323 23.0538 5.23323C22.9202 5.23323 22.8832 5.27077 22.8832 5.40714V7.55594C22.743 7.55594 22.6072 7.5587 22.4752 7.55594C22.4526 7.55594 22.4283 7.52116 22.4106 7.50073L20.4435 4.87878C20.2778 4.65793 20.1122 4.44096 19.9466 4.22011C19.9291 4.19365 19.9049 4.17226 19.8765 4.15811C19.8481 4.14396 19.8165 4.13754 19.7848 4.13951C19.6501 4.14337 19.5148 4.13951 19.3801 4.13951C19.2311 4.13951 19.1819 4.22177 19.252 4.35262C19.7964 5.37254 20.341 6.39191 20.8857 7.41073L20.9658 7.56146H18.9114C18.7573 7.56146 18.7259 7.59293 18.7259 7.75028C18.7259 7.92364 18.7259 8.097 18.7259 8.26981C18.7259 8.37416 18.7706 8.41777 18.8755 8.41833C19.1941 8.41833 19.5126 8.41833 19.8312 8.41833C19.8721 8.42079 19.911 8.43693 19.9416 8.46415C20.1117 8.62978 20.2778 8.79542 20.4451 8.96546C20.4606 8.98092 20.4738 8.99804 20.5003 9.02675H20.4043C20.0576 9.02675 19.7114 9.02675 19.3647 9.02675C19.2325 9.0239 19.1012 9.04778 18.9785 9.09695C18.8558 9.14613 18.7443 9.21959 18.6507 9.31292C18.5571 9.40625 18.4834 9.51753 18.4339 9.64008C18.3843 9.76262 18.3601 9.89391 18.3626 10.0261C18.3626 10.2044 18.3543 10.3827 18.4117 10.5561C18.4735 10.7422 18.5898 10.9055 18.7456 11.0246C18.9013 11.1438 19.0893 11.2133 19.2852 11.2241C19.3133 11.2241 19.3404 11.2241 19.3691 11.2241C21.1417 11.2241 22.9145 11.2241 24.6875 11.2241C25.1778 11.2241 25.5681 10.9249 25.6675 10.4567C25.7241 10.2094 25.7169 9.95178 25.6465 9.70805C25.5234 9.29894 25.1496 9.03116 24.7079 9.0273C24.359 9.0273 24.0101 9.0273 23.6589 9.02454H23.575L23.5551 9.00025ZM22.0324 9.26691V9.26415C22.9265 9.26415 23.8202 9.26415 24.7135 9.26415C24.8869 9.26103 25.0556 9.32081 25.1884 9.43246C25.3211 9.54411 25.409 9.70006 25.4356 9.87147C25.451 9.99765 25.4556 10.1249 25.4494 10.2519C25.4499 10.3477 25.4313 10.4427 25.3949 10.5314C25.3585 10.6201 25.3049 10.7007 25.2372 10.7686C25.1696 10.8364 25.0891 10.8903 25.0006 10.927C24.912 10.9636 24.8171 10.9825 24.7212 10.9823C22.9213 10.9845 21.1211 10.9845 19.3205 10.9823C19.0224 10.9823 18.8032 10.8332 18.6685 10.5666C18.558 10.3529 18.5774 10.1216 18.6066 9.89908C18.6569 9.5126 18.9567 9.27078 19.3558 9.27023C20.2488 9.26728 21.141 9.26618 22.0324 9.26691ZM24.9586 8.15939H23.1322V5.48168H23.4917V5.57167C23.4917 5.89023 23.4917 6.2088 23.4917 6.52681C23.4917 6.66318 23.5281 6.70017 23.6623 6.70017H24.8692H24.9586V8.15939ZM20.2536 8.43213L20.2657 8.41667H23.7881C23.7841 8.42537 23.7793 8.43369 23.7738 8.44152C23.5905 8.62537 23.4077 8.80977 23.2217 8.99362C23.1963 9.01287 23.1651 9.02281 23.1333 9.02178C22.3924 9.02178 21.6517 9.02178 20.9111 9.02178C20.8723 9.01935 20.8355 9.00332 20.8073 8.97651C20.6571 8.83185 20.5108 8.68223 20.3629 8.53482C20.3281 8.49783 20.29 8.46526 20.253 8.43213H20.2536ZM19.5358 4.37194C19.5766 4.37421 19.6176 4.37421 19.6584 4.37194C19.6917 4.36544 19.7263 4.36994 19.7569 4.38478C19.7874 4.39962 19.8124 4.42398 19.8279 4.45421C19.8831 4.53978 19.946 4.61984 20.0073 4.70155L22.0871 7.47478C22.1037 7.49741 22.1197 7.5206 22.1423 7.55373C21.8596 7.55373 21.5952 7.55373 21.3307 7.55373C21.3037 7.55707 21.2764 7.55141 21.2529 7.53764C21.2295 7.52386 21.2112 7.50274 21.201 7.47754C20.7026 6.54742 20.2029 5.61768 19.702 4.6883C19.6484 4.58782 19.5954 4.48678 19.5314 4.37194H19.5358ZM22.8777 8.15829H18.976V7.80494H22.8777V8.15829ZM23.7456 6.45117V5.47284C23.9173 5.47284 24.0824 5.47284 24.2475 5.47284C24.2629 5.47524 24.2776 5.48068 24.2909 5.48883C24.3042 5.49698 24.3157 5.50769 24.3248 5.52032C24.5269 5.78533 24.7271 6.052 24.9255 6.32032C24.9476 6.36108 24.965 6.40424 24.9774 6.44897L23.7456 6.45117Z" fill="white"/>
<path d="M19.0985 6.51782L18.7756 6.19539C18.8397 6.12904 18.9077 6.06655 18.9793 6.00823C19.1758 5.86302 19.2393 5.67696 19.2183 5.43348C19.1963 5.17841 19.2117 4.92002 19.2106 4.66054C19.2106 4.64784 19.2106 4.63514 19.2106 4.62244C19.2099 4.59054 19.197 4.56013 19.1745 4.53752C19.1519 4.5149 19.1216 4.50182 19.0897 4.50098C19.0575 4.50213 19.0271 4.51583 19.0049 4.53916C18.9827 4.56248 18.9705 4.59356 18.971 4.62575C18.971 4.64618 18.971 4.66661 18.971 4.68704C18.971 4.99235 18.971 5.29767 18.9655 5.60298C18.9628 5.64394 18.9465 5.68282 18.9191 5.7134C18.7954 5.8448 18.6668 5.97179 18.5404 6.09988C18.4636 6.17772 18.4592 6.23017 18.5354 6.30912C18.6872 6.46703 18.8418 6.62217 18.9975 6.77565C19.0087 6.78999 19.0229 6.80159 19.0392 6.80957C19.0556 6.81754 19.0735 6.82169 19.0916 6.82169C19.1098 6.82169 19.1277 6.81754 19.144 6.80957C19.1603 6.80159 19.1746 6.78999 19.1858 6.77565C19.3437 6.62033 19.5001 6.46371 19.6551 6.30581C19.6688 6.29519 19.6801 6.28174 19.6882 6.26636C19.6962 6.25099 19.7009 6.23405 19.7018 6.21671C19.7028 6.19937 19.7 6.18203 19.6936 6.16587C19.6873 6.14971 19.6775 6.13511 19.665 6.12306C19.6529 6.11061 19.6384 6.10088 19.6222 6.09453C19.6061 6.08817 19.5888 6.08535 19.5715 6.08624C19.5542 6.08713 19.5373 6.09171 19.5219 6.09968C19.5065 6.10765 19.493 6.11882 19.4822 6.13245C19.3525 6.25943 19.2266 6.38863 19.0985 6.51782Z" fill="white"/>
<path d="M21.2269 9.57153C21.0811 9.57255 20.9417 9.63117 20.839 9.7346C20.7363 9.83803 20.6786 9.97788 20.6786 10.1236C20.6808 10.269 20.7398 10.4078 20.843 10.5103C20.9462 10.6127 21.0853 10.6707 21.2307 10.6719C21.3762 10.6697 21.515 10.6108 21.6176 10.5076C21.7201 10.4044 21.7783 10.2652 21.7795 10.1198C21.7785 9.97392 21.7198 9.8344 21.6163 9.73168C21.5127 9.62896 21.3727 9.57138 21.2269 9.57153ZM21.2269 10.4301C21.1867 10.4303 21.1468 10.4225 21.1097 10.4071C21.0725 10.3918 21.0388 10.3692 21.0105 10.3407C20.9822 10.3121 20.9598 10.2783 20.9447 10.241C20.9297 10.2037 20.9222 10.1638 20.9227 10.1236C20.9228 10.0426 20.955 9.96492 21.0122 9.90752C21.0694 9.85012 21.147 9.81766 21.228 9.81722C21.3091 9.8178 21.3866 9.8505 21.4436 9.90814C21.5006 9.96578 21.5325 10.0437 21.5322 10.1247C21.5324 10.1648 21.5247 10.2044 21.5096 10.2415C21.4944 10.2785 21.4721 10.3122 21.4438 10.3405C21.4156 10.3689 21.3821 10.3914 21.3451 10.4068C21.3082 10.4222 21.2686 10.4301 21.2285 10.4301H21.2269Z" fill="white"/>
<path d="M22.8213 9.57153C22.6761 9.57152 22.5368 9.6287 22.4335 9.7307C22.3301 9.83269 22.2711 9.97128 22.2692 10.1165C22.2705 10.2615 22.3283 10.4004 22.4304 10.5035C22.5325 10.6066 22.6708 10.6658 22.8158 10.6686C22.9612 10.6686 23.1007 10.6112 23.2041 10.509C23.3074 10.4068 23.3663 10.2679 23.3679 10.1225C23.3676 9.97725 23.3101 9.83793 23.2078 9.73479C23.1055 9.63164 22.9666 9.57299 22.8213 9.57153ZM22.8213 10.4301C22.7417 10.4306 22.6649 10.4002 22.6072 10.3453C22.5494 10.2905 22.5152 10.2154 22.5116 10.1358C22.51 10.0534 22.541 9.97365 22.5978 9.91398C22.6547 9.85431 22.7329 9.81953 22.8153 9.81722C22.8555 9.81612 22.8955 9.82301 22.933 9.83751C22.9705 9.852 23.0048 9.87379 23.0338 9.90163C23.0628 9.92947 23.086 9.9628 23.102 9.99968C23.1181 10.0366 23.1266 10.0763 23.1272 10.1165C23.1281 10.1573 23.1208 10.1979 23.1058 10.2358C23.0908 10.2738 23.0684 10.3084 23.0399 10.3376C23.0113 10.3668 22.9773 10.39 22.9396 10.4059C22.902 10.4218 22.8616 10.43 22.8208 10.4301H22.8213Z" fill="white"/>
<path d="M20.1866 10.1054C20.1834 9.96113 20.1233 9.82401 20.0193 9.72397C19.9153 9.62394 19.776 9.56912 19.6318 9.57148C19.486 9.57524 19.3475 9.63606 19.2461 9.74086C19.1447 9.84566 19.0885 9.98606 19.0896 10.1319C19.0932 10.2759 19.1529 10.4128 19.2561 10.5134C19.3592 10.614 19.4976 10.6702 19.6417 10.6702C19.7147 10.6692 19.7867 10.6539 19.8537 10.6249C19.9207 10.5959 19.9813 10.554 20.032 10.5015C20.0827 10.4489 20.1224 10.3869 20.149 10.3189C20.1755 10.2509 20.1883 10.1783 20.1866 10.1054ZM19.332 10.1236C19.3314 10.0426 19.3628 9.96457 19.4195 9.90665C19.4762 9.84873 19.5535 9.81558 19.6345 9.81441C19.6753 9.8136 19.7158 9.82093 19.7536 9.83597C19.7915 9.85101 19.826 9.87345 19.8551 9.90198C19.8842 9.93052 19.9073 9.96457 19.9231 10.0021C19.9389 10.0397 19.947 10.0801 19.947 10.1208C19.9473 10.1612 19.9396 10.2012 19.9244 10.2386C19.9092 10.276 19.8868 10.31 19.8585 10.3387C19.8301 10.3675 19.7964 10.3903 19.7592 10.406C19.722 10.4216 19.6821 10.4298 19.6417 10.43C19.6012 10.4304 19.561 10.4227 19.5235 10.4075C19.486 10.3923 19.4518 10.3698 19.423 10.3413C19.3942 10.3128 19.3714 10.2789 19.3557 10.2415C19.3401 10.2042 19.332 10.1641 19.332 10.1236Z" fill="white"/>
<path d="M24.402 9.57422C24.2564 9.57712 24.1179 9.6374 24.0165 9.74194C23.9152 9.84648 23.8593 9.98682 23.8609 10.1324C23.8646 10.2763 23.9245 10.4131 24.0276 10.5135C24.1307 10.614 24.269 10.6702 24.413 10.6701C24.5586 10.6672 24.6971 10.607 24.7984 10.5024C24.8998 10.3979 24.9557 10.2576 24.9541 10.112C24.9503 9.96804 24.8905 9.83127 24.7874 9.73082C24.6842 9.63036 24.5459 9.57417 24.402 9.57422ZM24.4086 10.43C24.3276 10.4303 24.2497 10.3985 24.192 10.3416C24.1343 10.2848 24.1014 10.2074 24.1005 10.1263C24.0998 10.0855 24.1072 10.045 24.1223 10.0071C24.1375 9.96922 24.16 9.93474 24.1887 9.90568C24.2173 9.87663 24.2515 9.85358 24.2891 9.83791C24.3268 9.82223 24.3672 9.81423 24.408 9.81439C24.4891 9.81409 24.5669 9.84585 24.6246 9.90273C24.6824 9.95962 24.7152 10.037 24.7161 10.118C24.7168 10.1588 24.7093 10.1993 24.6941 10.2372C24.679 10.275 24.6564 10.3095 24.6278 10.3385C24.5992 10.3676 24.565 10.3906 24.5274 10.4063C24.4898 10.422 24.4494 10.4301 24.4086 10.43Z" fill="white"/>
</g>
</g>
<defs>
<clipPath id="clip0_844_188">
<rect width="42.2223" height="39" fill="white"/>
</clipPath>
<clipPath id="clip1_844_188">
<rect width="7.34301" height="7.09014" fill="white" transform="matrix(-1 0 0 1 25.7006 4.13049)"/>
</clipPath>
</defs>
</svg>
