<svg width="45" height="45" viewBox="0 0 45 45" fill="none" xmlns="http://www.w3.org/2000/svg">
<g clip-path="url(#clip0_844_104)">
<path d="M0 43.8578C1.4028 41.2918 2.62365 38.6304 3.65353 35.8933C5.5822 30.7829 6.87127 25.4535 7.49139 20.0265C7.93165 16.218 7.91873 12.3954 7.90112 8.57398C7.90112 7.67821 8.05022 6.82352 8.47169 6.03224C8.78439 5.42455 9.21671 4.88634 9.74267 4.44995C10.2686 4.01357 10.8774 3.68801 11.5323 3.49284C11.7038 3.43884 11.9221 3.31322 11.9843 3.16412C13.419 -0.260484 17.946 -1.168 20.537 1.7553C20.5735 1.78872 20.6128 1.81896 20.6544 1.8457C21.3776 1.31739 22.1807 0.986321 23.0882 0.973406C24.5534 0.9511 25.7356 1.53928 26.5879 2.72738C26.7863 3.00563 26.9812 3.1019 27.3017 3.07959C28.1494 3.02324 28.9289 3.2146 29.6051 3.75582C30.0945 4.1471 30.4526 4.6787 30.6311 5.2793C30.8097 5.8799 30.8003 6.52075 30.6042 7.11585C30.4132 7.71297 30.0423 8.23649 29.5424 8.61476C29.0424 8.99304 28.4378 9.2076 27.8112 9.22908C27.0787 9.25021 26.3461 9.24434 25.6135 9.23612C25.0324 9.22908 24.6743 8.88392 24.6743 8.36031C24.6743 7.8367 25.0453 7.49389 25.6229 7.48449C26.2815 7.47393 26.9413 7.48449 27.5999 7.48449C28.4217 7.47393 29.0087 6.92214 29.0087 6.17077C29.0087 5.4194 28.4112 4.84648 27.5706 4.83944C27.2184 4.83944 26.8662 4.823 26.514 4.83944C25.9633 4.86996 25.617 4.64925 25.3834 4.13503C24.8833 3.02911 23.7069 2.46206 22.5845 2.84361C22.11 3.02295 21.685 3.3127 21.3448 3.6889C20.7026 4.37688 20.0909 4.36161 19.6413 3.54802C18.9627 2.32235 17.6842 1.63203 16.3634 1.77761C15.6954 1.84458 15.0637 2.11347 14.5524 2.54847C14.041 2.98346 13.6744 3.56391 13.5012 4.21251C13.3497 4.75256 13.0421 5.01554 12.4962 5.09185C11.7186 5.19213 11.0034 5.57028 10.4828 6.15654C9.9621 6.74281 9.67105 7.4976 9.66332 8.28165C9.6504 8.95553 9.66332 9.62825 9.66332 10.3702H22.6221C23.6658 10.3702 23.9135 10.6121 23.9018 11.6734C23.8219 17.1104 24.417 22.5362 25.6734 27.8267C25.7059 27.9994 25.7774 28.1624 25.8823 28.3033C25.927 28.0485 25.9786 27.7961 26.0162 27.5414C26.3948 24.8724 26.5698 22.1785 26.5398 19.4829C26.5398 18.7421 26.8368 18.4263 27.5706 18.4263C31.0417 18.4216 34.5137 18.4216 37.9864 18.4263C38.7449 18.4263 39.043 18.7363 39.036 19.5076C38.9553 25.0949 39.8121 30.6563 41.5707 35.9602C42.4404 38.5387 43.5117 41.0448 44.7746 43.4551C45.1655 44.2089 45.0822 44.5294 44.393 44.9966H0V43.8578ZM2.33277 43.2145H29.4678C24.5369 33.4271 22.0957 23.0739 22.1443 12.1547H9.67858V14.6765H10.1905C12.11 14.6765 14.0295 14.6765 15.9431 14.6765C16.6475 14.6765 17.069 15.2224 16.8718 15.8317C16.7473 16.218 16.4139 16.4293 15.902 16.4305C14.1019 16.4305 12.3017 16.4305 10.5016 16.4305H9.56236C9.03563 25.7632 6.57363 34.8843 2.33277 43.2145ZM42.6919 43.2426C39.6048 37.0757 37.795 30.3487 37.3713 23.4652H28.2139C28.1905 23.6789 28.1611 23.8667 28.1494 24.0522C27.9623 26.7084 27.5698 29.346 26.9753 31.9416C26.9293 32.1514 26.9369 32.3695 26.9977 32.5755C28.1269 36.1293 29.5557 39.5807 31.2687 42.8928C31.4166 43.1792 31.5857 43.245 31.878 43.245C34.0453 43.2356 36.2125 43.245 38.3797 43.245L42.6919 43.2426ZM37.2632 20.2179H28.3137V21.6549H37.2632V20.2179Z" fill="white"/>
<path d="M31.8969 12.6547C31.8853 13.273 31.6539 13.8669 31.2441 14.33C30.879 14.7468 30.8755 14.9781 31.1889 15.4183C31.5247 15.8879 31.486 16.3881 31.088 16.7097C30.69 17.0314 30.191 16.9445 29.8083 16.509C29.426 16.0686 29.2136 15.5062 29.2093 14.9231C29.205 14.34 29.4091 13.7745 29.7848 13.3286C30.2415 12.778 30.2462 12.6723 29.8459 12.0665C29.7159 11.887 29.6589 11.6649 29.6863 11.4451C29.7138 11.2252 29.8237 11.0239 29.9938 10.8819C30.1646 10.7396 30.3833 10.6679 30.6052 10.6814C30.8271 10.695 31.0355 10.7927 31.1878 10.9547C31.6332 11.4096 31.887 12.0181 31.8969 12.6547Z" fill="white"/>
<path d="M36.3686 12.6852C36.353 13.2751 36.1359 13.8419 35.7534 14.2913C35.3449 14.7714 35.339 14.9522 35.6865 15.4465C35.9976 15.8914 35.9507 16.3857 35.5691 16.6992C35.1875 17.0126 34.6886 16.941 34.3164 16.543C33.9194 16.1054 33.6944 15.5388 33.683 14.948C33.6715 14.3573 33.8744 13.7824 34.2542 13.3297C34.7144 12.7697 34.7238 12.6664 34.3235 12.0688C34.1913 11.8906 34.1319 11.6687 34.1574 11.4482C34.183 11.2278 34.2914 11.0253 34.4608 10.8819C34.6302 10.738 34.8482 10.6643 35.0702 10.6759C35.2921 10.6874 35.5013 10.7834 35.6548 10.9441C35.8826 11.173 36.0629 11.4447 36.1854 11.7435C36.3079 12.0422 36.3702 12.3623 36.3686 12.6852Z" fill="white"/>
<path d="M2.33276 43.2143C6.57096 34.8851 9.03094 25.7657 9.55648 16.435H10.4957C12.2959 16.435 14.096 16.435 15.8962 16.435C16.408 16.435 16.7414 16.2225 16.8659 15.8363C17.0631 15.2269 16.6311 14.6834 15.9373 14.681C14.0189 14.674 12.0994 14.681 10.1846 14.681H9.67271V12.1545H22.1325C22.0918 23.0893 24.5369 33.4426 29.4678 43.2143H2.33276ZM11.1203 32.2173H9.14323C8.37894 32.2325 8.05609 32.5401 8.08661 33.2915C8.20401 36.0821 9.45317 38.2365 11.7988 39.7486C12.4504 40.1689 12.8954 40.048 13.2875 39.3741C13.9414 38.2482 14.5895 37.12 15.2411 35.9917C15.5698 35.4235 16.2237 35.4165 16.5466 35.9753C17.2134 37.1282 17.8767 38.2834 18.5424 39.4328C18.8946 40.0327 19.3642 40.1548 19.9418 39.785C22.2898 38.3022 23.5366 36.1608 23.7128 33.3995C23.7668 32.5413 23.4439 32.2255 22.5857 32.2185C21.2532 32.2185 19.9195 32.2185 18.587 32.2185C18.1374 32.2185 17.7828 31.5904 18.007 31.2006C18.6704 30.0465 19.3395 28.8948 20.0029 27.7408C20.4149 27.0246 20.2975 26.5667 19.572 26.1981C17.116 24.9552 14.6584 24.9587 12.1992 26.2087C11.4866 26.5714 11.3703 27.0176 11.773 27.7185C12.4434 28.8854 13.1208 30.0489 13.7911 31.2159C14.0013 31.5821 13.6432 32.2149 13.2229 32.2185C12.5267 32.222 11.8235 32.2173 11.1203 32.2173ZM20.5124 15.5698C20.5178 15.3402 20.4322 15.1178 20.2743 14.9511C20.1164 14.7844 19.899 14.6869 19.6694 14.6798C19.4403 14.6744 19.2181 14.7595 19.0512 14.9166C18.8842 15.0737 18.7858 15.2902 18.7772 15.5193C18.772 15.6366 18.7905 15.7537 18.8315 15.8637C18.8725 15.9737 18.9353 16.0743 19.016 16.1596C19.0967 16.2448 19.1938 16.3129 19.3015 16.3598C19.4091 16.4067 19.525 16.4315 19.6424 16.4327C19.8723 16.433 20.0929 16.3425 20.2563 16.1808C20.4197 16.0192 20.5126 15.7996 20.5147 15.5698H20.5124Z" fill="#FFF500"/>
<path d="M42.6919 43.239H38.3903C36.223 43.239 34.0558 43.239 31.8886 43.239C31.5962 43.239 31.4272 43.1733 31.2793 42.8868C29.5647 39.5776 28.1339 36.1289 27.0023 32.5778C26.9416 32.3717 26.9339 32.1536 26.98 31.9438C27.5745 29.3483 27.967 26.7106 28.154 24.0544C28.1658 23.8666 28.1951 23.6787 28.2186 23.4674H37.3759C37.799 30.3486 39.6071 37.0735 42.6919 43.239Z" fill="white"/>
<path d="M37.2632 20.2178V21.6548H28.3137V20.2178H37.2632Z" fill="white"/>
<path d="M11.1203 32.2173C11.8247 32.2173 12.5291 32.2173 13.2335 32.2173C13.6538 32.2173 14.0119 31.581 13.8018 31.2147C13.1314 30.0477 12.454 28.8842 11.7836 27.7173C11.3809 27.0129 11.4972 26.5703 12.2098 26.2075C14.6635 24.9552 17.1211 24.9517 19.5826 26.1969C20.3081 26.5632 20.4255 27.0187 20.0135 27.7396C19.3501 28.8936 18.681 30.0453 18.0176 31.1994C17.7934 31.5892 18.148 32.2161 18.5976 32.2173C19.9301 32.2173 21.2638 32.2173 22.5963 32.2173C23.4545 32.2173 23.7774 32.5401 23.7234 33.3983C23.5473 36.1596 22.2981 38.301 19.9524 39.7838C19.3654 40.1536 18.904 40.0315 18.553 39.4316C17.8815 38.2822 17.2181 37.127 16.5572 35.9741C16.2343 35.4153 15.5804 35.4223 15.2517 35.9906C14.6001 37.1188 13.952 38.247 13.2981 39.3729C12.906 40.0468 12.461 40.1677 11.8095 39.7474C9.46142 38.2353 8.21813 36.081 8.09721 33.2903C8.06551 32.5389 8.38837 32.2337 9.15382 32.2161H11.1309L11.1203 32.2173ZM13.6644 27.4566C14.2514 28.4722 14.8102 29.4607 15.3902 30.4398C15.5428 30.6957 16.2918 30.6453 16.4468 30.3811C16.738 29.8915 17.0197 29.3961 17.3038 28.9019C17.5774 28.4322 17.8486 27.9532 18.135 27.4543C16.6194 26.9002 15.1683 26.8955 13.6644 27.4566ZM9.9005 33.9771C10.1764 35.5855 10.9008 36.8323 12.1382 37.8514C12.7322 36.8218 13.3122 35.8415 13.8651 34.8529C13.9825 34.6404 13.5916 33.9842 13.3439 33.9818C12.2215 33.9712 11.098 33.9771 9.9005 33.9771ZM21.906 33.9771C20.7108 33.9771 19.5744 33.9701 18.4391 33.9771C18.2043 33.9771 17.8263 34.6545 17.9402 34.8541C18.5002 35.8391 19.0719 36.8194 19.6636 37.8408C20.9057 36.8394 21.6183 35.5832 21.906 33.9783V33.9771ZM15.9079 32.3335C15.7086 32.3321 15.5164 32.4082 15.3721 32.5458C15.2277 32.6833 15.1425 32.8716 15.1343 33.0708C15.1335 33.1731 15.1532 33.2745 15.1922 33.3691C15.2313 33.4636 15.2889 33.5494 15.3617 33.6213C15.4345 33.6932 15.521 33.7498 15.616 33.7877C15.711 33.8257 15.8127 33.8442 15.915 33.8421C16.1145 33.8396 16.305 33.7586 16.4452 33.6167C16.5854 33.4747 16.664 33.2832 16.664 33.0837C16.6603 32.8854 16.5791 32.6965 16.4378 32.5573C16.2965 32.4182 16.1063 32.3399 15.9079 32.3394V32.3335Z" fill="white"/>
<path d="M20.5147 15.5698C20.5125 15.7992 20.42 16.0185 20.2571 16.1801C20.0942 16.3416 19.8742 16.4324 19.6447 16.4327C19.5277 16.431 19.4123 16.4057 19.3052 16.3585C19.1981 16.3113 19.1016 16.2431 19.0214 16.158C18.9411 16.0728 18.8788 15.9724 18.838 15.8627C18.7973 15.753 18.779 15.6363 18.7842 15.5194C18.7928 15.2903 18.8912 15.0737 19.0582 14.9167C19.2251 14.7596 19.4472 14.6745 19.6764 14.6799C19.9051 14.6882 20.1213 14.7862 20.2782 14.9528C20.4351 15.1194 20.5201 15.3411 20.5147 15.5698Z" fill="white"/>
<path d="M13.6643 27.4567C15.1682 26.8955 16.6193 26.9002 18.1385 27.4567C17.852 27.9557 17.5808 28.43 17.3073 28.9043C17.0232 29.3985 16.7414 29.894 16.4502 30.3835C16.2918 30.6477 15.5427 30.6982 15.3936 30.4422C14.8101 29.4608 14.249 28.4722 13.6643 27.4567Z" fill="white"/>
<path d="M9.90051 33.9772C11.098 33.9772 12.2215 33.9713 13.3439 33.9772C13.5916 33.9772 13.9849 34.6358 13.8652 34.8483C13.3063 35.8369 12.7322 36.8172 12.1382 37.8468C10.9008 36.8324 10.1764 35.5856 9.90051 33.9772Z" fill="white"/>
<path d="M21.906 33.9783C21.6184 35.5832 20.9057 36.8394 19.6636 37.8467C19.0766 36.8253 18.5002 35.8508 17.9402 34.86C17.8228 34.6604 18.2032 33.9865 18.4391 33.983C19.5744 33.9712 20.7109 33.9783 21.906 33.9783Z" fill="white"/>
<path d="M15.9079 32.3394C16.1072 32.34 16.2983 32.419 16.4397 32.5594C16.5812 32.6998 16.6618 32.8903 16.6639 33.0896C16.6639 33.2891 16.5853 33.4806 16.4451 33.6226C16.3049 33.7645 16.1144 33.8455 15.9149 33.848C15.8126 33.85 15.7109 33.8315 15.6159 33.7936C15.5209 33.7557 15.4344 33.6991 15.3616 33.6272C15.2889 33.5553 15.2312 33.4695 15.1922 33.375C15.1531 33.2804 15.1334 33.179 15.1342 33.0767C15.1424 32.8774 15.2277 32.6892 15.372 32.5516C15.5164 32.4141 15.7085 32.338 15.9079 32.3394Z" fill="white"/>
</g>
<defs>
<clipPath id="clip0_844_104">
<rect width="45.0082" height="45" fill="white"/>
</clipPath>
</defs>
</svg>
