<svg width="36" height="36" viewBox="0 0 36 36" fill="none" xmlns="http://www.w3.org/2000/svg">
<g clip-path="url(#clip0_1018_8489)">
<path d="M33.028 19.0356L27.2662 21.2811C27.1011 18.9178 27.1011 18.9178 31.6559 18.3283V14.9602C26.0364 13.5624 25.1482 11.592 28.4618 6.97764L25.7574 4.35047C23.8672 7.15727 21.7719 7.15727 19.5401 5.60231C19.0846 5.28233 18.5039 4.63677 18.5494 4.19891C18.8682 1.13389 16.9894 1.12266 14.6722 1.45947C13.8409 2.91339 14.86 5.09147 12.2296 6.16928C9.73019 7.19095 8.58582 6.00087 6.91762 4.62554L4.49219 7.65127C4.86226 8.83012 7.21367 9.54867 6.0465 12.0467C5.03875 14.1967 3.7691 14.73 1.4917 14.5784V18.3171C3.13712 18.7381 5.03302 18.4294 6.00661 20.9162C6.9802 23.403 5.29496 24.2844 4.05378 26.1088L6.79801 28.3879C11.3528 25.1994 13.6302 26.0639 14.6266 31.408H17.9003C19.2326 27.3494 19.2326 27.3494 20.7471 27.4055C20.4241 28.7067 20.0094 29.9841 19.5059 31.2284C19.1928 31.8964 18.3672 32.8058 17.7979 32.7833C16.2322 32.716 13.7782 32.716 13.2772 31.8122C10.7607 27.3213 10.9429 27.2427 6.77529 30.1281L2.69302 25.9291C2.73574 25.6901 2.82048 25.4602 2.9435 25.2499C5.84149 21.7358 5.56826 20.9499 1.29244 19.6868C0.929773 19.4976 0.620306 19.2227 0.391783 18.8867C0.16326 18.5506 0.0227797 18.164 -0.0170898 17.7614C0.0569257 16.3187 0.136635 14.0171 0.979273 13.6129C5.83013 11.2945 5.90418 11.4461 2.35712 7.045L7.13391 3.11548C7.70326 3.58141 8.38649 4.20452 9.13803 4.7322C10.5329 5.72019 12.9072 4.99604 12.7933 3.44668C12.5143 -0.286357 14.8657 -0.0393587 17.3196 0.0785268L19.2896 0.190801C19.3087 0.993544 19.4272 1.79097 19.6426 2.56535C19.9899 3.41862 20.451 4.51327 21.1684 4.81079C21.8858 5.10831 23.332 4.92868 23.8216 4.39538C25.9623 2.02645 26.9758 4.08664 28.3422 5.24304C29.7086 6.39944 30.352 7.48848 28.6554 9.08835C28.3245 9.37085 28.0772 9.73638 27.9399 10.1462C27.8026 10.556 27.7804 10.9948 27.8756 11.416C27.9707 11.8373 28.1797 12.2253 28.4804 12.5389C28.781 12.8526 29.1622 13.0801 29.5834 13.1975C30.7221 13.5006 32.7091 13.5512 32.8572 14.0957C33.3127 15.7461 33.028 17.5649 33.028 19.0356Z" fill="white"/>
<path d="M13.004 16.6668L17.7466 20.9781L20.1322 17.8288L16.1923 13.5962C18.2989 12.2209 20.2518 12.4735 22.1307 13.439C24.4992 14.6347 26.1161 16.6444 25.7745 19.2659C25.4841 21.6854 26.5545 23.0719 28.1202 24.5315C30.4603 26.7039 32.675 29.0224 34.9524 31.2285C36.279 32.5196 36.3872 33.6985 34.9524 35.0345C33.5177 36.3706 32.3619 36.3313 31.0353 35.0345C28.4448 32.4466 25.9111 29.8083 23.1555 27.3832C22.2238 26.6163 21.0305 26.2288 19.8191 26.2998C15.6287 26.7601 10.2198 22.1625 13.004 16.6668ZM13.4139 18.9123C14.1085 23.4761 16.2606 25.3623 19.9728 24.7111C21.7492 24.3911 22.8196 24.9244 23.8899 26.0977C26.7367 29.1627 29.6859 32.1772 32.4302 35.0794C34.8101 33.8669 34.9296 32.9013 33.4949 31.5541C30.8986 29.1066 28.422 26.5355 25.8428 24.0655C24.7041 22.9428 24.1347 21.9885 24.5105 20.1865C24.6844 19.4065 24.6595 18.596 24.4381 17.8277C24.2166 17.0595 23.8055 16.3573 23.2415 15.7839C22.6775 15.2106 21.9782 14.784 21.2061 14.5423C20.434 14.3006 19.6131 14.2514 18.817 14.3989C19.8646 16.1841 22.8025 17.2899 20.1664 20.1978C17.3025 23.347 15.6742 20.9332 13.4082 18.9291L13.4139 18.9123Z" fill="white"/>
<path d="M21.1343 11.6032C18.0086 10.43 14.8714 9.54866 12.1385 12.0916C9.40565 14.6346 10.0092 17.7052 11.0397 20.8601C8.76232 19.176 8.54025 16.9811 9.16084 14.6851C9.49019 13.2569 10.2646 11.966 11.3755 10.9936C12.4864 10.0211 13.878 9.41574 15.3554 9.26236C17.5588 8.91432 19.7792 9.2792 21.1343 11.6032Z" fill="white"/>
</g>
<defs>
<clipPath id="clip0_1018_8489">
<rect width="36" height="36" fill="white"/>
</clipPath>
</defs>
</svg>
