<svg width="44" height="42" viewBox="0 0 44 42" fill="none" xmlns="http://www.w3.org/2000/svg">
<rect x="1.33838" y="29.4447" width="41.4903" height="11.3764" rx="5.68819" fill="#FFF500"/>
<g clip-path="url(#clip0_844_178)">
<path d="M12.7092 28.846C12.4803 28.6334 12.2448 28.4339 12.0224 28.2148C11.1884 27.3841 10.3446 26.5795 9.53028 25.7096C9.41667 25.5827 9.27595 25.483 9.11856 25.4179C8.96117 25.3527 8.79113 25.3239 8.62107 25.3335C7.06758 25.3335 5.51408 25.3335 3.95731 25.3335C3.18547 25.3335 2.95981 25.1078 2.95981 24.3523C2.95981 20.6697 2.95981 16.9871 2.95981 13.3045C2.96761 12.995 3.06659 12.6946 3.24434 12.4411C4.57544 10.6259 5.93598 8.8435 7.27362 7.03491C7.37924 6.87287 7.52529 6.74119 7.69736 6.65286C7.86943 6.56454 8.06156 6.52262 8.25478 6.53125C10.7306 6.53125 13.2031 6.53125 15.6789 6.53125C16.4703 6.53125 16.6894 6.75364 16.6894 7.56146V20.2903C17.5202 20.2903 18.3247 20.3067 19.1064 20.2903C19.2404 20.2903 19.3844 20.0843 19.489 19.9633L31.1419 4.43157C32.123 3.12336 33.1042 1.83805 34.0853 0.52984C34.189 0.373061 34.3322 0.246377 34.5004 0.162548C34.6686 0.0787197 34.856 0.0407075 35.0436 0.052345C35.8416 0.0752386 36.6429 0.052345 37.4409 0.052345C38.3239 0.052345 38.615 0.539653 38.1996 1.31477C34.9749 7.3565 31.7491 13.395 28.5222 19.4302L28.048 20.323H40.2176C41.13 20.323 41.3164 20.5094 41.3164 21.4415C41.3164 22.4685 41.3164 23.4954 41.3164 24.5191C41.3164 25.1372 41.0515 25.3956 40.4301 25.3989C38.5431 25.3989 36.656 25.3989 34.7689 25.3989C34.5266 25.4135 34.2962 25.5091 34.1148 25.6703C33.1075 26.6515 32.123 27.6326 31.1321 28.64C31.0405 28.7315 30.962 28.8329 30.805 29.003H31.3741C33.428 29.003 35.4786 29.003 37.5325 29.003C38.3152 28.9861 39.0933 29.1276 39.8201 29.4189C40.5468 29.7102 41.2072 30.1453 41.7616 30.6982C42.316 31.251 42.753 31.9102 43.0463 32.6362C43.3396 33.3621 43.4832 34.1398 43.4685 34.9226C43.4685 35.979 43.5175 37.0354 43.1774 38.0623C42.8116 39.1649 42.1226 40.132 41.1998 40.8378C40.2771 41.5435 39.1633 41.9553 38.0034 42.0196C37.8366 42.0196 37.6764 42.0196 37.5063 42.0196C27.0058 42.0196 16.5041 42.0196 6.00139 42.0196C3.09717 42.0196 0.784909 40.247 0.196215 37.4736C-0.138997 36.0087 -0.0962295 34.4826 0.320497 33.0388C1.04982 30.6153 3.26396 29.0291 5.88038 29.0062C7.94735 29.0062 10.0143 29.0062 12.0944 28.9899H12.5915L12.7092 28.846ZM21.7293 30.4257V30.4093C16.4333 30.4093 11.1394 30.4093 5.84768 30.4093C4.82028 30.3908 3.82093 30.745 3.03449 31.4063C2.24806 32.0677 1.72776 32.9915 1.56984 34.0069C1.47865 34.7543 1.45129 35.5082 1.48807 36.2603C1.48549 36.8281 1.5952 37.3908 1.81091 37.9161C2.02663 38.4414 2.34407 38.9188 2.74499 39.321C3.14591 39.7231 3.62239 40.042 4.14701 40.2593C4.67163 40.4766 5.23404 40.588 5.80189 40.5872C16.4638 40.6002 27.1279 40.6002 37.7941 40.5872C39.5602 40.5872 40.8586 39.7041 41.6566 38.1245C42.3107 36.8588 42.1962 35.4884 42.0229 34.1704C41.7253 31.881 39.9494 30.4486 37.5848 30.4453C32.2953 30.4278 27.0101 30.4213 21.7293 30.4257ZM4.39557 23.865H15.2144V8.00298H13.0853V8.53607C13.0853 10.4232 13.0853 12.3103 13.0853 14.1941C13.0853 15.0019 12.8695 15.221 12.0747 15.221H4.92539H4.39557V23.865ZM32.2669 25.4806L32.195 25.3891H11.3291C11.3529 25.4406 11.3813 25.4899 11.4141 25.5362C12.4999 26.6253 13.5825 27.7177 14.6846 28.8067C14.8347 28.9208 15.0195 28.9797 15.2079 28.9735C19.5969 28.9735 23.9849 28.9735 28.3717 28.9735C28.6018 28.9592 28.8195 28.8642 28.9866 28.7054C29.8762 27.8485 30.7429 26.9622 31.6194 26.0889C31.8254 25.8698 32.0511 25.6769 32.2702 25.4806H32.2669ZM36.5186 1.42923C36.2768 1.44268 36.0344 1.44268 35.7925 1.42923C35.595 1.3907 35.3903 1.41738 35.2092 1.50527C35.0281 1.59316 34.8805 1.73749 34.7885 1.91654C34.4614 2.42347 34.0886 2.8977 33.7256 3.38173L21.4055 19.8096C21.3074 19.9436 21.2126 20.081 21.0785 20.2772C22.753 20.2772 24.3196 20.2772 25.8861 20.2772C26.0461 20.297 26.208 20.2635 26.347 20.1819C26.4859 20.1003 26.5941 19.9752 26.6547 19.8259C29.6069 14.3162 32.5667 8.80862 35.5342 3.30324C35.8514 2.70801 36.1654 2.1095 36.5448 1.42923H36.5186ZM16.7222 23.8585H39.8349V21.7653H16.7222V23.8585ZM11.5809 13.746V7.95065C10.5638 7.95065 9.58587 7.95065 8.60799 7.95065C8.51685 7.96488 8.42944 7.99707 8.35084 8.04535C8.27224 8.09364 8.20401 8.15705 8.15012 8.23191C6.95311 9.80176 5.767 11.3814 4.59179 12.9709C4.46055 13.2123 4.3574 13.468 4.28436 13.7329L11.5809 13.746Z" fill="white"/>
<path d="M39.1088 14.1417L41.0221 12.2317C40.642 11.8387 40.239 11.4684 39.8153 11.123C38.651 10.2628 38.2749 9.16066 38.3991 7.71836C38.53 6.20738 38.4384 4.67678 38.4449 3.13964C38.4449 3.06442 38.4449 2.98919 38.4449 2.91397C38.4491 2.725 38.5257 2.54487 38.6591 2.41092C38.7924 2.27696 38.9722 2.19945 39.1612 2.19446C39.3517 2.20128 39.5321 2.28247 39.6635 2.42063C39.7949 2.55878 39.867 2.74292 39.8643 2.9336C39.8643 3.05461 39.8643 3.17561 39.8643 3.29662C39.8643 5.10522 39.8643 6.91382 39.897 8.72241C39.9128 8.96506 40.0095 9.19539 40.1718 9.37652C40.9044 10.1549 41.6664 10.9071 42.4153 11.6659C42.8699 12.127 42.8961 12.4377 42.4448 12.9054C41.5454 13.8408 40.6296 14.7598 39.7073 15.669C39.6413 15.7539 39.5567 15.8226 39.4601 15.8699C39.3635 15.9172 39.2573 15.9417 39.1497 15.9417C39.0421 15.9417 38.936 15.9172 38.8394 15.8699C38.7427 15.8226 38.6581 15.7539 38.5921 15.669C37.6567 14.7489 36.7301 13.8212 35.8122 12.8858C35.7308 12.8229 35.6639 12.7432 35.6161 12.6521C35.5682 12.561 35.5406 12.4607 35.535 12.358C35.5294 12.2553 35.546 12.1525 35.5837 12.0568C35.6214 11.9611 35.6792 11.8746 35.7533 11.8032C35.8247 11.7295 35.9111 11.6718 36.0066 11.6342C36.1022 11.5966 36.2046 11.5798 36.3072 11.5851C36.4097 11.5904 36.51 11.6175 36.6011 11.6647C36.6923 11.7119 36.7723 11.7781 36.8358 11.8588C37.6044 12.6111 38.3501 13.3764 39.1088 14.1417Z" fill="white"/>
<path d="M26.501 32.231C27.3644 32.237 28.1904 32.5842 28.7988 33.1969C29.4072 33.8096 29.7486 34.638 29.7486 35.5015C29.7358 36.3628 29.3864 37.1849 28.7752 37.7918C28.1639 38.3988 27.3394 38.7424 26.4781 38.7491C25.6165 38.7363 24.794 38.387 24.1866 37.7759C23.5791 37.1648 23.2348 36.3402 23.2272 35.4786C23.2332 34.6146 23.5809 33.7881 24.1943 33.1796C24.8077 32.5711 25.637 32.2301 26.501 32.231ZM26.501 37.3166C26.7391 37.3179 26.9751 37.2718 27.1952 37.1809C27.4153 37.09 27.615 36.9561 27.7828 36.7871C27.9506 36.6181 28.083 36.4174 28.1723 36.1967C28.2616 35.9759 28.3061 35.7396 28.303 35.5015C28.3022 35.0215 28.1115 34.5613 27.7727 34.2212C27.4339 33.8812 26.9744 33.6889 26.4944 33.6863C26.0142 33.6898 25.5548 33.8835 25.2171 34.2249C24.8793 34.5663 24.6906 35.0277 24.6924 35.508C24.6911 35.7451 24.7366 35.98 24.8265 36.1994C24.9163 36.4188 25.0486 36.6182 25.2157 36.7863C25.3829 36.9544 25.5816 37.0878 25.8005 37.1788C26.0194 37.2698 26.2541 37.3166 26.4911 37.3166H26.501Z" fill="white"/>
<path d="M17.0558 32.231C17.9159 32.2309 18.7414 32.5696 19.3535 33.1738C19.9656 33.778 20.3151 34.599 20.3263 35.459C20.3188 36.3184 19.9763 37.141 19.3716 37.7518C18.7669 38.3626 17.9478 38.7133 17.0885 38.7295C16.2273 38.7295 15.4008 38.3899 14.7885 37.7843C14.1762 37.1787 13.8275 36.3561 13.818 35.4949C13.8197 34.6343 14.1605 33.809 14.7666 33.198C15.3727 32.587 16.1952 32.2396 17.0558 32.231ZM17.0558 37.3166C17.5277 37.3196 17.9823 37.1397 18.3244 36.8147C18.6665 36.4897 18.8694 36.0448 18.8906 35.5734C18.9002 35.0852 18.7166 34.613 18.3797 34.2595C18.0428 33.9061 17.5799 33.7 17.0918 33.6863C16.8536 33.6798 16.6166 33.7207 16.3944 33.8065C16.1722 33.8923 15.9692 34.0215 15.7973 34.1864C15.6254 34.3513 15.488 34.5487 15.393 34.7672C15.298 34.9856 15.2473 35.2208 15.2439 35.459C15.2387 35.7008 15.2818 35.9412 15.3706 36.1661C15.4595 36.3911 15.5923 36.5961 15.7613 36.769C15.9303 36.942 16.1322 37.0796 16.355 37.1736C16.5779 37.2676 16.8172 37.3162 17.0591 37.3166H17.0558Z" fill="white"/>
<path d="M32.6626 35.3935C32.6815 34.539 33.0378 33.7268 33.6537 33.1342C34.2696 32.5416 35.0949 32.2169 35.9495 32.2309C36.813 32.2532 37.6332 32.6134 38.2338 33.2342C38.8345 33.855 39.1674 34.6867 39.1611 35.5505C39.1398 36.4036 38.7858 37.2146 38.1748 37.8104C37.5637 38.4062 36.744 38.7395 35.8906 38.7392C35.4583 38.7337 35.0314 38.6426 34.6345 38.471C34.2377 38.2995 33.8788 38.0509 33.5786 37.7398C33.2784 37.4287 33.0429 37.0611 32.8857 36.6584C32.7285 36.2556 32.6526 35.8257 32.6626 35.3935ZM37.7254 35.5014C37.7289 35.0214 37.5424 34.5594 37.2067 34.2163C36.8709 33.8732 36.4131 33.6768 35.9331 33.6699C35.6918 33.6652 35.4518 33.7086 35.2275 33.7976C35.0031 33.8867 34.7987 34.0197 34.6263 34.1887C34.4539 34.3577 34.317 34.5594 34.2235 34.782C34.1301 35.0046 34.082 35.2436 34.082 35.4851C34.0803 35.7241 34.1257 35.9612 34.2157 36.1827C34.3057 36.4042 34.4385 36.6058 34.6065 36.7759C34.7745 36.946 34.9744 37.0813 35.1947 37.1741C35.4151 37.2669 35.6515 37.3153 35.8906 37.3166C36.1305 37.3187 36.3685 37.2734 36.5908 37.1832C36.8131 37.093 37.0153 36.9597 37.1858 36.7909C37.3564 36.6222 37.4919 36.4214 37.5845 36.2001C37.6771 35.9788 37.725 35.7413 37.7254 35.5014Z" fill="white"/>
<path d="M7.69223 32.2473C8.55451 32.2645 9.37509 32.6216 9.97536 33.2409C10.5756 33.8601 10.907 34.6914 10.8973 35.5538C10.8752 36.4064 10.5208 37.2166 9.90987 37.8116C9.29892 38.4067 8.47968 38.7396 7.62682 38.7393C6.76455 38.7221 5.94398 38.365 5.3437 37.7457C4.74343 37.1265 4.41206 36.2952 4.42171 35.4328C4.44389 34.5802 4.79822 33.77 5.40918 33.175C6.02013 32.5799 6.83937 32.247 7.69223 32.2473ZM7.65299 37.3166C8.13301 37.3184 8.59425 37.1303 8.93612 36.7933C9.278 36.4563 9.47276 35.9978 9.47793 35.5178C9.48229 35.2762 9.43834 35.0361 9.34866 34.8116C9.25898 34.5872 9.12539 34.3829 8.95571 34.2108C8.78602 34.0387 8.58368 33.9022 8.36054 33.8093C8.1374 33.7165 7.89796 33.6691 7.65626 33.67C7.17624 33.6682 6.71499 33.8564 6.37312 34.1933C6.03124 34.5303 5.83648 34.9888 5.83131 35.4688C5.8274 35.7103 5.87165 35.9502 5.96149 36.1745C6.05132 36.3987 6.18494 36.6028 6.35453 36.7748C6.52413 36.9469 6.7263 37.0834 6.94924 37.1764C7.17218 37.2694 7.41142 37.3171 7.65299 37.3166Z" fill="white"/>
</g>
<defs>
<clipPath id="clip0_844_178">
<rect width="43.4979" height="42" fill="white"/>
</clipPath>
</defs>
</svg>
