<svg width="45" height="25" viewBox="0 0 45 25" fill="none" xmlns="http://www.w3.org/2000/svg">
<g clip-path="url(#clip0_1018_8475)">
<path d="M33.8838 6.22087C35.5701 6.22087 37.1835 6.23499 38.7969 6.21382C39.6977 6.20206 40.3256 6.5666 40.7607 7.35919C41.9449 9.52293 43.1514 11.6737 44.3556 13.8269C44.7891 14.5821 45.0116 15.4399 45 16.3105C44.9859 17.5006 45 18.6918 45 19.883C45 20.7967 44.5238 21.3236 43.6253 21.2671C42.8786 21.2201 42.4741 21.3671 42.1789 22.1738C41.6392 23.6484 40.0493 24.5386 38.5335 24.4422C37.7431 24.404 36.9835 24.1242 36.3572 23.6405C35.7309 23.1568 35.2682 22.4926 35.0315 21.7375C34.988 21.5999 34.9457 21.4612 34.8904 21.2824H32.6561C29.3105 21.2824 25.965 21.2824 22.6182 21.2754C22.2937 21.2754 22.1478 21.3389 22.042 21.6834C21.8095 22.4789 21.326 23.1778 20.6637 23.6761C20.0015 24.1743 19.1959 24.4451 18.3672 24.4481C17.5384 24.4479 16.7318 24.1803 16.0674 23.6849C15.4029 23.1895 14.9161 22.4929 14.6794 21.6987C14.5806 21.3694 14.4524 21.2707 14.1126 21.2742C12.3075 21.293 10.5024 21.2836 8.70322 21.2824C7.98824 21.2824 7.76246 21.0472 7.76246 20.3299C7.76246 18.86 7.76246 17.39 7.76246 15.8613C7.5896 15.8531 7.43555 15.839 7.28267 15.839H2.61533C2.46889 15.8461 2.3221 15.8402 2.17671 15.8213C2.0214 15.8012 1.87861 15.7256 1.77466 15.6084C1.67072 15.4913 1.61261 15.3405 1.61108 15.1839C1.5924 15.0356 1.62709 14.8854 1.70895 14.7602C1.79081 14.6351 1.91451 14.5431 2.05794 14.5007C2.2402 14.4468 2.43013 14.4233 2.62004 14.4313C5.39293 14.4313 8.16621 14.4313 10.9399 14.4313C11.0426 14.4278 11.1455 14.4301 11.248 14.4384C11.6784 14.4866 11.9465 14.763 11.9453 15.144C11.9453 15.5497 11.6572 15.826 11.1962 15.8342C10.5389 15.8448 9.8827 15.8342 9.19712 15.8342V19.8525C9.29943 19.8595 9.38292 19.8689 9.46759 19.8689C11.0528 19.8689 12.6426 19.8689 14.2231 19.8689C14.4583 19.8689 14.5759 19.8125 14.6488 19.5573C15.158 17.8098 16.6303 16.6939 18.3824 16.6974C20.1052 16.6974 21.5704 17.8181 22.0867 19.5432C22.149 19.749 22.1972 19.8701 22.4524 19.8701C25.7396 19.8591 29.0267 19.8552 32.3139 19.8583C32.3587 19.8517 32.4028 19.8411 32.4456 19.8266V1.44535H9.18301V3.60792H9.64515C10.8046 3.60792 11.9641 3.60792 13.1236 3.60792C13.6869 3.60792 14.002 3.87133 14.0009 4.31349C13.9997 4.75564 13.681 5.01906 13.1213 5.01906C10.3774 5.02376 7.6335 5.02376 4.88962 5.01906C4.81619 5.02064 4.74274 5.0175 4.66972 5.00965C4.26637 4.95791 4.00531 4.68744 4.0006 4.32054C3.99652 4.2276 4.01165 4.13481 4.04507 4.04798C4.07848 3.96115 4.12945 3.88215 4.1948 3.81592C4.26014 3.7497 4.33845 3.69767 4.42482 3.66309C4.51119 3.62851 4.60377 3.61213 4.69676 3.61497C5.51993 3.59381 6.34309 3.60557 7.16625 3.60321H7.74717C7.74717 2.89765 7.74717 2.22383 7.74717 1.55471C7.74717 0.457554 8.20227 -0.00341797 9.29237 -0.00341797H32.3186C33.4275 -0.00341797 33.8838 0.466961 33.885 1.58646C33.885 2.95291 33.885 4.32015 33.885 5.68817L33.8838 6.22087ZM33.9156 19.8489C34.8199 19.916 34.8199 19.916 35.108 19.1739C35.1338 19.1057 35.1609 19.0375 35.1914 18.9705C35.5158 18.2567 36.0492 17.6581 36.7212 17.2541C37.3931 16.8501 38.1719 16.6597 38.9545 16.708C40.5491 16.7997 41.9238 17.9051 42.4153 19.4726C42.46 19.6173 42.5693 19.8254 42.6775 19.8501C42.968 19.903 43.2737 19.8677 43.5901 19.8677C43.5901 18.6354 43.5818 17.4747 43.5901 16.314C43.6006 15.6945 43.4451 15.0834 43.1397 14.5442C41.9316 12.3781 40.727 10.2093 39.526 8.03771C39.4664 7.90518 39.3673 7.79429 39.2422 7.7202C39.1172 7.64611 38.9724 7.61244 38.8275 7.62378C37.2987 7.63789 35.77 7.62378 34.2495 7.63084C34.1377 7.63638 34.0262 7.64776 33.9156 7.66494V19.8489ZM15.9235 20.5463C15.9235 21.9492 16.9725 23.0228 18.3448 23.0346C18.6685 23.0338 18.9887 22.9688 19.287 22.8432C19.5853 22.7176 19.8557 22.534 20.0824 22.303C20.3091 22.0721 20.4876 21.7983 20.6076 21.4978C20.7276 21.1972 20.7867 20.8757 20.7814 20.5521C20.782 20.2326 20.7197 19.9161 20.598 19.6207C20.4763 19.3253 20.2976 19.0567 20.0721 18.8304C19.8466 18.604 19.5787 18.4243 19.2838 18.3014C18.9888 18.1786 18.6726 18.115 18.353 18.1144C18.0332 18.1117 17.7161 18.1729 17.4201 18.2942C17.1242 18.4155 16.8555 18.5947 16.6296 18.8211C16.4037 19.0475 16.2252 19.3167 16.1046 19.6129C15.984 19.9092 15.9236 20.2265 15.9271 20.5463H15.9235ZM41.1276 20.5921C41.1276 19.1951 40.0693 18.1156 38.6993 18.1144C38.3798 18.1136 38.0632 18.1762 37.768 18.2984C37.4728 18.4206 37.2047 18.6002 36.9792 18.8266C36.7537 19.0531 36.5754 19.3219 36.4544 19.6177C36.3335 19.9135 36.2723 20.2303 36.2745 20.5498C36.2745 21.9409 37.3329 23.0193 38.704 23.0346C39.0239 23.034 39.3405 22.9703 39.6356 22.8471C39.9308 22.724 40.1988 22.5438 40.4243 22.3169C40.6498 22.09 40.8282 21.8209 40.9495 21.5249C41.0708 21.229 41.1326 20.912 41.1312 20.5921H41.1276Z" fill="white"/>
<path d="M7.74594 11.2339C7.74594 9.85336 7.74007 8.54688 7.74594 7.2357C7.74594 6.79119 8.05169 6.48662 8.44446 6.4878C8.83722 6.48897 9.12416 6.79707 9.15003 7.23923C9.15708 7.37093 9.15003 7.50382 9.15003 7.6367V11.2327H18.0355C18.1672 11.2249 18.2993 11.2276 18.4306 11.241C18.7905 11.3021 19.0186 11.5114 19.0374 11.8866C19.0621 12.2829 18.854 12.5251 18.4824 12.6215C18.3525 12.6451 18.2201 12.6523 18.0884 12.6427H6.12196C6.01917 12.6467 5.91622 12.6435 5.81386 12.6333C5.63745 12.6174 5.47388 12.5344 5.357 12.4013C5.24011 12.2682 5.17886 12.0953 5.18591 11.9183C5.18497 11.8297 5.20171 11.7417 5.23517 11.6596C5.26862 11.5775 5.31812 11.5029 5.38075 11.4402C5.44338 11.3774 5.5179 11.3278 5.59994 11.2942C5.68198 11.2606 5.7699 11.2437 5.85855 11.2445C6.47004 11.221 7.08741 11.2339 7.74594 11.2339Z" fill="white"/>
<path d="M3.03632 7.51192C3.81127 7.51192 4.5874 7.51192 5.36352 7.51192C5.89388 7.51192 6.18668 7.77298 6.1808 8.21749C6.17492 8.662 5.88094 8.92306 5.35764 8.92306C3.82028 8.93011 2.28332 8.93011 0.746752 8.92306C0.197584 8.92306 0.00237839 8.70786 0.00590624 8.18456C0.00590624 7.69184 0.19523 7.52015 0.758509 7.51662C1.51347 7.50721 2.27548 7.51192 3.03632 7.51192Z" fill="white"/>
</g>
<defs>
<clipPath id="clip0_1018_8475">
<rect width="45" height="24.448" fill="white"/>
</clipPath>
</defs>
</svg>
