<svg width="42" height="42" viewBox="0 0 42 42" fill="none" xmlns="http://www.w3.org/2000/svg">
<g clip-path="url(#clip0_919_15)">
<path d="M7.64663 36.3969C6.86907 37.1744 6.09152 37.952 5.32063 38.7295C5.26112 38.7851 5.22531 38.8615 5.22066 38.9428C5.27065 39.4204 4.98073 39.7137 4.67748 40.0102C4.14208 40.5356 3.62002 41.0722 3.08462 41.5987C2.54922 42.1252 2.04714 42.133 1.4973 41.5898C1.10297 41.1999 0.70531 40.8122 0.320978 40.4112C-0.101122 39.9669 -0.108898 39.4371 0.313201 39.0028C0.952275 38.3452 1.60171 37.6987 2.26152 37.0633C2.40259 36.9278 2.62364 36.7878 2.80136 36.7967C3.1657 36.8123 3.35676 36.6035 3.57003 36.3869C4.24539 35.7104 4.9263 35.0384 5.6061 34.363C4.02434 31.8082 3.72665 29.1545 5.02405 26.4486C6.32145 23.7428 8.57857 22.3165 11.5944 21.9599V0.866074C11.5944 0.0885227 11.6777 0.00632547 12.4519 0.00632547C19.8801 0.00632547 27.3076 0.00373282 34.7343 -0.00145086C34.9119 -0.00943913 35.089 0.021409 35.2534 0.0889397C35.4179 0.15647 35.5656 0.259058 35.6862 0.389547C37.5227 2.24086 39.3681 4.08625 41.2224 5.92571C41.333 6.02874 41.42 6.15443 41.4775 6.29419C41.535 6.43395 41.5617 6.58447 41.5556 6.73548C41.5505 16.8296 41.5505 26.9226 41.5556 37.0145C41.5556 37.6498 41.4446 37.7598 40.7981 37.7598C31.2875 37.7598 21.7773 37.7598 12.2675 37.7598C10.7165 37.7879 9.19137 37.3604 7.881 36.5301C7.81213 36.4813 7.73771 36.4457 7.64663 36.3969ZM16.2086 36.7301H40.5115V6.98318C38.7531 6.98318 37.0325 6.98318 35.3119 6.98318C34.7398 6.98318 34.5932 6.83545 34.5921 6.27339C34.5921 4.67682 34.5921 3.08025 34.5921 1.48367V1.03936H12.6241V21.9499C12.6595 21.967 12.6968 21.9801 12.7351 21.9888C15.2988 22.2276 17.3016 23.4151 18.7601 25.5433C18.8145 25.6061 18.8812 25.657 18.9561 25.6929C19.031 25.7288 19.1125 25.749 19.1955 25.7522C20.0841 25.7722 20.9727 25.7522 21.8614 25.7633C22.3412 25.7633 22.5278 25.9421 22.5278 26.4131C22.5278 28.899 22.5278 31.3842 22.5278 33.8687C22.5278 34.3563 22.3634 34.5185 21.8803 34.5218C21.0894 34.5218 20.2952 34.5641 19.5076 34.5118C18.8478 34.4674 18.3913 34.6451 17.9525 35.1783C17.446 35.7693 16.7906 36.2247 16.2086 36.7356V36.7301ZM12.1375 22.9708C11.2303 22.9686 10.3316 23.1455 9.49283 23.4913C8.65411 23.8372 7.8919 24.3452 7.24992 24.9863C6.60794 25.6273 6.09882 26.3888 5.75174 27.227C5.40465 28.0652 5.22645 28.9637 5.22733 29.871C5.22909 31.6956 5.95417 33.4451 7.24365 34.736C8.53312 36.027 10.2818 36.754 12.1064 36.7579C13.0134 36.7628 13.9123 36.5886 14.7517 36.2452C15.5911 35.9019 16.3545 35.3961 16.9979 34.7569C17.6413 34.1177 18.1521 33.3577 18.501 32.5206C18.8499 31.6835 19.0301 30.7857 19.0311 29.8787C19.035 28.9717 18.8595 28.0728 18.5147 27.2338C18.1698 26.3949 17.6624 25.6324 17.0217 24.9903C16.381 24.3483 15.6196 23.8393 14.7814 23.4927C13.9431 23.1461 13.0446 22.9687 12.1375 22.9708ZM21.497 26.7808H19.4165C20.3163 29.0657 20.2174 31.2939 19.1722 33.4955H21.497V26.7808ZM39.6618 5.95904L35.6107 1.90577V5.95904H39.6618ZM2.97132 37.8387L1.12519 39.6881L2.29596 40.8722L4.14764 39.0183L2.97132 37.8387ZM6.28146 35.2028L4.07544 37.4243L4.56529 37.9575L6.79909 35.7193C6.63248 35.5515 6.43808 35.3583 6.28257 35.205L6.28146 35.2028Z" fill="white"/>
<path d="M30.62 27.1232V20.544C30.62 19.9098 30.7689 19.7665 31.4076 19.7665C32.4895 19.7665 33.5721 19.7665 34.6555 19.7665C35.2276 19.7665 35.382 19.9142 35.3831 20.4707C35.3831 24.9265 35.3831 29.3822 35.3831 33.8379C35.3831 34.3933 35.2487 34.52 34.6888 34.5211C33.578 34.5211 32.4672 34.5211 31.3565 34.5211C30.76 34.5211 30.62 34.3822 30.62 33.7891C30.6185 31.566 30.6185 29.3441 30.62 27.1232ZM34.3589 33.4969V20.7917H31.6508V33.4969H34.3589Z" fill="white"/>
<path d="M24.1919 28.6094C24.1919 26.8892 24.1919 25.1689 24.1919 23.4487C24.1919 22.8511 24.323 22.7178 24.9273 22.7156C26.0381 22.7156 27.1489 22.7156 28.2596 22.7156C28.8073 22.7156 28.9505 22.8655 28.9505 23.4076C28.9505 26.877 28.9505 30.3452 28.9505 33.8123C28.9505 34.3855 28.8184 34.5155 28.2374 34.5166C27.1133 34.5166 25.9896 34.5166 24.8662 34.5166C24.3441 34.5166 24.1997 34.3677 24.1997 33.8501C24.1923 32.104 24.1897 30.3571 24.1919 28.6094ZM27.9264 33.4969V23.7419H25.2216V33.5002L27.9264 33.4969Z" fill="white"/>
<path d="M33.5868 13.3606C33.4402 13.3539 33.2858 13.3928 33.2036 13.3339C33.0326 13.2095 32.7882 13.0374 32.7826 12.8763C32.7771 12.7152 33.0048 12.4009 33.1514 12.3875C33.7594 12.3385 34.3701 12.3344 34.9787 12.3753C35.263 12.392 35.3841 12.6341 35.383 12.9196C35.383 13.4195 35.383 13.9193 35.383 14.4192C35.383 14.738 35.2575 14.9746 34.9176 14.9935C34.5543 15.0112 34.4088 14.7713 34.3855 14.4381C34.38 14.357 34.37 14.2759 34.3544 14.1193C34.2067 14.2603 34.0989 14.3592 33.9956 14.4625L29.488 18.969C29.0171 19.4399 28.9426 19.4477 28.3773 19.1234C27.1554 18.4158 25.928 17.7104 24.6739 16.9873C24.5628 17.0917 24.4517 17.1906 24.3473 17.295L18.8423 22.8001C18.7585 22.8927 18.6679 22.9788 18.5712 23.0578C18.3391 23.2288 18.098 23.2322 17.897 23.0167C17.6959 22.8012 17.7148 22.5635 17.897 22.3391C17.9605 22.2658 18.0283 22.1964 18.1002 22.1314L24.0507 16.182C24.4628 15.7699 24.5506 15.7566 25.0582 16.0487C26.1757 16.6918 27.292 17.3394 28.4095 17.9826C28.5394 18.0581 28.6749 18.1259 28.7694 18.1759L33.5868 13.3606Z" fill="white"/>
<path d="M24.2551 12.9307H20.9661C20.4774 12.9307 20.2585 12.7697 20.2663 12.4253C20.2741 12.081 20.4885 11.9332 20.9461 11.9321C23.1536 11.9321 25.3608 11.9321 27.5675 11.9321C28.0985 11.9321 28.4128 12.2654 28.194 12.6186C28.126 12.7053 28.0406 12.7768 27.9432 12.8282C27.8457 12.8797 27.7386 12.9101 27.6286 12.9174C26.5045 12.9452 25.3793 12.9307 24.2551 12.9307Z" fill="white"/>
<path d="M24.2631 7.82324C25.3738 7.82324 26.4846 7.82991 27.5954 7.82324C27.9431 7.82324 28.2097 7.90988 28.2541 8.29311C28.2908 8.60413 28.0208 8.82406 27.6021 8.82406C25.3679 8.82851 23.1334 8.82851 20.8985 8.82406C20.5597 8.82406 20.2864 8.72076 20.2687 8.32087C20.2553 7.99764 20.4686 7.8288 20.8918 7.82769C22.0148 7.82102 23.1389 7.82435 24.2631 7.82324Z" fill="white"/>
<path d="M24.2397 10.8713H21.0762C20.9516 10.8749 20.8269 10.87 20.703 10.8569C20.6433 10.8558 20.5844 10.8426 20.5299 10.8183C20.4753 10.7939 20.4263 10.7588 20.3857 10.715C20.345 10.6713 20.3136 10.6198 20.2933 10.5636C20.273 10.5074 20.2643 10.4477 20.2676 10.3881C20.2604 10.3253 20.2665 10.2617 20.2855 10.2014C20.3045 10.1411 20.336 10.0855 20.3779 10.0381C20.4198 9.99078 20.4712 9.95277 20.5287 9.92657C20.5862 9.90037 20.6487 9.88656 20.7119 9.88603C20.9729 9.86159 21.2384 9.8727 21.5016 9.8727C23.4722 9.8727 25.4427 9.8727 27.4133 9.8727C27.5521 9.8727 27.7276 9.8316 27.8198 9.89936C27.992 10.0238 28.2252 10.2159 28.2252 10.3792C28.2252 10.5425 27.9809 10.7202 27.8098 10.8469C27.7276 10.908 27.5676 10.8713 27.4432 10.8713H24.2397Z" fill="white"/>
<path d="M17.4994 12.9273C17.2773 12.9273 17.0551 12.9373 16.833 12.9273C16.5419 12.9107 16.3276 12.7374 16.3753 12.4586C16.4075 12.2731 16.6097 11.992 16.7619 11.9732C17.2687 11.911 17.7813 11.911 18.2881 11.9732C18.4403 11.992 18.6447 12.2775 18.6713 12.463C18.7102 12.7363 18.4947 12.9073 18.2015 12.9251C17.9693 12.9351 17.7338 12.9284 17.4994 12.9273Z" fill="white"/>
<path d="M17.5405 7.82656C17.7627 7.82656 17.9848 7.81989 18.207 7.82656C18.5013 7.83767 18.7157 8.01317 18.6757 8.28642C18.6502 8.47193 18.4447 8.75518 18.2925 8.77517C17.7854 8.82887 17.2743 8.8337 16.7663 8.78961C16.7025 8.79005 16.6396 8.77528 16.5827 8.74652C16.5258 8.71777 16.4766 8.67586 16.4391 8.62428C16.4016 8.57269 16.377 8.51292 16.3673 8.44991C16.3575 8.3869 16.3629 8.32248 16.3831 8.26199C16.4282 8.16473 16.4923 8.07748 16.5717 8.00537C16.6511 7.93327 16.744 7.87776 16.8452 7.84211C17.0518 7.77102 17.3061 7.82656 17.5405 7.82656Z" fill="white"/>
<path d="M17.5249 10.8635C17.2905 10.8635 17.055 10.8779 16.8218 10.8635C16.5341 10.8412 16.3619 10.6746 16.3608 10.3803C16.3546 10.3172 16.3619 10.2536 16.3823 10.1937C16.4027 10.1337 16.4356 10.0788 16.479 10.0326C16.5223 9.98644 16.575 9.95006 16.6336 9.92591C16.6921 9.90177 16.7551 9.89042 16.8184 9.89263C17.2872 9.87189 17.7563 9.87189 18.2258 9.89263C18.289 9.89074 18.3518 9.90214 18.4103 9.9261C18.4687 9.95006 18.5215 9.98603 18.5652 10.0317C18.6089 10.0774 18.6424 10.1317 18.6638 10.1912C18.6851 10.2506 18.6937 10.3139 18.689 10.3769C18.6929 10.4399 18.6836 10.503 18.6618 10.5621C18.64 10.6213 18.6062 10.6753 18.5624 10.7208C18.5187 10.7662 18.466 10.802 18.4076 10.826C18.3493 10.85 18.2866 10.8616 18.2236 10.8601C17.9948 10.8779 17.7593 10.8635 17.5249 10.8635Z" fill="white"/>
<path d="M6.02497 29.677C6.02596 28.9049 6.17985 28.1406 6.47776 27.4283C6.77568 26.716 7.21171 26.0698 7.7607 25.5269C8.30969 24.984 8.96077 24.5552 9.67635 24.2652C10.3919 23.9753 11.1579 23.8299 11.9299 23.8376C13.4816 23.8508 14.9651 24.4772 16.0566 25.5801C17.1481 26.6831 17.759 28.173 17.756 29.7247C17.7452 31.2771 17.1217 32.7623 16.0212 33.8572C14.9207 34.952 13.4323 35.5679 11.8799 35.5708C11.1082 35.5694 10.3443 35.4156 9.63207 35.1185C8.91983 34.8213 8.27324 34.3865 7.72933 33.8389C7.18543 33.2914 6.75491 32.642 6.46244 31.9278C6.16998 31.2136 6.02131 30.4487 6.02497 29.677ZM7.02468 29.7181C7.02789 31.0027 7.53901 32.2338 8.44651 33.143C9.35402 34.0522 10.5843 34.5655 11.8688 34.5711C13.1612 34.5711 14.401 34.0592 15.317 33.1475C16.2329 32.2357 16.7504 30.9982 16.7563 29.7059C16.7533 28.4141 16.2382 27.1762 15.3239 26.2638C14.4095 25.3513 13.1706 24.8387 11.8788 24.8384C11.2392 24.8384 10.6059 24.9648 10.0153 25.2103C9.4247 25.4559 8.88844 25.8157 8.43736 26.2692C7.98627 26.7226 7.62926 27.2607 7.38682 27.8526C7.14439 28.4445 7.02131 29.0785 7.02468 29.7181Z" fill="white"/>
<path d="M12.8755 29.5159V29.6519H13.9075V30.1799H12.8355C12.7875 30.5479 12.6809 30.8359 12.5155 31.0439C12.3555 31.2519 12.1209 31.4013 11.8115 31.4919C11.5075 31.5826 11.1022 31.6279 10.5955 31.6279V32.2599C10.5955 32.9799 10.9102 33.3399 11.5395 33.3399C12.1582 33.3399 12.4675 32.9933 12.4675 32.2999H13.1395C13.1342 32.8333 12.9929 33.2359 12.7155 33.5079C12.4382 33.7799 12.0435 33.9159 11.5315 33.9159C11.0035 33.9159 10.6009 33.7693 10.3235 33.4759C10.0515 33.1826 9.91553 32.7719 9.91553 32.2439V31.1159C10.5235 31.1159 10.9715 31.0973 11.2595 31.0599C11.5529 31.0173 11.7662 30.9319 11.8995 30.8039C12.0329 30.6706 12.1182 30.4626 12.1555 30.1799H9.55553V29.6519H12.1875V29.5079V28.7879H9.55553V28.2519H13.9075V28.7879H12.8755V29.5159Z" fill="white"/>
</g>
<defs>
<clipPath id="clip0_919_15">
<rect width="41.5524" height="42" fill="white"/>
</clipPath>
</defs>
</svg>
