<svg width="69" height="50" viewBox="0 0 69 50" fill="none" xmlns="http://www.w3.org/2000/svg">
<g clip-path="url(#clip0_829_2510)">
<path d="M68.9999 24.8743C68.7514 26.1424 68.5894 27.4339 68.2419 28.6751C66.4973 34.8937 62.7163 39.4866 56.9801 42.4702C56.5408 42.6983 56.3662 42.9354 56.3788 43.4348C56.413 44.9346 56.4004 46.4381 56.3788 47.9379C56.3662 49.3282 55.6964 49.9892 54.2957 49.991C40.9994 49.991 27.7032 50.0162 14.407 49.9784C10.3416 49.9659 7.28084 48.105 5.31296 44.5323C5.13291 44.2089 4.95287 44.085 4.59278 44.103C3.98783 44.1317 3.38108 44.1227 2.77433 44.103C2.03656 44.0917 1.33261 43.7923 0.813563 43.2691C0.294517 42.7459 0.0017413 42.0406 -0.00194158 41.3044C-0.00405213 40.5672 0.283263 39.8585 0.798475 39.3301C1.31369 38.8016 2.01583 38.4955 2.75453 38.4772C3.42789 38.4502 4.10125 38.4772 4.77642 38.4772H6.80912C6.67409 37.0509 6.54805 35.6804 6.41302 34.3099C5.98332 29.9654 5.55061 25.6197 5.1149 21.2728C4.63478 16.5272 4.16007 11.7809 3.69076 7.03406C3.57553 5.87548 3.4441 4.71871 3.36308 3.55655C3.26766 2.20398 3.93742 1.51063 5.31296 1.50524C7.69314 1.49626 10.0733 1.50524 12.4553 1.50524H29.2984C31.0988 1.50524 31.6948 2.10339 31.5291 3.85472C31.1258 8.17107 30.6793 12.5018 30.2508 16.8128C30.0834 18.5012 29.9195 20.1879 29.7449 21.9715H30.7441C42.7159 21.9715 54.687 21.9674 66.6575 21.959C67.7288 21.959 68.5318 22.2607 68.9981 23.2559L68.9999 24.8743ZM8.8094 38.0083C9.35854 36.6522 9.47377 36.5031 10.536 35.6373C10.6812 35.4888 10.7653 35.2914 10.7719 35.0841C10.8277 33.4225 11.6001 32.3322 13.1125 31.7467C13.336 31.6448 13.5101 31.4588 13.5968 31.2293C14.0685 29.7169 15.1145 28.8583 16.7115 28.6607C16.994 28.6082 17.2454 28.4493 17.4137 28.2171C18.2383 26.9723 19.5742 26.3562 21.0146 26.6831C21.17 26.7311 21.3362 26.7321 21.4922 26.6861C21.6482 26.6401 21.7871 26.549 21.8914 26.4244C22.7106 25.6359 23.7098 25.4077 24.8153 25.5694C24.9953 25.5963 25.1754 25.6305 25.3788 25.6646C25.2222 22.4026 25.2438 22.3685 27.7194 21.8925L28.6988 12.0653C28.4756 12.0473 28.301 12.0204 28.1263 12.0204C26.9146 12.0204 25.7011 12.0312 24.4894 12.0096C23.7458 11.9953 23.3101 11.5139 23.42 10.8618C23.5298 10.2098 24.0015 10.005 24.5993 10.0032C25.8344 10.0032 27.0695 9.97809 28.3046 10.0122C28.8123 10.0266 28.9599 9.83259 28.9833 9.36377C29.0229 8.58241 29.1346 7.80464 29.2102 7.02867C29.32 5.88087 29.4226 4.73308 29.5306 3.5763H5.38857C5.58662 5.61144 5.78826 7.59269 5.96831 9.57573C6.01512 10.1038 6.37881 10.005 6.70109 10.005C10.8325 10.005 14.9651 10.005 19.0989 10.005C19.3678 9.99283 19.6373 10.0115 19.9019 10.0607C20.1393 10.0987 20.352 10.2288 20.4936 10.4226C20.6353 10.6164 20.6944 10.8582 20.6581 11.0953C20.6586 11.3236 20.5719 11.5435 20.4158 11.7103C20.2596 11.8772 20.0456 11.9784 19.8173 11.9935C19.5714 12.018 19.3243 12.0264 19.0773 12.0186H6.22578C7.09179 20.7339 7.9506 29.3684 8.8094 38.0083ZM10.9699 38.4772H29.2102C29.4118 38.4772 29.6153 38.4664 29.8151 38.4861C30.4021 38.5454 30.7856 38.9532 30.782 39.4956C30.7784 40.0381 30.4039 40.4368 29.8061 40.4853C29.5829 40.5033 29.3578 40.4943 29.1328 40.4943H3.39368C2.42325 40.4943 2.02895 40.726 2.02535 41.2972C2.02175 41.8684 2.40885 42.102 3.38649 42.102H48.9898C49.1698 42.102 49.3499 42.102 49.5299 42.102C50.0376 42.075 50.3437 41.793 50.3419 41.3008C50.3401 40.8087 50.0124 40.5374 49.5155 40.5051C49.3355 40.4925 49.1554 40.5051 48.9754 40.5051H34.896C33.9597 40.5051 33.5168 40.1854 33.506 39.519C33.4952 38.8526 33.9723 38.4897 34.9302 38.4897H41.3901C41.3397 37.703 40.9004 37.3797 40.3099 37.1857C39.3592 36.8749 39.1738 36.5246 39.4547 35.5942C39.8058 34.4266 39.2494 33.665 38.0143 33.6273C37.1447 33.5986 36.7882 33.2303 36.8134 32.3825C36.8512 31.091 36.1527 30.5108 34.9176 30.8072C34.0372 31.0174 33.6339 30.7641 33.4196 29.866C33.1459 28.7164 32.2637 28.323 31.2303 28.8906C30.348 29.3738 29.97 29.2714 29.482 28.42C28.9005 27.3962 27.9481 27.2579 27.0983 28.0716C26.3925 28.7469 25.9658 28.7487 25.2744 28.0716C24.4318 27.2507 23.474 27.389 22.8978 28.42C22.4315 29.2427 22.0102 29.3684 21.2054 28.9212C20.1126 28.3159 19.2718 28.6679 18.9639 29.8624C18.7244 30.7875 18.3391 31.0138 17.3921 30.7875C16.2632 30.518 15.48 31.1593 15.534 32.3089C15.5809 33.2717 15.2802 33.5896 14.2953 33.6219C13.1485 33.6614 12.5741 34.4464 12.909 35.5205C13.2241 36.5372 13.062 36.8498 12.0088 37.2018C11.4344 37.3797 11.0419 37.7191 10.9681 38.47L10.9699 38.4772ZM54.3713 47.9523C54.3713 46.1561 54.4055 44.4353 54.3569 42.7145C54.3335 41.8397 54.627 41.3403 55.4606 40.9631C58.9 39.4042 61.8098 36.8794 63.8344 33.6974C63.9514 33.5177 64.0433 33.3273 64.1693 33.0992H41.2515C41.3649 33.8375 41.4694 34.5542 41.5918 35.2691C41.6094 35.3949 41.6736 35.5096 41.7718 35.5906C42.8341 36.2301 43.349 37.2072 43.4624 38.4251C43.6731 38.4412 43.8477 38.4628 44.0224 38.4628C45.8228 38.4628 47.6233 38.4628 49.4129 38.4628C51.1107 38.4736 52.3872 39.7022 52.3782 41.2954C52.3692 42.8887 51.1179 44.0706 49.4579 44.0976C48.8962 44.0976 48.329 44.0563 47.7745 44.1209C47.4948 44.1704 47.243 44.3206 47.0669 44.543C46.606 45.1466 46.2477 45.8309 45.7706 46.4183C45.3457 46.9428 44.8146 47.3829 44.2546 47.9343L54.3713 47.9523ZM7.41226 44.1317C7.59231 44.4155 7.70754 44.6059 7.84077 44.7765C9.46116 46.8512 11.6091 47.9559 14.2323 47.9685C22.2047 48.0044 30.1776 48.0044 38.1511 47.9685C40.7726 47.9559 42.9205 46.8512 44.5391 44.7748C44.6777 44.5951 44.7822 44.3922 44.9442 44.1317H7.41226ZM66.9942 24.039H27.3179C27.3611 24.5635 27.4007 25.0413 27.4439 25.573C28.5062 25.4401 29.4244 25.5981 30.2562 26.2017C30.5357 26.4063 30.8696 26.5238 31.2159 26.5394C42.7987 26.5549 54.3815 26.5591 65.9643 26.5519C66.202 26.5519 66.4396 26.5232 66.6953 26.507C66.7943 25.6556 66.8879 24.8832 66.9924 24.0318L66.9942 24.039ZM66.1156 28.6015H35.4793C37.0709 28.8152 38.2124 29.5606 38.7291 31.0605H63.1178C65.5016 31.0605 65.5016 31.0605 66.1246 28.7523C66.1282 28.6996 66.1264 28.6466 66.1192 28.5943L66.1156 28.6015Z" fill="#2E296C"/>
<path d="M46.2545 13.5795C47.7812 13.5795 49.3086 13.5795 50.8366 13.5795C51.8628 13.5795 52.4174 13.1502 52.4318 12.3545C52.4462 11.5588 51.8826 11.0738 50.8114 11.072C48.2061 11.072 45.6009 11.0935 42.9957 11.0612C40.6371 11.0325 39.0959 8.8285 39.8899 6.682C40.1057 6.07566 40.501 5.54901 41.0234 5.17179C41.5459 4.79458 42.1709 4.58458 42.8156 4.56962C45.3542 4.54268 47.8911 4.55166 50.4297 4.56064C51.1138 4.56064 51.5297 4.97378 51.5225 5.57013C51.5153 6.16648 51.0904 6.56165 50.4027 6.56524C47.9775 6.57781 45.5523 6.56524 43.1271 6.57422C42.1855 6.57422 41.6345 7.15261 41.7372 7.98067C41.82 8.66145 42.2953 9.04584 43.1271 9.05841C45.6207 9.05841 48.1125 9.05841 50.6061 9.05841C50.92 9.05387 51.2338 9.06826 51.5459 9.10152C52.3826 9.1854 53.1535 9.59149 53.6948 10.2335C54.2361 10.8755 54.5051 11.7028 54.4447 12.5395C54.3986 13.3655 54.0369 14.1425 53.4341 14.7105C52.8312 15.2785 52.0331 15.5944 51.2039 15.5931C48.1269 15.6129 45.05 15.5931 41.973 15.5931C40.7415 15.5931 40.3292 16.0134 40.322 17.2582C40.322 17.7504 40.3328 18.2444 40.3058 18.7365C40.2752 19.3167 39.9349 19.6508 39.3642 19.676C38.7934 19.7011 38.3631 19.3832 38.3451 18.8227C38.3145 17.8654 38.2785 16.881 38.464 15.9488C38.7394 14.5639 40.07 13.6137 41.5247 13.5759H46.2401L46.2545 13.5795Z" fill="#2E296C"/>
<path d="M58.7382 6.56344C57.658 6.56344 56.5777 6.56344 55.4975 6.56344C54.7035 6.55446 54.266 6.17725 54.2696 5.53959C54.2732 4.90193 54.6927 4.55346 55.5137 4.55166C57.5782 4.55166 59.6439 4.55166 61.7108 4.55166C62.2509 4.55166 62.7424 4.45107 63.0593 3.9607C63.6156 3.10389 63.0107 2.07645 61.9052 2.0531C60.4901 2.02436 59.0749 2.08184 57.6634 2.01717C57.4627 1.99826 57.268 1.93863 57.0912 1.84195C56.9144 1.74527 56.7593 1.61358 56.6353 1.45495C56.2338 0.851415 56.729 0.0646642 57.5157 0.0467019C59.1091 0.00898096 60.7079 -0.0359249 62.2959 0.0682567C63.1373 0.120065 63.9237 0.502516 64.4829 1.1318C65.0421 1.76108 65.3285 2.58587 65.2792 3.42542C65.2018 5.16777 63.8533 6.49159 62.0384 6.55267C60.9402 6.59039 59.8383 6.55267 58.7382 6.55267V6.56344Z" fill="#2E296C"/>
<path d="M31.4942 35.9229C31.2262 35.9382 30.9575 35.9382 30.6894 35.9229C30.4503 35.9145 30.2239 35.8133 30.0585 35.6408C29.893 35.4684 29.8016 35.2383 29.8036 34.9996C29.7694 34.4716 30.0485 34.053 30.5814 33.9938C31.224 33.9237 31.8724 33.9237 32.5151 33.9938C33.0462 34.0494 33.3216 34.4482 33.2982 34.9907C33.3028 35.1088 33.284 35.2266 33.2428 35.3375C33.2016 35.4483 33.1389 35.5499 33.0583 35.6365C32.9777 35.7231 32.8807 35.793 32.773 35.8422C32.6652 35.8913 32.5488 35.9187 32.4304 35.9229C32.1186 35.9409 31.806 35.9409 31.4942 35.9229Z" fill="#2E296C"/>
<path d="M17.8001 36.6953C17.5104 36.7148 17.2196 36.7118 16.9304 36.6863C16.3741 36.6001 16.0302 36.2588 16.0428 35.6876C16.035 35.5637 16.0524 35.4395 16.0938 35.3224C16.1352 35.2054 16.1999 35.0978 16.284 35.0063C16.368 34.9147 16.4697 34.841 16.5829 34.7896C16.6962 34.7381 16.8187 34.71 16.943 34.7069C17.4787 34.667 18.0165 34.664 18.5526 34.6979C18.8132 34.6964 19.0637 34.7981 19.2493 34.9806C19.435 35.163 19.5405 35.4115 19.5429 35.6714C19.5555 36.239 19.154 36.6558 18.5346 36.6989C18.2898 36.7168 18.0431 36.6989 17.7965 36.6989L17.8001 36.6953Z" fill="#2E296C"/>
<path d="M24.2783 31.8455C24.57 31.8455 24.8617 31.8221 25.1497 31.8455C25.2681 31.8473 25.385 31.8725 25.4936 31.9195C25.6022 31.9664 25.7005 32.0343 25.7827 32.1193C25.865 32.2042 25.9297 32.3045 25.9731 32.4144C26.0165 32.5243 26.0377 32.6416 26.0356 32.7597C26.0716 33.2986 25.8051 33.7117 25.2758 33.7764C24.6342 33.8512 23.9862 33.8543 23.3439 33.7854C22.8146 33.7297 22.5157 33.3184 22.5427 32.7921C22.5396 32.668 22.5614 32.5446 22.6069 32.4291C22.6524 32.3136 22.7206 32.2084 22.8075 32.1196C22.8945 32.0309 22.9984 31.9604 23.1131 31.9124C23.2278 31.8644 23.3509 31.8398 23.4753 31.8401C23.7418 31.8203 24.0155 31.8401 24.2783 31.8401V31.8455Z" fill="#2E296C"/>
</g>
<defs>
<clipPath id="clip0_829_2510">
<rect width="69" height="50" fill="white"/>
</clipPath>
</defs>
</svg>
