<svg width="45" height="58" viewBox="0 0 45 58" fill="none" xmlns="http://www.w3.org/2000/svg">
<g clip-path="url(#clip0_829_2517)">
<path d="M11.084 42.1644C13.4691 42.8764 15.102 44.355 16.0663 46.552L18.9271 45.427C16.9149 44.0657 15.8413 42.1966 16.0117 39.7215C16.1242 38.0838 16.8394 36.7273 18.0689 35.6441C20.6146 33.394 24.5281 33.7364 26.7251 36.3705C28.6972 38.7331 28.8354 42.968 25.163 45.4286L27.9787 46.5344C29.7868 43.6414 30.4988 43.0195 33.0124 42.1419C31.5194 40.9542 30.7158 39.4644 30.899 37.5502C30.9558 36.9087 31.1417 36.2853 31.4455 35.7175C31.7493 35.1496 32.1647 34.6491 32.6669 34.2458C33.6284 33.45 34.8563 33.0489 36.1023 33.1238C37.3482 33.1987 38.5192 33.7439 39.3785 34.6492C41.3955 36.7723 41.1464 39.421 38.6665 42.1484L39.1599 42.3348C42.0175 43.4084 43.66 45.4672 44.0554 48.4742C44.3109 50.3868 42.7262 52.1949 40.7687 52.2206C38.1393 52.2559 35.5068 52.2334 32.8758 52.235H32.1413C32.1767 52.5115 32.196 52.7397 32.2346 52.9631C32.7055 55.6857 30.7993 57.9823 28.0334 57.9904C24.0561 58.0032 20.0794 58.0032 16.1033 57.9904C13.2553 57.9904 11.3524 55.6985 11.8507 52.9052C11.886 52.7124 11.9085 52.5147 11.9503 52.2334H11.2689C8.77934 52.2334 6.2866 52.1418 3.79868 52.2608C1.6113 52.3636 -0.577675 50.4929 0.150378 47.6449C0.867182 44.8404 2.63026 43.05 5.45408 42.1403C3.79547 40.7999 3.03045 39.122 3.44671 37.0182C3.68362 35.8014 4.39038 34.7268 5.4139 34.0273C6.42191 33.3089 7.66347 32.9966 8.89141 33.1523C10.1193 33.3081 11.2436 33.9206 12.0403 34.8678C13.8837 37.0616 13.5591 39.6685 11.084 42.1644ZM22.045 56.5503C24.0315 56.5503 26.018 56.5503 28.0045 56.5503C29.864 56.5407 31.0581 55.1569 30.8251 53.3119C30.4426 50.3434 28.1941 47.6947 25.2481 47.0776C23.7776 46.7706 22.2218 46.7899 20.7046 46.806C16.9374 46.8462 13.9673 49.4032 13.2891 53.0917C12.9227 55.0781 14.1313 56.5455 16.1467 56.5503C18.1122 56.5551 20.0794 56.5439 22.045 56.5439V56.5503ZM7.66396 50.7902C9.11042 50.7902 10.5569 50.7902 12.0033 50.7902C12.3135 50.7902 12.4726 50.7002 12.6591 50.4189C13.2505 49.5221 13.8934 48.651 14.5668 47.8169C14.7757 47.5549 14.8336 47.3813 14.7066 47.0824C13.9239 45.2438 12.59 43.9773 10.6372 43.582C9.45436 43.3441 8.20075 43.3666 6.98412 43.4213C4.17476 43.5289 2.00186 45.5106 1.5197 48.2765C1.26255 49.7535 2.124 50.7821 3.63636 50.7886C4.97353 50.7966 6.31874 50.7902 7.66396 50.7902ZM36.3634 50.7902C37.8099 50.7902 39.2563 50.8111 40.7028 50.7902C40.9798 50.7841 41.2524 50.7201 41.5031 50.6024C41.7539 50.4846 41.9772 50.3158 42.1589 50.1066C42.3405 49.8974 42.4763 49.6526 42.5577 49.3878C42.6391 49.123 42.6642 48.8441 42.6314 48.5691C42.3357 46.0908 40.5549 44.0255 38.0976 43.5788C36.8503 43.3749 35.582 43.3322 34.3239 43.4518C31.9549 43.6398 30.3284 44.9432 29.3786 47.1097C29.2436 47.4167 29.3272 47.5919 29.5313 47.841C30.1918 48.6639 30.8267 49.5125 31.4101 50.3916C31.5997 50.6793 31.7508 50.8127 32.0963 50.8079C33.5123 50.7805 34.9378 50.7902 36.3634 50.7902ZM17.4356 40.1731C17.4288 40.7805 17.5429 41.3831 17.7714 41.9459C17.9999 42.5087 18.3382 43.0204 18.7665 43.4511C19.1948 43.8818 19.7046 44.2229 20.2661 44.4545C20.8276 44.6861 21.4296 44.8037 22.037 44.8002C22.639 44.8034 23.2357 44.6878 23.7929 44.4601C24.3502 44.2325 24.8571 43.8971 25.2846 43.4733C25.7122 43.0495 26.0519 42.5456 26.2845 41.9903C26.5171 41.4351 26.6379 40.8394 26.64 40.2374C26.6461 39.6353 26.5335 39.0378 26.3086 38.4792C26.0837 37.9207 25.7509 37.4119 25.3292 36.982C24.9075 36.5521 24.4053 36.2096 23.8511 35.9739C23.297 35.7383 22.7018 35.6142 22.0997 35.6087C21.4925 35.5974 20.889 35.707 20.3246 35.9312C19.7601 36.1553 19.2459 36.4895 18.8119 36.9143C18.3778 37.3391 18.0326 37.846 17.7963 38.4054C17.5601 38.9649 17.4374 39.5658 17.4356 40.1731ZM8.28915 41.5216C9.21099 41.5148 10.093 41.1448 10.7438 40.4919C11.3946 39.839 11.7617 38.9558 11.7655 38.034C11.7517 37.1126 11.3788 36.2331 10.7262 35.5826C10.0736 34.932 9.19285 34.562 8.27147 34.5512C7.80959 34.5516 7.35237 34.6437 6.92635 34.8221C6.50033 35.0006 6.11397 35.2618 5.7897 35.5907C5.46542 35.9197 5.20967 36.3097 5.03729 36.7382C4.86491 37.1667 4.77932 37.6252 4.78549 38.087C4.78842 38.543 4.88155 38.994 5.05951 39.4139C5.23748 39.8338 5.49677 40.2143 5.82244 40.5336C6.14811 40.8528 6.53372 41.1045 6.95707 41.274C7.38042 41.4436 7.83314 41.5277 8.28915 41.5216ZM39.2901 38.0324C39.2876 37.1104 38.9204 36.227 38.2688 35.5748C37.6172 34.9226 36.7341 34.5546 35.8121 34.5512C34.891 34.5599 34.0096 34.9277 33.3555 35.5763C32.7015 36.225 32.3264 37.1033 32.3101 38.0243C32.3107 38.4858 32.4026 38.9426 32.5804 39.3684C32.7582 39.7942 33.0184 40.1807 33.3461 40.5055C33.6738 40.8304 34.0626 41.0873 34.4899 41.2614C34.9173 41.4355 35.3748 41.5233 35.8363 41.52C36.2925 41.5195 36.7443 41.4288 37.1653 41.253C37.5864 41.0772 37.9685 40.8197 38.2895 40.4955C38.6106 40.1713 38.8643 39.7867 39.0361 39.364C39.2078 38.9412 39.2941 38.4886 39.2901 38.0324Z" fill="#2E296C"/>
<path d="M32.8759 10.1044H41.5273C41.8086 10.1044 42.0914 10.0947 42.3695 10.122C43.3756 10.2233 44.0249 10.9079 44.0281 11.9124C44.0377 15.5811 44.0377 19.2498 44.0281 22.9184C44.0281 23.902 43.4704 24.5256 42.4997 24.696C42.3246 24.7414 42.1432 24.7572 41.9629 24.7426C40.8877 24.5513 40.2143 24.9901 39.7128 25.948C39.3014 26.7516 38.7324 27.4603 38.2165 28.198C37.392 29.3825 35.9954 29.3905 35.1741 28.2077C34.4766 27.2032 33.8241 26.1665 33.1057 25.1781C33.0123 25.0617 32.8964 24.9653 32.765 24.8946C32.6336 24.8239 32.4893 24.7804 32.3407 24.7667C30.352 24.7335 28.3634 24.7335 26.3748 24.7667C26.2263 24.7812 26.0823 24.8255 25.9514 24.897C25.8205 24.9686 25.7054 25.0658 25.613 25.1829C24.9074 26.1553 24.263 27.1742 23.5799 28.1643C22.7233 29.4082 21.3299 29.3954 20.4684 28.1402C19.8046 27.1662 19.1457 26.189 18.5028 25.2038C18.4228 25.0561 18.3018 24.9346 18.1544 24.8539C18.0071 24.7732 17.8395 24.7368 17.6719 24.749C15.7036 24.7672 13.7348 24.7672 11.7655 24.749C11.5984 24.7348 11.4307 24.7693 11.2827 24.8483C11.1347 24.9273 11.0127 25.0474 10.9314 25.1942C10.2885 26.2051 9.60386 27.2016 8.9192 28.19C8.07864 29.4066 6.682 29.4018 5.84305 28.19C5.16161 27.1983 4.48498 26.2035 3.83247 25.1926C3.75192 25.0449 3.62933 24.9246 3.48024 24.8467C3.33116 24.7689 3.16231 24.7371 2.99513 24.7554C2.51217 24.7794 2.02802 24.7595 1.54866 24.696C0.605246 24.5529 0.0475561 23.9084 0.0443417 22.9634C0.0346986 19.2755 0.0346986 15.5865 0.0443417 11.8964C0.0443417 10.7971 0.806145 10.1285 2.03243 10.1285C4.84499 10.1156 7.65756 10.1285 10.4701 10.1285H11.2014C11.2014 9.80703 11.1918 9.53702 11.2014 9.26541C11.2287 8.64664 11.5019 8.35413 12.1111 8.2802C12.2099 8.26033 12.311 8.25385 12.4116 8.26092C13.2345 8.38789 13.6427 8.0327 13.9095 7.24196C14.0702 6.75981 14.0461 6.47694 13.6861 6.16837C13.5091 5.99872 13.3462 5.81489 13.1991 5.61871C12.8311 5.17995 12.8375 4.73476 13.2361 4.33296C13.9931 3.5583 14.7565 2.78846 15.5376 2.0363C15.9795 1.6104 16.3942 1.62647 16.8748 2.02666L16.9648 2.10702C17.9291 2.98293 17.9403 2.99257 19.1393 2.38988C19.2205 2.33149 19.2877 2.25577 19.3361 2.16822C19.3844 2.08066 19.4127 1.98345 19.4189 1.88362C19.4414 -0.141432 19.7966 -0.00321435 21.4199 0.0112503C22.1431 0.0112503 22.8663 0.0112503 23.5896 0.0112503C24.2726 0.0225006 24.5539 0.310186 24.6069 0.999668C24.6069 1.03985 24.6069 1.08003 24.6069 1.12021C24.668 2.29024 24.946 2.62935 26.063 2.86239C26.175 2.86882 26.2865 2.84317 26.3844 2.78846C26.4521 2.74474 26.5123 2.69048 26.5628 2.62774C27.9161 1.39503 27.9161 1.39503 29.2018 2.67757C29.7274 3.20311 30.261 3.71902 30.7769 4.2526C31.2671 4.76047 31.333 5.27959 30.7769 5.69907C29.8897 6.3773 29.9733 7.08607 30.4795 7.88805C30.5798 8.03752 30.7323 8.14414 30.9071 8.18699C31.2205 8.24324 31.5499 8.21431 31.8714 8.24163C32.5882 8.3011 32.863 8.59843 32.8807 9.31844C32.8807 9.56113 32.8759 9.79738 32.8759 10.1044ZM32.8759 11.5508C32.8759 11.8192 32.8759 12.0169 32.8759 12.2146C32.8646 13.0809 32.5978 13.3541 31.7283 13.391C31.468 13.3766 31.2068 13.3933 30.9505 13.4409C30.7478 13.5119 30.5732 13.646 30.4522 13.8234C29.9058 14.627 29.9588 15.302 30.7881 15.9497C31.333 16.374 31.2622 16.8851 30.7608 17.3961C30.2594 17.9072 29.7402 18.4183 29.2292 18.9294C27.9161 20.2409 27.9193 20.236 26.5371 18.9985C26.4069 18.8828 26.1836 18.7606 26.0389 18.7944C24.8464 19.0773 24.6824 19.2942 24.6085 20.5446C24.6085 20.5655 24.6085 20.5848 24.6085 20.6057C24.5587 21.3305 24.2726 21.6246 23.559 21.6343C22.5545 21.6471 21.55 21.6439 20.5456 21.6343C19.8159 21.6343 19.5218 21.3466 19.4687 20.6346C19.4462 20.3132 19.4591 19.9917 19.4109 19.6703C19.3878 19.5072 19.3011 19.3599 19.1698 19.2605C17.966 18.6176 17.9628 18.6176 16.9856 19.5048C16.3958 20.0351 15.9812 20.04 15.4251 19.4951C14.7211 18.8072 14.0247 18.1135 13.3357 17.4138C12.7893 16.8593 12.7555 16.4029 13.347 15.8693C13.9674 15.31 14.2165 14.8005 13.7391 13.9905C13.5061 13.5952 13.3325 13.4039 12.8648 13.3894C11.2577 13.3396 11.2576 13.3219 11.1885 11.6987C11.177 11.6573 11.1585 11.6182 11.1339 11.583C11.0822 11.5632 11.0282 11.5503 10.9732 11.5444C7.99989 11.5444 5.02661 11.5444 2.05332 11.5347C1.53741 11.5347 1.47795 11.8048 1.47795 12.2242C1.4892 15.3711 1.47795 18.5196 1.47795 21.668C1.47795 23.2752 1.47795 23.3009 3.09638 23.2897C3.47938 23.2673 3.861 23.3527 4.19792 23.5362C4.53484 23.7197 4.81357 23.994 5.0025 24.3279C5.61483 25.2922 6.27056 26.2292 6.91183 27.1758C7.3297 27.793 7.4422 27.7898 7.87614 27.155C8.52705 26.1906 9.19081 25.236 9.82083 24.262C9.99706 23.956 10.2539 23.7043 10.5634 23.5342C10.8729 23.3642 11.2231 23.2824 11.5759 23.2977C13.6652 23.3127 15.7545 23.3127 17.8439 23.2977C18.1965 23.2792 18.5475 23.3572 18.8591 23.5235C19.1706 23.6897 19.4309 23.9379 19.6118 24.2411C20.2691 25.2488 20.9474 26.2421 21.624 27.2369C21.9776 27.7576 22.1286 27.7576 22.4838 27.2369C23.1588 26.2421 23.8387 25.2488 24.4944 24.2411C24.6748 23.9376 24.935 23.6894 25.2468 23.5236C25.5585 23.3578 25.9098 23.2808 26.2623 23.3009C28.3324 23.3154 30.4008 23.3202 32.4708 23.3009C32.8424 23.2823 33.2119 23.3671 33.5381 23.5459C33.8644 23.7246 34.1347 23.9903 34.3191 24.3135C34.9475 25.2922 35.6049 26.2421 36.2638 27.2064C36.6479 27.7737 36.7781 27.7769 37.1542 27.2225C37.842 26.2099 38.5283 25.1974 39.2033 24.1784C39.3691 23.9029 39.6055 23.6767 39.8881 23.5232C40.1707 23.3698 40.4891 23.2947 40.8105 23.3058C41.2123 23.3058 41.6141 23.3058 42.0159 23.3058C42.3904 23.3058 42.6009 23.1788 42.5993 22.7416C42.5865 19.193 42.5865 15.6443 42.5993 12.0957C42.5993 11.7099 42.4386 11.5492 42.0673 11.5492C39.0298 11.5508 35.9986 11.5428 32.8775 11.5428L32.8759 11.5508ZM27.8245 3.43133L27.1816 4.02921C26.5387 4.61904 26.3523 4.62386 25.5744 4.25421C25.0473 4.00996 24.507 3.79533 23.956 3.61134C23.4835 3.45062 23.2199 3.16133 23.2167 2.64703C23.2167 2.25648 23.1797 1.86594 23.1604 1.48504H20.8943C20.875 1.85469 20.8365 2.1922 20.8461 2.5297C20.8654 3.14847 20.5681 3.47151 19.983 3.65473C19.4285 3.82878 18.8907 4.052 18.3759 4.32171C17.8326 4.60136 17.3874 4.55636 16.9664 4.11439C16.7317 3.87009 16.4713 3.64991 16.2319 3.42812L14.6134 5.0353C14.8417 5.27638 15.0667 5.53192 15.311 5.76657C15.7481 6.18604 15.7931 6.62802 15.5167 7.17285C15.2395 7.70448 15.0083 8.25883 14.8256 8.82986C14.644 9.39559 14.3097 9.65113 13.7231 9.63345C13.3711 9.63345 13.0175 9.66399 12.6623 9.68167V11.9317C13.0497 11.9542 13.4081 11.9928 13.7681 11.9912C14.329 11.9912 14.644 12.2419 14.8208 12.7803C15.0145 13.3686 15.2525 13.9413 15.5328 14.4936C15.7867 14.995 15.7449 15.4064 15.3592 15.8034C15.1004 16.0702 14.8545 16.3483 14.6552 16.5652L16.2287 18.211C16.4842 17.9699 16.7381 17.7465 16.9728 17.5038C17.3955 17.0651 17.8326 17.0217 18.3807 17.3094C18.9139 17.5837 19.4693 17.8127 20.0409 17.994C20.5713 18.1692 20.8445 18.4762 20.8445 19.0419C20.8445 19.4132 20.8831 19.7844 20.904 20.1428H23.1669C23.1862 19.7458 23.2183 19.389 23.2167 19.0323C23.2167 18.5019 23.4513 18.1901 23.9656 18.0149C24.5713 17.8109 25.162 17.5649 25.7335 17.2788C26.243 17.0217 26.648 17.0843 27.0402 17.4717C27.2941 17.724 27.5609 17.9635 27.7795 18.1676L29.4124 16.5604C29.1954 16.3258 28.9752 16.067 28.7325 15.834C28.289 15.4081 28.2616 14.9677 28.5461 14.4261C28.8202 13.8929 29.0503 13.3382 29.234 12.7675C29.3947 12.2612 29.6904 11.9944 30.2304 11.988C30.6081 11.988 30.9874 11.9446 31.378 11.9221V9.63667C30.9987 9.63667 30.6612 9.63667 30.3237 9.63667C29.7386 9.65595 29.406 9.38916 29.2243 8.82504C29.042 8.25389 28.8107 7.69951 28.5333 7.16803C28.2456 6.61998 28.3099 6.18283 28.7486 5.76496C28.9929 5.53192 29.2147 5.27316 29.414 5.06102L27.8245 3.43133Z" fill="#2E296C"/>
<path d="M22.0785 5.88711C22.7268 5.88836 23.3685 6.01783 23.9666 6.26808C24.5647 6.51833 25.1075 6.88441 25.5635 7.34524C26.0196 7.80608 26.38 8.35257 26.624 8.95325C26.868 9.55393 26.9907 10.1969 26.9852 10.8453C26.9784 12.155 26.4525 13.4086 25.5227 14.3312C24.5929 15.2537 23.3352 15.7699 22.0255 15.7665C21.372 15.7652 20.7253 15.6345 20.1226 15.382C19.52 15.1294 18.9733 14.7599 18.5143 14.2949C18.0552 13.8298 17.6928 13.2784 17.448 12.6726C17.2033 12.0667 17.081 11.4183 17.0882 10.7649C17.0936 10.1164 17.2272 9.47535 17.4814 8.87866C17.7355 8.28197 18.105 7.74141 18.5688 7.28808C19.0326 6.83475 19.5814 6.47759 20.1838 6.23716C20.7861 5.99673 21.43 5.87776 22.0785 5.88711ZM25.5388 10.8244C25.5416 10.3632 25.4525 9.90608 25.2766 9.47972C25.1008 9.05337 24.8418 8.66632 24.5147 8.34119C24.1876 8.01605 23.799 7.75935 23.3716 7.58607C22.9443 7.41279 22.4866 7.32641 22.0255 7.33197C21.5693 7.32921 21.1171 7.41639 20.6946 7.58851C20.2722 7.76064 19.8878 8.01433 19.5635 8.33509C19.2391 8.65585 18.9812 9.03739 18.8044 9.4579C18.6276 9.87841 18.5354 10.3296 18.5331 10.7858C18.528 11.2471 18.6142 11.7048 18.7867 12.1326C18.9593 12.5605 19.2148 12.9499 19.5385 13.2786C19.8623 13.6072 20.2478 13.8686 20.673 14.0476C21.0981 14.2266 21.5545 14.3197 22.0158 14.3216C22.4772 14.3248 22.9346 14.2367 23.3618 14.0624C23.789 13.8881 24.1775 13.631 24.5049 13.3059C24.8323 12.9809 25.0922 12.5943 25.2697 12.1684C25.4471 11.7425 25.5386 11.2857 25.5388 10.8244Z" fill="#2E296C"/>
</g>
<defs>
<clipPath id="clip0_829_2517">
<rect width="44.085" height="58" fill="white"/>
</clipPath>
</defs>
</svg>
