<svg width="25" height="25" viewBox="0 0 25 25" fill="none" xmlns="http://www.w3.org/2000/svg">
<g clip-path="url(#clip0_1194_2299)">
<path d="M11.7178 0H13.2803C13.3419 0.0176344 13.4048 0.0310123 13.4683 0.0400391C15.4145 0.186523 17.2368 0.744141 18.897 1.76611C22.1235 3.75293 24.1108 6.60986 24.8052 10.3457C24.8897 10.7998 24.9341 11.2607 24.9971 11.7188V13.2813C24.977 13.4414 24.9546 13.6016 24.9375 13.7622C24.6699 16.2344 23.7739 18.4497 22.1958 20.3755C20.2334 22.7681 17.7231 24.2515 14.6738 24.8066C14.2124 24.8906 13.7461 24.9365 13.2783 25.002H11.7158C11.4106 24.9644 11.105 24.9316 10.8008 24.8887C8.49463 24.5605 6.42334 23.6816 4.62304 22.2031C2.2334 20.2383 0.745117 17.7314 0.191406 14.6836C0.107422 14.2212 0.0610352 13.7524 -0.00390625 13.2866V11.7188C0.015625 11.5586 0.0375987 11.3989 0.0551769 11.2383C0.344239 8.59033 1.3457 6.24902 3.11182 4.25293C5.0542 2.05811 7.47314 0.692871 10.3667 0.188477C10.8164 0.11084 11.2686 0.0620117 11.7178 0ZM12.522 5.28516V5.37207C11.4893 5.37207 10.4556 5.35303 9.42285 5.37793C8.59277 5.39795 7.79394 5.59277 7.09082 6.06543C5.91894 6.85449 5.4126 8.021 5.38526 9.37842C5.34326 11.46 5.35889 13.5435 5.38232 15.6255C5.39111 16.4399 5.60205 17.2207 6.06592 17.9087C6.85596 19.0806 8.02197 19.5874 9.37939 19.6177C11.4609 19.6602 13.5444 19.6538 15.626 19.6177C16.7671 19.5981 17.7974 19.2217 18.5928 18.3481C19.3081 17.5615 19.5991 16.6055 19.6226 15.5728C19.6611 13.8638 19.6646 12.1548 19.666 10.4458C19.6624 9.94124 19.6334 9.43719 19.5791 8.93555C19.3838 6.99561 18 5.58887 16.0581 5.42725C14.8823 5.33008 13.7002 5.32959 12.522 5.28516Z" fill="#2E296C"/>
<path d="M12.4985 18.4082C11.4174 18.3774 10.3344 18.3745 9.25529 18.3105C7.72111 18.2182 6.73966 17.2802 6.69816 15.7417C6.63908 13.5639 6.65666 11.3833 6.69816 9.20505C6.71671 8.26169 7.14689 7.47995 8.02238 7.01706C8.51457 6.75632 9.05607 6.66159 9.60246 6.66111C11.6532 6.66111 13.704 6.63718 15.7499 6.70212C17.268 6.75095 18.2548 7.73093 18.2948 9.24997C18.3525 11.4192 18.3525 13.5898 18.2948 15.7617C18.2553 17.2632 17.2597 18.2031 15.7651 18.3125C15.2221 18.351 14.6767 18.3652 14.1318 18.3755C13.5868 18.3857 13.0419 18.3779 12.497 18.3779L12.4985 18.4082ZM16.1811 12.4956C16.18 11.7675 15.9632 11.0561 15.5581 10.4512C15.153 9.84629 14.5777 9.37499 13.9049 9.09682C13.2321 8.81866 12.4919 8.74611 11.7779 8.88833C11.0639 9.03056 10.408 9.38118 9.89313 9.89592C9.37825 10.4107 9.02746 11.0664 8.88505 11.7804C8.74263 12.4944 8.81499 13.2346 9.09298 13.9074C9.37097 14.5803 9.84212 15.1558 10.4469 15.561C11.0517 15.9663 11.7631 16.1833 12.4911 16.1845C12.9762 16.1862 13.4569 16.0919 13.9054 15.907C14.3539 15.7222 14.7614 15.4504 15.1044 15.1074C15.4474 14.7644 15.7192 14.3569 15.9041 13.9084C16.0889 13.4599 16.1832 12.9792 16.1816 12.4941L16.1811 12.4956ZM17.186 8.66941C17.1864 8.50023 17.1368 8.3347 17.0435 8.19362C16.9501 8.05254 16.8171 7.94222 16.6612 7.87651C16.5053 7.81081 16.3335 7.79267 16.1673 7.82436C16.0011 7.85606 15.848 7.93618 15.7273 8.05465C15.6065 8.17312 15.5235 8.32465 15.4886 8.49019C15.4537 8.65572 15.4685 8.82788 15.5312 8.98501C15.5939 9.14214 15.7017 9.27723 15.8409 9.37328C15.9802 9.46934 16.1447 9.52208 16.3139 9.52488C16.4277 9.52728 16.5408 9.50692 16.6466 9.46499C16.7524 9.42306 16.8487 9.36041 16.93 9.28071C17.0112 9.20101 17.0757 9.10588 17.1197 9.0009C17.1636 8.89592 17.1862 8.78322 17.186 8.66941Z" fill="#2E296C"/>
<path d="M12.499 10.1074C12.9725 10.1068 13.4355 10.2467 13.8294 10.5094C14.2233 10.7721 14.5304 11.1457 14.7118 11.583C14.8933 12.0204 14.9409 12.5017 14.8487 12.9661C14.7565 13.4304 14.5285 13.857 14.1938 14.1918C13.859 14.5266 13.4324 14.7545 12.968 14.8467C12.5036 14.939 12.0223 14.8913 11.585 14.7099C11.1477 14.5284 10.7741 14.2213 10.5114 13.8274C10.2487 13.4335 10.1088 12.9705 10.1094 12.4971C10.1102 11.8635 10.3622 11.2562 10.8101 10.8082C11.2581 10.3602 11.8655 10.1082 12.499 10.1074Z" fill="#2E296C"/>
</g>
<defs>
<clipPath id="clip0_1194_2299">
<rect width="25" height="25" fill="white"/>
</clipPath>
</defs>
</svg>
