<svg width="26" height="25" viewBox="0 0 26 25" fill="none" xmlns="http://www.w3.org/2000/svg">
<g clip-path="url(#clip0_1194_2296)">
<path d="M12.1062 0H13.6199C13.6988 0.014974 13.7778 0.03125 13.8567 0.0442709C14.5222 0.151042 15.2001 0.207682 15.8506 0.369792C22.3699 2.01367 26.3851 8.36003 25.0958 14.957C24.1172 19.9733 20.0406 23.9479 14.9913 24.806C14.5346 24.8835 14.0779 24.9362 13.6212 24.998H12.0553C12.0028 24.9799 11.9489 24.9664 11.8941 24.9577C10.8378 24.893 9.79616 24.6779 8.80085 24.319C4.26109 22.6389 1.5047 19.4249 0.531673 14.6771C0.43772 14.2174 0.401183 13.7467 0.335938 13.2813V11.7188C0.401183 11.263 0.449464 10.8021 0.527105 10.347C1.39095 5.28841 5.36504 1.2181 10.3961 0.246094C10.9605 0.13737 11.5359 0.0807292 12.1062 0ZM19.4091 19.071C19.4143 18.9824 19.4228 18.9115 19.4228 18.8398C19.4228 17.2943 19.4404 15.748 19.4136 14.2025C19.4054 13.5688 19.3417 12.937 19.2231 12.3145C19.0222 11.2858 18.4506 10.5273 17.3962 10.2383C17.0436 10.1421 16.6806 10.0883 16.3151 10.0781C15.1838 10.0462 14.2443 10.4303 13.6088 11.416C13.599 11.4316 13.5735 11.4368 13.5213 11.4655V10.3119H10.9311V19.0638H13.6264V18.7533C13.6264 17.3945 13.6225 16.0352 13.6264 14.6771C13.6264 14.1797 13.6662 13.6836 13.8998 13.2285C14.196 12.651 14.7864 12.3939 15.5661 12.4987C16.1011 12.571 16.4717 12.9362 16.5905 13.5599C16.6521 13.8873 16.6842 14.2196 16.6864 14.5527C16.6968 15.9681 16.6916 17.3841 16.6923 18.7995V19.071H19.4091ZM9.18384 19.071V10.3158H6.49508V19.0703L9.18384 19.071ZM7.82217 9.0905C8.1373 9.09308 8.44609 9.00216 8.70934 8.82928C8.97259 8.6564 9.17841 8.40937 9.30068 8.11954C9.42296 7.82972 9.45616 7.51017 9.39608 7.20148C9.336 6.89278 9.18534 6.60887 8.96324 6.38578C8.74114 6.16269 8.45761 6.01049 8.14865 5.9485C7.83969 5.88652 7.51924 5.91754 7.22798 6.03763C6.93673 6.15772 6.68781 6.36147 6.51282 6.623C6.33784 6.88453 6.24469 7.19205 6.24519 7.50651C6.24587 7.92454 6.41192 8.3254 6.70724 8.62191C7.00255 8.91841 7.40325 9.08658 7.82217 9.08984V9.0905Z" fill="#2E296C"/>
</g>
<defs>
<clipPath id="clip0_1194_2296">
<rect width="25" height="25" fill="white" transform="translate(0.335938)"/>
</clipPath>
</defs>
</svg>
