<svg width="26" height="26" viewBox="0 0 26 26" fill="none" xmlns="http://www.w3.org/2000/svg">
<g clip-path="url(#clip0_1241_5)">
<path d="M25.9612 12.1993V13.8239C25.9426 13.8883 25.9285 13.9538 25.919 14.0201C25.7494 16.2469 25.0609 18.3032 23.8144 20.1537C21.7445 23.2259 18.8835 25.1179 15.236 25.7987C14.7554 25.8883 14.2696 25.9342 13.7862 26H12.1639C12.0914 25.9812 12.0178 25.9668 11.9436 25.9568C10.3049 25.8366 8.70564 25.3968 7.23584 24.6624C2.26486 22.1837 -0.553977 17.0205 0.0912167 11.4809C0.521251 7.78052 2.2756 4.79176 5.25814 2.57995C9.4649 -0.540558 14.953 -0.855237 19.4583 1.77219C22.9218 3.79174 25.0182 6.8229 25.7599 10.7732C25.8495 11.2448 25.895 11.7246 25.9612 12.1993ZM5.51514 20.6304C5.87619 20.6304 6.17814 20.6109 6.47643 20.6363C6.74276 20.6589 6.90646 20.5552 7.0744 20.3584C8.62717 18.5387 10.1858 16.7243 11.7502 14.915C11.8039 14.8525 11.8611 14.7934 11.9286 14.7196C11.9993 14.8214 12.0575 14.9034 12.1144 14.9859C13.3629 16.8033 14.6107 18.6214 15.8577 20.4401C15.946 20.5693 16.0319 20.636 16.2013 20.6349C17.5366 20.6267 18.8722 20.6307 20.2076 20.6295C20.279 20.6252 20.3502 20.6172 20.4208 20.6055L14.3974 11.8372C16.249 9.68387 18.0809 7.55348 19.9557 5.37362C19.572 5.37362 19.2528 5.38804 18.9356 5.36853C18.7173 5.35496 18.5796 5.43441 18.4411 5.59642C16.9582 7.3305 15.4713 9.06148 13.9801 10.7893C13.9278 10.8501 13.8716 10.9072 13.8088 10.9754C13.7186 10.8465 13.6408 10.7365 13.5645 10.6254C12.4064 8.94028 11.2492 7.25473 10.0928 5.56871C10.0055 5.44148 9.9201 5.36825 9.74961 5.3708C8.41427 5.37843 7.07865 5.37475 5.74331 5.37588C5.67127 5.38056 5.59954 5.38915 5.52843 5.40161L11.3394 13.8609L5.51514 20.6304Z" fill="#2E296C"/>
<path d="M18.6205 19.6917C17.9533 19.6917 17.3378 19.699 16.7228 19.6832C16.6406 19.6812 16.5402 19.5783 16.4834 19.4974C14.9604 17.3274 13.4397 15.1544 11.9212 12.9785C10.4453 10.8674 8.96977 8.75581 7.49448 6.64362C7.44161 6.56785 7.39015 6.49123 7.32031 6.38916C7.40174 6.37983 7.46168 6.36739 7.52275 6.36711C8.05513 6.3657 8.5878 6.35806 9.11962 6.37333C9.22451 6.37616 9.36673 6.44118 9.42497 6.52459C12.456 10.8468 15.4825 15.1726 18.5043 19.502C18.5371 19.5475 18.5643 19.5987 18.6205 19.6917Z" fill="#2E296C"/>
</g>
<defs>
<clipPath id="clip0_1241_5">
<rect width="25.9613" height="26" fill="white"/>
</clipPath>
</defs>
</svg>
