<svg width="63" height="61" viewBox="0 0 63 61" fill="none" xmlns="http://www.w3.org/2000/svg">
<g clip-path="url(#clip0_937_4195)">
<path d="M21.1249 16.1003V9.75704C21.1249 8.61742 21.4333 8.31073 22.5796 8.30905H24.5789C24.5789 7.45266 24.5789 6.66331 24.5789 5.87228C24.589 4.88685 24.9141 4.55502 25.9063 4.55334C28.9654 4.55334 32.0239 4.55334 35.0819 4.55334C36.0975 4.55334 36.4343 4.89858 36.4377 5.91586C36.4377 6.6851 36.4377 7.45434 36.4377 8.30905H38.4689C39.5498 8.30905 39.8649 8.6191 39.8649 9.67659C39.8649 12.2698 39.8649 14.8619 39.8649 17.4528V18.1885H43.2955V6.62476C43.2067 6.60298 43.1128 6.57281 43.0173 6.55605C42.3771 6.44544 42.0419 6.08512 42.062 5.52537C42.0855 4.9321 42.5045 4.56005 43.2184 4.55502C45.2094 4.54329 47.1987 4.55502 49.188 4.55502C49.4813 4.55502 49.7762 4.54496 50.0678 4.55502C50.7382 4.58686 51.1454 4.9455 51.1689 5.51699C51.1924 6.08847 50.8505 6.4555 50.1634 6.5594C50.103 6.5594 50.0427 6.58287 49.9455 6.60298V18.2455H52.3353C52.8381 18.2455 53.3409 18.2455 53.8437 18.2455C55.1006 18.2455 55.3721 18.5086 55.3721 19.7404C55.3721 21.5605 55.3721 23.3794 55.3721 25.1972V32.0181C56.0676 32.0181 56.691 32.0097 57.3145 32.0181C58.1105 32.0332 58.4759 32.3768 58.4876 33.1628C58.5044 34.2907 58.4876 35.4202 58.4876 36.5498C58.4876 37.128 58.2144 37.4749 57.6765 37.6743C56.5603 38.0899 55.4425 38.5123 54.3481 38.9731C54.0724 39.1191 53.8556 39.3559 53.7347 39.6435C52.9973 41.344 52.2845 43.0551 51.5963 44.7768C51.486 45.0486 51.4742 45.3503 51.5627 45.6298C52.0002 46.7142 52.4811 47.7817 52.9806 48.8375C53.2571 49.4275 53.1951 49.9001 52.7241 50.3643C51.0985 51.9653 49.4841 53.5764 47.8808 55.1976C47.4165 55.6685 46.9423 55.7423 46.3523 55.4691C45.2898 54.9764 44.2223 54.4971 43.1363 54.0597C42.8604 53.9675 42.5611 53.9746 42.2899 54.0798C40.5459 54.7736 38.8113 55.4909 37.0862 56.2316C36.8167 56.3462 36.5956 56.5513 36.4611 56.8115C36.0036 57.8874 35.5897 58.9801 35.1891 60.0795C34.9562 60.718 34.5422 60.9862 33.8584 60.9812C31.6178 60.9611 29.3771 60.9577 27.1364 60.9812C26.4174 60.9812 26.0135 60.6828 25.7772 60.0276C25.3867 58.9466 24.9778 57.874 24.5287 56.8182C24.3992 56.5559 24.1814 56.3476 23.9136 56.23C22.2075 55.4976 20.4797 54.8188 18.7786 54.0781C18.4183 53.9222 18.1518 53.887 17.7965 54.0546C16.7357 54.5574 15.6531 54.9982 14.5889 55.4859C14.0174 55.7473 13.5582 55.6535 13.1174 55.2043C11.5141 53.582 9.89967 51.9704 8.27404 50.3693C7.80478 49.9084 7.72433 49.4459 8.00589 48.8493C8.50866 47.7934 8.98127 46.7242 9.41701 45.6399C9.50985 45.3631 9.50333 45.0627 9.39858 44.7902C8.70475 43.0495 7.9869 41.3177 7.24503 39.5949C7.12827 39.3254 6.9207 39.1054 6.65846 38.9731C5.58253 38.5173 4.47978 38.1017 3.38542 37.7028C2.77539 37.4816 2.47707 37.1062 2.49383 36.4392C2.52065 35.3532 2.49383 34.2605 2.50389 33.1795C2.50389 32.3969 2.87594 32.0299 3.65691 32.0064C4.2837 31.993 4.91217 32.0064 5.63616 32.0064V31.2589C5.63616 27.3708 5.63616 23.4827 5.63616 19.5946C5.63616 18.5623 5.94955 18.2539 6.98526 18.2539C8.67961 18.2539 10.3756 18.2539 12.1688 18.2539V16.3484C12.1688 15.554 12.1688 14.7596 12.1688 13.9652C12.1806 12.9496 12.8158 12.5256 13.7559 12.9295C15.9463 13.8697 18.1267 14.8283 20.3138 15.7786C20.5735 15.8825 20.8216 15.9763 21.1249 16.1003ZM4.53341 34.0577C4.53341 34.5404 4.55855 34.9962 4.53341 35.447C4.50492 35.8358 4.61888 36.0369 5.01272 36.1744C6.05848 36.5397 7.07576 36.9805 8.11818 37.3576C8.34875 37.4258 8.55644 37.5554 8.71908 37.7325C8.88172 37.9096 8.9932 38.1276 9.04161 38.3631C9.55827 40.4982 10.4065 42.5391 11.5555 44.4115C11.6886 44.6115 11.7648 44.844 11.7757 45.0841C11.7866 45.3242 11.7319 45.5627 11.6175 45.774C11.1465 46.7795 10.7292 47.8018 10.2533 48.8007C10.0857 49.1643 10.1376 49.3789 10.4209 49.6537C11.5795 50.771 12.7208 51.9089 13.8448 53.0675C14.1313 53.3625 14.3475 53.4446 14.7497 53.2468C15.7285 52.7608 16.7675 52.3553 17.7731 51.886C17.9759 51.7778 18.204 51.7259 18.4336 51.736C18.6633 51.746 18.886 51.8175 19.0786 51.943C20.9751 53.0977 23.0392 53.9514 25.1974 54.4736C25.4231 54.5209 25.6322 54.6278 25.8028 54.7831C25.9734 54.9384 26.0994 55.1365 26.1677 55.3568C26.5649 56.4327 27.0057 57.4953 27.3961 58.5729C27.4259 58.7023 27.5033 58.8157 27.613 58.8905C27.7226 58.9654 27.8564 58.9962 27.9877 58.9768C29.6637 58.9617 31.3396 58.9583 33.0155 58.9768C33.1575 58.9979 33.3023 58.9644 33.4205 58.8829C33.5387 58.8013 33.6216 58.678 33.6523 58.5377C34.0394 57.4785 34.4651 56.4344 34.8539 55.3753C34.9264 55.1459 35.0592 54.9402 35.2385 54.7798C35.4177 54.6193 35.6369 54.5101 35.8729 54.4636C37.9914 53.9554 40.0179 53.1203 41.8793 51.9882C42.0847 51.8454 42.3252 51.7615 42.5748 51.7455C42.8244 51.7295 43.0736 51.7822 43.2955 51.8977C44.4502 52.4357 45.6216 52.9301 46.825 53.4597C48.1355 52.1441 49.441 50.8486 50.7198 49.5247C50.7807 49.4309 50.8192 49.3244 50.8323 49.2134C50.8453 49.1023 50.8327 48.9898 50.7952 48.8845C50.3578 47.8219 49.8852 46.7762 49.4075 45.7304C49.3034 45.5253 49.2555 45.2963 49.2687 45.0666C49.282 44.837 49.3559 44.6149 49.4829 44.4232C50.625 42.5467 51.4728 40.5064 51.9968 38.3732C52.0441 38.1392 52.1535 37.9224 52.3137 37.7454C52.4738 37.5684 52.6787 37.4379 52.9068 37.3676C53.9677 36.9822 55.0201 36.5699 56.0659 36.1476C56.2335 36.0805 56.4597 35.9079 56.4715 35.7688C56.5184 35.2141 56.4916 34.6543 56.4916 34.0644H42.5614C41.8693 40.329 36.9723 44.5975 31.4217 45.0198C28.8955 45.2373 26.3675 44.6222 24.2236 43.2685C20.8182 41.1351 18.9579 38.0045 18.4837 34.0627L4.53341 34.0577ZM23.1829 10.3335V31.9745H37.8069V10.3335H23.1829ZM20.5819 34.0594C20.8283 38.3145 24.7499 43.2199 30.8368 43.0255C36.7712 42.8361 40.2319 37.9441 40.4381 34.0594H20.5819ZM14.2419 15.3177V31.9762H21.1249C21.1249 27.5049 21.1249 23.0822 21.1148 18.6578C21.1099 18.5717 21.0855 18.4879 21.0434 18.4127C21.0013 18.3375 20.9426 18.2729 20.8718 18.2237C18.6881 17.2467 16.4893 16.2931 14.2419 15.3177ZM53.3258 31.988V20.2935H39.9185V31.9846L53.3258 31.988ZM7.70255 20.2935V31.9611H12.1521V20.2935H7.70255ZM26.6269 8.25542H34.3864V6.60298H26.6269V8.25542ZM45.3971 6.59125V9.77547H47.8456V6.59125H45.3971ZM47.8741 18.217V15.0496H45.4004V18.217H47.8741ZM47.8741 11.8653H45.3988V12.9413H47.8741V11.8653Z" fill="#333333"/>
<path d="M1.73997 6.93798C1.33776 6.8257 1.01598 6.78883 0.744484 6.6514C0.564816 6.56283 0.407276 6.43512 0.283446 6.27767C0.159616 6.12021 0.0726463 5.93701 0.0289197 5.74153C-0.0148069 5.54605 -0.0141841 5.34325 0.0307609 5.14804C0.0757058 4.95283 0.163823 4.77018 0.288632 4.6135C1.33105 3.23479 2.40531 1.87563 3.51141 0.536016C3.63513 0.370257 3.79583 0.235663 3.98072 0.142947C4.16562 0.0502317 4.36961 0.00195313 4.57645 0.00195312C4.78329 0.00195313 4.98727 0.0502317 5.17217 0.142947C5.35706 0.235663 5.51776 0.370257 5.64148 0.536016C6.74758 1.87674 7.83022 3.22752 8.86593 4.61518C9.53629 5.51849 9.01174 6.638 7.89056 6.8257L7.42801 6.90782V12.869C7.42801 14.2097 7.19002 14.4477 5.87276 14.4477C4.89068 14.4477 3.90692 14.4477 2.92316 14.4477C2.09694 14.4477 1.75003 14.0941 1.75003 13.2595C1.74165 11.3808 1.75003 9.50212 1.75003 7.62343L1.73997 6.93798ZM5.41692 12.4132C5.41692 10.3283 5.43535 8.3072 5.41692 6.28773C5.40686 5.5386 5.57278 4.96544 6.47609 4.79115L4.5907 2.39627L2.69021 4.79115C3.63542 4.98052 3.76112 5.60396 3.75106 6.35812C3.72928 8.15302 3.75106 9.94624 3.75106 11.7411V12.4115L5.41692 12.4132Z" fill="#333333"/>
<path d="M54.9328 6.88643C54.7016 6.85459 54.5574 6.8395 54.415 6.81436C53.3441 6.62331 52.8346 5.49542 53.4899 4.6206C54.5273 3.23295 55.6082 1.87546 56.7127 0.539763C57.3177 -0.190933 58.278 -0.169146 58.8913 0.573281C59.9639 1.88272 61.0125 3.2106 62.037 4.55692C62.7426 5.4904 62.2465 6.62499 61.0968 6.82274L60.6242 6.91157V9.67514C60.6242 10.9069 60.6343 12.1387 60.6242 13.3705C60.6142 14.0526 60.2505 14.428 59.5801 14.4381C58.3869 14.4559 57.1942 14.4559 56.0021 14.4381C55.2915 14.428 54.9479 14.0275 54.9446 13.2515C54.9446 11.3728 54.9446 9.49414 54.9446 7.61545L54.9328 6.88643ZM55.9149 4.7597C56.8015 5.11164 56.9423 5.31778 56.9439 6.20098C56.9439 7.34842 56.9439 8.49586 56.9439 9.6433V12.3968H58.6098V11.6929C58.6098 9.96172 58.6215 8.23051 58.6098 6.49762C58.6014 5.70826 58.6098 4.95913 59.679 4.78652L57.7852 2.39164L55.9149 4.7597Z" fill="#333333"/>
<path d="M30.488 12.2844C31.8907 12.2844 33.2918 12.2844 34.6945 12.2844C35.5626 12.2844 35.9246 12.6363 35.9263 13.4977C35.9364 16.2764 35.9364 19.055 35.9263 21.8337C35.9263 22.7186 35.5476 23.0789 34.6459 23.0806C31.8818 23.0806 29.1188 23.0806 26.3569 23.0806C25.4586 23.0806 25.1117 22.7253 25.11 21.8186C25.1033 19.0601 25.1033 16.3026 25.11 13.5463C25.11 12.5978 25.4351 12.286 26.4038 12.2827C27.7663 12.281 29.1272 12.2844 30.488 12.2844ZM27.158 21.0393H33.88V14.3357H27.158V21.0393Z" fill="#333333"/>
<path d="M30.5502 24.9627C31.9295 24.9627 33.3088 24.9627 34.688 24.9627C35.4707 24.9627 35.9366 25.3566 35.9182 25.9783C35.9014 26.5699 35.4355 26.9638 34.7031 26.9654C31.9032 26.9721 29.1034 26.9721 26.3035 26.9654C25.5493 26.9654 25.1303 26.585 25.1203 25.9599C25.1102 25.3348 25.5326 24.9644 26.2934 24.9543C27.7079 24.9577 29.1291 24.9627 30.5502 24.9627Z" fill="#333333"/>
<path d="M46.6321 30.5383C45.2277 30.5383 43.8244 30.5383 42.4222 30.5383C41.2356 30.5383 40.9675 30.2735 40.9658 29.1172C40.9658 27.758 40.9658 26.3988 40.9658 25.0413C40.9658 24.1531 41.2893 23.8012 42.1591 23.7995C45.1344 23.7872 48.1085 23.7872 51.0816 23.7995C51.9514 23.7995 52.2899 24.1632 52.2933 25.033C52.2933 26.4541 52.2933 27.8759 52.2933 29.2982C52.2933 30.1948 51.9497 30.5333 51.028 30.5383C49.5649 30.545 48.1069 30.5383 46.6321 30.5383ZM50.2604 25.8458H43.0205V28.4887H50.2604V25.8458Z" fill="#333333"/>
</g>
<defs>
<clipPath id="clip0_937_4195">
<rect width="62.3605" height="60.9846" fill="white"/>
</clipPath>
</defs>
</svg>
