<svg width="70" height="70" viewBox="0 0 70 70" fill="none" xmlns="http://www.w3.org/2000/svg">
<g clip-path="url(#clip0_773_40)">
<path d="M26.9301 -0.000136284C27.8433 0.313983 28.8276 0.520352 29.6695 0.971442C30.5571 1.44445 31.3132 2.15304 32.2062 2.80867C33.2085 2.04428 34.4175 1.59887 35.6762 1.53028C38.0923 1.42071 40.019 2.37037 41.4125 4.34457C41.6536 4.68609 41.8873 4.82488 42.2964 4.79931C43.5748 4.71531 44.7893 4.92898 45.8558 5.71245C46.6635 6.29869 47.2674 7.12308 47.5829 8.06996C47.8983 9.01685 47.9093 10.0387 47.6145 10.9922C47.3254 11.9475 46.7426 12.7875 45.9489 13.3927C45.1551 13.9979 44.1909 14.3376 43.1931 14.3635C42.0772 14.3909 40.9596 14.3836 39.8437 14.3635C38.9397 14.3635 38.3681 13.8156 38.359 13.0212C38.3498 12.2268 38.9397 11.6497 39.8821 11.6387C40.8847 11.6259 41.891 11.6387 42.8899 11.6387C44.1994 11.6241 45.1216 10.742 45.0979 9.54763C45.076 8.38429 44.1519 7.53873 42.8826 7.52594C42.2453 7.52594 41.6042 7.52594 40.9687 7.52594C40.3332 7.52594 39.8108 7.252 39.5698 6.63289C39.325 6.00576 38.9148 5.45671 38.3828 5.04416C37.8508 4.63162 37.2169 4.37101 36.5486 4.29007C35.8802 4.20913 35.2025 4.31088 34.5874 4.5845C33.9723 4.85812 33.4429 5.29337 33.0555 5.84394C32.3396 6.82648 31.2073 6.7096 30.6265 5.64671C29.5107 3.60128 27.7958 2.59135 25.4746 2.76484C23.2831 2.92921 21.6303 4.41945 20.9509 6.72421C20.8808 7.02427 20.7208 7.29583 20.4924 7.50269C20.264 7.70955 19.978 7.84189 19.6725 7.88207C16.5112 8.49387 15.0356 10.3001 15.0338 13.5435V16.1332H35.3054C36.7664 16.1332 37.2066 16.5569 37.1847 17.996C37.0451 26.4968 37.9653 34.9819 39.9241 43.2552C39.9748 43.5377 40.096 43.8028 40.2765 44.0259C40.4263 42.963 40.6418 41.9056 40.7148 40.8372C40.9322 37.3673 41.1075 33.8846 41.2627 30.4055C41.3212 29.1271 41.7083 28.6669 42.9831 28.6669C48.3146 28.6669 53.6455 28.6669 58.9758 28.6669C60.2834 28.6669 60.7217 29.1143 60.7089 30.453C60.5906 39.0957 61.9184 47.6974 64.6372 55.9021C65.9671 59.8721 67.6111 63.7298 69.5536 67.4387C69.6743 67.6578 69.7829 67.8834 69.8786 68.1144C69.959 68.3097 69.9927 68.521 69.9771 68.7316C69.9615 68.9421 69.8969 69.1461 69.7886 69.3274C69.6802 69.5086 69.5311 69.6621 69.353 69.7755C69.1749 69.889 68.9728 69.9593 68.7628 69.9809C68.5586 69.9964 68.3537 70.0001 68.1491 69.9919C46.0512 69.9919 23.9533 69.9967 1.85537 70.0065C1.01711 70.0065 0.394349 69.7855 -0.00195312 69.0349V68.2149C0.880138 66.4744 1.80606 64.7541 2.63519 62.9881C8.46283 50.5566 11.6789 37.4787 12.1793 23.756C12.3108 20.1619 12.2505 16.5624 12.2962 12.9664C12.2949 11.2687 12.8469 9.61677 13.8684 8.26077C14.8899 6.90476 16.3255 5.9185 17.9576 5.45129C18.1392 5.40368 18.3063 5.31215 18.4442 5.18477C18.5821 5.05738 18.6866 4.89804 18.7484 4.72078C19.1917 3.6931 19.8522 2.77352 20.6844 2.02514C21.5167 1.27677 22.501 0.717322 23.5698 0.385208C24.0428 0.228148 24.5304 0.12405 25.0107 -0.00561523L26.9301 -0.000136284ZM15.0338 22.8283H16.0711C18.9931 22.8283 21.9042 22.8283 24.8208 22.8283C25.9312 22.8283 26.616 23.7542 26.2234 24.6984C25.9531 25.3467 25.4143 25.5641 24.7349 25.5622C21.7052 25.5531 18.6754 25.5622 15.6437 25.5622H14.8712C14.0524 40.0699 10.2284 54.2492 3.64147 67.2013H45.8284C38.1581 51.9823 34.3625 35.8831 34.4416 18.9036H15.0338V22.8283ZM43.8889 36.4779C43.8487 36.834 43.8049 37.1244 43.7866 37.4184C43.4982 41.5272 42.8932 45.6077 41.9768 49.6234C41.8958 49.9928 41.9096 50.3767 42.017 50.7393C43.7632 56.2211 45.9674 61.5464 48.6062 66.6589C48.8345 67.1045 49.0792 67.2707 49.5869 67.2689C54.9379 67.2488 60.287 67.2561 65.638 67.2543C65.8535 67.2543 66.0672 67.2342 66.3685 67.2177C61.5767 57.6308 58.7684 47.1756 58.1119 36.4779H43.8889ZM57.9622 31.4447H44.035V33.6581H57.9622V31.4447Z" fill="#333333"/>
<path d="M49.6017 19.6927C49.5849 20.6275 49.2426 21.5272 48.6338 22.2367C48.0074 22.9672 48.0001 23.2594 48.5425 24.0356C49.0265 24.7241 48.9479 25.4966 48.3453 25.9824C47.7426 26.4682 47.0139 26.3586 46.4477 25.7742C45.1328 24.4191 45.0762 22.2239 46.3181 20.7264C47.0267 19.8699 47.0358 19.7037 46.4149 18.7631C46.2123 18.4844 46.1229 18.1392 46.165 17.7972C46.207 17.4551 46.3773 17.1418 46.6413 16.9204C46.9068 16.6988 47.2469 16.587 47.5921 16.6077C47.9373 16.6284 48.2616 16.7801 48.4987 17.0318C49.2237 17.7587 49.5542 18.659 49.6017 19.6927Z" fill="#333333"/>
<path d="M52.3684 23.1699C52.3862 22.2714 52.7081 21.4055 53.2815 20.7136C53.9737 19.8881 53.9828 19.6635 53.3966 18.8051C52.9473 18.1458 53.0313 17.3733 53.6085 16.9094C54.1856 16.4456 54.9562 16.5204 55.5114 17.0921C56.8227 18.4344 56.8884 20.6241 55.663 22.1454C54.9325 23.0457 54.9325 23.1754 55.5498 24.1031C55.7533 24.3812 55.8443 24.7259 55.8047 25.0682C55.7651 25.4105 55.5977 25.7252 55.3361 25.9495C55.0743 26.1747 54.736 26.2907 54.391 26.2737C54.0461 26.2567 53.7209 26.108 53.4824 25.8582C52.7697 25.145 52.369 24.1782 52.3684 23.1699Z" fill="#333333"/>
<path d="M27.8178 48.8583C28.079 50.071 28.8624 50.1677 29.8358 50.1367C31.6092 50.0691 33.3879 50.1111 35.1649 50.1203C36.4579 50.1203 36.9656 50.6298 36.8871 51.9191C36.6223 56.2438 34.6736 59.5895 30.9955 61.9052C30.1207 62.4531 29.3848 62.2705 28.8643 61.3719C27.7959 59.5457 26.7476 57.7084 25.6865 55.8767C25.588 55.7073 25.4463 55.5671 25.2758 55.4704C25.1053 55.3738 24.9122 55.3241 24.7163 55.3265C24.5203 55.3289 24.3285 55.3833 24.1605 55.4842C23.9924 55.585 23.8542 55.7286 23.7598 55.9004C22.7316 57.6719 21.7107 59.4471 20.6826 61.2167C20.0488 62.3125 19.3713 62.4951 18.323 61.8176C14.6851 59.4525 12.7529 56.0995 12.5775 51.7566C12.5319 50.6298 13.0359 50.1294 14.181 50.1221C16.2758 50.1093 18.3814 50.1221 20.4671 50.1221C20.6559 50.1138 20.8396 50.0578 21.0011 49.9595C21.1625 49.8611 21.2965 49.7236 21.3905 49.5596C21.4845 49.3956 21.5356 49.2105 21.5389 49.0214C21.5422 48.8324 21.4977 48.6456 21.4094 48.4784C20.3757 46.685 19.3348 44.8953 18.3047 43.0982C17.6984 42.0408 17.881 41.3432 18.9494 40.7953C22.7846 38.8266 26.6265 38.8199 30.475 40.7752C31.5708 41.3231 31.7534 42.0536 31.1361 43.1293C30.0258 45.045 28.9063 46.9736 27.8178 48.8583ZM28.2105 42.7001C25.8655 41.8472 23.5991 41.8217 21.2505 42.7111C22.1637 44.3036 23.0439 45.8413 23.9425 47.3644C24.1251 47.6877 25.3341 47.6785 25.524 47.3553C26.4189 45.8285 27.2955 44.2908 28.2105 42.7001ZM15.3955 52.8487C15.7522 55.2254 16.9959 57.3788 18.8764 58.8754C19.7895 57.2847 20.688 55.7598 21.5573 54.2239C21.74 53.8988 21.1373 52.8652 20.7611 52.8615C19.0133 52.8378 17.2656 52.8487 15.3955 52.8487ZM34.0637 52.8487H29.1327C28.1301 52.8487 27.6187 53.7345 28.121 54.6019C28.415 55.1133 28.7072 55.6265 29.0031 56.136L30.5937 58.8754C32.5168 57.2793 33.6327 55.3361 34.0637 52.8451V52.8487ZM24.7497 50.3047C24.4398 50.3001 24.1401 50.4159 23.9139 50.6278C23.6877 50.8397 23.5526 51.1311 23.537 51.4407C23.5343 51.5998 23.5636 51.7578 23.623 51.9055C23.6824 52.0531 23.7709 52.1874 23.8831 52.3002C23.9953 52.4131 24.129 52.5024 24.2762 52.5627C24.4235 52.623 24.5814 52.6532 24.7405 52.6515C25.0509 52.651 25.3485 52.5279 25.5684 52.3089C25.7884 52.09 25.9129 51.793 25.9148 51.4827C25.9158 51.1715 25.7936 50.8726 25.575 50.6512C25.3563 50.4298 25.059 50.304 24.7478 50.3011L24.7497 50.3047Z" fill="#333333"/>
<path d="M31.9014 24.2073C31.9014 24.5643 31.7604 24.9069 31.5089 25.1604C31.2575 25.4138 30.9161 25.5577 30.5591 25.5606C30.3767 25.56 30.1962 25.5227 30.0285 25.4509C29.8608 25.3791 29.7092 25.2744 29.5828 25.1428C29.4563 25.0113 29.3577 24.8557 29.2926 24.6853C29.2275 24.5148 29.1974 24.333 29.204 24.1507C29.2141 23.7939 29.3645 23.4554 29.6227 23.2088C29.8809 22.9623 30.2259 22.8276 30.5829 22.834C30.9395 22.8421 31.2785 22.9912 31.5256 23.2485C31.7727 23.5059 31.9078 23.8506 31.9014 24.2073Z" fill="#333333"/>
</g>
<defs>
<clipPath id="clip0_773_40">
<rect width="69.9774" height="70.0066" fill="white"/>
</clipPath>
</defs>
</svg>
