<svg width="56" height="56" viewBox="0 0 56 56" fill="none" xmlns="http://www.w3.org/2000/svg">
<g clip-path="url(#clip0_336_122)">
<path d="M0.514427 55.9998C-0.0820795 55.639 -0.0703798 55.1379 0.0977533 54.5316C1.57343 49.0871 3.03545 43.6387 4.48383 38.1864C5.22362 35.3872 5.49701 32.5266 5.49409 29.6354C5.49409 27.9036 5.49409 26.1719 5.49409 24.4402C5.48634 24.2401 5.50007 24.0398 5.53503 23.8427C5.62714 23.4307 5.94294 23.1662 6.3216 23.2451C6.60523 23.3036 6.85524 23.5987 7.07893 23.8295C7.15934 23.9113 7.13302 24.11 7.13156 24.2532C7.07893 27.2964 7.09501 30.3425 6.94734 33.3798C6.81869 36.0446 6.10522 38.6203 5.40637 41.1872C4.26014 45.402 3.13438 49.6213 1.99985 53.8391C1.95745 53.9954 1.92821 54.1532 1.88581 54.3402H30.6439C30.5737 54.048 30.5138 53.7952 30.445 53.5396C29.062 48.3517 27.6482 43.1668 26.306 37.976C25.6072 35.2644 25.3864 32.4828 25.382 29.685C25.3762 25.8028 25.3762 21.92 25.382 18.0368V17.3619H7.18565C7.16189 17.4987 7.1453 17.6367 7.13595 17.7753C7.13595 18.4503 7.13595 19.1252 7.13595 19.7987C7.13595 20.6505 6.87863 21.0201 6.30259 21.0113C5.72656 21.0026 5.49702 20.6417 5.49702 19.825C5.49702 17.3648 5.49702 14.904 5.49702 12.4428C5.49702 11.5166 5.7441 11.274 6.66664 11.274H15.4022V8.02048C14.8277 8.18995 14.2677 8.40179 13.6902 8.51867C9.82754 9.29736 6.36692 6.96859 5.45169 2.99771C5.1856 1.83771 5.24263 1.68284 6.25874 1.09846C9.87286 -0.973179 14.0996 -0.125824 16.2575 3.77786C16.3496 3.65075 16.433 3.54995 16.4988 3.43745C18.6246 -0.190106 23.0413 -1.09152 26.809 1.41841C26.968 1.51197 27.0934 1.65326 27.1675 1.82218C27.2415 1.99109 27.2603 2.17904 27.2213 2.35927C26.7651 5.08103 24.9756 8.01902 21.3498 8.60194C20.0979 8.79298 18.8176 8.64152 17.645 8.16366L17.1362 7.96496V11.2375C17.3219 11.2463 17.5134 11.2623 17.7064 11.2623H25.7475C26.8309 11.2623 27.0327 11.4581 27.0327 12.5232C27.0327 18.2472 27.0327 23.9707 27.0327 29.6938C27.0306 32.2281 27.2907 34.7559 27.809 37.2367C27.8967 37.6531 28.0532 37.7963 28.4874 37.7875C29.6088 37.7612 29.6088 37.7875 29.6088 36.6611V14.1901C29.6088 13.99 29.6014 13.7883 29.6205 13.5897C29.6228 13.3938 29.7027 13.207 29.8428 13.07C29.9829 12.9331 30.1716 12.8572 30.3675 12.8592C30.5612 12.8335 30.7573 12.8846 30.9138 13.0014C31.0703 13.1183 31.1749 13.2916 31.2053 13.4845C31.2444 13.6993 31.2586 13.918 31.2477 14.1361C31.2477 21.7545 31.2477 29.3739 31.2477 36.9942V37.7378H38.4014V6.10224H31.2433C31.2433 7.21695 31.2433 8.30683 31.2433 9.3967C31.2529 9.61442 31.2343 9.83246 31.1877 10.0454C31.0708 10.4734 30.7608 10.6721 30.3208 10.6298C30.1355 10.6228 29.9598 10.5457 29.8292 10.4142C29.6986 10.2826 29.623 10.1064 29.6175 9.92119C29.6051 9.794 29.6007 9.66616 29.6044 9.53842C29.6044 6.7324 29.6044 3.92541 29.6044 1.11745C29.6044 0.258407 29.8558 0.00712261 30.7053 0.00712261H38.9672C39.8137 0.00712261 40.0754 0.264253 40.0769 1.11891C40.0769 4.56385 40.0769 8.00879 40.0769 11.4537V12.1521H47.7861C48.6443 12.1521 48.909 12.4077 48.909 13.2478C48.909 15.9817 48.909 18.7162 48.909 21.4511C48.909 22.1991 48.6312 22.5585 48.08 22.5483C47.5288 22.538 47.2715 22.1757 47.2686 21.4175C47.2686 20.3817 47.2686 19.3458 47.2686 18.2662H40.1163V37.7378H47.2686V37.1242C47.2686 33.4231 47.2686 29.722 47.2686 26.0209C47.259 25.803 47.2762 25.5846 47.3197 25.3708C47.3668 25.1904 47.4753 25.032 47.6265 24.9228C47.7778 24.8136 47.9624 24.7605 48.1486 24.7726C48.3348 24.7847 48.511 24.8613 48.6468 24.9891C48.7826 25.1169 48.8696 25.2881 48.8929 25.4731C48.908 25.6548 48.9129 25.8372 48.9075 26.0195V37.7817H49.6122C51.3257 37.7817 53.0407 37.7934 54.7556 37.7744C55.2571 37.7744 55.684 37.8635 55.9969 38.2799V55.9998H0.514427ZM54.3389 54.3387V39.4676H28.3675C29.7135 44.4699 31.0454 49.4201 32.3632 54.3183H46.3899C46.3899 52.7667 46.3899 51.2502 46.3899 49.7425C46.3899 48.8908 46.6545 48.6161 47.4908 48.6118C48.7862 48.6049 50.081 48.6049 51.3754 48.6118C52.1927 48.6118 52.4617 48.8864 52.4675 49.6972C52.4675 50.8821 52.4675 52.0669 52.4675 53.2518V54.3387H54.3389ZM25.3586 12.9293H7.18127V15.6365H25.3586V12.9293ZM17.2195 6.11831C19.7445 7.77212 23.7153 7.38058 25.23 3.45352C25.594 2.51121 25.5882 2.50682 24.6452 2.11821C20.9272 0.578358 17.7853 2.97433 17.2195 6.11831ZM12.332 7.03287C13.1902 7.05333 14.1171 6.75821 15.0163 6.33307C15.2794 6.20889 15.3511 6.05111 15.2692 5.77499C14.1639 2.02325 10.5907 0.647023 7.32309 2.39433C7.25244 2.44672 7.19585 2.51575 7.15835 2.59527C7.12085 2.6748 7.10362 2.76235 7.10817 2.85015C7.87135 5.64788 9.99275 7.03872 12.332 7.03287ZM47.2393 13.8176H40.1266V16.5452H47.2393V13.8176ZM38.3868 4.38708V1.66531H31.2915V4.38708H38.3868ZM50.795 54.3519V50.2904H48.0727V54.3446L50.795 54.3519Z" fill="#282366"/>
<path d="M15.4346 38.9842C14.2869 38.9842 13.2313 38.9842 12.1758 38.9842C11.1202 38.9842 10.7825 38.4773 11.243 37.5233C12.6309 34.6354 14.0204 31.7486 15.4112 28.8627C15.6305 28.4054 15.9215 28.0899 16.4683 28.2213C17.0151 28.3528 17.0809 28.7707 17.0794 29.244C17.0794 30.591 17.0794 31.9366 17.0794 33.3201C17.2548 33.3376 17.3923 33.3639 17.5312 33.3654C18.442 33.3654 19.3543 33.3654 20.2666 33.3654C21.4509 33.3654 21.7637 33.8504 21.2564 34.9008C20.2301 37.0338 19.2018 39.1654 18.1715 41.2955C17.8309 41.9996 17.4858 42.7024 17.1481 43.4124C16.9347 43.8697 16.6803 44.2627 16.0925 44.1575C15.6218 44.0727 15.4332 43.7192 15.4317 42.9887C15.4317 41.8769 15.4317 40.7651 15.4317 39.6533L15.4346 38.9842ZM13.1626 37.3144C13.417 37.3275 13.5925 37.3421 13.7665 37.3421C14.3673 37.3421 14.9682 37.3421 15.5691 37.3421C16.9741 37.3421 17.0736 37.44 17.0736 38.8177V39.4912L17.2066 39.5058L19.3748 35.0046C18.3601 35.0046 17.4361 35.0046 16.5107 35.0046C15.708 35.0046 15.4434 34.7343 15.4332 33.9162C15.4332 33.5772 15.4332 33.2368 15.4332 32.8935H15.287C14.5969 34.3442 13.8936 35.795 13.1626 37.3144Z" fill="#282366"/>
<path d="M42.5947 41.329H51.3449C52.2031 41.329 52.4604 41.5818 52.4648 42.4291C52.4648 43.5044 52.4648 44.5797 52.4648 45.6549C52.4648 46.4366 52.1856 46.7083 51.4107 46.7083C45.5236 46.7083 39.6355 46.7083 33.7465 46.7083C32.9643 46.7083 32.6938 46.4395 32.6909 45.6637C32.6909 44.5709 32.6909 43.4776 32.6909 42.3838C32.6909 41.6022 32.9599 41.3305 33.7377 41.329C36.6881 41.3271 39.6404 41.3271 42.5947 41.329ZM50.7981 43.0106H34.3693V45.0296H50.7981V43.0106Z" fill="#282366"/>
</g>
<defs>
<clipPath id="clip0_336_122">
<rect width="56" height="56" fill="white"/>
</clipPath>
</defs>
</svg>
