<svg width="55" height="55" viewBox="0 0 55 55" fill="none" xmlns="http://www.w3.org/2000/svg">
<g clip-path="url(#clip0_336_112)">
<path d="M21.161 -2.82931e-05C21.8785 0.246798 22.652 0.408957 23.3135 0.76341C24.011 1.13508 24.6051 1.69188 25.3068 2.20706C26.0944 1.60641 27.0444 1.25642 28.0334 1.20253C29.9319 1.11643 31.4459 1.86265 32.5408 3.41392C32.7302 3.68227 32.9139 3.79133 33.2354 3.77124C34.2399 3.70523 35.1942 3.87313 36.0323 4.48876C36.6669 4.94941 37.1415 5.59719 37.3893 6.34123C37.6372 7.08526 37.6459 7.88822 37.4142 8.63745C37.187 9.38812 36.7291 10.0481 36.1054 10.5237C35.4817 10.9992 34.724 11.2661 33.94 11.2865C33.0632 11.308 32.1849 11.3023 31.3081 11.2865C30.5978 11.2865 30.1486 10.856 30.1414 10.2318C30.1343 9.60753 30.5978 9.15406 31.3383 9.14545C32.1261 9.1354 32.9168 9.14545 33.7018 9.14545C34.7307 9.13397 35.4554 8.44085 35.4367 7.50233C35.4195 6.58822 34.6934 5.9238 33.696 5.91375C33.1952 5.91375 32.6915 5.91375 32.1921 5.91375C31.6927 5.91375 31.2823 5.69849 31.0929 5.21202C30.9005 4.71923 30.5782 4.2878 30.1602 3.96364C29.7421 3.63947 29.2441 3.4347 28.7189 3.37109C28.1937 3.30749 27.6612 3.38745 27.1778 3.60245C26.6945 3.81745 26.2785 4.15946 25.9741 4.59208C25.4116 5.36413 24.5218 5.27229 24.0655 4.4371C23.1887 2.82986 21.8412 2.03629 20.0173 2.17261C18.2952 2.30177 16.9965 3.47276 16.4627 5.28377C16.4076 5.51955 16.2819 5.73293 16.1024 5.89548C15.923 6.05803 15.6982 6.16201 15.4582 6.19358C12.9741 6.67432 11.8146 8.09357 11.8132 10.6422V12.6771H27.7421C28.8901 12.6771 29.2359 13.01 29.2187 14.1408C29.1091 20.8205 29.8321 27.4879 31.3713 33.9888C31.4111 34.2107 31.5064 34.419 31.6482 34.5944C31.7659 33.7592 31.9352 32.9283 31.9926 32.0888C32.1634 29.3622 32.3012 26.6256 32.4231 23.8919C32.4691 22.8873 32.7733 22.5257 33.775 22.5257C37.9643 22.5257 42.1532 22.5257 46.3416 22.5257C47.369 22.5257 47.7134 22.8773 47.7034 23.9292C47.6105 30.7204 48.6538 37.4793 50.7902 43.9264C51.8351 47.0459 53.1269 50.0772 54.6533 52.9915C54.7482 53.1636 54.8335 53.3409 54.9087 53.5225C54.9719 53.6759 54.9984 53.8419 54.9861 54.0074C54.9738 54.1728 54.9231 54.3332 54.8379 54.4756C54.7528 54.618 54.6356 54.7385 54.4957 54.8277C54.3558 54.9168 54.197 54.9721 54.0319 54.9891C53.8715 55.0013 53.7105 55.0042 53.5497 54.9977C36.1858 54.9977 18.8219 55.0015 1.45796 55.0092C0.799282 55.0092 0.309938 54.8355 -0.00146484 54.2457V53.6014C0.691657 52.2338 1.41922 50.882 2.07073 49.4943C6.64992 39.726 9.17702 29.4498 9.57022 18.6669C9.67354 15.8428 9.62618 13.0143 9.66206 10.1887C9.66108 8.85469 10.0948 7.55666 10.8975 6.49115C11.7002 5.42564 12.8281 4.65067 14.1107 4.28355C14.2534 4.24614 14.3847 4.17422 14.493 4.07412C14.6014 3.97402 14.6835 3.84882 14.732 3.70954C15.0804 2.90202 15.5994 2.17943 16.2533 1.59138C16.9072 1.00333 17.6807 0.56373 18.5205 0.302764C18.8922 0.179351 19.2754 0.097554 19.6528 -0.0043335L21.161 -2.82931e-05ZM11.8132 17.9379H12.6283C14.9243 17.9379 17.2118 17.9379 19.5035 17.9379C20.376 17.9379 20.9142 18.6655 20.6056 19.4074C20.3933 19.9168 19.9699 20.0876 19.4361 20.0862C17.0554 20.079 14.6746 20.0862 12.2925 20.0862H11.6855C11.0421 31.4859 8.03722 42.6276 2.86143 52.805H36.0107C29.9836 40.8463 27.0011 28.196 27.0633 14.854H11.8132V17.9379ZM34.4867 28.6634C34.4552 28.9432 34.4207 29.1714 34.4064 29.4024C34.1798 32.631 33.7043 35.8373 32.9842 38.9927C32.9206 39.283 32.9315 39.5846 33.0158 39.8695C34.388 44.177 36.12 48.3615 38.1934 52.3787C38.3728 52.7289 38.5651 52.8595 38.964 52.858C43.1687 52.8423 47.3719 52.848 51.5766 52.8466C51.7459 52.8466 51.9138 52.8308 52.1506 52.8179C48.3853 45.2847 46.1786 37.0693 45.6628 28.6634H34.4867ZM45.5451 24.7084H34.6015V26.4477H45.5451V24.7084Z" fill="#282366"/>
<path d="M38.9755 15.474C38.9623 16.2085 38.6934 16.9154 38.215 17.473C37.7228 18.047 37.717 18.2766 38.1432 18.8865C38.5235 19.4275 38.4618 20.0345 37.9882 20.4162C37.5147 20.798 36.9421 20.7119 36.4972 20.2526C35.464 19.1878 35.4195 17.4629 36.3953 16.2862C36.9521 15.6132 36.9593 15.4826 36.4714 14.7435C36.3122 14.5245 36.242 14.2533 36.275 13.9845C36.3081 13.7157 36.4418 13.4695 36.6493 13.2956C36.858 13.1215 37.1252 13.0336 37.3964 13.0498C37.6677 13.0661 37.9225 13.1853 38.1088 13.3831C38.6785 13.9543 38.9382 14.6617 38.9755 15.474Z" fill="#282366"/>
<path d="M41.1497 18.2063C41.1636 17.5003 41.4165 16.8198 41.8672 16.2761C42.4111 15.6275 42.4182 15.451 41.9576 14.7765C41.6046 14.2585 41.6706 13.6515 42.124 13.287C42.5775 12.9225 43.1831 12.9813 43.6194 13.4305C44.6497 14.4852 44.7014 16.2058 43.7385 17.4012C43.1644 18.1087 43.1644 18.2106 43.6495 18.9396C43.8094 19.1581 43.8809 19.4289 43.8498 19.6979C43.8187 19.9669 43.6872 20.2142 43.4816 20.3904C43.2758 20.5673 43.01 20.6585 42.739 20.6452C42.468 20.6318 42.2124 20.5149 42.025 20.3186C41.465 19.7583 41.1501 18.9985 41.1497 18.2063Z" fill="#282366"/>
<path d="M21.8585 38.3915C22.0637 39.3444 22.6793 39.4204 23.4442 39.396C24.8376 39.3429 26.2353 39.3759 27.6316 39.3831C28.6476 39.3831 29.0465 39.7835 28.9848 40.7966C28.7768 44.1948 27.2456 46.8238 24.3554 48.6434C23.668 49.0739 23.0897 48.9304 22.6807 48.2244C21.8412 46.7893 21.0175 45.3457 20.1838 43.9063C20.1063 43.7732 19.995 43.6631 19.861 43.5871C19.727 43.5112 19.5753 43.4721 19.4213 43.474C19.2674 43.4759 19.1167 43.5187 18.9846 43.5979C18.8526 43.6771 18.7439 43.79 18.6698 43.925C17.8619 45.317 17.0597 46.7118 16.2518 48.1024C15.7538 48.9634 15.2214 49.1069 14.3977 48.5745C11.5391 46.7161 10.0209 44.0814 9.88309 40.6689C9.84721 39.7835 10.2433 39.3903 11.143 39.3845C12.789 39.3745 14.4436 39.3845 16.0824 39.3845C16.2308 39.378 16.3752 39.3341 16.5021 39.2568C16.6289 39.1795 16.7342 39.0714 16.8081 38.9425C16.882 38.8137 16.9221 38.6682 16.9247 38.5197C16.9273 38.3712 16.8923 38.2244 16.8229 38.093C16.0107 36.6838 15.1927 35.2775 14.3834 33.8654C13.9069 33.0345 14.0504 32.4863 14.8899 32.0558C17.9035 30.5089 20.9223 30.5036 23.9464 32.04C24.8075 32.4705 24.951 33.0446 24.4659 33.8898C23.5934 35.3951 22.7137 36.9105 21.8585 38.3915ZM22.167 33.5526C20.3244 32.8824 18.5435 32.8623 16.6981 33.5612C17.4156 34.8125 18.1073 36.0208 18.8133 37.2176C18.9568 37.4716 19.9068 37.4645 20.0561 37.2105C20.7592 36.0108 21.448 34.8025 22.167 33.5526ZM12.0973 41.527C12.3776 43.3946 13.3549 45.0866 14.8325 46.2627C15.55 45.0127 16.2561 43.8145 16.9392 42.6076C17.0827 42.3522 16.6091 41.54 16.3135 41.5371C14.9402 41.5184 13.5668 41.527 12.0973 41.527ZM26.7663 41.527H22.8917C22.1038 41.527 21.702 42.223 22.0967 42.9047C22.3277 43.3065 22.5573 43.7097 22.7898 44.1101L24.0397 46.2627C25.5508 45.0084 26.4276 43.4816 26.7663 41.5242V41.527ZM19.4476 39.528C19.2041 39.5244 18.9686 39.6154 18.7909 39.7819C18.6132 39.9484 18.507 40.1774 18.4947 40.4206C18.4926 40.5457 18.5156 40.6699 18.5623 40.7859C18.609 40.9019 18.6785 41.0074 18.7666 41.0961C18.8548 41.1848 18.9599 41.2549 19.0756 41.3023C19.1913 41.3497 19.3154 41.3734 19.4404 41.3721C19.6843 41.3717 19.9181 41.2749 20.091 41.1029C20.2638 40.9309 20.3616 40.6975 20.3631 40.4536C20.3639 40.2091 20.2679 39.9743 20.0961 39.8003C19.9243 39.6264 19.6906 39.5274 19.4462 39.5252L19.4476 39.528Z" fill="#282366"/>
<path d="M25.0673 19.0214C25.0673 19.3019 24.9564 19.5711 24.7589 19.7703C24.5613 19.9694 24.293 20.0825 24.0125 20.0848C23.8692 20.0843 23.7274 20.055 23.5956 19.9986C23.4638 19.9422 23.3447 19.8599 23.2453 19.7565C23.146 19.6531 23.0684 19.5309 23.0173 19.3969C22.9662 19.263 22.9425 19.1202 22.9477 18.9769C22.9556 18.6965 23.0738 18.4305 23.2767 18.2368C23.4796 18.0431 23.7507 17.9372 24.0312 17.9422C24.3114 17.9487 24.5778 18.0658 24.7719 18.268C24.9661 18.4702 25.0723 18.7411 25.0673 19.0214Z" fill="#282366"/>
</g>
<defs>
<clipPath id="clip0_336_112">
<rect width="54.9862" height="55.0092" fill="white"/>
</clipPath>
</defs>
</svg>
