<svg width="68" height="69" viewBox="0 0 68 69" fill="none" xmlns="http://www.w3.org/2000/svg">
<g clip-path="url(#clip0_773_13)">
<path d="M54.1006 20.1423H3.11939V20.962C3.11939 31.3182 3.16934 41.6794 3.08937 52.0355C3.05276 52.7256 3.16157 53.4157 3.40871 54.0611C3.65585 54.7064 4.03572 55.2927 4.5239 55.7818C5.01209 56.2709 5.59763 56.652 6.24251 56.9004C6.88739 57.1488 7.57724 57.2589 8.2674 57.2236C15.5797 57.1337 22.8921 57.1936 30.2044 57.1936C30.4707 57.1761 30.7378 57.1761 31.004 57.1936C31.3789 57.2416 31.723 57.4262 31.9702 57.7122C32.2174 57.9981 32.3504 58.3652 32.3436 58.7431C32.3446 59.1232 32.201 59.4895 31.9422 59.7679C31.6833 60.0463 31.3283 60.2159 30.9491 60.2425C30.7842 60.2425 30.6142 60.2425 30.4493 60.2425C22.9654 60.2425 15.4831 60.2425 8.00248 60.2425C4.06393 60.2425 1.00512 57.8334 0.200419 54.1198C0.0723341 53.4612 0.0103237 52.7914 0.0154279 52.1205C0.0154279 39.0087 0.0154279 25.8968 0.0154279 12.785C0.0154279 8.73646 2.38956 5.6476 6.14318 4.8229C6.80247 4.69853 7.47155 4.63329 8.14244 4.62797C9.00713 4.59799 9.87684 4.62797 10.7965 4.62797C10.8177 3.89747 11.0047 3.18134 11.3433 2.53367C11.6818 1.88601 12.163 1.32374 12.7507 0.889351C13.5889 0.259901 14.6233 -0.0518086 15.6697 0.00967309C18.1288 0.149622 19.7982 1.854 20.133 4.568H37.0118C37.8665 1.38417 39.406 -0.0802932 41.8251 -0.00532079C44.2442 0.0696516 45.8586 1.63907 46.4334 4.62797C47.3681 4.62797 48.3227 4.62797 49.2823 4.62797C52.841 4.68295 55.715 6.70721 56.7796 9.95602C57.0279 10.7115 57.1611 11.5 57.1745 12.2952C57.2095 18.088 57.1995 23.8809 57.1745 29.6788C57.2117 30.0684 57.1029 30.4579 56.8693 30.7719C56.6356 31.0858 56.2938 31.3019 55.9099 31.3781C55.5758 31.4415 55.2302 31.3895 54.9296 31.2306C54.629 31.0716 54.3912 30.8152 54.2555 30.5035C54.1424 30.1621 54.0916 29.8032 54.1055 29.4438C54.1055 26.6199 54.1055 23.7909 54.1055 20.947L54.1006 20.1423ZM37.0168 7.79681H20.133C19.7632 10.5558 18.0738 12.2652 15.6347 12.3651C14.5617 12.4137 13.5073 12.0729 12.6658 11.4055C12.1092 10.9702 11.6554 10.4176 11.3366 9.78694C11.0178 9.1563 10.8419 8.46315 10.8215 7.75682C9.69193 7.75682 8.61228 7.72684 7.52768 7.75682C5.52842 7.8218 3.66917 9.15631 3.35429 11.1306C3.0394 13.1049 3.14933 14.9992 3.06936 16.9684H53.9707C53.9707 15.0242 54.1006 13.1199 53.9307 11.2405C53.8107 9.95102 52.901 8.97638 51.7514 8.32662C50.037 7.36197 48.1928 7.85679 46.4134 7.74183C46.0685 10.5358 44.4141 12.2102 41.9151 12.3601C39.416 12.5101 37.7966 10.9357 37.0168 7.79681ZM17.0242 6.24238C17.0242 5.69258 17.0642 5.13279 17.0242 4.58299C17.0197 4.38302 16.9754 4.18595 16.8936 4.0034C16.8119 3.82084 16.6944 3.6565 16.5482 3.52003C16.4019 3.38357 16.2298 3.27774 16.042 3.20879C15.8542 3.13983 15.6546 3.10915 15.4548 3.11853C15.064 3.11839 14.6885 3.27087 14.4085 3.54348C14.1284 3.81609 13.9658 4.18729 13.9554 4.57799C13.9004 5.6376 13.9004 6.70221 13.9554 7.75682C13.9553 7.95671 13.9952 8.1546 14.0728 8.33884C14.1503 8.52308 14.2639 8.68995 14.4069 8.82966C14.5498 8.96936 14.7192 9.07907 14.9052 9.15234C15.0912 9.2256 15.29 9.26094 15.4898 9.25627C15.6905 9.2623 15.8902 9.22796 16.0774 9.15531C16.2645 9.08266 16.4352 8.97316 16.5793 8.83332C16.7233 8.69348 16.8378 8.52614 16.916 8.34122C16.9941 8.15631 17.0343 7.95758 17.0342 7.75682C17.0442 7.26201 17.0092 6.75219 17.0092 6.24238H17.0242ZM40.2157 6.1824V7.68185C40.2131 7.73013 40.2131 7.77852 40.2157 7.8268C40.237 8.20276 40.3988 8.55697 40.6692 8.81904C40.9396 9.0811 41.2987 9.23184 41.6752 9.24128C41.8682 9.25627 42.0623 9.23295 42.2464 9.17265C42.4304 9.11236 42.6007 9.01627 42.7475 8.88993C42.8943 8.76359 43.0146 8.60948 43.1016 8.43647C43.1887 8.26345 43.2406 8.07494 43.2545 7.88178C43.3095 6.75219 43.3095 5.61261 43.2545 4.48303C43.2238 4.0941 43.0427 3.73247 42.7497 3.4749C42.4567 3.21733 42.0748 3.08412 41.6852 3.10354C41.4918 3.10288 41.3001 3.1404 41.1213 3.21395C40.9424 3.28751 40.7798 3.39564 40.6428 3.53216C40.5058 3.66868 40.3972 3.83089 40.323 4.0095C40.2488 4.18811 40.2107 4.3796 40.2107 4.573C40.1807 5.1178 40.2007 5.6526 40.2007 6.1824H40.2157Z" fill="#333333"/>
<path d="M68 51.0713C67.9724 55.5661 66.1719 59.8683 62.9898 63.043C59.8077 66.2176 55.5011 68.008 51.0063 68.025C48.7692 68.0204 46.5549 67.5751 44.49 66.7145C42.4251 65.8538 40.55 64.5947 38.9719 63.0092C37.3937 61.4236 36.1435 59.5426 35.2926 57.4737C34.4416 55.4047 34.0066 53.1884 34.0125 50.9513C34.0197 48.7197 34.4664 46.5113 35.3271 44.4523C36.1878 42.3932 37.4456 40.5239 39.0287 38.951C40.6119 37.3781 42.4893 36.1324 44.5538 35.2851C46.6183 34.4377 48.8296 34.0053 51.0613 34.0125C55.566 34.0403 59.8765 35.8503 63.0505 39.0468C66.2246 42.2434 68.0041 46.5665 68 51.0713ZM64.8862 51.0713C64.9076 47.3962 63.4743 43.862 60.8991 41.24C58.3239 38.618 54.816 37.1212 51.1412 37.0764C49.2965 37.0619 47.4673 37.4135 45.7594 38.1109C44.0515 38.8083 42.499 39.8376 41.1918 41.1393C39.8845 42.4409 38.8486 43.989 38.1439 45.6939C37.4392 47.3988 37.0798 49.2265 37.0865 51.0713C37.1023 54.7487 38.5742 58.27 41.1802 60.8648C43.7861 63.4595 47.3138 64.9162 50.9913 64.9162C54.6664 64.9202 58.1932 63.4664 60.7979 60.8738C63.4027 58.2812 64.8729 54.7614 64.8862 51.0863V51.0713Z" fill="#333333"/>
<path d="M28.5946 24.7359C29.3643 24.7359 30.134 24.7359 30.9087 24.7359C31.3137 24.7325 31.7154 24.8097 32.0904 24.9629C32.4654 25.1161 32.8063 25.3422 33.0932 25.6282C33.3801 25.9141 33.6072 26.2542 33.7616 26.6287C33.916 27.0032 33.9945 27.4047 33.9925 27.8097C34.0175 29.3092 33.9925 30.8436 33.9925 32.3631C34.0101 32.7749 33.9441 33.186 33.7985 33.5717C33.6529 33.9573 33.4308 34.3095 33.1454 34.607C32.8601 34.9045 32.5175 35.1411 32.1382 35.3026C31.759 35.4642 31.3509 35.5473 30.9387 35.5469C29.3743 35.6019 27.8048 35.6019 26.2404 35.5469C25.8338 35.5476 25.4313 35.4672 25.0562 35.3103C24.6812 35.1534 24.3411 34.9231 24.0562 34.6331C23.7713 34.3431 23.5473 33.9991 23.397 33.6213C23.2468 33.2435 23.1736 32.8395 23.1815 32.433C23.1416 30.8936 23.1366 29.3492 23.1815 27.8097C23.18 27.3976 23.2616 26.9893 23.4215 26.6094C23.5813 26.2295 23.8163 25.8857 24.1121 25.5988C24.408 25.3118 24.7586 25.0874 25.1432 24.9391C25.5278 24.7909 25.9385 24.7217 26.3504 24.7359C27.1002 24.7309 27.8449 24.7359 28.5946 24.7359ZM26.3004 32.428H30.8388V27.8647H26.3004V32.428Z" fill="#333333"/>
<path d="M7.75705 30.114C7.75705 29.3193 7.73205 28.5196 7.75705 27.7248C7.76333 26.9392 8.07524 26.1868 8.6266 25.627C9.17796 25.0673 9.92555 24.7441 10.711 24.7259C12.3304 24.691 13.9448 24.691 15.5642 24.7259C16.3475 24.7364 17.0956 25.0528 17.6486 25.6076C18.2015 26.1624 18.5153 26.9116 18.5231 27.6949C18.5631 29.2643 18.5531 30.8337 18.5231 32.4031C18.5372 32.8094 18.4693 33.2143 18.3234 33.5937C18.1774 33.9732 17.9564 34.3192 17.6737 34.6113C17.3909 34.9034 17.0522 35.1355 16.6777 35.2936C16.3032 35.4518 15.9007 35.5329 15.4942 35.532C13.9248 35.5853 12.3554 35.5853 10.786 35.532C10.3795 35.5335 9.97685 35.4533 9.60195 35.2961C9.22704 35.139 8.88746 34.9081 8.60354 34.6171C8.31961 34.3262 8.0971 33.9812 7.94911 33.6026C7.80112 33.224 7.73077 32.8195 7.74216 32.4131C7.74216 31.6434 7.74216 30.8687 7.74216 30.094L7.75705 30.114ZM10.846 32.3931H15.4143V27.8948H10.846V32.3931Z" fill="#333333"/>
<path d="M13.1353 50.9913C12.3156 50.9913 11.4909 51.0213 10.6712 50.9913C9.90199 50.9746 9.16936 50.6598 8.62764 50.1135C8.08593 49.5671 7.77742 48.8318 7.76724 48.0624C7.72726 46.418 7.72226 44.7786 7.76724 43.1342C7.77894 42.3638 8.09128 41.6284 8.63753 41.085C9.18377 40.5415 9.92073 40.233 10.6912 40.2253C12.3306 40.1853 13.9751 40.1853 15.6145 40.2253C16.3853 40.2383 17.1207 40.5517 17.664 41.0987C18.2073 41.6458 18.5156 42.3833 18.5233 43.1542C18.5633 44.7936 18.5633 46.438 18.5233 48.0774C18.5018 48.8452 18.1865 49.5754 17.6425 50.1175C17.0985 50.6597 16.3673 50.9724 15.5994 50.9913C14.7747 51.0163 13.955 50.9913 13.1353 50.9913ZM10.8562 47.8825H15.4145V43.3342H10.8562V47.8825Z" fill="#333333"/>
<path d="M26.3254 43.274V47.9223H29.1593C30.2639 47.9223 30.9587 48.5271 30.9637 49.4617C30.9687 50.3964 30.2889 50.9612 29.1693 50.9962C28.2247 50.9962 27.2851 50.9962 26.3454 50.9962C25.94 51.0122 25.5354 50.9468 25.1557 50.8037C24.776 50.6607 24.4288 50.4429 24.1347 50.1633C23.8406 49.8836 23.6057 49.5479 23.4437 49.1758C23.2817 48.8038 23.1959 48.403 23.1916 47.9973C23.1316 46.4078 23.1366 44.8084 23.1916 43.219C23.1914 42.8184 23.2715 42.4218 23.4272 42.0526C23.5829 41.6835 23.811 41.3492 24.098 41.0697C24.385 40.7901 24.7251 40.5709 25.0982 40.425C25.4713 40.2791 25.8699 40.2094 26.2704 40.2201C27.8148 40.1901 29.3593 40.2201 30.9037 40.2201C31.2439 40.2227 31.5814 40.28 31.9033 40.3901C32.2627 40.5057 32.5652 40.7526 32.7506 41.0815C32.9359 41.4104 32.9903 41.7971 32.903 42.1644C32.8254 42.5477 32.6013 42.8856 32.2782 43.1059C31.9551 43.3263 31.5588 43.4117 31.1736 43.344C30.935 43.3099 30.6948 43.2882 30.4539 43.279C29.0844 43.269 27.7399 43.274 26.3254 43.274Z" fill="#333333"/>
<path d="M46.353 27.8549H41.7147V31.7084C41.7147 33.0829 41.1899 33.8127 40.2153 33.8277C39.2406 33.8427 38.6558 33.0929 38.6558 31.6735C38.6558 30.4189 38.6558 29.1744 38.6558 27.9048C38.6427 27.4875 38.715 27.0719 38.8681 26.6835C39.0212 26.2951 39.252 25.942 39.5463 25.6458C39.8406 25.3496 40.1922 25.1166 40.5796 24.961C40.9671 24.8055 41.3823 24.7306 41.7997 24.741C43.2991 24.741 44.7986 24.741 46.298 24.741C47.1045 24.7138 47.8893 25.0055 48.4824 25.5527C49.0755 26.1 49.4292 26.8588 49.4669 27.6649C49.5094 28.2923 49.5094 28.9218 49.4669 29.5492C49.4767 29.7562 49.4434 29.963 49.3693 30.1565C49.2951 30.35 49.1817 30.5261 49.0361 30.6735C48.8905 30.821 48.7159 30.9367 48.5234 31.0133C48.3308 31.0899 48.1245 31.1258 47.9174 31.1187C47.7112 31.1201 47.5069 31.0799 47.3166 31.0006C47.1262 30.9213 46.9538 30.8045 46.8097 30.657C46.6655 30.5096 46.5525 30.3347 46.4775 30.1426C46.4025 29.9505 46.3669 29.7453 46.3729 29.5392C46.3279 28.9944 46.353 28.4296 46.353 27.8549Z" fill="#333333"/>
<path d="M49.4617 47.1476C49.4617 45.9181 49.4617 44.6885 49.4617 43.459C49.4617 42.4194 50.1114 41.7296 51.0061 41.7396C51.9008 41.7496 52.5056 42.4443 52.5056 43.484C52.5056 45.5832 52.5056 47.6824 52.5306 49.7767C52.5533 50.1459 52.6975 50.4973 52.9405 50.7763C53.6002 51.511 54.3349 52.1758 55.0196 52.8905C55.1855 53.0314 55.3201 53.2054 55.4146 53.4014C55.5092 53.5974 55.5617 53.811 55.5688 54.0285C55.5758 54.246 55.5373 54.4625 55.4556 54.6642C55.374 54.8659 55.2511 55.0483 55.0947 55.1997C54.9407 55.3453 54.7586 55.458 54.5595 55.5307C54.3604 55.6034 54.1486 55.6346 53.937 55.6224C53.7254 55.6103 53.5185 55.555 53.3291 55.4599C53.1397 55.3649 52.9717 55.2321 52.8355 55.0697C51.8709 54.1301 50.8911 53.1954 49.9915 52.1908C49.6781 51.8069 49.4914 51.3355 49.4567 50.8413C49.4168 49.6117 49.4617 48.3772 49.4617 47.1476Z" fill="#333333"/>
</g>
<defs>
<clipPath id="clip0_773_13">
<rect width="68" height="68.025" fill="white"/>
</clipPath>
</defs>
</svg>
