<svg width="48" height="48" viewBox="0 0 48 48" fill="none" xmlns="http://www.w3.org/2000/svg">
<g clip-path="url(#clip0_336_127)">
<path d="M46.4071 43.6491C46.8897 43.8528 47.3022 43.9579 47.6253 44.1875C47.816 44.3172 47.9483 44.6493 47.9664 44.901C48.0077 45.5632 48.0108 46.2272 47.9755 46.8897C47.9496 47.4968 47.4839 47.9275 46.8741 47.9781C46.712 47.9898 46.5498 47.9781 46.3877 47.9781H1.61137C0.359514 47.9781 0.00146484 47.6187 0.00146484 46.3617C0.00146484 45.9725 0.00146484 45.5833 0.00146484 45.1942C0.00146484 44.2666 0.428271 43.8385 1.3623 43.8074C1.4583 43.8074 1.55429 43.7957 1.72293 43.7853V32.7833C1.72293 31.9154 1.87991 31.7571 2.73091 31.7571C3.47165 31.7571 4.21368 31.7571 4.98425 31.7571V17.7778C4.52113 17.8492 4.06968 17.927 3.61564 17.9893C2.7374 18.1099 2.18087 17.6377 2.15881 16.7426C2.14584 16.2237 2.14584 15.7048 2.15881 15.1859C2.17697 14.4646 2.53113 14.043 3.24981 13.9172C7.74007 13.1267 12.2308 12.3401 16.7219 11.5575C20.3205 10.9261 23.9187 10.2918 27.5164 9.65437C28.7955 9.42605 29.3248 9.84507 29.3261 11.1307C29.3261 11.551 29.3339 11.9726 29.3261 12.3929C29.3105 13.1181 28.9628 13.5332 28.2494 13.6733C27.7733 13.7667 27.2881 13.8147 26.8224 13.9327C26.6926 13.9665 26.4942 14.1637 26.4942 14.2869C26.4786 16.958 26.4877 19.6277 26.4942 22.2988C26.5026 22.3394 26.5166 22.3787 26.5357 22.4155H30.4417V21.7838C30.4417 16.3456 30.4417 10.9071 30.4417 5.4681C30.4355 5.2258 30.4555 4.98353 30.5014 4.74553C30.5426 4.50246 30.6704 4.28253 30.8612 4.12634C31.052 3.97016 31.2928 3.88828 31.5392 3.89582C32.7214 3.88285 33.9033 3.88285 35.0846 3.89582C35.6762 3.90231 36.0861 4.285 36.1588 4.87396C36.1817 5.09934 36.1903 5.32595 36.1847 5.55243C36.1847 10.9594 36.1847 16.3647 36.1847 21.7682V22.4168H38.7286V1.66453C38.7239 1.43809 38.7321 1.21156 38.7533 0.986064C38.7722 0.715848 38.8948 0.463393 39.0955 0.281384C39.2961 0.0993746 39.5592 0.00187274 39.83 0.00922566C41.0122 -0.00201728 42.1941 -0.00201728 43.3754 0.00922566C43.6222 0.00177384 43.8634 0.0840184 44.0542 0.240726C44.245 0.397433 44.3726 0.617984 44.4132 0.861527C44.4603 1.11818 44.4803 1.37906 44.4729 1.63988C44.4729 8.34068 44.4729 15.0432 44.4729 21.7474V22.4155C44.6143 22.4298 44.7324 22.4519 44.8621 22.4545C46.0296 22.4752 46.4188 22.8787 46.4188 24.0553V43.6491H46.4071ZM19.6511 23.8205V43.7853H45.0113V23.8205H19.6511ZM25.0775 22.4441V14.2324L6.42681 17.508V31.7182H18.2669V31.1487C18.2669 28.7375 18.2669 26.3255 18.2669 23.9126C18.2669 22.7853 18.612 22.4441 19.7484 22.4441H25.0775ZM3.12009 33.1283V43.7763H5.01539V43.1678C5.01539 41.0001 5.01539 38.8311 5.01539 36.6634C5.01539 35.7397 5.43181 35.3246 6.35286 35.3233C9.21722 35.3172 12.082 35.3172 14.9472 35.3233C15.9072 35.3233 16.3158 35.754 16.3158 36.7334C16.3158 38.9024 16.3158 41.071 16.3158 43.2392V43.7789H18.2319V33.1283H3.12009ZM46.6069 45.2058H1.38824V46.5926H46.6069V45.2058ZM40.1206 4.01777V22.4129H43.0667V4.02295L40.1206 4.01777ZM31.8298 7.90955V22.4181H34.7759V7.90826L31.8298 7.90955ZM27.9484 10.9685L3.5378 15.2495V16.6285L27.9484 12.3449V10.9685ZM6.41383 36.7088V43.7776H9.96055V36.7088H6.41383ZM11.3811 43.7892H14.9304V36.723H11.3811V43.7892ZM43.0809 1.38951H40.1128V2.59986H43.0809V1.38951ZM31.8168 6.49294H34.785V5.28389H31.8168V6.49294Z" fill="#282366"/>
<path d="M42.8421 29.5049C42.8421 29.9745 42.8512 30.4441 42.8421 30.9125C42.824 31.5909 42.4179 32.0709 41.7446 32.0969C40.7068 32.1371 39.669 32.1345 38.6403 32.0969C37.9994 32.0709 37.5843 31.6376 37.5649 30.9981C37.5337 29.9802 37.5337 28.9614 37.5649 27.9417C37.5856 27.2671 38.0513 26.8326 38.7246 26.8196C39.7118 26.8001 40.699 26.7988 41.685 26.8196C42.3699 26.8339 42.8149 27.3125 42.8447 28.0014C42.8447 28.0325 42.8447 28.065 42.8447 28.0974L42.8421 29.5049ZM38.9412 28.1986V30.7386H41.4527V28.1986H38.9412Z" fill="#282366"/>
<path d="M40.1891 40.6082C39.7039 40.6082 39.2188 40.6173 38.7336 40.6082C38.072 40.5926 37.5946 40.1983 37.5661 39.5522C37.5271 38.5027 37.5284 37.4507 37.5661 36.4012C37.5881 35.7642 38.0318 35.3543 38.6713 35.34C39.6892 35.3167 40.708 35.3167 41.7277 35.34C41.8746 35.3375 42.0205 35.3648 42.1566 35.4203C42.2927 35.4758 42.4161 35.5582 42.5195 35.6628C42.6228 35.7673 42.7038 35.8917 42.7577 36.0284C42.8116 36.1651 42.8372 36.3114 42.8329 36.4583C42.8537 37.4598 42.8524 38.4625 42.8329 39.4653C42.8354 39.6158 42.8075 39.7652 42.751 39.9047C42.6945 40.0442 42.6104 40.1708 42.5039 40.2771C42.3974 40.3834 42.2705 40.4672 42.1309 40.5234C41.9913 40.5796 41.8418 40.6071 41.6914 40.6043C41.1932 40.6199 40.6912 40.6082 40.1891 40.6082ZM41.4553 39.2318V36.7242H38.9321V39.2318H41.4553Z" fill="#282366"/>
<path d="M27.1064 29.479C27.1064 29.9642 27.1181 30.4493 27.1064 30.9345C27.0869 31.5909 26.6913 32.0657 26.0374 32.0917C24.988 32.1345 23.9346 32.1345 22.8851 32.0917C22.2468 32.0644 21.8473 31.6208 21.8317 30.9747C21.8058 29.9715 21.8058 28.9687 21.8317 27.9664C21.8499 27.2698 22.3156 26.8287 23.0148 26.817C23.9852 26.8006 24.9555 26.8006 25.9259 26.817C26.6407 26.8313 27.0934 27.3048 27.109 28.0235C27.1168 28.5086 27.1077 28.9938 27.1064 29.479ZM25.7183 30.7283V28.2064H23.2016V30.7283H25.7183Z" fill="#282366"/>
<path d="M34.9742 29.4816C34.9742 29.9667 34.9859 30.4519 34.9742 30.9371C34.9547 31.5857 34.5539 32.067 33.9014 32.0929C32.8519 32.1345 31.7985 32.1332 30.7503 32.0929C30.1134 32.067 29.7125 31.6233 29.6969 30.9747C29.6684 29.9732 29.6671 28.9691 29.6969 27.9677C29.7177 27.2671 30.1821 26.8313 30.8826 26.8196C31.853 26.8031 32.8238 26.8031 33.795 26.8196C34.5072 26.8338 34.9534 27.3099 34.9781 28.0273C34.9781 28.0598 34.9781 28.0922 34.9781 28.1246V29.4842L34.9742 29.4816ZM33.5809 30.7308V28.2115H31.0746V30.7308H33.5809Z" fill="#282366"/>
<path d="M24.4586 40.6095C23.9734 40.6095 23.4882 40.6173 23.003 40.6095C22.3194 40.5939 21.8485 40.184 21.829 39.5107C21.7979 38.4729 21.7979 37.4416 21.829 36.4077C21.8498 35.7733 22.2895 35.3556 22.9278 35.3413C23.9466 35.318 24.9654 35.318 25.9841 35.3413C26.1309 35.3385 26.2767 35.3653 26.4128 35.4203C26.549 35.4753 26.6725 35.5573 26.7761 35.6612C26.8798 35.7652 26.9613 35.8891 27.0158 36.0254C27.0703 36.1617 27.0967 36.3076 27.0933 36.4544C27.1141 37.4571 27.1128 38.4599 27.0933 39.4614C27.0816 40.1477 26.6068 40.5861 25.9115 40.6108H24.4586V40.6095ZM23.2067 36.7177V39.2149H25.7104V36.7125L23.2067 36.7177Z" fill="#282366"/>
<path d="M34.9743 37.9708C34.9743 38.456 34.9847 38.9412 34.9743 39.4264C34.9535 40.1412 34.493 40.5939 33.7717 40.6056C32.8014 40.6177 31.831 40.6177 30.8607 40.6056C30.1835 40.5965 29.7217 40.1749 29.6996 39.4925C29.6685 38.4755 29.6685 37.4571 29.6996 36.4375C29.7204 35.772 30.1576 35.353 30.8192 35.3374C31.8206 35.314 32.8247 35.314 33.8262 35.3374C34.5228 35.3517 34.9496 35.8161 34.9769 36.5166C34.9769 36.549 34.9769 36.5815 34.9769 36.6139C34.976 37.0662 34.9752 37.5185 34.9743 37.9708ZM31.0643 39.2253H33.5771V36.7216H31.0643V39.2253Z" fill="#282366"/>
<path d="M13.3126 27.5499C13.3126 28.0182 13.3204 28.4879 13.3126 28.9562C13.2983 29.7216 12.8365 30.1912 12.0646 30.2028C11.1271 30.2175 10.1888 30.2175 9.24955 30.2028C8.5179 30.1912 8.05218 29.7566 8.03142 29.0353C8.00418 28.0494 8.00548 27.0609 8.03142 26.0749C8.05088 25.3705 8.49195 24.9269 9.19896 24.9074C10.1849 24.8802 11.1734 24.8763 12.1593 24.9074C12.8806 24.9334 13.2983 25.4133 13.3126 26.1437C13.3204 26.612 13.3126 27.0803 13.3126 27.5499ZM11.9232 28.8187V26.2786H9.41041V28.8187H11.9232Z" fill="#282366"/>
<path d="M13.3125 20.8418C13.3125 21.3114 13.3216 21.7797 13.3125 22.2493C13.2956 22.9512 12.874 23.4169 12.1722 23.4389C11.1707 23.4675 10.1666 23.4662 9.16515 23.4389C8.475 23.4195 8.0521 22.9901 8.03264 22.2948C8.0054 21.3101 8.0054 20.3216 8.03264 19.337C8.0521 18.6014 8.50873 18.1695 9.24039 18.1695C10.1917 18.1565 11.1461 18.1565 12.1034 18.1695C12.8468 18.1798 13.2995 18.6443 13.3151 19.3915C13.3203 19.8715 13.3125 20.3566 13.3125 20.8418ZM9.41033 19.5446V22.0574H11.9257V19.5407L9.41033 19.5446Z" fill="#282366"/>
</g>
<defs>
<clipPath id="clip0_336_127">
<rect width="48" height="47.9844" fill="white"/>
</clipPath>
</defs>
</svg>
