<svg width="78" height="57" viewBox="0 0 78 57" fill="none" xmlns="http://www.w3.org/2000/svg">
<g clip-path="url(#clip0_773_31)">
<path d="M46.5778 53.2338C46.562 53.8577 46.4937 54.4791 46.3735 55.0914C46.1851 55.7081 45.7817 56.2366 45.2368 56.5812C44.6918 56.9258 44.0413 57.0636 43.4034 56.9695C42.7502 56.8842 42.1478 56.5723 41.7011 56.0883C41.2544 55.6042 40.9917 54.9787 40.959 54.3208C40.8314 53.0552 40.8008 51.7692 40.5507 50.5291C38.9126 42.3383 31.4923 36.4491 22.9953 36.5359C18.9313 36.5975 15.0128 38.0585 11.9004 40.6726C8.78806 43.2867 6.6722 46.894 5.90954 50.8863C5.72931 51.9427 5.62024 53.01 5.58299 54.081C5.49623 55.7906 4.35819 57.0103 2.77107 57.0001C1.18394 56.9899 -0.00508692 55.7243 1.6365e-05 53.9636C0.0306361 42.915 8.3643 33.1065 19.2547 31.3101C25.2072 30.2599 31.3346 31.5717 36.3354 34.9669C41.3362 38.3621 44.8165 43.5731 46.0368 49.4931C46.3175 50.769 46.4144 52.0703 46.5778 53.2338Z" fill="#333333"/>
<path d="M54.748 0.756601C56.4635 0.761913 58.161 1.10633 59.7428 1.77005C61.3246 2.43377 62.7596 3.40368 63.9652 4.62401C65.1709 5.84433 66.1233 7.29098 66.7678 8.88074C67.4123 10.4705 67.7362 12.172 67.7207 13.8874C67.6831 17.318 66.2949 20.5956 63.857 23.0097C61.4191 25.4237 58.128 26.7796 54.6971 26.7834C51.2497 26.7712 47.9481 25.3911 45.5176 22.9463C43.0872 20.5015 41.7265 17.1918 41.7347 13.7445C41.736 12.0371 42.0738 10.3467 42.7285 8.76992C43.3833 7.1931 44.3423 5.76073 45.5508 4.55463C46.7593 3.34852 48.1935 2.39232 49.7716 1.74065C51.3497 1.08897 53.0407 0.754589 54.748 0.756601ZM47.3075 13.7547C47.3034 15.7193 48.0764 17.6057 49.4579 19.0025C50.8394 20.3993 52.7173 21.1931 54.6818 21.2106C56.6619 21.2106 58.5609 20.424 59.9611 19.0238C61.3613 17.6236 62.1478 15.7246 62.1478 13.7445C62.133 11.7836 61.3436 9.908 59.9518 8.52665C58.5599 7.1453 56.6785 6.37016 54.7175 6.37022C52.7571 6.37155 50.8769 7.14917 49.4883 8.53301C48.0996 9.91685 47.3156 11.7943 47.3075 13.7547Z" fill="#333333"/>
<path d="M23.2455 0.756601C24.953 0.754589 26.6443 1.08918 28.2224 1.74123C29.8006 2.39329 31.2347 3.35003 32.4428 4.55674C33.651 5.76345 34.6094 7.19646 35.2634 8.77384C35.9173 10.3512 36.2537 12.042 36.2537 13.7496C36.2605 17.1961 34.8993 20.5044 32.469 22.9481C30.0387 25.3918 26.7379 26.7712 23.2914 26.7834C19.8439 26.7794 16.5383 25.4101 14.0977 22.9752C11.657 20.5403 10.28 17.2379 10.2678 13.7904C10.2651 10.3425 11.6298 7.03423 14.0625 4.59094C16.4953 2.14765 19.7976 0.768759 23.2455 0.756601ZM30.681 13.7853C30.6837 11.8241 29.9083 9.94183 28.5248 8.55167C27.1413 7.16151 25.2629 6.37698 23.3016 6.37022C21.341 6.36334 19.457 7.13112 18.0597 8.50646C16.6624 9.8818 15.8648 11.7534 15.8406 13.7139C15.8338 15.6936 16.6131 17.5951 18.0072 19.0007C19.4014 20.4063 21.2964 21.2011 23.2761 21.2106C25.241 21.2025 27.1229 20.4169 28.5105 19.0256C29.898 17.6343 30.6783 15.7503 30.681 13.7853Z" fill="#333333"/>
<path d="M78.0292 53.591C78.0283 53.9906 77.9993 54.3897 77.9425 54.7852C77.8041 55.4602 77.4173 56.0586 76.8588 56.4621C76.3003 56.8656 75.6107 57.0448 74.9264 56.9643C74.2348 56.9038 73.5916 56.5841 73.1259 56.0692C72.6602 55.5543 72.4065 54.8823 72.4156 54.1881C72.4044 50.3018 71.119 46.5264 68.7566 43.4406C64.2095 37.5259 56.7128 35.1784 49.4559 37.3166C48.8264 37.5159 48.1598 37.5699 47.5064 37.4748C46.9227 37.3462 46.3995 37.0242 46.0216 36.5611C45.6437 36.098 45.4333 35.5209 45.4244 34.9232C45.3921 34.3077 45.5714 33.6997 45.9326 33.2002C46.2937 32.7008 46.8149 32.3399 47.4095 32.1776C55.1001 29.7331 62.2754 30.8457 68.7259 35.6683C74.6611 40.103 77.6312 46.1759 78.0292 53.591Z" fill="#333333"/>
</g>
<defs>
<clipPath id="clip0_773_31">
<rect width="78.0089" height="56.2332" fill="white" transform="translate(0 0.766846)"/>
</clipPath>
</defs>
</svg>
