<svg width="62" height="62" viewBox="0 0 62 62" fill="none" xmlns="http://www.w3.org/2000/svg">
<g clip-path="url(#clip0_776_63)">
<path d="M2.45221e-06 30.9734C2.45221e-06 13.8452 13.9094 -0.00552002 31.0816 0.0146705C48.1377 0.0281308 62 13.9276 61.9983 31.0172C61.9983 48.1556 48.1007 62.0264 30.9453 62.013C13.8438 61.9945 -0.00672845 48.1051 2.45221e-06 30.9734ZM16.9114 15.7767L9.00258 12.8441C5.03976 17.6982 2.85054 23.3229 2.50727 29.7216H14.8871C15.0133 24.9567 15.614 20.2758 16.9114 15.7767ZM9.00258 49.16L16.9164 46.2307C15.5989 41.6997 15.0183 37.0171 14.8787 32.306H2.49716C2.8539 38.7014 5.0364 44.3194 8.99417 49.1651L9.00258 49.16ZM45.0853 15.7767C46.3894 20.2859 46.9783 24.9685 47.1197 29.7132H59.5045C59.1478 23.2926 56.9586 17.6528 53.0058 12.8491L45.0853 15.7767ZM59.5045 32.301H47.1197C46.9901 37.0861 46.3759 41.7636 45.1004 46.2324L53.0092 49.1685C56.9552 44.3328 59.1478 38.7064 59.5045 32.301ZM19.3278 16.3656C18.0947 20.7127 17.4401 25.2034 17.3809 29.7216H29.7203V17.5013L19.3278 16.3656ZM32.2848 29.7149H44.6326C44.5182 25.1249 43.9326 20.6561 42.6739 16.3622L32.2848 17.5013V29.7149ZM17.4633 32.2926C17.437 32.3366 17.4172 32.3842 17.4044 32.4339C17.4044 32.6021 17.4044 32.7704 17.4044 32.9387C17.5202 37.0737 18.1183 41.1811 19.1864 45.1775C19.3278 45.6991 19.5415 45.7865 20.0581 45.7058C22.1301 45.3895 24.2054 45.109 26.2842 44.8645C27.4217 44.7333 28.5727 44.7114 29.7253 44.6391V32.2926H17.4633ZM42.6773 45.6553C43.9117 41.3108 44.5658 36.8221 44.6225 32.306H32.2898V44.5162L42.6773 45.6553ZM32.31 2.63943V15.0044L41.9857 13.9629C41.2806 12.4487 40.7203 11.0925 40.0404 9.8037C38.839 7.52217 37.3683 5.43919 35.2245 3.92322C34.36 3.27947 33.3606 2.8405 32.3016 2.63943H32.31ZM29.727 2.5082C28.8857 2.88004 28.0763 3.12569 27.3847 3.56147C23.5649 5.9675 21.7862 9.81884 20.149 13.7997C22.7908 14.4122 28.3943 14.996 29.722 14.7992L29.727 2.5082ZM32.3016 47.0131V59.3647C32.4208 59.3572 32.5394 59.342 32.6567 59.3192C34.2384 58.8885 35.5543 58.0102 36.6952 56.8627C39.1082 54.4314 40.626 51.4618 41.7938 48.2818C41.8023 48.2548 41.7686 48.2128 41.6929 48.0126L32.3016 47.0131ZM29.7169 59.3865V47.0081L20.0901 48.0529C20.5124 49.0625 20.8237 49.8768 21.1973 50.6693C22.4543 53.3462 23.9586 55.8532 26.3128 57.736C27.2924 58.5559 28.4585 59.1227 29.7085 59.3865H29.7169ZM38.8743 58.4241C43.4799 57.1033 47.5942 54.7057 51.2625 51.095L44.4425 48.6738C43.5658 50.5162 42.8641 52.2509 41.9436 53.8577C41.0232 55.4645 39.8722 56.9452 38.8659 58.4241H38.8743ZM51.2592 10.9175C47.5925 7.31522 43.4867 4.91255 38.733 3.6069C41.3193 6.4016 42.9617 9.72799 44.3331 13.3825L51.2592 10.9175ZM17.6804 13.3841C19.0485 9.71789 20.7093 6.39655 23.437 3.51099C18.5302 4.91255 14.4243 7.31354 10.756 10.9142L17.6804 13.3841ZM17.7208 48.7394C15.3296 49.3619 13.0613 50.1174 10.8569 51.2111C14.4344 54.7023 18.5218 57.1 23.2637 58.4006C20.6925 55.6126 19.0468 52.3047 17.714 48.7394H17.7208Z" fill="#333333"/>
</g>
<defs>
<clipPath id="clip0_776_63">
<rect width="62" height="62" fill="white" transform="translate(0 0.00927734)"/>
</clipPath>
</defs>
</svg>
