<svg width="26" height="26" viewBox="0 0 26 26" fill="none" xmlns="http://www.w3.org/2000/svg">
<g clip-path="url(#clip0_352_4)">
<path d="M12.242 0H13.7652L13.9582 0.0429025C15.5323 0.134325 17.0728 0.535265 18.4918 1.22277C20.39 2.09726 22.0467 3.42083 23.3187 5.07909C24.5908 6.73735 25.4398 8.68042 25.7926 10.7404C25.8927 11.2338 25.9357 11.7343 26 12.2349V13.758C26 13.8366 26 13.9081 25.9571 13.9796C25.8685 15.5558 25.4623 17.0979 24.763 18.5132C22.4461 23.1254 18.6991 25.6639 13.5435 25.9714C11.0297 26.1382 8.52732 25.5076 6.39277 24.1694C4.51908 23.085 2.95272 21.5409 1.84167 19.6829C0.730624 17.8249 0.111561 15.7144 0.0429284 13.5506C-0.103161 11.2296 0.423182 8.91562 1.55888 6.88614C2.47671 5.13582 3.78696 3.62153 5.3872 2.46167C6.98743 1.30181 8.83427 0.527818 10.7833 0.200219C11.2481 0.114411 11.7701 0.0643564 12.242 0ZM13.0215 14.6375V14.5946C12.1991 14.5946 11.3768 14.5946 10.5545 14.5946C9.56661 14.569 8.60019 14.8851 7.81848 15.4896C7.03677 16.0942 6.48769 16.95 6.26404 17.9125C6.1349 18.246 6.08701 18.6054 6.12431 18.961C6.16161 19.3166 6.28305 19.6583 6.47857 19.9576C6.77715 20.3143 7.12648 20.6251 7.51541 20.8801C9.48483 22.2733 11.9141 22.8569 14.3015 22.5105C16.1019 22.2802 17.7977 21.5354 19.1854 20.3652C19.3941 20.1905 19.5614 19.9715 19.6752 19.7242C19.789 19.4768 19.8464 19.2073 19.8433 18.9351C19.8524 17.8787 19.4715 16.8561 18.7736 16.0631C18.0756 15.2701 17.1095 14.7625 16.0605 14.6375C15.0523 14.5446 14.0297 14.6375 13.0215 14.6375ZM8.73104 8.20187C8.73104 9.33976 9.18307 10.431 9.98768 11.2357C10.7923 12.0403 11.8836 12.4923 13.0215 12.4923C14.1594 12.4923 15.2507 12.0403 16.0553 11.2357C16.8599 10.431 17.3119 9.33976 17.3119 8.20187C17.3119 7.06398 16.8599 5.97269 16.0553 5.16808C15.2507 4.36347 14.1594 3.91144 13.0215 3.91144C12.4556 3.90767 11.8947 4.01586 11.3708 4.22978C10.847 4.44371 10.3706 4.75914 9.96917 5.15792C9.56773 5.5567 9.24915 6.03095 9.03175 6.55336C8.81435 7.07578 8.70242 7.63603 8.70243 8.20187H8.73104Z" fill="#282366"/>
</g>
<defs>
<clipPath id="clip0_352_4">
<rect width="26" height="26" fill="white"/>
</clipPath>
</defs>
</svg>
