<svg width="93" height="93" viewBox="0 0 93 93" fill="none" xmlns="http://www.w3.org/2000/svg">
<g clip-path="url(#clip0_811_1140)">
<path d="M48.2183 12.4008C48.2183 15.7969 48.2183 19.1929 48.2183 22.5889C48.2183 24.3004 47.6227 24.8826 45.9113 24.9149C40.7443 25.014 35.7865 26.9744 31.9488 30.436C28.1112 33.8975 25.6515 38.6277 25.0216 43.7575C23.6255 55.2717 30.9239 65.4166 42.2702 67.7453C53.6166 70.074 65.5263 62.0314 67.65 50.6196C67.8614 49.3271 68.0054 48.0244 68.0813 46.7169C68.1864 45.3935 68.782 44.7332 70.1215 44.7305C77.0641 44.7125 84.0057 44.7125 90.9465 44.7305C92.2483 44.7305 93.0164 45.4798 92.9948 46.5929C92.9733 47.7061 92.2159 48.3314 90.863 48.3368C88.8066 48.3368 86.7503 48.3691 84.6966 48.3368C83.7263 48.3179 83.3086 48.6844 83.2305 49.6682C82.0096 65.2172 70.5635 78.7447 55.4466 82.5504C54.0991 82.8873 53.2124 82.483 52.9294 81.4184C52.6168 80.2514 53.1854 79.4158 54.6138 79.0439C58.1797 78.1394 61.5643 76.6307 64.6208 74.5832C73.2289 68.7641 78.169 60.6703 79.5597 50.404C79.5975 50.1345 79.6055 49.865 79.619 49.5954C79.681 48.4661 79.5139 48.2748 78.4035 48.2667C76.5843 48.2667 74.7624 48.2936 72.9459 48.2505C71.9811 48.2262 71.5984 48.5901 71.4582 49.5631C69.9032 60.6137 62.2652 68.8423 51.4471 71.198C50.8281 71.3521 50.1968 71.4522 49.5605 71.4971C48.5202 71.5403 48.1968 72.0362 48.2129 73.0415C48.248 78.8256 48.2291 84.6096 48.2291 90.3936C48.2291 92.1563 47.6281 93.0107 46.4153 92.9865C45.2483 92.9622 44.677 92.1213 44.6743 90.4179C44.6716 88.7145 44.6743 87.0569 44.6743 85.375C44.6743 83.6932 44.5799 83.615 42.9521 83.4506C37.5672 82.9439 32.3678 81.2205 27.7463 78.4105C18.9576 73.0631 13.3086 65.3762 10.7672 55.428C10.4464 54.1855 10.875 53.2475 11.8452 52.9645C12.9475 52.6465 13.7938 53.234 14.1603 54.5817C17.2974 66.1551 24.4583 74.1061 35.7643 78.1814C38.2357 79.0735 40.9227 79.3808 43.5208 79.9198C44.27 80.0762 44.6635 79.6503 44.6662 78.9064C44.6662 76.8203 44.6662 74.7368 44.6662 72.6507C44.6662 71.7828 44.1272 71.6184 43.4291 71.5241C36.6509 70.6077 31.0505 67.554 26.7518 62.2308C23.9404 58.7636 22.133 54.592 21.526 50.1695C21.2565 48.3098 21.2565 48.3098 19.3996 48.3098C13.6375 48.3098 7.87531 48.3287 2.11587 48.2802C1.50408 48.2802 0.698246 48.0376 0.345187 47.609C-0.00787198 47.1805 -0.0752496 46.3396 0.0756763 45.7655C0.272419 44.9946 1.02165 44.6874 1.83557 44.6874H7.88878C9.55166 44.6874 9.62982 44.62 9.77536 42.9543C10.6513 33.4104 14.6104 25.3516 21.5745 18.7805C25.8376 14.776 30.9953 11.8476 36.6186 10.2392C37.7991 9.88885 38.6265 10.1476 39.0954 10.9697C39.7422 12.1124 39.0954 13.3253 37.5835 13.7485C34.5913 14.56 31.7385 15.8175 29.1208 17.4787C19.6718 23.5538 14.4325 32.2083 13.3113 43.3532C13.2062 44.4178 13.4569 44.7008 14.5187 44.7008C16.3703 44.7143 18.2245 44.7008 20.076 44.7008C20.9142 44.7008 21.2646 44.3397 21.3751 43.5176C22.9248 31.9873 31.1934 23.4541 42.6664 21.5189C44.6527 21.182 44.6527 21.182 44.6527 19.1525C44.6527 13.5697 44.6527 7.98779 44.6527 2.4068C44.6375 1.9713 44.6884 1.53602 44.8036 1.11578C44.9031 0.770201 45.1177 0.468999 45.4118 0.262124C45.7059 0.0552498 46.0619 -0.0448674 46.4207 -0.0216233C46.7782 -0.0476428 47.1337 0.0497512 47.428 0.254302C47.7223 0.458853 47.9375 0.758176 48.0378 1.1023C48.1558 1.52119 48.2094 1.95561 48.1968 2.39063C48.2237 5.74084 48.2183 9.06949 48.2183 12.4008Z" fill="#2E296C"/>
<path d="M60.5377 25.7074C60.5377 24.4649 60.4595 23.2143 60.57 21.9798C60.618 21.3264 60.8729 20.7052 61.2977 20.2063C65.3565 16.0826 69.4719 12.0154 73.5658 7.92673C74.1884 7.30413 74.8837 6.978 75.7461 7.36611C76.5547 7.72728 76.8242 8.3984 76.8242 9.2528C76.8053 11.3039 76.8107 13.3523 76.8242 15.4034C76.8242 16.4815 77.1368 16.7888 78.2014 16.7968C80.2227 16.7968 82.244 16.8157 84.2654 16.7968C85.1521 16.7968 85.8824 17.0313 86.2355 17.8911C86.5885 18.7509 86.2355 19.4517 85.5671 20.1174C81.5262 24.0704 77.515 28.0522 73.5335 32.0628C73.2284 32.3941 72.8541 32.6542 72.4373 32.8247C72.0204 32.9952 71.5711 33.0719 71.1213 33.0493C68.7631 33.0007 66.4049 32.9792 64.0494 33.0681C63.3663 33.1104 62.718 33.3842 62.2113 33.8444C57.5461 38.456 52.9375 43.1242 48.31 47.7735C48.0831 48.0211 47.841 48.2542 47.585 48.4715C47.2511 48.7645 46.8178 48.9188 46.3739 48.9027C45.93 48.8867 45.509 48.7016 45.1971 48.3853C44.8747 48.0824 44.6804 47.6676 44.6544 47.2259C44.6283 46.7843 44.7724 46.3495 45.057 46.0108C45.224 45.8028 45.404 45.6057 45.596 45.4205C50.3394 40.6463 55.0864 35.8775 59.8369 31.1141C60.0825 30.8925 60.2742 30.6179 60.3975 30.311C60.5208 30.0041 60.5725 29.6731 60.5484 29.3433C60.5026 28.1277 60.5377 26.9175 60.5377 25.7074ZM67.7767 29.4807C68.6203 29.4807 69.4638 29.5131 70.302 29.4673C70.6618 29.4722 71.0132 29.3585 71.3019 29.1438C73.7239 26.7666 76.1225 24.3633 78.4978 21.934C78.735 21.6914 78.9425 21.1416 78.8239 20.9017C78.7105 20.7343 78.5621 20.5934 78.3891 20.4887C78.216 20.384 78.0223 20.318 77.8214 20.2953C76.8889 20.2117 75.9348 20.2953 74.9969 20.2576C73.8784 20.2144 73.1858 19.5217 73.14 18.4113C73.1076 17.6027 73.1939 16.7941 73.1076 15.9856C73.0591 15.5381 72.8678 14.9075 72.5524 14.7484C72.2371 14.5894 71.5903 14.8886 71.2884 15.1851C69.0138 17.4275 66.7723 19.7032 64.5641 22.0122C64.2486 22.3844 64.0657 22.8508 64.044 23.3382C63.982 24.9123 64.0143 26.4944 64.0224 28.0738C64.0224 29.2409 64.2461 29.4538 65.4562 29.47C66.2297 29.4861 67.0032 29.478 67.7767 29.478V29.4807Z" fill="#2E296C"/>
<path d="M46.3613 61.5624C38.4943 61.4304 31.8832 55.1854 31.4924 47.4231C31.0908 39.4559 36.861 32.5991 44.6741 31.7367C45.1745 31.6671 45.6784 31.6257 46.1834 31.6127C47.2615 31.6127 48.0296 32.3269 48.07 33.3134C48.1104 34.2998 47.4205 35.0815 46.3074 35.1354C44.5884 35.1869 42.8996 35.6002 41.3511 36.3482C39.0755 37.4856 37.2473 39.3537 36.1591 41.6533C35.0709 43.9529 34.7857 46.5512 35.3491 49.0321C35.9189 51.4909 37.2904 53.6903 39.2474 55.284C41.2045 56.8776 43.6361 57.775 46.1592 57.8349C52.5762 57.9427 57.2738 53.4416 57.7481 46.7385C57.8424 45.3908 58.403 44.7009 59.4541 44.6389C60.6292 44.5688 61.3946 45.3801 61.3892 46.6873C61.3569 53.4012 56.5784 59.4574 50.0374 61.0045C48.8381 61.2902 47.5903 61.3764 46.3613 61.5624Z" fill="#2E296C"/>
</g>
<defs>
<clipPath id="clip0_811_1140">
<rect width="93" height="93" fill="white"/>
</clipPath>
</defs>
</svg>
