<svg width="96" height="96" viewBox="0 0 96 96" fill="none" xmlns="http://www.w3.org/2000/svg">
<g clip-path="url(#clip0_811_1109)">
<path d="M96 50.7672C95.9343 51.3162 95.8694 51.8637 95.8052 52.4095C95.702 53.3245 95.0803 53.9274 94.2967 53.8664C93.5131 53.8054 92.9969 53.2025 93.011 52.318C93.011 51.5086 93.1307 50.7015 93.1565 49.8921C93.1799 49.125 93.3465 48.4376 94.1606 48.1748C95.0263 47.8956 95.5683 48.4094 96 49.078V50.7672Z" fill="#282366"/>
<path d="M95.6688 42.2509C95.7111 43.4051 95.2677 44.0104 94.4958 44.1277C93.7239 44.245 93.1116 43.7477 92.9403 42.8515C92.7597 41.913 92.6189 40.9464 92.5204 39.9869C92.4678 39.6263 92.5594 39.2595 92.7755 38.9661C92.9916 38.6727 93.3147 38.4764 93.6747 38.4197C93.8523 38.3868 94.0347 38.39 94.2111 38.4291C94.3874 38.4682 94.5541 38.5424 94.7012 38.6473C94.8483 38.7521 94.9728 38.8855 95.0673 39.0395C95.1618 39.1934 95.2243 39.3648 95.2512 39.5435C95.4413 40.51 95.5539 41.5024 95.6688 42.2509Z" fill="#282366"/>
<path d="M50.2816 -0.00016414C51.6728 0.154678 53.0664 0.281368 54.4529 0.469056C62.7585 1.53706 70.6267 4.80893 77.2406 9.94495C77.4376 10.0974 77.6465 10.2335 78.0664 10.5291C77.7896 9.92618 77.6136 9.53203 77.4259 9.14493C77.1796 8.64051 76.9051 8.15018 76.6728 7.63873C76.274 6.75191 76.4804 5.99646 77.1983 5.61405C77.9163 5.23164 78.6623 5.49909 79.1503 6.33899C79.3544 6.68856 79.5233 7.05925 79.704 7.42055C80.9685 9.92618 82.226 12.4342 83.5 14.9281C83.8214 15.5545 83.9692 16.1621 83.4718 16.7533C82.9744 17.3445 82.3457 17.3258 81.67 17.1475C78.6576 16.3498 75.6429 15.5568 72.6258 14.7685C72.4754 14.7274 72.3274 14.678 72.1824 14.6207C71.4316 14.3275 71.1008 13.7667 71.2721 12.9925C71.4434 12.2183 72.0229 11.8195 72.8041 11.9673C73.8716 12.1644 74.9156 12.46 76.0746 12.5796C75.2065 11.9321 74.3619 11.2447 73.4633 10.6417C67.3776 6.56187 60.7217 4.00697 53.4206 3.16003C43.4169 2.00106 33.9879 3.79817 25.3449 8.95255C13.4666 16.0378 5.98722 26.4005 3.64347 40.0829C1.06276 55.098 5.20832 68.2361 15.6226 79.3566C15.7306 79.4716 15.8432 79.5795 15.9464 79.6968C16.6502 80.4992 16.7019 81.2499 16.0919 81.8552C15.4819 82.4605 14.6349 82.369 13.8748 81.5971C8.85885 76.4897 5.0394 70.5986 2.77307 63.8043C-1.8722 49.8708 -0.767194 36.355 6.72155 23.686C14.1751 11.0805 25.3003 3.40872 39.7663 0.736511C41.5705 0.403365 43.4028 0.236792 45.2234 -0.00720215L50.2816 -0.00016414Z" fill="#282366"/>
<path d="M47.1772 29.9832C59.3535 30.2952 68.9748 34.1616 76.6466 42.4644C77.8032 43.7172 78.9927 44.963 79.3493 46.7578C79.5358 47.6464 79.5149 48.5661 79.2882 49.4454C79.0616 50.3247 78.6353 51.1399 78.0425 51.8277C72.1022 59.1217 64.4633 63.6215 55.2267 65.2004C42.166 67.4152 30.6232 64.1541 20.9056 54.9926C19.8305 53.9498 18.8302 52.8326 17.912 51.6494C16.1079 49.3854 16.1759 46.4387 18.0246 44.1419C23.8899 36.869 31.503 32.5005 40.634 30.7691C43.1044 30.2905 45.6523 30.1544 47.1772 29.9832ZM48.8054 63.1476C50.4219 62.9529 52.7938 62.8121 55.1188 62.357C63.3982 60.7382 70.3426 56.7826 75.7269 50.2183C76.9821 48.6862 77.0267 47.2199 75.7269 45.7442C74.4741 44.3178 73.2142 42.8632 71.7714 41.6362C63.4427 34.5275 53.7463 31.7896 42.9543 33.2325C33.8796 34.4454 26.2735 38.5511 20.3965 45.6668C19.0945 47.2434 19.0804 48.6604 20.3754 50.2159C27.5873 58.8636 36.9717 62.7769 48.8054 63.1429V63.1476Z" fill="#282366"/>
<path d="M49.4203 74.2516C49.4203 75.5303 49.5118 76.8183 49.3687 78.0805C49.3194 78.5333 48.7611 79.1409 48.3153 79.2723C47.9235 79.3849 47.3252 78.9931 46.9076 78.6998C46.7176 78.5661 46.673 78.1321 46.673 77.8341C46.6543 75.4317 46.6425 73.0293 46.673 70.6246C46.6848 69.6861 47.2032 69.1465 47.9962 69.116C48.8244 69.0832 49.4039 69.6251 49.4485 70.6011C49.4977 71.8164 49.4602 73.034 49.4602 74.2516H49.4203Z" fill="#282366"/>
<path d="M46.6523 21.6052C46.6523 20.4486 46.6312 19.2943 46.6523 18.14C46.6758 17.1593 47.2036 16.5634 47.9966 16.5329C48.7896 16.5024 49.4254 17.1288 49.4395 18.147C49.4692 20.5197 49.4692 22.8916 49.4395 25.2628C49.4231 26.2622 48.8694 26.8018 48.0318 26.8018C47.1943 26.8018 46.6758 26.2528 46.65 25.2557C46.6289 24.0404 46.6547 22.8205 46.6523 21.6052Z" fill="#282366"/>
<path d="M62.9977 72.2669C62.7443 72.532 62.4393 73.1115 62.0076 73.2335C61.5759 73.3555 60.7829 73.1866 60.5483 72.8581C59.8059 71.7844 59.1545 70.6504 58.6011 69.468C58.3031 68.858 58.5166 68.2269 59.1219 67.8398C59.7272 67.4527 60.4287 67.441 60.8064 68.0158C61.5877 69.1888 62.2141 70.4862 62.9179 71.7344C62.9608 71.9091 62.9875 72.0873 62.9977 72.2669Z" fill="#282366"/>
<path d="M37.8891 26.9332C37.3941 27.4775 37.1032 28.0687 36.6762 28.1907C36.2492 28.3127 35.4422 28.1438 35.2052 27.813C34.4434 26.7557 33.8028 25.6161 33.2955 24.4158C33.1289 24.0193 33.3917 23.2052 33.7389 22.8955C34.0439 22.6257 35.0363 22.5694 35.2122 22.8041C36.1671 24.0686 36.9718 25.4575 37.8891 26.9332Z" fill="#282366"/>
<path d="M37.6952 68.8158C37.6168 69.1296 37.5149 69.437 37.3902 69.7355C36.8576 70.7185 36.3321 71.7062 35.7479 72.6587C35.3022 73.3884 34.5561 73.576 33.8992 73.2218C33.7377 73.1405 33.594 73.028 33.4763 72.8908C33.3587 72.7536 33.2694 72.5944 33.2138 72.4224C33.1581 72.2504 33.1372 72.0691 33.1521 71.889C33.1671 71.7089 33.2177 71.5335 33.301 71.3731C33.8429 70.2915 34.4552 69.2428 35.091 68.2105C35.1646 68.0706 35.2657 67.9471 35.3882 67.8472C35.5107 67.7474 35.6521 67.6733 35.804 67.6295C35.9558 67.5857 36.115 67.573 36.2718 67.5922C36.4287 67.6114 36.5801 67.6621 36.7169 67.7413C37.1415 67.9665 37.4113 68.4874 37.6952 68.8158Z" fill="#282366"/>
<path d="M60.1116 28.3127C58.8869 28.3127 58.1831 27.3391 58.6171 26.4171C59.1676 25.2689 59.7946 24.159 60.494 23.095C60.8975 22.4709 61.5826 22.363 62.2324 22.7384C62.8823 23.1138 63.1709 23.7355 62.8284 24.4112C62.2492 25.5796 61.6103 26.7174 60.9139 27.82C60.7333 28.1063 60.2664 28.2212 60.1116 28.3127Z" fill="#282366"/>
<path d="M91.1011 61.571C91.3568 60.7381 91.6454 59.5885 92.07 58.4882C92.3211 57.843 92.9451 57.6084 93.6325 57.8172C94.3199 58.026 94.7634 58.582 94.6156 59.3093C94.3867 60.4076 94.0841 61.4893 93.71 62.547C93.4753 63.2508 92.8536 63.53 92.117 63.3517C91.3803 63.1734 91.0542 62.6455 91.1011 61.571Z" fill="#282366"/>
<path d="M89.6538 24.6058C89.384 24.9038 89.0954 25.5021 88.6989 25.5865C88.2133 25.6897 87.4391 25.5326 87.1364 25.1853C86.4326 24.3712 85.8953 23.3976 85.3651 22.4451C85.0015 21.7929 85.1798 21.1477 85.7898 20.709C86.3599 20.2984 87.0567 20.2585 87.4813 20.8216C88.225 21.8116 88.835 22.9002 89.4896 23.956C89.5697 24.1654 89.6249 24.3835 89.6538 24.6058Z" fill="#282366"/>
<path d="M33.523 91.4228C33.5418 92.6357 32.6667 93.3489 31.74 93.0486C30.7111 92.7062 29.7056 92.2971 28.7299 91.8239C28.0261 91.4838 27.8056 90.8339 28.0754 90.0878C28.324 89.3981 29.0631 89.0602 29.8396 89.33C30.8113 89.6441 31.7585 90.0291 32.6737 90.482C33.0843 90.6955 33.34 91.2163 33.523 91.4228Z" fill="#282366"/>
<path d="M38.9269 92.1758C39.8536 92.3471 40.907 92.4996 41.9346 92.7459C42.7064 92.9313 43.0795 93.5131 42.9528 94.2991C42.9366 94.473 42.885 94.6417 42.8011 94.7949C42.7172 94.9481 42.6028 95.0825 42.465 95.1898C42.3272 95.297 42.1688 95.3749 41.9997 95.4187C41.8306 95.4624 41.6543 95.471 41.4818 95.444C40.4268 95.3349 39.3799 95.1586 38.3474 94.9161C38.1689 94.8834 37.9991 94.8144 37.8484 94.7134C37.6976 94.6124 37.5693 94.4815 37.4712 94.3289C37.3731 94.1762 37.3074 94.0051 37.2781 93.826C37.2488 93.647 37.2566 93.4638 37.301 93.2879C37.4817 92.4996 38.0213 92.1547 38.9269 92.1758Z" fill="#282366"/>
<path d="M49.7587 95.9084C49.2895 95.9084 48.8202 95.9343 48.351 95.9084C47.5299 95.8521 46.9598 95.2867 46.9434 94.5547C46.9429 94.1933 47.0815 93.8455 47.3305 93.5835C47.5794 93.3214 47.9196 93.1652 48.2806 93.1471C49.2425 93.0673 50.2115 93.0227 51.1781 93.0274C52.1447 93.0321 52.7218 93.6069 52.7195 94.4351C52.7195 95.2093 52.1822 95.7231 51.2531 95.8169C50.7581 95.8662 50.2584 95.8826 49.761 95.9131L49.7587 95.9084Z" fill="#282366"/>
<path d="M91.9248 34.6378C91.6902 34.4243 91.1693 34.1099 90.9324 33.6478C90.5194 32.7744 90.1758 31.87 89.9048 30.9427C89.635 30.1122 90.0033 29.3638 90.7329 29.1057C91.4368 28.8711 92.1547 29.1691 92.4855 29.9433C92.8849 30.8568 93.2327 31.792 93.5271 32.7445C93.8157 33.7088 93.1752 34.5979 91.9248 34.6378Z" fill="#282366"/>
<path d="M91.4817 68.1541C91.2283 68.7383 91.0782 69.1418 90.8858 69.5219C90.5198 70.2398 90.1561 70.9624 89.7385 71.6498C89.6607 71.8042 89.5528 71.9414 89.4211 72.0535C89.2895 72.1655 89.1367 72.25 88.9718 72.3021C88.8069 72.3541 88.6333 72.3726 88.4612 72.3565C88.2891 72.3403 88.1219 72.2899 87.9696 72.2082C87.2517 71.8797 86.949 71.2111 87.2657 70.5025C87.7296 69.4548 88.2682 68.4418 88.8775 67.4714C89.2153 66.9247 89.8465 66.6948 90.4236 67.0444C90.8412 67.3001 91.1345 67.7787 91.4817 68.1541Z" fill="#282366"/>
<path d="M24.7723 87.2561C24.8051 88.4643 23.6837 89.1892 22.7288 88.652C21.7841 88.108 20.878 87.4997 20.0167 86.8314C19.4232 86.3786 19.3551 85.7123 19.7258 85.0648C20.0589 84.4759 20.683 84.178 21.2367 84.4853C22.3603 85.1424 23.4445 85.8646 24.4837 86.6484C24.6761 86.7868 24.716 87.1364 24.7723 87.2561Z" fill="#282366"/>
<path d="M86.2914 76.464C86.0732 76.9332 85.9841 77.2804 85.7846 77.5409C85.2333 78.2447 84.6538 78.9485 84.0556 79.6265C83.4573 80.3046 82.5869 80.4383 81.984 79.9479C81.381 79.4576 81.3059 78.6083 81.8878 77.867C82.5048 77.0857 83.103 76.2646 83.8468 75.617C84.1823 75.3238 84.9119 75.2299 85.3506 75.3824C85.7471 75.5091 86.0052 76.0933 86.2914 76.464Z" fill="#282366"/>
<path d="M71.324 89.3535C71.1621 89.5482 70.9181 90.0456 70.5169 90.2919C69.6881 90.7849 68.8257 91.2192 67.9362 91.5916C67.1221 91.9506 66.3596 91.6714 66.0288 90.9746C65.698 90.2778 65.9279 89.5224 66.7327 89.0977C67.6048 88.6147 68.5031 88.1808 69.4236 87.798C70.3855 87.3968 71.3122 88.042 71.324 89.3535Z" fill="#282366"/>
<path d="M58.3687 94.8128C57.3599 94.8269 56.8672 94.4679 56.6959 93.7946C56.5106 93.079 56.7663 92.4315 57.4842 92.1993C58.5803 91.8481 59.6978 91.5676 60.8297 91.3594C61.5218 91.2303 62.0544 91.6292 62.2374 92.2978C62.4204 92.9664 62.221 93.6726 61.5054 93.9213C60.3957 94.3201 59.2367 94.5759 58.3687 94.8128Z" fill="#282366"/>
<path d="M75.4762 86.8737C75.204 86.6555 74.641 86.4045 74.4767 86.0127C74.3125 85.6209 74.3712 84.8678 74.648 84.605C75.4784 83.7654 76.4108 83.0332 77.4234 82.4255C77.7894 82.212 78.6739 82.3762 78.9742 82.6953C79.2745 83.0144 79.4059 84.0044 79.1595 84.2531C78.2211 85.1916 77.1208 85.9494 76.0697 86.7635C75.9806 86.8198 75.8304 86.8057 75.4762 86.8737Z" fill="#282366"/>
<path d="M36.1279 47.9683C36.1409 44.8113 37.3993 41.787 39.6296 39.5526C41.86 37.3183 44.8821 36.0545 48.0391 36.036C54.5683 36.0243 59.9643 41.4156 59.976 47.9495C59.9878 54.4834 54.5988 59.8677 48.0555 59.8818C44.8976 59.8719 41.8716 58.614 39.6373 56.3823C37.403 54.1507 36.1415 51.1262 36.1279 47.9683ZM38.9432 47.8557C38.8306 52.752 42.9785 56.989 47.9663 57.0711C52.8368 57.1533 57.0199 53.0828 57.1607 48.1114C57.3015 43.2151 53.2099 38.9992 48.1751 38.849C43.307 38.7059 39.0559 42.8397 38.9432 47.8557Z" fill="#282366"/>
<path d="M47.9331 53.8523C46.4035 53.8225 44.9456 53.1981 43.8686 52.1114C42.7916 51.0248 42.1802 49.5614 42.164 48.0316C42.1372 46.5348 42.6872 45.0851 43.7 43.9827C44.7129 42.8803 46.1109 42.2098 47.6046 42.1101C48.6909 42.0373 49.2962 42.4315 49.397 43.2831C49.4979 44.1347 49.0193 44.6744 47.9542 44.8667C45.9272 45.2304 44.8831 46.387 44.984 48.1513C45.0214 48.8906 45.3286 49.5905 45.8475 50.1184C46.3663 50.6464 47.0608 50.9657 47.7993 51.0159C48.5356 51.0824 49.2709 50.8793 49.8686 50.4443C50.4663 50.0093 50.8857 49.372 51.0487 48.651C51.1097 48.3765 51.1378 48.0973 51.1942 47.8228C51.3771 46.9336 51.9496 46.4973 52.7731 46.6146C53.5121 46.7201 53.979 47.3184 53.9461 48.1653C53.8382 50.1243 53.0405 51.7713 51.3654 52.7895C50.3636 53.3995 49.1554 53.6716 48.041 54.0963L47.9331 53.8523Z" fill="#282366"/>
</g>
<defs>
<clipPath id="clip0_811_1109">
<rect width="96" height="95.9179" fill="white"/>
</clipPath>
</defs>
</svg>
