<svg width="95" height="88" viewBox="0 0 95 88" fill="none" xmlns="http://www.w3.org/2000/svg">
<g clip-path="url(#clip0_811_1158)">
<path d="M0.976562 46.5743C1.51259 45.5138 2.39369 45.1756 3.53706 45.2469C4.51018 45.309 5.4879 45.2469 6.46333 45.2722C7.58139 45.3113 8.30376 45.9969 8.34747 46.9953C8.37002 47.2331 8.34316 47.4729 8.26858 47.6998C8.194 47.9267 8.07332 48.1357 7.91409 48.3138C7.75487 48.4918 7.56057 48.6349 7.34337 48.7343C7.12617 48.8336 6.89077 48.8869 6.65197 48.891C5.34382 48.9577 4.03312 48.9577 2.72496 48.891C1.83236 48.861 1.31934 48.2537 0.976562 47.483V46.5743Z" fill="#2E296C"/>
<path d="M47.9949 88C46.541 88 45.439 87.3098 44.5027 86.2562C39.9016 81.0754 35.3006 75.8992 30.6995 70.7276C24.5893 63.8582 18.4791 56.9895 12.3688 50.1217C11.1887 48.7989 10.5537 47.361 11.1058 45.5827C11.2941 45.0329 11.5548 44.5107 11.8811 44.0299C15.0697 39.0883 18.3019 34.1744 21.4628 29.2167C22.574 27.4752 24.0348 26.67 26.1076 26.6861C40.7099 26.7184 55.3121 26.7184 69.9144 26.6861C71.9849 26.6861 73.4572 27.4798 74.5661 29.2167C77.7247 34.1767 80.9408 39.109 84.1294 44.0437C85.5672 46.2683 85.443 48.0719 83.6693 50.0596C72.9657 62.1098 62.2574 74.1569 51.5446 86.2009C50.5922 87.2707 49.4879 88.0069 47.9949 88ZM51.6274 80.2748L51.7977 80.3714C61.0665 69.9477 70.3331 59.5217 79.7077 48.976H61.2506C58.039 59.4189 54.8313 69.8518 51.6274 80.2748ZM44.3624 80.5577C44.3413 80.3492 44.3098 80.1419 44.268 79.9366C41.1577 69.8142 38.0512 59.6919 34.9486 49.5696C34.7691 48.9852 34.4424 48.9323 33.9432 48.9346C28.3437 48.9453 22.7458 48.9453 17.1493 48.9346C16.9193 48.9346 16.6892 48.9714 16.3257 49.0059L44.3624 80.5577ZM38.5926 48.9875C41.7075 59.1099 44.8079 69.1916 47.8937 79.2326H48.1099L57.4041 48.9967L38.5926 48.9875ZM24.1315 31.8854L15.4976 45.2008H32.724L24.1315 31.8854ZM71.9066 31.8854L63.3211 45.2169H80.5245L71.9066 31.8854ZM59.9094 43.6986L68.4696 30.4245H51.3445C54.2132 34.8737 57.0153 39.2126 59.9094 43.6986ZM27.5524 30.4245L36.1149 43.6733L44.6591 30.4245H27.5524ZM56.5207 45.2376L47.9995 32.0349C45.1238 36.4864 42.3356 40.8045 39.4875 45.2284L56.5207 45.2376Z" fill="#2E296C"/>
<path d="M49.8679 7.92533C49.8679 9.76575 49.8679 11.6062 49.8679 13.4466C49.8679 14.797 49.1433 15.6436 48.0505 15.6413C46.9578 15.639 46.2101 14.7924 46.2101 13.4489C46.1917 9.6791 46.1917 5.91006 46.2101 2.14179C46.2101 0.807477 46.9923 -0.0207137 48.0988 0.00459219C49.2054 0.0298981 49.861 0.823582 49.8725 2.13949C49.8794 4.06503 49.8679 5.99518 49.8679 7.92533Z" fill="#2E296C"/>
<path d="M81.815 15.333C81.6378 15.6321 81.4285 16.1957 81.0489 16.5891C79.1947 18.5055 77.3059 20.385 75.4103 22.2576C74.4418 23.2101 73.3398 23.2653 72.5714 22.4601C71.8031 21.6549 71.8813 20.6197 72.79 19.6833C74.6795 17.7601 76.5836 15.8514 78.5022 13.9573C79.1072 13.3546 79.8204 13.0371 80.6693 13.4144C81.3802 13.7227 81.7391 14.2955 81.815 15.333Z" fill="#2E296C"/>
<path d="M15.9487 12.9796C16.6389 13.3822 17.1933 13.5847 17.5844 13.9642C19.5169 15.8415 21.4148 17.7555 23.3035 19.6765C24.1915 20.5783 24.2399 21.7078 23.4853 22.4555C22.7307 23.2032 21.6449 23.1825 20.7246 22.2623C18.7945 20.3712 16.9011 18.4618 15.0101 16.5454C14.3982 15.9335 14.0393 15.1651 14.4649 14.3944C14.7548 13.8469 15.392 13.488 15.9487 12.9796Z" fill="#2E296C"/>
<path d="M91.3233 45.2676C91.933 45.2676 92.5449 45.2423 93.1638 45.2676C94.2059 45.3228 94.9306 46.0015 95.0042 46.9516C95.0257 47.181 95.0014 47.4124 94.9328 47.6323C94.8642 47.8523 94.7526 48.0565 94.6045 48.233C94.4565 48.4095 94.2748 48.5549 94.0702 48.6607C93.8655 48.7666 93.6419 48.8307 93.4122 48.8495C92.0162 48.9542 90.6144 48.9542 89.2184 48.8495C88.1601 48.7644 87.5919 47.9431 87.6586 46.9447C87.723 46.0245 88.3971 45.3458 89.4047 45.2768C90.042 45.2354 90.6861 45.2768 91.3257 45.2768L91.3233 45.2676Z" fill="#2E296C"/>
<path d="M49.8493 20.0307C49.8494 20.5117 49.6612 20.9737 49.3249 21.3177C48.9887 21.6616 48.5312 21.8603 48.0503 21.8711C47.5709 21.8562 47.1153 21.6592 46.776 21.3204C46.4367 20.9815 46.2392 20.5261 46.2236 20.0468C46.2302 19.5667 46.4242 19.1081 46.7642 18.769C47.1041 18.4299 47.5632 18.237 48.0434 18.2317C48.5213 18.2311 48.98 18.4202 49.3186 18.7575C49.6572 19.0948 49.8481 19.5528 49.8493 20.0307Z" fill="#2E296C"/>
</g>
<defs>
<clipPath id="clip0_811_1158">
<rect width="94.032" height="88" fill="white" transform="translate(0.976562)"/>
</clipPath>
</defs>
</svg>
