<svg width="55" height="56" viewBox="0 0 55 56" fill="none" xmlns="http://www.w3.org/2000/svg">
<g clip-path="url(#clip0_336_102)">
<path d="M10.2722 22.0206L10.7305 20.1873C10.2096 20.1873 9.74057 20.1965 9.27156 20.1873C8.6452 20.172 8.24647 19.8069 8.24799 19.2707C8.24952 18.7344 8.64978 18.354 9.27767 18.354C11.6405 18.3459 14.0039 18.3459 16.3678 18.354C16.9927 18.354 17.3929 18.7375 17.3883 19.2707C17.3837 19.8038 16.985 20.1659 16.3541 20.1873C15.8958 20.1965 15.4374 20.1873 14.9119 20.1873C15.0647 20.8183 15.2052 21.4003 15.3565 22.0206C16.0027 22.0206 16.6291 22.0206 17.2554 22.0206C17.8818 22.0206 18.2897 22.3796 18.3034 22.9143C18.3172 23.449 17.9032 23.8309 17.234 23.8508C16.7757 23.8508 16.3174 23.8508 15.8117 23.8508L16.7284 27.5173C17.2432 27.5173 17.7183 27.5081 18.1934 27.5173C18.8167 27.531 19.2185 27.9008 19.214 28.4339C19.2094 28.9671 18.8091 29.3261 18.1797 29.3429C17.8741 29.3506 17.5686 29.3429 17.1897 29.3429C17.4953 30.585 17.7917 31.7781 18.0911 32.9865H20.3827C20.6378 31.83 20.9204 30.6522 21.1557 29.4636C21.8997 25.7161 22.0448 21.9228 21.9547 18.1172C21.9211 16.7331 22.3137 16.4031 23.5038 16.504C23.5949 16.5028 23.6858 16.4947 23.7757 16.4795C23.7757 14.9686 23.8063 13.4669 23.7589 11.9666C23.7421 11.3983 23.2089 11.05 22.5856 11.0042C21.9623 10.9584 21.3146 10.9752 20.7218 10.8102C18.9756 10.3198 17.9337 9.10523 17.4632 7.33766H15.2312C12.4294 7.33766 9.62752 7.32697 6.82874 7.33766C5.57448 7.3453 4.62577 6.86559 3.98871 5.76258C3.92615 5.69175 3.85022 5.63397 3.76528 5.59255C3.68034 5.55113 3.58806 5.52688 3.49373 5.5212C3.04306 5.46315 2.5771 5.5212 2.13253 5.42037C1.47184 5.27752 0.888389 4.89292 0.496649 4.34206C0.104909 3.79119 -0.0668336 3.11382 0.0151152 2.44285C0.090584 1.782 0.404589 1.1714 0.898216 0.725587C1.39184 0.279776 2.03117 0.0293943 2.69626 0.0214135C4.79229 0.00155315 6.88985 0.0214135 8.98588 0.0214135H18.7633C21.4123 0.0214135 22.8591 1.46205 22.8774 4.11876V4.59235C23.3999 4.59235 23.9056 4.59235 24.4051 4.59235C26.3117 4.59235 27.4606 5.37454 28.1954 7.14517C28.2837 7.32051 28.4332 7.45745 28.6155 7.53015C30.2227 8.16721 31.0981 9.41536 31.1042 11.1386C31.1042 12.7244 31.1042 14.3102 31.1042 15.8944V16.5055C31.3777 16.5055 31.6007 16.5055 31.8237 16.5055C32.6044 16.5177 32.9207 16.8401 32.9344 17.6299C32.9695 19.7305 32.9802 21.8311 33.0475 23.9302C33.1299 26.4601 33.9274 31.0815 34.5752 32.9758H36.8835C37.2044 31.3824 37.5664 29.7676 37.8491 28.1406C38.4418 24.72 38.4602 21.2659 38.4327 17.8025C38.4235 16.7835 38.7046 16.507 39.7098 16.5055H42.064V14.8815C41.3002 14.5439 40.4905 14.3453 39.8901 13.8809C39.2897 13.4165 38.8849 12.6801 38.286 11.9269C37.8888 11.9269 37.2624 11.9269 36.6376 11.9269C34.5309 11.8994 32.9711 10.3274 32.9436 8.21457C32.9344 7.33919 32.9436 6.46228 32.9436 5.51051H30.7605C28.0976 5.51051 26.3835 3.66655 26.5455 0.993043C26.5837 0.362095 26.9259 0.0153027 27.5706 0.013775C30.3205 0.00613642 33.0612 -0.0106685 35.805 0.013775C36.7423 0.0303727 37.6363 0.411248 38.2976 1.0757C38.959 1.74015 39.3356 2.63598 39.3478 3.57336C39.3661 4.50221 39.3478 5.43412 39.3478 6.42714C41.5171 6.26215 43.0876 7.02448 43.8194 9.11592C44.2172 9.17023 44.6119 9.24519 45.0018 9.3405C45.7395 9.55969 46.3877 10.0089 46.8519 10.6227C47.3162 11.2364 47.572 11.9824 47.5822 12.7519C47.6005 13.9741 47.5822 15.1962 47.5822 16.4704C47.7685 16.4841 47.9305 16.5055 48.0924 16.5086C49.1786 16.5223 49.4032 16.7637 49.4185 17.8743C49.4429 19.8405 49.4353 21.8097 49.53 23.7729C49.6984 26.9008 50.2049 30.0013 51.0409 33.0201C51.9346 33.0201 52.8268 33.0201 53.719 33.0201C54.5822 33.0201 54.9015 33.3333 54.903 34.1827C54.903 40.7346 54.903 47.2865 54.903 53.8384C54.903 54.7015 54.5883 55.0223 53.7389 55.0223H1.18534C0.32371 55.0223 0.00594923 54.7092 0.00594923 53.8552C0.00594923 50.3598 -0.00474219 46.8643 0.0181736 43.3689C0.0299296 43.0134 0.143386 42.6688 0.345098 42.3759C1.10896 41.2851 1.94921 40.2371 2.72529 39.1539C3.05986 38.6834 3.45707 38.4741 4.02844 38.5138C4.48675 38.5459 4.94506 38.5138 5.45838 38.5138C5.4706 38.3381 5.49198 38.1762 5.49198 38.0143C5.49198 36.7722 5.49198 35.5317 5.49198 34.2897C5.49198 33.286 5.77003 33.0156 6.79207 33.0125H7.52385C7.8294 31.8025 8.12425 30.6079 8.44048 29.346C8.04633 29.346 7.70871 29.3582 7.37108 29.346C6.79055 29.3215 6.40556 28.9427 6.41014 28.4293C6.41473 27.916 6.80277 27.5494 7.38789 27.5234C7.63538 27.5127 7.88287 27.5234 8.13036 27.5234C8.37785 27.5234 8.62228 27.5234 8.89422 27.5234L9.81085 23.8569C9.26851 23.8569 8.79338 23.8676 8.31979 23.8569C7.73009 23.8401 7.34205 23.4811 7.32678 22.9662C7.3115 22.4514 7.71329 22.0496 8.32896 22.0297C8.94463 22.0099 9.58628 22.0206 10.2722 22.0206ZM12.8143 38.497C12.8143 38.2801 12.8143 38.1273 12.8143 37.9745C12.8143 36.9601 13.0893 36.6912 14.1053 36.6897C15.1212 36.6882 16.1631 36.6897 17.1913 36.6897C17.9719 36.6897 18.2973 37.0228 18.3019 37.8111C18.3019 38.8224 18.334 39.8368 18.2897 40.8466C18.2698 41.2897 18.1002 41.7266 17.9933 42.1895L18.4272 43.98H53.0422V34.8809H7.36344V38.4894L12.8143 38.497ZM32.9436 45.8973H18.3477V53.1646H33.8312V49.5592C33.0673 49.2659 32.9451 49.0872 32.9436 48.2744C32.942 47.4938 32.9436 46.7131 32.9436 45.8896V45.8973ZM29.277 16.4918C29.277 14.6952 29.277 12.9245 29.277 11.1539C29.277 10.0112 28.6262 9.32064 27.4804 9.18314C26.8694 9.1144 26.6035 8.84399 26.5333 8.24054C26.3988 7.06725 25.7007 6.43936 24.5167 6.43478C23.8124 6.43478 23.1066 6.43478 22.4023 6.43478C21.3039 6.43478 21.0457 6.18118 21.0442 5.10108C21.0442 4.62443 21.0549 4.14625 21.0442 3.66961C21.044 3.42984 20.9963 3.1925 20.9038 2.97127C20.8114 2.75005 20.676 2.54933 20.5056 2.38072C20.3351 2.21211 20.1329 2.07894 19.9107 1.98892C19.6885 1.89889 19.4506 1.85378 19.2109 1.8562C13.761 1.845 8.31216 1.845 2.86431 1.8562C2.23795 1.8562 1.83921 2.23202 1.83921 2.77284C1.83921 3.31365 2.23795 3.67572 2.86431 3.68947C3.41582 3.70016 3.96885 3.68947 4.52189 3.68947C4.74376 3.67433 4.96357 3.74037 5.14036 3.87528C5.31715 4.01019 5.43886 4.20477 5.48282 4.42277C5.74558 5.3669 5.94114 5.5212 6.91582 5.5212C10.6323 5.5212 14.3497 5.5212 18.0682 5.5212C18.8702 5.5212 19.1605 5.79772 19.2277 6.59824C19.2672 7.21049 19.5103 7.79194 19.9184 8.25009C20.3264 8.70824 20.876 9.01678 21.4796 9.12662C21.7617 9.16848 22.047 9.18433 22.332 9.17398C24.4006 9.18314 25.6197 10.4114 25.6227 12.4983C25.6227 13.6624 25.6227 14.8281 25.6227 15.9922C25.6227 16.1557 25.6441 16.3206 25.6548 16.4841L29.277 16.4918ZM43.0173 53.157H53.027V45.8805H43.9217C43.9217 46.6291 43.8927 47.3501 43.9309 48.0697C43.9691 48.7893 43.8255 49.3958 43.0234 49.5699L43.0173 53.157ZM14.6369 53.157H16.4198V44.0503H7.36344V53.1387H9.15393C9.15393 51.9654 9.15393 50.8395 9.15393 49.712C9.15393 48.9313 9.48544 48.6075 10.2737 48.6029C11.3401 48.5968 12.4095 48.5968 13.482 48.6029C14.3344 48.6029 14.6445 48.9191 14.6476 49.7823C14.6461 50.8945 14.643 51.9944 14.643 53.1448L14.6369 53.157ZM45.7382 16.4918C45.7382 15.1856 45.7718 13.9267 45.726 12.6725C45.6939 11.7848 44.93 11.079 44.0409 11.021C43.7949 11.0042 43.5459 11.021 43.2984 11.021C42.4444 11.021 42.1908 10.7888 42.0854 9.93631C42.0415 9.48513 41.833 9.06592 41.4996 8.75875C41.1662 8.45158 40.7314 8.27798 40.2781 8.2711C39.7633 8.25582 39.2485 8.2711 38.7351 8.2711C37.8185 8.2711 37.5206 7.96555 37.513 7.026C37.513 5.97646 37.513 4.92539 37.513 3.87585C37.513 2.59868 36.7644 1.8562 35.4842 1.85468C33.2934 1.85468 31.1037 1.85468 28.915 1.85468C28.75 1.85468 28.5865 1.87148 28.4185 1.88218C28.6217 2.98977 29.3962 3.66808 30.4778 3.68336C31.5258 3.69863 32.5739 3.68336 33.6219 3.68336C34.4438 3.68336 34.7661 4.0057 34.7707 4.82151C34.7707 5.758 34.8288 6.69755 34.7616 7.62793C34.6348 9.37869 35.6064 10.2464 37.2059 10.1105C37.8491 10.0555 38.5014 10.0967 39.1492 10.1028C39.8825 10.1028 40.1788 10.3839 40.2583 11.1127C40.3744 12.1653 41.1046 12.8313 42.1695 12.8512C42.3604 12.8512 42.5499 12.8512 42.7408 12.8512C43.5994 12.8512 43.9111 13.1659 43.9156 14.0245C43.9156 14.8388 43.9156 15.6546 43.9156 16.4933L45.7382 16.4918ZM23.3892 27.5356L22.3045 32.9911H32.6029C32.2439 31.1579 31.8879 29.3613 31.5335 27.5356H23.3892ZM47.9992 27.5433H39.855C39.4929 29.3765 39.1354 31.1731 38.7779 32.9789H49.0702C48.7035 31.1533 48.3506 29.3643 47.9855 27.5433H47.9992ZM3.67247 40.9719C3.1225 41.7037 2.60307 42.3469 2.14476 43.0206C1.96715 43.2794 1.86505 43.5825 1.84991 43.896C1.82852 46.7986 1.83615 49.7013 1.83768 52.604C1.83768 52.7873 1.85449 52.9706 1.86213 53.1402H5.49657C5.49657 49.9442 5.49657 46.7941 5.49657 43.6454C5.4983 43.5141 5.46166 43.385 5.39116 43.2742C4.83354 42.5241 4.27134 41.7816 3.66484 40.9719H3.67247ZM31.0889 18.3861H23.8109V21.9839H31.0889V18.3861ZM40.2827 21.9732H47.5379V18.377H40.2827V21.9732ZM5.4981 40.3532C5.92433 40.9246 6.25126 41.4134 6.63625 41.8534C6.80445 42.0382 7.03648 42.1523 7.28553 42.1727C9.89334 42.1941 12.5012 42.1865 15.1074 42.1834C15.2421 42.1729 15.3758 42.153 15.5077 42.1238C15.1044 41.5815 14.753 41.085 14.3696 40.6129C14.2554 40.4729 14.0908 40.3835 13.9112 40.3639C11.1507 40.3532 8.3916 40.3532 5.4981 40.3532ZM47.6799 23.8905H40.1727L40.0398 25.6489H47.8312C47.7747 25.0531 47.7273 24.4894 47.6799 23.8905ZM31.2096 23.8905H23.7039C23.6581 24.5016 23.6153 25.0607 23.571 25.6489H31.3624C31.3043 25.0516 31.2585 24.4878 31.2081 23.8905H31.2096ZM34.8059 45.8759V47.6496H42.0518V45.8759H34.8059ZM14.6232 32.9942L10.2432 29.7065C9.95445 30.8554 9.69016 31.9095 9.41822 32.9942H14.6232ZM35.7057 53.1402H37.4855V49.5531H35.7057V53.1402ZM41.1474 49.5501H39.3844V53.1433H41.1505L41.1474 49.5501ZM11.0147 53.1539H12.7823V50.4774H11.0147V53.1539ZM13.595 27.499L11.4333 24.9018C11.2026 25.8429 11.004 26.6557 10.7962 27.499H13.595ZM12.848 29.3735L15.7216 31.5291L15.8224 31.4481C15.6503 30.7566 15.4787 30.065 15.3076 29.3735H12.848ZM13.459 21.9854C13.3231 21.4446 13.2146 20.9619 13.0771 20.4898C13.0435 20.3722 12.9121 20.2835 12.825 20.1842C12.7318 20.2774 12.5867 20.3554 12.5546 20.4653C12.411 20.9557 12.2995 21.4553 12.1681 21.9931L13.459 21.9854ZM15.0861 38.5337L16.4396 40.2676V38.5337H15.0861ZM14.2229 25.3815L14.3085 25.3342C14.1847 24.8468 14.061 24.3595 13.9433 23.892H12.9839L14.2229 25.3815Z" fill="white"/>
<path d="M12.9123 13.751C12.5227 13.751 12.2385 13.7617 11.9574 13.751C11.1264 13.7143 10.7169 13.0085 11.1539 12.3134C11.7298 11.3968 12.3394 10.4924 12.9566 9.59714C13.0185 9.49435 13.1007 9.40523 13.1982 9.33522C13.2957 9.2652 13.4064 9.21576 13.5236 9.18989C13.6407 9.16402 13.762 9.16227 13.8799 9.18475C13.9978 9.20722 14.1098 9.25345 14.2093 9.32062C14.6554 9.60631 14.7593 10.1166 14.4553 10.6192C14.2093 11.024 13.9419 11.4136 13.6104 11.9223C14.0199 11.9223 14.3315 11.9071 14.6401 11.9223C15.404 11.9697 15.8012 12.6633 15.404 13.308C14.8112 14.2643 14.1818 15.1962 13.5371 16.119C13.4747 16.2159 13.3933 16.2993 13.2979 16.364C13.2025 16.4287 13.095 16.4735 12.9818 16.4956C12.8687 16.5177 12.7522 16.5167 12.6394 16.4927C12.5267 16.4687 12.4199 16.4221 12.3256 16.3558C11.8963 16.0823 11.7772 15.5797 12.043 15.1015C12.1622 14.8861 12.3134 14.6875 12.4478 14.4797C12.5823 14.272 12.7091 14.0764 12.9123 13.751Z" fill="white"/>
<path d="M27.4547 39.3754C27.4547 38.8025 27.4409 38.2296 27.4547 37.6567C27.473 37.0456 27.8152 36.6958 28.4217 36.6882C29.6032 36.6729 30.7846 36.6729 31.966 36.6882C32.5771 36.6958 32.9254 37.0487 32.9346 37.6552C32.9499 38.8397 32.9499 40.0237 32.9346 41.2071C32.9254 41.8182 32.5725 42.1696 31.9676 42.1772C30.7861 42.1925 29.6047 42.1925 28.4233 42.1772C27.8122 42.1696 27.473 41.8167 27.4547 41.2087C27.4363 40.6006 27.4547 39.9865 27.4547 39.3754ZM31.0738 40.3226V38.5611H29.3124V40.3226H31.0738Z" fill="white"/>
<path d="M37.5391 36.6867C38.1104 36.6867 38.6818 36.6775 39.2532 36.6867C39.8963 36.7019 40.2492 37.0411 40.2584 37.6797C40.2716 38.8438 40.2716 40.0084 40.2584 41.1736C40.2508 41.8183 39.904 42.1727 39.2684 42.1803C38.1053 42.1936 36.9427 42.1936 35.7807 42.1803C35.1375 42.1803 34.7861 41.8259 34.7785 41.1873C34.7632 40.0232 34.7647 38.8591 34.7785 37.6934C34.7785 37.0487 35.1314 36.7035 35.7684 36.6882C36.3566 36.6714 36.9478 36.6867 37.5391 36.6867ZM38.4037 38.5535H36.6408V40.3104H38.4037V38.5535Z" fill="white"/>
<path d="M44.84 36.6867C45.4312 36.6867 46.0225 36.6729 46.6122 36.6867C47.2019 36.7004 47.5685 37.0503 47.5762 37.6598C47.5914 38.8443 47.5914 40.0278 47.5762 41.2102C47.5762 41.8213 47.2126 42.1697 46.6061 42.1773C45.4256 42.1926 44.2442 42.1926 43.0618 42.1773C42.4507 42.1697 42.1054 41.8137 42.0978 41.2041C42.0825 40.0217 42.0825 38.8382 42.0978 37.6537C42.1069 37.0426 42.4598 36.7035 43.0679 36.6867C43.6759 36.6699 44.2488 36.6867 44.84 36.6867ZM43.9509 40.3196H45.7139V38.5627H43.9509V40.3196Z" fill="white"/>
<path d="M20.1354 39.3754C20.1354 38.8025 20.1216 38.2296 20.1354 37.6567C20.1537 37.0456 20.4959 36.6958 21.1024 36.6882C22.2829 36.6729 23.4643 36.6729 24.6468 36.6882C25.2578 36.6958 25.6062 37.0487 25.6138 37.6552C25.6311 38.8397 25.6311 40.0237 25.6138 41.2071C25.6062 41.8182 25.2533 42.1696 24.6483 42.1772C23.4658 42.1925 22.2844 42.1925 21.104 42.1772C20.4929 42.1696 20.1522 41.8167 20.1354 41.2087C20.1186 40.6006 20.1354 39.9865 20.1354 39.3754ZM23.7683 38.5459H21.9992V40.3088H23.7683V38.5459Z" fill="white"/>
</g>
<defs>
<clipPath id="clip0_336_102">
<rect width="54.9016" height="55.0193" fill="white"/>
</clipPath>
</defs>
</svg>
