<svg width="56" height="56" viewBox="0 0 56 56" fill="none" xmlns="http://www.w3.org/2000/svg">
<g clip-path="url(#clip0_336_122)">
<path d="M0.514549 55.9998C-0.0819575 55.639 -0.0702577 55.1379 0.0978753 54.5316C1.57355 49.0871 3.03557 43.6387 4.48395 38.1864C5.22374 35.3872 5.49714 32.5266 5.49421 29.6354C5.49421 27.9036 5.49421 26.1719 5.49421 24.4402C5.48647 24.2401 5.50019 24.0398 5.53515 23.8427C5.62726 23.4307 5.94306 23.1662 6.32172 23.2451C6.60536 23.3036 6.85536 23.5987 7.07905 23.8295C7.15946 23.9113 7.13314 24.11 7.13168 24.2532C7.07905 27.2964 7.09513 30.3425 6.94747 33.3798C6.81881 36.0446 6.10534 38.6203 5.40649 41.1872C4.26026 45.402 3.13451 49.6213 1.99997 53.8391C1.95757 53.9954 1.92833 54.1532 1.88593 54.3402H30.644C30.5738 54.048 30.5139 53.7952 30.4452 53.5396C29.0621 48.3517 27.6483 43.1668 26.3062 37.976C25.6073 35.2644 25.3865 32.4828 25.3822 29.685C25.3763 25.8028 25.3763 21.92 25.3822 18.0368V17.3619H7.18578C7.16201 17.4987 7.14542 17.6367 7.13607 17.7753C7.13607 18.4503 7.13607 19.1252 7.13607 19.7987C7.13607 20.6505 6.87875 21.0201 6.30272 21.0113C5.72668 21.0026 5.49714 20.6417 5.49714 19.825C5.49714 17.3648 5.49714 14.904 5.49714 12.4428C5.49714 11.5166 5.74422 11.274 6.66676 11.274H15.4024V8.02048C14.8278 8.18995 14.2678 8.40179 13.6903 8.51867C9.82766 9.29736 6.36704 6.96859 5.45182 2.99771C5.18573 1.83771 5.24275 1.68284 6.25886 1.09846C9.87299 -0.973179 14.0997 -0.125824 16.2577 3.77786C16.3498 3.65075 16.4331 3.54995 16.4989 3.43745C18.6247 -0.190106 23.0415 -1.09152 26.8091 1.41841C26.9681 1.51197 27.0936 1.65326 27.1676 1.82218C27.2416 1.99109 27.2604 2.17904 27.2214 2.35927C26.7652 5.08103 24.9757 8.01902 21.3499 8.60194C20.098 8.79298 18.8177 8.64152 17.6451 8.16366L17.1363 7.96496V11.2375C17.322 11.2463 17.5135 11.2623 17.7065 11.2623H25.7477C26.831 11.2623 27.0328 11.4581 27.0328 12.5232C27.0328 18.2472 27.0328 23.9707 27.0328 29.6938C27.0307 32.2281 27.2908 34.7559 27.8091 37.2367C27.8968 37.6531 28.0533 37.7963 28.4875 37.7875C29.6089 37.7612 29.6089 37.7875 29.6089 36.6611V14.1901C29.6089 13.99 29.6016 13.7883 29.6206 13.5897C29.6229 13.3938 29.7029 13.207 29.8429 13.07C29.983 12.9331 30.1717 12.8572 30.3677 12.8592C30.5613 12.8335 30.7574 12.8846 30.9139 13.0014C31.0704 13.1183 31.175 13.2916 31.2054 13.4845C31.2445 13.6993 31.2588 13.918 31.2478 14.1361C31.2478 21.7545 31.2478 29.3739 31.2478 36.9942V37.7378H38.4015V6.10224H31.2434C31.2434 7.21695 31.2434 8.30683 31.2434 9.3967C31.2531 9.61442 31.2344 9.83246 31.1879 10.0454C31.0709 10.4734 30.761 10.6721 30.3209 10.6298C30.1356 10.6228 29.9599 10.5457 29.8293 10.4142C29.6987 10.2826 29.6231 10.1064 29.6176 9.92119C29.6052 9.794 29.6008 9.66616 29.6045 9.53842C29.6045 6.7324 29.6045 3.92541 29.6045 1.11745C29.6045 0.258407 29.856 0.00712261 30.7054 0.00712261H38.9673C39.8138 0.00712261 40.0755 0.264253 40.077 1.11891C40.077 4.56385 40.077 8.00879 40.077 11.4537V12.1521H47.7862C48.6445 12.1521 48.9091 12.4077 48.9091 13.2478C48.9091 15.9817 48.9091 18.7162 48.9091 21.4511C48.9091 22.1991 48.6313 22.5585 48.0801 22.5483C47.5289 22.538 47.2716 22.1757 47.2687 21.4175C47.2687 20.3817 47.2687 19.3458 47.2687 18.2662H40.1165V37.7378H47.2687V37.1242C47.2687 33.4231 47.2687 29.722 47.2687 26.0209C47.2591 25.803 47.2763 25.5846 47.3199 25.3708C47.3669 25.1904 47.4754 25.032 47.6266 24.9228C47.7779 24.8136 47.9625 24.7605 48.1487 24.7726C48.3349 24.7847 48.5111 24.8613 48.6469 24.9891C48.7828 25.1169 48.8698 25.2881 48.893 25.4731C48.9081 25.6548 48.913 25.8372 48.9076 26.0195V37.7817H49.6123C51.3258 37.7817 53.0408 37.7934 54.7557 37.7744C55.2572 37.7744 55.6841 37.8635 55.997 38.2799V55.9998H0.514549ZM54.3391 54.3387V39.4676H28.3676C29.7137 44.4699 31.0456 49.4201 32.3633 54.3183H46.39C46.39 52.7667 46.39 51.2502 46.39 49.7425C46.39 48.8908 46.6547 48.6161 47.4909 48.6118C48.7863 48.6049 50.0812 48.6049 51.3755 48.6118C52.1928 48.6118 52.4618 48.8864 52.4677 49.6972C52.4677 50.8821 52.4677 52.0669 52.4677 53.2518V54.3387H54.3391ZM25.3588 12.9293H7.1814V15.6365H25.3588V12.9293ZM17.2197 6.11831C19.7446 7.77212 23.7154 7.38058 25.2301 3.45352C25.5942 2.51121 25.5883 2.50682 24.6453 2.11821C20.9274 0.578358 17.7855 2.97433 17.2197 6.11831ZM12.3321 7.03287C13.1903 7.05333 14.1172 6.75821 15.0164 6.33307C15.2796 6.20889 15.3512 6.05111 15.2693 5.77499C14.164 2.02325 10.5908 0.647023 7.32321 2.39433C7.25256 2.44672 7.19597 2.51575 7.15847 2.59527C7.12097 2.6748 7.10374 2.76235 7.10829 2.85015C7.87147 5.64788 9.99287 7.03872 12.3321 7.03287ZM47.2395 13.8176H40.1267V16.5452H47.2395V13.8176ZM38.3869 4.38708V1.66531H31.2917V4.38708H38.3869ZM50.7951 54.3519V50.2904H48.0728V54.3446L50.7951 54.3519Z" fill="white"/>
<path d="M15.4346 38.9842C14.2869 38.9842 13.2313 38.9842 12.1758 38.9842C11.1202 38.9842 10.7825 38.4773 11.243 37.5233C12.6309 34.6354 14.0204 31.7486 15.4112 28.8627C15.6305 28.4054 15.9215 28.0899 16.4683 28.2213C17.0151 28.3528 17.0809 28.7707 17.0794 29.244C17.0794 30.591 17.0794 31.9366 17.0794 33.3201C17.2548 33.3376 17.3923 33.3639 17.5312 33.3654C18.442 33.3654 19.3543 33.3654 20.2666 33.3654C21.4509 33.3654 21.7637 33.8504 21.2564 34.9008C20.2301 37.0338 19.2018 39.1654 18.1715 41.2955C17.8309 41.9996 17.4858 42.7024 17.1481 43.4124C16.9347 43.8697 16.6803 44.2627 16.0925 44.1575C15.6218 44.0727 15.4332 43.7192 15.4317 42.9887C15.4317 41.8769 15.4317 40.7651 15.4317 39.6533L15.4346 38.9842ZM13.1626 37.3144C13.417 37.3275 13.5925 37.3421 13.7665 37.3421C14.3673 37.3421 14.9682 37.3421 15.5691 37.3421C16.9741 37.3421 17.0736 37.44 17.0736 38.8177V39.4912L17.2066 39.5058L19.3748 35.0046C18.3601 35.0046 17.4361 35.0046 16.5107 35.0046C15.708 35.0046 15.4434 34.7343 15.4332 33.9162C15.4332 33.5772 15.4332 33.2368 15.4332 32.8935H15.287C14.5969 34.3442 13.8936 35.795 13.1626 37.3144Z" fill="white"/>
<path d="M42.5947 41.329H51.3449C52.2031 41.329 52.4604 41.5818 52.4648 42.4291C52.4648 43.5044 52.4648 44.5797 52.4648 45.6549C52.4648 46.4366 52.1856 46.7083 51.4107 46.7083C45.5236 46.7083 39.6355 46.7083 33.7465 46.7083C32.9643 46.7083 32.6938 46.4395 32.6909 45.6637C32.6909 44.5709 32.6909 43.4776 32.6909 42.3838C32.6909 41.6022 32.9599 41.3305 33.7377 41.329C36.6881 41.3271 39.6404 41.3271 42.5947 41.329ZM50.7981 43.0106H34.3693V45.0296H50.7981V43.0106Z" fill="white"/>
</g>
<defs>
<clipPath id="clip0_336_122">
<rect width="56" height="56" fill="white"/>
</clipPath>
</defs>
</svg>
