<svg width="48" height="48" viewBox="0 0 48 48" fill="none" xmlns="http://www.w3.org/2000/svg">
<g clip-path="url(#clip0_336_127)">
<path d="M46.4073 43.6491C46.8898 43.8528 47.3024 43.9578 47.6254 44.1875C47.8161 44.3172 47.9484 44.6493 47.9666 44.901C48.0079 45.5631 48.0109 46.2271 47.9756 46.8897C47.9497 47.4968 47.484 47.9275 46.8743 47.9781C46.7121 47.9897 46.5499 47.9781 46.3878 47.9781H1.61149C0.359636 47.9781 0.00158691 47.6187 0.00158691 46.3617C0.00158691 45.9725 0.00158691 45.5833 0.00158691 45.1941C0.00158691 44.2666 0.428393 43.8385 1.36242 43.8074C1.45842 43.8074 1.55441 43.7957 1.72306 43.7853V32.7832C1.72306 31.9154 1.88003 31.7571 2.73103 31.7571C3.47177 31.7571 4.2138 31.7571 4.98438 31.7571V17.7778C4.52125 17.8491 4.06981 17.927 3.61577 17.9893C2.73752 18.1099 2.18099 17.6377 2.15893 16.7426C2.14596 16.2237 2.14596 15.7048 2.15893 15.1859C2.1771 14.4646 2.53125 14.043 3.24994 13.9171C7.74019 13.1267 12.2309 12.3401 16.722 11.5574C20.3206 10.9261 23.9188 10.2917 27.5165 9.65434C28.7956 9.42602 29.3249 9.84504 29.3262 11.1306C29.3262 11.5509 29.334 11.9725 29.3262 12.3929C29.3106 13.118 28.963 13.5332 28.2495 13.6733C27.7734 13.7667 27.2882 13.8147 26.8225 13.9327C26.6928 13.9664 26.4943 14.1636 26.4943 14.2869C26.4787 16.9579 26.4878 19.6277 26.4943 22.2988C26.5027 22.3394 26.5167 22.3787 26.5358 22.4155H30.4418V21.7837C30.4418 16.3456 30.4418 10.9071 30.4418 5.46807C30.4356 5.22577 30.4557 4.9835 30.5015 4.7455C30.5428 4.50243 30.6706 4.2825 30.8613 4.12631C31.0521 3.97013 31.2929 3.88825 31.5393 3.89579C32.7216 3.88282 33.9034 3.88282 35.0847 3.89579C35.6763 3.90228 36.0862 4.28497 36.1589 4.87393C36.1818 5.09931 36.1905 5.32592 36.1848 5.5524C36.1848 10.9594 36.1848 16.3646 36.1848 21.7682V22.4168H38.7288V1.6645C38.724 1.43806 38.7322 1.21153 38.7534 0.986034C38.7724 0.715817 38.895 0.463363 39.0956 0.281354C39.2962 0.0993441 39.5594 0.00184222 39.8301 0.00919514C41.0124 -0.0020478 42.1942 -0.0020478 43.3756 0.00919514C43.6224 0.00174332 43.8635 0.0839878 44.0543 0.240695C44.2451 0.397402 44.3727 0.617953 44.4134 0.861496C44.4604 1.11815 44.4804 1.37903 44.473 1.63985C44.473 8.34064 44.473 15.0432 44.473 21.7474V22.4155C44.6144 22.4298 44.7325 22.4518 44.8622 22.4544C46.0298 22.4752 46.4189 22.8786 46.4189 24.0552V43.6491H46.4073ZM19.6512 23.8204V43.7853H45.0114V23.8204H19.6512ZM25.0777 22.444V14.2324L6.42693 17.508V31.7182H18.267V31.1487C18.267 28.7375 18.267 26.3255 18.267 23.9125C18.267 22.7852 18.6121 22.444 19.7485 22.444H25.0777ZM3.12021 33.1283V43.7762H5.01551V43.1678C5.01551 41.0001 5.01551 38.8311 5.01551 36.6633C5.01551 35.7397 5.43193 35.3246 6.35299 35.3233C9.21734 35.3172 12.0821 35.3172 14.9473 35.3233C15.9073 35.3233 16.316 35.754 16.316 36.7334C16.316 38.9024 16.316 41.071 16.316 43.2392V43.7788H18.232V33.1283H3.12021ZM46.607 45.2058H1.38836V46.5926H46.607V45.2058ZM40.1207 4.01774V22.4129H43.0668V4.02292L40.1207 4.01774ZM31.8299 7.90952V22.4181H34.776V7.90822L31.8299 7.90952ZM27.9485 10.9685L3.53792 15.2494V16.6284L27.9485 12.3449V10.9685ZM6.41396 36.7087V43.7775H9.96067V36.7087H6.41396ZM11.3812 43.7892H14.9305V36.723H11.3812V43.7892ZM43.0811 1.38948H40.1129V2.59983H43.0811V1.38948ZM31.8169 6.49291H34.7851V5.28386H31.8169V6.49291Z" fill="white"/>
<path d="M42.8421 29.5049C42.8421 29.9745 42.8512 30.4441 42.8421 30.9125C42.824 31.5909 42.4179 32.0709 41.7446 32.0969C40.7068 32.1371 39.669 32.1345 38.6403 32.0969C37.9994 32.0709 37.5843 31.6376 37.5649 30.9981C37.5337 29.9802 37.5337 28.9614 37.5649 27.9417C37.5856 27.2671 38.0513 26.8326 38.7246 26.8196C39.7118 26.8001 40.699 26.7988 41.685 26.8196C42.3699 26.8339 42.8149 27.3125 42.8447 28.0014C42.8447 28.0325 42.8447 28.065 42.8447 28.0974L42.8421 29.5049ZM38.9412 28.1986V30.7386H41.4527V28.1986H38.9412Z" fill="white"/>
<path d="M40.1891 40.6082C39.7039 40.6082 39.2188 40.6173 38.7336 40.6082C38.072 40.5926 37.5946 40.1983 37.5661 39.5522C37.5271 38.5027 37.5284 37.4507 37.5661 36.4012C37.5881 35.7642 38.0318 35.3543 38.6713 35.34C39.6892 35.3167 40.708 35.3167 41.7277 35.34C41.8746 35.3375 42.0205 35.3648 42.1566 35.4203C42.2927 35.4758 42.4161 35.5582 42.5195 35.6628C42.6228 35.7673 42.7038 35.8917 42.7577 36.0284C42.8116 36.1651 42.8372 36.3114 42.8329 36.4583C42.8537 37.4598 42.8524 38.4625 42.8329 39.4653C42.8354 39.6158 42.8075 39.7652 42.751 39.9047C42.6945 40.0442 42.6104 40.1708 42.5039 40.2771C42.3974 40.3834 42.2705 40.4672 42.1309 40.5234C41.9913 40.5796 41.8418 40.6071 41.6914 40.6043C41.1932 40.6199 40.6912 40.6082 40.1891 40.6082ZM41.4553 39.2318V36.7242H38.9321V39.2318H41.4553Z" fill="white"/>
<path d="M27.1063 29.479C27.1063 29.9642 27.1179 30.4493 27.1063 30.9345C27.0868 31.5909 26.6911 32.0657 26.0373 32.0917C24.9878 32.1345 23.9345 32.1345 22.885 32.0917C22.2467 32.0644 21.8472 31.6208 21.8316 30.9747C21.8056 29.9715 21.8056 28.9687 21.8316 27.9664C21.8498 27.2698 22.3155 26.8287 23.0147 26.817C23.985 26.8006 24.9554 26.8006 25.9258 26.817C26.6405 26.8313 27.0933 27.3048 27.1089 28.0235C27.1166 28.5086 27.1076 28.9938 27.1063 29.479ZM25.7182 30.7283V28.2064H23.2015V30.7283H25.7182Z" fill="white"/>
<path d="M34.9742 29.4816C34.9742 29.9668 34.9859 30.4519 34.9742 30.9371C34.9547 31.5857 34.5539 32.067 33.9014 32.093C32.8519 32.1345 31.7985 32.1332 30.7503 32.093C30.1134 32.067 29.7125 31.6234 29.6969 30.9747C29.6684 29.9732 29.6671 28.9692 29.6969 27.9677C29.7177 27.2672 30.1821 26.8313 30.8826 26.8196C31.853 26.8032 32.8238 26.8032 33.795 26.8196C34.5072 26.8339 34.9534 27.31 34.9781 28.0274C34.9781 28.0598 34.9781 28.0922 34.9781 28.1247V29.4842L34.9742 29.4816ZM33.5809 30.7309V28.2116H31.0746V30.7309H33.5809Z" fill="white"/>
<path d="M24.4586 40.6095C23.9734 40.6095 23.4882 40.6173 23.003 40.6095C22.3194 40.5939 21.8485 40.184 21.829 39.5107C21.7979 38.4729 21.7979 37.4416 21.829 36.4077C21.8498 35.7733 22.2895 35.3556 22.9278 35.3413C23.9466 35.318 24.9654 35.318 25.9841 35.3413C26.1309 35.3385 26.2767 35.3653 26.4128 35.4203C26.549 35.4753 26.6725 35.5573 26.7761 35.6612C26.8798 35.7652 26.9613 35.8891 27.0158 36.0254C27.0703 36.1617 27.0967 36.3076 27.0933 36.4544C27.1141 37.4571 27.1128 38.4599 27.0933 39.4614C27.0816 40.1477 26.6068 40.5861 25.9115 40.6108H24.4586V40.6095ZM23.2067 36.7177V39.2149H25.7104V36.7125L23.2067 36.7177Z" fill="white"/>
<path d="M34.9742 37.9708C34.9742 38.456 34.9845 38.9412 34.9742 39.4264C34.9534 40.1412 34.4929 40.5939 33.7716 40.6056C32.8013 40.6177 31.8309 40.6177 30.8605 40.6056C30.1834 40.5965 29.7216 40.1749 29.6995 39.4925C29.6684 38.4755 29.6684 37.4571 29.6995 36.4375C29.7203 35.772 30.1574 35.353 30.819 35.3374C31.8205 35.314 32.8246 35.314 33.8261 35.3374C34.5227 35.3517 34.9495 35.8161 34.9768 36.5166C34.9768 36.549 34.9768 36.5815 34.9768 36.6139C34.9759 37.0662 34.975 37.5185 34.9742 37.9708ZM31.0642 39.2253H33.577V36.7216H31.0642V39.2253Z" fill="white"/>
<path d="M13.3125 27.55C13.3125 28.0183 13.3202 28.4879 13.3125 28.9562C13.2982 29.7216 12.8364 30.1912 12.0645 30.2029C11.127 30.2176 10.1886 30.2176 9.24943 30.2029C8.51778 30.1912 8.05206 29.7566 8.0313 29.0353C8.00406 28.0494 8.00536 27.0609 8.0313 26.075C8.05076 25.3706 8.49183 24.9269 9.19884 24.9074C10.1848 24.8802 11.1733 24.8763 12.1592 24.9074C12.8805 24.9334 13.2982 25.4134 13.3125 26.1437C13.3202 26.612 13.3125 27.0804 13.3125 27.55ZM11.9231 28.8187V26.2786H9.41029V28.8187H11.9231Z" fill="white"/>
<path d="M13.3125 20.8418C13.3125 21.3114 13.3216 21.7797 13.3125 22.2493C13.2956 22.9512 12.874 23.4169 12.1722 23.4389C11.1707 23.4675 10.1666 23.4662 9.16515 23.4389C8.475 23.4195 8.0521 22.9901 8.03264 22.2948C8.0054 21.3101 8.0054 20.3216 8.03264 19.337C8.0521 18.6014 8.50873 18.1695 9.24039 18.1695C10.1917 18.1565 11.1461 18.1565 12.1034 18.1695C12.8468 18.1798 13.2995 18.6443 13.3151 19.3915C13.3203 19.8715 13.3125 20.3566 13.3125 20.8418ZM9.41033 19.5446V22.0574H11.9257V19.5407L9.41033 19.5446Z" fill="white"/>
</g>
<defs>
<clipPath id="clip0_336_127">
<rect width="48" height="47.9844" fill="white"/>
</clipPath>
</defs>
</svg>
