<svg width="65" height="44" viewBox="0 0 65 44" fill="none" xmlns="http://www.w3.org/2000/svg">
<g clip-path="url(#clip0_962_7658)">
<path d="M57.5898 24.4856C57.7009 24.7323 57.7635 24.9164 57.8625 25.0866C58.3505 25.9811 58.8299 26.8774 59.3371 27.7597C59.8631 28.6624 60.1355 29.6904 60.1257 30.7351C60.1257 33.9206 60.1257 37.1062 60.1257 40.2882C60.1257 41.8515 59.2694 42.7095 57.7183 42.7199C56.4608 42.7321 55.2015 42.7338 53.9422 42.7199C52.4259 42.7026 51.5765 41.8515 51.547 40.3317C51.547 39.8801 51.547 39.4285 51.547 38.9421H47.1786C47.1786 39.8262 47.1786 40.7068 47.1786 41.5857C47.1786 43.1073 46.324 43.9723 44.8111 43.9827C43.531 43.9931 42.2492 43.9983 40.9691 43.9827C39.6264 43.9636 38.7458 43.0708 38.711 41.7247C38.7006 41.2522 38.711 40.7798 38.711 40.2709H25.0066C25.0066 40.7781 25.0153 41.2488 25.0066 41.7212C24.9736 43.0656 24.093 43.9618 22.7486 43.9792C21.4042 43.9966 20.0998 43.9983 18.7745 43.9792C17.4492 43.9601 16.5547 43.0725 16.5408 41.7212C16.5304 40.8145 16.5408 39.9078 16.5408 38.9525H12.5771C12.5771 39.4111 12.5771 39.8748 12.5771 40.3421C12.5476 41.8567 11.6948 42.7113 10.1784 42.7269C8.91916 42.7425 7.65988 42.7408 6.4006 42.7269C4.87384 42.7095 4.00537 41.8584 4.00016 40.3508C3.98626 37.1218 4.00016 33.8928 4.00016 30.6639C3.99628 29.6625 4.25757 28.6778 4.75747 27.8101C5.26813 26.9052 5.76663 25.9933 6.26513 25.0814C6.35719 24.9077 6.42493 24.734 6.50656 24.5447C6.36761 24.4926 6.30681 24.4526 6.29291 24.4665C5.02148 25.6164 3.46866 25.302 2.01311 25.1804C0.72083 25.0727 -0.111154 23.8099 0.012168 22.4951C0.0800659 21.8962 0.364922 21.3429 0.812945 20.9396C1.26097 20.5364 1.84114 20.3112 2.44387 20.3066C3.03096 20.2944 3.61631 20.3066 4.20339 20.3066C5.62246 20.3066 6.47183 20.9631 6.84353 22.3266C6.86958 22.4256 6.90605 22.5211 6.99116 22.7904C7.24997 21.2393 7.51224 19.8688 7.68594 18.488C7.85963 17.1888 8.46929 16.3828 9.78588 16.1171C12.1394 15.6429 14.486 15.1357 16.9942 14.6077V12.7596C16.9942 11.5194 17.154 11.37 18.3646 11.3561C18.8857 11.3561 19.5145 11.4986 19.8862 11.2571C20.2335 11.04 20.2718 10.3887 20.4663 9.93011C20.6009 9.54141 20.7811 9.17002 21.003 8.82369C21.3504 8.35993 21.2149 8.06638 20.8293 7.74158C20.5132 7.4793 20.2405 7.16665 19.9504 6.87311C19.5683 6.48404 19.5283 6.0637 19.9157 5.66942C20.9335 4.6342 21.9618 3.60767 23.0005 2.58983C23.3913 2.20597 23.8255 2.2216 24.2163 2.60025C24.6957 3.07096 25.1473 3.56946 25.559 4.00196C26.6272 3.6181 27.6034 3.28113 28.5656 2.90769C28.6398 2.86332 28.7028 2.80251 28.7498 2.72993C28.7968 2.65735 28.8265 2.57495 28.8366 2.48909C28.8713 1.99406 28.8366 1.49383 28.8539 0.995328C28.8731 0.271026 29.1266 0.012223 29.8405 0.00701219C31.2092 0.00701219 32.5762 -0.00340941 33.9449 0.00701219C34.6397 0.00701219 34.9002 0.283185 34.9176 1.00749C34.9332 1.6571 34.7213 2.43872 35.0131 2.91811C35.2789 3.35235 36.09 3.45135 36.6562 3.70842C36.9916 3.86459 37.3134 4.04817 37.6185 4.25729C38.0128 3.79874 38.3862 3.32108 38.8083 2.88858C39.3294 2.35013 39.6768 2.35187 40.1979 2.86253C41.174 3.82016 42.1415 4.78474 43.1003 5.75626C43.5901 6.25129 43.5849 6.65426 43.0881 7.15449C42.6765 7.56788 42.2405 7.95696 41.8723 8.30955C42.2718 9.30482 42.6209 10.2098 43.0047 11.0991C43.0546 11.1699 43.1196 11.2287 43.195 11.2714C43.2704 11.314 43.3543 11.3394 43.4407 11.3457C43.9809 11.377 44.5245 11.3457 45.0682 11.3613C45.7439 11.3787 46.0148 11.6462 46.0253 12.3114C46.0357 13.0896 46.0253 13.8747 46.0253 14.6928C47.255 14.8317 48.457 14.9012 49.6468 15.1183C51.349 15.4292 53.0373 15.8305 54.7221 16.23C55.6583 16.4523 56.1985 17.0845 56.3565 18.0399C56.6101 19.5649 56.8776 21.0899 57.1625 22.806C57.2615 22.4378 57.3066 22.2554 57.3605 22.0748C57.5043 21.5814 57.7998 21.1459 58.2052 20.8301C58.6105 20.5143 59.105 20.3341 59.6185 20.3152C60.3567 20.2909 61.0966 20.284 61.8331 20.3152C62.4552 20.3555 63.0385 20.6314 63.4641 21.0868C63.8898 21.5421 64.1259 22.1427 64.1241 22.7661C64.1358 23.3905 63.9067 23.9955 63.4844 24.4557C63.0621 24.9159 62.4789 25.1959 61.8557 25.2377C61.0754 25.312 60.2896 25.305 59.5108 25.2169C58.9064 25.1231 58.3349 24.7809 57.5898 24.4856ZM18.1319 38.6677C20.4298 38.6677 22.6618 38.6677 24.8937 38.6503C24.9844 38.626 25.068 38.5804 25.1375 38.5173C25.207 38.4541 25.2604 38.3753 25.2932 38.2873C25.4982 37.6047 25.6406 36.8977 25.8317 36.2134C26.1165 35.1573 26.813 34.6102 27.9073 34.6067C30.5359 34.5975 33.1633 34.5975 35.7895 34.6067C36.9151 34.6067 37.615 35.1608 37.9051 36.2533C38.0788 36.8804 38.2525 37.5091 38.3637 38.1449C38.4453 38.5721 38.6468 38.685 39.0688 38.6798C40.9795 38.6573 42.8901 38.6694 44.8007 38.6694H45.5876C45.5876 36.2551 45.6101 33.9189 45.5667 31.5845C45.558 31.1329 45.3357 30.6604 45.1221 30.2418C44.601 29.2205 44.0469 28.216 43.4598 27.2282C43.3874 27.1222 43.293 27.033 43.183 26.9667C43.073 26.9005 42.95 26.8587 42.8224 26.8444C35.5272 26.8258 28.2321 26.8258 20.937 26.8444C20.8005 26.8603 20.669 26.9055 20.5515 26.9769C20.434 27.0482 20.3333 27.144 20.2561 27.2578C19.676 28.2218 19.1254 29.2066 18.6217 30.2105C18.3924 30.6656 18.1683 31.1832 18.1579 31.6783C18.1041 33.9762 18.1319 36.2707 18.1319 38.6677ZM20.9457 25.2238H42.7876C42.4923 23.4348 42.2214 21.6857 41.8879 19.947C41.8479 19.7316 41.504 19.4885 41.2539 19.4138C35.1938 17.6143 29.1284 17.5726 23.0248 19.2244C22.1563 19.4572 21.7655 19.815 21.663 20.7078C21.4928 22.2068 21.1958 23.6901 20.9509 25.2238H20.9457ZM18.6147 14.6702L23.5615 14.9134C23.4816 12.7075 24.1486 10.7638 25.6458 9.13807C26.3539 8.33876 27.2197 7.69464 28.1888 7.24625C29.1579 6.79786 30.2094 6.55491 31.277 6.53267C33.1866 6.44742 35.0586 7.08217 36.5225 8.31129C38.6398 10.0482 39.5726 12.3445 39.4961 15.0402L44.4117 14.6407V12.9194C43.795 12.9194 43.2132 12.9055 42.633 12.9194C42.0529 12.9333 41.7993 12.6588 41.6048 12.1378C41.1914 11.0296 40.7363 9.93185 40.2274 8.86364C39.9807 8.34256 39.9929 7.96912 40.4115 7.59394C40.8301 7.21876 41.2053 6.87485 41.4919 6.61431L39.3624 4.46051L38.282 5.60341C37.9346 5.97338 37.5612 5.97512 37.1079 5.76495C36.1091 5.29945 35.1017 4.85306 34.0752 4.45877C33.5801 4.26771 33.3179 4.00717 33.3335 3.46698C33.3526 2.8469 33.3335 2.22681 33.3335 1.61715H30.4172C30.4172 2.2216 30.4172 2.78263 30.4172 3.34192C30.4172 3.90122 30.1532 4.13744 29.6477 4.30766C28.4649 4.71063 27.289 5.13791 26.1426 5.6312C25.6302 5.85179 25.2429 5.88132 24.8607 5.45751L23.7352 4.24166L21.5467 6.3364C21.9288 6.68379 22.304 7.04854 22.6896 7.39245C23.1533 7.80584 23.1516 8.21576 22.8719 8.782C22.3235 9.85685 21.8426 10.9649 21.432 12.0995C21.2201 12.6953 20.937 12.968 20.3204 12.9385C19.7646 12.9176 19.2053 12.9385 18.613 12.9385L18.6147 14.6702ZM37.3267 16.9022C38.6103 14.5573 37.6949 11.1547 35.3431 9.38645C34.1262 8.47205 32.6227 8.02211 31.1035 8.11764C29.5843 8.21317 28.1491 8.84789 27.0562 9.90753C25.1161 11.7938 24.4873 15.2278 25.783 16.9994C29.5961 16.2966 33.5024 16.2637 37.3267 16.9022ZM47.123 33.1877C47.6545 33.1877 48.0627 33.1877 48.4691 33.1877C49.6746 33.1981 50.3798 33.7383 50.682 34.8864C50.8557 35.5134 51.0294 36.1387 51.1492 36.7762C51.2326 37.2208 51.415 37.3632 51.8805 37.3563C53.8328 37.3268 55.7868 37.3441 57.7391 37.3441H58.5069C58.5069 34.8395 58.5277 32.4182 58.4878 29.9969C58.4791 29.5661 58.2602 29.1163 58.0553 28.7185C57.518 27.6764 56.9512 26.6539 56.3548 25.6511C56.2817 25.5465 56.1873 25.4587 56.0777 25.3934C55.9681 25.3281 55.8458 25.2869 55.7191 25.2724C54.2879 25.2377 52.8555 25.2377 51.4219 25.2724C51.2959 25.2875 51.1742 25.3281 51.0643 25.3917C50.9544 25.4553 50.8586 25.5406 50.7827 25.6424C50.2443 26.4101 49.546 26.8583 48.5977 26.8235C47.3071 26.7853 45.9315 27.1414 44.7972 26.0419C45.6918 28.4093 47.6719 30.3565 47.123 33.1877ZM16.6086 33.1877C16.0475 30.3512 18.0328 28.4059 18.9187 26.0367C17.8887 27.0493 16.6364 26.8114 15.4448 26.827H15.12C14.1699 26.827 13.4769 26.4032 12.9402 25.6337C12.8629 25.5334 12.7661 25.4496 12.6557 25.3876C12.5452 25.3255 12.4234 25.2863 12.2975 25.2724C11.0191 25.2394 9.739 25.2724 8.45888 25.2447C8.0698 25.2447 7.88048 25.3853 7.71026 25.7084C7.21523 26.6464 6.61946 27.5374 6.20086 28.5066C5.86485 29.2474 5.66312 30.0419 5.6051 30.8532C5.52172 32.7986 5.57556 34.7492 5.57904 36.698C5.57904 36.9047 5.60335 37.1096 5.61898 37.3459C7.93953 37.3459 10.1923 37.3459 12.4469 37.3285C12.5473 37.3072 12.6412 37.262 12.7204 37.1967C12.7996 37.1314 12.8619 37.0479 12.9019 36.9533C13.1243 36.2308 13.2736 35.4874 13.4786 34.7578C13.76 33.7591 14.4878 33.2154 15.5317 33.1946C15.8495 33.1877 16.1691 33.1877 16.6086 33.1877ZM55.6896 23.6536C55.3804 21.8212 55.0921 20.0286 54.7534 18.2448C54.7151 18.0399 54.4164 17.7932 54.1906 17.7237C49.4427 16.2688 44.4258 15.9142 39.5204 16.6868C39.3207 16.718 39.1488 16.9056 38.9629 17.0203C39.8343 17.3806 40.735 17.6653 41.6551 17.8714C42.7946 18.1389 43.366 18.8614 43.5293 19.9974C43.729 21.3869 43.9809 22.7765 44.2397 24.3397C44.4881 23.2454 44.9345 22.4864 45.8637 22.1164C47.7744 21.3643 49.9855 22.0209 51.0745 23.6519L55.6896 23.6536ZM19.5353 24.0965L20.2301 19.8254C20.3933 18.8302 20.9248 18.1771 21.934 17.9235C22.6375 17.7498 23.334 17.5344 24.0287 17.3399C23.855 16.5895 23.8551 16.5982 23.2245 16.52C18.8822 15.9885 14.6163 16.4262 10.4008 17.5622C9.62957 17.7689 9.23702 18.1041 9.2266 18.9083C9.2266 19.2713 9.10154 19.6326 9.04248 19.9956C8.84621 21.2028 8.65167 22.4187 8.44498 23.6884C9.51319 23.6884 10.5084 23.664 11.502 23.6884C12.2106 23.7127 12.8759 23.7422 13.1451 22.8876C13.1799 22.7765 13.3084 22.6879 13.4022 22.5993C14.4443 21.6249 17.6559 21.6058 18.6373 22.6306C19.0229 23.0405 19.24 23.6067 19.5336 24.0965H19.5353ZM26.893 38.6156H36.8664C36.7205 38.0129 36.5642 37.4727 36.4634 36.9238C36.3627 36.3749 36.1004 36.1422 35.496 36.1543C33.5662 36.1943 31.6365 36.1682 29.7085 36.1682C27.3063 36.1682 27.3063 36.1682 26.8912 38.6156H26.893ZM5.58078 38.9369C5.58078 39.4875 5.58078 39.9791 5.58078 40.4741C5.58078 40.9205 5.83089 41.1515 6.27555 41.1532C7.61646 41.1532 8.95737 41.1532 10.2965 41.1532C10.6995 41.1532 10.9739 40.9691 10.9913 40.5488C11.0122 40.0277 10.9913 39.4892 10.9913 38.9352L5.58078 38.9369ZM53.1884 38.9369C53.1617 39.0102 53.1419 39.0858 53.1293 39.1627C53.1293 39.5292 53.1154 39.8957 53.1293 40.2622C53.1415 40.9934 53.2856 41.1445 53.9978 41.1532C54.8663 41.1619 55.7347 41.1532 56.591 41.1532C58.6354 41.1393 58.6059 41.4468 58.5242 39.0689C58.5242 39.0324 58.486 38.9977 58.4513 38.9317L53.1884 38.9369ZM18.1197 40.2743C18.1197 40.8058 18.1093 41.2991 18.1197 41.7924C18.1336 42.2145 18.3855 42.4177 18.7954 42.4177C20.1206 42.4177 21.4459 42.4472 22.7677 42.3934C22.9117 42.3586 23.0448 42.2887 23.1551 42.1899C23.2655 42.0911 23.3496 41.9664 23.4 41.8272C23.4972 41.3339 23.4295 40.8093 23.4295 40.2743H18.1197ZM45.5528 40.2743H40.2882V41.6535C40.2882 42.1919 40.5574 42.4333 41.0958 42.4247C41.9834 42.4125 42.8693 42.4247 43.7551 42.4247C45.7751 42.4247 45.6345 42.5879 45.6067 40.4463C45.5944 40.3885 45.5763 40.332 45.5528 40.2778V40.2743ZM3.43393 23.6849C3.78109 23.7024 4.12892 23.7024 4.47609 23.6849C4.99717 23.6206 5.3185 23.2871 5.3185 22.7661C5.32496 22.651 5.30763 22.5358 5.2676 22.4277C5.22757 22.3196 5.1657 22.2209 5.08584 22.1378C5.00598 22.0547 4.90985 21.9889 4.80345 21.9446C4.69705 21.9003 4.58265 21.8784 4.4674 21.8802C3.79683 21.8446 3.12486 21.8446 2.4543 21.8802C2.33953 21.8776 2.22543 21.8983 2.11888 21.941C2.01233 21.9837 1.91555 22.0476 1.83438 22.1288C1.75321 22.2099 1.68934 22.3067 1.64662 22.4133C1.6039 22.5198 1.58322 22.6339 1.58583 22.7487C1.5563 23.2472 1.92106 23.631 2.46819 23.6727C2.78258 23.704 3.10912 23.6849 3.43393 23.6849ZM60.7076 21.8785C60.3602 21.8785 60.0128 21.8524 59.6654 21.8785C59.1409 21.9306 58.816 22.2537 58.816 22.7661C58.8064 22.8812 58.8208 22.9971 58.8585 23.1064C58.8962 23.2156 58.9563 23.3158 59.035 23.4005C59.1136 23.4852 59.2091 23.5525 59.3152 23.5982C59.4214 23.6439 59.5359 23.6669 59.6515 23.6658C60.3455 23.7112 61.0418 23.7112 61.7358 23.6658C61.8497 23.6649 61.9621 23.6403 62.0659 23.5935C62.1697 23.5468 62.2627 23.4789 62.3388 23.3943C62.4149 23.3096 62.4726 23.2101 62.5082 23.1019C62.5437 22.9937 62.5563 22.8794 62.5452 22.7661C62.5279 22.2328 62.1979 21.9393 61.6768 21.8976C61.3589 21.8524 61.0324 21.8767 60.7076 21.8785ZM47.6997 25.2585C48.0036 25.2585 48.3059 25.2707 48.6081 25.2585C49.1917 25.2308 49.546 24.9112 49.5287 24.3901C49.5078 23.8099 49.1656 23.5338 48.6063 23.5216C48.0019 23.5095 47.3905 23.5008 46.7913 23.5216C46.2285 23.5459 45.8464 23.9298 45.895 24.4161C45.8962 24.5306 45.9207 24.6437 45.9669 24.7484C46.0132 24.8532 46.0803 24.9474 46.1641 25.0254C46.248 25.1034 46.3468 25.1635 46.4546 25.2021C46.5624 25.2407 46.677 25.2569 46.7913 25.2499C47.0952 25.2638 47.3974 25.2568 47.6997 25.2585ZM49.6676 37.3198C49.4818 36.5747 49.3202 35.8573 49.1066 35.1625C49.0574 35.0629 48.9859 34.976 48.8976 34.9085C48.8093 34.841 48.7067 34.7948 48.5977 34.7735C48.1428 34.7388 47.6863 34.733 47.2307 34.7561V37.3198H49.6676ZM15.9277 25.2568C16.2751 25.2568 16.6225 25.269 16.9698 25.2568C17.51 25.2308 17.8262 24.9094 17.8383 24.3883C17.8481 24.2788 17.8347 24.1685 17.7989 24.0645C17.7632 23.9605 17.7059 23.8653 17.6308 23.785C17.5557 23.7046 17.4646 23.6411 17.3632 23.5984C17.2619 23.5557 17.1527 23.5349 17.0428 23.5372C16.3485 23.5013 15.6528 23.5013 14.9585 23.5372C14.4513 23.5668 14.1855 23.9072 14.2012 24.4057C14.2168 24.9042 14.5173 25.1943 15.0193 25.2342C15.3198 25.2742 15.6237 25.2551 15.9277 25.2568ZM16.5478 37.3181V34.7509C16.1795 34.7509 15.9016 34.6901 15.6671 34.7665C15.4327 34.8429 15.087 35.0132 15.0141 35.2199C14.7761 35.8868 14.6424 36.5886 14.4582 37.3146L16.5478 37.3181Z" fill="white"/>
<path d="M40.5782 28.1922C41.3251 28.1867 42.0457 28.4672 42.5922 28.9763C43.1387 29.4853 43.4697 30.1842 43.5171 30.9296C43.5622 31.6723 43.3199 32.404 42.8404 32.9731C42.3609 33.5421 41.6809 33.905 40.9413 33.9866C40.0728 34.0821 39.2043 34.1429 38.348 34.1985C37.7053 34.2384 37.3528 33.8962 37.4066 33.2623C37.483 32.3799 37.5681 31.4941 37.7106 30.6204C37.8204 29.9401 38.1697 29.3215 38.6956 28.8762C39.2215 28.431 39.8892 28.1883 40.5782 28.1922ZM39.1123 32.5449C39.6855 32.5032 40.2222 32.4893 40.7519 32.4233C41.0881 32.3883 41.3984 32.2266 41.6197 31.9711C41.841 31.7156 41.9568 31.3854 41.9435 31.0477C41.9264 30.7214 41.7914 30.4124 41.5636 30.1783C41.3358 29.9441 41.0307 29.8006 40.705 29.7745C40.3677 29.7365 40.0287 29.8304 39.759 30.0366C39.4893 30.2428 39.3099 30.5454 39.2582 30.8809C39.1887 31.4037 39.1679 31.9405 39.1175 32.5449H39.1123Z" fill="white"/>
<path d="M23.1412 28.1905C23.8753 28.1917 24.5824 28.4682 25.1226 28.9654C25.6628 29.4626 25.997 30.1442 26.0592 30.8758C26.1287 31.5862 26.2138 32.2948 26.3058 33.0018C26.4222 33.8998 26.0766 34.2663 25.1873 34.1864C24.3883 34.1134 23.5858 34.0752 22.7886 33.9883C22.0478 33.9084 21.3663 33.5458 20.8862 32.976C20.406 32.4063 20.1642 31.6732 20.2109 30.9296C20.2579 30.1854 20.5874 29.4874 21.1321 28.9782C21.6768 28.469 22.3955 28.1872 23.1412 28.1905ZM24.6123 32.5536C24.5602 31.9318 24.5481 31.3951 24.4595 30.8705C24.4085 30.5463 24.2371 30.2532 23.9795 30.0498C23.722 29.8463 23.3972 29.7474 23.0699 29.7728C22.7542 29.7831 22.4524 29.905 22.218 30.1168C21.9837 30.3286 21.832 30.6166 21.7898 30.9296C21.7012 31.5514 22.1111 32.2531 22.7278 32.3747C23.3525 32.4667 23.9815 32.5265 24.6123 32.5536Z" fill="white"/>
<path d="M53.4785 26.6706C54.2348 26.6814 54.9585 26.9806 55.5015 27.5072C56.0446 28.0338 56.366 28.7479 56.4 29.5036C56.4249 30.2594 56.16 30.9962 55.6595 31.5632C55.159 32.1302 54.4608 32.4845 53.7077 32.5536C52.8636 32.6289 52.0188 32.6955 51.1735 32.7534C50.4788 32.8037 50.1157 32.4199 50.1922 31.7268C50.279 30.9313 50.3659 30.1358 50.4701 29.342C50.675 27.751 51.9135 26.6532 53.4785 26.6706ZM51.9152 31.0998C52.4676 31.0633 52.9574 31.0373 53.4541 30.9956C54.2601 30.9278 54.8194 30.3703 54.8298 29.6356C54.8285 29.2865 54.6969 28.9504 54.4607 28.6934C54.2246 28.4363 53.9009 28.2768 53.5531 28.246C52.775 28.1852 52.1636 28.6976 52.0455 29.5348C51.976 30.0194 51.9569 30.5179 51.91 31.1033L51.9152 31.0998Z" fill="white"/>
<path d="M10.7342 26.6706C12.2975 26.6828 13.5133 27.8569 13.6714 29.4931C13.7374 30.2035 13.8277 30.9122 13.9198 31.6209C14.0275 32.4268 13.6645 32.8159 12.862 32.7464C12.0595 32.6769 11.2605 32.6213 10.4598 32.5571C9.70492 32.4983 9.00109 32.153 8.49248 31.5921C7.98388 31.0312 7.70899 30.297 7.72414 29.54C7.74999 28.7628 8.07984 28.0267 8.64275 27.4901C9.20565 26.9535 9.95664 26.6593 10.7342 26.6706ZM12.2419 31.1119C12.1568 30.4172 12.1359 29.7867 11.9935 29.1892C11.8355 28.5222 11.1598 28.147 10.4841 28.2495C10.1729 28.303 9.88852 28.4591 9.67635 28.693C9.46418 28.9269 9.33642 29.2251 9.31343 29.54C9.26827 30.1636 9.71119 30.8392 10.3295 30.9487C10.9479 31.0581 11.5593 31.0564 12.2419 31.1119Z" fill="white"/>
</g>
<defs>
<clipPath id="clip0_962_7658">
<rect width="64.1241" height="44" fill="white"/>
</clipPath>
</defs>
</svg>
