<svg width="44" height="44" viewBox="0 0 44 44" fill="none" xmlns="http://www.w3.org/2000/svg">
<g clip-path="url(#clip0_962_7665)">
<path d="M11.2864 26.0907L16.3503 23.4568C16.0745 22.7104 15.9617 21.9136 16.0192 21.12C16.0768 20.3263 16.3034 19.5542 16.684 18.8553L10.5483 13.605C10.1798 13.8854 9.82524 14.1334 9.49615 14.4161C9.16706 14.6989 9.05466 15.0743 9.04655 15.5007C9.03496 16.0917 9.07089 16.6954 8.9608 17.2702C8.70124 18.6352 7.40922 19.5552 6.02565 19.4359C5.34787 19.3747 4.71583 19.0678 4.24846 18.5731C3.7811 18.0785 3.51063 17.43 3.48795 16.7499C3.47752 16.3895 3.46941 16.0268 3.48795 15.6664C3.5204 14.9967 3.24925 14.5239 2.69188 14.1392C1.38924 13.2456 0.477352 11.888 0.14282 10.3441C-0.191711 8.80027 0.0764048 7.18695 0.892312 5.8343C1.55243 4.73507 2.53308 3.86412 3.70257 3.33841C4.87205 2.8127 6.17439 2.6574 7.43471 2.89335C8.71629 3.13656 9.88943 3.77529 10.7892 4.71975C11.689 5.66422 12.2702 6.86692 12.451 8.15878C12.6631 9.65591 12.422 10.7382 11.4533 12.554L17.4858 17.7186C18.8196 16.5842 19.1081 16.4358 20.8405 15.9944V9.74166H17.4233V0.0346739H25.7166V8.68718C25.8568 8.5771 25.9483 8.52032 26.0178 8.44847C26.7131 7.75321 27.4084 7.05795 28.1036 6.36269C28.578 5.8723 29.1487 5.48533 29.7799 5.22609C30.411 4.96685 31.089 4.84095 31.7711 4.8563C32.449 4.8563 33.201 5.01273 33.7839 4.77171C34.3667 4.53069 34.7538 3.88873 35.2254 3.41943C36.0771 2.57237 36.9149 1.71025 37.7828 0.880573C38.2374 0.437262 38.8166 0.143435 39.4429 0.0384382C40.0692 -0.0665585 40.7125 0.022287 41.2869 0.293078C41.8551 0.557761 42.3316 0.985681 42.6556 1.52227C42.9796 2.05885 43.1365 2.67978 43.1062 3.30587C43.07 4.1103 42.7251 4.86982 42.1432 5.42641C41.4379 6.13326 40.7315 6.83895 40.0238 7.54348C39.9242 7.64313 39.8292 7.74858 39.7156 7.86909C40.1977 8.23178 40.6542 8.58637 41.1258 8.91893C41.248 8.99033 41.3876 9.02643 41.5291 9.02322C42.0343 9.03481 42.5407 9.02322 43.0795 9.02322V15.9364C43.0159 15.9527 42.9505 15.9612 42.8848 15.9619C41.5662 15.8171 40.3355 16.1705 39.1281 16.634C36.3169 17.7082 34.1964 17.6468 31.5648 15.9781C30.7641 16.7777 29.9426 17.5714 29.1558 18.3965C28.5903 18.9886 27.997 19.524 27.216 19.8136C26.9657 19.9063 26.9066 20.0454 26.9727 20.3119C27.1982 21.1999 27.1725 22.133 26.8985 23.0072C26.8116 23.2957 26.8823 23.4139 27.1407 23.5333C27.7421 23.8102 28.3296 24.1208 28.9553 24.4336C30.4223 22.2633 32.4316 21.0049 35.0446 20.8415C36.9867 20.7256 38.7353 21.2957 40.2521 22.517C41.7106 23.6786 42.691 25.3359 43.0068 27.1735C43.3226 29.011 42.9517 30.9006 41.9648 32.4824C40.9798 34.0654 39.4516 35.2351 37.6662 35.7724C35.8809 36.3097 33.961 36.1778 32.2659 35.4014C28.8765 33.8324 26.8151 29.8231 28.3388 25.6863L26.1998 24.6133C25.2333 25.9528 23.9541 26.7709 22.2912 27.0281V30.5253C22.3463 30.5383 22.4027 30.5449 22.4593 30.545C23.1441 30.4511 23.7015 30.545 23.7235 31.4036C23.7811 31.4121 23.8397 31.4121 23.8973 31.4036C24.6899 31.085 24.6887 31.085 25.2878 31.6783C25.9529 32.3434 26.6192 33.0062 27.3099 33.6933L26.9425 34.5427C26.9773 34.581 26.9935 34.6169 27.0144 34.6204C27.8128 34.7212 27.8846 35.2391 27.8359 35.9112C27.7919 36.6765 27.7919 37.4437 27.8359 38.2091C27.8522 38.5799 27.7316 38.7653 27.3794 38.8394C27.2353 38.8821 27.0944 38.9348 26.9576 38.997C26.9595 39.0534 26.9676 39.1093 26.9819 39.1639C27.2948 39.9148 27.296 39.9148 26.7316 40.4768C26.1673 41.0388 25.5648 41.6042 25.019 42.2022C24.7559 42.4907 24.5323 42.5498 24.2148 42.3366C24.0935 42.269 23.9667 42.2116 23.8359 42.1651C23.7942 42.1975 23.7548 42.2114 23.7524 42.2311C23.6505 42.9809 23.1893 43.1153 22.5068 43.0597C21.7111 43.0125 20.9133 43.0106 20.1174 43.0539C19.7895 43.0643 19.6052 42.982 19.538 42.646C19.4876 42.4737 19.4212 42.3065 19.3399 42.1465L18.4662 42.537C17.6261 41.6981 16.7848 40.8638 15.9563 40.0167C15.9257 39.9682 15.9062 39.9136 15.8992 39.8567C15.8922 39.7998 15.8978 39.7421 15.9157 39.6876C15.997 39.4715 16.0899 39.26 16.1938 39.0538C16.1498 39.0144 16.122 38.9692 16.0895 38.9646C15.3943 38.8603 15.2459 38.4408 15.2911 37.7849C15.3537 36.851 15.3074 35.9077 15.3074 34.9413L16.1706 34.5937C16.1706 34.5439 16.1834 34.5056 16.1706 34.4883C15.6979 33.8787 15.9702 33.4639 16.4766 33.0271C17.0616 32.5093 17.6157 31.9575 18.1359 31.3747C18.3885 31.0977 18.6064 31.0629 18.9053 31.2507C19.0479 31.3276 19.1954 31.3949 19.3468 31.4523L19.6944 30.5485H20.8416V27.0362C20.0741 26.9275 19.3368 26.6634 18.6747 26.2602C18.0127 25.857 17.4398 25.323 16.991 24.6909L11.9991 27.2877C13.575 31.2275 11.2783 34.5474 8.68849 35.6146C7.28521 36.1986 5.71776 36.254 4.27673 35.7706C2.8357 35.2871 1.61885 34.2975 0.851758 32.9853C0.0944016 31.6777 -0.163609 30.14 0.125485 28.6569C0.41458 27.1737 1.2312 25.8455 2.4242 24.918C4.85761 23.0246 8.7893 23.0095 11.2864 26.0907ZM41.7272 28.4859C41.7282 26.8325 41.0755 25.2457 39.9113 24.0716C38.7472 22.8975 37.1661 22.2312 35.5128 22.2181C34.6902 22.2124 33.8745 22.369 33.1125 22.679C32.3505 22.9889 31.6571 23.446 31.0719 24.0241C30.4867 24.6023 30.0213 25.2902 29.7023 26.0484C29.3832 26.8067 29.2168 27.6204 29.2126 28.443C29.2116 30.0965 29.8643 31.6833 31.0284 32.8576C32.1925 34.0319 33.7736 34.6984 35.427 34.7119C37.0879 34.7211 38.6845 34.0705 39.8659 32.903C41.0473 31.7356 41.7168 30.1468 41.7272 28.4859ZM7.65951 15.262C7.76032 14.2307 8.28408 13.5331 9.09406 12.9653C10.0261 12.3111 10.6953 11.3468 10.9818 10.2447C11.2684 9.14253 11.1538 7.97442 10.6584 6.94903C10.1762 5.92399 9.34895 5.10115 8.32132 4.62452C7.2937 4.14788 6.13118 4.04781 5.03722 4.34181C3.12294 4.86441 1.89697 6.1321 1.5053 8.06724C1.09974 10.0765 1.78341 11.7486 3.44044 12.9735C4.043 13.4173 4.54359 13.9005 4.74985 14.6386C4.80663 14.8425 4.84255 15.0534 4.88542 15.2504H5.56678C5.56678 13.8796 5.56678 12.5366 5.55519 11.1947C5.55519 11.0789 5.40919 10.9375 5.29447 10.8703C4.61775 10.4763 4.22377 9.90388 4.18205 9.12172C4.15948 8.61773 4.32106 8.12275 4.63662 7.72915C4.95219 7.33554 5.40019 7.0702 5.89702 6.98263C6.37182 6.89945 6.86078 6.98329 7.28075 7.21989C7.70072 7.45649 8.02578 7.83126 8.20065 8.28045C8.38777 8.74091 8.39843 9.25423 8.23058 9.72206C8.06273 10.1899 7.72819 10.5793 7.29102 10.8158C7.00596 10.9688 6.94339 11.1368 6.95266 11.4184C6.96541 12.3002 6.95266 13.1832 6.95266 14.065V15.2667L7.65951 15.262ZM41.7122 10.3685C41.0934 10.5366 40.6299 10.3465 40.1942 9.97341C39.7307 9.57943 39.2278 9.23875 38.7921 8.91198C37.8199 9.88187 36.8627 10.8355 35.8836 11.8089H37.5255V13.1925H34.1929C34.1359 13.203 34.0773 13.203 34.0203 13.1925C33.8604 13.1413 33.7083 13.0684 33.5684 12.9758C32.8603 12.4254 32.1662 11.8576 31.4606 11.3037C30.797 10.7794 29.9875 10.4734 29.143 10.4276C28.4791 10.3859 28.0526 10.6501 27.88 11.182C27.7073 11.7139 27.924 12.167 28.4976 12.5111C29.96 13.3895 31.42 14.2724 32.8893 15.1392C34.4085 16.0349 36.0041 16.1821 37.6936 15.6664C39.0227 15.2609 40.2822 14.6015 41.7122 14.5436V10.3685ZM34.0423 11.5343C34.0875 11.496 34.1443 11.4532 34.1941 11.4033C36.5193 9.08579 38.8442 6.76401 41.1687 4.43798C41.9115 3.6929 41.9196 2.6222 41.2162 1.91535C40.5128 1.2085 39.4236 1.22009 38.6577 1.97792C36.2266 4.39743 33.7989 6.82079 31.3748 9.24802C31.3196 9.306 31.2692 9.36839 31.2242 9.43458L34.0423 11.5343ZM11.1323 29.8428C11.1259 28.5554 10.6106 27.3228 9.69887 26.4138C8.78712 25.5049 7.55292 24.9934 6.26551 24.991C4.97661 24.995 3.74175 25.5092 2.83101 26.4213C1.92027 27.3333 1.40779 28.5689 1.40565 29.8578C1.41207 31.1453 1.92732 32.3781 2.83904 33.2872C3.75075 34.1963 4.98495 34.708 6.27247 34.7107C7.55968 34.7046 8.7923 34.19 9.70174 33.2791C10.6112 32.3681 11.1237 31.1346 11.1277 29.8474L11.1323 29.8428ZM24.3168 8.31058V1.42287H18.8068V8.31058H24.3168ZM24.4106 32.7026C24.1789 32.8092 23.9958 32.8938 23.8127 32.9749C23.4129 33.1534 22.815 32.9622 22.7142 32.5415C22.5786 31.9726 22.2507 31.859 21.7478 31.9285C21.6042 31.9512 21.458 31.9512 21.3144 31.9285C20.8173 31.8405 20.5531 32.0317 20.4314 32.5276C20.3376 32.9123 19.7084 33.202 19.3885 32.9911C18.8903 32.6678 18.5519 32.7965 18.2379 33.2287C18.1616 33.3347 18.0684 33.4275 17.9621 33.5033C17.5334 33.7953 17.4592 34.1244 17.7431 34.581C17.9436 34.9043 17.7199 35.5451 17.3572 35.6238C16.7199 35.7583 16.6202 36.1465 16.6932 36.6841C16.7083 36.7844 16.7083 36.8863 16.6932 36.9866C16.604 37.5034 16.7616 37.822 17.3225 37.9321C17.6481 37.997 17.9644 38.6552 17.786 38.9136C17.3804 39.493 17.6388 39.8464 18.0849 40.194C18.1742 40.2638 18.2534 40.3457 18.3202 40.4374C18.5878 40.8198 18.8822 40.8719 19.2958 40.6251C19.6805 40.3933 20.2958 40.6019 20.4013 41.0191C20.545 41.5915 20.8648 41.7352 21.3967 41.6541C21.5834 41.6268 21.7731 41.6268 21.9598 41.6541C22.3364 41.7085 22.5242 41.5764 22.6354 41.1906C22.8138 40.5811 23.3457 40.3794 23.9182 40.6494C24.0607 40.7166 24.2055 40.7792 24.4257 40.8812C24.669 40.6112 24.8892 40.3018 25.1789 40.0619C25.5485 39.7502 25.6748 39.4617 25.3851 39.019C25.1777 38.6981 25.3851 38.0445 25.7432 37.9704C26.4304 37.8267 26.486 37.391 26.428 36.8336C26.4066 36.6322 26.4066 36.429 26.428 36.2276C26.457 35.9657 26.3562 35.8266 26.1013 35.7641C25.7699 35.6853 25.5219 35.5393 25.3736 35.1777C25.2252 34.8162 25.3863 34.5752 25.4894 34.2808C25.5358 34.1476 25.5497 33.9332 25.4732 33.8405C25.1406 33.4512 24.7687 33.0873 24.406 32.7072L24.4106 32.7026ZM22.4523 17.4811C20.6736 17.0315 18.7535 17.9237 17.8775 19.5773C17.4395 20.4013 17.2928 21.3491 17.461 22.267C17.6293 23.1849 18.1027 24.019 18.8045 24.6341C19.5029 25.2549 20.3903 25.6219 21.3231 25.6758C22.256 25.7296 23.1797 25.4671 23.9448 24.9308C25.3492 23.9528 26.0989 22.0026 25.5729 20.6433C25.244 20.7896 24.923 20.9528 24.6111 21.1323C24.5402 21.1795 24.4799 21.2409 24.4342 21.3128C24.3885 21.3846 24.3584 21.4653 24.3457 21.5495C24.2751 23.0559 23.1406 24.2367 21.6806 24.2923C20.9779 24.3226 20.2895 24.0872 19.7527 23.6328C19.2158 23.1784 18.8698 22.5384 18.7837 21.8403C18.6041 20.4104 19.6029 19.0037 21.0861 18.8194C21.7524 18.736 22.0421 18.4521 22.2379 17.9075C22.297 17.7789 22.3689 17.6537 22.4477 17.4857L22.4523 17.4811ZM27.3191 13.4103L25.4547 15.2574C26.2426 16.0453 27.0549 16.8576 27.829 17.6294L30.3006 15.2087L27.3191 13.4103ZM24.691 9.74861H22.2866V16.0059C22.4867 16.0625 22.6909 16.1036 22.8973 16.1288C22.9547 16.1283 23.0114 16.1154 23.0634 16.091C23.1154 16.0666 23.1615 16.0313 23.1986 15.9874C23.6412 15.3107 24.0665 14.6212 24.5184 13.9016C23.2924 12.3709 23.3028 11.3199 24.6864 9.75324L24.691 9.74861ZM32.3853 6.27926C31.0121 6.13905 29.9159 6.47509 29.0248 7.41717C28.5173 7.95136 27.9819 8.46006 27.4628 8.9815C26.7884 9.65475 26.1036 10.3187 25.4419 11.0059C24.8243 11.6467 24.9332 12.5401 25.7386 12.985C25.9495 12.7533 26.1859 12.4937 26.4037 12.2272C26.4608 12.1501 26.4887 12.0553 26.4825 11.9595C26.3411 10.058 27.3863 8.98266 29.3215 9.03365C29.4602 9.04381 29.598 9.00484 29.7108 8.92357C30.5845 8.07535 31.4501 7.20743 32.3806 6.2839L32.3853 6.27926ZM24.5161 16.4845C24.0109 17.4961 23.5068 18.4822 23.034 19.4822C23.0061 19.5642 22.9984 19.6516 23.0115 19.7371C23.0246 19.8227 23.0582 19.9038 23.1093 19.9736C23.1801 20.0244 23.2619 20.058 23.348 20.0717C23.4341 20.0854 23.5222 20.0788 23.6053 20.0524C24.0317 19.882 24.4361 19.6549 24.8486 19.4498L26.6111 18.5726L24.5161 16.4845ZM21.5647 22.911C22.2287 22.911 22.8498 22.3919 22.9228 21.7523C22.9208 21.6844 22.9025 21.618 22.8694 21.5587C22.8363 21.4994 22.7894 21.4489 22.7327 21.4116C22.2656 21.2053 21.891 20.834 21.6806 20.3687C21.6394 20.3076 21.5838 20.2574 21.5188 20.2227C21.4537 20.1879 21.3812 20.1696 21.3075 20.1694C20.6215 20.2667 20.1197 20.9342 20.173 21.6329C20.2042 21.981 20.3641 22.3049 20.6215 22.5413C20.8789 22.7777 21.2152 22.9095 21.5647 22.911ZM4.89585 16.6827C4.92366 17.4822 5.52159 18.0639 6.28637 18.0512C6.46396 18.049 6.63939 18.012 6.80265 17.942C6.9659 17.8721 7.11379 17.7707 7.23786 17.6436C7.36192 17.5166 7.45974 17.3663 7.52572 17.2014C7.59171 17.0365 7.62457 16.8602 7.62243 16.6827H4.89585ZM6.25508 8.33955C6.0725 8.34229 5.89833 8.41675 5.77019 8.54684C5.64205 8.67693 5.57023 8.85221 5.57025 9.03481C5.57329 9.21719 5.64788 9.39107 5.77794 9.51896C5.908 9.64685 6.0831 9.7185 6.26551 9.71848C6.44809 9.71574 6.62227 9.64128 6.75041 9.51119C6.87855 9.3811 6.95036 9.20582 6.95034 9.02322C6.9473 8.84084 6.87271 8.66696 6.74265 8.53907C6.61259 8.41118 6.43749 8.33952 6.25508 8.33955Z" fill="white"/>
<path d="M36.1535 23.6354V24.9738C36.8302 25.0386 37.4281 25.2576 37.8013 25.8185C38.033 26.1661 38.1582 26.5833 38.3667 27.0468H36.88C36.7815 26.5114 36.4003 26.3515 35.8719 26.3828C35.5243 26.4037 35.1767 26.3828 34.829 26.3898C34.3817 26.4025 34.0874 26.676 34.0805 27.0676C34.0735 27.4593 34.3736 27.7629 34.8452 27.7722C35.2508 27.7826 35.6564 27.7722 36.0619 27.7722C37.2474 27.7803 38.1605 28.5833 38.2427 29.6922C38.325 30.8012 37.5579 31.7328 36.3887 31.9263C36.3308 31.9356 36.2728 31.9414 36.1755 31.953V33.2983H34.785V31.9623C34.1094 31.8939 33.5103 31.6749 33.1372 31.1152C32.9055 30.7676 32.7792 30.3504 32.5706 29.8881H34.0584C34.1569 30.4234 34.5393 30.5833 35.0666 30.552C35.4142 30.53 35.7618 30.552 36.1095 30.5451C36.5556 30.5312 36.8499 30.2577 36.858 29.8661C36.8661 29.4744 36.5614 29.1708 36.0909 29.1615C35.6865 29.1523 35.2798 29.1615 34.8754 29.1615C33.6911 29.1523 32.7745 28.3434 32.6946 27.2403C32.6135 26.1198 33.3817 25.1962 34.5486 25.0062C34.6054 24.9969 34.6645 24.9923 34.7618 24.9795V23.6354H36.1535Z" fill="white"/>
<path d="M2.78568 29.8556C2.78568 29.3063 2.77641 28.7559 2.78568 28.2067C2.81233 26.8544 4.12985 25.9934 5.3593 26.5612C6.51806 27.0931 7.64554 27.6771 8.77534 28.2623C9.0715 28.4057 9.31943 28.6324 9.4888 28.9146C9.65818 29.1967 9.74164 29.5221 9.729 29.8509C9.74249 30.18 9.6598 30.5058 9.49105 30.7885C9.3223 31.0713 9.07479 31.2988 8.77881 31.4431C7.65017 32.0283 6.51806 32.6123 5.36277 33.1453C4.13332 33.7131 2.81349 32.8545 2.78568 31.5033C2.77641 30.9541 2.78568 30.4048 2.78568 29.8556ZM4.17619 29.8556C4.17619 30.3759 4.16577 30.8985 4.17619 31.4164C4.18778 31.8579 4.48095 32.0433 4.87841 31.8498C5.9213 31.3423 6.95376 30.8278 7.97927 30.2924C8.13338 30.2113 8.31415 30.0039 8.31299 29.8556C8.31183 29.7073 8.12874 29.5079 7.97347 29.4222C6.96418 28.888 5.941 28.3863 4.91665 27.8764C4.46009 27.6528 4.18663 27.8254 4.17851 28.333C4.1704 28.8405 4.17619 29.3446 4.17619 29.8509V29.8556Z" fill="white"/>
<path d="M22.9227 4.16112H20.2054V2.81348H22.9227V4.16112Z" fill="white"/>
<path d="M22.9274 6.92712H20.2019V5.58643H22.9274V6.92712Z" fill="white"/>
<path d="M25.0409 36.8233C25.0296 37.7454 24.6532 38.6254 23.9942 39.2705C23.3352 39.9156 22.4474 40.2732 21.5252 40.2648C20.6031 40.2523 19.7236 39.8747 19.0793 39.2149C18.4351 38.555 18.0787 37.6666 18.0883 36.7445C18.1051 35.8301 18.4809 34.9589 19.1346 34.3193C19.7883 33.6797 20.6674 33.3229 21.582 33.3261C22.0388 33.3284 22.4907 33.4207 22.9118 33.5977C23.3329 33.7747 23.715 34.033 24.0363 34.3578C24.3575 34.6826 24.6116 35.0675 24.784 35.4906C24.9563 35.9136 25.0437 36.3665 25.0409 36.8233ZM21.5646 34.7143C21.0172 34.7161 20.4922 34.9323 20.1023 35.3165C19.7123 35.7008 19.4885 36.2226 19.4788 36.77C19.477 37.0454 19.5296 37.3184 19.6335 37.5735C19.7374 37.8286 19.8906 38.0606 20.0844 38.2563C20.2782 38.452 20.5087 38.6076 20.7627 38.714C21.0167 38.8204 21.2892 38.8757 21.5646 38.8766C22.1122 38.8746 22.6372 38.6581 23.0271 38.2737C23.4169 37.8892 23.6407 37.3673 23.6504 36.8198C23.653 36.5442 23.601 36.2709 23.4973 36.0156C23.3937 35.7602 23.2404 35.528 23.0465 35.3322C22.8526 35.1364 22.6217 34.981 22.3674 34.875C22.113 34.7689 21.8402 34.7143 21.5646 34.7143Z" fill="white"/>
</g>
<defs>
<clipPath id="clip0_962_7665">
<rect width="43.12" height="43.069" fill="white"/>
</clipPath>
</defs>
</svg>
