<svg width="31" height="31" viewBox="0 0 31 31" fill="none" xmlns="http://www.w3.org/2000/svg">
<g clip-path="url(#clip0_1084_5320)">
<path d="M-0.00152587 22.9127C0.19189 22.6328 0.355974 22.3245 0.585853 22.078C1.08287 21.5421 1.60921 21.0324 2.13477 20.5227C2.27983 20.3824 2.31629 20.2698 2.24653 20.0653C0.44317 14.7956 1.35317 10.041 5.01142 5.84058C6.13228 4.55325 7.50522 3.56636 9.03669 2.80538C9.54163 2.55489 9.88565 2.60404 10.0672 2.95282C10.2487 3.3016 10.0791 3.61471 9.58126 3.86679C6.87899 5.23417 4.87429 7.28485 3.64642 10.0497C2.34245 12.9827 2.19976 16.0068 3.15416 19.0761C3.17715 19.1553 3.20568 19.2251 3.23343 19.298C3.23977 19.3139 3.26117 19.3242 3.29763 19.3551C3.90959 18.7431 4.52868 18.1359 5.12795 17.5081C5.19533 17.4376 5.17234 17.2521 5.15014 17.1276C4.74587 14.9081 5.00826 12.7782 5.98564 10.7433C7.85796 6.84808 12.0267 4.54533 16.3009 5.036C16.5856 5.06125 16.8684 5.10494 17.1475 5.16679C17.371 5.22228 17.5081 5.1549 17.6603 4.99716C18.2152 4.42405 18.7859 3.8652 19.424 3.22709C18.6813 3.0519 18.0202 2.84343 17.344 2.75148C16.5244 2.63733 15.6937 2.6302 14.8661 2.55093C14.6741 2.53648 14.4894 2.47108 14.331 2.36147C14.1321 2.21086 14.1194 1.96513 14.2105 1.73605C14.3144 1.48001 14.5276 1.37617 14.8003 1.36824C16.325 1.32709 17.8461 1.5354 19.3036 1.98495C19.5687 2.0624 19.8294 2.1545 20.0844 2.2608C20.2603 2.34007 20.3658 2.29647 20.4942 2.16568C21.0673 1.5783 21.6507 1.00043 22.2333 0.421771C22.7953 -0.13311 23.4818 -0.144208 24.0414 0.413844C26.0232 2.38975 28.0022 4.36882 29.9787 6.35107C30.5336 6.90595 30.5264 7.59796 29.9692 8.15918C29.3913 8.7426 28.8126 9.32443 28.2253 9.89834C28.0945 10.026 28.0667 10.1282 28.1293 10.3074C30.5542 16.9279 27.8915 24.0478 21.7086 27.3993C19.1498 28.7865 16.3976 29.2708 13.5066 28.9252C12.4167 28.7997 11.3472 28.5358 10.324 28.1396C10.1203 28.0604 10.0069 28.1095 9.86583 28.2538C9.35614 28.7785 8.84723 29.3057 8.31058 29.8027C8.06406 30.0326 7.7557 30.199 7.47509 30.3893H6.99948C6.72046 30.1943 6.40655 30.0342 6.16716 29.7987C4.29695 27.9491 2.43704 26.0895 0.58744 24.2198C0.349634 23.982 0.191095 23.6649 -0.00390625 23.3867L-0.00152587 22.9127ZM29.1186 7.27217L23.1402 1.28818L1.30086 23.1235L7.28088 29.1059L29.1186 7.27217ZM27.1084 11.0247C26.5059 11.6264 25.9304 12.2138 25.3438 12.7813C25.2851 12.8309 25.2421 12.8965 25.22 12.9701C25.1979 13.0437 25.1977 13.1222 25.2194 13.1959C25.4549 14.3808 25.4801 15.5979 25.2939 16.7915C24.4624 22.2516 19.34 26.0937 13.8443 25.3121C13.1396 25.2115 12.687 25.3264 12.2518 25.8599C11.8872 26.3062 11.4409 26.6859 11.0208 27.1052C14.5879 28.4837 19.9567 28.1222 23.898 24.3728C27.9803 20.4934 28.578 14.943 27.1084 11.0247ZM16.419 6.25991C10.1361 5.4482 5.37685 10.9368 6.27735 16.4063L16.419 6.25991ZM14.052 24.1469C20.1842 24.9546 25.0006 19.5295 24.1191 14.0798L14.052 24.1469Z" fill="white"/>
<path d="M11.5001 2.32734C11.4984 2.17217 11.5583 2.02265 11.6666 1.91152C11.7749 1.80039 11.9228 1.7367 12.078 1.73441C12.2381 1.73629 12.3909 1.80147 12.503 1.9157C12.6152 2.02992 12.6775 2.18391 12.6765 2.34398C12.6707 2.49888 12.6046 2.6454 12.4924 2.75231C12.3802 2.85922 12.2306 2.91806 12.0756 2.9163C11.999 2.91611 11.9231 2.90064 11.8525 2.87081C11.7819 2.84097 11.7179 2.79736 11.6643 2.74253C11.6108 2.6877 11.5686 2.62275 11.5404 2.55146C11.5123 2.48017 11.4985 2.40398 11.5001 2.32734Z" fill="white"/>
<path d="M8.07896 22.3141C8.52604 22.7588 8.98025 23.1956 9.41385 23.6522C9.53513 23.7806 9.67147 23.9693 9.66196 24.1278C9.6388 24.3343 9.54265 24.5257 9.39086 24.6676C9.30368 24.7459 9.18967 24.7875 9.07258 24.7838C8.95549 24.7801 8.84433 24.7314 8.76226 24.6478C7.74709 23.6511 6.74302 22.6455 5.75005 21.6308C5.57645 21.4541 5.59785 21.2075 5.72706 20.9967C5.8856 20.7303 6.14084 20.6796 6.42462 20.7319C6.99774 20.8358 7.57005 20.9444 8.14237 21.049C8.51969 21.1188 8.89781 21.1853 9.2997 21.2583C8.92476 20.8714 8.57043 20.5052 8.21372 20.1414C8.08213 20.0074 7.94024 19.883 7.81262 19.745C7.56134 19.4739 7.55658 19.1362 7.7928 18.8961C8.02902 18.6559 8.37305 18.6456 8.64098 18.8961C9.07933 19.3098 9.50342 19.7387 9.93385 20.1644C10.4206 20.64 10.9104 21.1156 11.3932 21.5967C11.6667 21.8702 11.7253 22.1849 11.5628 22.4536C11.4003 22.7224 11.1451 22.8008 10.8494 22.7469C10.0139 22.5979 9.17921 22.4441 8.34372 22.2935C8.26445 22.2792 8.18994 22.2713 8.11226 22.2602L8.07896 22.3141Z" fill="white"/>
<path d="M12.5262 20.4941C12.1822 20.4969 11.841 20.4313 11.5224 20.3014C11.2039 20.1714 10.9142 19.9796 10.6702 19.737C10.4262 19.4945 10.2327 19.2059 10.101 18.8881C9.96918 18.5703 9.90172 18.2295 9.90246 17.8854C9.89922 17.5414 9.96407 17.2002 10.0933 16.8814C10.2225 16.5626 10.4135 16.2726 10.6554 16.0279C10.8972 15.7833 11.1851 15.5889 11.5023 15.4561C11.8196 15.3232 12.1601 15.2544 12.5041 15.2537C12.8504 15.2498 13.1941 15.3149 13.5151 15.4452C13.836 15.5756 14.1278 15.7686 14.3734 16.0129C14.6189 16.2572 14.8134 16.548 14.9454 16.8682C15.0774 17.1885 15.1442 17.5319 15.1421 17.8783C15.1434 18.2221 15.0766 18.5629 14.9456 18.8808C14.8145 19.1987 14.6219 19.4876 14.3787 19.7308C14.1356 19.9739 13.8467 20.1666 13.5288 20.2976C13.2108 20.4286 12.8701 20.4954 12.5262 20.4941ZM12.512 19.3051C12.6997 19.3079 12.8861 19.2735 13.0604 19.2038C13.2347 19.1341 13.3935 19.0306 13.5275 18.8991C13.6615 18.7677 13.7681 18.611 13.8412 18.4381C13.9142 18.2651 13.9523 18.0795 13.9531 17.8917C13.9562 17.7039 13.9223 17.5173 13.8531 17.3426C13.7839 17.1679 13.681 17.0086 13.5501 16.8738C13.4192 16.7391 13.263 16.6315 13.0904 16.5572C12.9179 16.4829 12.7323 16.4435 12.5445 16.4411C12.3541 16.4363 12.1647 16.4699 11.9875 16.5398C11.8103 16.6097 11.649 16.7145 11.5132 16.8479C11.3773 16.9814 11.2697 17.1409 11.1967 17.3168C11.1237 17.4927 11.0869 17.6815 11.0883 17.8719C11.0858 18.0598 11.1207 18.2463 11.191 18.4205C11.2614 18.5948 11.3657 18.7533 11.4979 18.8867C11.6301 19.0202 11.7876 19.126 11.9612 19.198C12.1348 19.27 12.3209 19.3066 12.5088 19.3059L12.512 19.3051Z" fill="white"/>
<path d="M18.3567 9.98151L18.9987 10.5768C19.1731 10.3945 19.3634 10.1868 19.5639 9.98786C19.8715 9.68188 20.2227 9.65096 20.4787 9.89908C20.7347 10.1472 20.7165 10.519 20.3994 10.8352C20.2044 11.0294 19.9952 11.2094 19.7819 11.4052L20.4319 12.0235C20.6388 11.7999 20.8505 11.5574 21.0764 11.3291C21.3982 11.0041 21.7541 10.9803 22.0125 11.2498C22.271 11.5193 22.2321 11.8491 21.919 12.1662C21.5792 12.5107 21.2357 12.8542 20.8885 13.1967C20.5405 13.5391 20.225 13.5438 19.8858 13.2062C18.9816 12.3078 18.0795 11.4057 17.1795 10.4999C16.8625 10.1829 16.8561 9.85786 17.1653 9.54157C17.5236 9.17165 17.8869 8.80781 18.2552 8.45004C18.554 8.15913 18.8965 8.14169 19.1494 8.39218C19.4022 8.64267 19.3872 8.99145 19.0978 9.28633C18.864 9.52651 18.6095 9.7445 18.3567 9.98151Z" fill="white"/>
<path d="M21.0421 7.29906L21.7056 7.94351C21.8903 7.72711 22.0694 7.49406 22.2723 7.28558C22.5664 6.98277 22.9382 6.96851 23.1855 7.22613C23.4328 7.48375 23.4019 7.83016 23.1142 8.12028C22.9128 8.32321 22.6972 8.51187 22.5014 8.69418L23.1197 9.33468C23.3385 9.09687 23.5589 8.84559 23.7967 8.60937C24.0923 8.31607 24.4372 8.30101 24.6876 8.54992C24.9381 8.79882 24.9255 9.1476 24.6409 9.44248C24.2752 9.81821 23.9053 10.1881 23.5311 10.5522C23.2323 10.8408 22.9096 10.84 22.6164 10.5483C21.6894 9.63035 20.7665 8.70845 19.8475 7.7826C19.5455 7.47741 19.5526 7.15954 19.8586 6.84643C20.2174 6.47915 20.5807 6.11584 20.9485 5.75649C21.245 5.46716 21.5874 5.4521 21.8395 5.70338C22.0916 5.95466 22.0773 6.29948 21.7888 6.59436C21.5534 6.83137 21.3013 7.0557 21.0421 7.29906Z" fill="white"/>
<path d="M17.1325 14.1114C17.463 14.4285 17.819 14.7543 18.163 15.0959C18.2602 15.1834 18.3228 15.3029 18.3394 15.4327C18.356 15.5624 18.3255 15.6939 18.2534 15.803C18.1992 15.9107 18.1102 15.9969 18.0008 16.0477C17.8915 16.0985 17.7682 16.1109 17.6509 16.0828C17.5172 16.0529 17.3941 15.9872 17.295 15.8926C16.3596 14.9683 15.429 14.039 14.5032 13.1047C14.2114 12.8106 14.2202 12.4919 14.515 12.1899C14.8665 11.8285 15.2229 11.4718 15.5844 11.1198C15.8602 10.8519 16.2185 10.8392 16.4563 11.0738C16.6941 11.3085 16.6941 11.6636 16.4349 11.9458C16.3211 12.0705 16.2007 12.1891 16.0743 12.3009C15.9562 12.4048 15.8254 12.4951 15.7128 12.5815L16.3271 13.2157C16.5055 13.023 16.6838 12.8146 16.882 12.6235C17.1698 12.3405 17.5312 12.3271 17.7754 12.5768C18.0195 12.8265 17.9941 13.1792 17.7135 13.4725C17.536 13.658 17.3537 13.8395 17.1745 14.0274C17.1582 14.0542 17.1442 14.0823 17.1325 14.1114Z" fill="white"/>
</g>
<defs>
<clipPath id="clip0_1084_5320">
<rect width="30.3924" height="30.39" fill="white"/>
</clipPath>
</defs>
</svg>
