<svg width="29" height="32" viewBox="0 0 29 32" fill="none" xmlns="http://www.w3.org/2000/svg">
<g clip-path="url(#clip0_1084_5330)">
<path d="M16.4188 31.9999C16.2563 31.7945 16.0367 31.6093 15.9422 31.3796C15.5321 30.3703 15.1094 29.3609 14.7907 28.321C14.6172 27.7562 14.6086 27.1312 14.586 26.5312C14.5539 25.689 14.5781 24.8445 14.5774 24.0007V23.6249H14.1235C13.2391 23.6249 12.3555 23.6249 11.4719 23.6249C11.0078 23.6249 10.7344 23.3906 10.7328 22.9999C10.7313 22.6093 11.0055 22.3749 11.4688 22.3749C12.3836 22.3703 13.2985 22.3749 14.2133 22.3749H14.5602C14.5735 22.1476 14.5797 21.9515 14.5969 21.7562C14.6797 20.8085 15.3375 20.0984 16.2586 19.9593C16.6951 19.8918 17.1414 19.9785 17.5208 20.2047C17.9001 20.4309 18.1887 20.7823 18.3367 21.1984C18.6742 22.1156 18.9617 23.0492 19.2742 23.9757C19.3766 24.282 19.5344 24.5382 19.8367 24.6867C19.9875 24.7642 20.155 24.8034 20.3245 24.801C20.494 24.7985 20.6603 24.7544 20.8088 24.6725C20.9572 24.5906 21.0832 24.4734 21.1757 24.3314C21.2682 24.1893 21.3243 24.0266 21.3391 23.8578C21.3477 23.733 21.35 23.6078 21.3461 23.4828C21.3461 17.0572 21.3443 10.6312 21.3406 4.20463C21.3406 3.14604 21.4781 2.14995 22.2235 1.27807C22.1063 1.26479 22.0321 1.24838 21.9578 1.24838C15.886 1.24838 9.81461 1.24838 3.74377 1.24838C2.27034 1.24838 1.2594 2.27026 1.25862 3.75307C1.2555 11.3572 1.2555 18.9614 1.25862 26.5656C1.25862 27.1562 1.47893 27.3749 2.0719 27.3749C4.65107 27.3749 7.22919 27.3749 9.80627 27.3749C9.94101 27.3697 10.0759 27.3792 10.2086 27.4031C10.3481 27.4305 10.473 27.5071 10.5606 27.619C10.6483 27.7308 10.6928 27.8705 10.686 28.0124C10.686 28.149 10.639 28.2814 10.5529 28.3874C10.4669 28.4934 10.3469 28.5665 10.2133 28.5945C10.091 28.6175 9.96659 28.6272 9.84221 28.6234C7.25419 28.6234 4.66565 28.6234 2.07659 28.6234C0.775025 28.6234 0.01018 27.8507 0.01018 26.5382C0.01018 18.9664 0.0250234 11.3945 2.3386e-05 3.82338C-0.00700786 1.63041 1.57268 0.214008 3.11096 0.0413516C3.13935 0.0317794 3.1658 0.0172291 3.18909 -0.00161743H25.3992C25.4225 0.0172291 25.449 0.0317794 25.4774 0.0413516C27.0203 0.214008 28.6367 1.64057 28.586 3.85151C28.5492 5.45307 28.5813 7.05463 28.5781 8.6601C28.5813 9.90619 27.8 10.6874 26.5539 10.6874C25.3485 10.6874 24.1438 10.6874 22.9383 10.6874H22.6258C22.5235 11.1007 22.6422 11.3749 22.9297 11.632C23.3789 12.0328 23.7891 12.4765 24.2149 12.9046C25.9594 14.6648 26.9321 16.7703 26.9633 19.2632C26.993 21.6257 26.9805 23.9882 26.968 26.3507C26.9557 28.0924 26.5693 29.8111 25.8352 31.3906C25.7297 31.6203 25.5078 31.796 25.3399 31.9968H25.0274C24.5406 31.7226 24.4539 31.464 24.6774 30.9468C24.7063 30.8796 24.7383 30.8148 24.7672 30.7476C25.3531 29.3749 25.7047 27.946 25.7156 26.4507C25.7352 24.1296 25.7406 21.807 25.7156 19.4859C25.7077 18.8624 25.6368 18.2412 25.5039 17.632C25.1055 15.7789 24.0274 14.3453 22.5906 13.0804V22.4226C22.5906 22.8703 22.6039 23.3187 22.5867 23.7656C22.5508 24.6804 22.1469 25.3859 21.3227 25.8038C20.5469 26.1945 19.7758 26.1445 19.0414 25.6781C18.5657 25.3757 18.2696 24.932 18.0946 24.4015C17.8008 23.5161 17.506 22.6286 17.2102 21.739C17.1055 21.4265 16.8977 21.2132 16.5594 21.1968C16.4231 21.1827 16.2858 21.2131 16.1682 21.2836C16.0506 21.354 15.959 21.4606 15.9071 21.5874C15.8482 21.7425 15.8204 21.9076 15.825 22.0734C15.8196 23.5937 15.825 25.1132 15.825 26.6335C15.8227 27.4786 15.9947 28.3151 16.3305 29.0906C16.5969 29.7109 16.8508 30.3367 17.1063 30.9656C17.3242 31.4999 17.2344 31.7398 16.7289 32.0015L16.4188 31.9999ZM22.5953 9.43744C23.993 9.43744 25.3531 9.44604 26.7125 9.43198C27.1196 9.42729 27.3375 9.14682 27.3375 8.68901C27.3406 7.02234 27.3406 5.35567 27.3375 3.68901C27.3475 3.16378 27.1826 2.65013 26.8688 2.22885C26.2321 1.38588 25.2281 1.06557 24.2344 1.37885C23.2774 1.67963 22.6289 2.55073 22.5992 3.61791C22.5813 4.25307 22.5946 4.88823 22.5946 5.52338C22.5946 6.81245 22.5953 8.10229 22.5953 9.43744Z" fill="white"/>
<path d="M3.36535 5.97499C3.36535 5.52733 3.35442 5.07889 3.36535 4.63202C3.38723 3.88905 3.89582 3.38593 4.63801 3.37733C5.53124 3.36796 6.42473 3.36796 7.31848 3.37733C8.01301 3.38514 8.53957 3.82343 8.56848 4.51249C8.61457 5.49843 8.61457 6.48983 8.56848 7.47655C8.53801 8.16717 8.01301 8.61327 7.32473 8.62186C6.42056 8.6328 5.51666 8.6328 4.61301 8.62186C3.89035 8.61171 3.38332 8.10546 3.36301 7.37967C3.35364 6.91171 3.36535 6.44296 3.36535 5.97499ZM4.62707 7.35858H7.33489V4.64139H4.62707V7.35858Z" fill="white"/>
<path d="M3.36215 13.4844C3.36215 13.0578 3.3559 12.6305 3.36215 12.2039C3.37622 11.3836 3.877 10.8813 4.69028 10.8758C5.55278 10.8706 6.41528 10.8706 7.27778 10.8758C8.04575 10.8813 8.56606 11.3539 8.59106 12.1258C8.62075 13.0414 8.62075 13.9576 8.59106 14.8742C8.56606 15.6453 8.04418 16.118 7.27778 16.1242C6.41528 16.1305 5.55278 16.1305 4.69028 16.1242C3.877 16.1195 3.37622 15.6172 3.36215 14.7961C3.3559 14.3594 3.36215 13.9219 3.36215 13.4844ZM7.33403 14.8594V12.1414H4.63168V14.8594H7.33403Z" fill="white"/>
<path d="M3.36337 20.9836C3.36337 20.557 3.35712 20.1297 3.36337 19.7031C3.37743 18.8828 3.87821 18.3812 4.69149 18.375C5.55399 18.3693 6.41649 18.3693 7.27899 18.375C8.04618 18.3812 8.56649 18.8539 8.59149 19.625C8.62118 20.5398 8.62118 21.4578 8.59149 22.3727C8.56649 23.1422 8.04462 23.6164 7.27743 23.6227C6.40503 23.6289 5.53212 23.6289 4.65868 23.6227C3.89696 23.6164 3.38602 23.1156 3.36493 22.3578C3.35243 21.9 3.36493 21.4414 3.36493 20.9836H3.36337ZM4.63602 19.6344V22.3562H7.33134V19.6344H4.63602Z" fill="white"/>
<path d="M14.8875 16.125H11.6149C11.5414 16.125 11.4688 16.125 11.3961 16.125C10.9852 16.1047 10.7266 15.8586 10.7305 15.4937C10.7305 15.1422 10.9868 14.9023 11.3805 14.8781C11.443 14.8781 11.5055 14.8781 11.5672 14.8781H18.2664C18.3391 14.8781 18.4118 14.8781 18.4844 14.8781C18.8571 14.9094 19.1 15.1516 19.1039 15.4922C19.1079 15.8461 18.8586 16.0953 18.4688 16.1226C18.386 16.1289 18.3024 16.1226 18.2196 16.1226L14.8875 16.125Z" fill="white"/>
<path d="M16.3251 8.62499C15.6602 8.62499 14.9969 8.62499 14.3305 8.62499C13.8618 8.62499 13.5907 8.39062 13.586 8.00781C13.5813 7.62499 13.8571 7.37812 14.3157 7.37734C15.6667 7.37369 17.0172 7.37369 18.3672 7.37734C18.836 7.37734 19.1063 7.61171 19.1102 7.99452C19.1141 8.38906 18.836 8.62343 18.3501 8.62578C17.6751 8.62734 17.0001 8.62499 16.3251 8.62499Z" fill="white"/>
<path d="M11.3367 7.37891C11.4996 7.38141 11.6552 7.44636 11.7715 7.56035C11.8878 7.67434 11.9559 7.82865 11.9617 7.99141C11.9597 8.15345 11.8956 8.30855 11.7827 8.4248C11.6698 8.54106 11.5166 8.60962 11.3547 8.61641C11.192 8.61522 11.0362 8.55066 10.9204 8.43644C10.8046 8.32221 10.7378 8.16733 10.7344 8.00469C10.7341 7.84264 10.7967 7.68681 10.9091 7.57007C11.0215 7.45332 11.1748 7.38478 11.3367 7.37891Z" fill="white"/>
<path d="M12.8125 27.3797C12.9748 27.3892 13.1274 27.4598 13.2396 27.5774C13.3518 27.695 13.4153 27.8508 13.4172 28.0133C13.4083 28.1758 13.338 28.3288 13.2205 28.4413C13.103 28.5539 12.9471 28.6176 12.7844 28.6195C12.6222 28.6099 12.4697 28.5392 12.3575 28.4216C12.2453 28.3041 12.1818 28.1484 12.1797 27.9859C12.189 27.8236 12.2594 27.6708 12.3768 27.5583C12.4942 27.4458 12.6499 27.382 12.8125 27.3797Z" fill="white"/>
</g>
<defs>
<clipPath id="clip0_1084_5330">
<rect width="28.5914" height="32" fill="white"/>
</clipPath>
</defs>
</svg>
