<svg width="33" height="29" viewBox="0 0 33 29" fill="none" xmlns="http://www.w3.org/2000/svg">
<g clip-path="url(#clip0_1084_5337)">
<path d="M28.6956 5.74442H1.43198V6.1113C1.43198 9.56956 1.43198 13.0272 1.43198 16.4843C1.43198 17.8388 2.2052 18.6147 3.55161 18.6147C6.83645 18.6147 10.1216 18.6147 13.407 18.6147C13.5627 18.6085 13.7184 18.6258 13.869 18.6658C14.0197 18.7142 14.1492 18.813 14.2356 18.9457C14.3221 19.0784 14.3602 19.2367 14.3435 19.3942C14.328 19.5571 14.2564 19.7095 14.1409 19.8254C14.0253 19.9413 13.8731 20.0133 13.7102 20.0293C13.6208 20.0375 13.5309 20.0408 13.4411 20.0391C10.1114 20.0391 6.78144 20.0391 3.45115 20.0391C1.69301 20.0391 0.360957 18.9412 0.0532837 17.253C0.0121051 16.9764 -0.00440388 16.6966 0.00394939 16.417C0.00394939 12.7913 0.00394939 9.16561 0.00394939 5.53991C0.00394939 4.75772 -0.0104023 3.97373 0.0156109 3.19154C0.0477548 2.35615 0.394909 1.56388 0.987307 0.973978C1.5797 0.384076 2.37343 0.040267 3.20895 0.0116508C3.31032 0.0116508 3.41078 0.00537109 3.51214 0.00537109C11.215 0.00537109 18.9176 0.00537109 26.6199 0.00537109C28.1179 0.00537109 29.2168 0.644938 29.8258 2.00749C30.0226 2.46967 30.1254 2.9664 30.1281 3.46872C30.1586 5.8404 30.1425 8.21299 30.1407 10.5847C30.1407 11.0897 29.9147 11.392 29.5227 11.4449C29.0374 11.5059 28.701 11.1812 28.6974 10.6259C28.6911 9.56298 28.6974 8.49913 28.6974 7.43618L28.6956 5.74442ZM1.41225 4.27692H28.6956V3.55393C28.6902 2.19317 27.9287 1.42982 26.5742 1.42982H10.5303C8.14249 1.42982 5.75466 1.42982 3.36593 1.42982C2.41421 1.42982 1.65623 2.03978 1.48222 2.97536C1.40956 3.39068 1.43199 3.82214 1.41225 4.27692Z" fill="white"/>
<path d="M25.1077 12.8954C26.1431 12.8914 27.1691 13.0919 28.1268 13.4854C29.0845 13.8789 29.955 14.4577 30.6885 15.1886C31.4219 15.9194 32.0038 16.7879 32.4007 17.7442C32.7976 18.7006 33.0017 19.7258 33.0013 20.7612C33.003 21.7965 32.8003 22.8219 32.4047 23.7786C32.0092 24.7353 31.4287 25.6046 30.6965 26.3364C29.9643 27.0683 29.0948 27.6484 28.1379 28.0435C27.181 28.4386 26.1555 28.6409 25.1202 28.6388C24.0848 28.6425 23.0589 28.4418 22.1012 28.0482C21.1436 27.6545 20.2731 27.0756 19.5397 26.3447C18.8063 25.6138 18.2244 24.7453 17.8275 23.789C17.4305 22.8327 17.2263 21.8074 17.2266 20.772C17.2248 19.7368 17.4275 18.7113 17.823 17.7546C18.2185 16.7979 18.799 15.9287 19.5312 15.1968C20.2635 14.465 21.133 13.885 22.09 13.4901C23.0469 13.0951 24.0724 12.893 25.1077 12.8954ZM18.6546 20.7585C18.6558 22.4691 19.3355 24.1093 20.5447 25.3193C21.7538 26.5293 23.3935 27.2101 25.1041 27.2125C26.8148 27.2149 28.4566 26.5385 29.6691 25.3317C30.8816 24.1249 31.5658 22.4863 31.5715 20.7756C31.5703 19.065 30.8906 17.4248 29.6815 16.2148C28.4723 15.0049 26.8326 14.324 25.122 14.3216C23.4113 14.3192 21.7695 14.9957 20.557 16.2025C19.3445 17.4093 18.6603 19.0478 18.6546 20.7585Z" fill="white"/>
<path d="M6.47593 15.0437C7.37294 15.0437 8.26994 15.0437 9.16695 15.0437C9.71592 15.0437 10.0415 15.3128 10.0442 15.7478C10.0469 16.1829 9.71233 16.4654 9.17861 16.4654C7.34154 16.4654 5.50417 16.4654 3.6665 16.4654C3.31757 16.4654 3.05116 16.3309 2.92378 15.9999C2.80717 15.6976 2.86817 15.4016 3.13099 15.2186C3.30763 15.1067 3.51214 15.0468 3.72122 15.0455C4.63796 15.0338 5.56008 15.0437 6.47593 15.0437Z" fill="white"/>
<path d="M5.03207 12.8945C4.59433 12.8945 4.15749 12.8945 3.72065 12.8945C3.20577 12.8882 2.87746 12.6092 2.87118 12.1823C2.8649 11.7553 3.19321 11.4575 3.70091 11.4539C4.58716 11.4479 5.4731 11.4479 6.35875 11.4539C6.85569 11.4539 7.16067 11.7382 7.16605 12.1643C7.17054 12.6047 6.86107 12.8819 6.34439 12.8936C5.90666 12.8999 5.47161 12.8945 5.03207 12.8945Z" fill="white"/>
<path d="M25.1053 21.913C25.8794 21.1398 26.6114 20.4015 27.3532 19.6705C27.4825 19.5329 27.6427 19.4281 27.8205 19.3646C27.9615 19.3186 28.1141 19.3228 28.2524 19.3764C28.3907 19.43 28.5062 19.5298 28.5794 19.6588C28.6629 19.7797 28.7053 19.9242 28.7003 20.0711C28.6953 20.2179 28.6431 20.3593 28.5516 20.4742C28.4973 20.5456 28.4373 20.6125 28.3722 20.6742C27.4931 21.5533 26.6132 22.4314 25.7323 23.3087C25.2963 23.7411 24.925 23.7366 24.4881 23.2997C23.8303 22.6449 23.1725 21.9871 22.5147 21.3263C22.2313 21.0402 22.173 20.7424 22.321 20.4446C22.5452 19.9961 23.1112 19.9126 23.5068 20.2975C24.0378 20.8222 24.5491 21.3514 25.1053 21.913Z" fill="white"/>
</g>
<defs>
<clipPath id="clip0_1084_5337">
<rect width="33" height="28.6387" fill="white"/>
</clipPath>
</defs>
</svg>
