<svg width="33" height="33" viewBox="0 0 33 33" fill="none" xmlns="http://www.w3.org/2000/svg">
<g clip-path="url(#clip0_1084_5293)">
<path d="M26.5953 26.1785V17.0094C26.5786 16.851 26.6004 16.6909 26.6589 16.5427C26.7174 16.3946 26.8109 16.2627 26.9315 16.1583C27.052 16.054 27.196 15.9802 27.3512 15.9433C27.5064 15.9064 27.6683 15.9074 27.823 15.9463C28.0384 15.9957 28.2311 16.1155 28.3705 16.2867C28.5099 16.4579 28.5879 16.6707 28.5922 16.8913C28.5922 17.1128 28.5922 17.3342 28.5922 17.5557V26.1785H31.3286C31.6898 26.1755 32.0396 26.3044 32.3121 26.541C32.5845 26.7777 32.7608 27.1056 32.8078 27.4631C32.8893 28.3886 32.8595 29.3205 32.719 30.2389C32.5545 31.0021 32.1389 31.6885 31.5385 32.1888C30.9382 32.6891 30.1874 32.9747 29.4057 33H29.1691C22.4685 33 15.7531 33 9.05252 33C8.34552 33.0433 7.64178 32.8737 7.03254 32.513C6.42329 32.1523 5.93664 31.6173 5.63567 30.9772C5.37859 30.4334 5.25682 29.8357 5.28069 29.2349V11.5168H1.62717C1.41433 11.5364 1.19976 11.5098 0.998228 11.4387C0.796696 11.3676 0.612982 11.2538 0.45975 11.1051C0.306518 10.9563 0.187389 10.7762 0.110589 10.5771C0.0337897 10.378 0.00111451 10.1646 0.0148468 9.95169C-0.0518239 9.20507 -0.0518239 8.45401 0.0148468 7.7074C0.161615 6.8539 0.615171 6.08312 1.29047 5.5395C1.96576 4.99588 2.81646 4.71674 3.68317 4.75438C7.75086 4.75438 11.8333 4.75438 15.901 4.75438C16.0404 4.74205 16.1808 4.75888 16.3132 4.80379C16.4457 4.8487 16.5673 4.9207 16.6704 5.01519C16.7734 5.10968 16.8555 5.22458 16.9115 5.35255C16.9675 5.48052 16.9961 5.61875 16.9956 5.7584C16.9939 5.89739 16.9638 6.03457 16.9071 6.1615C16.8503 6.28843 16.7681 6.40243 16.6656 6.49648C16.5631 6.59053 16.4424 6.66264 16.3109 6.70838C16.1794 6.75412 16.0399 6.77251 15.901 6.76242H6.87816C6.86846 6.81613 6.86846 6.87114 6.87816 6.92484C7.02571 7.50126 7.12469 8.089 7.17401 8.68189C7.17401 15.5329 7.17401 22.3691 7.17401 29.2201C7.1427 29.6467 7.25175 30.0718 7.48462 30.4309C7.68463 30.7026 7.96438 30.9054 8.28509 31.0113C8.6058 31.1171 8.95155 31.1207 9.27439 31.0215C9.60565 30.9104 9.89506 30.701 10.1039 30.4214C10.3127 30.1417 10.431 29.805 10.4429 29.4564C10.4429 28.9691 10.4429 28.4819 10.4429 27.9799C10.4147 27.7456 10.4399 27.508 10.5167 27.2848C10.5935 27.0616 10.7198 26.8586 10.8863 26.6911C11.0527 26.5235 11.2549 26.3957 11.4779 26.3171C11.7008 26.2386 11.9386 26.2114 12.1735 26.2376H26.4918L26.5953 26.1785ZM30.8109 28.1866H12.6321L12.2919 31.0215H28.9324H29.3761C29.7572 30.9882 30.1144 30.822 30.3849 30.552C30.6554 30.2819 30.822 29.9254 30.8553 29.545C30.8405 29.0725 30.8109 28.6443 30.8109 28.1866ZM5.28069 9.49397C5.28069 9.05102 5.28069 8.63759 5.28069 8.23893C5.2625 7.86279 5.11621 7.5041 4.86608 7.22219C4.61594 6.94029 4.27691 6.75205 3.90504 6.6886C3.53656 6.62519 3.15748 6.6904 2.83151 6.87326C2.50555 7.05612 2.2526 7.34547 2.11527 7.69263C1.97264 8.28186 1.93264 8.89119 1.99696 9.49397H5.28069Z" fill="white"/>
<path d="M25.9291 -0.029541C26.8608 -0.0276075 27.7829 0.157731 28.6427 0.515871C29.5026 0.87401 30.2832 1.39792 30.94 2.05759C31.5967 2.71727 32.1166 3.49977 32.47 4.36029C32.8234 5.22081 33.0033 6.14246 32.9994 7.07247C32.9916 8.94957 32.2381 10.7469 30.9042 12.0701C29.5704 13.3932 27.7652 14.1341 25.8847 14.1302C24.9543 14.1244 24.0341 13.9357 23.1767 13.5749C22.3193 13.2141 21.5415 12.6883 20.8877 12.0274C20.2339 11.3666 19.7169 10.5836 19.3662 9.72333C19.0155 8.86302 18.838 7.94219 18.8439 7.01341C18.8517 5.1428 19.6016 3.35146 20.9295 2.03149C22.2574 0.711524 24.0551 -0.0295573 25.9291 -0.029541ZM25.9291 12.1369C27.2799 12.1369 28.5757 11.6022 29.5323 10.6501C30.4888 9.69803 31.0282 8.40615 31.0321 7.05771C31.0322 5.7118 30.4986 4.42059 29.548 3.46613C28.5973 2.51167 27.3069 1.97155 25.9586 1.96375C25.2911 1.9618 24.6298 2.09136 24.0125 2.34501C23.3953 2.59865 22.8343 2.97139 22.3616 3.44185C21.8889 3.91232 21.5138 4.47128 21.2579 5.08668C21.0021 5.70209 20.8703 6.36186 20.8703 7.02818C20.8606 7.69572 20.9831 8.35861 21.2309 8.97871C21.4787 9.5988 21.8469 10.1639 22.3143 10.6414C22.7817 11.1189 23.3391 11.4995 23.9544 11.7612C24.5696 12.023 25.2307 12.1607 25.8995 12.1664L25.9291 12.1369Z" fill="white"/>
<path d="M15.4406 15.2524H12.0976C11.9596 15.2667 11.82 15.2523 11.6878 15.2101C11.5556 15.168 11.4336 15.099 11.3294 15.0074C11.2252 14.9159 11.141 14.8038 11.0824 14.6783C11.0237 14.5527 10.9916 14.4164 10.9883 14.2779C10.9901 14.1396 11.0198 14.0031 11.0754 13.8764C11.1311 13.7498 11.2117 13.6356 11.3123 13.5406C11.413 13.4456 11.5318 13.3717 11.6616 13.3233C11.7914 13.275 11.9297 13.2531 12.0681 13.2591H19.0201C19.1598 13.2531 19.2992 13.2754 19.43 13.3247C19.5608 13.3739 19.6802 13.4491 19.7811 13.5457C19.882 13.6423 19.9623 13.7582 20.0171 13.8866C20.0719 14.015 20.1 14.1531 20.0999 14.2926C20.0926 14.4305 20.0573 14.5655 19.9961 14.6894C19.9349 14.8133 19.8492 14.9234 19.7441 15.0132C19.6389 15.103 19.5166 15.1705 19.3845 15.2116C19.2524 15.2527 19.1133 15.2666 18.9757 15.2524H15.4406Z" fill="white"/>
<path d="M14.349 19.4752H12.1007C11.9587 19.4874 11.8157 19.4702 11.6807 19.4247C11.5457 19.3791 11.4215 19.3063 11.3159 19.2106C11.2104 19.115 11.1258 18.9987 11.0674 18.8689C11.009 18.7391 10.9781 18.5987 10.9766 18.4564C10.9821 18.318 11.0156 18.1821 11.0748 18.0568C11.134 17.9316 11.2179 17.8195 11.3213 17.7272C11.4248 17.6349 11.5458 17.5643 11.6772 17.5197C11.8085 17.475 11.9475 17.4571 12.0859 17.4671H16.7305C16.8713 17.457 17.0127 17.4758 17.146 17.5223C17.2793 17.5688 17.4017 17.642 17.5056 17.7374C17.6095 17.8328 17.6927 17.9484 17.7502 18.0772C17.8077 18.2059 17.8382 18.345 17.8399 18.4859C17.8364 18.625 17.8043 18.7619 17.7458 18.8881C17.6873 19.0144 17.6035 19.1274 17.4995 19.22C17.3956 19.3127 17.2737 19.3832 17.1415 19.4271C17.0092 19.4709 16.8693 19.4873 16.7305 19.4752H14.349Z" fill="white"/>
<path d="M25.19 7.01342L27.2904 5.31543C27.4285 5.19142 27.5976 5.1068 27.7797 5.07043C27.9619 5.03406 28.1505 5.04728 28.3258 5.10872C28.4838 5.16566 28.6246 5.26173 28.7352 5.38791C28.8457 5.5141 28.9224 5.66625 28.9578 5.83009C28.9933 5.99393 28.9865 6.16409 28.9381 6.32458C28.8896 6.48508 28.8011 6.63066 28.6808 6.74765C27.6602 7.61879 26.61 8.44564 25.5598 9.25772C25.3728 9.40275 25.1361 9.46855 24.9009 9.44093C24.6656 9.4133 24.4507 9.29447 24.3025 9.11006C23.8588 8.59328 23.4298 8.04698 23.0305 7.4859C22.8852 7.2797 22.827 7.02473 22.8686 6.77608C22.9101 6.52743 23.0479 6.30507 23.2523 6.15704C23.4461 6.00977 23.6875 5.93891 23.9303 5.95797C24.1731 5.97704 24.4004 6.08469 24.5688 6.2604C24.7906 6.49664 24.9682 6.76241 25.19 7.01342Z" fill="white"/>
</g>
<defs>
<clipPath id="clip0_1084_5293">
<rect width="33" height="33" fill="white"/>
</clipPath>
</defs>
</svg>
