<svg width="37" height="37" viewBox="0 0 37 37" fill="none" xmlns="http://www.w3.org/2000/svg">
<g clip-path="url(#clip0_919_84)">
<path d="M0.366575 36.9998C-0.185318 36.5097 -0.115853 36.0967 0.578837 35.7996C0.290561 35.4258 0.1036 34.9839 0.0359923 34.5168C-0.0316155 34.0496 0.022416 33.5729 0.192898 33.1327C0.418335 32.5616 0.811552 32.0723 1.32071 31.7292C1.82986 31.3861 2.43105 31.2053 3.045 31.2107C4.97469 31.2107 6.90439 31.2107 8.83408 31.2107H9.24318V29.775H0.995658C0.28553 29.775 0.0192205 29.5049 0.0192205 28.7909C0.0192205 27.79 0.0192205 26.7917 0.0192205 25.796C0.0192205 25.1515 0.304821 24.8659 0.941621 24.8659H2.90606C2.90606 24.3179 2.9408 23.7775 2.90606 23.245C2.80958 21.925 3.40007 21.3153 4.77016 21.3847C6.2483 21.4465 7.7303 21.3847 9.26633 21.3847C9.26633 21.0297 9.26633 20.6862 9.26633 20.3427C9.24797 20.2249 9.26406 20.1044 9.31267 19.9956C9.36128 19.8868 9.44033 19.7944 9.54029 19.7295C9.64025 19.6646 9.75686 19.6301 9.87603 19.63C9.9952 19.6299 10.1118 19.6643 10.2119 19.729C10.6712 19.9413 11.115 20.1806 11.555 20.4276C11.5871 20.453 11.6244 20.4713 11.6642 20.481C11.704 20.4908 11.7455 20.4919 11.7858 20.4842C11.8261 20.4765 11.8642 20.4602 11.8976 20.4365C11.931 20.4127 11.959 20.3821 11.9795 20.3465C13.4345 18.7102 14.9049 17.0854 16.356 15.4451C16.4581 15.3103 16.5075 15.1429 16.495 14.9743C16.4484 14.5151 16.5579 14.0536 16.8057 13.6643C17.0536 13.275 17.4254 12.9805 17.8612 12.8285C18.3033 12.6762 18.7848 12.6831 19.2223 12.848C19.6599 13.0129 20.0262 13.3254 20.2579 13.7315C20.496 14.1271 20.5878 14.5937 20.5173 15.05C20.4468 15.5063 20.2184 15.9234 19.8719 16.2286C19.7666 16.2987 19.6892 16.4035 19.6532 16.5248C19.6173 16.6461 19.625 16.7762 19.6751 16.8924C20.2926 19.0537 20.887 21.2226 21.489 23.3877C21.516 23.4881 21.5508 23.5884 21.5778 23.6811C23.9513 23.847 25.3407 24.9431 25.5298 26.7686C25.6416 27.6028 25.4524 28.4496 24.9962 29.1569C24.54 29.8642 23.8466 30.3858 23.0405 30.628C22.2427 30.8708 21.3849 30.8248 20.6177 30.498C19.8505 30.1712 19.223 29.5846 18.8454 28.8411C17.977 27.1275 18.5173 25.4718 20.4277 24.0323L18.9573 18.7295C18.799 18.1467 18.6408 17.5716 18.4748 16.9927C18.4498 16.9061 18.3952 16.831 18.3205 16.7805C18.2857 16.7805 18.1584 16.8306 18.1314 16.8885C17.1974 18.7179 16.2711 20.5472 15.3256 22.419C16.0975 22.805 16.1939 23.4688 16.1824 24.2252C16.1553 25.769 16.1824 27.2819 16.1824 28.8102C16.1824 29.501 15.9083 29.775 15.2214 29.775H12.7437V31.2107C13.9555 31.1721 15.0091 31.5272 15.7038 32.577C16.3985 33.6267 16.3213 34.7305 15.6073 35.8111H21.956V31.8321L23.1138 31.67V35.815H30.0607V35.4561C30.0607 26.9062 30.0607 18.359 30.0607 9.81427C30.0607 9.16589 29.8909 8.99221 29.258 8.98835H23.9166C23.3068 8.98835 23.1447 9.16975 23.1447 9.79111C23.1447 10.6093 23.1679 11.4275 23.1447 12.2457C23.0787 13.3805 23.1906 14.5186 23.4766 15.6188C23.6754 16.3189 23.6754 17.0606 23.4766 17.7608C23.146 19.0558 23.0159 20.3938 23.0907 21.7282C23.0907 22.0408 23.0907 22.3534 23.0907 22.6776L21.9329 22.5194C22.0101 21.1918 21.7592 19.8448 22.1258 18.5365C22.4837 17.2953 22.4703 15.9764 22.0873 14.7427C21.9912 14.3829 21.947 14.0112 21.956 13.6389C21.956 12.3152 21.956 10.9914 21.956 9.66761C21.9389 9.41992 21.975 9.17142 22.0621 8.93889C22.1491 8.70636 22.285 8.49519 22.4605 8.31963C22.6361 8.14406 22.8473 8.00818 23.0798 7.92115C23.3124 7.83412 23.5608 7.79795 23.8085 7.8151H29.3313C29.582 7.79579 29.834 7.83116 30.0697 7.91876C30.3054 8.00636 30.5193 8.1441 30.6965 8.32246C30.8738 8.50082 31.0102 8.71554 31.0963 8.95179C31.1825 9.18804 31.2163 9.44017 31.1954 9.69076V35.842H35.8267V2.01443C35.8267 1.32746 35.6646 1.16923 34.9737 1.16923H29.6516C29.065 1.16923 28.8798 1.35448 28.8798 1.9411V6.63027H27.722V4.93213C27.0967 4.93213 26.5101 4.90898 25.9235 4.93213C25.8502 4.93383 25.7781 4.95075 25.7117 4.9818C25.6453 5.01286 25.5861 5.05739 25.5378 5.11255C25.4895 5.16772 25.4533 5.23231 25.4313 5.30224C25.4093 5.37217 25.4021 5.4459 25.4102 5.51876C25.4102 5.88154 25.4102 6.24047 25.4102 6.62641H24.2524C24.2484 6.11044 24.2781 5.59477 24.3411 5.08265C24.4165 4.70711 24.6202 4.36955 24.9175 4.12797C25.2147 3.88639 25.5868 3.75588 25.9698 3.75888C26.5448 3.75888 27.1276 3.75888 27.7412 3.75888C27.7412 3.12208 27.7412 2.51229 27.7412 1.90251C27.7412 0.706098 28.4475 0.00368843 29.6709 -0.00017096C31.3807 -0.00017096 33.0904 0.0345636 34.8001 -0.00017096C35.8807 -0.0310461 36.6371 0.335596 37.0038 1.38535V36.9998H0.366575ZM1.1809 28.5941H15.0284C15.0284 26.9693 15.0284 25.3715 15.0284 23.7737C15.0284 23.6463 14.8509 23.4765 14.7119 23.3877C13.3882 22.6815 12.0528 21.9868 10.7252 21.2921C10.6364 21.2458 10.5438 21.2111 10.401 21.1493V26.0314H1.19635L1.1809 28.5941ZM8.07764 35.842C9.76033 35.842 11.4469 35.842 13.1296 35.842C14.4148 35.842 15.3102 34.7189 14.9474 33.6151C14.8038 33.2346 14.5436 32.9091 14.204 32.6852C13.8643 32.4613 13.4626 32.3505 13.0563 32.3686H4.32245C3.86704 32.3686 3.40778 32.3686 2.95237 32.3686C1.71737 32.4303 0.87601 33.5572 1.25423 34.6263C1.40028 34.9934 1.65551 35.3069 1.98543 35.5243C2.31535 35.7417 2.70406 35.8526 3.09903 35.842C4.75857 35.842 6.4181 35.842 8.07764 35.842ZM24.2871 27.17C24.2871 26.5558 24.0431 25.9668 23.6089 25.5326C23.1746 25.0983 22.5856 24.8543 21.9715 24.8543C21.3607 24.8594 20.7766 25.1056 20.3465 25.5393C19.9164 25.9731 19.6751 26.5591 19.6751 27.17C19.6832 27.7787 19.9308 28.3598 20.3642 28.7874C20.7976 29.215 21.3819 29.4548 21.9908 29.4547C22.5936 29.4457 23.1691 29.202 23.595 28.7754C24.0209 28.3487 24.2637 27.7728 24.2717 27.17H24.2871ZM9.25861 22.5387C7.58363 22.5387 5.93954 22.5387 4.29543 22.5387C4.22211 22.5387 4.07931 22.6467 4.07931 22.7046C4.07931 23.4109 4.07931 24.1133 4.07931 24.8119H9.26633L9.25861 22.5387ZM14.3299 21.871L17.0005 16.5798L16.9157 16.545L12.8363 21.0914L14.3299 21.871ZM18.5096 15.5995C18.6239 15.599 18.7371 15.5759 18.8425 15.5316C18.9479 15.4872 19.0435 15.4225 19.1239 15.3411C19.2042 15.2597 19.2676 15.1632 19.3106 15.0572C19.3535 14.9512 19.3751 14.8378 19.3741 14.7234C19.3702 14.4997 19.2801 14.2862 19.1227 14.1273C18.9652 13.9684 18.7525 13.8764 18.5289 13.8705C18.2982 13.8674 18.0757 13.9558 17.9101 14.1164C17.7444 14.277 17.6491 14.4966 17.6451 14.7273C17.6409 14.9573 17.7278 15.1797 17.8869 15.3459C18.0459 15.5122 18.2642 15.6089 18.4942 15.6149L18.5096 15.5995ZM10.4434 29.7789V31.2107H11.5511V29.7943L10.4434 29.7789Z" fill="black"/>
<path d="M18.8686 5.17549C18.6524 5.03269 18.4826 4.92077 18.2935 4.78955C18.2299 4.74879 18.1749 4.69588 18.1317 4.63384C18.0885 4.57181 18.058 4.50188 18.0419 4.42804C18.0258 4.3542 18.0243 4.2779 18.0377 4.20351C18.0511 4.12913 18.079 4.05811 18.1199 3.99452C18.1605 3.93058 18.2135 3.87549 18.2759 3.83254C18.3383 3.78958 18.4087 3.75964 18.4829 3.74451C18.5571 3.72938 18.6336 3.72937 18.7079 3.74447C18.7821 3.75958 18.8525 3.78949 18.9149 3.83242C19.3742 4.11416 19.8296 4.40747 20.2695 4.72394C20.3477 4.7724 20.4122 4.84002 20.457 4.92039C20.5017 5.00076 20.5252 5.09122 20.5252 5.18321C20.5252 5.2752 20.5017 5.36566 20.457 5.44603C20.4122 5.5264 20.3477 5.59402 20.2695 5.64248C19.8257 5.96667 19.3587 6.2677 18.884 6.55329C18.8207 6.593 18.7501 6.61936 18.6762 6.63074C18.6024 6.64213 18.5271 6.63831 18.4548 6.61952C18.3825 6.60072 18.3148 6.56735 18.2559 6.52145C18.197 6.47555 18.148 6.4181 18.1121 6.35261C18.0333 6.23025 18.0038 6.08255 18.0296 5.93931C18.0554 5.79606 18.1345 5.66792 18.2511 5.58073C18.3437 5.50354 18.4518 5.44565 18.5482 5.38004L18.8686 5.17549Z" fill="black"/>
<path d="M19.4705 33.5265C18.9611 33.5265 18.6755 33.1405 18.826 32.7546C19.0136 32.3131 19.2289 31.8839 19.4705 31.4694C19.5038 31.4074 19.5494 31.3528 19.6044 31.309C19.6595 31.2652 19.723 31.2331 19.7909 31.2147C19.8588 31.1963 19.9298 31.1919 19.9995 31.2019C20.0691 31.2118 20.1361 31.2359 20.1961 31.2726C20.2623 31.3021 20.3219 31.3446 20.3713 31.3975C20.4207 31.4505 20.459 31.5128 20.4838 31.5809C20.5087 31.6489 20.5196 31.7213 20.5159 31.7936C20.5122 31.866 20.494 31.9369 20.4624 32.002C20.2819 32.4215 20.077 32.83 19.8487 33.2255C19.7445 33.3505 19.6158 33.4529 19.4705 33.5265Z" fill="black"/>
<path d="M18.637 30.5163C18.637 30.9987 17.5602 32.114 17.2013 32.06C17.105 32.0488 17.0121 32.0172 16.9289 31.9673C16.8457 31.9174 16.7741 31.8503 16.7189 31.7706C16.6771 31.6762 16.6579 31.5733 16.6626 31.4702C16.6672 31.3671 16.6958 31.2665 16.7459 31.1762C17.0366 30.8092 17.3681 30.4765 17.7339 30.1844C17.8245 30.1356 17.9246 30.1073 18.0273 30.1013C18.1299 30.0953 18.2326 30.1118 18.3283 30.1496C18.4826 30.2229 18.5753 30.4391 18.637 30.5163Z" fill="black"/>
<path d="M30.8828 3.47348C30.7749 3.48316 30.6664 3.48316 30.5586 3.47348C30.4187 3.45987 30.2892 3.39377 30.1961 3.28851C30.103 3.18325 30.0533 3.04663 30.0569 2.90615C30.0527 2.75939 30.1068 2.61694 30.2073 2.50992C30.3078 2.4029 30.4466 2.34 30.5933 2.33496C30.7964 2.32145 31.0001 2.32145 31.2031 2.33496C31.279 2.33445 31.3541 2.34895 31.4244 2.37762C31.4946 2.40629 31.5584 2.44857 31.6122 2.50202C31.666 2.55547 31.7087 2.61903 31.7379 2.68905C31.767 2.75907 31.782 2.83417 31.782 2.91001C31.779 3.06288 31.7156 3.20833 31.6057 3.31462C31.4958 3.42091 31.3483 3.47941 31.1954 3.47734C31.0873 3.47734 30.9793 3.47734 30.8712 3.47734L30.8828 3.47348Z" fill="black"/>
<path d="M33.7968 3.48118H33.5807C33.4992 3.48818 33.4172 3.47806 33.3398 3.45149C33.2625 3.42491 33.1916 3.38246 33.1316 3.32686C33.0716 3.27126 33.024 3.20373 32.9916 3.12862C32.9593 3.05351 32.943 2.97246 32.9439 2.89069C32.9458 2.81227 32.9635 2.73504 32.9962 2.66371C33.0288 2.59237 33.0756 2.52842 33.1337 2.47572C33.1918 2.42302 33.26 2.38269 33.3342 2.35716C33.4084 2.33163 33.487 2.32145 33.5652 2.32722C33.7196 2.32722 33.8778 2.32722 34.0322 2.32722C34.1135 2.31965 34.1954 2.32923 34.2728 2.35535C34.3501 2.38148 34.4211 2.42355 34.4811 2.47886C34.5412 2.53416 34.5889 2.60146 34.6213 2.6764C34.6536 2.75133 34.6699 2.83223 34.669 2.91385C34.6666 2.99226 34.6484 3.06939 34.6157 3.14066C34.5829 3.21194 34.5361 3.27592 34.4782 3.32881C34.4203 3.38171 34.3523 3.42245 34.2784 3.44862C34.2044 3.47479 34.126 3.48586 34.0477 3.48118H33.7968Z" fill="black"/>
<path d="M27.9923 32.0831C27.8844 32.0928 27.7759 32.0928 27.6681 32.0831C27.5282 32.0695 27.3987 32.0034 27.3056 31.8982C27.2125 31.7929 27.1628 31.6563 27.1663 31.5158C27.1638 31.441 27.1762 31.3665 27.2029 31.2966C27.2297 31.2267 27.2701 31.1629 27.3219 31.1089C27.3737 31.055 27.4359 31.0119 27.5046 30.9824C27.5733 30.9528 27.6473 30.9374 27.7221 30.9369C27.9264 30.9234 28.1314 30.9234 28.3358 30.9369C28.4828 30.9429 28.6218 31.0058 28.7234 31.1124C28.8249 31.219 28.881 31.3609 28.8799 31.5081C28.8804 31.5834 28.866 31.6581 28.8375 31.7278C28.8091 31.7976 28.7671 31.861 28.714 31.9145C28.6609 31.9679 28.5978 32.0103 28.5282 32.0393C28.4587 32.0682 28.3841 32.0831 28.3087 32.0831C28.1995 32.0889 28.0899 32.0889 27.9807 32.0831H27.9923Z" fill="black"/>
<path d="M30.9137 4.63513C31.508 4.63513 31.7782 4.81652 31.782 5.21018C31.7859 5.60384 31.5041 5.79295 30.9214 5.79295C30.3386 5.79295 30.0569 5.61156 30.053 5.2179C30.0492 4.82424 30.3271 4.63513 30.9137 4.63513Z" fill="black"/>
<path d="M33.8352 4.64287C33.9432 4.63516 34.0515 4.63516 34.1594 4.64287C34.2993 4.65635 34.4291 4.72161 34.5234 4.82586C34.6176 4.9301 34.6695 5.06581 34.6689 5.20634C34.6741 5.35287 34.6217 5.49561 34.5228 5.60387C34.4239 5.71213 34.2865 5.77726 34.1401 5.78525C33.9243 5.80262 33.7075 5.80262 33.4917 5.78525C33.3453 5.78027 33.2065 5.71883 33.1043 5.6138C33.0022 5.50877 32.9446 5.36829 32.9437 5.22178C32.9422 5.14613 32.9557 5.07092 32.9835 5.00053C33.0112 4.93014 33.0527 4.86598 33.1055 4.81175C33.1583 4.75753 33.2213 4.71434 33.2909 4.68469C33.3606 4.65503 33.4354 4.63951 33.511 4.63901C33.6191 4.63901 33.7272 4.63901 33.8391 4.63901L33.8352 4.64287Z" fill="black"/>
<path d="M33.7968 10.4165H33.5807C33.4992 10.4235 33.4172 10.4134 33.3398 10.3868C33.2625 10.3602 33.1916 10.3178 33.1316 10.2622C33.0716 10.2066 33.024 10.1391 32.9916 10.0639C32.9593 9.98883 32.943 9.90779 32.9439 9.82602C32.9458 9.74759 32.9635 9.67037 32.9962 9.59903C33.0288 9.5277 33.0756 9.46374 33.1337 9.41104C33.1918 9.35835 33.26 9.31801 33.3342 9.29248C33.4084 9.26696 33.487 9.25677 33.5652 9.26255C33.7196 9.26255 33.8778 9.26255 34.0361 9.26255C34.1172 9.25493 34.199 9.26451 34.2761 9.29067C34.3532 9.31682 34.424 9.35896 34.4837 9.41433C34.5435 9.4697 34.5908 9.53705 34.6228 9.61198C34.6547 9.68691 34.6705 9.76774 34.669 9.84917C34.6666 9.92758 34.6484 10.0047 34.6157 10.076C34.5829 10.1473 34.5361 10.2112 34.4782 10.2641C34.4203 10.317 34.3523 10.3578 34.2784 10.3839C34.2044 10.4101 34.126 10.4212 34.0477 10.4165H33.7968Z" fill="black"/>
<path d="M33.7775 28.8953C33.6811 28.9011 33.5844 28.9011 33.488 28.8953C33.3426 28.8884 33.2053 28.8262 33.1041 28.7215C33.003 28.6168 32.9457 28.4774 32.9438 28.3318C32.9396 28.1855 32.9923 28.0433 33.091 27.9353C33.1897 27.8273 33.3265 27.7618 33.4726 27.7529C33.6896 27.7355 33.9078 27.7355 34.1248 27.7529C34.2722 27.7579 34.4118 27.8206 34.5135 27.9274C34.6153 28.0342 34.6711 28.1766 34.669 28.3241C34.6714 28.4698 34.6179 28.6109 34.5196 28.7186C34.4213 28.8262 34.2856 28.8922 34.1402 28.903C34.0206 28.9146 33.8971 28.8953 33.7775 28.8953Z" fill="black"/>
<path d="M33.7889 33.5266C33.681 33.5324 33.5728 33.5324 33.4648 33.5266C33.3187 33.5138 33.1832 33.4454 33.0862 33.3355C32.9892 33.2256 32.9383 33.0826 32.9438 32.9361C32.9395 32.7923 32.9916 32.6525 33.0889 32.5465C33.1862 32.4406 33.3211 32.3768 33.4648 32.3688C33.6562 32.3553 33.8484 32.3553 34.0398 32.3688C34.1218 32.3622 34.2043 32.373 34.2818 32.4006C34.3593 32.4281 34.43 32.4718 34.4895 32.5287C34.5489 32.5855 34.5956 32.6543 34.6265 32.7305C34.6575 32.8068 34.6719 32.8887 34.6689 32.9709C34.665 33.049 34.6455 33.1255 34.6116 33.196C34.5777 33.2665 34.53 33.3294 34.4714 33.3812C34.4128 33.433 34.3444 33.4725 34.2703 33.4975C34.1962 33.5225 34.1178 33.5324 34.0398 33.5266H33.7889Z" fill="black"/>
<path d="M25.1363 34.3987H24.9935C24.5381 34.3987 24.2756 34.1787 24.2756 33.8198C24.2756 33.4609 24.5419 33.2486 24.9973 33.2448C25.1286 33.2448 25.2636 33.2448 25.3833 33.2448C25.4617 33.2411 25.5401 33.2534 25.6137 33.2808C25.6873 33.3082 25.7546 33.3502 25.8115 33.4043C25.8685 33.4583 25.9139 33.5234 25.9451 33.5954C25.9763 33.6675 25.9926 33.7451 25.9931 33.8237C25.99 33.9772 25.9269 34.1235 25.8172 34.231C25.7075 34.3385 25.56 34.3988 25.4064 34.3987H25.1363Z" fill="black"/>
<path d="M33.8354 6.95464C33.9433 6.94692 34.0517 6.94692 34.1596 6.95464C34.3002 6.96637 34.431 7.03112 34.5256 7.13575C34.6202 7.24038 34.6715 7.37707 34.669 7.51811C34.6753 7.6649 34.6232 7.80821 34.5241 7.91669C34.4251 8.02518 34.2871 8.09001 34.1403 8.09702C33.9232 8.11438 33.7051 8.11438 33.4881 8.09702C33.342 8.09201 33.2036 8.03045 33.1021 7.92531C33.0005 7.82018 32.9438 7.67971 32.9439 7.53355C32.9429 7.45803 32.9567 7.38305 32.9847 7.31289C33.0127 7.24273 33.0542 7.17877 33.1068 7.12465C33.1595 7.07053 33.2223 7.02733 33.2917 6.99749C33.3611 6.96766 33.4357 6.95179 33.5112 6.95078C33.6193 6.95078 33.7274 6.95078 33.8354 6.95078V6.95464Z" fill="black"/>
<path d="M28.0269 34.3987H27.8803C27.4287 34.3987 27.1624 34.1787 27.1663 33.8198C27.1702 33.4609 27.4287 33.2486 27.888 33.2448C28.0192 33.2448 28.1504 33.2448 28.2739 33.2448C28.3522 33.2411 28.4304 33.2534 28.5038 33.2808C28.5772 33.3083 28.6442 33.3503 28.7009 33.4045C28.7575 33.4586 28.8026 33.5237 28.8334 33.5957C28.8641 33.6678 28.88 33.7453 28.8799 33.8237C28.8789 33.9022 28.8621 33.9798 28.8305 34.0517C28.7988 34.1236 28.753 34.1883 28.6956 34.242C28.6383 34.2957 28.5707 34.3373 28.4969 34.3642C28.4232 34.3912 28.3447 34.4029 28.2662 34.3987H28.0269Z" fill="black"/>
<path d="M25.1479 10.1271H25.3292C25.7499 10.1271 26.0085 10.3625 26.0046 10.7137C26.0008 11.0649 25.7383 11.2733 25.3138 11.281C25.1672 11.281 25.0244 11.281 24.8777 11.281C24.7996 11.2836 24.7217 11.2705 24.6488 11.2423C24.5758 11.2142 24.5093 11.1717 24.4531 11.1173C24.3969 11.063 24.3522 10.9978 24.3218 10.9258C24.2913 10.8538 24.2756 10.7765 24.2756 10.6983C24.2771 10.6197 24.2943 10.5422 24.3265 10.4705C24.3586 10.3988 24.4049 10.3344 24.4626 10.281C24.5203 10.2276 24.5881 10.1865 24.6621 10.1601C24.7361 10.1336 24.8147 10.1224 24.8931 10.1271C24.978 10.1232 25.063 10.1271 25.1479 10.1271Z" fill="black"/>
<path d="M28.0036 11.2733C27.8843 11.285 27.7641 11.285 27.6447 11.2733C27.5104 11.257 27.3871 11.1908 27.2992 11.0879C27.2113 10.985 27.1652 10.8528 27.17 10.7176C27.1642 10.6478 27.1724 10.5776 27.1939 10.5109C27.2155 10.4443 27.2501 10.3827 27.2957 10.3295C27.3413 10.2764 27.397 10.2328 27.4595 10.2014C27.5221 10.17 27.5903 10.1513 27.6602 10.1464C27.8872 10.1211 28.1163 10.1211 28.3433 10.1464C28.4854 10.1532 28.6196 10.2134 28.7191 10.3151C28.8186 10.4167 28.876 10.5522 28.8797 10.6944C28.8818 10.8467 28.8238 10.9936 28.7184 11.1034C28.6129 11.2132 28.4684 11.277 28.3163 11.2811C28.2082 11.2811 28.1001 11.2811 27.9921 11.2811L28.0036 11.2733Z" fill="black"/>
<path d="M33.7929 12.7283H33.5768C33.4956 12.7347 33.414 12.7242 33.3371 12.6973C33.2603 12.6705 33.1898 12.628 33.1303 12.5724C33.0708 12.5169 33.0234 12.4496 32.9913 12.3747C32.9592 12.2999 32.9431 12.2192 32.9439 12.1378C32.9458 12.0594 32.9635 11.9821 32.9962 11.9108C33.0288 11.8395 33.0756 11.7755 33.1337 11.7228C33.1918 11.6701 33.26 11.6298 33.3342 11.6043C33.4084 11.5787 33.487 11.5685 33.5652 11.5743C33.7235 11.5743 33.8778 11.5743 34.0361 11.5743C34.1172 11.5667 34.199 11.5763 34.2761 11.6024C34.3532 11.6286 34.424 11.6707 34.4837 11.7261C34.5435 11.7815 34.5908 11.8488 34.6228 11.9237C34.6547 11.9987 34.6705 12.0795 34.669 12.1609C34.6666 12.2392 34.6484 12.3162 34.6156 12.3872C34.5828 12.4583 34.536 12.522 34.478 12.5746C34.42 12.6272 34.352 12.6676 34.2781 12.6933C34.2041 12.7191 34.1258 12.7296 34.0477 12.7244L33.7929 12.7283Z" fill="black"/>
<path d="M25.1518 12.4388H25.3717C25.4529 12.4324 25.5345 12.4429 25.6114 12.4698C25.6882 12.4966 25.7587 12.5392 25.8182 12.5947C25.8778 12.6502 25.9251 12.7176 25.9572 12.7924C25.9893 12.8672 26.0055 12.9479 26.0047 13.0293C26.0017 13.1078 25.9831 13.1848 25.9499 13.2559C25.9166 13.327 25.8695 13.3907 25.8112 13.4432C25.7529 13.4958 25.6846 13.5361 25.6105 13.5618C25.5363 13.5875 25.4578 13.598 25.3794 13.5928C25.2212 13.5928 25.0668 13.5928 24.9086 13.5928C24.8274 13.5992 24.7458 13.5887 24.669 13.5619C24.5921 13.535 24.5216 13.4925 24.4621 13.437C24.4025 13.3814 24.3552 13.3141 24.3231 13.2393C24.291 13.1644 24.2749 13.0837 24.2757 13.0023C24.2781 12.9237 24.2963 12.8464 24.3294 12.7751C24.3625 12.7037 24.4096 12.6398 24.468 12.5871C24.5264 12.5345 24.5949 12.4942 24.6693 12.4687C24.7437 12.4432 24.8225 12.4331 24.9009 12.4388H25.1518Z" fill="black"/>
<path d="M28.0076 13.589C27.8998 13.5987 27.7913 13.5987 27.6835 13.589C27.5429 13.5792 27.4112 13.5163 27.3152 13.4132C27.2192 13.31 27.166 13.1742 27.1663 13.0332C27.16 12.8867 27.2114 12.7435 27.3096 12.6345C27.4077 12.5255 27.5448 12.4594 27.6912 12.4505C27.8827 12.4389 28.0747 12.4389 28.2662 12.4505C28.4206 12.4431 28.5716 12.4969 28.6865 12.6002C28.8014 12.7036 28.8709 12.8481 28.8799 13.0023C28.8807 13.0838 28.8645 13.1645 28.8324 13.2393C28.8003 13.3141 28.753 13.3814 28.6934 13.437C28.6339 13.4925 28.5635 13.5351 28.4866 13.5619C28.4097 13.5887 28.3281 13.5993 28.2469 13.5928H27.9961L28.0076 13.589Z" fill="black"/>
<path d="M25.113 15.9007C25.0167 15.9084 24.9199 15.9084 24.8236 15.9007C24.6778 15.8938 24.54 15.8318 24.4383 15.7272C24.3365 15.6225 24.2783 15.4831 24.2755 15.3372C24.2723 15.1906 24.3259 15.0484 24.4252 14.9404C24.5245 14.8325 24.6617 14.7672 24.8081 14.7583C25.0239 14.7409 25.2407 14.7409 25.4565 14.7583C25.6026 14.7642 25.7409 14.8259 25.8428 14.9308C25.9448 15.0356 26.0027 15.1755 26.0045 15.3217C26.006 15.4683 25.9518 15.6099 25.853 15.718C25.7542 15.8262 25.618 15.8928 25.4719 15.9045C25.3523 15.9122 25.2327 15.9007 25.113 15.9007Z" fill="black"/>
<path d="M28.0385 15.9046C27.4442 15.9046 27.1702 15.727 27.1663 15.3372C27.1624 14.9474 27.4365 14.7506 28.0192 14.7506C28.602 14.7506 28.8876 14.9281 28.8915 15.3179C28.8953 15.7077 28.6174 15.9046 28.0385 15.9046Z" fill="black"/>
<path d="M33.7734 17.3479C33.677 17.3537 33.5804 17.3537 33.484 17.3479C33.3382 17.341 33.2008 17.2782 33.1001 17.1725C32.9995 17.0668 32.9435 16.9265 32.9437 16.7806C32.9415 16.634 32.9961 16.4922 33.0961 16.385C33.1961 16.2778 33.3337 16.2135 33.4801 16.2055C33.6831 16.1901 33.8869 16.1901 34.0899 16.2055C34.1657 16.204 34.241 16.2177 34.3115 16.2457C34.3819 16.2738 34.446 16.3157 34.5 16.3689C34.5539 16.4222 34.5967 16.4857 34.6257 16.5557C34.6547 16.6258 34.6693 16.7009 34.6688 16.7767C34.6693 16.8523 34.655 16.9271 34.6265 16.9971C34.5981 17.0671 34.5562 17.1307 34.5031 17.1845C34.4501 17.2382 34.387 17.281 34.3174 17.3104C34.2478 17.3398 34.1731 17.3551 34.0976 17.3556C33.9896 17.3556 33.8815 17.3556 33.7734 17.3556V17.3479Z" fill="black"/>
<path d="M25.1052 18.2124C25.0101 18.2182 24.9147 18.2182 24.8196 18.2124C24.6735 18.2037 24.5362 18.1399 24.4352 18.0339C24.3342 17.9279 24.2771 17.7876 24.2755 17.6412C24.2733 17.495 24.328 17.3537 24.4281 17.2471C24.5282 17.1405 24.6659 17.077 24.8119 17.07C25.0162 17.0546 25.2213 17.0546 25.4255 17.07C25.5011 17.0695 25.5759 17.0839 25.6459 17.1123C25.7159 17.1408 25.7795 17.1827 25.8333 17.2357C25.8871 17.2888 25.9298 17.3519 25.9592 17.4215C25.9886 17.491 26.0039 17.5657 26.0045 17.6412C26.0035 17.7931 25.9432 17.9387 25.8365 18.0468C25.7299 18.1549 25.5851 18.2171 25.4333 18.2201C25.3252 18.2201 25.2133 18.2201 25.1052 18.2201V18.2124Z" fill="black"/>
<path d="M28.0425 17.0624C28.1158 17.0624 28.1853 17.0624 28.2586 17.0624C28.3388 17.0576 28.4192 17.0694 28.4947 17.097C28.5702 17.1246 28.6392 17.1674 28.6975 17.2227C28.7557 17.2781 28.802 17.3449 28.8334 17.4189C28.8648 17.4928 28.8806 17.5725 28.88 17.6529C28.877 17.7313 28.8584 17.8083 28.8252 17.8794C28.7919 17.9505 28.7448 18.0142 28.6865 18.0668C28.6282 18.1193 28.5599 18.1596 28.4857 18.1853C28.4116 18.211 28.333 18.2216 28.2547 18.2163C28.1004 18.2163 27.9421 18.2163 27.7877 18.2163C27.7066 18.2228 27.625 18.2122 27.5481 18.1854C27.4712 18.1586 27.4008 18.116 27.3412 18.0605C27.2817 18.0049 27.2344 17.9376 27.2023 17.8628C27.1702 17.788 27.154 17.7073 27.1548 17.6259C27.1572 17.5473 27.1755 17.47 27.2085 17.3986C27.2416 17.3273 27.2887 17.2633 27.3471 17.2107C27.4056 17.158 27.474 17.1178 27.5484 17.0923C27.6228 17.0668 27.7016 17.0566 27.78 17.0624C27.8727 17.0585 27.9576 17.0624 28.0425 17.0624Z" fill="black"/>
<path d="M33.8198 13.8822H34.0359C34.117 13.8758 34.1987 13.8863 34.2755 13.9131C34.3524 13.94 34.4229 13.9825 34.4824 14.0381C34.5419 14.0936 34.5893 14.1609 34.6214 14.2358C34.6535 14.3106 34.6696 14.3913 34.6688 14.4727C34.6669 14.5511 34.6491 14.6283 34.6165 14.6997C34.5839 14.771 34.5371 14.835 34.479 14.8877C34.4209 14.9404 34.3526 14.9807 34.2785 15.0062C34.2043 15.0318 34.1257 15.0419 34.0475 15.0362C33.8892 15.0362 33.731 15.0362 33.5766 15.0362C33.4953 15.0432 33.4135 15.0331 33.3363 15.0065C33.2592 14.9799 33.1885 14.9374 33.1288 14.8817C33.0691 14.826 33.0218 14.7585 32.99 14.6833C32.9581 14.6082 32.9423 14.5273 32.9437 14.4457C32.9466 14.3678 32.9651 14.2912 32.9982 14.2206C33.0312 14.15 33.0781 14.0867 33.136 14.0345C33.194 13.9823 33.2618 13.9423 33.3355 13.9168C33.4092 13.8913 33.4872 13.8808 33.565 13.8861L33.8198 13.8822Z" fill="black"/>
<path d="M33.7735 19.6558C33.6657 19.6655 33.5572 19.6655 33.4494 19.6558C33.3088 19.6431 33.1783 19.5774 33.0844 19.4721C32.9905 19.3667 32.9403 19.2296 32.9438 19.0885C32.9406 18.942 32.995 18.8001 33.0953 18.6933C33.1956 18.5865 33.3338 18.5233 33.4802 18.5173C33.6845 18.5019 33.8896 18.5019 34.0939 18.5173C34.2447 18.5163 34.3898 18.5749 34.4975 18.6805C34.6053 18.7861 34.6669 18.93 34.6689 19.0808C34.6694 19.1563 34.6551 19.2312 34.6266 19.3011C34.5982 19.3711 34.5563 19.4348 34.5032 19.4885C34.4502 19.5423 34.3871 19.5851 34.3175 19.6144C34.2479 19.6438 34.1732 19.6592 34.0977 19.6597C33.9897 19.6597 33.8816 19.6597 33.7735 19.6597V19.6558Z" fill="black"/>
<path d="M25.1593 19.3741H25.3754C25.4537 19.3684 25.5324 19.3784 25.6067 19.4036C25.6811 19.4288 25.7496 19.4687 25.8083 19.5209C25.867 19.5731 25.9146 19.6365 25.9483 19.7074C25.982 19.7783 26.0011 19.8553 26.0045 19.9337C26.0057 20.0151 25.9901 20.0959 25.9585 20.1709C25.9268 20.2459 25.8799 20.3135 25.8208 20.3694C25.7616 20.4253 25.6915 20.4683 25.6148 20.4956C25.5381 20.5229 25.4566 20.534 25.3754 20.5281H24.9045C24.8234 20.534 24.7418 20.5229 24.6651 20.4956C24.5885 20.4683 24.5183 20.4253 24.4592 20.3694C24.4 20.3135 24.3531 20.2459 24.3215 20.1709C24.2898 20.0959 24.2742 20.0151 24.2755 19.9337C24.2789 19.8553 24.298 19.7783 24.3317 19.7074C24.3654 19.6365 24.413 19.5731 24.4716 19.5209C24.5303 19.4687 24.5988 19.4288 24.6732 19.4036C24.7476 19.3784 24.8262 19.3684 24.9045 19.3741H25.1593Z" fill="black"/>
<path d="M28.0463 20.5281C27.4442 20.5281 27.1779 20.3621 27.1664 19.9685C27.1548 19.5748 27.4365 19.3741 28.0463 19.3741H28.2624C28.3398 19.37 28.4172 19.3812 28.4902 19.4071C28.5633 19.4331 28.6304 19.4732 28.6878 19.5252C28.7452 19.5773 28.7918 19.6402 28.8247 19.7103C28.8577 19.7804 28.8765 19.8563 28.8799 19.9337C28.8812 20.0151 28.8655 20.0959 28.8339 20.1709C28.8023 20.2459 28.7554 20.3135 28.6962 20.3694C28.6371 20.4253 28.5669 20.4683 28.4902 20.4956C28.4136 20.5229 28.332 20.534 28.2508 20.5281H28.0463Z" fill="black"/>
<path d="M33.8275 20.8214C33.9354 20.8137 34.0437 20.8137 34.1516 20.8214C34.2926 20.8322 34.4243 20.8958 34.5202 20.9996C34.6161 21.1034 34.6692 21.2397 34.6688 21.3811C34.6752 21.528 34.6239 21.6716 34.5258 21.7812C34.4277 21.8908 34.2907 21.9577 34.1439 21.9677C33.9525 21.9812 33.7603 21.9812 33.5689 21.9677C33.4907 21.974 33.412 21.9643 33.3376 21.9393C33.2632 21.9143 33.1947 21.8744 33.1362 21.822C33.0777 21.7697 33.0305 21.706 32.9974 21.6348C32.9643 21.5637 32.946 21.4865 32.9437 21.4081C32.9423 21.3263 32.9581 21.2452 32.99 21.1699C33.0218 21.0946 33.0691 21.0268 33.1287 20.9709C33.1883 20.9149 33.2589 20.872 33.336 20.845C33.4132 20.8179 33.4951 20.8073 33.5766 20.8137H33.8275V20.8214Z" fill="black"/>
<path d="M25.1518 21.6859H25.3679C25.4492 21.6795 25.531 21.69 25.6081 21.7168C25.6852 21.7436 25.7558 21.7861 25.8157 21.8416C25.8755 21.8971 25.9232 21.9643 25.9557 22.0392C25.9883 22.114 26.0049 22.1948 26.0047 22.2764C26.0017 22.3548 25.9831 22.4319 25.9499 22.503C25.9166 22.5741 25.8695 22.6378 25.8112 22.6903C25.7529 22.7428 25.6846 22.7831 25.6105 22.8088C25.5363 22.8345 25.4578 22.8451 25.3794 22.8399H24.9086C24.8274 22.8463 24.7458 22.8358 24.669 22.8089C24.5921 22.7821 24.5216 22.7396 24.4621 22.684C24.4025 22.6285 24.3552 22.5611 24.3231 22.4863C24.291 22.4115 24.2749 22.3308 24.2757 22.2494C24.2781 22.1708 24.2963 22.0935 24.3294 22.0221C24.3625 21.9508 24.4096 21.8868 24.468 21.8342C24.5264 21.7816 24.5949 21.7413 24.6693 21.7158C24.7437 21.6903 24.8225 21.6801 24.9009 21.6859H25.1518Z" fill="black"/>
<path d="M28.0306 21.686H28.1773C28.6289 21.686 28.8952 21.906 28.8913 22.2649C28.8874 22.6238 28.625 22.8361 28.1696 22.8399C28.0384 22.8399 27.9033 22.8399 27.7836 22.8399C27.7054 22.8436 27.6272 22.8313 27.5538 22.8039C27.4804 22.7764 27.4134 22.7344 27.3567 22.6802C27.3001 22.6261 27.255 22.561 27.2242 22.489C27.1935 22.4169 27.1776 22.3394 27.1777 22.261C27.1781 22.1823 27.1945 22.1045 27.226 22.0324C27.2575 21.9602 27.3033 21.8952 27.3608 21.8414C27.4182 21.7876 27.486 21.7461 27.56 21.7193C27.6341 21.6926 27.7128 21.6813 27.7914 21.686H28.0306Z" fill="black"/>
<path d="M33.8083 23.1294H33.9164C34.4027 23.1294 34.6883 23.3378 34.6883 23.7083C34.6883 24.0788 34.422 24.2834 33.9164 24.2872C33.7929 24.2872 33.6733 24.2872 33.5536 24.2872C33.4754 24.2914 33.3971 24.2796 33.3235 24.2527C33.2499 24.2257 33.1826 24.1841 33.1256 24.1303C33.0685 24.0765 33.023 24.0118 32.9918 23.9399C32.9606 23.868 32.9443 23.7905 32.9438 23.7122C32.9437 23.6336 32.9596 23.5559 32.9907 23.4838C33.0217 23.4116 33.0672 23.3466 33.1244 23.2928C33.1815 23.2389 33.2491 23.1973 33.3229 23.1705C33.3967 23.1437 33.4752 23.1324 33.5536 23.1371C33.6385 23.1255 33.7234 23.1294 33.8083 23.1294Z" fill="black"/>
<path d="M28.0307 23.9977H28.1773C28.6289 23.9977 28.8952 24.2177 28.8913 24.5766C28.8875 24.9355 28.625 25.1478 28.1696 25.1516C28.0384 25.1516 27.9033 25.1516 27.7837 25.1516C27.7051 25.1553 27.6265 25.1429 27.5529 25.1152C27.4793 25.0876 27.412 25.0452 27.3553 24.9906C27.2986 24.9361 27.2536 24.8705 27.2231 24.798C27.1926 24.7255 27.1771 24.6476 27.1778 24.5689C27.1787 24.4905 27.1955 24.4131 27.2272 24.3414C27.2589 24.2697 27.3048 24.2052 27.3622 24.1518C27.4196 24.0984 27.4872 24.0572 27.561 24.0307C27.6347 24.0042 27.7131 23.993 27.7914 23.9977C27.8647 23.9938 27.9496 23.9977 28.0307 23.9977Z" fill="black"/>
<path d="M33.8121 25.4412H33.9549C34.4065 25.4412 34.6728 25.6611 34.6689 26.0239C34.665 26.3867 34.4026 26.5913 33.9472 26.599C33.816 26.599 33.6809 26.599 33.5613 26.599C33.483 26.6026 33.4048 26.5904 33.3314 26.5629C33.258 26.5355 33.191 26.4934 33.1343 26.4393C33.0777 26.3852 33.0326 26.3201 33.0018 26.248C32.9711 26.176 32.9552 26.0984 32.9553 26.0201C32.9563 25.9415 32.9731 25.864 33.0047 25.7921C33.0364 25.7202 33.0822 25.6554 33.1396 25.6017C33.1969 25.548 33.2645 25.5064 33.3382 25.4795C33.412 25.4526 33.4905 25.4409 33.569 25.445L33.8121 25.4412Z" fill="black"/>
<path d="M28.0192 27.4634H27.7992C27.7183 27.4704 27.6367 27.4604 27.5599 27.434C27.483 27.4076 27.4125 27.3654 27.3529 27.3102C27.2933 27.255 27.2459 27.1879 27.2138 27.1132C27.1816 27.0386 27.1655 26.958 27.1663 26.8768C27.1677 26.798 27.1851 26.7204 27.2175 26.6486C27.2499 26.5768 27.2966 26.5124 27.3548 26.4593C27.413 26.4061 27.4813 26.3655 27.5558 26.3397C27.6302 26.3139 27.7091 26.3036 27.7876 26.3094H28.2546C28.335 26.3036 28.4157 26.3144 28.4916 26.3413C28.5676 26.3682 28.6371 26.4105 28.6959 26.4657C28.7546 26.5208 28.8013 26.5875 28.833 26.6616C28.8647 26.7356 28.8806 26.8155 28.8799 26.8961C28.878 26.9746 28.8602 27.052 28.8276 27.1235C28.795 27.1951 28.7483 27.2593 28.6902 27.3123C28.6322 27.3653 28.564 27.406 28.4898 27.432C28.4156 27.4579 28.3369 27.4686 28.2585 27.4634H28.0192Z" fill="black"/>
<path d="M28.0231 29.7752H27.8803C27.4287 29.7752 27.1624 29.5552 27.1663 29.1924C27.1702 28.8296 27.4326 28.6251 27.888 28.6212C28.0192 28.6212 28.1543 28.6212 28.2739 28.6212C28.3522 28.6176 28.4304 28.6298 28.5038 28.6573C28.5772 28.6848 28.6442 28.7268 28.7009 28.7809C28.7575 28.8351 28.8026 28.9001 28.8334 28.9722C28.8641 29.0442 28.88 29.1218 28.8799 29.2001C28.8789 29.2787 28.8621 29.3562 28.8305 29.4281C28.7988 29.5 28.753 29.5648 28.6956 29.6185C28.6383 29.6722 28.5707 29.7138 28.4969 29.7407C28.4232 29.7676 28.3447 29.7794 28.2662 29.7752C28.1929 29.7791 28.108 29.7752 28.0231 29.7752Z" fill="black"/>
<path d="M33.8161 31.2109C33.2217 31.2109 32.9477 31.0334 32.9439 30.6397C32.94 30.2461 33.214 30.0531 33.7968 30.0531C34.3796 30.0531 34.6652 30.2306 34.669 30.6204C34.6729 31.0102 34.395 31.2109 33.8161 31.2109Z" fill="black"/>
<path d="M25.1247 32.0869C25.0514 32.0869 24.9819 32.0869 24.9086 32.0869C24.8274 32.0934 24.7458 32.0828 24.669 32.056C24.5921 32.0292 24.5216 31.9866 24.4621 31.9311C24.4025 31.8756 24.3552 31.8082 24.3231 31.7334C24.291 31.6586 24.2749 31.5779 24.2757 31.4965C24.2781 31.4179 24.2963 31.3406 24.3294 31.2692C24.3625 31.1979 24.4096 31.1339 24.468 31.0813C24.5264 31.0286 24.5949 30.9884 24.6693 30.9629C24.7437 30.9374 24.8225 30.9272 24.9009 30.933C25.0591 30.933 25.2135 30.933 25.3717 30.933C25.4529 30.9266 25.5345 30.9371 25.6114 30.9639C25.6882 30.9908 25.7587 31.0333 25.8182 31.0888C25.8778 31.1444 25.9251 31.2117 25.9572 31.2865C25.9893 31.3614 26.0055 31.4421 26.0047 31.5235C26.0012 31.6017 25.9822 31.6785 25.9488 31.7494C25.9154 31.8202 25.8683 31.8837 25.8101 31.9362C25.7519 31.9886 25.6838 32.0289 25.6099 32.0548C25.536 32.0807 25.4576 32.0916 25.3794 32.0869C25.2945 32.0908 25.2096 32.0869 25.1247 32.0869Z" fill="black"/>
<path d="M7.5066 9.69866C7.47048 9.90463 7.37368 10.0951 7.22859 10.2457C7.08351 10.3963 6.89675 10.5001 6.69227 10.5439C6.61713 10.5439 6.54274 10.5288 6.47356 10.4995C6.40437 10.4702 6.34181 10.4272 6.28959 10.3732C6.23736 10.3192 6.19655 10.2552 6.16959 10.185C6.14263 10.1149 6.13007 10.0401 6.13266 9.96496C6.16234 9.75824 6.25554 9.56586 6.39936 9.41444C6.54317 9.26302 6.7305 9.16004 6.93542 9.11975C7.0873 9.12277 7.23198 9.18497 7.33867 9.2931C7.44536 9.40123 7.50562 9.54675 7.5066 9.69866Z" fill="black"/>
<path d="M6.16348 11.5473C6.15817 11.7564 6.08312 11.9577 5.95025 12.1192C5.81738 12.2808 5.63432 12.3933 5.43018 12.4388C5.27898 12.4409 5.13304 12.3833 5.02396 12.2786C4.91489 12.1739 4.85146 12.0304 4.84741 11.8792C4.85637 11.671 4.93331 11.4715 5.06643 11.3112C5.19956 11.1509 5.38157 11.0386 5.58457 10.9915C5.65934 10.989 5.73387 11.0014 5.80376 11.0281C5.87364 11.0548 5.93745 11.0953 5.99143 11.1471C6.0454 11.1989 6.08844 11.2611 6.11799 11.3298C6.14754 11.3985 6.16301 11.4725 6.16348 11.5473Z" fill="black"/>
<path d="M8.21657 8.96149C8.06437 8.95548 7.92046 8.8905 7.8153 8.7803C7.71014 8.6701 7.65197 8.52332 7.65309 8.371C7.69453 8.16693 7.80062 7.98164 7.95564 7.8426C8.11067 7.70357 8.30637 7.61819 8.51373 7.59912C8.58879 7.60151 8.6626 7.61908 8.73068 7.65078C8.79876 7.68248 8.85971 7.72764 8.90984 7.78355C8.95998 7.83946 8.99827 7.90495 9.02239 7.97607C9.04652 8.04718 9.05596 8.12245 9.05019 8.19733C9.00225 8.39279 8.89748 8.56968 8.74912 8.70568C8.60076 8.84168 8.41546 8.93069 8.21657 8.96149Z" fill="black"/>
<path d="M14.3377 6.01293C14.2571 6.02201 14.1754 6.01437 14.0979 5.99049C14.0203 5.9666 13.9485 5.92699 13.887 5.87411C13.8254 5.82124 13.7754 5.75624 13.7401 5.68318C13.7047 5.61011 13.6848 5.53055 13.6816 5.44946C13.6816 5.06352 13.9942 4.83196 14.496 4.8281C14.5794 4.81654 14.6643 4.82296 14.745 4.84692C14.8258 4.87088 14.9004 4.91183 14.964 4.96703C15.0276 5.02222 15.0787 5.09038 15.1138 5.16693C15.1489 5.24348 15.1672 5.32666 15.1675 5.41087C15.1636 5.78137 14.8472 6.01293 14.3377 6.01293Z" fill="black"/>
<path d="M4.56558 15.8543C4.56558 16.3792 4.29543 16.688 3.89791 16.6648C3.82281 16.6604 3.74935 16.6411 3.68185 16.6079C3.61436 16.5747 3.5542 16.5283 3.50493 16.4714C3.45565 16.4146 3.41826 16.3485 3.39494 16.277C3.37163 16.2055 3.36286 16.13 3.36917 16.055C3.36917 15.5224 3.63547 15.2021 4.01755 15.2214C4.09608 15.2241 4.17321 15.243 4.24411 15.2769C4.31501 15.3108 4.37815 15.359 4.42959 15.4184C4.48103 15.4778 4.51966 15.5472 4.54306 15.6222C4.56646 15.6972 4.57412 15.7762 4.56558 15.8543Z" fill="black"/>
<path d="M10.1232 7.59917C10.0483 7.60279 9.97332 7.59141 9.90282 7.56568C9.83233 7.53996 9.76769 7.50041 9.71268 7.44936C9.65768 7.39831 9.61342 7.33679 9.58251 7.26841C9.55161 7.20002 9.53468 7.12615 9.53271 7.05114C9.55367 6.84742 9.64921 6.65865 9.80097 6.52114C9.95273 6.38364 10.15 6.3071 10.3548 6.30627C10.4308 6.30778 10.5058 6.32425 10.5754 6.35474C10.6451 6.38523 10.7081 6.42915 10.7608 6.48399C10.8134 6.53882 10.8548 6.6035 10.8825 6.67432C10.9102 6.74515 10.9236 6.82073 10.9221 6.89676C10.8923 7.08889 10.796 7.26445 10.65 7.39283C10.504 7.5212 10.3176 7.59423 10.1232 7.59917Z" fill="black"/>
<path d="M12.3925 5.35299C12.5437 5.35267 12.6893 5.40996 12.7997 5.51321C12.9101 5.61645 12.977 5.75789 12.9869 5.90874C12.9663 6.10879 12.8685 6.29292 12.7142 6.42195C12.56 6.55097 12.3615 6.6147 12.1609 6.59957C12.083 6.60606 12.0046 6.59613 11.9307 6.57043C11.8568 6.54474 11.7892 6.50384 11.7321 6.45039C11.675 6.39693 11.6297 6.3321 11.5992 6.26008C11.5687 6.18806 11.5537 6.11044 11.555 6.03224C11.5783 5.83211 11.679 5.64904 11.8355 5.52212C11.992 5.39521 12.1919 5.33451 12.3925 5.35299Z" fill="black"/>
<path d="M4.51159 14.4843C4.3597 14.4895 4.21194 14.4344 4.10056 14.3309C3.98919 14.2275 3.92328 14.0842 3.91725 13.9324C3.9002 13.7377 3.95764 13.5437 4.07797 13.3897C4.19831 13.2357 4.37258 13.1331 4.56563 13.1026C4.71683 13.1005 4.86278 13.1581 4.97185 13.2628C5.08092 13.3675 5.14436 13.511 5.1484 13.6622C5.17246 13.8556 5.11898 14.0506 4.99965 14.2046C4.88031 14.3587 4.70484 14.4592 4.51159 14.4843Z" fill="black"/>
<path d="M4.33801 18.1315C4.3482 18.211 4.34199 18.2917 4.31976 18.3687C4.29753 18.4457 4.25976 18.5174 4.20876 18.5792C4.15777 18.6411 4.09465 18.6918 4.02328 18.7283C3.95192 18.7648 3.87384 18.7863 3.79385 18.7914C3.71243 18.7922 3.63173 18.7761 3.5569 18.744C3.48207 18.7119 3.41476 18.6645 3.35922 18.605C3.30368 18.5455 3.26114 18.475 3.2343 18.3981C3.20747 18.3213 3.19692 18.2397 3.20335 18.1585C3.19368 18.0772 3.20103 17.9949 3.22488 17.9166C3.24874 17.8383 3.28859 17.7658 3.34193 17.7038C3.39528 17.6417 3.46095 17.5914 3.53476 17.5561C3.60857 17.5208 3.68891 17.5012 3.77069 17.4985C3.85033 17.5003 3.92874 17.5185 4.00109 17.5518C4.07345 17.5851 4.13821 17.6329 4.19138 17.6922C4.24455 17.7515 4.285 17.8211 4.31022 17.8966C4.33544 17.9722 4.34489 18.0521 4.33801 18.1315Z" fill="black"/>
<path d="M16.6263 4.63516C16.7073 4.62482 16.7895 4.63171 16.8677 4.6554C16.9458 4.67909 17.018 4.71903 17.0796 4.77261C17.1412 4.82619 17.1908 4.89219 17.2251 4.96627C17.2593 5.04036 17.2776 5.12086 17.2785 5.20249C17.2811 5.28407 17.2663 5.36525 17.235 5.44065C17.2038 5.51604 17.1568 5.58392 17.0973 5.63978C17.0378 5.69564 16.9671 5.73818 16.8899 5.7646C16.8127 5.79101 16.7307 5.80069 16.6495 5.79298C16.5685 5.80091 16.4868 5.79237 16.4093 5.76785C16.3317 5.74334 16.2599 5.70336 16.1983 5.65034C16.1366 5.59732 16.0863 5.53236 16.0504 5.45936C16.0145 5.38637 15.9938 5.30687 15.9895 5.22565C15.9904 5.14439 16.0078 5.06416 16.0407 4.98985C16.0736 4.91555 16.1214 4.84873 16.1809 4.79347C16.2405 4.73822 16.3108 4.69568 16.3873 4.66846C16.4639 4.64124 16.5452 4.62991 16.6263 4.63516Z" fill="black"/>
<path d="M31.7511 7.70329L30.8789 6.99702C31.4655 6.8465 31.8052 7.10122 31.7511 7.70329Z" fill="black"/>
<path d="M25.3523 24.0209C25.8424 24.0209 26.0277 24.2563 25.9582 24.7928L25.3523 24.0209Z" fill="black"/>
<path d="M13.2955 25.1632C13.2955 25.2365 13.2955 25.306 13.2955 25.3793C13.3019 25.4607 13.2914 25.5425 13.2646 25.6195C13.2378 25.6966 13.1953 25.7673 13.1398 25.8271C13.0843 25.887 13.0171 25.9347 12.9422 25.9672C12.8674 25.9997 12.7866 26.0164 12.705 26.0161C12.6268 26.0137 12.5498 25.9955 12.4787 25.9627C12.4077 25.9299 12.3439 25.8831 12.2913 25.8251C12.2387 25.7671 12.1984 25.6991 12.1726 25.6252C12.1469 25.5512 12.1363 25.4729 12.1416 25.3948C12.1416 25.2365 12.1416 25.0821 12.1416 24.9239C12.1346 24.8428 12.1446 24.7611 12.1709 24.684C12.1973 24.6069 12.2394 24.5362 12.2946 24.4763C12.3498 24.4164 12.4168 24.3686 12.4915 24.336C12.5661 24.3035 12.6467 24.2868 12.7282 24.2871C12.8064 24.2901 12.8833 24.3086 12.9543 24.3415C13.0254 24.3745 13.0891 24.4212 13.1419 24.479C13.1947 24.5369 13.2355 24.6046 13.2618 24.6783C13.2882 24.7521 13.2997 24.8303 13.2955 24.9085C13.2994 24.9934 13.2955 25.0783 13.2955 25.1632Z" fill="black"/>
<path d="M4.04854 34.1131C4.04651 34.2653 3.98463 34.4106 3.87628 34.5175C3.76793 34.6244 3.62184 34.6843 3.46963 34.6843C3.3181 34.6823 3.17341 34.6209 3.06662 34.5134C2.95982 34.4059 2.89945 34.2608 2.89845 34.1093C2.89794 34.0332 2.91242 33.9579 2.94104 33.8874C2.96966 33.817 3.01187 33.7529 3.06527 33.6988C3.11867 33.6447 3.18222 33.6016 3.25226 33.572C3.3223 33.5425 3.39747 33.527 3.4735 33.5265C3.62738 33.5285 3.77422 33.5913 3.88195 33.7013C3.98969 33.8112 4.04957 33.9592 4.04854 34.1131Z" fill="black"/>
<path d="M5.78911 33.5265C5.94099 33.5295 6.0857 33.5917 6.19239 33.6998C6.29908 33.808 6.35934 33.9535 6.36032 34.1054C6.35731 34.2573 6.29511 34.402 6.18697 34.5087C6.07884 34.6154 5.93332 34.6756 5.78141 34.6766C5.62922 34.6746 5.48393 34.6127 5.37703 34.5043C5.27013 34.396 5.21019 34.2499 5.21021 34.0977C5.21223 33.9455 5.27412 33.8002 5.38247 33.6933C5.49082 33.5864 5.63691 33.5265 5.78911 33.5265Z" fill="black"/>
<path d="M8.66819 34.1247C8.66219 34.2759 8.59761 34.4188 8.48813 34.5233C8.37866 34.6277 8.23285 34.6855 8.08156 34.6844C8.00603 34.6824 7.93166 34.6655 7.86265 34.6347C7.79365 34.604 7.73138 34.5599 7.67941 34.5051C7.62744 34.4502 7.58679 34.3857 7.55977 34.3151C7.53276 34.2446 7.51989 34.1694 7.52194 34.0939C7.52498 33.941 7.5884 33.7956 7.6983 33.6893C7.80821 33.583 7.95569 33.5245 8.10858 33.5265C8.18477 33.5285 8.25982 33.5456 8.32934 33.5769C8.39887 33.6081 8.46148 33.6529 8.51355 33.7085C8.56562 33.7642 8.60612 33.8297 8.63267 33.9011C8.65922 33.9726 8.67129 34.0486 8.66819 34.1247Z" fill="black"/>
<path d="M10.401 33.5265C10.5532 33.5265 10.6993 33.5864 10.8077 33.6933C10.916 33.8002 10.9779 33.9455 10.9799 34.0977C10.98 34.2492 10.9206 34.3947 10.8145 34.503C10.7084 34.6112 10.5641 34.6736 10.4126 34.6766C10.2607 34.6766 10.1147 34.6174 10.0059 34.5114C9.89703 34.4054 9.83386 34.2611 9.82983 34.1093C9.8298 33.9567 9.8896 33.8102 9.9964 33.7012C10.1032 33.5923 10.2485 33.5295 10.401 33.5265Z" fill="black"/>
<path d="M12.6897 34.6844C12.5379 34.6754 12.3956 34.6074 12.2932 34.4949C12.1908 34.3824 12.1364 34.2344 12.1417 34.0823C12.1487 33.9291 12.2159 33.7848 12.3286 33.6808C12.4413 33.5768 12.5905 33.5213 12.7438 33.5266C12.8956 33.5356 13.038 33.6036 13.1404 33.7161C13.2428 33.8285 13.2971 33.9766 13.2918 34.1287C13.2848 34.2819 13.2176 34.4262 13.1049 34.5302C12.9922 34.6342 12.843 34.6896 12.6897 34.6844Z" fill="black"/>
</g>
<defs>
<clipPath id="clip0_919_84">
<rect width="36.9846" height="37" fill="white"/>
</clipPath>
</defs>
</svg>
