<svg width="47" height="38" viewBox="0 0 47 38" fill="none" xmlns="http://www.w3.org/2000/svg">
<g clip-path="url(#clip0_923_137)">
<path d="M13.0003 9.35235H34.615C34.3124 7.89863 34.0369 6.56749 33.7639 5.24861C33.85 5.17752 33.9139 5.07701 33.9607 5.08681C35.5399 5.36138 36.1057 4.48621 36.5484 3.12565C37.4168 0.465822 38.2703 -0.0269203 41.0918 4.56976e-05C42.5947 4.56976e-05 43.0916 0.443759 43.4532 1.91218C43.6992 2.93689 44.0313 3.94198 44.3289 4.9716L46.4444 5.12604C44.6881 8.95031 45.4359 12.8849 45.394 16.7631C45.3744 18.4791 45.3301 20.1951 45.4137 21.9111C45.4629 22.9653 45.1825 23.6492 44.2182 24.191C42.9039 24.9448 41.6409 25.7842 40.4375 26.7037C40.0177 27.029 39.7444 27.5068 39.6773 28.0324C39.6036 30.5623 39.6232 33.0971 39.6651 35.6319C39.6651 35.985 40.0291 36.3183 40.157 36.6836C40.2741 37.1175 40.3653 37.5579 40.4301 38.0025H12.0065C12.3509 37.3872 12.6165 36.9851 12.8059 36.5512C12.927 36.2571 12.9905 35.9425 12.9929 35.6246C13.0101 33.9502 12.9486 32.2734 13.0199 30.6016C13.0593 29.67 12.7395 29.3391 11.8318 29.4347C11.2787 29.4632 10.7245 29.4632 10.1714 29.4347C10.1321 30.1529 10.1001 30.7511 10.0608 31.4596H5.79783V28.8341L4.42523 28.6061C4.38095 29.366 4.33914 30.0426 4.29733 30.7805H0.115579C0.0860609 30.4667 0.0294753 30.1554 0.0294753 29.8416C0.0294753 25.7992 0.05162 21.7518 0.00488281 17.7118C0.00488281 16.8906 0.285306 16.5817 1.03556 16.3905C4.56545 15.4883 8.07565 14.5029 11.6129 13.6277C12.6411 13.3825 13.1798 12.9903 13.0249 11.843C12.9166 11.0855 13.0003 10.3011 13.0003 9.35235ZM21.0095 13.7184V26.5223L23.002 26.6474C23.0783 27.1376 23.1398 27.5274 23.2037 27.9368H29.4813L29.6166 26.6376L31.6582 26.5125V13.7184H21.0095ZM18.8154 30.783L18.6481 29.4543L17.3665 29.5303V36.5463H35.2226V29.5254H33.9926C33.9213 29.9838 33.8598 30.3711 33.8032 30.7511H29.6215L29.4813 29.5254H23.1693L23.0143 30.783H18.8154ZM1.52261 26.5003L7.86411 27.3093C8.06336 27.3362 8.25768 27.4098 8.45693 27.4416C9.60322 27.6377 10.7495 27.8339 11.9007 28.0153C12.7494 28.1501 13.0298 27.7922 13.0224 26.9293C12.9806 23.1761 13.0052 19.4229 13.0003 15.6697C12.9821 15.404 12.9476 15.1395 12.897 14.8779C10.8381 15.0642 10.8381 15.0642 10.8381 16.9126V26.6032L9.36215 26.4978V15.6795L1.52261 17.7829V26.5003ZM14.518 10.8404V36.5439H15.8906V12.2745H36.7846V36.6346L38.135 36.5635V10.8404H14.518ZM43.9698 13.0124H39.7339V25.3702C40.4719 24.8799 41.0475 24.3896 41.7018 24.1126C43.6205 23.2791 44.1912 21.9062 44.0116 19.8495C43.8148 17.5941 43.9673 15.3069 43.9673 13.0124H43.9698ZM35.5399 6.55278C35.6985 7.12183 35.8184 7.70086 35.899 8.28596C35.9605 9.20036 36.4254 9.44305 37.2716 9.3695C38.0268 9.30577 38.7918 9.3695 39.5962 9.3695L39.6946 11.4876C40.7794 11.4876 41.7215 11.5243 42.6464 11.463C42.9367 11.4434 43.4016 11.2032 43.4606 10.9728C43.837 9.53375 44.1223 8.07269 44.4445 6.56014L35.5399 6.55278ZM18.6136 27.9736C18.9285 26.993 19.4082 26.135 19.4303 25.277C19.5189 21.8131 19.4672 18.3443 19.4672 14.8779V13.7429H17.3567V27.8927C17.5237 27.9448 17.6949 27.9825 17.8683 28.0055C18.1045 28.0153 18.3455 27.9883 18.6136 27.9736ZM33.0899 13.6816C33.5695 18.5012 32.4478 23.2815 33.85 28.0177L35.1857 27.9442V13.6816H33.0899ZM42.7595 4.97895C42.5406 4.18958 42.3881 3.43453 42.1126 2.72606C41.933 2.26519 41.5272 1.48318 41.3107 1.50034C40.3268 1.62781 39.1485 1.74548 38.4401 2.34364C37.8251 2.86089 37.739 4.00572 37.3823 4.96914L42.7595 4.97895ZM2.92472 29.3685L2.85093 28.0913H1.52261V29.3685H2.92472ZM20.2445 29.3391H21.6516L21.5704 28.0251L20.2445 28.0839V29.3391ZM30.9916 28.0913C31.0261 28.5816 31.0507 28.9664 31.0753 29.3562H32.3839V28.0913H30.9916ZM8.58238 30.0671C8.80869 28.9885 8.19864 28.8169 7.30572 28.7581V30.0671H8.58238Z" fill="black"/>
<path d="M1.54224 32.3494H2.84842L2.93943 33.6756L1.54224 33.7393V32.3494Z" fill="black"/>
<path d="M7.24927 34.3792V33.1045H8.59726V34.3792H7.24927Z" fill="black"/>
<path d="M1.46362 35.2446H2.85589V36.5586L1.53742 36.6542L1.46362 35.2446Z" fill="black"/>
<path d="M7.30566 35.9726L8.57003 35.8966V37.2866L7.30566 37.3479V35.9726Z" fill="black"/>
<path d="M28.768 24.3503H23.8655V23.0413H28.768V24.3503Z" fill="black"/>
</g>
<defs>
<clipPath id="clip0_923_137">
<rect width="46.4444" height="38" fill="white"/>
</clipPath>
</defs>
</svg>
