<svg width="40" height="40" viewBox="0 0 40 40" fill="none" xmlns="http://www.w3.org/2000/svg">
<g clip-path="url(#clip0_336_232)">
<path d="M15.8205 27.0735C17.4823 28.4372 18.4424 30.1292 18.6899 32.2258H24.4579C24.869 27.8216 27.2455 25.2556 31.5895 24.4764V15.4558C29.0742 15.1555 27.0873 13.9921 25.7172 11.8588C24.6742 10.2347 24.3287 8.44583 24.6064 6.5386C25.1435 2.84578 28.4402 0.0129339 32.2073 0.00324708C36.0261 -0.010745 39.3486 2.81242 39.8889 6.54506C40.2118 8.7558 39.6963 10.7642 38.3111 12.5207C36.9258 14.2773 35.1133 15.2115 32.9058 15.4515V24.4979C38.0312 24.993 40.3238 29.7514 39.9567 33.0008C39.5348 36.7313 36.5448 39.7643 32.6507 39.972C28.8363 40.1765 25.3824 37.5536 24.6236 33.568H18.7351C17.9656 37.4427 15.7344 39.7761 11.6821 39.9602C8.73297 40.0937 6.08525 38.1983 5.00894 35.4569C3.97353 32.8103 4.5472 29.3639 7.49199 27.1004H0.00301635C0.110647 25.1125 -0.319874 23.1181 0.577769 21.269C0.976004 20.4467 1.53892 19.704 2.02541 18.9269C1.82414 18.2919 1.54753 17.5923 1.37962 16.868C1.1353 15.782 1.39469 14.7595 1.98343 13.8274C2.29125 13.3398 2.6346 12.8748 2.96826 12.4034C3.59309 11.55 3.92054 10.5151 3.90034 9.45756C3.88419 8.2381 3.82607 7.01649 4.13174 5.81102C5.02401 2.30332 8.3638 -0.194794 11.9694 0.0140102C13.6765 0.111954 15.0854 0.857838 16.1606 2.19569C16.3806 2.47724 16.6643 2.70262 16.9883 2.85332C18.4951 3.56906 19.2916 4.79068 19.3562 6.44927C19.3949 7.46854 19.3809 8.49426 19.3562 9.51137C19.3321 10.5129 19.6343 11.495 20.2172 12.3098C20.4551 12.651 20.6929 12.9922 20.9416 13.3258C22.1976 15.0189 22.2191 16.7937 21.2731 18.6234C21.131 18.8968 21.1439 19.0453 21.357 19.2692C22.5708 20.5162 23.2421 22.1927 23.2244 23.9329C23.2309 24.965 23.2244 25.9983 23.2244 27.0735H15.8205ZM3.18782 18.166L3.8885 17.8076C4.9788 17.2543 6.17889 17.1693 7.35852 17.0046C8.53816 16.84 8.51986 16.8464 8.818 15.6862C8.88581 15.4203 8.8363 15.2933 8.61458 15.1286C7.20676 14.0857 6.48564 12.6779 6.46949 10.9213C6.45873 9.76646 6.46949 8.6105 6.46949 7.45562C6.46949 7.34045 6.48456 7.22529 6.49425 7.07353C8.3864 7.14026 10.2893 7.31462 11.5583 5.55701C11.605 5.56975 11.6502 5.58781 11.6928 5.61082C11.7447 5.65337 11.7936 5.6994 11.8392 5.74859C12.725 6.73126 13.8336 7.15748 15.1489 7.09613C15.6806 7.07245 16.2144 7.09613 16.7795 7.09613C16.7795 8.45228 16.8021 9.76538 16.7795 11.0785C16.7461 12.6111 16.1498 13.9199 14.9497 14.8671C14.4525 15.261 14.3545 15.5958 14.5429 16.1587C14.7431 16.7539 14.8184 16.8475 15.4491 16.9433C17.0216 17.1844 18.6415 17.2447 20.0515 18.2015C20.7058 16.9691 20.9383 15.768 20.1806 14.542C19.8631 14.0286 19.4982 13.5465 19.1538 13.0503C18.4239 12.0248 18.0442 10.7913 18.071 9.5329C18.0893 8.51256 18.1023 7.48791 18.0657 6.4708C18.0237 5.28685 17.4382 4.41181 16.3306 3.99528C15.91 3.83815 15.5479 3.55562 15.2931 3.1859C14.3556 1.92877 13.091 1.29374 11.5206 1.30451C8.70929 1.32388 6.1875 3.28276 5.42009 6.00475C5.0972 7.15425 5.18007 8.3242 5.19083 9.48877C5.21716 10.787 4.82133 12.0587 4.06286 13.1127C3.73997 13.5723 3.3977 14.0254 3.09418 14.5022C2.31924 15.7238 2.53342 16.939 3.18782 18.166ZM11.6379 27.0832C10.1041 27.0832 8.63241 27.6895 7.5437 28.7699C6.45498 29.8504 5.8375 31.3174 5.82586 32.8512C5.82246 33.6144 5.96943 34.3709 6.25837 35.0773C6.54732 35.7838 6.97259 36.4264 7.50989 36.9685C8.0472 37.5106 8.68601 37.9416 9.38987 38.2368C10.0937 38.532 10.8488 38.6857 11.6121 38.6891C13.1459 38.6891 14.6176 38.0828 15.7063 37.0024C16.7951 35.9219 17.4125 34.4549 17.4242 32.9211C17.4276 32.1579 17.2806 31.4014 16.9917 30.695C16.7027 29.9885 16.2774 29.3459 15.7401 28.8038C15.2028 28.2617 14.564 27.8307 13.8602 27.5355C13.1563 27.2403 12.4012 27.0866 11.6379 27.0832ZM30.0245 8.18321C28.7071 6.38146 28.7179 4.73901 30.0245 3.48296C30.5845 2.9412 31.3229 2.6223 32.1012 2.58604C32.8795 2.54978 33.6444 2.79865 34.2523 3.28599C34.8851 3.77864 35.3049 4.4951 35.4255 5.28793C35.6106 6.40514 35.2199 7.3383 34.4568 8.16814C35.926 8.80747 36.9506 9.84933 37.6007 11.2894C39.2894 8.85698 39.0892 5.16416 36.4899 2.89422C35.269 1.81512 33.6827 1.24192 32.054 1.29131C30.4253 1.3407 28.8767 2.00897 27.7234 3.16007C25.2393 5.6119 25.3932 9.22184 26.9097 11.2797C27.5092 9.8841 28.6254 8.77448 30.0245 8.18321ZM37.5889 35.7873C39.255 33.4582 39.1581 29.6448 36.3791 27.2963C33.7647 25.0888 29.8276 25.3482 27.506 27.8765C25.1123 30.4844 25.5622 34.0792 26.9097 35.7443C27.8095 34.0965 27.972 33.935 29.9923 32.6585C28.7007 30.7136 28.747 29.097 30.1268 27.8829C30.713 27.369 31.466 27.0856 32.2455 27.0856C33.0251 27.0856 33.7781 27.369 34.3642 27.8829C35.7505 29.0948 35.799 30.7427 34.4848 32.6843C35.8804 33.2805 36.9922 34.3919 37.5889 35.7873ZM7.75891 8.46627C7.75891 9.31441 7.74384 10.1884 7.75891 11.057C7.79874 12.9943 9.27651 14.5873 11.2343 14.8144C13.064 15.0296 14.9325 13.8134 15.3125 11.9707C15.5492 10.8212 15.4836 9.60932 15.5546 8.41892C15.47 8.40304 15.3844 8.39226 15.2985 8.38663C14.0166 8.4426 12.823 8.19074 11.7606 7.42441C11.6907 7.37382 11.5206 7.41687 11.4194 7.46315C10.9103 7.69564 10.4292 8.02606 9.89754 8.16491C9.22377 8.34035 8.50802 8.36725 7.75891 8.46627ZM5.16931 25.7744H10.0256C9.99764 25.6668 9.98149 25.5721 9.95135 25.487C9.13444 23.1891 8.31321 20.8923 7.50383 18.5911C7.4188 18.3511 7.31009 18.2855 7.06469 18.3436C6.79131 18.4082 6.50716 18.4232 6.2284 18.462C4.20386 18.7375 2.7164 19.7697 1.81553 21.6123C1.16974 22.9362 1.32473 24.3537 1.32257 25.768H3.90572V21.9438H5.17146L5.16931 25.7744ZM15.8474 18.3296C14.9691 20.7922 14.084 23.2734 13.1921 25.7733H18.0753V21.9535H19.3669V25.768H21.9328C21.9328 25.0877 21.9447 24.4323 21.9328 23.7768C21.9151 22.6404 21.5359 21.5392 20.8501 20.6329C19.6145 18.9711 17.8515 18.4286 15.8474 18.3296ZM32.2676 14.1901C33.7551 14.1764 35.1933 13.6546 36.3436 12.7112C36.5588 12.5347 36.6169 12.3765 36.5244 12.0999C36.2234 11.2101 35.6526 10.4361 34.8915 9.88561C34.1303 9.3351 33.2166 9.03538 32.2773 9.02811C31.331 9.02459 30.4075 9.31766 29.6364 9.86613C28.8654 10.4146 28.2856 11.1909 27.9785 12.0859C27.8795 12.3787 27.943 12.5444 28.1765 12.7317C29.334 13.6701 30.7775 14.1846 32.2676 14.1901ZM31.9522 38.6891C33.7357 38.6891 35.2371 38.1391 36.3586 37.2027C36.5653 37.0305 36.6137 36.8798 36.5287 36.6236C36.2298 35.726 35.6568 34.9448 34.8904 34.39C34.124 33.8353 33.2029 33.535 32.2568 33.5314C31.3106 33.5314 30.3882 33.8284 29.6196 34.3805C28.8511 34.9325 28.2752 35.7118 27.9731 36.6086C27.8795 36.8916 27.9473 37.0466 28.1625 37.2188C29.3562 38.1767 30.7134 38.6708 31.9522 38.6891ZM8.72759 18.2015C8.89657 18.6805 9.09353 19.2606 9.31418 19.831C9.34513 19.876 9.38615 19.9132 9.43399 19.9395C9.48182 19.9659 9.53514 19.9807 9.58971 19.9828C10.943 19.9921 12.2963 19.9921 13.6496 19.9828C13.74 19.9828 13.8896 19.9365 13.9133 19.8752C14.1414 19.281 14.3492 18.6794 14.5203 18.1972C14.1479 17.8065 13.783 17.532 13.5678 17.1682C13.3525 16.8045 13.2653 16.3287 13.1211 15.896C12.1433 16.1883 11.1014 16.1883 10.1236 15.896C9.97826 16.3352 9.9083 16.7905 9.68443 17.1564C9.46056 17.5224 9.08815 17.8205 8.72759 18.2015ZM32.2374 7.73654C32.746 7.73721 33.2346 7.53841 33.5983 7.18281C33.9619 6.82722 34.1716 6.34319 34.1823 5.8347C34.186 5.57938 34.1392 5.32584 34.0446 5.08868C33.95 4.85151 33.8094 4.63539 33.6309 4.45275C33.4525 4.2701 33.2397 4.12453 33.0048 4.02441C32.7699 3.92429 32.5175 3.8716 32.2622 3.86935C31.7533 3.86728 31.2641 4.06549 30.9002 4.42115C30.5363 4.77681 30.3269 5.26136 30.3173 5.77012C30.3113 6.28548 30.5102 6.78213 30.8702 7.15088C31.2303 7.51964 31.7221 7.73029 32.2374 7.73654ZM34.1823 30.3154C34.1824 29.8073 33.9829 29.3195 33.6267 28.9571C33.2706 28.5947 32.7864 28.3868 32.2783 28.378C32.023 28.3749 31.7696 28.4223 31.5326 28.5174C31.2957 28.6126 31.0799 28.7536 30.8977 28.9325C30.7154 29.1113 30.5703 29.3244 30.4707 29.5595C30.3711 29.7946 30.319 30.0471 30.3173 30.3025C30.3173 30.5574 30.3676 30.8099 30.4654 31.0454C30.5632 31.2808 30.7064 31.4947 30.887 31.6747C31.0676 31.8547 31.2819 31.9972 31.5177 32.0942C31.7535 32.1912 32.0062 32.2407 32.2611 32.2398C32.7699 32.2356 33.2566 32.0314 33.6161 31.6713C33.9756 31.3112 34.179 30.8242 34.1823 30.3154ZM9.84265 21.2894C9.88893 21.4401 9.91799 21.5553 9.95781 21.6661C10.4077 22.9276 10.8533 24.1901 11.3161 25.4461C11.3656 25.5807 11.5163 25.6776 11.6196 25.7927C11.7273 25.6851 11.879 25.5871 11.9285 25.4548C12.3957 24.1858 12.8466 22.9104 13.2998 21.636C13.3374 21.5284 13.3611 21.4207 13.3977 21.2894H9.84265Z" fill="black"/>
<path d="M11.6381 27.0833C12.4013 27.0866 13.1564 27.2403 13.8603 27.5355C14.5641 27.8308 15.203 28.2617 15.7403 28.8038C16.2776 29.3459 16.7028 29.9885 16.9918 30.695C17.2807 31.4015 17.4277 32.1579 17.4243 32.9212C17.4127 34.455 16.7952 35.922 15.7065 37.0024C14.6177 38.0829 13.1461 38.6891 11.6122 38.6891C10.849 38.6857 10.0939 38.532 9.39 38.2368C8.68614 37.9416 8.04732 37.5106 7.51002 36.9685C6.97272 36.4264 6.54745 35.7838 6.2585 35.0774C5.96955 34.3709 5.82259 33.6145 5.82599 32.8512C5.83763 31.3174 6.45511 29.8504 7.54383 28.7699C8.63254 27.6895 10.1042 27.0832 11.6381 27.0833ZM9.06675 36.1103H10.9977V37.3739H12.2892V36.1296C13.541 35.9467 14.2869 35.1093 14.2029 34.0201C14.1211 32.9534 13.2644 32.2431 12.0567 32.2409C11.6811 32.2409 11.3033 32.256 10.9298 32.2312C10.7673 32.2221 10.6149 32.1491 10.5059 32.0281C10.3968 31.9072 10.3399 31.7481 10.3476 31.5855C10.3691 31.2303 10.5725 30.986 10.9212 30.9698C11.5735 30.9397 12.229 30.9612 12.9027 30.9612L12.9361 31.5715H14.1889V29.6664H12.2612V28.3963H10.9869V29.633C10.9234 29.6513 10.8986 29.6621 10.8793 29.6664C9.719 29.8386 8.99357 30.6641 9.06137 31.7351C9.12918 32.7888 9.98915 33.5314 11.1483 33.5357C11.5369 33.5357 11.9265 33.5228 12.3151 33.5433C12.3962 33.5451 12.4762 33.5629 12.5504 33.5956C12.6247 33.6283 12.6918 33.6754 12.7479 33.7341C12.8039 33.7927 12.8479 33.8619 12.8772 33.9376C12.9066 34.0132 12.9207 34.0939 12.9189 34.1751C12.9092 34.5313 12.7111 34.7886 12.3646 34.8069C11.7005 34.8424 11.0332 34.8165 10.3637 34.8165C10.3497 34.5798 10.3379 34.386 10.326 34.202H9.06675V36.1103Z" fill="#FFF500"/>
<path d="M37.589 35.7874C36.9928 34.3912 35.8809 33.2789 34.4849 32.6822C35.7991 30.7449 35.7506 29.0927 34.3643 27.8808C33.7782 27.3669 33.0252 27.0835 32.2456 27.0835C31.4661 27.0835 30.7131 27.3669 30.1269 27.8808C28.7471 29.0949 28.7019 30.7115 29.9924 32.6564C27.9721 33.9329 27.8096 34.0943 26.9098 35.7422C25.5623 34.0771 25.1124 30.4822 27.5061 27.8743C29.8277 25.3461 33.7648 25.0867 36.3792 27.2942C39.1604 29.6449 39.2572 33.4582 37.589 35.7874Z" fill="#FFF500"/>
<path d="M31.9523 38.689C30.7135 38.6708 29.3563 38.1767 28.1626 37.2188C27.9474 37.0466 27.8796 36.8959 27.9732 36.6085C28.2753 35.7118 28.8512 34.9325 29.6198 34.3804C30.3883 33.8284 31.3107 33.5314 32.2569 33.5314C33.203 33.5349 34.1241 33.8353 34.8905 34.39C35.6569 34.9448 36.2299 35.726 36.5288 36.6236C36.6138 36.883 36.5654 37.0305 36.3587 37.2027C35.2372 38.1391 33.7358 38.6901 31.9523 38.689Z" fill="#FFF500"/>
<path d="M34.1827 30.3153C34.1793 30.8241 33.9759 31.3111 33.6164 31.6712C33.2569 32.0313 32.7702 32.2355 32.2614 32.2398C32.0065 32.2406 31.7539 32.1911 31.5181 32.0941C31.2823 31.9972 31.0679 31.8546 30.8873 31.6746C30.7068 31.4946 30.5635 31.2808 30.4657 31.0453C30.3679 30.8098 30.3176 30.5574 30.3176 30.3024C30.3193 30.0471 30.3714 29.7946 30.471 29.5595C30.5706 29.3244 30.7157 29.1112 30.898 28.9324C31.0802 28.7536 31.296 28.6125 31.533 28.5174C31.7699 28.4222 32.0233 28.3748 32.2787 28.378C32.7867 28.3867 33.2709 28.5947 33.6271 28.9571C33.9832 29.3194 34.1827 29.8072 34.1827 30.3153Z" fill="#FFF500"/>
<path d="M9.06685 36.1102V34.1976H10.3186C10.3304 34.3827 10.3423 34.5754 10.3563 34.8122C11.0257 34.8122 11.693 34.838 12.3571 34.8025C12.7037 34.7842 12.9017 34.5269 12.9114 34.1707C12.9133 34.0895 12.8991 34.0088 12.8698 33.9332C12.8405 33.8575 12.7965 33.7884 12.7404 33.7297C12.6844 33.671 12.6173 33.624 12.543 33.5912C12.4687 33.5585 12.3888 33.5407 12.3076 33.5389C11.9191 33.5184 11.5294 33.5324 11.1409 33.5313C9.98171 33.5313 9.12174 32.7844 9.05394 31.7307C8.98613 30.6598 9.71156 29.8342 10.8718 29.662C10.8966 29.662 10.9213 29.6469 10.9795 29.6286V28.392H12.2538V29.662H14.1815V31.5671H12.9287L12.8953 30.9568C12.2215 30.9568 11.566 30.9353 10.9138 30.9654C10.5651 30.9816 10.3617 31.2259 10.3401 31.5811C10.3325 31.7437 10.3894 31.9028 10.4984 32.0238C10.6075 32.1447 10.7598 32.2177 10.9224 32.2269C11.297 32.2516 11.6758 32.2365 12.0493 32.2365C13.2569 32.2365 14.1137 32.9491 14.1955 34.0157C14.2794 35.1049 13.5335 35.9423 12.2818 36.1253V37.3695H10.9902V36.1102H9.06685Z" fill="black"/>
</g>
<defs>
<clipPath id="clip0_336_232">
<rect width="40" height="39.9795" fill="white"/>
</clipPath>
</defs>
</svg>
