<svg width="32" height="44" viewBox="0 0 32 44" fill="none" xmlns="http://www.w3.org/2000/svg">
<g clip-path="url(#clip0_376_36)">
<path d="M10.6693 1.03265C10.6693 3.08138 10.6693 5.04544 10.6693 7.00831C10.6809 7.34999 10.6582 7.69197 10.6014 8.0291C10.4519 8.77399 10.0474 9.44348 9.45757 9.92233C8.86771 10.4012 8.12939 10.6594 7.36967 10.6526C5.45092 10.6681 3.53099 10.6526 1.61224 10.6526H1.05414V11.2835C1.05414 20.1223 1.05414 28.9616 1.05414 37.8013C1.05414 37.9945 1.10065 38.2234 1.01479 38.3701C0.911046 38.5454 0.684464 38.7612 0.517513 38.7553C0.350561 38.7493 0.15976 38.5168 0.040509 38.3403C-0.0238865 38.2508 0.0214321 38.0803 0.0214321 37.9468C0.0214321 28.7803 0.0214321 19.6135 0.0214321 10.4463C0.0114714 10.2783 0.0380885 10.1102 0.099443 9.95353C0.160797 9.79685 0.255425 9.65535 0.376797 9.53881C3.4487 6.48837 6.51424 3.43078 9.57343 0.366034C9.68941 0.242864 9.83069 0.146261 9.98754 0.0828598C10.1444 0.0194585 10.3131 -0.00923816 10.4821 -0.00125896C16.4025 0.0074861 22.3253 0.00987117 28.2505 0.00589614C30.4626 0.00589614 31.8089 1.3582 31.8089 3.56434C31.8089 15.8567 31.8089 28.1487 31.8089 40.4403C31.8089 42.6178 30.4578 43.9797 28.2755 43.9797C20.0329 43.9797 11.7903 43.9594 3.54768 43.9987C1.73865 44.0071 -0.205142 42.7275 0.0238194 40.073C0.0500546 39.7594 0.20746 39.5614 0.517513 39.5459C0.827565 39.5304 1.01837 39.72 1.05296 40.0289C1.07561 40.2352 1.06249 40.4451 1.06726 40.6538C1.10065 41.9882 2.01292 42.9064 3.35091 42.9541C3.42604 42.9541 3.49998 42.9541 3.57391 42.9541C11.8022 42.9541 20.0305 42.9541 28.2589 42.9541C28.5709 42.9571 28.8819 42.9169 29.183 42.8349C29.6219 42.707 30.0098 42.4449 30.2921 42.0854C30.5744 41.7258 30.737 41.2869 30.7572 40.8302C30.7679 40.6526 30.7667 40.4725 30.7667 40.2948C30.7667 28.0931 30.7667 15.8897 30.7667 3.68479C30.78 3.35849 30.754 3.03178 30.6892 2.7117C30.4244 1.64798 29.5336 1.02788 28.3042 1.02788C24.0342 1.02788 19.7642 1.02788 15.4942 1.02788H10.6741L10.6693 1.03265ZM9.65094 1.8674L2.01888 9.58174C2.05227 9.58174 2.17868 9.59486 2.30509 9.59605C3.95552 9.59605 5.60595 9.59605 7.25638 9.59605C8.71482 9.59605 9.6414 8.65874 9.64855 7.18957C9.65452 5.53914 9.64855 3.88871 9.64855 2.23827L9.65094 1.8674Z" fill="black"/>
<path d="M16.6343 40.1601V39.6617C16.6343 37.5629 16.6343 35.4644 16.6343 33.3664C16.6343 32.7034 16.7822 32.5555 17.4464 32.5543C18.1746 32.5543 18.9037 32.5543 19.6335 32.5543C20.3025 32.5543 20.4539 32.7022 20.4539 33.3605C20.4539 35.4585 20.4539 37.5565 20.4539 39.6545V40.1613H21.9028V29.2546C21.9028 28.5284 22.0221 28.4092 22.7626 28.408H24.8602C25.6139 28.408 25.7236 28.5272 25.7236 29.2952C25.7236 32.7336 25.7236 36.1712 25.7236 39.608V40.1864C26.1923 40.1864 26.6192 40.1864 27.0461 40.1864C27.5505 40.1864 27.7843 40.3486 27.7867 40.6896C27.789 41.0307 27.5482 41.206 27.0568 41.206H4.9203C4.78674 41.206 4.65199 41.2119 4.51843 41.1988C4.22507 41.1714 4.04858 41.0032 4.04142 40.7099C4.03358 40.6423 4.04069 40.5739 4.06225 40.5094C4.0838 40.4449 4.11927 40.3859 4.16615 40.3366C4.21302 40.2874 4.27017 40.249 4.33352 40.2243C4.39687 40.1996 4.46488 40.1891 4.53274 40.1935C5.03478 40.1792 5.53802 40.1935 6.09969 40.1935V39.6736C6.09969 38.4537 6.09969 37.2325 6.09969 36.0126C6.09969 35.5189 6.28215 35.3305 6.7675 35.3245C7.58556 35.315 8.40401 35.315 9.22287 35.3245C9.73922 35.3245 9.90976 35.507 9.91095 36.04C9.91095 37.2445 9.91095 38.4501 9.91095 39.6557V40.1637H11.3598V39.6629C11.3598 36.8803 11.3598 34.0978 11.3598 31.3153C11.3598 30.6189 11.4958 30.4805 12.1946 30.4805H14.3411C15.0566 30.4805 15.1866 30.6189 15.1866 31.3487C15.1866 34.101 15.1866 36.8537 15.1866 39.6068V40.1625L16.6343 40.1601ZM22.9868 29.4538V40.153H24.6396V29.4538H22.9868ZM12.4498 31.5431V40.1542H14.1038V31.5466L12.4498 31.5431ZM17.7231 33.6156V40.1566H19.3807V33.6156H17.7231ZM8.86035 36.4002H7.19084V40.1554H8.86035V36.4002Z" fill="black"/>
<path d="M22.9284 3.8685V8.86392C23.1002 8.87346 23.2564 8.88897 23.4114 8.88897C24.9736 8.88897 26.535 8.88897 28.0956 8.88897C28.9518 8.88897 29.0818 9.02849 29.0257 9.88113C28.8051 13.1725 26.1482 15.8067 22.8247 16.0333C21.2303 16.1385 19.6517 15.6633 18.3804 14.6953C17.1091 13.7274 16.2309 12.3321 15.9082 10.7672C15.5625 9.10377 15.8665 7.37118 16.7577 5.92476C17.6489 4.47835 19.0597 3.42774 20.7008 2.98843C22.3517 2.55566 24.1057 2.77359 25.6004 3.59719C27.0951 4.42079 28.2163 5.78711 28.7324 7.41383C28.7729 7.54143 28.86 7.69646 28.8194 7.79663C28.7455 7.98504 28.6239 8.23666 28.4617 8.28794C28.2995 8.33922 28.0491 8.21281 27.8929 8.09237C27.7832 8.00651 27.7665 7.8014 27.7116 7.64756C26.9556 5.56902 25.4745 4.33597 23.3279 3.89116C23.1955 3.87422 23.062 3.86665 22.9284 3.8685ZM18.1095 12.9614C19.3283 11.7426 20.5494 10.5287 21.7562 9.30038C21.8516 9.20379 21.8755 9.00583 21.8755 8.85438C21.8838 7.30412 21.8814 5.7634 21.8755 4.21791C21.8755 4.10581 21.8552 3.99252 21.8445 3.88401C20.1082 3.84227 18.0809 5.30667 17.2628 7.18368C16.4221 9.10123 16.7823 11.5912 18.1095 12.9614ZM27.9787 9.93957H27.4564C26.2078 9.93957 24.9521 9.98846 23.7131 9.92168C22.9189 9.87875 22.3584 10.1173 21.823 10.7028C20.869 11.7414 19.841 12.7062 18.8107 13.7341C20.5744 15.0554 22.4526 15.4144 24.4632 14.6035C26.5239 13.7711 27.6484 12.1743 27.9787 9.93957Z" fill="black"/>
<path d="M25.3266 23.8919C25.1167 24.0898 24.9987 24.1948 24.8866 24.3069L19.1757 30.0166C18.6021 30.5902 18.4602 30.589 17.8758 30.0023C16.3506 28.4783 14.8266 26.9531 13.2739 25.3992C13.1487 25.5185 13.0354 25.621 12.9162 25.7319L8.5969 30.05C8.50269 30.1442 8.40849 30.2957 8.30116 30.3076C8.0877 30.3326 7.786 30.3565 7.66794 30.236C7.54988 30.1156 7.58685 29.8175 7.60832 29.6028C7.61786 29.5074 7.75261 29.4227 7.83727 29.3393C9.45511 27.7182 11.0745 26.0984 12.6956 24.4798C13.1726 24.0028 13.3502 24.0028 13.838 24.4965C15.2801 25.9354 16.7211 27.376 18.1608 28.8181C18.2801 28.9374 18.3993 29.0411 18.4828 29.1258L24.5646 23.044C24.2367 23.044 23.923 23.044 23.6106 23.044C23.4174 23.044 23.1908 23.0881 23.0418 23.0023C22.8629 22.8997 22.6244 22.6648 22.6423 22.5157C22.6661 22.3297 22.9166 22.0328 23.0811 22.0244C24.016 21.9767 24.9545 21.9863 25.8907 22.0089C26.2043 22.0161 26.3522 22.2677 26.3558 22.567C26.3629 23.4447 26.3558 24.3224 26.3558 25.2001C26.3558 25.5113 26.1864 25.7176 25.8787 25.7367C25.5365 25.7594 25.3505 25.5447 25.3326 25.2203C25.3111 24.8197 25.3266 24.4178 25.3266 23.8919Z" fill="black"/>
<path d="M7.15504 14.6666H3.58944C3.47019 14.6666 3.31516 14.7048 3.24003 14.6452C3.0707 14.5104 2.82981 14.3303 2.82385 14.161C2.81789 13.9917 3.0385 13.7854 3.20665 13.6542C3.30324 13.5791 3.49284 13.616 3.64071 13.616C6.00347 13.616 8.36584 13.616 10.7278 13.616C10.816 13.616 10.9055 13.616 10.9949 13.616C11.3336 13.6446 11.5733 13.7949 11.5566 14.167C11.5411 14.5104 11.3181 14.6559 10.9878 14.6631C10.735 14.6702 10.4833 14.6631 10.2305 14.6631L7.15504 14.6666Z" fill="black"/>
<path d="M7.15985 21.4639C8.3929 21.4639 9.62596 21.4639 10.8566 21.4639C11.2144 21.4639 11.5209 21.5402 11.5566 21.9672C11.5864 22.313 11.3277 22.5121 10.8531 22.5133C8.40285 22.5133 5.95184 22.5133 3.50004 22.5133C3.03258 22.5133 2.75711 22.2987 2.79408 21.9636C2.84059 21.545 3.13752 21.4615 3.50243 21.4639C4.72475 21.4639 5.9423 21.4639 7.15985 21.4639Z" fill="black"/>
<path d="M7.16825 17.2724H3.38203C3.03144 17.2724 2.79651 17.1078 2.80009 16.7477C2.80009 16.4078 3.03859 16.2575 3.36296 16.2456C3.48221 16.2456 3.60146 16.2456 3.72071 16.2456H9.06672C9.63078 16.2456 10.196 16.2456 10.7601 16.2456C11.3241 16.2456 11.5746 16.4066 11.565 16.7751C11.5567 17.1245 11.3265 17.2771 10.7792 17.2771C9.57474 17.2755 8.37109 17.2739 7.16825 17.2724Z" fill="black"/>
<path d="M7.15974 18.8583C8.42142 18.8583 9.68428 18.8583 10.946 18.8583C11.3884 18.8583 11.6293 19.1147 11.5494 19.4772C11.4838 19.7754 11.2691 19.8767 10.9889 19.8767C8.45044 19.8767 5.91119 19.8767 3.37115 19.8767C3.02055 19.8767 2.78443 19.705 2.80112 19.3437C2.81782 18.9823 3.07182 18.8536 3.41765 18.8547C4.66501 18.8619 5.91715 18.8583 7.15974 18.8583Z" fill="black"/>
<path d="M13.8188 14.6666C13.64 14.6666 13.4277 14.7275 13.2929 14.6523C13.0986 14.5438 12.8386 14.3399 12.8326 14.1682C12.8267 13.9965 13.0711 13.6983 13.2512 13.6614C13.6448 13.5829 14.0501 13.5829 14.4437 13.6614C14.6202 13.6971 14.8647 14.0012 14.8563 14.1729C14.848 14.3447 14.588 14.5522 14.3912 14.6499C14.2362 14.7263 14.012 14.6666 13.8188 14.6666Z" fill="black"/>
<path d="M13.8332 22.5169C13.634 22.5062 13.3955 22.5551 13.2297 22.4668C13.064 22.3786 12.8124 22.1305 12.8302 21.9815C12.858 21.8694 12.9129 21.7659 12.99 21.68C13.0672 21.5942 13.1642 21.5286 13.2727 21.489C13.6512 21.4116 14.0414 21.4116 14.4199 21.489C14.5275 21.5297 14.6235 21.5962 14.6994 21.6827C14.7753 21.7692 14.8288 21.873 14.8551 21.9851C14.8718 22.1353 14.6345 22.3738 14.4545 22.4692C14.2744 22.5646 14.049 22.5062 13.8332 22.5169Z" fill="black"/>
<path d="M13.8356 17.264C13.6424 17.264 13.4146 17.3296 13.2667 17.2473C13.0771 17.1435 12.8505 16.9325 12.8303 16.7464C12.8148 16.5998 13.0688 16.3124 13.2369 16.2814C13.6323 16.2283 14.0324 16.2211 14.4294 16.2599C14.7276 16.2754 14.8862 16.4829 14.8814 16.7667C14.8839 16.8303 14.8737 16.8938 14.8513 16.9535C14.829 17.0131 14.7949 17.0676 14.7511 17.1138C14.7073 17.1601 14.6547 17.1971 14.5964 17.2227C14.5381 17.2482 14.4752 17.2619 14.4115 17.2628C14.2207 17.2795 14.0264 17.2628 13.8344 17.2628L13.8356 17.264Z" fill="black"/>
<path d="M13.8557 18.8643C14.0489 18.8643 14.2432 18.8488 14.434 18.8643C14.7322 18.8942 14.923 19.1028 14.8681 19.3724C14.8288 19.556 14.6189 19.8112 14.4507 19.8422C14.0566 19.9151 13.6524 19.9151 13.2582 19.8422C13.0794 19.8076 12.8265 19.5202 12.8301 19.3521C12.8337 19.1839 13.0913 18.9729 13.2857 18.8751C13.4371 18.7964 13.6625 18.8596 13.8545 18.8596L13.8557 18.8643Z" fill="black"/>
<path d="M22.9867 29.4537H24.6396V40.1529H22.9832L22.9867 29.4537Z" fill="#FFF500"/>
<path d="M12.4497 31.5466H14.1037V40.1577H12.4497V31.5466Z" fill="#FFF500"/>
<path d="M17.7231 33.6156H19.3807V40.1565H17.7231V33.6156Z" fill="#FFF500"/>
<path d="M8.85433 36.4001V40.1554H7.18481V36.4001H8.85433Z" fill="#FFF500"/>
</g>
<defs>
<clipPath id="clip0_376_36">
<rect width="31.8066" height="44" fill="white"/>
</clipPath>
</defs>
</svg>
