<svg width="45" height="46" viewBox="0 0 45 46" fill="none" xmlns="http://www.w3.org/2000/svg">
<g clip-path="url(#clip0_336_240)">
<path d="M23.9296 -2.73931e-05C24.7806 0.119324 25.6353 0.213611 26.4816 0.358026C28.9891 0.794127 31.4013 1.66535 33.6095 2.93243C34.0696 3.195 34.2054 3.54828 34.0052 3.91588C33.805 4.28348 33.4188 4.36583 32.967 4.11281C30.8169 2.89415 28.4709 2.06051 26.0346 1.6494C25.868 1.6181 25.6981 1.60887 25.5292 1.62195C28.2049 3.5568 30.3302 6.15715 31.6952 9.16613C33.0886 12.1893 33.7334 15.3951 33.9933 18.793C35.2079 17.3691 36.6466 16.542 38.4452 16.4203C40.2439 16.2985 41.8018 16.8905 43.2274 18.059C42.9663 17.177 42.7423 16.2818 42.4347 15.4165C41.1236 11.725 38.9363 8.64695 35.9195 6.15491C35.762 6.04305 35.6166 5.91505 35.4856 5.77298C35.3778 5.65594 35.3179 5.50254 35.3179 5.34332C35.3179 5.18409 35.3778 5.0307 35.4856 4.91365C35.5766 4.79263 35.7086 4.70908 35.8567 4.67874C36.0049 4.6484 36.1591 4.67337 36.2902 4.74895C36.3948 4.80525 36.4925 4.87376 36.581 4.95304C41.36 8.87014 44.1233 13.8984 44.8711 20.0378C44.9629 20.8041 44.9688 21.5822 44.9903 22.3544C45.0082 22.882 44.7614 23.1899 44.3562 23.2102C43.9509 23.2305 43.6696 22.9106 43.641 22.3664C43.5289 20.0104 41.8137 18.1043 39.5216 17.7892C38.4148 17.6392 37.2906 17.8829 36.345 18.478C35.3994 19.073 34.6923 19.9816 34.3473 21.0451C34.2209 21.4871 34.141 21.9411 34.1089 22.3998C34.0553 22.9118 33.8169 23.2221 33.4104 23.2149C33.004 23.2078 32.7822 22.9225 32.7489 22.4201C32.5868 20.0128 31.0527 18.2213 28.7522 17.825C27.223 17.5613 25.8737 17.9969 24.7115 19.0269C24.5991 19.1204 24.5101 19.2389 24.4517 19.373C24.3934 19.5071 24.3672 19.653 24.3754 19.7991C24.3865 26.6928 24.3885 33.5865 24.3813 40.4803C24.3813 42.8279 22.9248 44.8163 20.7411 45.499C19.9761 45.738 19.1662 45.7961 18.3749 45.6689C17.5837 45.5418 16.8327 45.2327 16.1808 44.7659C15.529 44.2992 14.9941 43.6875 14.618 42.9789C14.242 42.2703 14.0352 41.4841 14.0137 40.682C14.0053 40.3693 14.0041 40.0566 14.0137 39.7439C14.0435 38.6816 14.7706 37.9775 15.8398 37.9667C16.9089 37.956 17.7147 38.6709 17.7672 39.714C17.7791 39.9527 17.7672 40.1914 17.7743 40.4301C17.7779 40.791 17.9193 41.1368 18.1696 41.3965C18.4199 41.6562 18.76 41.8101 19.12 41.8265C19.4879 41.8479 19.8496 41.725 20.1286 41.484C20.4076 41.2429 20.5819 40.9027 20.6147 40.5352C20.6259 40.3715 20.6287 40.2074 20.6231 40.0434C20.6231 33.3144 20.6271 26.5846 20.635 19.854C20.6432 19.6787 20.6079 19.504 20.5325 19.3455C20.457 19.1871 20.3436 19.0498 20.2023 18.9458C18.6897 17.7021 17.0031 17.3846 15.1961 18.1401C13.3891 18.8956 12.4427 20.3314 12.2615 22.278C12.252 22.3819 12.2543 22.4869 12.2424 22.5895C12.236 22.7561 12.1656 22.9137 12.0459 23.0296C11.9262 23.1454 11.7664 23.2106 11.6 23.2114C11.2543 23.2424 10.9587 22.9727 10.9098 22.5883C10.8645 22.2303 10.8657 21.8722 10.7906 21.5249C10.3019 19.1582 8.10276 17.5744 5.60799 17.7809C3.32896 17.9683 1.44567 19.9793 1.33839 22.3162C1.32767 22.5549 1.2633 22.8521 1.10715 23.0001C0.951007 23.1481 0.645867 23.1899 0.430122 23.1481C0.0987579 23.0837 -0.00613241 22.7901 -0.00732437 22.4583C-0.01686 20.859 0.111868 19.268 0.506406 17.7212C2.78543 8.70782 8.41346 2.99966 17.3905 0.596728C18.4633 0.312672 19.5861 0.245836 20.6863 0.0763572C20.8174 0.0560675 20.9449 0.0250365 21.0748 -0.0012207L23.9296 -2.73931e-05ZM19.5754 1.60524C11.2448 2.56005 3.51968 9.39887 1.84259 18.1282C3.19427 16.9013 4.74501 16.3009 6.54844 16.4227C8.35188 16.5444 9.79534 17.3691 10.9992 18.7858C11.0302 18.5173 11.0564 18.3275 11.0719 18.1377C11.2222 16.2538 11.5523 14.3886 12.0577 12.5676C12.1447 12.2609 12.2841 12.0162 12.6262 11.9578C13.1662 11.867 13.4999 12.3086 13.3676 12.9126C13.1173 14.044 12.8575 15.1802 12.6465 16.3129C12.5178 16.9991 12.4725 17.7009 12.3759 18.5137C14.8111 15.8641 19.0712 15.5729 21.7852 18.5686V1.83798C21.6064 1.93346 21.4765 1.99672 21.3526 2.07668C18.3071 3.90275 16.0662 6.45686 14.5608 9.66741C14.3069 10.2093 13.9565 10.3895 13.5643 10.1961C13.1722 10.0028 13.0875 9.62683 13.3462 9.08139C13.9914 7.69162 14.7993 6.38351 15.7527 5.18458C16.8523 3.81724 18.1392 2.61223 19.5754 1.60524ZM23.2049 18.6331C24.4981 17.1817 26.0215 16.4501 27.8535 16.4107C29.7094 16.3714 31.2494 17.0994 32.5486 18.4504C32.4723 15.4488 31.427 10.5733 28.9263 7.00349C27.44 4.85951 25.4827 3.0851 23.2049 1.8165V18.6331ZM21.9628 38.2997C21.9628 39.0671 21.9831 39.7952 21.9628 40.522C21.937 41.2439 21.6292 41.9269 21.1055 42.4237C20.5818 42.9206 19.8843 43.1918 19.1629 43.1788C18.4498 43.1738 17.7664 42.8915 17.2572 42.3916C16.7479 41.8917 16.4525 41.2132 16.4333 40.4994C16.4262 40.2463 16.4453 39.9909 16.4143 39.7415C16.4102 39.6737 16.3923 39.6075 16.3618 39.5469C16.3313 39.4862 16.2887 39.4325 16.2367 39.3889C16.1847 39.3453 16.1244 39.3128 16.0594 39.2934C15.9944 39.274 15.9262 39.2681 15.8588 39.276C15.5442 39.2856 15.3665 39.4634 15.3618 39.7868C15.3618 40.084 15.3558 40.3836 15.3618 40.6784C15.4142 42.6011 16.9018 44.173 18.8638 44.3783C20.7018 44.5728 22.5755 43.2671 22.9164 41.4196C23.1 40.411 23.0356 39.3584 23.0881 38.2985L21.9628 38.2997ZM23.013 36.8973V23.135H21.9962V36.8973H23.013Z" fill="black"/>
<path d="M8.36991 23.9227C9.36825 23.9225 10.355 24.1368 11.2635 24.5514C12.1719 24.9659 12.9809 25.571 13.6357 26.3256C14.2904 27.0802 14.7757 27.9669 15.0587 28.9255C15.3418 29.8841 15.4159 30.8924 15.2761 31.8823C15.2165 32.325 14.9316 32.5888 14.5466 32.5578C14.1426 32.5267 13.8827 32.2129 13.9447 31.7319C14.1387 30.3783 13.8373 29.0002 13.096 27.8518C12.4176 26.7988 11.4086 26.0017 10.2279 25.5861C9.04722 25.1706 7.76203 25.1602 6.57482 25.5566C4.18137 26.3551 2.53289 28.7934 2.7391 31.2294C2.96676 33.9291 4.85005 36.05 7.41515 36.4606C9.41048 36.7804 11.1102 36.1825 12.5072 34.7264C12.6122 34.5998 12.7253 34.4802 12.8457 34.3683C12.962 34.2597 13.1158 34.2006 13.2747 34.2032C13.4337 34.2059 13.5854 34.2702 13.698 34.3827C13.965 34.6214 14.0281 34.9233 13.8291 35.2253C13.6715 35.4596 13.4867 35.6744 13.2784 35.865C11.09 37.894 8.54989 38.4812 5.78455 37.3736C2.98226 36.2517 1.4935 34.0425 1.38861 31.0217C1.25392 27.1416 4.46744 23.9203 8.36991 23.9227Z" fill="black"/>
<path d="M40.8842 30.9465C40.8842 32.0636 40.8914 33.1796 40.8842 34.2967C40.8735 35.8554 39.7578 37.0263 38.2023 37.0513C36.3596 37.08 34.5164 37.08 32.6728 37.0513C31.1149 37.0286 29.9957 35.8709 29.9873 34.3062C29.9762 32.0441 29.9762 29.7817 29.9873 27.5188C29.9957 25.9123 31.1424 24.7737 32.7515 24.7606C34.5363 24.7494 36.3202 24.7494 38.1034 24.7606C39.7316 24.7689 40.8759 25.923 40.8842 27.5534C40.8902 28.6848 40.8842 29.8151 40.8842 30.9465ZM31.3295 30.8916C31.3295 31.9777 31.3295 33.0638 31.3295 34.1499C31.3295 35.1751 31.842 35.7015 32.8528 35.7015C34.5764 35.7078 36.3 35.7078 38.0235 35.7015C39.0033 35.7015 39.5385 35.1572 39.5397 34.1797C39.5397 31.9916 39.5397 29.8035 39.5397 27.6154C39.5397 26.6606 38.9997 26.1092 38.0557 26.1068C36.3027 26.0997 34.5494 26.0997 32.7956 26.1068C31.8706 26.1068 31.3343 26.657 31.3307 27.5832C31.3259 28.6896 31.3295 29.79 31.3295 30.8916Z" fill="black"/>
<path d="M7.69049 32.8525C7.69049 32.3214 7.70002 31.8356 7.68214 31.3511C7.68214 31.2604 7.57606 31.1649 7.50096 31.0885C7.44038 31.0458 7.3742 31.0116 7.30429 30.9871C6.64276 30.6409 6.16597 30.1516 6.1922 29.3543C6.21723 28.5248 6.65825 27.952 7.40919 27.6345C7.64758 27.5306 7.72744 27.4089 7.69883 27.1726C7.6893 27.0833 7.6893 26.9933 7.69883 26.9041C7.70409 26.7311 7.77627 26.5669 7.90015 26.4462C8.02403 26.3255 8.1899 26.2577 8.36275 26.2572C8.53553 26.2543 8.70249 26.3197 8.82744 26.4392C8.95239 26.5587 9.02526 26.7227 9.03025 26.8957C9.04455 27.0735 9.03025 27.2538 9.03025 27.4185C9.44386 27.6237 9.85151 27.7956 10.2222 28.0152C10.662 28.2766 10.7741 28.6776 10.5583 29.0261C10.3426 29.3746 9.94806 29.42 9.50703 29.1526C9.37353 29.0715 9.23288 29.0022 9.03025 28.8924C9.03025 29.3376 9.01356 29.7052 9.04098 30.0704C9.04813 30.1659 9.17209 30.2769 9.26864 30.339C9.49273 30.4834 9.74542 30.5777 9.96474 30.7328C11.1448 31.5683 11.1448 33.0781 9.95759 33.9112C9.69417 34.0961 9.38307 34.2119 9.02667 34.3945C9.02667 34.5198 9.0374 34.7108 9.02667 34.8994C9.02327 35.0724 8.95263 35.2372 8.82977 35.3589C8.70691 35.4806 8.54151 35.5495 8.36871 35.551C8.01112 35.551 7.66665 35.2861 7.70837 34.9161C7.76797 34.3826 7.50216 34.225 7.07544 34.0484C6.70143 33.8695 6.36109 33.6272 6.06943 33.3323C6.00731 33.2728 5.95771 33.2015 5.92353 33.1225C5.88935 33.0435 5.87128 32.9585 5.8704 32.8724C5.86951 32.7864 5.88582 32.701 5.91836 32.6213C5.9509 32.5416 5.99902 32.4693 6.05989 32.4085C6.18193 32.2865 6.34569 32.2155 6.51805 32.2097C6.69041 32.2039 6.85852 32.2639 6.98842 32.3775C7.15172 32.5052 7.31144 32.6377 7.47832 32.7618C7.54549 32.7998 7.61665 32.8302 7.69049 32.8525ZM9.06958 31.7903V32.8644C9.64649 32.4801 9.64172 32.1233 9.06958 31.7903Z" fill="black"/>
<path d="M21.963 38.2998H23.0823C23.0322 39.3596 23.0942 40.4123 22.9106 41.4208C22.5745 43.2684 20.7007 44.5741 18.858 44.3795C16.896 44.1731 15.4084 42.6012 15.356 40.6797C15.3477 40.3825 15.356 40.0829 15.356 39.7881C15.356 39.4647 15.5384 39.2868 15.853 39.2773C15.9204 39.2694 15.9886 39.2753 16.0536 39.2947C16.1186 39.3141 16.1789 39.3466 16.2309 39.3902C16.2829 39.4338 16.3255 39.4875 16.356 39.5481C16.3866 39.6088 16.4044 39.675 16.4085 39.7428C16.4395 39.9922 16.4204 40.2476 16.4276 40.5006C16.4467 41.2145 16.7421 41.893 17.2514 42.3929C17.7607 42.8928 18.444 43.1751 19.1572 43.1801C19.8785 43.193 20.5761 42.9219 21.0997 42.425C21.6234 41.9281 21.9312 41.2452 21.9571 40.5233C21.9833 39.7953 21.963 39.0672 21.963 38.2998Z" fill="black"/>
<path d="M23.0131 36.8974H21.9963V23.135H23.0131V36.8974Z" fill="black"/>
<path d="M31.3295 30.8916C31.3295 29.79 31.3295 28.6896 31.3295 27.5879C31.3295 26.6618 31.8694 26.1152 32.7944 26.1116C34.5482 26.1044 36.3015 26.1044 38.0545 26.1116C38.9985 26.1116 39.5373 26.6654 39.5385 27.6202C39.5385 29.8075 39.5385 31.9956 39.5385 34.1845C39.5385 35.162 39.0021 35.7038 38.0223 35.7062C36.2987 35.7126 34.5752 35.7126 32.8516 35.7062C31.8408 35.7062 31.3307 35.1775 31.3283 34.1546C31.3275 33.0654 31.3279 31.9777 31.3295 30.8916ZM35.4084 30.962C34.8124 30.962 34.2164 30.9548 33.6288 30.962C33.1126 30.9692 32.848 31.1923 32.8349 31.6053C32.8218 32.0183 33.1055 32.3071 33.6204 32.3119C34.806 32.3222 35.9924 32.3222 37.1796 32.3119C37.6886 32.3119 37.9889 32.029 37.9794 31.6137C37.9699 31.1983 37.6838 30.9692 37.1879 30.962C36.5944 30.9548 36.0019 30.962 35.4084 30.962ZM34.8457 28.2169C34.4143 28.2169 33.9828 28.2098 33.5525 28.2169C33.1222 28.2241 32.8528 28.4628 32.8373 28.8471C32.8218 29.2314 33.0852 29.5465 33.5274 29.5549C34.3753 29.5716 35.2228 29.5716 36.0699 29.5549C36.5026 29.5477 36.7922 29.235 36.7743 28.8519C36.7565 28.4688 36.4752 28.2277 36.052 28.2169C35.6491 28.2133 35.2474 28.2205 34.8457 28.2205V28.2169Z" fill="#FFF500"/>
<path d="M35.4083 30.962C36.0043 30.962 36.5943 30.9549 37.1879 30.962C37.6838 30.9692 37.9699 31.2139 37.9794 31.6137C37.9889 32.0135 37.6886 32.3083 37.1796 32.3119C35.994 32.3215 34.8076 32.3215 33.6204 32.3119C33.1055 32.3119 32.8218 32.0338 32.8349 31.6053C32.848 31.1769 33.1126 30.9692 33.6288 30.962C34.2283 30.9549 34.8148 30.962 35.4083 30.962Z" fill="black"/>
<path d="M34.8457 28.2206C35.2474 28.2206 35.649 28.2134 36.0495 28.2206C36.4727 28.2313 36.754 28.4879 36.7719 28.8555C36.7897 29.2231 36.5001 29.5513 36.0674 29.5585C35.2195 29.5752 34.3721 29.5752 33.525 29.5585C33.0828 29.5501 32.817 29.2529 32.8348 28.8507C32.8527 28.4485 33.1114 28.2301 33.55 28.2206C33.9886 28.211 34.4142 28.2206 34.8457 28.2206Z" fill="black"/>
</g>
<g clip-path="url(#clip1_336_240)">
<path d="M8.36991 23.9227C9.36825 23.9225 10.355 24.1368 11.2635 24.5514C12.1719 24.9659 12.9809 25.571 13.6357 26.3256C14.2904 27.0802 14.7757 27.9669 15.0587 28.9255C15.3418 29.8841 15.4159 30.8924 15.2761 31.8823C15.2165 32.325 14.9316 32.5888 14.5466 32.5578C14.1426 32.5267 13.8827 32.2129 13.9447 31.7319C14.1387 30.3783 13.8373 29.0002 13.096 27.8518C12.4176 26.7988 11.4086 26.0017 10.2279 25.5861C9.04722 25.1706 7.76203 25.1602 6.57482 25.5566C4.18137 26.3551 2.53289 28.7934 2.7391 31.2294C2.96676 33.9291 4.85005 36.05 7.41515 36.4606C9.41048 36.7804 11.1102 36.1825 12.5072 34.7264C12.6122 34.5998 12.7253 34.4802 12.8457 34.3683C12.962 34.2597 13.1158 34.2006 13.2747 34.2032C13.4337 34.2059 13.5854 34.2702 13.698 34.3827C13.965 34.6214 14.0281 34.9233 13.8291 35.2253C13.6715 35.4596 13.4867 35.6744 13.2784 35.865C11.09 37.894 8.54989 38.4812 5.78455 37.3736C2.98226 36.2517 1.4935 34.0425 1.38861 31.0217C1.25392 27.1416 4.46744 23.9203 8.36991 23.9227Z" fill="black"/>
<path d="M40.8842 30.9465C40.8842 32.0636 40.8914 33.1796 40.8842 34.2967C40.8735 35.8554 39.7578 37.0263 38.2023 37.0513C36.3596 37.08 34.5164 37.08 32.6728 37.0513C31.1149 37.0286 29.9957 35.8709 29.9873 34.3062C29.9762 32.0441 29.9762 29.7817 29.9873 27.5188C29.9957 25.9123 31.1424 24.7737 32.7515 24.7606C34.5363 24.7494 36.3202 24.7494 38.1034 24.7606C39.7316 24.7689 40.8759 25.923 40.8842 27.5534C40.8902 28.6848 40.8842 29.8151 40.8842 30.9465ZM31.3295 30.8916C31.3295 31.9777 31.3295 33.0638 31.3295 34.1499C31.3295 35.1751 31.842 35.7015 32.8528 35.7015C34.5764 35.7078 36.3 35.7078 38.0235 35.7015C39.0033 35.7015 39.5385 35.1572 39.5397 34.1797C39.5397 31.9916 39.5397 29.8035 39.5397 27.6154C39.5397 26.6606 38.9997 26.1092 38.0557 26.1068C36.3027 26.0997 34.5494 26.0997 32.7956 26.1068C31.8706 26.1068 31.3343 26.657 31.3307 27.5832C31.3259 28.6896 31.3295 29.79 31.3295 30.8916Z" fill="black"/>
<path d="M7.69049 32.8525C7.69049 32.3214 7.70002 31.8356 7.68214 31.3511C7.68214 31.2604 7.57606 31.1649 7.50096 31.0885C7.44038 31.0458 7.3742 31.0116 7.30429 30.9871C6.64276 30.6409 6.16597 30.1516 6.1922 29.3543C6.21723 28.5248 6.65825 27.952 7.40919 27.6345C7.64758 27.5306 7.72744 27.4089 7.69883 27.1726C7.6893 27.0833 7.6893 26.9933 7.69883 26.9041C7.70409 26.7311 7.77627 26.5669 7.90015 26.4462C8.02403 26.3255 8.1899 26.2577 8.36275 26.2572C8.53553 26.2543 8.70249 26.3197 8.82744 26.4392C8.95239 26.5587 9.02526 26.7227 9.03025 26.8957C9.04455 27.0735 9.03025 27.2538 9.03025 27.4185C9.44386 27.6237 9.85151 27.7956 10.2222 28.0152C10.662 28.2766 10.7741 28.6776 10.5583 29.0261C10.3426 29.3746 9.94806 29.42 9.50703 29.1526C9.37353 29.0715 9.23288 29.0022 9.03025 28.8924C9.03025 29.3376 9.01356 29.7052 9.04098 30.0704C9.04813 30.1659 9.17209 30.2769 9.26864 30.339C9.49273 30.4834 9.74542 30.5777 9.96474 30.7328C11.1448 31.5683 11.1448 33.0781 9.95759 33.9112C9.69417 34.0961 9.38307 34.2119 9.02667 34.3945C9.02667 34.5198 9.0374 34.7108 9.02667 34.8994C9.02327 35.0724 8.95263 35.2372 8.82977 35.3589C8.70691 35.4806 8.54151 35.5495 8.36871 35.551C8.01112 35.551 7.66665 35.2861 7.70837 34.9161C7.76797 34.3826 7.50216 34.225 7.07544 34.0484C6.70143 33.8695 6.36109 33.6272 6.06943 33.3323C6.00731 33.2728 5.95771 33.2015 5.92353 33.1225C5.88935 33.0435 5.87128 32.9585 5.8704 32.8724C5.86951 32.7864 5.88582 32.701 5.91836 32.6213C5.9509 32.5416 5.99902 32.4693 6.05989 32.4085C6.18193 32.2865 6.34569 32.2155 6.51805 32.2097C6.69041 32.2039 6.85852 32.2639 6.98842 32.3775C7.15172 32.5052 7.31144 32.6377 7.47832 32.7618C7.54549 32.7998 7.61665 32.8302 7.69049 32.8525ZM9.06958 31.7903V32.8644C9.64649 32.4801 9.64172 32.1233 9.06958 31.7903Z" fill="black"/>
<path d="M21.963 38.2998H23.0823C23.0322 39.3596 23.0942 40.4123 22.9106 41.4208C22.5745 43.2684 20.7007 44.5741 18.858 44.3795C16.896 44.1731 15.4084 42.6012 15.356 40.6797C15.3477 40.3825 15.356 40.0829 15.356 39.7881C15.356 39.4647 15.5384 39.2868 15.853 39.2773C15.9204 39.2694 15.9886 39.2753 16.0536 39.2947C16.1186 39.3141 16.1789 39.3466 16.2309 39.3902C16.2829 39.4338 16.3255 39.4875 16.356 39.5481C16.3866 39.6088 16.4044 39.675 16.4085 39.7428C16.4395 39.9922 16.4204 40.2476 16.4276 40.5006C16.4467 41.2145 16.7421 41.893 17.2514 42.3929C17.7607 42.8928 18.444 43.1751 19.1572 43.1801C19.8785 43.193 20.5761 42.9219 21.0997 42.425C21.6234 41.9281 21.9312 41.2452 21.9571 40.5233C21.9833 39.7953 21.963 39.0672 21.963 38.2998Z" fill="black"/>
<path d="M23.0131 36.8974H21.9963V23.135H23.0131V36.8974Z" fill="black"/>
<path d="M31.3295 30.8916C31.3295 29.79 31.3295 28.6896 31.3295 27.5879C31.3295 26.6618 31.8694 26.1152 32.7944 26.1116C34.5482 26.1044 36.3015 26.1044 38.0545 26.1116C38.9985 26.1116 39.5373 26.6654 39.5385 27.6202C39.5385 29.8075 39.5385 31.9956 39.5385 34.1845C39.5385 35.162 39.0021 35.7038 38.0223 35.7062C36.2987 35.7126 34.5752 35.7126 32.8516 35.7062C31.8408 35.7062 31.3307 35.1775 31.3283 34.1546C31.3275 33.0654 31.3279 31.9777 31.3295 30.8916ZM35.4084 30.962C34.8124 30.962 34.2164 30.9548 33.6288 30.962C33.1126 30.9692 32.848 31.1923 32.8349 31.6053C32.8218 32.0183 33.1055 32.3071 33.6204 32.3119C34.806 32.3222 35.9924 32.3222 37.1796 32.3119C37.6886 32.3119 37.9889 32.029 37.9794 31.6137C37.9699 31.1983 37.6838 30.9692 37.1879 30.962C36.5944 30.9548 36.0019 30.962 35.4084 30.962ZM34.8457 28.2169C34.4143 28.2169 33.9828 28.2098 33.5525 28.2169C33.1222 28.2241 32.8528 28.4628 32.8373 28.8471C32.8218 29.2314 33.0852 29.5465 33.5274 29.5549C34.3753 29.5716 35.2228 29.5716 36.0699 29.5549C36.5026 29.5477 36.7922 29.235 36.7743 28.8519C36.7565 28.4688 36.4752 28.2277 36.052 28.2169C35.6491 28.2133 35.2474 28.2205 34.8457 28.2205V28.2169Z" fill="#FFF500"/>
<path d="M35.4083 30.962C36.0043 30.962 36.5943 30.9549 37.1879 30.962C37.6838 30.9692 37.9699 31.2139 37.9794 31.6137C37.9889 32.0135 37.6886 32.3083 37.1796 32.3119C35.994 32.3215 34.8076 32.3215 33.6204 32.3119C33.1055 32.3119 32.8218 32.0338 32.8349 31.6053C32.848 31.1769 33.1126 30.9692 33.6288 30.962C34.2283 30.9549 34.8148 30.962 35.4083 30.962Z" fill="black"/>
<path d="M34.8457 28.2206C35.2474 28.2206 35.649 28.2134 36.0495 28.2206C36.4727 28.2313 36.754 28.4879 36.7719 28.8555C36.7897 29.2231 36.5001 29.5513 36.0674 29.5585C35.2195 29.5752 34.3721 29.5752 33.525 29.5585C33.0828 29.5501 32.817 29.2529 32.8348 28.8507C32.8527 28.4485 33.1114 28.2301 33.55 28.2206C33.9886 28.211 34.4142 28.2206 34.8457 28.2206Z" fill="black"/>
<path d="M23.9296 -2.73932e-05C24.7806 0.119324 25.6353 0.213611 26.4816 0.358026C28.9891 0.794127 31.4013 1.66535 33.6095 2.93243C34.0696 3.195 34.2054 3.54828 34.0052 3.91588C33.8049 4.28348 33.4188 4.36583 32.967 4.11281C30.8169 2.89415 28.4709 2.06051 26.0346 1.6494C25.868 1.6181 25.6981 1.60887 25.5292 1.62195C28.2049 3.5568 30.3302 6.15716 31.6952 9.16613C33.0886 12.1893 33.7334 15.3951 33.9933 18.793C35.2079 17.3691 36.6466 16.542 38.4452 16.4203C40.2439 16.2985 41.8018 16.8905 43.2274 18.059C42.9663 17.177 42.7423 16.2818 42.4347 15.4165C41.1236 11.725 38.9363 8.64695 35.9195 6.15491C35.762 6.04305 35.6166 5.91505 35.4856 5.77298C35.3778 5.65594 35.3179 5.50254 35.3179 5.34332C35.3179 5.18409 35.3778 5.0307 35.4856 4.91365C35.5765 4.79263 35.7085 4.70908 35.8567 4.67874C36.0049 4.6484 36.1591 4.67337 36.2902 4.74895C36.3948 4.80525 36.4925 4.87376 36.581 4.95304C41.36 8.87014 44.1233 13.8984 44.8711 20.0378C44.9629 20.804 44.9688 21.5822 44.9903 22.3544C45.0082 22.882 44.7614 23.1899 44.3562 23.2102C43.9509 23.2305 43.6696 22.9106 43.641 22.3664C43.5289 20.0104 41.8137 18.1043 39.5216 17.7892C38.4148 17.6392 37.2906 17.8829 36.345 18.478C35.3993 19.073 34.6923 19.9816 34.3473 21.0451C34.2209 21.4871 34.141 21.9411 34.1089 22.3998C34.0553 22.9118 33.8169 23.2221 33.4104 23.2149C33.004 23.2078 32.7822 22.9225 32.7489 22.4201C32.5868 20.0128 31.0527 18.2213 28.7522 17.825C27.223 17.5613 25.8737 17.9969 24.7115 19.0269C24.5991 19.1204 24.5101 19.2389 24.4517 19.373C24.3934 19.5071 24.3672 19.653 24.3754 19.7991C24.3865 26.6928 24.3885 33.5865 24.3813 40.4803C24.3813 42.8279 22.9248 44.8163 20.7411 45.499C19.9761 45.738 19.1662 45.7961 18.3749 45.6689C17.5837 45.5417 16.8327 45.2327 16.1808 44.7659C15.529 44.2992 14.9941 43.6875 14.618 42.9789C14.242 42.2703 14.0352 41.4841 14.0137 40.682C14.0053 40.3693 14.0041 40.0566 14.0137 39.7439C14.0435 38.6816 14.7706 37.9775 15.8398 37.9667C16.9089 37.956 17.7147 38.6709 17.7672 39.714C17.7791 39.9527 17.7671 40.1914 17.7743 40.4301C17.7779 40.791 17.9193 41.1368 18.1696 41.3965C18.4199 41.6562 18.76 41.8101 19.12 41.8265C19.4879 41.8479 19.8496 41.725 20.1286 41.484C20.4076 41.2429 20.5819 40.9027 20.6147 40.5352C20.6259 40.3715 20.6287 40.2074 20.6231 40.0434C20.6231 33.3144 20.6271 26.5846 20.635 19.854C20.6432 19.6787 20.6079 19.504 20.5325 19.3455C20.457 19.1871 20.3436 19.0498 20.2023 18.9458C18.6897 17.7021 17.0031 17.3846 15.1961 18.1401C13.3891 18.8956 12.4427 20.3314 12.2615 22.278C12.252 22.3819 12.2543 22.4869 12.2424 22.5895C12.236 22.7561 12.1656 22.9137 12.0459 23.0296C11.9262 23.1454 11.7664 23.2106 11.6 23.2114C11.2543 23.2424 10.9587 22.9727 10.9098 22.5883C10.8645 22.2303 10.8657 21.8722 10.7906 21.5249C10.3019 19.1582 8.10276 17.5744 5.60799 17.7809C3.32896 17.9683 1.44567 19.9793 1.33839 22.3162C1.32767 22.5549 1.2633 22.8521 1.10715 23.0001C0.951007 23.1481 0.645867 23.1899 0.430122 23.1481C0.0987579 23.0837 -0.00613241 22.7901 -0.00732437 22.4583C-0.01686 20.859 0.111867 19.268 0.506406 17.7212C2.78543 8.70782 8.41346 2.99966 17.3905 0.596728C18.4633 0.312672 19.5861 0.245836 20.6863 0.0763572C20.8174 0.0560675 20.9449 0.0250365 21.0748 -0.0012207L23.9296 -2.73932e-05ZM19.5754 1.60524C11.2448 2.56005 3.51967 9.39887 1.84259 18.1282C3.19427 16.9013 4.74501 16.3009 6.54844 16.4227C8.35187 16.5444 9.79533 17.3691 10.9992 18.7858C11.0302 18.5173 11.0564 18.3275 11.0719 18.1377C11.2222 16.2538 11.5523 14.3886 12.0577 12.5676C12.1447 12.2609 12.2841 12.0162 12.6262 11.9578C13.1662 11.867 13.4999 12.3086 13.3676 12.9126C13.1173 14.044 12.8575 15.1802 12.6465 16.3129C12.5178 16.9991 12.4725 17.7009 12.3759 18.5137C14.8111 15.8641 19.0712 15.5729 21.7852 18.5686V1.83798C21.6064 1.93346 21.4765 1.99672 21.3526 2.07668C18.3071 3.90275 16.0662 6.45686 14.5608 9.66741C14.3069 10.2093 13.9565 10.3895 13.5643 10.1961C13.1722 10.0028 13.0875 9.62683 13.3462 9.08139C13.9914 7.69162 14.7993 6.38351 15.7527 5.18458C16.8523 3.81724 18.1392 2.61223 19.5754 1.60524ZM23.2049 18.6331C24.4981 17.1817 26.0215 16.4501 27.8535 16.4107C29.7094 16.3714 31.2494 17.0994 32.5486 18.4504C32.4723 15.4488 31.427 10.5733 28.9263 7.00349C27.4399 4.85951 25.4827 3.0851 23.2049 1.8165V18.6331ZM21.9628 38.2997C21.9628 39.0671 21.9831 39.7952 21.9628 40.522C21.937 41.2439 21.6292 41.9269 21.1055 42.4237C20.5818 42.9206 19.8843 43.1918 19.1629 43.1788C18.4498 43.1738 17.7664 42.8915 17.2572 42.3916C16.7479 41.8917 16.4525 41.2132 16.4333 40.4994C16.4262 40.2463 16.4453 39.9909 16.4143 39.7415C16.4102 39.6737 16.3923 39.6075 16.3618 39.5469C16.3313 39.4862 16.2887 39.4325 16.2367 39.3889C16.1847 39.3453 16.1244 39.3128 16.0594 39.2934C15.9944 39.274 15.9262 39.2681 15.8588 39.276C15.5442 39.2856 15.3665 39.4634 15.3618 39.7868C15.3618 40.084 15.3558 40.3836 15.3618 40.6784C15.4142 42.6011 16.9018 44.173 18.8638 44.3783C20.7018 44.5728 22.5755 43.2671 22.9164 41.4196C23.1 40.411 23.0356 39.3584 23.0881 38.2985L21.9628 38.2997ZM23.013 36.8973V23.135H21.9962V36.8973H23.013Z" fill="black"/>
</g>
<defs>
<clipPath id="clip0_336_240">
<rect width="45" height="45.7377" fill="white"/>
</clipPath>
<clipPath id="clip1_336_240">
<rect width="45" height="45.7377" fill="white"/>
</clipPath>
</defs>
</svg>
