<svg width="37" height="37" viewBox="0 0 37 37" fill="none" xmlns="http://www.w3.org/2000/svg">
<g clip-path="url(#clip0_919_25)">
<path d="M9.6678 36.6079C9.04691 36.3748 8.91509 35.8724 8.97145 35.24H8.55879C6.91486 35.24 5.26996 35.24 3.62603 35.24C1.46914 35.24 0.0152951 33.7814 0.0152951 31.6274C0.0152951 23.7984 0.0152951 15.9697 0.0152951 8.14135C0.00641985 8.02271 0.0115471 7.90344 0.0305761 7.78601C0.0983968 7.51281 0.275118 7.35234 0.567416 7.35998C0.68854 7.35681 0.806626 7.39811 0.899376 7.47608C0.992125 7.55404 1.05311 7.66328 1.07081 7.78314C1.09158 7.92447 1.09702 8.06763 1.08705 8.21013C1.08705 15.9914 1.08705 23.7723 1.08705 31.5529C1.08705 33.2188 2.03368 34.1673 3.69958 34.1673C5.42662 34.1673 7.15461 34.1673 8.88261 34.1673C8.97951 34.1725 9.07625 34.1544 9.16479 34.1147C9.25333 34.075 9.33114 34.0148 9.39174 33.939C9.62905 33.6931 9.90135 33.4835 10.1999 33.3172C10.367 33.2216 10.4549 33.1404 10.4368 32.9437C10.3279 31.7974 11.2611 30.7572 12.6338 30.7935C14.6716 30.847 16.7094 30.847 18.7472 30.7935C20.1666 30.7552 21.076 31.8289 20.9652 33.0057C20.9595 33.064 20.9652 33.1242 20.9652 33.2073C21.4715 33.3878 21.8908 33.6849 22.1697 34.152C22.1905 34.1784 22.2169 34.1998 22.2469 34.2147C22.277 34.2295 22.31 34.2375 22.3436 34.238C22.8651 34.2227 23.401 34.2638 23.9063 34.1616C25.0383 33.9323 25.7967 32.8166 25.6515 31.6684C25.5273 31.678 25.4012 31.6885 25.2752 31.6971C25.055 31.7197 24.8326 31.6931 24.6239 31.6192C24.4153 31.5454 24.2257 31.4262 24.0687 31.2701C22.2481 29.4514 20.4287 27.6307 18.6106 25.8082C18.1874 25.3831 18.0948 24.8606 18.2409 24.2874C18.3713 23.7617 18.7026 23.308 19.1637 23.0239C19.6249 22.7397 20.1791 22.6477 20.7073 22.7677C20.7714 22.7787 20.8371 22.7759 20.9001 22.7595C20.963 22.743 21.0217 22.7132 21.0722 22.6722C22.5814 21.182 24.0821 19.6833 25.5741 18.1759C25.6515 18.0986 25.6697 17.9362 25.6697 17.813C25.6697 17.5656 25.6152 17.3191 25.6143 17.0717C25.6095 14.8948 25.6143 12.7178 25.6143 10.4807H25.2092C23.1237 10.4807 21.0384 10.4807 18.9535 10.4807C17.194 10.4807 16.1834 9.46911 16.1834 7.71054V1.10997C15.5921 1.10997 15.0256 1.10997 14.4592 1.10997C10.8249 1.09787 7.1906 1.08577 3.5563 1.07367C2.0843 1.07367 1.09374 2.06901 1.08992 3.54196C1.08992 4.11509 1.08992 4.68823 1.08992 5.26136C1.08992 5.67497 0.879769 5.93001 0.551173 5.92428C0.222577 5.91855 0.0181587 5.67115 0.0191139 5.25563C0.0191139 4.50482 -0.0353302 3.74638 0.0525502 3.00608C0.261744 1.23988 1.69649 0.00764177 3.48561 0.00477611C7.4173 -0.00159203 11.3493 -0.00159203 15.2816 0.00477611H15.7822C16.1408 -0.00357179 16.4975 0.0606653 16.8307 0.193627C17.164 0.326588 17.4669 0.525531 17.7213 0.778506C20.4755 3.50089 23.2268 6.22613 25.9753 8.95424C26.2314 9.20529 26.4331 9.50627 26.568 9.83852C26.7029 10.1708 26.7681 10.5272 26.7596 10.8857V15.4497C26.8866 15.4144 26.986 15.3857 27.0863 15.3542C27.7291 15.1851 28.2956 15.2874 28.7913 15.7822C30.5327 17.5455 32.2855 19.2974 34.0336 21.0559C34.6468 21.673 34.75 22.4467 34.3278 23.208C33.8932 23.9913 32.9714 24.467 32.2072 24.2531C31.9311 24.1757 31.7764 24.2359 31.5978 24.4298C31.357 24.6925 31.0858 24.9265 30.8011 25.194C31.4965 25.7451 32.1566 26.2695 32.8185 26.793C33.5751 27.3919 34.3211 28.0052 35.0929 28.5831C35.7816 29.0989 36.3739 29.6749 36.6289 30.526V31.3131C36.3643 31.7974 36.179 32.3533 35.8189 32.7517C35.1636 33.4795 34.3469 33.9887 33.2904 33.7327C32.5702 33.5579 32.0802 33.044 31.6388 32.4909C30.8193 31.4535 30.0054 30.4123 29.1877 29.373C28.8228 28.9088 28.456 28.4455 28.0625 27.9479C27.7463 28.2726 27.4483 28.564 27.1722 28.8744C27.1436 28.9195 27.1247 28.9701 27.1168 29.0229C27.1089 29.0757 27.1122 29.1296 27.1264 29.181C27.242 29.6013 27.2611 30.0407 27.0309 30.3951C26.73 30.8555 26.7643 31.337 26.7615 31.828C26.75 33.8416 25.2685 35.3155 23.253 35.3193H22.3933C22.5021 35.9421 22.2863 36.3624 21.7513 36.605H14.6732C14.5461 36.4445 14.3513 36.3013 14.3073 36.1217C14.2194 35.7654 14.4984 35.5314 14.9569 35.5304C16.9444 35.5304 18.9319 35.5304 20.9193 35.5304H21.3014C21.4409 34.7223 21.1104 34.2389 20.4179 34.237C17.2758 34.2294 14.1341 34.2294 10.9927 34.237C10.2877 34.237 9.89992 34.8197 10.1129 35.5304C10.7816 35.5304 11.4627 35.5352 12.1409 35.5304C12.4494 35.5304 12.7216 35.5791 12.821 35.9125C12.9203 36.2459 12.7341 36.4531 12.4609 36.6041L9.6678 36.6079ZM31.0495 23.3953C30.5346 22.8947 30.0188 22.3999 29.5116 21.8975C29.2078 21.5966 29.1772 21.2938 29.4074 21.054C29.6377 20.8143 29.9557 20.8305 30.2757 21.1495C30.8833 21.7552 31.486 22.3665 32.0907 22.9712C32.4536 23.3332 32.8109 23.3141 33.2016 22.9215C33.5693 22.5518 33.5904 22.1401 33.2522 21.8001C31.5328 20.0666 29.8105 18.3345 28.0854 16.6037C27.732 16.2493 27.348 16.2674 26.9697 16.6476C26.6535 16.9657 26.5351 17.4423 26.9048 17.7757C27.3986 18.2228 27.8504 18.7166 28.3233 19.1875C28.5057 19.37 28.6041 19.5696 28.499 19.8304C28.3443 20.2125 27.9154 20.2793 27.5916 19.967C27.2095 19.5983 26.8398 19.2152 26.5122 18.8857L21.8316 23.5663L26.3517 28.0921L31.0495 23.3953ZM24.6428 9.4137L17.2542 1.80728V2.23331C17.2542 4.09217 17.2542 5.95071 17.2542 7.80893C17.2542 8.85203 17.8187 9.41084 18.878 9.41275C19.9746 9.41275 21.0709 9.41275 22.1669 9.41275L24.6428 9.4137ZM28.8515 27.2181C30.1535 28.8706 31.4449 30.5184 32.7459 32.1585C33.0144 32.4966 33.3668 32.7125 33.8206 32.7029C34.4481 32.6905 35.2458 32.0391 35.476 31.3542C35.667 30.7753 35.476 30.2738 34.8579 29.7828C33.3672 28.6003 31.8741 27.4196 30.3789 26.2409C30.2719 26.1559 30.1611 26.0737 30.0656 26.0021L28.8515 27.2181ZM26.1167 29.6004C26.0618 29.4796 25.9908 29.3668 25.9056 29.2651C24.1518 27.5018 22.3923 25.7432 20.6271 23.9894C20.5187 23.8833 20.3803 23.8133 20.2306 23.7888C19.8896 23.7477 19.4951 24.0486 19.3194 24.424C19.1579 24.7689 19.3098 25.0039 19.5486 25.2417C21.2534 26.9382 22.953 28.6388 24.6476 30.3435C24.8931 30.591 25.1338 30.7113 25.4691 30.569C25.657 30.4845 25.8174 30.3489 25.9319 30.1776C26.0464 30.0064 26.1105 29.8063 26.1167 29.6004ZM11.5458 33.1347H19.8667C19.9622 32.2597 19.6241 31.8795 18.7825 31.8786C16.7129 31.8786 14.6432 31.8786 12.5736 31.8786C11.7664 31.8843 11.4178 32.3046 11.5458 33.1395V33.1347Z" fill="black"/>
<path d="M11.5592 19.114H5.59383C5.46311 19.1183 5.33224 19.1135 5.20218 19.0997C5.08212 19.0893 4.9702 19.0346 4.88813 18.9464C4.80606 18.8582 4.75969 18.7426 4.75801 18.6221C4.7411 18.5009 4.77129 18.3779 4.84238 18.2784C4.91347 18.1789 5.02003 18.1104 5.1401 18.0871C5.27898 18.0566 5.42116 18.0438 5.56326 18.0489C9.57519 18.0489 13.5871 18.0489 17.599 18.0489C17.7179 18.0444 17.8369 18.0515 17.9544 18.0699C18.2543 18.1292 18.4138 18.3193 18.3947 18.6249C18.3766 18.9115 18.2037 19.0796 17.9171 19.1102C17.7865 19.1205 17.6555 19.1237 17.5245 19.1197L11.5592 19.114Z" fill="black"/>
<path d="M10.4817 27.6937H5.58903C5.45828 27.6982 5.32739 27.6931 5.19739 27.6784C5.07664 27.6665 4.96466 27.61 4.88339 27.5199C4.80212 27.4298 4.75741 27.3126 4.75799 27.1913C4.74213 27.0707 4.77282 26.9487 4.84381 26.85C4.91481 26.7513 5.02076 26.6834 5.14008 26.6602C5.2794 26.6305 5.42184 26.618 5.5642 26.6229C8.86162 26.6229 12.159 26.6229 15.4565 26.6229C15.5871 26.6177 15.7179 26.6279 15.8462 26.6535C15.9718 26.6739 16.0842 26.7431 16.1591 26.8459C16.2341 26.9487 16.2654 27.0769 16.2464 27.2027C16.2467 27.3241 16.2007 27.4411 16.1179 27.5298C16.035 27.6185 15.9215 27.6723 15.8003 27.6803C15.6824 27.6934 15.5636 27.6979 15.445 27.6937H10.4817Z" fill="black"/>
<path d="M9.89986 23.4067H5.71886C5.58806 23.4121 5.45704 23.4063 5.32721 23.3895C5.05402 23.3408 4.87539 23.1412 4.91455 22.8928C4.94417 22.7018 5.11802 22.5184 5.27563 22.3866C5.36542 22.3111 5.54882 22.3369 5.69019 22.3369C8.50109 22.3369 11.3123 22.3369 14.1238 22.3369C14.2428 22.3327 14.3619 22.341 14.4792 22.3617C14.6055 22.3784 14.7202 22.444 14.7986 22.5444C14.877 22.6448 14.9129 22.772 14.8985 22.8986C14.8871 23.1851 14.7256 23.359 14.4372 23.3972C14.3187 23.4075 14.1997 23.4107 14.0809 23.4067H9.89986Z" fill="black"/>
<path d="M9.52267 10.5332C8.24904 10.5332 6.97541 10.5332 5.70178 10.5332C5.5828 10.5372 5.46368 10.5321 5.34548 10.5179C5.22461 10.5067 5.11224 10.4509 5.03029 10.3614C4.94834 10.2718 4.90269 10.155 4.90226 10.0336C4.88752 9.91313 4.91864 9.79153 4.98943 9.69296C5.06022 9.59439 5.16549 9.52605 5.28435 9.50153C5.42399 9.4718 5.56674 9.45929 5.70942 9.46427C8.26941 9.46427 10.83 9.46427 13.3913 9.46427C13.5219 9.45869 13.6528 9.46863 13.781 9.49389C13.907 9.5141 14.0198 9.58328 14.095 9.68635C14.1701 9.78941 14.2015 9.918 14.1822 10.0441C14.1825 10.1653 14.1367 10.2821 14.054 10.3708C13.9714 10.4595 13.8581 10.5135 13.7371 10.5217C13.6188 10.5348 13.4997 10.5393 13.3808 10.5351C12.0957 10.5351 10.8097 10.5344 9.52267 10.5332Z" fill="black"/>
<path d="M9.16542 14.8231H5.55851C5.43955 14.827 5.32047 14.8222 5.2022 14.8088C5.0823 14.798 4.97063 14.7432 4.88864 14.6551C4.80665 14.5669 4.76013 14.4516 4.75803 14.3312C4.74318 14.2103 4.77417 14.0882 4.84489 13.989C4.91562 13.8898 5.02096 13.8207 5.14012 13.7953C5.24327 13.7682 5.34965 13.7553 5.4563 13.7571C7.95579 13.7571 10.4556 13.7571 12.9557 13.7571C13.0627 13.7547 13.1693 13.7689 13.2719 13.7991C13.3887 13.8303 13.4897 13.904 13.5549 14.0058C13.6201 14.1076 13.6449 14.2302 13.6244 14.3493C13.6209 14.4644 13.576 14.5744 13.4979 14.659C13.4198 14.7436 13.3138 14.7971 13.1993 14.8098C13.0812 14.8255 12.9621 14.8313 12.843 14.8269L9.16542 14.8231Z" fill="black"/>
<path d="M18.5341 14.8231C17.6057 14.8231 16.6781 14.8231 15.7497 14.8231C15.3112 14.8231 15.081 14.6445 15.0762 14.3092C15.0715 13.974 15.3074 13.7543 15.7516 13.7533C17.62 13.7533 19.4884 13.7533 21.3568 13.7533C21.8612 13.7533 22.142 14.1096 21.971 14.4993C21.8516 14.7716 21.6224 14.826 21.354 14.8251C20.414 14.8212 19.4741 14.8231 18.5341 14.8231Z" fill="black"/>
</g>
<defs>
<clipPath id="clip0_919_25">
<rect width="36.6241" height="36.6079" fill="white"/>
</clipPath>
</defs>
</svg>
