<svg width="40" height="40" viewBox="0 0 40 40" fill="none" xmlns="http://www.w3.org/2000/svg">
<g clip-path="url(#clip0_336_221)">
<path d="M15.3305 38.5997V29.3301H16.6294V40C15.6935 39.9519 14.7416 40.004 13.8311 39.8323C12.4179 39.5651 11.3577 38.2161 11.345 36.7717C11.3196 34.4136 11.3225 32.0558 11.3537 29.6982C11.3603 29.141 11.5194 28.5865 11.6211 27.9724H11.0996C9.46249 27.9724 7.82401 27.9724 6.18687 27.9724C3.35781 27.9778 1.33962 29.9982 1.34764 32.8317C1.34764 33.884 1.30754 34.9477 1.44324 35.9853C1.61304 37.2834 2.82435 38.4032 4.00825 38.5141V31.3338H5.32585V38.6103H11.3102V39.9579H10.885C8.85862 39.9579 6.83242 39.9579 4.80644 39.9579C2.02884 39.9526 0.0106605 37.9309 0.0146715 35.1474C0.0146715 34.039 -0.0421544 32.9186 0.0942183 31.8249C0.260763 30.4327 0.92175 29.1466 1.95694 28.2003C2.99214 27.2541 4.33276 26.7107 5.73497 26.6689C7.84073 26.6061 9.95049 26.6943 12.0589 26.7003C12.1348 26.6961 12.2091 26.6764 12.2771 26.6425C12.3451 26.6086 12.4056 26.5612 12.4547 26.5032C13.7108 24.8095 15.396 23.9857 17.4951 23.9811C19.1601 23.9775 20.8256 23.9775 22.4914 23.9811C24.5872 23.9871 26.2751 24.8082 27.5406 26.4946C27.6302 26.6141 27.8528 26.6917 28.0139 26.695C30.246 26.7077 32.4868 26.5801 34.7082 26.7351C37.5633 26.9355 39.8402 29.4136 39.9632 32.2732C40.018 33.5426 40.0374 34.8334 39.8856 36.0922C39.6249 38.2542 37.6622 39.9279 35.4856 39.9539C33.2936 39.9807 31.1003 39.962 28.9076 39.962C28.8408 39.962 28.7739 39.9519 28.6837 39.9446V38.6437H34.6527V31.3218H35.9743V38.5141C37.1522 38.4199 38.3541 37.2861 38.5574 35.9906C38.6743 35.2443 38.6509 34.472 38.6449 33.7116C38.6396 33.0068 38.661 32.2845 38.5152 31.6024C38.3083 30.608 37.7732 29.7118 36.9958 29.0576C36.2185 28.4034 35.2438 28.029 34.2282 27.9945C32.343 27.9277 30.4545 27.9791 28.5667 27.9798C28.5116 27.9834 28.4569 27.9926 28.4036 28.0072C28.899 30.9436 28.6095 33.8867 28.6356 36.8117C28.6503 38.5101 27.1649 39.9018 25.4689 39.9519C24.7764 39.9713 24.0831 39.9553 23.3598 39.9553V29.3321H24.6453V38.5676C26.2283 38.8696 27.3253 37.9743 27.326 36.4296C27.326 34.3361 27.326 32.2427 27.326 30.1492C27.326 27.3471 25.3005 25.3233 22.4955 25.3167C20.8305 25.3135 19.1652 25.3135 17.4998 25.3167C14.6874 25.3267 12.6759 27.3391 12.6706 30.1472C12.6659 32.1723 12.7254 34.1994 12.6505 36.2218C12.5944 37.6269 13.4454 38.8455 15.3305 38.5997Z" fill="black"/>
<path d="M36.0031 21.9432V20.6737C36.5285 20.5709 36.6655 20.2061 36.6568 19.7036C36.6361 18.5391 36.6515 17.3732 36.6495 16.208C36.6495 15.5399 36.4269 15.3194 35.7437 15.3181C34.7309 15.3181 33.7175 15.3247 32.7047 15.308C32.5777 15.308 32.3644 15.1965 32.3404 15.1002C31.9879 13.6873 31.4079 12.341 30.623 11.1142C31.4112 10.3318 32.1886 9.56282 32.9627 8.79114C33.5203 8.23526 33.5183 7.97001 32.9581 7.40879C32.1443 6.59367 31.3303 5.779 30.5161 4.96478C30.0535 4.50378 29.7333 4.50043 29.2767 4.95276C28.5574 5.66631 27.8361 6.37787 27.1301 7.10345C26.949 7.28986 26.8166 7.34865 26.5733 7.19499C25.4696 6.4972 24.2559 5.99076 22.9835 5.69705C22.6994 5.63024 22.6492 5.49661 22.6532 5.24005C22.6666 4.21381 22.6619 3.18757 22.6579 2.16066C22.6579 1.58874 22.4179 1.33953 21.8557 1.33686C20.6203 1.33018 19.385 1.33018 18.1496 1.33686C17.5633 1.33686 17.332 1.58407 17.3307 2.18672C17.328 3.21118 17.328 4.23764 17.3307 5.26611C17.3307 5.4445 17.3608 5.60551 17.0974 5.66698C15.6932 5.99963 14.356 6.56901 13.1432 7.35066C13.0296 7.24376 12.92 7.14488 12.8157 7.04132C12.0977 6.32642 11.3851 5.60618 10.6625 4.89663C10.2787 4.51981 9.9231 4.52382 9.54139 4.90131C8.65452 5.78056 7.771 6.66316 6.89082 7.54909C6.50576 7.93727 6.5091 8.26733 6.90084 8.66219C7.71172 9.47931 8.52929 10.2891 9.3502 11.1082C9.09551 11.5759 8.81541 12.0068 8.61486 12.4752C8.2897 13.2235 8.00758 13.9897 7.76988 14.7702C7.64889 15.1838 7.51385 15.3521 7.05526 15.3307C6.11335 15.2867 5.16811 15.3154 4.22486 15.3181C3.56907 15.3181 3.34178 15.5439 3.34045 16.1866C3.34045 17.3794 3.34045 18.5723 3.34045 19.7651C3.34045 20.335 3.44072 20.4746 3.99289 20.6871V21.9198C3.057 22.0534 2.0576 21.1989 2.02551 20.1573C1.98073 18.7161 1.98407 17.2717 2.02551 15.8305C2.05359 14.7989 2.9467 14.0105 4.02498 13.9885C4.77436 13.9738 5.52374 13.9811 6.27379 13.9885C6.471 13.9885 6.59534 13.9611 6.67489 13.7399C6.97437 12.9382 7.30328 12.1451 7.64755 11.2832C7.14685 10.7868 6.59467 10.243 6.04317 9.69511C5.00232 8.65417 5.00299 7.54308 6.04317 6.5008C6.87923 5.66832 7.71574 4.83583 8.55269 4.00335C9.50864 3.05528 10.6919 3.05261 11.6458 3.994C12.1398 4.48106 12.6379 4.96478 13.1125 5.46989C13.2916 5.6603 13.4267 5.65095 13.6473 5.55073C14.3278 5.24272 15.017 4.94942 15.7156 4.68684C15.9422 4.60132 16.0077 4.49843 16.0037 4.27127C15.9917 3.53633 15.9944 2.80139 16.0004 2.06645C16.0117 0.876523 16.854 0.0219904 18.0493 0.00996411C19.3417 -0.00250757 20.6326 -0.00250757 21.9219 0.00996411C23.1412 0.019986 23.9829 0.87051 23.9942 2.08717C24.0002 2.80807 24.0043 3.52965 23.9902 4.25056C23.9855 4.49375 24.0571 4.60466 24.2977 4.69553C24.9976 4.95476 25.6855 5.24272 26.3614 5.56209C26.6034 5.675 26.7277 5.6289 26.8962 5.45786C27.3875 4.94942 27.8902 4.45033 28.3949 3.95524C29.2834 3.08334 30.48 3.06597 31.3677 3.93186C32.2911 4.83249 33.2036 5.7456 34.1052 6.67117C34.9355 7.5237 34.9315 8.67956 34.1052 9.53877C33.5865 10.0793 33.0543 10.6078 32.5142 11.1262C32.3451 11.2886 32.3324 11.4075 32.4313 11.622C32.7421 12.3008 33.0329 12.989 33.3003 13.6878C33.3906 13.927 33.5009 14.0039 33.7435 13.9992C34.4508 13.9845 35.1587 13.9898 35.8667 13.9952C37.1368 14.0045 37.9818 14.8424 37.9865 16.1084C37.9912 17.412 37.9992 18.7141 37.9825 20.0197C37.9664 21.1254 37.0486 22.0113 36.0031 21.9432Z" fill="black"/>
<path d="M29.3469 17.9633H28.0099C27.9063 15.3028 26.844 13.1187 24.6848 11.5259C23.168 10.4068 21.4419 9.90967 19.5628 10.0112C15.5572 10.2284 12.1051 13.4273 11.9787 17.9532H10.6584C10.7587 14.8444 11.968 12.2869 14.5023 10.4829C17.6255 8.25873 21.0041 8.0015 24.396 9.79542C27.5981 11.4931 29.155 14.3073 29.3469 17.9633Z" fill="black"/>
<path d="M19.9979 23.3089C19.4736 23.3099 18.9542 23.2076 18.4694 23.0079C17.9846 22.8083 17.544 22.5151 17.1726 22.1452C16.8011 21.7753 16.5063 21.3359 16.3048 20.8521C16.1033 20.3683 15.9992 19.8496 15.9983 19.3256C16.0016 18.2671 16.423 17.2528 17.1708 16.5033C17.9186 15.7539 18.9322 15.3298 19.9912 15.3235C21.0501 15.3275 22.0646 15.7495 22.8137 16.4976C23.5628 17.2456 23.9859 18.2592 23.9908 19.3175C23.9906 20.3759 23.5699 21.391 22.8212 22.1394C22.0724 22.8879 21.0569 23.3086 19.9979 23.3089ZM19.9584 21.9773C20.3089 21.9832 20.657 21.9196 20.9827 21.7903C21.3085 21.661 21.6054 21.4686 21.8563 21.224C22.1072 20.9795 22.3073 20.6878 22.4448 20.3656C22.5824 20.0434 22.6548 19.6972 22.6578 19.3469C22.6621 18.6392 22.3859 17.9586 21.8896 17.4539C21.3933 16.9491 20.7173 16.6612 20.0093 16.6531C19.3087 16.6534 18.6362 16.9278 18.1355 17.4176C17.6349 17.9073 17.346 18.5735 17.3306 19.2734C17.3241 19.6238 17.3871 19.972 17.5159 20.2979C17.6448 20.6238 17.8368 20.921 18.0811 21.1723C18.3254 21.4237 18.6171 21.6242 18.9393 21.7624C19.2615 21.9006 19.6079 21.9736 19.9584 21.9773Z" fill="black"/>
<path d="M8.64976 25.9727C8.12523 25.9706 7.60626 25.8652 7.12249 25.6626C6.63872 25.46 6.19964 25.1641 5.83032 24.7918C5.46101 24.4195 5.1687 23.9782 4.97011 23.4929C4.77151 23.0077 4.67052 22.4882 4.67289 21.9639C4.68091 19.7718 6.49788 17.9712 8.68787 17.9846C9.74711 17.9934 10.7599 18.4206 11.5051 19.1731C12.2502 19.9255 12.6674 20.942 12.6654 22.0007C12.6597 23.0596 12.2335 24.0728 11.4805 24.8177C10.7274 25.5626 9.70923 25.978 8.64976 25.9727ZM8.63505 24.6411C8.98551 24.6467 9.33361 24.5829 9.65928 24.4533C9.98494 24.3238 10.2817 24.1311 10.5325 23.8864C10.7834 23.6417 10.9832 23.3498 11.1206 23.0275C11.258 22.7053 11.3302 22.359 11.3331 22.0087C11.3363 21.3012 11.0593 20.6211 10.5626 20.117C10.0658 19.6129 9.38972 19.3257 8.68185 19.3181C7.98179 19.3197 7.31012 19.595 6.81044 20.085C6.31076 20.5751 6.02271 21.241 6.00787 21.9405C6.00195 22.2905 6.06531 22.6383 6.19432 22.9637C6.32332 23.2891 6.51542 23.5859 6.75958 23.8368C7.00373 24.0878 7.29512 24.2881 7.61698 24.4261C7.93885 24.5641 8.28483 24.6372 8.63505 24.6411Z" fill="black"/>
<path d="M31.3209 25.9727C30.7965 25.9733 30.277 25.8706 29.7923 25.6706C29.3076 25.4705 28.8671 25.1769 28.4959 24.8066C28.1247 24.4363 27.8302 23.9966 27.6291 23.5125C27.428 23.0284 27.3243 22.5095 27.324 21.9853C27.3287 20.9274 27.7511 19.9142 28.4993 19.1659C29.2476 18.4176 30.2611 17.9947 31.3196 17.9893C32.3787 17.993 33.3934 18.4152 34.1422 19.1638C34.891 19.9125 35.3131 20.9268 35.3165 21.9853C35.3151 23.0434 34.8935 24.0577 34.1443 24.8054C33.3951 25.553 32.3796 25.9729 31.3209 25.9727ZM31.3089 24.6411C31.6592 24.6437 32.0066 24.5769 32.331 24.4446C32.6554 24.3123 32.9504 24.1172 33.199 23.8704C33.4475 23.6237 33.6448 23.3302 33.7793 23.0069C33.9139 22.6835 33.983 22.3368 33.9828 21.9867C33.9804 21.279 33.6977 20.6011 33.1967 20.1011C32.6956 19.601 32.0169 19.3196 31.3089 19.3182C30.6084 19.3249 29.9384 19.6055 29.4423 20.0999C28.9463 20.5943 28.6637 21.2632 28.6549 21.9633C28.6519 22.3137 28.7182 22.6612 28.8502 22.9858C28.9821 23.3104 29.1771 23.6057 29.4238 23.8547C29.6705 24.1036 29.9641 24.3013 30.2877 24.4363C30.6112 24.5712 30.9583 24.6409 31.3089 24.6411Z" fill="black"/>
<path d="M22.6379 38.6544V39.9372H17.3635V38.6544H22.6379Z" fill="black"/>
<path d="M19.9586 21.9774C19.6082 21.9736 19.262 21.9006 18.9399 21.7626C18.6178 21.6246 18.3263 21.4242 18.082 21.1731C17.8377 20.9219 17.6456 20.625 17.5167 20.2993C17.3877 19.9736 17.3245 19.6257 17.3307 19.2755C17.3456 18.5751 17.6343 17.9085 18.135 17.4183C18.6357 16.9281 19.3085 16.6534 20.0094 16.6531C20.7174 16.6612 21.3935 16.9491 21.8898 17.4539C22.3861 17.9587 22.6623 18.6393 22.658 19.347C22.6549 19.6972 22.5825 20.0434 22.445 20.3656C22.3074 20.6878 22.1074 20.9795 21.8564 21.2241C21.6055 21.4686 21.3086 21.6611 20.9829 21.7904C20.6571 21.9196 20.309 21.9832 19.9586 21.9774Z" fill="#FFFF00"/>
<path d="M8.63487 24.6412C8.28443 24.6376 7.93815 24.5648 7.61598 24.4269C7.2938 24.2891 7.0021 24.0889 6.75767 23.8379C6.51323 23.5869 6.32089 23.29 6.19171 22.9644C6.06254 22.6388 5.99909 22.2908 6.00502 21.9406C6.01986 21.2411 6.3079 20.5751 6.80759 20.0851C7.30727 19.5951 7.97893 19.3198 8.67899 19.3182C9.38687 19.3258 10.063 19.613 10.5597 20.1171C11.0565 20.6212 11.3335 21.3013 11.3302 22.0088C11.3274 22.3588 11.2552 22.7049 11.118 23.027C10.9808 23.3491 10.7812 23.6409 10.5306 23.8855C10.2801 24.1302 9.98363 24.3229 9.65827 24.4526C9.33292 24.5823 8.98511 24.6464 8.63487 24.6412Z" fill="#FFFF00"/>
<path d="M31.309 24.6412C30.9586 24.6407 30.6117 24.5709 30.2884 24.4358C29.9651 24.3007 29.6718 24.103 29.4253 23.854C29.1787 23.6051 28.984 23.3099 28.8521 22.9854C28.7203 22.6609 28.654 22.3136 28.6571 21.9633C28.6658 21.2633 28.9484 20.5944 29.4445 20.1C29.9405 19.6056 30.6105 19.325 31.311 19.3182C32.0191 19.3196 32.6978 19.6011 33.1988 20.1011C33.6999 20.6012 33.9825 21.2791 33.985 21.9867C33.9852 22.3371 33.9159 22.684 33.7813 23.0074C33.6466 23.3309 33.4492 23.6245 33.2004 23.8712C32.9516 24.118 32.6564 24.3131 32.3317 24.4453C32.0071 24.5774 31.6595 24.644 31.309 24.6412Z" fill="#FFFF00"/>
</g>
<defs>
<clipPath id="clip0_336_221">
<rect width="40" height="40" fill="white"/>
</clipPath>
</defs>
</svg>
