<svg width="43" height="43" viewBox="0 0 43 43" fill="none" xmlns="http://www.w3.org/2000/svg">
<g clip-path="url(#clip0_920_89)">
<path d="M16.4811 41.4945V31.5297H17.8766V42.9999C16.8706 42.9482 15.848 43.0042 14.8685 42.8197C13.35 42.5324 12.2095 41.0822 12.1959 39.5294C12.1686 36.995 12.1717 34.4604 12.2052 31.9255C12.2131 31.3265 12.3834 30.7303 12.4927 30.0703H11.9321C10.1715 30.0703 8.41084 30.0703 6.65091 30.0703C3.60967 30.076 1.4394 32.248 1.44803 35.294C1.44803 36.4252 1.40563 37.5686 1.55151 38.6841C1.73332 40.0796 3.0362 41.2833 4.3089 41.4026V33.6837H5.7246V41.506H12.1585V42.954H11.7022C9.52376 42.954 7.34559 42.954 5.16766 42.954C2.18175 42.9482 0.0114844 40.7748 0.0157962 37.7827C0.0157962 36.5911 -0.0452916 35.3866 0.101309 34.2109C0.280487 32.7144 0.99109 31.3319 2.10389 30.3147C3.21669 29.2975 4.65779 28.7133 6.16512 28.6683C8.4288 28.6008 10.6975 28.6956 12.9634 28.702C13.0453 28.697 13.1254 28.6753 13.1987 28.6383C13.272 28.6012 13.3369 28.5496 13.3895 28.4866C14.7398 26.6658 16.5515 25.7802 18.808 25.7752C20.5983 25.7719 22.3885 25.7719 24.1783 25.7752C26.4319 25.7817 28.2465 26.6644 29.6061 28.4772C29.7032 28.6058 29.9417 28.6927 30.1149 28.6927C32.5144 28.7063 34.9233 28.5692 37.3113 28.7358C40.3813 28.9513 42.8289 31.6152 42.9605 34.6892C43.0194 36.0539 43.0409 37.4415 42.8778 38.7947C42.5968 41.1189 40.4869 42.918 38.1478 42.9461C35.7907 42.9748 33.4336 42.9547 31.0765 42.9547C31.0046 42.9547 30.9327 42.9439 30.835 42.936V41.5419H37.2517V33.6708H38.6724V41.4026C39.9393 41.3013 41.2307 40.0825 41.4492 38.6898C41.5749 37.8875 41.5505 37.0573 41.544 36.2399C41.5376 35.4822 41.5606 34.7058 41.4046 33.9724C41.182 32.9035 40.6068 31.9402 39.7711 31.237C38.9355 30.5337 37.8878 30.1312 36.796 30.094C34.7695 30.0221 32.7387 30.0774 30.71 30.0782C30.6507 30.082 30.5919 30.0918 30.5346 30.1076C31.0671 33.2678 30.756 36.4281 30.7833 39.5725C30.7991 41.3983 29.2023 42.8943 27.3791 42.9482C26.6346 42.969 25.8894 42.9518 25.1118 42.9518V31.5319H26.4938V41.4579C28.1962 41.7825 29.3747 40.8201 29.3762 39.1595C29.3762 36.9091 29.3762 34.6586 29.3762 32.4081C29.3762 29.3958 27.1987 27.2203 24.1834 27.2131C22.393 27.2098 20.6031 27.2098 18.8137 27.2131C15.7905 27.2239 13.6281 29.3872 13.6216 32.406C13.6173 34.5829 13.6813 36.7621 13.6001 38.9362C13.539 40.4488 14.4538 41.7588 16.4811 41.4945Z" fill="black"/>
<path d="M38.7041 23.5889V22.2278C39.269 22.1172 39.4163 21.7251 39.4062 21.185C39.3847 19.9331 39.4012 18.6798 39.399 17.4271C39.399 16.7089 39.1597 16.4719 38.4253 16.4705C37.3358 16.4705 36.2464 16.4776 35.1577 16.4597C35.0211 16.4597 34.7919 16.3397 34.7667 16.2363C34.3872 14.7176 33.7638 13.2705 32.9206 11.9513C33.7671 11.1103 34.6029 10.2836 35.4358 9.45403C36.0351 8.85645 36.033 8.57131 35.4315 7.968C34.5571 7.09175 33.6818 6.21598 32.8056 5.34069C32.3083 4.84511 31.9641 4.84152 31.4732 5.32777C30.7 6.09484 29.9253 6.85976 29.1657 7.63976C28.971 7.84015 28.8294 7.90336 28.5671 7.73816C27.3809 6.98805 26.0764 6.44363 24.7088 6.12788C24.4026 6.05606 24.3495 5.91241 24.3538 5.63661C24.3674 4.5334 24.3624 3.43019 24.3581 2.32626C24.3581 1.71145 24.1001 1.44355 23.4957 1.44068C22.1677 1.4335 20.8399 1.4335 19.5123 1.44068C18.8821 1.44068 18.6335 1.70643 18.6313 2.35427C18.6313 3.45748 18.6313 4.56141 18.6313 5.66462C18.6313 5.85639 18.6644 6.02948 18.3812 6.09556C16.8711 6.45268 15.433 7.06426 14.1284 7.90407C14.0069 7.78916 13.8883 7.68286 13.7762 7.57153C13.0051 6.80302 12.2391 6.02876 11.4615 5.266C11.0497 4.86091 10.6667 4.86522 10.2571 5.27102C9.30276 6.21718 8.35273 7.16669 7.40701 8.11954C6.99308 8.53684 6.99667 8.89165 7.4185 9.31612C8.28949 10.1945 9.16837 11.065 10.0509 11.9456C9.77705 12.4483 9.47595 12.9116 9.26036 13.4151C8.9101 14.2192 8.6061 15.0427 8.34985 15.8815C8.2205 16.3261 8.07534 16.5071 7.58164 16.4841C6.5698 16.4367 5.55366 16.4676 4.53895 16.4705C3.83397 16.4705 3.58964 16.7132 3.5882 17.4042C3.5882 18.686 3.5882 19.9683 3.5882 21.251C3.5882 21.8637 3.696 22.0138 4.28887 22.2422V23.5681C3.28278 23.7117 2.20843 22.7931 2.17394 21.6734C2.12579 20.1241 2.12938 18.5713 2.17394 17.0221C2.20412 15.9131 3.16421 15.0656 4.32408 15.0419C5.12895 15.0261 5.93525 15.034 6.74084 15.0419C6.95283 15.0419 7.0865 15.0124 7.17201 14.7747C7.49396 13.9128 7.84753 13.0603 8.21762 12.1338C7.67937 11.6001 7.08578 11.0155 6.49722 10.4265C5.37759 9.3075 5.37903 8.11308 6.49722 6.99263C7.39359 6.09532 8.29068 5.1992 9.18849 4.30428C10.2161 3.28511 11.4881 3.28223 12.5129 4.29423C13.0439 4.81782 13.5793 5.33782 14.0903 5.88081C14.2829 6.0855 14.428 6.07617 14.6652 5.96771C15.3967 5.63661 16.1369 5.3213 16.8879 5.03903C17.1322 4.9471 17.2027 4.83649 17.1984 4.59229C17.1847 3.80224 17.1876 3.01218 17.1948 2.22212C17.2063 0.942944 18.1125 0.0243192 19.3974 0.011391C20.7867 -0.00249491 22.1742 -0.00249491 23.5597 0.011391C24.8712 0.0221645 25.7759 0.936479 25.7874 2.24438C25.7939 3.01936 25.7989 3.79505 25.7838 4.57003C25.7788 4.83146 25.8521 4.95069 26.1137 5.04837C26.8661 5.32848 27.6092 5.63804 28.3364 5.98208C28.5958 6.10346 28.7295 6.0539 28.907 5.87003C29.4359 5.32346 29.9756 4.78694 30.5189 4.25472C31.474 3.31743 32.7603 3.29875 33.7139 4.22958C34.7071 5.19776 35.688 6.17935 36.6567 7.17435C37.55 8.09081 37.5457 9.33336 36.6567 10.257C36.0991 10.8383 35.5287 11.4071 34.9457 11.9635C34.7639 12.1381 34.7509 12.2659 34.8566 12.4965C35.1907 13.2262 35.5033 13.966 35.7908 14.7172C35.8878 14.9744 36.0021 15.057 36.2665 15.0519C37.0268 15.0361 37.7886 15.0419 38.5489 15.0476C39.9207 15.0498 40.8255 15.9483 40.832 17.313C40.837 18.7142 40.8463 20.1141 40.8284 21.5175C40.8111 22.7098 39.8259 23.6621 38.7041 23.5889Z" fill="black"/>
<path d="M31.504 19.3105H30.1105C29.9999 16.4505 28.858 14.1026 26.5361 12.3903C24.9062 11.1873 23.05 10.6529 21.0299 10.7621C16.7239 10.9926 13.0136 14.4337 12.8771 19.2997H11.4578C11.5663 15.9578 12.8656 13.2084 15.5877 11.2692C18.9445 8.87816 22.5534 8.64545 26.2235 10.5179C29.4688 12.1713 31.6247 15.8242 31.504 19.3105Z" fill="black"/>
<path d="M21.5007 25.057C20.937 25.058 20.3786 24.9481 19.8575 24.7334C19.3363 24.5187 18.8625 24.2035 18.4633 23.8058C18.064 23.408 17.747 22.9356 17.5305 22.4154C17.3139 21.8953 17.202 21.3375 17.2012 20.7741C17.2048 19.6363 17.6577 18.546 18.4616 17.7403C19.2655 16.9346 20.3551 16.4787 21.4936 16.4719C22.6323 16.4751 23.7235 16.9284 24.529 17.7328C25.3345 18.5372 25.789 19.6275 25.7931 20.7655C25.7931 21.9034 25.3409 22.9948 24.536 23.7995C23.7311 24.6043 22.6393 25.0566 21.5007 25.057ZM21.4591 23.6255C21.8358 23.6319 22.2101 23.5637 22.5604 23.4247C22.9106 23.2858 23.2299 23.0789 23.4997 22.816C23.7696 22.5531 23.9846 22.2394 24.1326 21.8931C24.2805 21.5467 24.3583 21.1745 24.3616 20.7979C24.3656 20.0373 24.0684 19.3061 23.5348 18.7639C23.0012 18.2217 22.2746 17.9126 21.5137 17.9041C20.7605 17.9043 20.0374 18.1992 19.4992 18.7257C18.961 19.2522 18.6505 19.9685 18.6341 20.721C18.6274 21.0972 18.6951 21.4711 18.8335 21.8211C18.9719 22.171 19.1782 22.4902 19.4405 22.7601C19.7028 23.0301 20.0159 23.2455 20.3619 23.394C20.7078 23.5426 21.0797 23.6212 21.4562 23.6255H21.4591Z" fill="black"/>
<path d="M9.29837 27.9206C8.7345 27.9183 8.17661 27.805 7.65656 27.5872C7.1365 27.3694 6.66449 27.0513 6.26748 26.6511C5.87046 26.2509 5.55623 25.7765 5.34274 25.2548C5.12925 24.7332 5.02068 24.1747 5.02324 23.6112C5.03258 21.2568 6.98438 19.324 9.33933 19.3355C10.478 19.345 11.5667 19.8043 12.3678 20.6131C13.1689 21.422 13.6173 22.5147 13.6152 23.6528C13.6085 24.7907 13.1501 25.8795 12.3406 26.6797C11.5312 27.48 10.4369 27.9263 9.29837 27.9206ZM9.284 26.4891C9.66062 26.4949 10.0347 26.4262 10.3846 26.2868C10.7345 26.1475 11.0534 25.9404 11.3229 25.6773C11.5923 25.4143 11.8071 25.1005 11.9547 24.7542C12.1023 24.4078 12.1799 24.0357 12.183 23.6593C12.1866 22.8988 11.889 22.1677 11.3551 21.6258C10.8212 21.0838 10.0945 20.7751 9.33358 20.7669C8.58102 20.7686 7.85898 21.0645 7.32182 21.5913C6.78466 22.1181 6.47501 22.834 6.45906 23.586C6.4526 23.9623 6.52067 24.3362 6.65936 24.6862C6.79805 25.0361 7.00462 25.3552 7.26718 25.625C7.52974 25.8948 7.84311 26.1101 8.18924 26.2584C8.53537 26.4067 8.90742 26.4851 9.284 26.4891Z" fill="black"/>
<path d="M33.6707 27.9207C33.1069 27.9214 32.5485 27.811 32.0273 27.5959C31.5062 27.3808 31.0326 27.0651 30.6336 26.667C30.2345 26.2688 29.9179 25.796 29.7018 25.2755C29.4857 24.7551 29.3743 24.1971 29.374 23.6336C29.3782 22.4959 29.8318 21.4059 30.6361 20.6009C31.4404 19.7958 32.5303 19.3408 33.6686 19.335C34.8078 19.3388 35.8992 19.793 36.7044 20.5984C37.5096 21.4038 37.9631 22.495 37.966 23.6336C37.9645 24.7711 37.5112 25.8616 36.7059 26.6654C35.9005 27.4692 34.8089 27.9207 33.6707 27.9207ZM33.6571 26.4893C34.034 26.4921 34.4078 26.4204 34.7568 26.2781C35.1058 26.1358 35.4232 25.9259 35.6907 25.6604C35.9581 25.3949 36.1703 25.0791 36.315 24.7313C36.4597 24.3834 36.534 24.0103 36.5337 23.6336C36.5307 22.873 36.2267 22.1444 35.6882 21.607C35.1497 21.0696 34.4203 20.7669 33.6592 20.765C32.9059 20.7724 32.1854 21.0744 31.6521 21.6063C31.1189 22.1382 30.8152 22.8577 30.8063 23.6106C30.8029 23.9871 30.8742 24.3605 31.0159 24.7093C31.1576 25.0582 31.367 25.3755 31.632 25.6431C31.897 25.9107 32.2124 26.1232 32.5599 26.2685C32.9075 26.4137 33.2804 26.4887 33.6571 26.4893Z" fill="black"/>
<path d="M24.3365 41.5535V42.9325H18.6658V41.5535H24.3365Z" fill="black"/>
</g>
<defs>
<clipPath id="clip0_920_89">
<rect width="43" height="43" fill="white"/>
</clipPath>
</defs>
</svg>
