<svg width="45" height="45" viewBox="0 0 45 45" fill="none" xmlns="http://www.w3.org/2000/svg">
<g clip-path="url(#clip0_336_179)">
<path d="M0 43.8578C1.4028 41.2918 2.62365 38.6304 3.65353 35.8933C5.5822 30.7829 6.87127 25.4535 7.49139 20.0265C7.93165 16.218 7.91873 12.3954 7.90112 8.57398C7.90112 7.67821 8.05022 6.82352 8.47169 6.03224C8.78439 5.42455 9.21671 4.88634 9.74267 4.44995C10.2686 4.01357 10.8774 3.68801 11.5323 3.49284C11.7038 3.43884 11.9221 3.31322 11.9843 3.16412C13.419 -0.260484 17.946 -1.168 20.537 1.7553C20.5735 1.78872 20.6128 1.81896 20.6544 1.8457C21.3776 1.31739 22.1807 0.986321 23.0882 0.973406C24.5534 0.9511 25.7356 1.53928 26.5879 2.72738C26.7863 3.00563 26.9812 3.1019 27.3017 3.07959C28.1494 3.02324 28.9289 3.2146 29.6051 3.75582C30.0945 4.1471 30.4526 4.6787 30.6311 5.2793C30.8097 5.8799 30.8003 6.52075 30.6042 7.11585C30.4132 7.71297 30.0423 8.23649 29.5424 8.61476C29.0424 8.99304 28.4378 9.2076 27.8112 9.22908C27.0787 9.25021 26.3461 9.24434 25.6135 9.23612C25.0324 9.22908 24.6743 8.88392 24.6743 8.36031C24.6743 7.8367 25.0453 7.49389 25.6229 7.48449C26.2815 7.47393 26.9413 7.48449 27.5999 7.48449C28.4217 7.47393 29.0087 6.92214 29.0087 6.17077C29.0087 5.4194 28.4112 4.84648 27.5706 4.83944C27.2184 4.83944 26.8662 4.823 26.514 4.83944C25.9633 4.86996 25.617 4.64925 25.3834 4.13503C24.8833 3.02911 23.7069 2.46206 22.5845 2.84361C22.11 3.02295 21.685 3.3127 21.3448 3.6889C20.7026 4.37688 20.0909 4.36161 19.6413 3.54802C18.9627 2.32235 17.6842 1.63203 16.3634 1.77761C15.6954 1.84458 15.0637 2.11347 14.5524 2.54847C14.041 2.98346 13.6744 3.56391 13.5012 4.21251C13.3497 4.75256 13.0421 5.01554 12.4962 5.09185C11.7186 5.19213 11.0034 5.57028 10.4828 6.15654C9.9621 6.74281 9.67105 7.4976 9.66332 8.28165C9.6504 8.95553 9.66332 9.62825 9.66332 10.3702H22.6221C23.6658 10.3702 23.9135 10.6121 23.9018 11.6734C23.8219 17.1104 24.417 22.5362 25.6734 27.8267C25.7059 27.9994 25.7774 28.1624 25.8823 28.3033C25.927 28.0485 25.9786 27.7961 26.0162 27.5414C26.3948 24.8724 26.5698 22.1785 26.5398 19.4829C26.5398 18.7421 26.8368 18.4263 27.5706 18.4263C31.0417 18.4216 34.5137 18.4216 37.9864 18.4263C38.7449 18.4263 39.043 18.7363 39.036 19.5076C38.9553 25.0949 39.8121 30.6563 41.5707 35.9602C42.4404 38.5387 43.5117 41.0448 44.7746 43.4551C45.1655 44.2089 45.0822 44.5294 44.393 44.9966H0V43.8578ZM2.33277 43.2145H29.4678C24.5369 33.4271 22.0957 23.0739 22.1443 12.1547H9.67858V14.6765H10.1905C12.11 14.6765 14.0295 14.6765 15.9431 14.6765C16.6475 14.6765 17.069 15.2224 16.8718 15.8317C16.7473 16.218 16.4139 16.4293 15.902 16.4305C14.1019 16.4305 12.3017 16.4305 10.5016 16.4305H9.56236C9.03563 25.7632 6.57363 34.8843 2.33277 43.2145ZM42.6919 43.2426C39.6048 37.0757 37.795 30.3487 37.3713 23.4652H28.2139C28.1905 23.6789 28.1611 23.8667 28.1494 24.0522C27.9623 26.7084 27.5698 29.346 26.9753 31.9416C26.9293 32.1514 26.9369 32.3695 26.9977 32.5755C28.1269 36.1293 29.5557 39.5807 31.2687 42.8928C31.4166 43.1792 31.5857 43.245 31.878 43.245C34.0453 43.2356 36.2125 43.245 38.3797 43.245L42.6919 43.2426ZM37.2632 20.2179H28.3137V21.6549H37.2632V20.2179Z" fill="black"/>
<path d="M31.8969 12.6547C31.8853 13.273 31.6539 13.8669 31.2441 14.33C30.879 14.7468 30.8755 14.9781 31.1889 15.4183C31.5247 15.8879 31.486 16.3881 31.088 16.7097C30.69 17.0314 30.191 16.9445 29.8083 16.509C29.426 16.0686 29.2136 15.5062 29.2093 14.9231C29.205 14.34 29.4091 13.7745 29.7848 13.3286C30.2415 12.778 30.2462 12.6723 29.8459 12.0665C29.7159 11.887 29.6589 11.6649 29.6863 11.4451C29.7138 11.2252 29.8237 11.0239 29.9938 10.8819C30.1646 10.7396 30.3833 10.6679 30.6052 10.6814C30.8271 10.695 31.0355 10.7927 31.1878 10.9547C31.6332 11.4096 31.887 12.0181 31.8969 12.6547Z" fill="black"/>
<path d="M36.3687 12.6852C36.3532 13.2751 36.1361 13.8419 35.7535 14.2913C35.345 14.7714 35.3391 14.9522 35.6866 15.4465C35.9977 15.8914 35.9508 16.3857 35.5692 16.6992C35.1877 17.0126 34.6887 16.941 34.3165 16.543C33.9196 16.1054 33.6945 15.5388 33.6831 14.948C33.6716 14.3573 33.8746 13.7824 34.2543 13.3297C34.7145 12.7697 34.7239 12.6664 34.3236 12.0688C34.1914 11.8906 34.1321 11.6687 34.1576 11.4482C34.1831 11.2278 34.2916 11.0253 34.4609 10.8819C34.6303 10.738 34.8483 10.6643 35.0703 10.6759C35.2923 10.6874 35.5014 10.7834 35.6549 10.9441C35.8827 11.173 36.063 11.4447 36.1855 11.7435C36.308 12.0422 36.3703 12.3623 36.3687 12.6852Z" fill="black"/>
<path d="M2.33276 43.2143C6.57096 34.8851 9.03094 25.7657 9.55648 16.435H10.4957C12.2959 16.435 14.096 16.435 15.8962 16.435C16.408 16.435 16.7414 16.2225 16.8659 15.8363C17.0631 15.2269 16.6311 14.6834 15.9373 14.681C14.0189 14.674 12.0994 14.681 10.1846 14.681H9.67271V12.1545H22.1325C22.0918 23.0893 24.5369 33.4426 29.4678 43.2143H2.33276ZM11.1203 32.2173H9.14323C8.37894 32.2325 8.05609 32.5401 8.08661 33.2915C8.20401 36.0821 9.45317 38.2365 11.7988 39.7486C12.4504 40.1689 12.8954 40.048 13.2875 39.3741C13.9414 38.2482 14.5895 37.12 15.2411 35.9917C15.5698 35.4235 16.2237 35.4165 16.5466 35.9753C17.2134 37.1282 17.8767 38.2834 18.5424 39.4328C18.8946 40.0327 19.3642 40.1548 19.9418 39.785C22.2898 38.3022 23.5366 36.1608 23.7128 33.3995C23.7668 32.5413 23.4439 32.2255 22.5857 32.2185C21.2532 32.2185 19.9195 32.2185 18.587 32.2185C18.1374 32.2185 17.7828 31.5904 18.007 31.2006C18.6704 30.0465 19.3395 28.8948 20.0029 27.7408C20.4149 27.0246 20.2975 26.5667 19.572 26.1981C17.116 24.9552 14.6584 24.9587 12.1992 26.2087C11.4866 26.5714 11.3703 27.0176 11.773 27.7185C12.4434 28.8854 13.1208 30.0489 13.7911 31.2159C14.0013 31.5821 13.6432 32.2149 13.2229 32.2185C12.5267 32.222 11.8235 32.2173 11.1203 32.2173ZM20.5124 15.5698C20.5178 15.3402 20.4322 15.1178 20.2743 14.9511C20.1164 14.7844 19.899 14.6869 19.6694 14.6798C19.4403 14.6744 19.2181 14.7595 19.0512 14.9166C18.8842 15.0737 18.7858 15.2902 18.7772 15.5193C18.772 15.6366 18.7905 15.7537 18.8315 15.8637C18.8725 15.9737 18.9353 16.0743 19.016 16.1596C19.0967 16.2448 19.1938 16.3129 19.3015 16.3598C19.4091 16.4067 19.525 16.4315 19.6424 16.4327C19.8723 16.433 20.0929 16.3425 20.2563 16.1808C20.4197 16.0192 20.5126 15.7996 20.5147 15.5698H20.5124Z" fill="#FFF500"/>
<path d="M42.692 43.239H38.3904C36.2232 43.239 34.0559 43.239 31.8887 43.239C31.5964 43.239 31.4273 43.1733 31.2794 42.8868C29.5648 39.5776 28.134 36.1289 27.0024 32.5778C26.9417 32.3717 26.934 32.1536 26.9801 31.9438C27.5746 29.3483 27.9671 26.7106 28.1541 24.0544C28.1659 23.8666 28.1952 23.6787 28.2187 23.4674H37.376C37.7991 30.3486 39.6072 37.0735 42.692 43.239Z" fill="white"/>
<path d="M37.2632 20.2178V21.6548H28.3137V20.2178H37.2632Z" fill="white"/>
<path d="M11.1202 32.2173C11.8246 32.2173 12.529 32.2173 13.2334 32.2173C13.6537 32.2173 14.0118 31.581 13.8016 31.2147C13.1313 30.0477 12.4539 28.8842 11.7835 27.7173C11.3808 27.0129 11.497 26.5703 12.2097 26.2075C14.6634 24.9552 17.121 24.9517 19.5825 26.1969C20.308 26.5632 20.4254 27.0187 20.0133 27.7396C19.35 28.8936 18.6808 30.0453 18.0175 31.1994C17.7933 31.5892 18.1478 32.2161 18.5975 32.2173C19.93 32.2173 21.2637 32.2173 22.5962 32.2173C23.4544 32.2173 23.7772 32.5401 23.7232 33.3983C23.5471 36.1596 22.298 38.301 19.9523 39.7838C19.3653 40.1536 18.9039 40.0315 18.5529 39.4316C17.8813 38.2822 17.218 37.127 16.557 35.9741C16.2342 35.4153 15.5803 35.4223 15.2515 35.9906C14.6 37.1188 13.9519 38.247 13.298 39.3729C12.9059 40.0468 12.4609 40.1677 11.8093 39.7474C9.4613 38.2353 8.21801 36.081 8.09709 33.2903C8.06539 32.5389 8.38824 32.2337 9.1537 32.2161H11.1307L11.1202 32.2173ZM13.6643 27.4566C14.2513 28.4722 14.8101 29.4607 15.3901 30.4398C15.5427 30.6957 16.2917 30.6453 16.4467 30.3811C16.7378 29.8915 17.0196 29.3961 17.3037 28.9019C17.5773 28.4322 17.8485 27.9532 18.1349 27.4543C16.6193 26.9002 15.1682 26.8955 13.6643 27.4566ZM9.90038 33.9771C10.1763 35.5855 10.9006 36.8323 12.1381 37.8514C12.7321 36.8218 13.3121 35.8415 13.865 34.8529C13.9824 34.6404 13.5915 33.9842 13.3438 33.9818C12.2214 33.9712 11.0979 33.9771 9.90038 33.9771ZM21.9059 33.9771C20.7107 33.9771 19.5743 33.9701 18.439 33.9771C18.2042 33.9771 17.8262 34.6545 17.94 34.8541C18.5 35.8391 19.0718 36.8194 19.6635 37.8408C20.9056 36.8394 21.6182 35.5832 21.9059 33.9783V33.9771ZM15.9078 32.3335C15.7084 32.3321 15.5163 32.4082 15.372 32.5458C15.2276 32.6833 15.1423 32.8716 15.1341 33.0708C15.1333 33.1731 15.1531 33.2745 15.1921 33.3691C15.2312 33.4636 15.2888 33.5494 15.3616 33.6213C15.4344 33.6932 15.5208 33.7498 15.6159 33.7877C15.7109 33.8257 15.8126 33.8442 15.9149 33.8421C16.1144 33.8396 16.3049 33.7586 16.4451 33.6167C16.5853 33.4747 16.6639 33.2832 16.6639 33.0837C16.6602 32.8854 16.579 32.6965 16.4377 32.5573C16.2963 32.4182 16.1061 32.3399 15.9078 32.3394V32.3335Z" fill="black"/>
<path d="M20.5148 15.5698C20.5126 15.7992 20.4201 16.0185 20.2572 16.1801C20.0943 16.3416 19.8743 16.4324 19.6449 16.4327C19.5279 16.431 19.4124 16.4057 19.3053 16.3585C19.1982 16.3113 19.1017 16.2431 19.0215 16.158C18.9412 16.0728 18.8789 15.9724 18.8382 15.8627C18.7974 15.753 18.7791 15.6363 18.7843 15.5194C18.7929 15.2903 18.8913 15.0737 19.0583 14.9167C19.2253 14.7596 19.4474 14.6745 19.6766 14.6799C19.9052 14.6882 20.1215 14.7862 20.2784 14.9528C20.4353 15.1194 20.5202 15.3411 20.5148 15.5698Z" fill="black"/>
<path d="M13.6643 27.4567C15.1682 26.8955 16.6193 26.9002 18.1385 27.4567C17.852 27.9557 17.5808 28.43 17.3073 28.9043C17.0232 29.3985 16.7414 29.894 16.4502 30.3835C16.2918 30.6477 15.5427 30.6982 15.3936 30.4422C14.8101 29.4608 14.249 28.4722 13.6643 27.4567Z" fill="white"/>
<path d="M9.90039 33.9772C11.0979 33.9772 12.2214 33.9713 13.3438 33.9772C13.5915 33.9772 13.9848 34.6358 13.865 34.8483C13.3062 35.8369 12.7321 36.8172 12.1381 37.8468C10.9007 36.8324 10.1763 35.5856 9.90039 33.9772Z" fill="white"/>
<path d="M21.906 33.9783C21.6184 35.5832 20.9057 36.8394 19.6636 37.8467C19.0766 36.8253 18.5002 35.8508 17.9402 34.86C17.8228 34.6604 18.2032 33.9865 18.4391 33.983C19.5744 33.9712 20.7109 33.9783 21.906 33.9783Z" fill="white"/>
<path d="M15.908 32.3394C16.1073 32.34 16.2984 32.419 16.4399 32.5594C16.5814 32.6998 16.6619 32.8903 16.664 33.0896C16.6641 33.2891 16.5854 33.4806 16.4452 33.6226C16.305 33.7645 16.1145 33.8455 15.915 33.848C15.8127 33.85 15.7111 33.8315 15.616 33.7936C15.521 33.7557 15.4346 33.6991 15.3618 33.6272C15.289 33.5553 15.2314 33.4695 15.1923 33.375C15.1532 33.2804 15.1335 33.179 15.1343 33.0767C15.1425 32.8774 15.2278 32.6892 15.3721 32.5516C15.5165 32.4141 15.7086 32.338 15.908 32.3394Z" fill="white"/>
</g>
<defs>
<clipPath id="clip0_336_179">
<rect width="45.0082" height="45" fill="white"/>
</clipPath>
</defs>
</svg>
