<svg width="53" height="43" viewBox="0 0 53 43" fill="none" xmlns="http://www.w3.org/2000/svg">
<g clip-path="url(#clip0_844_211)">
<path d="M15.7109 26.005C15.3416 25.7577 14.9447 25.6142 14.7566 25.3354C14.4869 24.9336 14.8036 24.5742 15.083 24.2544C15.6805 23.5711 16.2656 22.8769 16.8603 22.1922C17.26 21.7303 17.7469 21.6456 18.1148 21.9654C18.4827 22.2852 18.4716 22.7307 18.0913 23.1885C17.8147 23.5151 17.538 23.8335 17.2075 24.2189C17.3914 24.2353 17.5007 24.2408 17.6086 24.2531C18.3001 24.3337 18.6307 24.991 18.2047 25.5213C17.4965 26.4013 16.7496 27.25 15.9917 28.0932C15.926 28.1729 15.8445 28.2384 15.7522 28.2856C15.6599 28.3329 15.5587 28.3609 15.4549 28.368C15.3512 28.375 15.2471 28.3609 15.1491 28.3266C15.0511 28.2923 14.9613 28.2384 14.8852 28.1684C14.5532 27.88 14.5118 27.4523 14.8119 27.0751C15.112 26.6979 15.4675 26.2934 15.7109 26.005Z" fill="black"/>
<rect x="7.57141" y="19.7937" width="18.5844" height="23.2063" fill="#FFF500"/>
<path d="M52.9999 42.4682C52.7717 42.8618 52.4384 42.9999 51.9723 42.9999C34.9949 42.9898 18.0161 42.9871 1.03591 42.9917C0.915467 42.9962 0.79485 42.9926 0.674917 42.9807C0.499976 42.9687 0.335474 42.8941 0.21224 42.7708C0.0890051 42.6475 0.0154916 42.4841 0.00547993 42.3111C-0.025094 42.131 0.0163998 41.9462 0.121185 41.7957C0.22597 41.6453 0.38584 41.5409 0.567029 41.5048C0.807162 41.4593 1.0503 41.431 1.29455 41.4201C1.29455 41.0648 1.28487 40.7108 1.29455 40.3596C1.3153 39.8239 1.62789 39.4959 2.10645 39.485C2.52139 39.4768 2.85334 39.8225 2.88239 40.3418C2.90175 40.678 2.88239 41.0169 2.88239 41.39H6.25445V31.8771H2.91558C2.9059 32.063 2.88653 32.2584 2.88653 32.4538C2.88653 33.9202 2.88653 35.3865 2.88653 36.8515C2.88653 37.0702 2.90452 37.3462 2.78418 37.4911C2.60853 37.7029 2.33051 37.9188 2.07187 37.953C1.71226 37.9995 1.41627 37.7658 1.32775 37.379C1.29955 37.2281 1.28795 37.0746 1.29317 36.9212C1.29317 35.0627 1.29317 33.2045 1.29317 31.3469C1.29317 30.5037 1.51724 30.2837 2.35956 30.2823C3.49926 30.2823 4.63803 30.2823 5.77589 30.2823H6.3402V29.625C6.3402 26.4025 6.3402 23.1801 6.3402 19.9576C6.3402 19.0243 6.54628 18.8261 7.50202 18.8247C8.15763 18.8247 8.81323 18.8247 9.46883 18.8247C10.0069 18.8329 10.3526 19.1582 10.3457 19.6228C10.3388 20.0506 9.99165 20.3567 9.46606 20.3704C8.98612 20.3827 8.50479 20.3704 7.97229 20.3704V41.4105H11.3679V40.8639C11.3679 39.6011 11.3596 38.3398 11.3679 37.0784C11.3831 35.5997 12.4813 34.4818 13.9751 34.4627C15.6486 34.4399 17.3227 34.4399 18.9972 34.4627C20.5186 34.4805 21.6251 35.5984 21.6403 37.1003C21.6514 38.3616 21.6403 39.623 21.6403 40.8857V41.4119C21.8257 41.4214 21.9585 41.4365 22.0926 41.4365H25.0193V20.3772H13.1659C13.011 20.3772 12.8547 20.3854 12.6998 20.3772C12.213 20.3403 11.8879 20.0314 11.8893 19.6174C11.8893 19.1623 12.2157 18.8425 12.7192 18.8329C13.4107 18.8206 14.1023 18.8329 14.7939 18.8329H15.3278V15.016C14.8741 14.9067 14.4329 14.7427 14.4674 14.1496C14.4965 13.6385 14.8658 13.4772 15.3278 13.387V10.7044C14.8796 10.5678 14.4052 10.4051 14.4716 9.78333C14.5214 9.31595 14.8492 9.12736 15.3554 9.08089C15.3554 8.22677 15.3554 7.37948 15.3457 6.53356C15.334 6.48107 15.3095 6.43221 15.2743 6.39124C15.2391 6.35027 15.1943 6.31843 15.1438 6.2985C14.715 6.20284 14.4647 5.96915 14.4674 5.52501C14.4674 5.10546 14.715 4.88681 15.112 4.77338C15.1737 4.74435 15.2273 4.70095 15.2683 4.64691C15.3092 4.59288 15.3363 4.52982 15.3471 4.46316C15.3651 3.50654 15.3582 2.55812 15.3582 1.5933C15.195 1.54137 15.0636 1.50858 14.9432 1.45665C14.7775 1.40005 14.6386 1.28525 14.5529 1.13408C14.4672 0.982901 14.4407 0.805886 14.4785 0.636686C14.4924 0.4651 14.5714 0.305032 14.6996 0.188485C14.8278 0.0719379 14.9959 0.00749869 15.1701 0.00805035C15.704 -0.0138152 16.2406 -0.00288164 16.7745 -0.00288164H21.5366C22.26 -0.00288164 22.5878 0.187075 22.6556 0.640786C22.7233 1.0945 22.4716 1.37328 21.7703 1.5974V4.71598C22.2351 4.82531 22.6708 4.977 22.6583 5.54687C22.6459 6.07438 22.278 6.26844 21.7828 6.32857V9.06176C22.2572 9.13693 22.6638 9.31595 22.6569 9.87215C22.6569 10.4024 22.2752 10.5937 21.7814 10.6648V13.3816C22.2531 13.4636 22.6625 13.6412 22.6569 14.2015C22.6569 14.7318 22.2807 14.9258 21.78 14.9901V18.8165H25.6141C26.4177 18.8165 26.65 19.0502 26.6528 19.862C26.6528 21.055 26.6528 22.2481 26.6528 23.4425C26.6528 23.6242 26.6708 23.8046 26.6804 24.0082H27.5103V23.4616C27.5103 22.08 27.5034 20.6997 27.5103 19.3181C27.5311 16.1038 29.8423 13.8271 33.0981 13.8107C34.3886 13.8039 35.6791 13.8107 36.993 13.8107C37.0076 13.6643 37.0325 13.5191 37.0677 13.3761C37.2697 12.768 37.0926 12.384 36.4868 12.0819C35.7952 11.7321 35.7164 11.0939 36.3568 10.673C37.3969 9.98968 37.7482 9.06449 37.8077 7.88785C37.8644 6.76861 38.0774 5.65757 38.2226 4.54106C38.2226 4.51236 38.2047 4.48093 38.1881 4.42489H36.0096V5.98555C36.0829 6.00332 36.1604 6.02791 36.2392 6.04021C36.7012 6.11128 36.9612 6.37913 36.9391 6.83694C36.917 7.29475 36.6071 7.54347 36.1562 7.5626C35.5878 7.58584 35.0179 7.57354 34.4481 7.5626C33.8201 7.5626 33.473 7.30842 33.437 6.84377C33.4011 6.37913 33.6998 6.10718 34.4204 5.98145C34.4204 5.32548 34.4204 4.65175 34.4204 3.97802C34.4204 3.06376 34.6279 2.86014 35.5366 2.85877H38.4564C38.5477 2.17547 38.6348 1.53317 38.715 0.894973C38.8008 0.219874 39.0373 -0.00288193 39.7178 -0.00424853C41.562 -0.00424853 43.4061 -0.00424853 45.2503 -0.00424853C45.9253 -0.00424853 46.1645 0.219874 46.2517 0.899073L46.5034 2.85877H49.1272C50.4702 2.85877 50.5463 2.9353 50.5463 4.28823V5.98282C50.6915 6.00742 50.7897 6.02108 50.8879 6.04158C51.3028 6.12768 51.5283 6.3887 51.5297 6.79184C51.5311 7.19499 51.2835 7.50794 50.8824 7.53254C50.1427 7.58035 49.4007 7.58035 48.6611 7.53254C48.2614 7.50521 48.0235 7.20182 48.029 6.78364C48.029 6.39416 48.2544 6.15364 48.6293 6.05251C48.7385 6.03112 48.8489 6.01606 48.9598 6.00742V4.40166H46.7192C46.8948 5.76826 47.1175 7.07473 47.2143 8.39213C47.2807 9.29818 47.6071 9.97465 48.3817 10.4584C48.5847 10.5886 48.7595 10.7572 48.8962 10.9545C48.9597 11.0426 49.0021 11.1439 49.0201 11.2506C49.0382 11.3573 49.0314 11.4667 49.0004 11.5704C48.9693 11.6742 48.9148 11.7696 48.8409 11.8495C48.767 11.9293 48.6757 11.9915 48.5739 12.0314C47.8948 12.3471 47.7551 12.7666 47.8948 13.4813C48.1355 14.7113 48.2323 15.9795 48.4246 17.2258C48.4839 17.4566 48.6191 17.6614 48.8091 17.808C49.0857 18.0348 49.4246 18.1838 49.7206 18.3888C50.289 18.7824 50.3098 19.4821 49.6832 19.739C48.8713 20.0711 48.7856 20.5508 48.9308 21.3229C49.177 22.6444 49.2932 23.9891 49.484 25.3215C49.5314 25.4904 49.6317 25.6401 49.7703 25.7493C49.9083 25.8509 50.0595 25.9336 50.2199 25.9953C50.5587 26.1661 50.8354 26.3793 50.8271 26.8043C50.8188 27.2293 50.538 27.4548 50.1839 27.5778C49.8298 27.7008 49.8035 27.9017 49.8533 28.2392C50.0788 29.7726 50.2752 31.3113 50.4633 32.8501C50.4684 32.9826 50.5128 33.1106 50.591 33.2182C50.6692 33.3259 50.7778 33.4084 50.9031 33.4555C51.733 33.8464 51.7565 34.4299 50.9889 34.9848C50.9379 35.0206 50.8954 35.0668 50.8641 35.1204C50.8328 35.1739 50.8136 35.2334 50.8077 35.295C51.0608 37.3449 51.3291 39.3784 51.5988 41.4583C52.1645 41.4255 52.6818 41.4447 52.9958 41.9558L52.9999 42.4682ZM26.733 41.4269C26.9861 41.4269 27.1894 41.4269 27.3928 41.4269C28.3536 41.4096 29.3144 41.39 30.2752 41.3681C30.3029 40.4211 30.3471 39.4727 30.3526 38.5256C30.3651 36.4129 30.3526 34.3001 30.3526 32.186C30.3526 31.9659 30.3029 31.7008 30.4052 31.5341C30.5587 31.2854 30.7966 30.9875 31.0553 30.9232C31.419 30.8276 31.7676 31.038 31.8851 31.4412C31.9349 31.6386 31.9563 31.8419 31.9488 32.0452C31.9488 34.977 31.9488 37.9079 31.9488 40.8379V41.4392H33.2959C33.3278 41.3914 33.3596 41.364 33.3637 41.334C33.6362 39.3415 33.9128 37.3503 34.1576 35.351C34.1535 35.2747 34.1324 35.2002 34.0959 35.1329C34.0593 35.0656 34.0081 35.0071 33.946 34.9615C33.2212 34.4518 33.2544 33.8327 34.058 33.4583C34.1841 33.4134 34.2939 33.3328 34.3738 33.2266C34.4538 33.1203 34.5003 32.9932 34.5076 32.8611C34.6874 31.3578 34.881 29.8545 35.1051 28.3513C35.1701 27.9263 35.1258 27.6803 34.6721 27.4944C34.5425 27.4258 34.4308 27.3284 34.3458 27.2098C34.2609 27.0912 34.205 26.9547 34.1825 26.8111C34.1728 26.5733 34.4218 26.2946 34.6168 26.0882C34.7551 25.9338 35.0179 25.8887 35.1894 25.752C35.3345 25.6493 35.4399 25.5009 35.4882 25.3311C35.6805 24.0178 35.8049 22.6922 36.0414 21.3857C36.1798 20.6068 36.1535 20.056 35.2697 19.7158C34.6735 19.4875 34.6998 18.7673 35.2406 18.3956C35.567 18.1729 35.9197 17.9856 36.2475 17.7697C36.3651 17.6905 36.5117 17.5675 36.5311 17.4458C36.6417 16.7625 36.7192 16.0792 36.8077 15.344C35.4412 15.344 34.1327 15.3235 32.8257 15.344C31.839 15.3601 30.8971 15.7536 30.1981 16.4417C29.499 17.1299 29.0973 18.059 29.0774 19.0338C29.0484 20.2938 29.0691 21.5552 29.0677 22.8166C29.0677 23.2047 29.0677 23.5914 29.0677 24.0383H31.1258C31.6237 24.0383 31.9336 24.3116 31.9446 24.779C31.9737 26.0554 31.9709 27.3345 31.9446 28.6123C31.9447 28.7203 31.9217 28.8271 31.8772 28.9257C31.8328 29.0243 31.7678 29.1126 31.6865 29.1848C31.6052 29.257 31.5095 29.3115 31.4055 29.3447C31.3015 29.3779 31.1916 29.3891 31.0829 29.3776C30.6141 29.3311 30.3845 29.0209 30.3734 28.5795C30.3526 27.7951 30.3637 27.012 30.354 26.2276C30.354 26.0308 30.3264 25.8354 30.3112 25.6345H26.733V41.4269ZM36.0401 34.2208C36.096 34.2713 36.1561 34.3171 36.2199 34.3575C38.2337 35.3565 40.2461 36.3596 42.2697 37.3394C42.4533 37.3961 42.6521 37.3789 42.8229 37.2916C44.7496 36.35 46.6694 35.3934 48.5905 34.4381C48.6998 34.3835 48.8008 34.3097 48.9488 34.2181C46.8381 33.2287 44.7883 32.2652 42.7316 31.3141C42.5817 31.2503 42.4124 31.2469 42.26 31.3045C40.1936 32.268 38.13 33.241 36.0401 34.2208ZM12.9709 41.3968C15.2226 41.3968 17.3969 41.3968 19.5684 41.3968C19.8547 41.3968 19.9737 41.2697 19.9723 40.9951C19.9723 39.6831 19.982 38.3698 19.9529 37.0579C19.9391 36.4443 19.5477 36.0835 18.9211 36.0753C17.2835 36.0534 15.6449 36.0471 14.0055 36.0562C13.8745 36.0518 13.744 36.0732 13.6214 36.119C13.4988 36.1649 13.3867 36.2343 13.2915 36.3233C13.1963 36.4122 13.1199 36.519 13.0668 36.6374C13.0137 36.7557 12.9848 36.8833 12.982 37.0128C12.9502 38.46 12.9709 39.9045 12.9709 41.3968ZM48.1894 26.7633C48.0419 26.6336 47.8852 26.5144 47.7206 26.4066C46.1023 25.5361 44.4771 24.6765 42.8603 23.8019C42.7563 23.7314 42.6338 23.6924 42.5078 23.6897C42.3817 23.6871 42.2576 23.7208 42.1507 23.7869C40.5228 24.6751 38.8796 25.5388 37.2461 26.4176C37.0897 26.5192 36.9417 26.633 36.8035 26.7578C36.8736 26.8201 36.9485 26.8767 37.0276 26.9273C38.769 27.7473 40.5089 28.5672 42.2586 29.3721C42.4274 29.4325 42.6134 29.4257 42.7773 29.353C44.4481 28.5836 46.1106 27.7992 47.7745 27.0148C47.8921 26.9601 47.9986 26.8781 48.1894 26.7633ZM47.2212 19.1213C47.0428 18.8398 46.9446 18.5118 46.7289 18.371C45.4149 17.5306 44.0746 16.7311 42.7372 15.9248C42.6768 15.8889 42.6094 15.8664 42.5394 15.8589C42.4694 15.8513 42.3986 15.8589 42.3319 15.8811C40.9331 16.7156 39.5421 17.5638 38.159 18.4257C37.7441 18.6867 37.7994 19.3591 38.2212 19.5859C39.5366 20.2897 40.8492 20.999 42.1756 21.6864C42.2604 21.7294 42.353 21.7553 42.448 21.7623C42.5431 21.7693 42.6385 21.7575 42.7289 21.7274C44.112 21.0113 45.4951 20.272 46.863 19.5272C46.9847 19.4602 47.0594 19.3058 47.2157 19.1213H47.2212ZM42.4882 7.47241C41.5463 8.2705 40.6473 9.09319 39.6791 9.82569C39.1424 10.2357 38.9515 10.7099 38.9017 11.3289C38.8769 11.6446 38.9557 11.8209 39.2323 11.9835C40.195 12.5475 41.147 13.1292 42.0885 13.7287C42.372 13.9105 42.5753 13.9282 42.8699 13.7383C43.7634 13.1616 44.686 12.6286 45.5878 12.0628C45.7759 11.9453 46.0663 11.7471 46.0553 11.6036C46.0235 11.1472 46.0207 10.55 45.7385 10.2753C44.7247 9.28998 43.5947 8.41126 42.4882 7.47241ZM34.9654 41.2041L40.7551 38.3343L35.6818 35.8197C35.4453 37.6168 35.2157 39.3483 34.9681 41.2055L34.9654 41.2041ZM49.2904 35.8156L44.2226 38.3316L50.0027 41.2014C49.762 39.3592 49.5324 37.6264 49.2932 35.817L49.2904 35.8156ZM16.9529 18.7796H20.1438V15.0024H16.9529V18.7796ZM20.1466 4.72555V1.58237H16.9654V4.72555H20.1466ZM46.8035 41.431L46.8174 41.3381C45.4495 40.6548 44.0843 39.9715 42.7081 39.3114C42.6243 39.284 42.5357 39.2732 42.4477 39.2798C42.3596 39.2863 42.2737 39.3101 42.195 39.3497C40.9266 39.9605 39.668 40.5919 38.408 41.2192C38.3066 41.2829 38.21 41.3537 38.1189 41.431H46.8035ZM20.1604 9.0727V6.31217C19.1549 6.31217 18.1798 6.31217 17.206 6.32173C17.1134 6.32173 16.9432 6.45839 16.9419 6.53629C16.9225 7.37675 16.9294 8.21721 16.9294 9.0727H20.1604ZM20.1701 10.6743H16.9557V13.3829H20.1701V10.6743ZM36.6542 28.4579C36.473 29.8245 36.3029 31.1159 36.123 32.4839L40.6735 30.3438L36.6542 28.4579ZM48.8506 32.4811C48.668 31.1064 48.4979 29.8163 48.3181 28.4661L44.307 30.352L48.8506 32.4811ZM40.8575 22.7469L37.632 21.0277C37.4661 22.2945 37.3112 23.4657 37.1452 24.7175L40.8575 22.7469ZM47.336 21.0332L44.1286 22.7469L47.8284 24.723C47.6611 23.4466 47.5062 22.2754 47.3388 21.0277L47.336 21.0332ZM44.9363 2.85741C44.8814 2.5917 44.8481 2.32208 44.8367 2.05111C44.8533 1.60424 44.6334 1.52224 44.2365 1.54001C43.5836 1.56871 42.928 1.54821 42.2738 1.54821H40.1991C40.1438 2.01968 40.0954 2.42693 40.0456 2.85741H44.9363ZM38.6334 13.4267C38.4951 14.5049 38.3692 15.4766 38.2295 16.5699L41.0055 14.8739L38.6334 13.4267ZM46.336 13.4267L43.9626 14.8725L46.7468 16.5699C46.6044 15.4547 46.4771 14.4817 46.3388 13.4198L46.336 13.4267ZM39.733 5.14373C39.5947 6.16731 39.473 7.08566 39.3319 8.13111L41.2876 6.46659L39.733 5.14373ZM43.6832 6.46796L45.6362 8.12564C45.4979 7.07746 45.3734 6.16321 45.2378 5.14509L43.6832 6.46796ZM42.4854 5.45531L43.6804 4.44129H41.3042L42.4854 5.45531Z" fill="black"/>
</g>
<defs>
<clipPath id="clip0_844_211">
<rect width="53" height="43" fill="white"/>
</clipPath>
</defs>
</svg>
