<svg width="36" height="36" viewBox="0 0 36 36" fill="none" xmlns="http://www.w3.org/2000/svg">
<g clip-path="url(#clip0_920_85)">
<path d="M33.028 19.0358L27.2662 21.2812C27.1011 18.9179 27.1011 18.9179 31.6559 18.3285V14.9603C26.0364 13.5625 25.1482 11.5921 28.4618 6.97776L25.7574 4.3506C23.8672 7.15739 21.7719 7.1574 19.5401 5.60243C19.0846 5.28246 18.5039 4.63689 18.5494 4.19903C18.8682 1.13401 16.9894 1.12278 14.6722 1.45959C13.8409 2.91351 14.86 5.09159 12.2296 6.1694C9.73019 7.19108 8.58582 6.00099 6.91762 4.62566L4.49219 7.65139C4.86226 8.83025 7.21367 9.54879 6.0465 12.0468C5.03875 14.1968 3.7691 14.7301 1.4917 14.5786V18.3172C3.13712 18.7382 5.03302 18.4295 6.00661 20.9163C6.9802 23.4031 5.29496 24.2845 4.05378 26.1089L6.79801 28.388C11.3528 25.1995 13.6302 26.064 14.6266 31.4081H17.9003C19.2326 27.3495 19.2326 27.3495 20.7471 27.4056C20.4241 28.7069 20.0094 29.9843 19.5059 31.2285C19.1928 31.8965 18.3672 32.8059 17.7979 32.7835C16.2322 32.7161 13.7782 32.7161 13.2772 31.8123C10.7607 27.3214 10.9429 27.2428 6.77529 30.1282L2.69302 25.9293C2.73574 25.6902 2.82048 25.4603 2.9435 25.25C5.84149 21.7359 5.56826 20.95 1.29244 19.6869C0.929773 19.4977 0.620306 19.2228 0.391783 18.8868C0.16326 18.5508 0.0227797 18.1641 -0.0170898 17.7615C0.0569257 16.3188 0.136635 14.0172 0.979273 13.613C5.83013 11.2946 5.90418 11.4462 2.35712 7.04512L7.13391 3.11561C7.70326 3.58154 8.38649 4.20464 9.13803 4.73232C10.5329 5.72031 12.9072 4.99616 12.7933 3.44681C12.5143 -0.286235 14.8657 -0.0392367 17.3196 0.0786489L19.2896 0.190923C19.3087 0.993666 19.4272 1.7911 19.6426 2.56547C19.9899 3.41874 20.451 4.51339 21.1684 4.81091C21.8858 5.10843 23.332 4.9288 23.8216 4.39551C25.9623 2.02657 26.9758 4.08676 28.3422 5.24316C29.7086 6.39956 30.352 7.4886 28.6554 9.08847C28.3245 9.37097 28.0772 9.7365 27.9399 10.1463C27.8026 10.5561 27.7804 10.9949 27.8756 11.4161C27.9707 11.8374 28.1797 12.2254 28.4804 12.5391C28.781 12.8527 29.1622 13.0803 29.5834 13.1976C30.7221 13.5008 32.7091 13.5513 32.8572 14.0958C33.3127 15.7462 33.028 17.565 33.028 19.0358Z" fill="black"/>
<path d="M13.004 16.6668L17.7466 20.9781L20.1322 17.8288L16.1923 13.5962C18.2989 12.2209 20.2518 12.4735 22.1307 13.439C24.4992 14.6347 26.1161 16.6444 25.7745 19.2659C25.4841 21.6854 26.5545 23.0719 28.1202 24.5315C30.4603 26.7039 32.675 29.0224 34.9524 31.2285C36.279 32.5196 36.3872 33.6985 34.9524 35.0345C33.5177 36.3706 32.3619 36.3313 31.0353 35.0345C28.4448 32.4466 25.9111 29.8083 23.1555 27.3832C22.2238 26.6163 21.0305 26.2288 19.8191 26.2998C15.6287 26.7601 10.2198 22.1625 13.004 16.6668ZM13.4139 18.9123C14.1085 23.4761 16.2606 25.3623 19.9728 24.7111C21.7492 24.3911 22.8196 24.9244 23.8899 26.0977C26.7367 29.1627 29.6859 32.1772 32.4302 35.0794C34.8101 33.8669 34.9296 32.9013 33.4949 31.5541C30.8986 29.1066 28.422 26.5355 25.8428 24.0655C24.7041 22.9428 24.1347 21.9885 24.5105 20.1865C24.6844 19.4065 24.6595 18.596 24.4381 17.8277C24.2166 17.0595 23.8055 16.3573 23.2415 15.7839C22.6775 15.2106 21.9782 14.784 21.2061 14.5423C20.434 14.3006 19.6131 14.2514 18.817 14.3989C19.8646 16.1841 22.8025 17.2899 20.1664 20.1978C17.3025 23.347 15.6742 20.9332 13.4082 18.9291L13.4139 18.9123Z" fill="black"/>
<path d="M21.1343 11.6034C18.0086 10.4301 14.8714 9.54878 12.1385 12.0917C9.40565 14.6347 10.0092 17.7053 11.0397 20.8602C8.76232 19.1761 8.54025 16.9812 9.16084 14.6852C9.49019 13.257 10.2646 11.9661 11.3755 10.9937C12.4864 10.0212 13.878 9.41586 15.3554 9.26248C17.5588 8.91444 19.7792 9.27932 21.1343 11.6034Z" fill="black"/>
</g>
<defs>
<clipPath id="clip0_920_85">
<rect width="36" height="36" fill="white"/>
</clipPath>
</defs>
</svg>
