<svg width="45" height="25" viewBox="0 0 45 25" fill="none" xmlns="http://www.w3.org/2000/svg">
<g clip-path="url(#clip0_920_128)">
<path d="M33.8839 6.22087C35.5702 6.22087 37.1836 6.23499 38.797 6.21382C39.6977 6.20206 40.3257 6.5666 40.7608 7.35919C41.945 9.52293 43.1515 11.6737 44.3557 13.8269C44.7891 14.5821 45.0117 15.4399 45.0001 16.3105C44.986 17.5006 45.0001 18.6918 45.0001 19.883C45.0001 20.7967 44.5238 21.3236 43.6254 21.2671C42.8787 21.2201 42.4742 21.3671 42.179 22.1738C41.6392 23.6484 40.0494 24.5386 38.5336 24.4422C37.7432 24.404 36.9835 24.1242 36.3573 23.6405C35.731 23.1568 35.2683 22.4926 35.0316 21.7375C34.9881 21.5999 34.9457 21.4612 34.8905 21.2824H32.6562C29.3106 21.2824 25.965 21.2824 22.6183 21.2754C22.2937 21.2754 22.1479 21.3389 22.0421 21.6834C21.8095 22.4789 21.3261 23.1778 20.6638 23.6761C20.0015 24.1743 19.196 24.4451 18.3672 24.4481C17.5385 24.4479 16.7319 24.1803 16.0674 23.6849C15.403 23.1895 14.9162 22.4929 14.6794 21.6987C14.5807 21.3694 14.4525 21.2707 14.1126 21.2742C12.3076 21.293 10.5025 21.2836 8.70328 21.2824C7.9883 21.2824 7.76252 21.0472 7.76252 20.3299C7.76252 18.86 7.76252 17.39 7.76252 15.8613C7.58966 15.8531 7.43561 15.839 7.28273 15.839H2.6154C2.46895 15.8461 2.32216 15.8402 2.17677 15.8213C2.02146 15.8012 1.87868 15.7256 1.77473 15.6084C1.67078 15.4913 1.61268 15.3405 1.61114 15.1839C1.59246 15.0356 1.62715 14.8854 1.70901 14.7602C1.79087 14.6351 1.91457 14.5431 2.058 14.5007C2.24026 14.4468 2.43019 14.4233 2.6201 14.4313C5.39299 14.4313 8.16627 14.4313 10.9399 14.4313C11.0427 14.4278 11.1456 14.4301 11.248 14.4384C11.6784 14.4866 11.9465 14.763 11.9454 15.144C11.9454 15.5497 11.6573 15.826 11.1963 15.8342C10.5389 15.8448 9.88276 15.8342 9.19718 15.8342V19.8525C9.29949 19.8595 9.38298 19.8689 9.46765 19.8689C11.0528 19.8689 12.6427 19.8689 14.2232 19.8689C14.4584 19.8689 14.576 19.8125 14.6489 19.5573C15.1581 17.8098 16.6303 16.6939 18.3825 16.6974C20.1053 16.6974 21.5705 17.8181 22.0867 19.5432C22.1491 19.749 22.1973 19.8701 22.4525 19.8701C25.7396 19.8591 29.0268 19.8552 32.314 19.8583C32.3587 19.8517 32.4028 19.8411 32.4457 19.8266V1.44535H9.18307V3.60792H9.64522C10.8047 3.60792 11.9642 3.60792 13.1237 3.60792C13.687 3.60792 14.0021 3.87133 14.0009 4.31349C13.9997 4.75564 13.6811 5.01906 13.1213 5.01906C10.3774 5.02376 7.63356 5.02376 4.88968 5.01906C4.81626 5.02064 4.7428 5.0175 4.66978 5.00965C4.26643 4.95791 4.00537 4.68744 4.00067 4.32054C3.99658 4.2276 4.01171 4.13481 4.04513 4.04798C4.07854 3.96115 4.12951 3.88215 4.19486 3.81592C4.2602 3.7497 4.33851 3.69767 4.42488 3.66309C4.51125 3.62851 4.60383 3.61213 4.69682 3.61497C5.51999 3.59381 6.34315 3.60557 7.16632 3.60321H7.74723C7.74723 2.89765 7.74723 2.22383 7.74723 1.55471C7.74723 0.457554 8.20233 -0.00341797 9.29243 -0.00341797H32.3187C33.4276 -0.00341797 33.8839 0.466961 33.885 1.58646C33.885 2.95291 33.885 4.32015 33.885 5.68817L33.8839 6.22087ZM33.9156 19.8489C34.8199 19.916 34.8199 19.916 35.108 19.1739C35.1339 19.1057 35.1609 19.0375 35.1915 18.9705C35.5158 18.2567 36.0493 17.6581 36.7212 17.2541C37.3932 16.8501 38.172 16.6597 38.9545 16.708C40.5491 16.7997 41.9238 17.9051 42.4154 19.4726C42.46 19.6173 42.5694 19.8254 42.6776 19.8501C42.9681 19.903 43.2738 19.8677 43.5901 19.8677C43.5901 18.6354 43.5819 17.4747 43.5901 16.314C43.6007 15.6945 43.4451 15.0834 43.1397 14.5442C41.9317 12.3781 40.7271 10.2093 39.5261 8.03771C39.4664 7.90518 39.3673 7.79429 39.2423 7.7202C39.1173 7.64611 38.9724 7.61244 38.8275 7.62378C37.2988 7.63789 35.7701 7.62378 34.2496 7.63084C34.1377 7.63638 34.0263 7.64776 33.9156 7.66494V19.8489ZM15.9236 20.5463C15.9236 21.9492 16.9725 23.0228 18.3449 23.0346C18.6685 23.0338 18.9888 22.9688 19.2871 22.8432C19.5854 22.7176 19.8557 22.534 20.0824 22.303C20.3091 22.0721 20.4877 21.7983 20.6077 21.4978C20.7277 21.1972 20.7867 20.8757 20.7814 20.5521C20.7821 20.2326 20.7197 19.9161 20.598 19.6207C20.4763 19.3253 20.2976 19.0567 20.0722 18.8304C19.8467 18.604 19.5788 18.4243 19.2838 18.3014C18.9889 18.1786 18.6726 18.115 18.3531 18.1144C18.0333 18.1117 17.7161 18.1729 17.4202 18.2942C17.1243 18.4155 16.8555 18.5947 16.6296 18.8211C16.4037 19.0475 16.2253 19.3167 16.1047 19.6129C15.984 19.9092 15.9237 20.2265 15.9271 20.5463H15.9236ZM41.1277 20.5921C41.1277 19.1951 40.0693 18.1156 38.6994 18.1144C38.3798 18.1136 38.0633 18.1762 37.7681 18.2984C37.4728 18.4206 37.2047 18.6002 36.9793 18.8266C36.7538 19.0531 36.5755 19.3219 36.4545 19.6177C36.3335 19.9135 36.2724 20.2303 36.2746 20.5498C36.2746 21.9409 37.3329 23.0193 38.7041 23.0346C39.0239 23.034 39.3405 22.9703 39.6357 22.8471C39.9309 22.724 40.1989 22.5438 40.4244 22.3169C40.6498 22.09 40.8283 21.8209 40.9496 21.5249C41.0709 21.229 41.1326 20.912 41.1312 20.5921H41.1277Z" fill="black"/>
<path d="M7.74588 11.2339C7.74588 9.85336 7.74 8.54688 7.74588 7.2357C7.74588 6.79119 8.05163 6.48662 8.4444 6.4878C8.83716 6.48897 9.1241 6.79707 9.14997 7.23923C9.15702 7.37093 9.14997 7.50382 9.14997 7.6367V11.2327H18.0354C18.1671 11.2249 18.2993 11.2276 18.4306 11.241C18.7904 11.3021 19.0185 11.5114 19.0373 11.8866C19.062 12.2829 18.8539 12.5251 18.4823 12.6215C18.3524 12.6451 18.22 12.6523 18.0883 12.6427H6.1219C6.01911 12.6467 5.91616 12.6435 5.8138 12.6333C5.63739 12.6174 5.47382 12.5344 5.35694 12.4013C5.24005 12.2682 5.1788 12.0953 5.18585 11.9183C5.18491 11.8297 5.20165 11.7417 5.23511 11.6596C5.26856 11.5775 5.31805 11.5029 5.38069 11.4402C5.44332 11.3774 5.51784 11.3278 5.59988 11.2942C5.68192 11.2606 5.76984 11.2437 5.85849 11.2445C6.46998 11.221 7.08735 11.2339 7.74588 11.2339Z" fill="black"/>
<path d="M3.03632 7.51192C3.81127 7.51192 4.5874 7.51192 5.36352 7.51192C5.89388 7.51192 6.18668 7.77298 6.1808 8.21749C6.17492 8.662 5.88094 8.92306 5.35764 8.92306C3.82028 8.93011 2.28332 8.93011 0.746752 8.92306C0.197584 8.92306 0.00237839 8.70786 0.00590624 8.18456C0.00590624 7.69184 0.19523 7.52015 0.758509 7.51662C1.51347 7.50721 2.27548 7.51192 3.03632 7.51192Z" fill="black"/>
</g>
<defs>
<clipPath id="clip0_920_128">
<rect width="45" height="24.448" fill="white"/>
</clipPath>
</defs>
</svg>
