<svg width="54" height="52" viewBox="0 0 54 52" fill="none" xmlns="http://www.w3.org/2000/svg">
<g clip-path="url(#clip0_844_50)">
<path d="M0.00018423 50.905C0.278103 50.5173 0.665801 50.3992 1.12993 50.4242C1.5468 50.4478 1.96368 50.4242 2.42086 50.4242V37.8206C2.39723 37.8067 2.38334 37.7914 2.36805 37.79C0.795029 37.6107 0.646349 37.4426 0.646349 35.8446C0.646349 35.5319 0.646349 35.2192 0.646349 34.9066C0.654687 33.8922 1.04516 33.4961 2.06235 33.4642C2.16657 33.4642 2.26939 33.4503 2.4681 33.435V10.6887C2.4681 9.58679 2.63208 9.42282 3.72708 9.42143H6.05047V8.85586C6.05047 6.26751 6.05047 3.67916 6.05047 1.09081C6.05047 0.257053 6.29088 0.00275798 7.13158 0.00136838C11.8201 0.00136838 16.5095 0.00136838 21.1998 0.00136838C21.3392 -0.00200681 21.4786 0.00589305 21.6167 0.0249912C21.802 0.0399254 21.9742 0.126227 22.0971 0.265698C22.22 0.405169 22.2839 0.586909 22.2754 0.772594C22.2897 0.959622 22.23 1.14479 22.1091 1.28825C21.9883 1.43171 21.816 1.52198 21.6292 1.53965C21.4228 1.56613 21.2146 1.57589 21.0067 1.56883H7.64295V9.39225H27.2918V1.56883C26.5553 1.56883 25.8327 1.56883 25.1102 1.56883C24.885 1.57785 24.6596 1.56294 24.4376 1.52436C24.2631 1.49525 24.1063 1.40069 23.9992 1.25997C23.892 1.11925 23.8426 0.942957 23.8609 0.767035C23.872 0.369611 24.0846 0.0583412 24.4751 0.0486141C25.741 0.0152638 27.0097 0.00275747 28.2743 0.0486141C28.7815 0.069458 28.8899 0.519687 28.8885 0.981033C28.8829 3.20438 28.8829 5.42773 28.8885 7.65108V9.42143C29.7639 9.42143 30.5921 9.42143 31.4189 9.42143C32.2457 9.42143 32.4986 9.67155 32.4986 10.5164C32.4986 16.664 32.4986 22.8125 32.4986 28.9619V29.5177L32.5987 29.6234C33.5895 27.1665 35.2973 26.0785 37.9708 26.7483C38.1293 25.3503 38.2849 23.9816 38.4447 22.5795C38.264 22.5628 38.114 22.5545 37.9639 22.5336C37.4817 22.4669 37.1816 22.1307 37.2121 21.6999C37.2399 21.283 37.554 21.0051 38.0209 20.9842C38.453 20.9703 38.8852 20.9842 39.3632 20.9842V18.0981C39.0686 18.0981 38.7782 18.1106 38.4892 18.0981C38.0042 18.0717 37.7221 17.8007 37.7027 17.3671C37.6832 16.9336 37.9722 16.5917 38.4641 16.5514C38.7546 16.5264 39.0478 16.5514 39.3757 16.5514V15.5746C39.1853 15.4356 38.9394 15.3314 38.7824 15.1466C38.7139 15.0609 38.6656 14.961 38.6412 14.8541C38.6167 14.7472 38.6167 14.6362 38.6412 14.5293C38.6656 14.4225 38.7139 14.3225 38.7824 14.2369C38.8508 14.1512 38.9378 14.0822 39.0367 14.0349C39.2785 13.9195 39.4049 13.8139 39.4535 13.5305C39.5175 13.1233 39.8176 12.8982 40.2373 12.919C40.6569 12.9399 40.8918 13.1803 40.9751 13.5958C40.9855 13.6642 41.0097 13.7298 41.0463 13.7886C41.0829 13.8473 41.131 13.898 41.1878 13.9376C41.5713 14.096 41.8575 14.3739 41.7436 14.7602C41.6561 15.0757 41.3448 15.33 41.1322 15.6107L40.9932 15.5204V16.532C41.2711 16.532 41.5491 16.5236 41.8117 16.532C42.3675 16.5528 42.7233 16.8766 42.7121 17.3338C42.701 17.791 42.3592 18.0758 41.827 18.0994C41.5685 18.1078 41.31 18.0994 41.0113 18.0994V20.9148H45.5316V18.0994C45.2398 18.0994 44.9522 18.1106 44.6659 18.0994C44.1531 18.0744 43.8613 17.7923 43.8572 17.3379C43.853 16.8835 44.1448 16.5848 44.6478 16.5487C44.9258 16.5278 45.2037 16.5487 45.5469 16.5487C45.4969 16.0901 45.8082 15.6301 45.13 15.3355C44.5937 15.1007 44.6895 14.3336 45.2092 14.0126C45.3792 13.9006 45.5088 13.7369 45.5789 13.5457C45.7178 13.1539 45.9541 12.9121 46.3737 12.926C46.7934 12.9399 47.0213 13.1775 47.1269 13.5888C47.189 13.7653 47.3129 13.9134 47.4757 14.0057C48.0107 14.3184 48.1274 15.0868 47.5896 15.3133C46.9532 15.5829 47.1588 16.0206 47.1311 16.5445C47.4409 16.5445 47.7272 16.532 48.0121 16.5445C48.5332 16.5723 48.8708 16.8947 48.8639 17.3393C48.8569 17.784 48.5179 18.0828 47.987 18.1008C47.73 18.1092 47.4715 18.1008 47.1686 18.1008V20.9092C47.5646 20.9092 47.9426 20.9092 48.3205 20.9092C48.975 20.9092 49.3336 21.1982 49.3322 21.6985C49.3308 22.1987 49.0278 22.4266 48.3706 22.4753C48.3053 22.4753 48.2399 22.4961 48.1121 22.5184C48.2066 23.4091 48.2941 24.2845 48.39 25.1586C48.8301 29.0911 49.2715 33.0237 49.7143 36.9562C50.1488 40.8193 50.5847 44.6824 51.0219 48.5455C51.0775 49.0457 51.1386 49.546 51.1762 50.0476C51.197 50.3255 51.3151 50.4534 51.6 50.4311C51.8084 50.4158 52.0169 50.4436 52.2253 50.4311C52.6894 50.3922 53.0743 50.5242 53.355 50.9092V51.5345C53.0493 51.9194 52.645 52.0042 52.1669 52.0042C35.1722 51.9958 18.1775 51.9958 1.18273 52.0042C0.70471 52.0042 0.30034 51.9222 -0.00537109 51.5345L0.00018423 50.905ZM4.0578 33.4281H30.8978V11.0236H4.0578V33.4281ZM10.2957 50.402C10.2957 48.5107 10.2957 46.6903 10.2804 44.8686C10.2804 44.756 10.0331 44.6615 9.93578 44.5323C9.74819 44.2863 9.47861 44.0376 9.44109 43.7625C9.38967 43.3942 9.66898 43.1219 10.0609 43.0482C10.2324 43.0229 10.4059 43.0136 10.5792 43.0204H24.3848C24.5571 43.0204 24.778 42.9774 24.8934 43.0635C25.1338 43.2469 25.4631 43.4887 25.4881 43.7333C25.5131 43.9779 25.2658 44.4045 25.0393 44.4892C24.6794 44.6282 24.6641 44.8102 24.6655 45.1034C24.6655 46.7015 24.6655 48.2995 24.6655 49.8961C24.6655 50.0629 24.6808 50.2296 24.6891 50.3936H30.9312V49.7975C30.9312 48.3731 30.9312 46.9488 30.9312 45.5259C30.9312 44.9408 31.2091 44.6046 31.6829 44.5921C32.1568 44.5796 32.4847 44.9436 32.4903 45.5384C32.4986 46.632 32.4903 47.7256 32.4903 48.8206V50.3964H35.3126C35.4918 48.8025 35.6697 47.2365 35.8448 45.6718C36.2153 42.4118 36.5812 39.1523 36.9425 35.8932C37.208 33.5309 37.4623 31.1686 37.7374 28.8063C37.7749 28.4839 37.6749 28.3421 37.3747 28.2407C36.8566 28.0512 36.2885 28.0491 35.7689 28.2346C35.2494 28.4201 34.8111 28.7817 34.5302 29.2565C34.3426 29.5664 34.1842 29.8971 34.0188 30.2209C33.7117 30.817 33.3435 31.352 32.6932 31.6327C32.644 31.6581 32.6012 31.6943 32.568 31.7386C32.5348 31.7828 32.512 31.8341 32.5014 31.8884C32.4833 32.4011 32.4931 32.9139 32.4931 33.4433C32.6904 33.4545 32.8099 33.4628 32.9294 33.467C33.8771 33.4975 34.2773 33.9061 34.2842 34.8566C34.2842 35.2568 34.2842 35.6556 34.2842 36.0558C34.2842 37.4356 34.0063 37.7233 32.6265 37.7872C32.5959 37.7872 32.5681 37.815 32.4875 37.8553V38.3403C32.4875 39.5381 32.4875 40.7364 32.4875 41.9352C32.4875 42.6438 32.2249 43.0037 31.7149 43.0121C31.2049 43.0204 30.9284 42.6772 30.9256 41.9657C30.9256 40.993 30.9256 40.0203 30.9256 39.0476V37.8081H4.06753V50.4006L10.2957 50.402ZM37.636 43.8069C37.3872 46.0206 37.144 48.1967 36.8925 50.4297C38.0348 50.4297 39.1075 50.4423 40.1789 50.42C40.4705 50.4143 40.7581 50.3511 41.0252 50.2338C43.1262 49.2889 45.2176 48.3245 47.3117 47.3643C47.4507 47.3032 47.5716 47.2253 47.7856 47.1072L37.636 43.8069ZM2.24021 36.1753H32.6959V35.0636H2.24021V36.1753ZM49.1529 45.9094L48.4512 39.6479L39.6662 42.705L39.6745 42.8203L49.1529 45.9094ZM18.3123 44.5823V50.3978H23.0369C23.0634 50.3421 23.0826 50.2833 23.0939 50.2227C23.0939 48.4537 23.0938 46.6848 23.1077 44.9158C23.1077 44.6185 22.9549 44.5768 22.7145 44.5796C22.0558 44.5879 21.3958 44.5796 20.7371 44.5796L18.3123 44.5823ZM16.6447 50.3992V44.6171H11.8882V50.395L16.6447 50.3992ZM46.8295 38.5543L38.5712 35.4305C38.3391 37.5274 38.1126 39.5603 37.8764 41.6836L46.8295 38.5543ZM40.1164 34.3424L48.1955 37.3995C47.962 35.3151 47.7397 33.328 47.5104 31.2853L40.1164 34.3424ZM38.8255 33.1849L46.1903 30.1278L39.5091 27.1082C39.2812 29.1342 39.0617 31.0949 38.8268 33.1849H38.8255ZM40.5346 25.8562L47.2255 28.8827C47.2033 28.5909 47.195 28.4019 47.1741 28.2157C46.9782 26.4773 46.7781 24.7417 46.5863 23.0019C46.5238 22.428 46.3598 22.3196 45.8637 22.617C44.1156 23.6689 42.3745 24.7361 40.536 25.8575L40.5346 25.8562ZM44.6673 50.2963L44.6979 50.3825H49.6532C49.5656 49.6196 49.4836 48.9081 49.3933 48.1341L44.6673 50.2963ZM39.8037 24.4735L42.9345 22.56H40.0205C39.9496 23.1895 39.8815 23.7732 39.7995 24.468L39.8037 24.4735Z" fill="#282366"/>
<path d="M19.9449 4.63153C18.6943 4.63153 17.4436 4.63153 16.193 4.63153C15.5941 4.63153 15.23 4.32165 15.2342 3.84363C15.2383 3.36561 15.6038 3.0724 16.2069 3.07101C18.7082 3.07101 21.2048 3.07101 23.6968 3.07101C24.3068 3.07101 24.6695 3.35866 24.6806 3.8339C24.6917 4.30914 24.3179 4.63014 23.6815 4.63153C22.4406 4.63431 21.1927 4.63153 19.9449 4.63153Z" fill="#282366"/>
<path d="M19.9532 7.92067C18.7749 7.92067 17.5909 7.92067 16.4181 7.92067C16.2124 7.92067 15.947 7.96097 15.8122 7.85397C15.5788 7.66777 15.3189 7.40097 15.2675 7.13C15.1994 6.77009 15.4565 6.48105 15.8484 6.38934C15.9499 6.36896 16.0533 6.35964 16.1569 6.36155C18.6878 6.36155 21.2178 6.36155 23.7468 6.36155C23.8507 6.35946 23.9545 6.36784 24.0567 6.38656C24.2313 6.4094 24.3913 6.49567 24.5064 6.62892C24.6215 6.76218 24.6835 6.93311 24.6806 7.10915C24.6972 7.28495 24.6476 7.46061 24.5414 7.60172C24.4352 7.74283 24.2802 7.83923 24.1067 7.87204C23.9204 7.91103 23.7301 7.92782 23.5398 7.92206C22.3447 7.92345 21.1483 7.92067 19.9532 7.92067Z" fill="#282366"/>
<path d="M11.3085 5.80016C10.9333 5.80016 10.6776 5.81405 10.4247 5.80016C9.71462 5.75291 9.39361 5.14149 9.79382 4.54952C10.2107 3.93254 10.6581 3.33779 11.1139 2.74305C11.1731 2.65726 11.2489 2.58424 11.3368 2.5283C11.4248 2.47237 11.523 2.43466 11.6258 2.41743C11.7286 2.40019 11.8338 2.40377 11.9351 2.42796C12.0365 2.45215 12.132 2.49645 12.2159 2.55823C12.5619 2.81253 12.623 3.26137 12.3618 3.66991C12.2604 3.82832 12.145 3.97701 11.9574 4.24242C12.2937 4.24242 12.5397 4.22436 12.7828 4.24242C13.4901 4.30634 13.8084 4.92054 13.4123 5.5139C12.8065 6.4213 12.1728 7.30925 11.5336 8.19304C11.2223 8.62242 10.7707 8.69607 10.4025 8.42232C10.0342 8.14857 9.98558 7.70807 10.2816 7.26896C10.5776 6.82984 10.9124 6.36711 11.3085 5.80016Z" fill="#282366"/>
<path d="M11.8602 16.7724C11.8602 17.727 11.8602 18.6817 11.8602 19.6363C11.8518 20.452 11.4516 20.8592 10.6457 20.8675C9.65627 20.8786 8.66688 20.8814 7.67749 20.8675C6.92016 20.8564 6.51578 20.4645 6.51022 19.7017C6.49448 17.7562 6.49448 15.8108 6.51022 13.8654C6.51022 13.1192 6.90487 12.7384 7.63997 12.7287C8.66456 12.7139 9.6887 12.7139 10.7124 12.7287C11.4669 12.7398 11.8491 13.1344 11.8588 13.9071C11.8699 14.8631 11.8602 15.8177 11.8602 16.7724ZM10.2719 14.3239H8.10548V19.2709H10.2719V14.3239Z" fill="#282366"/>
<path d="M11.8601 27.6112C11.8601 28.5659 11.8601 29.5205 11.8601 30.4752C11.8532 31.3242 11.4572 31.7258 10.6095 31.7258C9.63679 31.7258 8.66407 31.7342 7.69136 31.7258C6.92847 31.7189 6.51159 31.3381 6.50604 30.5822C6.48936 28.6201 6.48936 26.6584 6.50604 24.6973C6.50604 23.9649 6.92291 23.5981 7.66495 23.5856C8.67102 23.5782 9.67755 23.5782 10.6845 23.5856C11.4405 23.5856 11.8393 23.9816 11.8518 24.7445C11.8713 25.7019 11.8601 26.6566 11.8601 27.6112ZM10.2607 30.1445V25.1822H8.10129V30.1445H10.2607Z" fill="#282366"/>
<path d="M28.4463 27.664C28.4463 28.602 28.4463 29.5386 28.4463 30.4766C28.4463 31.3312 28.0545 31.7189 27.1957 31.7272C26.2397 31.7328 25.2845 31.7328 24.3304 31.7272C23.4966 31.7272 23.1061 31.3548 23.102 30.5294C23.0936 28.6034 23.0936 26.6765 23.102 24.7487C23.102 23.9677 23.4827 23.5995 24.2553 23.5925C25.2614 23.5842 26.2679 23.5842 27.2749 23.5925C28.0322 23.5925 28.4283 23.9927 28.4366 24.7528C28.4547 25.7186 28.4463 26.6913 28.4463 27.664ZM24.6944 30.1347H26.8511V25.1781H24.6944V30.1347Z" fill="#282366"/>
<path d="M14.8006 16.8252C14.8006 15.8705 14.8006 14.9159 14.8006 13.9626C14.8006 13.1205 15.1674 12.7384 15.9914 12.7287C16.9808 12.7176 17.9702 12.7176 18.9596 12.7287C19.767 12.7384 20.131 13.1066 20.1338 13.9196C20.1412 15.8289 20.1412 17.7382 20.1338 19.6475C20.1338 20.4812 19.7503 20.8592 18.9249 20.8675C17.9531 20.8786 16.9804 20.8786 16.0067 20.8675C15.191 20.8592 14.8019 20.4506 14.7978 19.6377C14.7964 18.6998 14.8006 17.7632 14.8006 16.8252ZM16.3972 14.3142V19.2723H18.5344V14.3142H16.3972Z" fill="#282366"/>
<path d="M28.4464 16.7821C28.4464 17.7368 28.4464 18.6914 28.4464 19.6461C28.4395 20.4576 28.042 20.8592 27.2263 20.8675C26.2536 20.8787 25.2809 20.8787 24.3082 20.8675C23.5064 20.8592 23.1117 20.4798 23.1076 19.6906C23.0992 17.7451 23.0992 15.7997 23.1076 13.8543C23.1076 13.108 23.4897 12.7426 24.2373 12.7259C25.2434 12.712 26.2499 12.712 27.2569 12.7259C28.0559 12.7342 28.4367 13.1192 28.4436 13.914C28.452 14.8798 28.4464 15.8275 28.4464 16.7821ZM26.8525 19.2834V14.3239H24.7126V19.2806L26.8525 19.2834Z" fill="#282366"/>
<path d="M18.5609 30.1333V25.1947H16.3639C16.3639 25.5602 16.3639 25.9507 16.3639 26.3397C16.3639 26.9456 16.0624 27.2944 15.5732 27.2875C15.0841 27.2805 14.8104 26.9387 14.8034 26.3689C14.7965 25.7992 14.7923 25.2573 14.8034 24.7014C14.8187 24.0066 15.2092 23.5981 15.9012 23.5897C16.9601 23.5772 18.0189 23.5758 19.0778 23.5897C19.7281 23.5981 20.1255 23.9802 20.1297 24.6292C20.1436 26.6422 20.1436 28.6553 20.1297 30.6683C20.1297 31.3034 19.7128 31.705 19.075 31.7147C17.9995 31.7342 16.9225 31.7355 15.847 31.7147C15.2244 31.7022 14.8312 31.2742 14.8048 30.6419C14.7923 30.3307 14.7923 30.0166 14.8048 29.7053C14.8242 29.2051 15.1161 28.891 15.5552 28.8716C16.0193 28.8549 16.3306 29.1704 16.3639 29.6942C16.3723 29.8332 16.3778 29.9652 16.3848 30.1278L18.5609 30.1333Z" fill="#282366"/>
</g>
<defs>
<clipPath id="clip0_844_50">
<rect width="53.3604" height="52" fill="white"/>
</clipPath>
</defs>
</svg>
