<svg width="65" height="44" viewBox="0 0 65 44" fill="none" xmlns="http://www.w3.org/2000/svg">
<g clip-path="url(#clip0_924_183)">
<path d="M57.5897 24.4856C57.7008 24.7323 57.7634 24.9164 57.8624 25.0866C58.3505 25.9811 58.8298 26.8774 59.337 27.7597C59.863 28.6624 60.1354 29.6904 60.1256 30.7351C60.1256 33.9206 60.1256 37.1062 60.1256 40.2882C60.1256 41.8515 59.2693 42.7095 57.7182 42.7199C56.4607 42.7321 55.2014 42.7338 53.9421 42.7199C52.4258 42.7026 51.5764 41.8515 51.5469 40.3317C51.5469 39.8801 51.5469 39.4285 51.5469 38.9421H47.1785C47.1785 39.8262 47.1785 40.7068 47.1785 41.5857C47.1785 43.1073 46.3239 43.9723 44.8111 43.9827C43.5309 43.9931 42.2491 43.9983 40.969 43.9827C39.6263 43.9636 38.7457 43.0708 38.7109 41.7247C38.7005 41.2522 38.7109 40.7798 38.7109 40.2709H25.0065C25.0065 40.7781 25.0152 41.2488 25.0065 41.7212C24.9735 43.0656 24.0929 43.9618 22.7485 43.9792C21.4041 43.9966 20.0997 43.9983 18.7744 43.9792C17.4491 43.9601 16.5546 43.0725 16.5407 41.7212C16.5303 40.8145 16.5407 39.9078 16.5407 38.9525H12.577C12.577 39.4111 12.577 39.8748 12.577 40.3421C12.5475 41.8567 11.6947 42.7113 10.1783 42.7269C8.91906 42.7425 7.65979 42.7408 6.40051 42.7269C4.87375 42.7095 4.00528 41.8584 4.00007 40.3508C3.98617 37.1218 4.00007 33.8928 4.00007 30.6639C3.99619 29.6625 4.25748 28.6778 4.75738 27.8101C5.26804 26.9052 5.76654 25.9933 6.26504 25.0814C6.35709 24.9077 6.42484 24.734 6.50647 24.5447C6.36752 24.4926 6.30672 24.4526 6.29282 24.4665C5.02139 25.6164 3.46857 25.302 2.01302 25.1804C0.720738 25.0727 -0.111246 23.8099 0.0120765 22.4951C0.0799743 21.8962 0.364831 21.3429 0.812853 20.9396C1.26088 20.5364 1.84105 20.3112 2.44378 20.3066C3.03087 20.2944 3.61621 20.3066 4.2033 20.3066C5.62237 20.3066 6.47173 20.9631 6.84344 22.3266C6.86949 22.4256 6.90596 22.5211 6.99107 22.7904C7.24988 21.2393 7.51215 19.8688 7.68585 18.488C7.85954 17.1888 8.4692 16.3828 9.78579 16.1171C12.1393 15.6429 14.4859 15.1357 16.9941 14.6077V12.7596C16.9941 11.5194 17.1539 11.37 18.3645 11.3561C18.8856 11.3561 19.5144 11.4986 19.8861 11.2571C20.2334 11.04 20.2717 10.3887 20.4662 9.93011C20.6008 9.54141 20.781 9.17002 21.0029 8.82369C21.3503 8.35993 21.2148 8.06638 20.8292 7.74158C20.5131 7.4793 20.2404 7.16665 19.9503 6.87311C19.5682 6.48404 19.5283 6.0637 19.9156 5.66942C20.9334 4.6342 21.9617 3.60767 23.0004 2.58983C23.3912 2.20597 23.8254 2.2216 24.2162 2.60025C24.6956 3.07096 25.1472 3.56946 25.5589 4.00196C26.6271 3.6181 27.6033 3.28113 28.5655 2.90769C28.6397 2.86332 28.7027 2.80251 28.7497 2.72993C28.7967 2.65735 28.8264 2.57495 28.8365 2.48909C28.8712 1.99406 28.8365 1.49383 28.8539 0.995328C28.873 0.271026 29.1266 0.012223 29.8404 0.00701219C31.2091 0.00701219 32.5761 -0.00340941 33.9448 0.00701219C34.6396 0.00701219 34.9001 0.283185 34.9175 1.00749C34.9331 1.6571 34.7212 2.43872 35.013 2.91811C35.2788 3.35235 36.0899 3.45135 36.6562 3.70842C36.9915 3.86459 37.3133 4.04817 37.6184 4.25729C38.0127 3.79874 38.3861 3.32108 38.8082 2.88858C39.3293 2.35013 39.6767 2.35187 40.1978 2.86253C41.1739 3.82016 42.1414 4.78474 43.1002 5.75626C43.59 6.25129 43.5848 6.65426 43.088 7.15449C42.6764 7.56788 42.2404 7.95696 41.8722 8.30955C42.2717 9.30482 42.6208 10.2098 43.0046 11.0991C43.0545 11.1699 43.1195 11.2287 43.1949 11.2714C43.2703 11.314 43.3542 11.3394 43.4406 11.3457C43.9808 11.377 44.5245 11.3457 45.0681 11.3613C45.7438 11.3787 46.0147 11.6462 46.0252 12.3114C46.0356 13.0896 46.0252 13.8747 46.0252 14.6928C47.2549 14.8317 48.4569 14.9012 49.6467 15.1183C51.3489 15.4292 53.0372 15.8305 54.722 16.23C55.6582 16.4523 56.1984 17.0845 56.3565 18.0399C56.6101 19.5649 56.8775 21.0899 57.1624 22.806C57.2614 22.4378 57.3066 22.2554 57.3604 22.0748C57.5042 21.5814 57.7998 21.1459 58.2051 20.8301C58.6104 20.5143 59.1049 20.3341 59.6184 20.3152C60.3566 20.2909 61.0965 20.284 61.833 20.3152C62.4551 20.3555 63.0384 20.6314 63.4641 21.0868C63.8897 21.5421 64.1258 22.1427 64.124 22.7661C64.1357 23.3905 63.9066 23.9955 63.4843 24.4557C63.062 24.9159 62.4788 25.1959 61.8556 25.2377C61.0754 25.312 60.2895 25.305 59.5107 25.2169C58.9063 25.1231 58.3348 24.7809 57.5897 24.4856ZM18.1318 38.6677C20.4297 38.6677 22.6617 38.6677 24.8936 38.6503C24.9844 38.626 25.0679 38.5804 25.1374 38.5173C25.2069 38.4541 25.2603 38.3753 25.2931 38.2873C25.4981 37.6047 25.6405 36.8977 25.8316 36.2134C26.1164 35.1573 26.813 34.6102 27.9072 34.6067C30.5358 34.5975 33.1632 34.5975 35.7894 34.6067C36.915 34.6067 37.6149 35.1608 37.905 36.2533C38.0787 36.8804 38.2524 37.5091 38.3636 38.1449C38.4452 38.5721 38.6467 38.685 39.0688 38.6798C40.9794 38.6573 42.89 38.6694 44.8006 38.6694H45.5875C45.5875 36.2551 45.61 33.9189 45.5666 31.5845C45.5579 31.1329 45.3356 30.6604 45.122 30.2418C44.6009 29.2205 44.0468 28.216 43.4597 27.2282C43.3873 27.1222 43.2929 27.033 43.1829 26.9667C43.0729 26.9005 42.9499 26.8587 42.8223 26.8444C35.5271 26.8258 28.232 26.8258 20.9369 26.8444C20.8004 26.8603 20.6689 26.9055 20.5514 26.9769C20.4339 27.0482 20.3332 27.144 20.256 27.2578C19.6759 28.2218 19.1253 29.2066 18.6216 30.2105C18.3923 30.6656 18.1682 31.1832 18.1578 31.6783C18.104 33.9762 18.1318 36.2707 18.1318 38.6677ZM20.9456 25.2238H42.7875C42.4922 23.4348 42.2213 21.6857 41.8878 19.947C41.8478 19.7316 41.5039 19.4885 41.2538 19.4138C35.1937 17.6143 29.1283 17.5726 23.0247 19.2244C22.1562 19.4572 21.7654 19.815 21.6629 20.7078C21.4927 22.2068 21.1957 23.6901 20.9508 25.2238H20.9456ZM18.6146 14.6702L23.5614 14.9134C23.4815 12.7075 24.1485 10.7638 25.6457 9.13807C26.3538 8.33876 27.2196 7.69464 28.1887 7.24625C29.1579 6.79786 30.2093 6.55491 31.2769 6.53267C33.1865 6.44742 35.0585 7.08217 36.5224 8.31129C38.6397 10.0482 39.5725 12.3445 39.496 15.0402L44.4116 14.6407V12.9194C43.795 12.9194 43.2131 12.9055 42.6329 12.9194C42.0528 12.9333 41.7992 12.6588 41.6047 12.1378C41.1913 11.0296 40.7362 9.93185 40.2273 8.86364C39.9806 8.34256 39.9928 7.96912 40.4114 7.59394C40.83 7.21876 41.2052 6.87485 41.4918 6.61431L39.3623 4.46051L38.2819 5.60341C37.9345 5.97338 37.5611 5.97512 37.1078 5.76495C36.109 5.29945 35.1016 4.85306 34.0751 4.45877C33.58 4.26771 33.3178 4.00717 33.3334 3.46698C33.3525 2.8469 33.3334 2.22681 33.3334 1.61715H30.4171C30.4171 2.2216 30.4171 2.78263 30.4171 3.34192C30.4171 3.90122 30.1531 4.13744 29.6476 4.30766C28.4648 4.71063 27.2889 5.13791 26.1425 5.6312C25.6301 5.85179 25.2428 5.88132 24.8606 5.45751L23.7351 4.24166L21.5466 6.3364C21.9287 6.68378 22.3039 7.04854 22.6895 7.39245C23.1532 7.80584 23.1515 8.21576 22.8719 8.782C22.3234 9.85686 21.8425 10.9649 21.4319 12.0995C21.22 12.6953 20.9369 12.968 20.3203 12.9385C19.7645 12.9176 19.2052 12.9385 18.6129 12.9385L18.6146 14.6702ZM37.3266 16.9022C38.6102 14.5573 37.6948 11.1547 35.343 9.38645C34.1261 8.47205 32.6226 8.02211 31.1034 8.11764C29.5842 8.21317 28.149 8.84789 27.0561 9.90753C25.116 11.7938 24.4872 15.2278 25.783 16.9994C29.596 16.2966 33.5023 16.2637 37.3266 16.9022ZM47.1229 33.1877C47.6544 33.1877 48.0626 33.1877 48.469 33.1877C49.6745 33.1981 50.3797 33.7383 50.6819 34.8864C50.8556 35.5134 51.0293 36.1387 51.1491 36.7762C51.2325 37.2208 51.4149 37.3632 51.8804 37.3563C53.8327 37.3268 55.7867 37.3441 57.739 37.3441H58.5068C58.5068 34.8395 58.5276 32.4182 58.4877 29.9969C58.479 29.5661 58.2601 29.1163 58.0552 28.7185C57.5179 27.6764 56.9511 26.6539 56.3547 25.6511C56.2817 25.5465 56.1872 25.4587 56.0776 25.3934C55.968 25.3281 55.8457 25.2869 55.719 25.2724C54.2878 25.2377 52.8554 25.2377 51.4218 25.2724C51.2958 25.2875 51.1741 25.3281 51.0642 25.3917C50.9543 25.4553 50.8585 25.5406 50.7826 25.6424C50.2442 26.4101 49.5459 26.8583 48.5976 26.8235C47.307 26.7853 45.9314 27.1414 44.7972 26.0419C45.6917 28.4093 47.6718 30.3565 47.1229 33.1877ZM16.6085 33.1877C16.0474 30.3512 18.0328 28.4059 18.9186 26.0367C17.8886 27.0493 16.6363 26.8114 15.4447 26.827H15.1199C14.1698 26.827 13.4768 26.4032 12.9401 25.6337C12.8628 25.5334 12.766 25.4496 12.6556 25.3876C12.5451 25.3255 12.4233 25.2863 12.2974 25.2724C11.019 25.2394 9.7389 25.2724 8.45878 25.2447C8.06971 25.2447 7.88039 25.3853 7.71017 25.7084C7.21514 26.6464 6.61937 27.5374 6.20077 28.5066C5.86476 29.2474 5.66303 30.0419 5.605 30.8532C5.52163 32.7986 5.57547 34.7492 5.57895 36.698C5.57895 36.9047 5.60326 37.1096 5.61889 37.3459C7.93943 37.3459 10.1922 37.3459 12.4468 37.3285C12.5472 37.3072 12.6411 37.262 12.7203 37.1967C12.7995 37.1314 12.8618 37.0479 12.9019 36.9533C13.1242 36.2308 13.2736 35.4874 13.4785 34.7578C13.7599 33.7591 14.4877 33.2154 15.5316 33.1946C15.8494 33.1877 16.169 33.1877 16.6085 33.1877ZM55.6895 23.6536C55.3803 21.8212 55.092 20.0286 54.7533 18.2448C54.715 18.0399 54.4163 17.7932 54.1905 17.7237C49.4426 16.2688 44.4257 15.9142 39.5204 16.6868C39.3206 16.718 39.1487 16.9056 38.9628 17.0203C39.8342 17.3806 40.7349 17.6653 41.6551 17.8714C42.7945 18.1389 43.3659 18.8614 43.5292 19.9974C43.7289 21.3869 43.9808 22.7765 44.2396 24.3397C44.488 23.2454 44.9344 22.4864 45.8636 22.1164C47.7743 21.3643 49.9854 22.0209 51.0744 23.6519L55.6895 23.6536ZM19.5352 24.0965L20.23 19.8254C20.3932 18.8302 20.9247 18.1771 21.9339 17.9235C22.6374 17.7498 23.3339 17.5344 24.0286 17.3399C23.855 16.5895 23.855 16.5982 23.2245 16.52C18.8821 15.9885 14.6162 16.4262 10.4007 17.5622C9.62948 17.7689 9.23693 18.1041 9.22651 18.9083C9.22651 19.2713 9.10145 19.6326 9.04239 19.9956C8.84612 21.2028 8.65158 22.4187 8.44489 23.6884C9.5131 23.6884 10.5084 23.664 11.5019 23.6884C12.2106 23.7127 12.8758 23.7422 13.145 22.8876C13.1798 22.7765 13.3083 22.6879 13.4021 22.5993C14.4442 21.6249 17.6558 21.6058 18.6372 22.6306C19.0228 23.0405 19.2399 23.6067 19.5335 24.0965H19.5352ZM26.8929 38.6156H36.8663C36.7204 38.0129 36.5641 37.4727 36.4634 36.9238C36.3626 36.3749 36.1003 36.1422 35.4959 36.1543C33.5662 36.1943 31.6364 36.1682 29.7084 36.1682C27.3062 36.1682 27.3062 36.1682 26.8911 38.6156H26.8929ZM5.58068 38.9369C5.58068 39.4875 5.58068 39.9791 5.58068 40.4741C5.58068 40.9205 5.8308 41.1515 6.27546 41.1532C7.61637 41.1532 8.95728 41.1532 10.2965 41.1532C10.6994 41.1532 10.9739 40.9691 10.9912 40.5488C11.0121 40.0277 10.9912 39.4892 10.9912 38.9352L5.58068 38.9369ZM53.1883 38.9369C53.1616 39.0102 53.1418 39.0858 53.1292 39.1627C53.1292 39.5292 53.1153 39.8957 53.1292 40.2622C53.1414 40.9934 53.2856 41.1445 53.9977 41.1532C54.8662 41.1619 55.7346 41.1532 56.5909 41.1532C58.6353 41.1393 58.6058 41.4468 58.5241 39.0689C58.5241 39.0324 58.4859 38.9977 58.4512 38.9317L53.1883 38.9369ZM18.1196 40.2743C18.1196 40.8058 18.1092 41.2991 18.1196 41.7924C18.1335 42.2145 18.3854 42.4177 18.7953 42.4177C20.1206 42.4177 21.4458 42.4472 22.7676 42.3934C22.9116 42.3586 23.0447 42.2887 23.155 42.1899C23.2654 42.091 23.3495 41.9664 23.3999 41.8272C23.4971 41.3339 23.4294 40.8093 23.4294 40.2743H18.1196ZM45.5527 40.2743H40.2881V41.6535C40.2881 42.1919 40.5573 42.4333 41.0958 42.4247C41.9833 42.4125 42.8692 42.4247 43.755 42.4247C45.7751 42.4247 45.6344 42.5879 45.6066 40.4463C45.5943 40.3885 45.5762 40.332 45.5527 40.2778V40.2743ZM3.43384 23.6849C3.781 23.7024 4.12883 23.7024 4.476 23.6849C4.99708 23.6206 5.31841 23.2871 5.31841 22.7661C5.32486 22.651 5.30754 22.5358 5.26751 22.4277C5.22748 22.3196 5.16561 22.2209 5.08575 22.1378C5.00589 22.0547 4.90976 21.9889 4.80336 21.9446C4.69695 21.9003 4.58255 21.8784 4.4673 21.8802C3.79674 21.8446 3.12477 21.8446 2.4542 21.8802C2.33944 21.8776 2.22533 21.8983 2.11879 21.941C2.01224 21.9837 1.91546 22.0476 1.83429 22.1288C1.75312 22.2099 1.68925 22.3067 1.64653 22.4133C1.60381 22.5198 1.58313 22.6339 1.58574 22.7487C1.55621 23.2472 1.92097 23.631 2.4681 23.6727C2.78249 23.704 3.10903 23.6849 3.43384 23.6849ZM60.7075 21.8785C60.3601 21.8785 60.0127 21.8524 59.6653 21.8785C59.1408 21.9306 58.8159 22.2537 58.8159 22.7661C58.8063 22.8812 58.8207 22.9971 58.8584 23.1064C58.8961 23.2156 58.9562 23.3158 59.0349 23.4005C59.1135 23.4852 59.209 23.5525 59.3151 23.5982C59.4213 23.6439 59.5358 23.6669 59.6514 23.6658C60.3454 23.7112 61.0417 23.7112 61.7357 23.6658C61.8496 23.6649 61.962 23.6403 62.0658 23.5935C62.1696 23.5468 62.2626 23.4789 62.3387 23.3943C62.4149 23.3096 62.4725 23.2101 62.5081 23.1019C62.5436 22.9937 62.5562 22.8794 62.5451 22.7661C62.5278 22.2328 62.1978 21.9393 61.6767 21.8976C61.3588 21.8524 61.0323 21.8767 60.7075 21.8785ZM47.6996 25.2586C48.0035 25.2586 48.3058 25.2707 48.608 25.2586C49.1916 25.2308 49.5459 24.9112 49.5286 24.3901C49.5077 23.8099 49.1655 23.5338 48.6063 23.5216C48.0018 23.5095 47.3904 23.5008 46.7912 23.5216C46.2284 23.5459 45.8463 23.9298 45.8949 24.4161C45.8961 24.5306 45.9206 24.6437 45.9668 24.7484C46.0131 24.8532 46.0802 24.9474 46.164 25.0254C46.2479 25.1034 46.3467 25.1635 46.4545 25.2021C46.5623 25.2407 46.6769 25.2569 46.7912 25.2499C47.0951 25.2638 47.3974 25.2568 47.6996 25.2586ZM49.6675 37.3198C49.4817 36.5747 49.3201 35.8573 49.1065 35.1625C49.0573 35.0629 48.9858 34.976 48.8975 34.9085C48.8092 34.841 48.7066 34.7948 48.5976 34.7735C48.1427 34.7388 47.6862 34.733 47.2306 34.7561V37.3198H49.6675ZM15.9276 25.2568C16.275 25.2568 16.6224 25.269 16.9698 25.2568C17.5099 25.2308 17.8261 24.9094 17.8382 24.3883C17.848 24.2788 17.8346 24.1685 17.7988 24.0645C17.7631 23.9605 17.7058 23.8653 17.6307 23.785C17.5557 23.7046 17.4645 23.6411 17.3631 23.5984C17.2618 23.5557 17.1526 23.5349 17.0427 23.5372C16.3484 23.5013 15.6527 23.5013 14.9584 23.5372C14.4512 23.5668 14.1855 23.9072 14.2011 24.4057C14.2167 24.9042 14.5172 25.1943 15.0192 25.2342C15.3197 25.2742 15.6236 25.2551 15.9276 25.2568ZM16.5477 37.3181V34.7509C16.1795 34.7509 15.9015 34.6901 15.6671 34.7665C15.4326 34.8429 15.0869 35.0132 15.014 35.2199C14.776 35.8868 14.6423 36.5886 14.4581 37.3146L16.5477 37.3181Z" fill="#2E296C"/>
<path d="M40.5781 28.1922C41.325 28.1867 42.0456 28.4672 42.5921 28.9763C43.1386 29.4853 43.4696 30.1842 43.517 30.9296C43.5621 31.6723 43.3198 32.404 42.8403 32.9731C42.3608 33.5421 41.6808 33.905 40.9412 33.9866C40.0727 34.0821 39.2042 34.1429 38.3479 34.1985C37.7053 34.2384 37.3527 33.8962 37.4065 33.2623C37.4829 32.3799 37.568 31.4941 37.7105 30.6204C37.8203 29.9401 38.1696 29.3215 38.6955 28.8762C39.2214 28.431 39.8891 28.1883 40.5781 28.1922ZM39.1122 32.5449C39.6854 32.5032 40.2221 32.4893 40.7518 32.4233C41.088 32.3883 41.3983 32.2266 41.6196 31.9711C41.8409 31.7156 41.9567 31.3854 41.9434 31.0477C41.9263 30.7214 41.7913 30.4124 41.5635 30.1783C41.3357 29.9441 41.0306 29.8006 40.7049 29.7745C40.3676 29.7365 40.0286 29.8304 39.7589 30.0366C39.4892 30.2428 39.3098 30.5454 39.2581 30.8809C39.1886 31.4037 39.1678 31.9405 39.1174 32.5449H39.1122Z" fill="#2E296C"/>
<path d="M23.1412 28.1905C23.8754 28.1917 24.5824 28.4682 25.1227 28.9654C25.6629 29.4626 25.9971 30.1442 26.0593 30.8758C26.1288 31.5862 26.2139 32.2948 26.3059 33.0018C26.4223 33.8998 26.0767 34.2663 25.1874 34.1864C24.3884 34.1134 23.5859 34.0752 22.7887 33.9883C22.0478 33.9084 21.3664 33.5458 20.8863 32.976C20.4061 32.4063 20.1642 31.6732 20.211 30.9296C20.258 30.1854 20.5875 29.4874 21.1322 28.9782C21.6769 28.469 22.3956 28.1872 23.1412 28.1905ZM24.6124 32.5536C24.5603 31.9318 24.5482 31.3951 24.4596 30.8705C24.4086 30.5463 24.2372 30.2532 23.9796 30.0498C23.7221 29.8463 23.3973 29.7474 23.07 29.7728C22.7543 29.7831 22.4525 29.905 22.2181 30.1168C21.9838 30.3286 21.8321 30.6166 21.7899 30.9296C21.7013 31.5514 22.1112 32.2531 22.7279 32.3747C23.3525 32.4667 23.9816 32.5265 24.6124 32.5536Z" fill="#2E296C"/>
<path d="M53.4785 26.6706C54.2348 26.6814 54.9585 26.9806 55.5015 27.5072C56.0446 28.0338 56.366 28.7479 56.4 29.5036C56.4249 30.2594 56.16 30.9962 55.6595 31.5632C55.159 32.1302 54.4608 32.4845 53.7077 32.5536C52.8636 32.6289 52.0188 32.6955 51.1735 32.7534C50.4788 32.8037 50.1157 32.4199 50.1922 31.7268C50.279 30.9313 50.3659 30.1358 50.4701 29.342C50.675 27.751 51.9135 26.6532 53.4785 26.6706ZM51.9152 31.0998C52.4676 31.0633 52.9574 31.0373 53.4541 30.9956C54.2601 30.9278 54.8194 30.3703 54.8298 29.6356C54.8285 29.2865 54.6969 28.9504 54.4607 28.6934C54.2246 28.4363 53.9009 28.2768 53.5531 28.246C52.775 28.1852 52.1636 28.6976 52.0455 29.5348C51.976 30.0194 51.9569 30.5179 51.91 31.1033L51.9152 31.0998Z" fill="#2E296C"/>
<path d="M10.7343 26.6706C12.2976 26.6828 13.5134 27.8569 13.6715 29.4931C13.7375 30.2035 13.8278 30.9122 13.9199 31.6209C14.0276 32.4268 13.6645 32.8159 12.8621 32.7464C12.0596 32.6769 11.2606 32.6213 10.4599 32.5571C9.70501 32.4983 9.00118 32.153 8.49257 31.5921C7.98397 31.0312 7.70908 30.297 7.72423 29.54C7.75008 28.7628 8.07994 28.0267 8.64284 27.4901C9.20574 26.9535 9.95673 26.6593 10.7343 26.6706ZM12.242 31.1119C12.1569 30.4172 12.136 29.7867 11.9936 29.1892C11.8356 28.5222 11.1599 28.147 10.4842 28.2495C10.173 28.303 9.88862 28.4591 9.67644 28.693C9.46427 28.9269 9.33651 29.2251 9.31353 29.54C9.26836 30.1636 9.71128 30.8392 10.3296 30.9487C10.948 31.0581 11.5594 31.0564 12.242 31.1119Z" fill="#2E296C"/>
</g>
<defs>
<clipPath id="clip0_924_183">
<rect width="64.1241" height="44" fill="white"/>
</clipPath>
</defs>
</svg>
