<svg width="44" height="44" viewBox="0 0 44 44" fill="none" xmlns="http://www.w3.org/2000/svg">
<g clip-path="url(#clip0_924_191)">
<path d="M11.2865 26.0907L16.3503 23.4568C16.0746 22.7104 15.9618 21.9136 16.0193 21.12C16.0769 20.3263 16.3035 19.5542 16.6841 18.8553L10.5484 13.605C10.1799 13.8854 9.82533 14.1334 9.49624 14.4161C9.16715 14.6989 9.05475 15.0743 9.04664 15.5007C9.03505 16.0917 9.07098 16.6954 8.96089 17.2702C8.70133 18.6352 7.40931 19.5552 6.02574 19.4359C5.34796 19.3747 4.71592 19.0678 4.24855 18.5732C3.78119 18.0785 3.51072 17.43 3.48804 16.7499C3.47761 16.3895 3.4695 16.0268 3.48804 15.6664C3.52049 14.9967 3.24934 14.5239 2.69197 14.1392C1.38933 13.2456 0.477443 11.888 0.142912 10.3441C-0.19162 8.80027 0.0764964 7.18695 0.892403 5.8343C1.55252 4.73506 2.53317 3.86412 3.70266 3.33841C4.87215 2.8127 6.17448 2.6574 7.4348 2.89335C8.71638 3.13656 9.88953 3.77529 10.7893 4.71975C11.6891 5.66422 12.2702 6.86692 12.4511 8.15878C12.6632 9.65591 12.4221 10.7382 11.4534 12.554L17.4859 17.7186C18.8197 16.5842 19.1082 16.4358 20.8406 15.9944V9.74166H17.4234V0.0346739H25.7166V8.68718C25.8569 8.5771 25.9484 8.52032 26.0179 8.44847C26.7132 7.75321 27.4084 7.05795 28.1037 6.36269C28.5781 5.8723 29.1488 5.48533 29.78 5.22609C30.4111 4.96685 31.0891 4.84095 31.7712 4.8563C32.4491 4.8563 33.2011 5.01273 33.784 4.77171C34.3668 4.53069 34.7539 3.88873 35.2255 3.41943C36.0772 2.57237 36.915 1.71025 37.7829 0.880573C38.2375 0.437262 38.8167 0.143435 39.443 0.0384382C40.0692 -0.0665585 40.7126 0.022287 41.287 0.293078C41.8552 0.557761 42.3317 0.985681 42.6557 1.52227C42.9797 2.05885 43.1366 2.67978 43.1062 3.30587C43.0701 4.1103 42.7252 4.86982 42.1433 5.42641C41.438 6.13326 40.7315 6.83895 40.0239 7.54348C39.9243 7.64313 39.8293 7.74858 39.7157 7.86909C40.1977 8.23178 40.6543 8.58637 41.1259 8.91893C41.2481 8.99033 41.3877 9.02643 41.5292 9.02322C42.0344 9.03481 42.5408 9.02322 43.0796 9.02322V15.9364C43.016 15.9527 42.9506 15.9612 42.8849 15.9619C41.5662 15.8171 40.3356 16.1705 39.1282 16.634C36.317 17.7082 34.1965 17.6468 31.5649 15.9781C30.7642 16.7777 29.9427 17.5714 29.1559 18.3965C28.5904 18.9886 27.9971 19.524 27.2161 19.8136C26.9658 19.9063 26.9067 20.0454 26.9727 20.3119C27.1983 21.1999 27.1726 22.133 26.8986 23.0072C26.8117 23.2957 26.8824 23.4139 27.1408 23.5333C27.7422 23.8102 28.3297 24.1208 28.9554 24.4336C30.4224 22.2633 32.4317 21.0049 35.0447 20.8415C36.9868 20.7256 38.7354 21.2957 40.2522 22.517C41.7107 23.6786 42.6911 25.3359 43.0069 27.1735C43.3227 29.011 42.9518 30.9006 41.9649 32.4824C40.9799 34.0654 39.4516 35.2351 37.6663 35.7724C35.881 36.3097 33.9611 36.1778 32.266 35.4014C28.8766 33.8324 26.8152 29.8231 28.3389 25.6863L26.1999 24.6133C25.2334 25.9528 23.9542 26.7709 22.2913 27.0281V30.5253C22.3464 30.5383 22.4028 30.5449 22.4594 30.545C23.1442 30.4511 23.7016 30.545 23.7236 31.4036C23.7812 31.4121 23.8398 31.4121 23.8974 31.4036C24.69 31.085 24.6888 31.085 25.2879 31.6783C25.953 32.3434 26.6193 33.0062 27.3099 33.6933L26.9426 34.5427C26.9774 34.581 26.9936 34.6169 27.0145 34.6204C27.8129 34.7212 27.8847 35.2391 27.836 35.9112C27.792 36.6765 27.792 37.4437 27.836 38.2091C27.8523 38.5799 27.7317 38.7653 27.3795 38.8394C27.2354 38.8821 27.0945 38.9348 26.9577 38.997C26.9596 39.0534 26.9677 39.1093 26.982 39.1639C27.2949 39.9148 27.296 39.9148 26.7317 40.4768C26.1674 41.0388 25.5648 41.6042 25.0191 42.2022C24.756 42.4907 24.5324 42.5498 24.2149 42.3366C24.0936 42.269 23.9668 42.2116 23.836 42.1651C23.7943 42.1975 23.7549 42.2114 23.7525 42.2311C23.6506 42.9809 23.1894 43.1153 22.5069 43.0597C21.7112 43.0125 20.9134 43.0106 20.1175 43.0539C19.7896 43.0643 19.6053 42.982 19.5381 42.646C19.4877 42.4737 19.4213 42.3065 19.34 42.1465L18.4662 42.537C17.6261 41.6981 16.7849 40.8638 15.9564 40.0167C15.9258 39.9682 15.9063 39.9136 15.8993 39.8567C15.8923 39.7998 15.8979 39.7421 15.9158 39.6876C15.9971 39.4715 16.0899 39.26 16.1939 39.0538C16.1499 39.0144 16.1221 38.9692 16.0896 38.9646C15.3944 38.8603 15.246 38.4408 15.2912 37.7849C15.3538 36.851 15.3075 35.9077 15.3075 34.9413L16.1707 34.5937C16.1707 34.5439 16.1835 34.5056 16.1707 34.4883C15.698 33.8787 15.9703 33.4639 16.4766 33.0271C17.0617 32.5093 17.6157 31.9575 18.136 31.3747C18.3886 31.0977 18.6065 31.0629 18.9054 31.2507C19.048 31.3276 19.1954 31.3949 19.3469 31.4523L19.6945 30.5485H20.8417V27.0362C20.0742 26.9275 19.3369 26.6634 18.6748 26.2602C18.0128 25.857 17.4399 25.323 16.9911 24.6909L11.9992 27.2877C13.5751 31.2275 11.2784 34.5474 8.68858 35.6146C7.2853 36.1986 5.71785 36.254 4.27682 35.7706C2.83579 35.2871 1.61894 34.2975 0.85185 32.9853C0.0944931 31.6777 -0.163517 30.14 0.125577 28.6569C0.414671 27.1737 1.2313 25.8455 2.4243 24.918C4.8577 23.0246 8.78939 23.0095 11.2865 26.0907ZM41.7273 28.4859C41.7283 26.8325 41.0755 25.2457 39.9114 24.0716C38.7473 22.8975 37.1662 22.2312 35.5129 22.2181C34.6903 22.2124 33.8746 22.369 33.1126 22.679C32.3506 22.9889 31.6571 23.446 31.072 24.0241C30.4868 24.6023 30.0214 25.2902 29.7023 26.0484C29.3833 26.8067 29.2169 27.6204 29.2126 28.443C29.2117 30.0965 29.8644 31.6833 31.0285 32.8576C32.1926 34.0319 33.7737 34.6984 35.4271 34.7119C37.088 34.7211 38.6846 34.0705 39.866 32.903C41.0474 31.7356 41.7169 30.1468 41.7273 28.4859ZM7.6596 15.262C7.76041 14.2307 8.28417 13.5331 9.09415 12.9653C10.0262 12.3111 10.6953 11.3468 10.9819 10.2447C11.2685 9.14253 11.1538 7.97442 10.6585 6.94903C10.1763 5.92399 9.34904 5.10115 8.32142 4.62452C7.29379 4.14788 6.13128 4.04781 5.03731 4.34181C3.12303 4.86441 1.89706 6.1321 1.5054 8.06724C1.09983 10.0765 1.7835 11.7486 3.44054 12.9735C4.04309 13.4173 4.54368 13.9005 4.74994 14.6386C4.80672 14.8425 4.84264 15.0534 4.88551 15.2504H5.56687C5.56687 13.8796 5.56687 12.5366 5.55528 11.1947C5.55528 11.0789 5.40928 10.9375 5.29456 10.8703C4.61784 10.4763 4.22386 9.90388 4.18214 9.12172C4.15957 8.61773 4.32115 8.12275 4.63672 7.72915C4.95228 7.33554 5.40028 7.0702 5.89711 6.98263C6.37192 6.89945 6.86087 6.98329 7.28084 7.21989C7.70081 7.45649 8.02587 7.83126 8.20074 8.28045C8.38786 8.74091 8.39852 9.25422 8.23067 9.72206C8.06283 10.1899 7.72828 10.5793 7.29111 10.8158C7.00606 10.9688 6.94348 11.1368 6.95275 11.4184C6.9655 12.3002 6.95275 13.1832 6.95275 14.065V15.2667L7.6596 15.262ZM41.7122 10.3685C41.0935 10.5366 40.63 10.3465 40.1943 9.97341C39.7308 9.57943 39.2279 9.23875 38.7922 8.91198C37.82 9.88187 36.8628 10.8355 35.8837 11.8089H37.5256V13.1925H34.193C34.136 13.203 34.0774 13.203 34.0204 13.1925C33.8605 13.1413 33.7084 13.0684 33.5684 12.9758C32.8604 12.4254 32.1663 11.8576 31.4606 11.3037C30.7971 10.7794 29.9875 10.4734 29.1431 10.4276C28.4791 10.3859 28.0527 10.6501 27.8801 11.182C27.7074 11.7139 27.9241 12.167 28.4977 12.5111C29.96 13.3895 31.4201 14.2724 32.8894 15.1392C34.4086 16.0349 36.0042 16.1821 37.6937 15.6664C39.0228 15.2609 40.2823 14.6015 41.7122 14.5436V10.3685ZM34.0424 11.5343C34.0876 11.496 34.1444 11.4532 34.1942 11.4033C36.5194 9.08579 38.8443 6.76401 41.1688 4.43798C41.9116 3.6929 41.9197 2.6222 41.2163 1.91535C40.5129 1.2085 39.4237 1.22009 38.6577 1.97792C36.2267 4.39743 33.799 6.82079 31.3749 9.24802C31.3197 9.306 31.2693 9.36839 31.2243 9.43458L34.0424 11.5343ZM11.1324 29.8428C11.126 28.5554 10.6107 27.3228 9.69896 26.4138C8.78721 25.5049 7.55301 24.9934 6.2656 24.991C4.97671 24.995 3.74184 25.5092 2.8311 26.4213C1.92036 27.3333 1.40788 28.5689 1.40574 29.8578C1.41216 31.1453 1.92742 32.3781 2.83913 33.2872C3.75084 34.1963 4.98505 34.708 6.27256 34.7107C7.55977 34.7046 8.79239 34.19 9.70184 33.2791C10.6113 32.3681 11.1238 31.1346 11.1278 29.8474L11.1324 29.8428ZM24.3169 8.31058V1.42287H18.8069V8.31058H24.3169ZM24.4107 32.7026C24.179 32.8092 23.9959 32.8938 23.8128 32.9749C23.413 33.1534 22.8151 32.9622 22.7143 32.5415C22.5787 31.9726 22.2508 31.859 21.7479 31.9285C21.6043 31.9512 21.4581 31.9512 21.3145 31.9285C20.8174 31.8405 20.5532 32.0317 20.4315 32.5276C20.3377 32.9123 19.7084 33.202 19.3886 32.9911C18.8904 32.6678 18.552 32.7965 18.238 33.2287C18.1617 33.3347 18.0685 33.4275 17.9622 33.5033C17.5334 33.7953 17.4593 34.1244 17.7432 34.581C17.9436 34.9043 17.72 35.5451 17.3573 35.6238C16.72 35.7583 16.6203 36.1465 16.6933 36.6841C16.7084 36.7844 16.7084 36.8863 16.6933 36.9866C16.6041 37.5034 16.7617 37.822 17.3225 37.9321C17.6482 37.997 17.9645 38.6552 17.7861 38.9136C17.3805 39.493 17.6389 39.8464 18.085 40.194C18.1743 40.2638 18.2535 40.3457 18.3202 40.4374C18.5879 40.8198 18.8822 40.8719 19.2959 40.6251C19.6806 40.3933 20.2959 40.6019 20.4014 41.0191C20.5451 41.5915 20.8649 41.7352 21.3968 41.6541C21.5835 41.6268 21.7732 41.6268 21.9599 41.6541C22.3365 41.7085 22.5242 41.5764 22.6355 41.1906C22.8139 40.5811 23.3458 40.3794 23.9182 40.6494C24.0608 40.7166 24.2056 40.7792 24.4258 40.8812C24.6691 40.6112 24.8893 40.3018 25.179 40.0619C25.5486 39.7502 25.6749 39.4617 25.3852 39.019C25.1778 38.6981 25.3852 38.0445 25.7433 37.9704C26.4304 37.8267 26.4861 37.391 26.4281 36.8336C26.4067 36.6322 26.4067 36.429 26.4281 36.2276C26.4571 35.9657 26.3563 35.8266 26.1014 35.7641C25.7699 35.6853 25.522 35.5393 25.3737 35.1777C25.2253 34.8162 25.3864 34.5752 25.4895 34.2808C25.5359 34.1476 25.5498 33.9332 25.4733 33.8405C25.1407 33.4512 24.7688 33.0873 24.4061 32.7072L24.4107 32.7026ZM22.4524 17.4811C20.6737 17.0315 18.7536 17.9237 17.8776 19.5773C17.4396 20.4013 17.2929 21.3491 17.4611 22.267C17.6294 23.1849 18.1028 24.019 18.8046 24.6341C19.503 25.2549 20.3904 25.6219 21.3232 25.6758C22.256 25.7296 23.1798 25.4671 23.9449 24.9308C25.3493 23.9528 26.099 22.0026 25.573 20.6433C25.2441 20.7896 24.9231 20.9528 24.6112 21.1323C24.5403 21.1795 24.48 21.2409 24.4343 21.3128C24.3886 21.3846 24.3585 21.4653 24.3458 21.5495C24.2751 23.0559 23.1407 24.2367 21.6807 24.2923C20.978 24.3226 20.2896 24.0872 19.7528 23.6328C19.2159 23.1784 18.8699 22.5384 18.7838 21.8403C18.6041 20.4104 19.603 19.0037 21.0862 18.8194C21.7525 18.736 22.0422 18.4521 22.238 17.9075C22.2971 17.7789 22.369 17.6537 22.4478 17.4857L22.4524 17.4811ZM27.3192 13.4103L25.4548 15.2574C26.2427 16.0453 27.055 16.8576 27.8291 17.6294L30.3007 15.2087L27.3192 13.4103ZM24.6911 9.74861H22.2867V16.0059C22.4868 16.0625 22.691 16.1036 22.8974 16.1288C22.9548 16.1283 23.0115 16.1154 23.0635 16.091C23.1155 16.0666 23.1616 16.0313 23.1986 15.9874C23.6413 15.3107 24.0666 14.6212 24.5185 13.9016C23.2925 12.3709 23.3029 11.3199 24.6865 9.75324L24.6911 9.74861ZM32.3853 6.27926C31.0122 6.13905 29.916 6.47509 29.0249 7.41717C28.5174 7.95136 27.982 8.46006 27.4629 8.9815C26.7885 9.65475 26.1037 10.3187 25.442 11.0059C24.8244 11.6467 24.9333 12.5401 25.7387 12.985C25.9496 12.7533 26.1859 12.4937 26.4038 12.2272C26.4609 12.1501 26.4888 12.0553 26.4826 11.9595C26.3412 10.058 27.3864 8.98266 29.3216 9.03365C29.4602 9.04381 29.5981 9.00484 29.7109 8.92357C30.5846 8.07535 31.4502 7.20743 32.3807 6.2839L32.3853 6.27926ZM24.5162 16.4845C24.0109 17.4961 23.5069 18.4822 23.0341 19.4822C23.0062 19.5642 22.9985 19.6516 23.0116 19.7371C23.0247 19.8227 23.0583 19.9038 23.1094 19.9736C23.1802 20.0244 23.262 20.058 23.3481 20.0717C23.4342 20.0854 23.5223 20.0788 23.6054 20.0524C24.0318 19.882 24.4362 19.6549 24.8487 19.4498L26.6112 18.5726L24.5162 16.4845ZM21.5648 22.911C22.2288 22.911 22.8499 22.3919 22.9229 21.7523C22.9209 21.6844 22.9025 21.618 22.8695 21.5587C22.8364 21.4994 22.7895 21.4489 22.7328 21.4116C22.2657 21.2053 21.8911 20.834 21.6807 20.3687C21.6395 20.3076 21.5839 20.2574 21.5189 20.2227C21.4538 20.188 21.3813 20.1696 21.3075 20.1694C20.6216 20.2667 20.1198 20.9342 20.1731 21.6329C20.2043 21.981 20.3642 22.3049 20.6216 22.5413C20.879 22.7777 21.2153 22.9095 21.5648 22.911ZM4.89595 16.6827C4.92376 17.4822 5.52168 18.0639 6.28646 18.0512C6.46405 18.049 6.63948 18.012 6.80274 17.942C6.966 17.8721 7.11388 17.7707 7.23795 17.6436C7.36201 17.5166 7.45983 17.3663 7.52582 17.2014C7.5918 17.0365 7.62466 16.8602 7.62252 16.6827H4.89595ZM6.25518 8.33955C6.07259 8.34229 5.89842 8.41675 5.77028 8.54684C5.64214 8.67693 5.57032 8.85221 5.57034 9.03481C5.57338 9.21719 5.64797 9.39107 5.77803 9.51896C5.90809 9.64685 6.0832 9.7185 6.2656 9.71848C6.44818 9.71574 6.62236 9.64128 6.7505 9.51119C6.87864 9.3811 6.95046 9.20582 6.95044 9.02322C6.94739 8.84084 6.8728 8.66696 6.74274 8.53907C6.61268 8.41118 6.43758 8.33952 6.25518 8.33955Z" fill="#2E296C"/>
<path d="M36.1535 23.6354V24.9738C36.8302 25.0386 37.4281 25.2576 37.8012 25.8185C38.033 26.1661 38.1581 26.5833 38.3667 27.0468H36.88C36.7815 26.5114 36.4003 26.3515 35.8719 26.3828C35.5242 26.4037 35.1766 26.3828 34.829 26.3898C34.3817 26.4025 34.0874 26.676 34.0804 27.0676C34.0735 27.4593 34.3736 27.7629 34.8452 27.7722C35.2508 27.7826 35.6563 27.7722 36.0619 27.7722C37.2473 27.7803 38.1604 28.5833 38.2427 29.6922C38.325 30.8012 37.5579 31.7328 36.3887 31.9263C36.3307 31.9356 36.2728 31.9414 36.1755 31.953V33.2983H34.785V31.9623C34.1094 31.8939 33.5103 31.6749 33.1372 31.1152C32.9054 30.7676 32.7791 30.3504 32.5706 29.8881H34.0584C34.1569 30.4234 34.5393 30.5833 35.0665 30.552C35.4142 30.53 35.7618 30.552 36.1094 30.5451C36.5555 30.5312 36.8499 30.2577 36.858 29.8661C36.8661 29.4744 36.5613 29.1708 36.0909 29.1615C35.6865 29.1523 35.2797 29.1615 34.8753 29.1615C33.6911 29.1523 32.7745 28.3434 32.6945 27.2403C32.6134 26.1198 33.3817 25.1962 34.5486 25.0062C34.6053 24.9969 34.6644 24.9923 34.7618 24.9795V23.6354H36.1535Z" fill="#2E296C"/>
<path d="M2.78561 29.8556C2.78561 29.3063 2.77634 28.7559 2.78561 28.2067C2.81227 26.8544 4.12979 25.9934 5.35924 26.5612C6.518 27.0931 7.64548 27.6771 8.77528 28.2623C9.07144 28.4057 9.31937 28.6324 9.48874 28.9146C9.65812 29.1967 9.74158 29.5221 9.72894 29.8509C9.74243 30.18 9.65974 30.5058 9.49099 30.7885C9.32224 31.0713 9.07473 31.2988 8.77875 31.4431C7.65011 32.0283 6.518 32.6123 5.36271 33.1453C4.13326 33.7131 2.81342 32.8545 2.78561 31.5033C2.77634 30.9541 2.78561 30.4048 2.78561 29.8556ZM4.17613 29.8556C4.17613 30.3759 4.1657 30.8985 4.17613 31.4164C4.18772 31.8579 4.48089 32.0433 4.87835 31.8498C5.92123 31.3423 6.9537 30.8278 7.9792 30.2924C8.13332 30.2113 8.31409 30.0039 8.31293 29.8556C8.31177 29.7073 8.12868 29.5079 7.97341 29.4222C6.96412 28.888 5.94094 28.3863 4.91659 27.8764C4.46003 27.6528 4.18656 27.8254 4.17845 28.333C4.17034 28.8405 4.17613 29.3446 4.17613 29.8509V29.8556Z" fill="#2E296C"/>
<path d="M22.9226 4.16112H20.2053V2.81348H22.9226V4.16112Z" fill="#2E296C"/>
<path d="M22.9273 6.92712H20.2019V5.58643H22.9273V6.92712Z" fill="#2E296C"/>
<path d="M25.0409 36.8233C25.0296 37.7454 24.6532 38.6254 23.9942 39.2705C23.3352 39.9156 22.4474 40.2732 21.5252 40.2648C20.6031 40.2523 19.7236 39.8747 19.0793 39.2149C18.4351 38.555 18.0787 37.6666 18.0883 36.7445C18.1051 35.8301 18.4809 34.9589 19.1346 34.3193C19.7883 33.6797 20.6674 33.3229 21.582 33.3261C22.0388 33.3284 22.4907 33.4207 22.9118 33.5977C23.3329 33.7747 23.715 34.033 24.0363 34.3578C24.3575 34.6826 24.6116 35.0675 24.784 35.4906C24.9563 35.9136 25.0437 36.3665 25.0409 36.8233ZM21.5646 34.7143C21.0172 34.7161 20.4922 34.9323 20.1023 35.3165C19.7123 35.7008 19.4885 36.2226 19.4788 36.77C19.477 37.0454 19.5296 37.3184 19.6335 37.5735C19.7374 37.8286 19.8906 38.0606 20.0844 38.2563C20.2782 38.452 20.5087 38.6076 20.7627 38.714C21.0167 38.8204 21.2892 38.8757 21.5646 38.8766C22.1122 38.8746 22.6372 38.6581 23.0271 38.2737C23.4169 37.8892 23.6407 37.3673 23.6504 36.8198C23.653 36.5442 23.601 36.2709 23.4973 36.0156C23.3937 35.7602 23.2404 35.528 23.0465 35.3322C22.8526 35.1364 22.6217 34.981 22.3674 34.875C22.113 34.7689 21.8402 34.7143 21.5646 34.7143Z" fill="#2E296C"/>
</g>
<defs>
<clipPath id="clip0_924_191">
<rect width="43.12" height="43.069" fill="white"/>
</clipPath>
</defs>
</svg>
