<svg width="72" height="38" viewBox="0 0 72 38" fill="none" xmlns="http://www.w3.org/2000/svg">
<g clip-path="url(#clip0_962_7651)">
<path d="M37.2002 4.73917C37.5417 3.46177 37.868 2.2425 38.1958 1.02484C38.4146 0.212536 38.7327 0.0357019 39.5604 0.257754L48.6419 2.69064C49.4316 2.90219 49.6214 3.23325 49.4082 4.02457C49.0998 5.16686 48.7908 6.30942 48.4812 7.45225C48.4775 7.49604 48.4775 7.54007 48.4812 7.58386C48.7332 7.65088 48.9996 7.72275 49.2669 7.79219C49.9298 7.96499 50.1099 8.18946 50.1099 8.86854C50.1099 11.6268 50.1099 14.3854 50.1099 17.1442V17.6747C50.2908 17.636 50.4329 17.6117 50.5653 17.5754C56.1772 16.0719 61.7904 14.569 67.4049 13.0665C68.8374 12.6838 70.269 13.3669 70.8116 14.6685C71.4867 16.2899 70.6227 18.0599 68.9109 18.5234C64.522 19.7076 60.1316 20.8863 55.7395 22.0592C53.9865 22.53 52.2343 23.008 50.4765 23.4626C50.1777 23.5393 50.1325 23.679 50.1018 23.9592C50.013 24.7465 50.2779 25.2738 50.8705 25.8551C53.0087 27.9545 53.6272 30.5255 52.5945 33.3347C51.5617 36.1438 49.4454 37.674 46.4577 37.9727C46.1892 37.9948 45.9197 38.0032 45.6503 37.9978C37.6295 37.9978 29.6087 37.9961 21.5879 37.9929C17.7169 37.9873 14.7019 35.2209 14.4233 31.3717C14.2481 28.9534 15.1783 26.9573 17.0362 25.4046C17.2542 25.2229 17.3592 25.0517 17.3471 24.7651C17.3261 24.0521 17.3229 23.3383 17.3471 22.6253C17.3584 22.3096 17.2462 22.1489 16.9741 22.0003C13.1733 19.9227 9.38391 17.8233 5.57834 15.7562C5.01311 15.4469 4.69901 15.0698 4.79591 14.4182C4.97436 13.2151 4.59404 12.2889 3.66546 11.4468C2.48495 10.372 1.43525 9.15115 0.360513 7.96418C0.157751 7.72363 0.0382226 7.42395 0.0197659 7.10988C-0.0197997 6.02062 0.000380914 4.92973 0.00361076 3.83966C0.00361076 2.99909 0.546232 2.65188 1.3222 2.99909C2.43892 3.49972 3.54757 4.01972 4.66994 4.50662C4.83789 4.5801 5.06318 4.53327 5.26101 4.52116C5.45884 4.50905 5.65747 4.44929 5.8553 4.44849C9.52818 4.44472 13.2019 4.44633 16.8764 4.45333C17.2494 4.45333 17.3544 4.35321 17.3439 3.98177C17.318 2.9999 17.335 2.01722 17.3366 1.03453C17.3366 0.168933 17.7355 -0.145978 18.5656 0.0655776L36.7246 4.62855C36.8659 4.66731 37.0088 4.69557 37.2002 4.73917ZM18.9951 24.1506C19.8462 24.0408 20.6803 23.8413 21.5152 23.8389C29.6437 23.8157 37.7721 23.8157 45.9006 23.8389C46.6548 23.8389 47.4097 24.0561 48.1615 24.1732C48.2495 24.1869 48.3359 24.2071 48.4675 24.2329V23.8058C48.4675 19.1225 48.4611 14.4392 48.4772 9.75594C48.4772 9.36432 48.3537 9.23351 47.9927 9.14307C38.4695 6.7546 28.9479 4.35913 19.4279 1.95666C19.2907 1.92194 19.1494 1.89771 18.9935 1.86541L18.9951 24.1506ZM33.7297 36.3618C37.7929 36.3618 41.8571 36.3618 45.9224 36.3618C46.9653 36.3756 47.9894 36.0833 48.868 35.5213C50.9424 34.1914 51.8799 31.7262 51.2097 29.408C50.8843 28.2653 50.1944 27.2603 49.245 26.546C48.2956 25.8317 47.1387 25.4474 45.9507 25.4514C40.4744 25.4412 34.998 25.4396 29.5212 25.4466C26.8437 25.4466 24.1659 25.4466 21.4878 25.4466C20.2921 25.4363 19.1281 25.831 18.1852 26.5665C16.3071 28.0151 15.5691 30.427 16.3103 32.6362C17.0596 34.8688 19.1364 36.3505 21.5419 36.3505C25.6034 36.3613 29.666 36.3651 33.7297 36.3618ZM6.4286 6.08198V6.55596C6.4286 9.01792 6.4286 11.4815 6.42052 13.9402C6.42052 14.2341 6.51015 14.3916 6.77096 14.5345C10.1682 16.3944 13.5617 18.2601 16.9514 20.1318C17.0596 20.1916 17.1759 20.2368 17.3043 20.2933V6.08198H6.4286ZM50.1123 21.8542C50.2875 21.8138 50.4151 21.7887 50.5411 21.7548L65.5825 17.7288C66.5442 17.4712 67.5075 17.2217 68.4668 16.9561C69.0271 16.8002 69.384 16.3513 69.4002 15.8256C69.4163 15.3 69.0901 14.7759 68.583 14.6613C68.2696 14.5996 67.9462 14.6118 67.6383 14.6968C63.7522 15.7255 59.8684 16.7634 55.9866 17.8104C54.1424 18.3045 52.2973 18.7971 50.4563 19.3018C50.3279 19.3373 50.1333 19.4697 50.1333 19.5626C50.101 20.3119 50.1147 21.0612 50.1147 21.8566L50.1123 21.8542ZM38.7828 5.15098L46.8574 7.18256L47.6859 4.12631L39.6363 1.96796C39.3464 3.04269 39.0703 4.07544 38.7828 5.15098ZM1.63227 4.9257C1.63227 5.56117 1.61208 6.09733 1.64276 6.63106C1.65868 6.83808 1.74014 7.03464 1.87531 7.19224C2.72799 8.12244 3.60005 9.03487 4.46727 9.95134C4.54801 10.0321 4.63522 10.1015 4.79025 10.2396C4.79025 8.93394 4.79026 7.7179 4.7846 6.50186C4.78042 6.46376 4.76754 6.42713 4.74696 6.39479C4.72638 6.36245 4.69866 6.33527 4.66591 6.31534C3.68484 5.85993 2.70296 5.41179 1.63227 4.9257Z" fill="#2E296C"/>
<path d="M36.2341 14.0055H44.7496C44.857 14.0055 44.9652 14.0006 45.0726 14.0055C45.5651 14.041 45.9083 14.3785 45.9051 14.8202C45.9051 15.2772 45.5756 15.5994 45.0758 15.6373C44.9821 15.6438 44.8869 15.6373 44.7932 15.6373C41.7523 15.6373 38.7109 15.6373 35.6689 15.6373C34.8719 15.6373 34.6006 15.3652 34.5998 14.5739C34.5998 13.5105 34.5998 12.4479 34.5998 11.3844C34.5998 10.7643 34.9123 10.3921 35.4121 10.3953C35.9273 10.3953 36.2292 10.7611 36.2301 11.3812C36.2357 12.2339 36.2341 13.0809 36.2341 14.0055Z" fill="#2E296C"/>
<path d="M32.0054 31.7268C29.6104 31.7268 27.2155 31.7316 24.819 31.7211C24.5396 31.7211 24.4023 31.793 24.2933 32.0708C24.0247 32.76 23.5244 33.3341 22.8784 33.6943C22.2323 34.0545 21.4809 34.1784 20.7535 34.0446C20.026 33.9107 19.3679 33.5276 18.8923 32.9611C18.4167 32.3945 18.1534 31.68 18.1477 30.9403C18.1477 29.3819 19.1974 28.0722 20.6888 27.7823C22.2423 27.4795 23.7257 28.2733 24.2949 29.7534C24.4088 30.0489 24.5573 30.0933 24.8262 30.0925C29.5892 30.0871 34.3532 30.0871 39.1183 30.0925C39.2804 30.0862 39.4428 30.0965 39.6028 30.1232C39.7738 30.1626 39.9272 30.2569 40.0396 30.3917C40.152 30.5264 40.2171 30.6943 40.2251 30.8696C40.2331 31.045 40.1834 31.2181 40.0837 31.3625C39.984 31.5069 39.8398 31.6147 39.673 31.6695C39.5038 31.7113 39.3297 31.7297 39.1555 31.7244C36.7707 31.7281 34.3874 31.7289 32.0054 31.7268ZM21.3259 32.468C21.6343 32.4701 21.9363 32.3808 22.194 32.2113C22.4516 32.0418 22.6533 31.7998 22.7736 31.5159C22.8938 31.2319 22.9272 30.9186 22.8696 30.6157C22.812 30.3127 22.666 30.0336 22.4499 29.8136C22.2338 29.5936 21.9574 29.4425 21.6555 29.3794C21.3536 29.3164 21.0398 29.3441 20.7537 29.4592C20.4676 29.5743 20.222 29.7716 20.0479 30.0261C19.8739 30.2807 19.7791 30.5811 19.7756 30.8895C19.7725 31.3042 19.934 31.7032 20.2246 31.999C20.5152 32.2949 20.9112 32.4636 21.3259 32.468Z" fill="#2E296C"/>
<path d="M46.0747 34.0959C45.4433 34.088 44.8285 33.8929 44.3081 33.5354C43.7877 33.1779 43.385 32.6739 43.1512 32.0874C42.9173 31.5009 42.8628 30.8582 42.9944 30.2407C43.1261 29.6232 43.438 29.0586 43.8907 28.6185C44.3434 28.1783 44.9165 27.8824 45.5375 27.7682C46.1585 27.654 46.7994 27.7266 47.3791 27.9769C47.9588 28.2271 48.4512 28.6438 48.7939 29.174C49.1367 29.7043 49.3144 30.3244 49.3045 30.9557C49.2993 31.3742 49.2116 31.7875 49.0464 32.172C48.8811 32.5565 48.6416 32.9046 48.3415 33.1964C48.0415 33.4881 47.6868 33.7177 47.2978 33.8721C46.9088 34.0265 46.4931 34.1025 46.0747 34.0959ZM44.5566 30.8895C44.5543 31.1959 44.6426 31.4962 44.8105 31.7527C44.9784 32.0091 45.2183 32.2101 45.5002 32.3305C45.782 32.451 46.0931 32.4854 46.3945 32.4295C46.6958 32.3736 46.9739 32.2299 47.1938 32.0163C47.4136 31.8028 47.5655 31.5291 47.6302 31.2295C47.695 30.93 47.6697 30.618 47.5576 30.3327C47.4455 30.0475 47.2516 29.8017 47.0003 29.6264C46.7489 29.451 46.4513 29.3539 46.1449 29.3472C45.9391 29.3434 45.7346 29.3803 45.5432 29.4559C45.3518 29.5314 45.1772 29.6442 45.0295 29.7875C44.8819 29.9309 44.7641 30.1021 44.6829 30.2912C44.6017 30.4803 44.5588 30.6837 44.5566 30.8895Z" fill="#2E296C"/>
<path d="M11.5322 8.6988C12.4446 8.6988 13.3579 8.69396 14.2711 8.6988C14.8848 8.70284 15.2554 9.02179 15.2473 9.51919C15.2393 10.0166 14.8614 10.3266 14.2453 10.3266C12.4059 10.3299 10.5667 10.3299 8.72788 10.3266C8.1449 10.3266 7.77912 10.0037 7.77023 9.51515C7.76135 9.02663 8.13844 8.69961 8.71255 8.69638C9.65243 8.69396 10.5923 8.698 11.5322 8.6988Z" fill="#2E296C"/>
</g>
<defs>
<clipPath id="clip0_962_7651">
<rect width="71.0422" height="38" fill="white"/>
</clipPath>
</defs>
</svg>
