<svg width="45" height="42" viewBox="0 0 45 42" fill="none" xmlns="http://www.w3.org/2000/svg">
<g clip-path="url(#clip0_490_131)">
<path d="M21.3206 37.6654H20.7579C15.0715 37.6654 9.38268 37.6654 3.6915 37.6654C1.83985 37.6654 0.409952 36.5821 0.0640273 34.9216C0.0150023 34.6458 -0.00562398 34.366 0.00242919 34.0864C0.00242919 24.3641 0.00242919 14.6419 0.00242919 4.91966C0.00242919 2.75629 1.49275 1.36082 3.79339 1.35745C4.81576 1.35745 5.83813 1.35184 6.8605 1.35745C7.10455 1.35745 7.25145 1.30918 7.38058 1.08016C7.78218 0.3639 8.43849 0.0102621 9.29857 0.00913939C12.573 0.00913939 15.8471 0.00913939 19.1207 0.00913939C20.0009 0.00913939 20.6608 0.372881 21.0683 1.1071C21.1868 1.33163 21.3349 1.35745 21.5552 1.35633C22.6214 1.35109 23.6876 1.35109 24.7538 1.35633C26.9182 1.36868 28.4263 2.80232 28.4429 4.85903C28.4429 5.02294 28.4429 5.18685 28.4429 5.36984H31.3098C31.6119 3.42876 32.6201 1.90756 34.39 0.879201C35.6189 0.144037 37.0876 -0.143574 38.5233 0.069763C41.7444 0.534545 44.038 2.97521 44.0842 5.96373C44.1268 8.7861 42.0406 11.5669 38.4333 12.0845V27.5772C39.2542 27.5772 40.08 27.6131 40.9009 27.5648C41.4234 27.5345 41.7302 27.6996 42.0276 28.1004C42.6045 28.8997 43.2549 29.6496 43.8472 30.4355C43.9905 30.6235 44.0728 30.8471 44.0842 31.0788C44.1007 33.2118 44.0972 35.337 44.0936 37.4667C44.0936 38.8521 43.2051 39.6929 41.735 39.6761C41.3428 39.6761 41.132 39.7367 40.9483 40.1252C40.4579 41.167 39.5421 41.7115 38.3361 41.6857C37.1301 41.6598 36.2641 41.0682 35.7891 40.0208C35.6706 39.7547 35.545 39.6716 35.2489 39.6739C33.5595 39.6881 31.8706 39.6881 30.182 39.6739C29.8918 39.6739 29.746 39.739 29.6311 40.0107C29.43 40.5137 29.0696 40.9455 28.5995 41.247C28.1293 41.5484 27.5723 41.7048 27.0047 41.6947C25.7798 41.6598 24.8924 41.0895 24.415 40.0241C24.2823 39.7277 24.1248 39.6604 23.8286 39.6806C23.1877 39.7221 22.5894 39.6043 22.0871 39.1945C21.6062 38.8094 21.3621 38.3154 21.3206 37.6654ZM4.30635 5.3923V33.6025H21.3384V24.8806H24.1508V5.3923C23.2102 5.3923 22.2956 5.38556 21.3811 5.40128C21.3222 5.41321 21.2668 5.43703 21.2185 5.47113C21.1702 5.50523 21.1303 5.5488 21.1015 5.59887C20.6584 6.38473 19.9595 6.73724 19.0354 6.73612C15.8202 6.73612 12.6054 6.73612 9.39097 6.73612C8.48233 6.73612 7.80114 6.37799 7.34623 5.62693C7.31455 5.571 7.27071 5.52207 7.21762 5.48337C7.16453 5.44467 7.10338 5.41707 7.03821 5.4024C6.13311 5.38444 5.22684 5.3923 4.30635 5.3923ZM36.9489 27.5615V12.0755C35.4763 11.8802 34.2123 11.3188 33.1698 10.3387C32.1504 9.37813 31.4987 8.12245 31.3181 6.77092H28.4749V24.912H35.577V27.5615H36.9489ZM22.7837 26.2558V35.6143H34.1045V26.2693H31.2684V28.8907H25.5819V26.2558H22.7837ZM7.08915 2.75629C7.03584 2.73384 7.00978 2.71251 6.9849 2.71251C5.91869 2.71251 4.85249 2.7024 3.78628 2.7024C2.26634 2.7024 1.41693 3.49949 1.41693 4.9365C1.41693 14.6565 1.41693 24.3761 1.41693 34.0954C1.41693 35.5167 2.28055 36.3216 3.79694 36.3216H21.3112V34.9744H20.771C15.3949 34.9744 10.0189 34.9576 4.6428 34.989C3.59081 34.9946 2.82432 34.486 2.82787 33.2814C2.85789 24.2058 2.85789 15.1306 2.82787 6.05579C2.82077 4.4908 3.37756 3.93957 4.96029 4.035C5.66162 4.07766 6.36887 4.04174 7.10692 4.04174C7.10692 3.64768 7.10692 3.31425 7.10692 2.9797C7.10492 2.905 7.09899 2.83043 7.08915 2.75629ZM32.7113 6.0614C32.7087 6.99483 32.9985 7.90799 33.5441 8.68519C34.0896 9.46239 34.8663 10.0687 35.7757 10.4272C36.6851 10.7857 37.6864 10.8804 38.6527 10.6992C39.6189 10.5181 40.5067 10.0692 41.2035 9.40947C41.9004 8.74975 42.3749 7.90887 42.567 6.99336C42.7591 6.07786 42.6601 5.12891 42.2827 4.26674C41.9052 3.40458 41.2662 2.66798 40.4465 2.15027C39.6269 1.63256 38.6636 1.35702 37.6786 1.35858C36.3627 1.36065 35.1012 1.85665 34.1703 2.73802C33.2393 3.6194 32.7147 4.81436 32.7113 6.0614ZM35.5735 35.6244H42.6626C42.6626 34.9329 42.6626 34.2649 42.6626 33.5969C42.6626 32.7863 42.8474 31.9129 42.5879 31.1821C42.3285 30.4512 41.62 29.8629 41.1083 29.2129C41.1 29.2017 41.094 29.1848 41.0822 29.1792C40.8998 29.0939 40.7173 28.939 40.5325 28.9367C38.9924 28.9176 37.4524 28.9255 35.9182 28.9266C35.7997 28.9266 35.6919 28.9457 35.5723 28.9569L35.5735 35.6244ZM14.2304 5.39117C15.8297 5.39117 17.429 5.39117 19.0295 5.39117C19.636 5.39117 19.9002 5.14194 19.9061 4.57275C19.9132 3.76107 19.9156 2.94827 19.9061 2.13658C19.899 1.61118 19.6348 1.36082 19.084 1.3597C15.8403 1.3597 12.5967 1.3597 9.35306 1.3597C8.78916 1.3597 8.53919 1.5977 8.53445 2.1276C8.52616 2.88427 8.53445 3.64095 8.53445 4.3965C8.53445 5.20481 8.72874 5.3923 9.56868 5.3923L14.2304 5.39117ZM27.0249 24.8671V4.96344C27.0249 4.87924 27.0249 4.79504 27.0249 4.71197C26.9775 3.55226 26.0771 2.717 24.8557 2.70465C23.7895 2.69454 22.7233 2.70465 21.6571 2.70465C21.5574 2.7097 21.4581 2.72019 21.3597 2.73608V4.04623H23.8582C25.0962 4.04623 25.6021 4.52897 25.6021 5.70889C25.6021 11.912 25.6021 18.1143 25.6021 24.3159V24.8671H27.0249ZM36.3838 37.0311H29.0388C29.2627 37.4072 29.4677 37.7754 29.701 38.128C29.7366 38.1804 29.7833 38.2253 29.8382 38.2597C29.893 38.2941 29.9549 38.3173 30.0197 38.3278C31.8844 38.339 33.7503 38.3356 35.5581 38.3356L36.3838 37.0311ZM25.6032 39.0126C25.6032 39.368 25.7514 39.709 26.0154 39.9613C26.2795 40.2136 26.638 40.3568 27.013 40.3598C27.388 40.3553 27.7467 40.2135 28.0139 39.9641C28.2811 39.7146 28.4361 39.3769 28.4465 39.0216C28.4454 38.8431 28.4071 38.6665 28.3338 38.5021C28.2605 38.3376 28.1536 38.1885 28.0193 38.0633C27.885 37.9381 27.7259 37.8393 27.5512 37.7726C27.3764 37.7058 27.1895 37.6725 27.0012 37.6744C26.8166 37.675 26.6339 37.7101 26.4636 37.7777C26.2934 37.8454 26.1389 37.9442 26.009 38.0685C25.8792 38.1928 25.7765 38.3402 25.7068 38.5022C25.6372 38.6642 25.602 38.8377 25.6032 39.0126ZM38.4096 37.6654C38.224 37.6618 38.0395 37.6932 37.8667 37.7576C37.694 37.822 37.5364 37.9182 37.4031 38.0406C37.2698 38.1631 37.1635 38.3093 37.0902 38.471C37.0169 38.6326 36.9781 38.8064 36.9761 38.9823C36.9719 39.1618 37.0055 39.3402 37.075 39.5072C37.1445 39.6741 37.2486 39.8262 37.381 39.9546C37.5134 40.0829 37.6716 40.1848 37.8462 40.2544C38.0208 40.324 38.2083 40.3599 38.3977 40.3598C38.7723 40.3524 39.1293 40.208 39.3942 39.957C39.6592 39.7059 39.8115 39.3676 39.8193 39.0126C39.8172 38.6577 39.6682 38.3177 39.4044 38.0658C39.1405 37.8139 38.7829 37.6701 38.4084 37.6654H38.4096ZM29.8302 27.5615V26.2626H27.058V27.5682L29.8302 27.5615ZM42.6626 37.0322H40.3714C40.568 37.3107 40.8251 37.5442 40.9092 37.8237C41.0644 38.3357 41.4068 38.385 41.87 38.3435C42.364 38.2997 42.6341 38.0752 42.6626 37.6127C42.6732 37.433 42.6626 37.2512 42.6626 37.0322ZM25.0109 37.0221H22.7896C22.6522 38.1953 22.9508 38.4524 24.1958 38.3143L25.0109 37.0221Z" fill="black"/>
<path d="M5.71143 32.2653V25.5865H14.1901V32.2653H5.71143ZM7.13304 30.9181H12.7673V26.9315H7.13304V30.9181Z" fill="black"/>
<path d="M13.5337 9.40343V8.10339H22.7232V9.40343H13.5337Z" fill="black"/>
<path d="M13.5325 14.7821V13.4832H22.722V14.7821H13.5325Z" fill="black"/>
<path d="M22.7303 16.1787V17.4653H13.5337V16.1787H22.7303Z" fill="black"/>
<path d="M22.7386 21.5663V22.8371H13.542V21.5663H22.7386Z" fill="black"/>
<path d="M10.8031 7.67676L11.9392 8.47609L7.2278 14.4262L5.26953 12.5794L6.27414 11.6195L6.98494 12.4862L10.8031 7.67676Z" fill="black"/>
<path d="M7.20876 22.515L5.22681 20.6402L6.24089 19.7185L6.96947 20.5728L10.8031 15.7454L11.9392 16.5503L7.20876 22.515Z" fill="black"/>
<path d="M19.8871 12.1022H13.5491V10.7988H19.8871V12.1022Z" fill="black"/>
<path d="M13.5195 20.1517V18.8752H19.8753V20.1517H13.5195Z" fill="black"/>
<path d="M15.6638 26.8878V25.59H19.8742V26.8878H15.6638Z" fill="black"/>
<path d="M19.8966 28.2866V29.5642H15.6709V28.2866H19.8966Z" fill="black"/>
<path d="M15.678 30.9563H19.8765V32.2642H15.678V30.9563Z" fill="black"/>
<path d="M21.3691 10.782H22.7185V12.0888H21.3691V10.782Z" fill="black"/>
<path d="M21.3608 18.8596H22.7256V20.1518H21.3608V18.8596Z" fill="black"/>
<path d="M34.4077 7.18842L35.3922 6.21844L36.1764 7.15811L39.9674 3.55212L40.8855 4.52772L36.238 8.92518L34.4077 7.18842Z" fill="black"/>
</g>
<defs>
<clipPath id="clip0_490_131">
<rect width="44.09" height="41.6967" fill="white"/>
</clipPath>
</defs>
</svg>
