<svg width="50" height="51" viewBox="0 0 50 51" fill="none" xmlns="http://www.w3.org/2000/svg">
<g clip-path="url(#clip0_490_167)">
<path d="M26.6291 50.139L25.1421 50.9972C23.8407 48.6858 22.5141 46.4193 21.2957 44.0938C21.0143 43.5648 21.117 42.8389 21.0369 42.1622H16.0045C16.1452 42.4013 16.262 42.6081 16.3872 42.8079C17.0489 43.852 17.3881 45.0681 17.3621 46.3039C17.3439 47.7038 17.3621 49.1036 17.3621 50.5245H15.6936C15.6852 50.3585 15.6697 50.1897 15.6697 50.0223C15.6697 48.7223 15.6697 47.4238 15.6697 46.1253C15.6774 45.3319 15.4629 44.5522 15.0507 43.8743C14.5273 43.0021 14.0307 42.1115 13.468 41.2646C13.0839 40.6864 13.1162 40.2038 13.468 39.62C14.6722 37.6011 15.8371 35.5584 17.0118 33.5226C17.3692 32.905 17.3706 32.279 16.9809 31.6811C16.5912 31.0832 16.02 30.882 15.3377 30.9594C14.7243 31.0297 14.336 31.4095 14.0391 31.923C12.4869 34.613 10.9314 37.301 9.3726 39.9872C9.27693 40.1518 9.17845 40.315 9.05324 40.526L7.53806 39.6523C8.45674 38.7984 8.41453 37.8234 8.1008 36.7795C8.0192 36.4981 8.06844 36.1858 8.06844 35.8876C8.06844 32.1669 8.06844 28.4453 8.06844 24.7227V24.16L7.98685 24.1347C7.91369 24.2754 7.8335 24.4245 7.76456 24.5736C6.72067 26.833 5.68241 29.0967 4.63149 31.3533C4.10407 32.487 3.83635 33.7242 3.84787 34.9745C3.85912 39.9421 3.84787 44.9098 3.84787 49.8774V50.5316H2.15964V49.9477C2.15964 44.9632 2.16808 39.9773 2.15964 34.9914C2.14978 33.4785 2.47706 31.9824 3.11771 30.6119C4.33183 28.0049 5.50937 25.3812 6.75585 22.7897C6.99361 22.2917 7.47756 21.9147 7.81943 21.4602C7.96104 21.285 8.0468 21.0714 8.06563 20.8469C8.0797 15.9144 8.06563 10.982 8.0797 6.04812C8.0797 3.75916 9.07294 1.99918 11.0341 0.807572C11.8619 0.295394 12.8153 0.0222352 13.7887 0.0183254C19.5414 0.00707057 25.294 -0.0182529 31.0466 0.0183254C34.2163 0.042242 36.7472 2.6604 36.7754 5.86523C36.8049 9.30499 36.7754 12.7462 36.7754 16.1873V35.4613L36.8696 35.367L38.9419 36.8977C40.6161 35.7384 42.6068 36.0817 43.9152 37.8262C44.7931 37.196 45.7539 36.916 46.8386 37.1734C48.2652 37.5111 49.4005 38.7421 49.4188 40.1996C49.4638 43.6042 49.4329 47.0102 49.4315 50.4162C49.4315 50.4471 49.4075 50.4767 49.3822 50.533H47.7559V49.9843C47.7559 46.8428 47.7559 43.6999 47.7559 40.5583C47.7559 39.2711 46.6009 38.4326 45.4641 38.8856C45.1449 38.998 44.8691 39.2078 44.6757 39.4856C44.4823 39.7633 44.3811 40.0948 44.3865 40.4331C44.3668 40.9762 44.3865 41.522 44.378 42.0651C44.3696 42.6081 44.0334 42.9669 43.5592 42.9809C43.064 42.995 42.7053 42.625 42.6954 42.0581C42.6842 41.2688 42.6954 40.4782 42.6954 39.6889C42.6828 38.6689 41.9484 37.9191 40.9889 37.9303C40.0294 37.9416 39.3359 38.6788 39.3232 39.6748C39.3119 40.4472 39.3232 41.2224 39.3232 41.9919C39.3232 42.6067 38.9827 42.9866 38.4706 42.9767C37.9585 42.9669 37.6406 42.5927 37.6378 41.9708C37.6378 40.9523 37.6378 39.9337 37.6378 38.9151C37.6378 37.8445 36.9343 37.0862 35.9495 37.0862C34.9647 37.0862 34.2613 37.8403 34.2613 38.9151C34.2613 39.8282 34.2613 40.744 34.2613 41.6543C34.2613 42.5645 34.0151 42.9711 33.4285 42.9809C32.8418 42.9908 32.5717 42.5814 32.5717 41.6796C32.5717 37.3793 32.5717 33.0785 32.5717 28.7773C32.5717 27.3705 31.2141 26.5263 30.052 27.2002C29.4302 27.5604 29.1924 28.1273 29.1938 28.835C29.2013 32.943 29.2013 37.051 29.1938 41.1591C29.1938 42.2649 29.1854 43.3707 29.1938 44.4764C29.1938 44.9702 29.0447 45.3585 28.5396 45.4838C28.0571 45.6047 27.7448 45.3346 27.514 44.9309C27.0188 44.0624 26.5189 43.1967 26.0143 42.3338C25.4516 41.3687 24.4668 41.0564 23.6086 41.5572C22.7504 42.0581 22.5394 43.0611 23.0993 44.0319C24.2473 46.0479 25.4263 48.0653 26.6291 50.139ZM9.75667 35.7258L9.86078 35.7525C9.96066 35.5893 10.062 35.4275 10.1576 35.2629C10.9849 33.8364 11.7994 32.4014 12.6393 30.9833C13.4455 29.6228 14.9283 28.9897 16.3745 29.3527C18.603 29.9155 19.63 32.317 18.4848 34.3569C17.4353 36.221 16.3408 38.0612 15.2687 39.914C15.1773 40.0716 15.1013 40.2362 14.9874 40.4528C17.4001 40.4528 19.7214 40.4528 22.0428 40.443C22.2288 40.4159 22.4047 40.3413 22.5534 40.2263C23.7704 39.4638 25.0126 39.4089 26.2282 40.1757C26.6023 40.4189 27.0571 40.5053 27.4943 40.4163V39.8268C27.4943 36.176 27.4943 32.5238 27.5014 28.873C27.4968 28.453 27.5532 28.0345 27.6688 27.6307C27.9061 26.8777 28.4012 26.2324 29.0671 25.8082C29.7329 25.3839 30.527 25.2078 31.3097 25.3108C32.9853 25.5556 34.2247 26.9132 34.2416 28.5916C34.2655 30.8032 34.2487 33.0148 34.2501 35.2263V35.7581C34.9732 35.7131 35.1111 35.3459 35.1097 34.7157C35.0871 25.1847 35.0815 15.6527 35.0928 6.11987C35.0928 3.48201 33.2948 1.6953 30.6485 1.69389C25.1599 1.69389 19.6731 1.69389 14.1883 1.69389C13.9249 1.68772 13.6614 1.70277 13.4004 1.73891C11.186 2.09625 9.75667 3.80137 9.75667 6.09032C9.75667 15.8164 9.75667 25.5415 9.75667 35.2657V35.7258Z" fill="black"/>
<path d="M6.08044 12.0793L4.91275 13.1907L3.86886 12.2059V21.878H2.16938V12.2945L2.06386 12.2453L1.18598 13.292L0 11.9808C0.770958 11.1972 1.60523 10.3249 2.46904 9.48361C2.53598 9.41073 2.6172 9.3524 2.70764 9.31223C2.79808 9.27207 2.89582 9.25094 2.99477 9.25015C3.09373 9.24935 3.19179 9.26892 3.28286 9.30763C3.37394 9.34634 3.45608 9.40337 3.52418 9.47516C4.38799 10.3249 5.21944 11.1986 6.08044 12.0793Z" fill="black"/>
<path d="M40.8058 12.1721L39.9533 13.2652L38.7842 12.075C39.6283 11.1999 40.4724 10.3094 41.3517 9.45685C41.4184 9.39007 41.4979 9.3374 41.5854 9.30199C41.6729 9.26657 41.7667 9.24913 41.861 9.25071C41.9554 9.25228 42.0485 9.27284 42.1348 9.31116C42.2211 9.34947 42.2988 9.40476 42.3632 9.47373C43.227 10.3178 44.0515 11.1943 44.9223 12.0778L43.7462 13.1808L42.7149 12.2058V21.8724H41.0155V12.2945L40.8058 12.1721Z" fill="black"/>
<path d="M2.18774 23.6254H3.80844V25.2517H2.18774V23.6254Z" fill="black"/>
<path d="M42.6659 23.6282V25.2489H41.0339V23.6282H42.6659Z" fill="black"/>
<path d="M42.6643 27.006V28.6295H41.0408V27.006H42.6643Z" fill="black"/>
<path d="M22.4493 26.968C21.3346 26.9721 20.2301 26.7554 19.1997 26.3304C18.1692 25.9054 17.2331 25.2805 16.4454 24.4918C15.6578 23.7031 15.0341 22.7662 14.6105 21.7351C14.1868 20.7041 13.9716 19.5994 13.9772 18.4847C13.9856 13.8702 17.7757 10.1181 22.4464 10.1139C27.0666 10.1139 30.8777 13.9237 30.8623 18.5396C30.8589 20.7712 29.972 22.9108 28.3954 24.4903C26.8188 26.0697 24.6809 26.9606 22.4493 26.968ZM22.4183 11.8049C21.529 11.8049 20.6485 11.9806 19.8272 12.3218C19.006 12.663 18.2602 13.1631 17.6328 13.7933C17.0053 14.4235 16.5085 15.1714 16.1709 15.9941C15.8333 16.8168 15.6615 17.6981 15.6654 18.5874C15.6752 22.2846 18.7211 25.2911 22.4493 25.2854C24.2351 25.2732 25.9438 24.556 27.2033 23.2899C28.4628 22.0238 29.1711 20.3114 29.174 18.5255C29.1655 16.7396 28.4498 15.0299 27.1838 13.7704C25.9177 12.5109 24.2042 11.8042 22.4183 11.8049Z" fill="black"/>
<path d="M22.4182 38.7659C21.8372 38.7659 21.2575 38.7786 20.6779 38.7659C20.0114 38.7523 19.3772 38.4764 18.9129 37.9981C18.4486 37.5198 18.1915 36.8777 18.1976 36.2111C18.2052 35.554 18.469 34.9258 18.9327 34.4602C19.3965 33.9946 20.0236 33.7284 20.6807 33.7181C21.8418 33.6984 23.002 33.6984 24.1613 33.7181C24.8178 33.7284 25.4444 33.9948 25.9072 34.4606C26.3701 34.9263 26.6326 35.5545 26.6388 36.2111C26.643 36.8769 26.3847 37.5176 25.92 37.9945C25.4552 38.4714 24.8214 38.746 24.1557 38.7589C23.5803 38.7786 23.0006 38.7659 22.4182 38.7659ZM22.4702 35.3979C21.9075 35.3979 21.3448 35.3867 20.782 35.3979C20.2418 35.412 19.8901 35.7595 19.8915 36.242C19.8929 36.7246 20.2474 37.0707 20.7876 37.0777C21.8784 37.0899 22.9687 37.0899 24.0586 37.0777C24.596 37.0777 24.9519 36.7147 24.9491 36.2336C24.9463 35.7525 24.5918 35.4134 24.053 35.3979C23.5141 35.3825 23.0006 35.3979 22.4731 35.3979H22.4702Z" fill="black"/>
<path d="M25.7665 5.03659H19.0713V3.41589H25.7665V5.03659Z" fill="black"/>
<path d="M15.6794 5.02955V3.42151H17.3184V5.02955H15.6794Z" fill="black"/>
<path d="M23.2625 22.7798V23.5691H21.5869V22.7869C20.7259 22.7095 19.9788 22.4056 19.5216 21.6825C19.2642 21.2731 19.1404 20.7779 18.9265 20.2517H20.6977C20.8272 20.9551 21.3238 21.1211 21.9766 21.0775C22.3986 21.0494 22.8207 21.086 23.2428 21.0677C23.7478 21.0452 24.0869 20.7033 24.1023 20.2475C24.1136 19.7706 23.7605 19.4104 23.2273 19.3921C22.718 19.3752 22.2073 19.3921 21.698 19.3921C20.2588 19.3823 19.1446 18.4073 19.0475 17.0624C18.9462 15.6808 19.8916 14.5624 21.3533 14.3429L21.5531 14.3148L21.5911 13.5255H23.2625V14.3035C24.1206 14.3907 24.8733 14.682 25.3277 15.4121C25.5838 15.8229 25.7076 16.3167 25.92 16.8429H24.1516C24.0207 16.1395 23.5241 15.9734 22.8713 16.0171C22.4493 16.0452 22.0272 16.0171 21.6052 16.0283C21.0987 16.0494 20.7611 16.3885 20.747 16.8457C20.7343 17.324 21.0874 17.6898 21.6206 17.7025C22.1299 17.7208 22.6406 17.7025 23.1499 17.7025C24.5919 17.7123 25.7019 18.6873 25.8018 20.0308C25.9017 21.3744 24.9718 22.5125 23.5509 22.7461C23.4721 22.7573 23.4031 22.7629 23.2625 22.7798Z" fill="black"/>
</g>
<defs>
<clipPath id="clip0_490_167">
<rect width="49.4468" height="51" fill="white"/>
</clipPath>
</defs>
</svg>
