<svg width="43" height="43" viewBox="0 0 43 43" fill="none" xmlns="http://www.w3.org/2000/svg">
<g clip-path="url(#clip0_490_158)">
<path d="M35.5275 22.8065C35.6444 22.8498 35.7613 22.8895 35.8653 22.9234C40.4897 24.4637 43.3354 28.755 42.9684 33.6377C42.6272 38.1839 39.0943 42.0265 34.4652 42.8515C33.8308 42.9538 33.1888 43.0008 32.5463 42.9918C23.3301 43.0003 14.1136 43.0003 4.89672 42.9918C2.38292 42.9918 0.490839 41.4608 0.0712871 39.0919C0.0210562 38.7437 0.000336157 38.3918 0.00934778 38.0401C0.00934778 29.392 0.0062329 20.7438 0 12.0957C0 10.5893 0.509541 9.35047 1.57887 8.29516C3.84609 6.05989 6.09811 3.80864 8.33495 1.54143C9.37974 0.489624 10.6103 -0.0187468 12.0992 -0.0152408C18.2628 0.00228925 24.4275 -0.0152408 30.5911 -0.00706013C33.5595 0.00930123 35.5275 1.98669 35.5275 4.95628C35.5275 10.7264 35.5275 16.4961 35.5275 22.2654V22.8065ZM33.6647 22.415V21.9709C33.6647 16.3029 33.6647 10.6356 33.6647 4.96913C33.6647 3.01629 32.5147 1.87567 30.5513 1.87567H12.1542C11.994 1.87567 11.8328 1.88618 11.6727 1.87567C11.3443 1.86164 11.2181 1.98552 11.2239 2.34313C11.2449 3.65789 11.2403 4.97264 11.2239 6.28622C11.2262 6.69543 11.187 7.10382 11.107 7.50514C10.6185 9.756 8.76969 11.211 6.39379 11.2297C5.03579 11.2414 3.67663 11.2425 2.31864 11.2297C1.99258 11.2297 1.86286 11.3384 1.87338 11.6492C1.87338 11.7509 1.86753 11.8538 1.86753 11.9554C1.86753 20.7197 1.86753 29.4847 1.86753 38.2505C1.86753 39.9451 3.07243 41.1488 4.76817 41.1488C11.9695 41.1535 19.1705 41.1535 26.371 41.1488C26.4751 41.1434 26.5789 41.1325 26.6819 41.1161C23.0193 38.0775 21.4871 34.2653 22.9421 29.7122C24.5631 24.6273 28.3764 22.3952 33.6647 22.415ZM41.1371 32.7157C41.1331 30.4859 40.2451 28.3487 38.6678 26.7727C37.0904 25.1967 34.9525 24.3104 32.7227 24.3083C30.4908 24.3107 28.3511 25.1989 26.7735 26.7776C25.1959 28.3563 24.3092 30.4966 24.3083 32.7285C24.3123 34.9594 25.2011 37.0976 26.7797 38.674C28.3583 40.2503 30.4977 41.1362 32.7286 41.1371C34.9595 41.1325 37.0975 40.2433 38.6737 38.6646C40.25 37.0859 41.1359 34.9466 41.1371 32.7157ZM3.28279 9.31191C4.55196 9.31191 5.77907 9.38203 6.99448 9.29204C8.2099 9.20205 9.2582 8.06377 9.31429 6.8577C9.36688 5.70656 9.33182 4.55192 9.33182 3.39844C9.33182 3.36689 9.28741 3.33533 9.27923 3.32365L3.28279 9.31191Z" fill="#0D0D0D"/>
<path d="M17.7801 18.6987C14.7415 18.6987 11.703 18.6987 8.66444 18.6987C8.46152 18.7051 8.25892 18.6779 8.06492 18.618C7.87005 18.5475 7.70549 18.4119 7.59902 18.2341C7.49256 18.0563 7.45073 17.8472 7.48058 17.6422C7.50846 17.4379 7.60434 17.2489 7.75276 17.1058C7.90118 16.9627 8.09348 16.8738 8.29865 16.8533C8.45879 16.8403 8.61953 16.836 8.78014 16.8405H26.7426C27.6015 16.8405 28.055 17.1712 28.041 17.7848C28.0269 18.3983 27.5875 18.7033 26.7554 18.7033L17.7801 18.6987Z" fill="#0D0D0D"/>
<path d="M14.945 22.4455C17.0906 22.4455 19.2375 22.4455 21.3843 22.4455C22.1323 22.4455 22.5799 22.9831 22.3906 23.6247C22.2643 24.0548 21.9581 24.271 21.5222 24.299C21.2605 24.3165 20.9963 24.3049 20.7334 24.3049H8.77439C8.62866 24.3097 8.48276 24.307 8.33731 24.2967C8.10176 24.2763 7.88267 24.1674 7.72415 23.992C7.56564 23.8166 7.47948 23.5876 7.48301 23.3512C7.48301 23.1144 7.57661 22.8872 7.74342 22.719C7.91022 22.5509 8.13672 22.4555 8.37354 22.4537C9.51182 22.4338 10.6513 22.4432 11.7907 22.442L14.945 22.4455Z" fill="#0D0D0D"/>
<path d="M14.0054 29.9179C12.1811 29.9179 10.3568 29.9179 8.53255 29.9179C7.71449 29.9179 7.22715 29.1851 7.60463 28.5295C7.80681 28.1789 8.12819 28.0538 8.52554 28.062C9.91158 28.062 11.2976 28.062 12.6837 28.062C14.9431 28.062 17.2052 28.062 19.4701 28.062C20.107 28.062 20.4857 28.3483 20.5476 28.8532C20.6236 29.4714 20.2052 29.9179 19.5215 29.9202C17.6821 29.9179 15.8437 29.9179 14.0054 29.9179Z" fill="#0D0D0D"/>
<path d="M14.0567 35.5275C12.2032 35.5275 10.3497 35.5334 8.49619 35.5275C7.705 35.5275 7.23753 34.7901 7.60099 34.1473C7.80083 33.7967 8.11988 33.6647 8.51722 33.667C9.6707 33.667 10.823 33.667 11.9765 33.667C14.4696 33.667 16.9628 33.667 19.456 33.667C20.1151 33.667 20.4984 33.9674 20.544 34.4956C20.5978 35.101 20.1934 35.524 19.5226 35.5264C17.7041 35.5275 15.8798 35.5275 14.0567 35.5275Z" fill="#0D0D0D"/>
<path d="M31.3333 34.0211L33.7676 31.5833C34.4898 30.8611 35.2051 30.1318 35.939 29.4201C36.3527 29.0192 36.8985 29.0216 37.2713 29.3862C37.3629 29.4713 37.4359 29.5744 37.4859 29.689C37.5359 29.8036 37.5617 29.9273 37.5617 30.0523C37.5617 30.1774 37.5359 30.3011 37.4859 30.4157C37.4359 30.5303 37.3629 30.6334 37.2713 30.7185C35.5268 32.4824 33.7738 34.2354 32.0122 35.9775C31.5985 36.3877 31.068 36.3631 30.6472 35.9494C29.784 35.1002 28.927 34.2432 28.0762 33.3784C27.6718 32.9658 27.6648 32.4224 28.0283 32.0461C28.3917 31.6698 28.9632 31.6499 29.3933 32.066C30.0349 32.6994 30.6624 33.3468 31.3333 34.0211Z" fill="#0D0D0D"/>
</g>
<defs>
<clipPath id="clip0_490_158">
<rect width="43" height="43" fill="white"/>
</clipPath>
</defs>
</svg>
