<svg width="21" height="21" viewBox="0 0 21 21" fill="none" xmlns="http://www.w3.org/2000/svg">
<g clip-path="url(#clip0_336_1295)">
<path d="M10.2863 0H11.5467C11.5965 0.0142251 11.6471 0.0250166 11.6984 0.0322982C13.2684 0.150462 14.7383 0.600273 16.0775 1.42466C18.6803 3.02736 20.2834 5.33196 20.8435 8.34553C20.9116 8.71184 20.9475 9.08366 20.9983 9.45312V10.7135C20.9821 10.8427 20.964 10.9719 20.9502 11.1015C20.7344 13.0957 20.0116 14.8828 18.7386 16.4362C17.1556 18.3662 15.1306 19.5628 12.6709 20.0107C12.2986 20.0784 11.9225 20.1155 11.5451 20.1682H10.2847C10.0385 20.1379 9.79198 20.1115 9.54659 20.0769C7.68629 19.8122 6.01545 19.1032 4.56322 17.9105C2.63557 16.3255 1.43502 14.3034 0.988363 11.8448C0.920615 11.4718 0.883197 11.0936 0.830811 10.7179V9.45312C0.846566 9.32393 0.864291 9.19513 0.878471 9.06555C1.11165 6.92953 1.9195 5.04088 3.34416 3.4307C4.91102 1.6602 6.8623 0.558916 9.19643 0.152038C9.55919 0.0894108 9.92393 0.0500228 10.2863 0ZM10.935 4.26336V4.33347C10.102 4.33347 9.26812 4.31811 8.43506 4.3382C7.76547 4.35435 7.12108 4.5115 6.55389 4.89278C5.60858 5.52929 5.20013 6.47027 5.17807 7.56526C5.14419 9.24437 5.1568 10.9251 5.1757 12.6046C5.18279 13.2616 5.35295 13.8914 5.72714 14.4463C6.36443 15.3917 7.30502 15.8005 8.40001 15.8249C10.0791 15.8592 11.7598 15.8541 13.4389 15.8249C14.3594 15.8092 15.1905 15.5055 15.8321 14.8008C16.4092 14.1663 16.6439 13.3951 16.6628 12.562C16.6939 11.1834 16.6967 9.80486 16.6979 8.42628C16.695 8.01927 16.6716 7.61266 16.6278 7.20801C16.4702 5.64312 15.354 4.50835 13.7875 4.37798C12.839 4.2996 11.8855 4.2992 10.935 4.26336Z" fill="white"/>
<path d="M10.9166 14.8491C10.0445 14.8243 9.17091 14.8219 8.30044 14.7703C7.06287 14.6959 6.27117 13.9392 6.23769 12.6981C6.19003 10.9414 6.20421 9.18232 6.23769 7.42522C6.25265 6.66424 6.59966 6.03364 7.30589 5.66024C7.70292 5.44991 8.13973 5.3735 8.58049 5.3731C10.2348 5.3731 11.8891 5.3538 13.5394 5.40619C14.764 5.44558 15.56 6.23609 15.5923 7.46146C15.6388 9.21133 15.6388 10.9623 15.5923 12.7142C15.5604 13.9254 14.7573 14.6836 13.5517 14.7719C13.1137 14.803 12.6737 14.8144 12.2341 14.8227C11.7945 14.831 11.355 14.8247 10.9154 14.8247L10.9166 14.8491ZM13.8872 10.0796C13.8864 9.49229 13.7115 8.91842 13.3847 8.43045C13.0579 7.94249 12.5938 7.5623 12.0511 7.33791C11.5084 7.11353 10.9113 7.055 10.3353 7.16973C9.75936 7.28446 9.2303 7.56729 8.81496 7.98252C8.39963 8.39774 8.11666 8.92673 8.00178 9.50267C7.8869 10.0786 7.94527 10.6757 8.16951 11.2185C8.39375 11.7613 8.77381 12.2254 9.26169 12.5524C9.74958 12.8793 10.3234 13.0543 10.9107 13.0553C11.302 13.0567 11.6897 12.9806 12.0515 12.8315C12.4133 12.6824 12.742 12.4631 13.0187 12.1864C13.2954 11.9097 13.5147 11.581 13.6638 11.2192C13.8129 10.8574 13.889 10.4697 13.8876 10.0784L13.8872 10.0796ZM14.6978 6.99313C14.6982 6.85667 14.6582 6.72313 14.5829 6.60933C14.5076 6.49553 14.4003 6.40653 14.2746 6.35353C14.1488 6.30053 14.0102 6.2859 13.8761 6.31146C13.7421 6.33703 13.6186 6.40166 13.5212 6.49723C13.4237 6.59279 13.3568 6.71503 13.3286 6.84856C13.3005 6.9821 13.3125 7.12097 13.363 7.24772C13.4136 7.37447 13.5005 7.48344 13.6128 7.56093C13.7252 7.63841 13.8579 7.68096 13.9944 7.68321C14.0862 7.68515 14.1774 7.66873 14.2628 7.63491C14.3481 7.60108 14.4258 7.55054 14.4914 7.48625C14.5569 7.42196 14.6089 7.34522 14.6444 7.26054C14.6798 7.17585 14.698 7.08494 14.6978 6.99313Z" fill="white"/>
<path d="M10.9142 8.15332C11.2961 8.15285 11.6696 8.26571 11.9874 8.4776C12.3051 8.6895 12.5529 8.9909 12.6992 9.34366C12.8456 9.69642 12.884 10.0847 12.8096 10.4593C12.7352 10.8339 12.5514 11.178 12.2813 11.4481C12.0113 11.7181 11.6671 11.902 11.2925 11.9764C10.9179 12.0508 10.5297 12.0124 10.1769 11.866C9.82415 11.7196 9.52275 11.4719 9.31086 11.1541C9.09896 10.8364 8.98611 10.4629 8.98657 10.081C8.9872 9.56992 9.19049 9.07998 9.55186 8.71861C9.91323 8.35724 10.4032 8.15395 10.9142 8.15332Z" fill="white"/>
</g>
<defs>
<clipPath id="clip0_336_1295">
<rect width="20.1667" height="20.1667" fill="white" transform="translate(0.833252)"/>
</clipPath>
</defs>
</svg>
