<svg width="21" height="21" viewBox="0 0 21 21" fill="none" xmlns="http://www.w3.org/2000/svg">
<g clip-path="url(#clip0_336_1292)">
<path d="M9.71682 0H10.9379C11.0015 0.012079 11.0652 0.0252084 11.1289 0.0357118C11.6657 0.12184 12.2126 0.16753 12.7373 0.298299C17.9962 1.62436 21.2351 6.74375 20.1951 12.0653C19.4057 16.1118 16.1173 19.318 12.0442 20.0102C11.6758 20.0727 11.3073 20.1152 10.9389 20.1651H9.67577C9.63347 20.1505 9.58997 20.1396 9.54577 20.1325C8.69367 20.0804 7.85342 19.9069 7.05053 19.6173C3.38846 18.262 1.16497 15.6694 0.380061 11.8395C0.304273 11.4687 0.274799 11.089 0.222168 10.7135V9.45313C0.274799 9.0855 0.313746 8.71368 0.376377 8.34658C1.07321 4.26599 4.27897 0.9826 8.33736 0.198516C8.79262 0.110812 9.25683 0.0651215 9.71682 0ZM15.6078 15.3839C15.612 15.3125 15.6189 15.2552 15.6189 15.1975C15.6189 13.9507 15.6331 12.7034 15.6115 11.4567C15.6049 10.9455 15.5535 10.4359 15.4578 9.93366C15.2957 9.10388 14.8347 8.49206 13.9842 8.25888C13.6996 8.18129 13.4069 8.13792 13.1121 8.12969C12.1994 8.10395 11.4415 8.41381 10.9289 9.20892C10.921 9.22152 10.9005 9.22573 10.8584 9.24883V8.31823H8.76894V15.3781H10.9431V15.1276C10.9431 14.0316 10.94 12.935 10.9431 11.8395C10.9431 11.4383 10.9752 11.0381 11.1637 10.671C11.4026 10.2052 11.8789 9.99773 12.5078 10.0823C12.9394 10.1406 13.2384 10.4352 13.3342 10.9383C13.3838 11.2024 13.4097 11.4705 13.4115 11.7392C13.4199 12.8809 13.4157 14.0232 13.4163 15.1649V15.3839H15.6078ZM7.35947 15.3839V8.32138H5.19055V15.3834L7.35947 15.3839ZM6.26106 7.333C6.51527 7.33508 6.76436 7.26174 6.97671 7.12229C7.18906 6.98283 7.3551 6.78356 7.45373 6.54976C7.55236 6.31597 7.57915 6.0582 7.53068 5.80919C7.48222 5.56018 7.36069 5.33115 7.18152 5.1512C7.00236 4.97124 6.77365 4.84846 6.52442 4.79846C6.27519 4.74846 6.0167 4.77348 5.78175 4.87036C5.5468 4.96723 5.34601 5.13159 5.20485 5.34255C5.0637 5.55352 4.98856 5.80159 4.98897 6.05525C4.98951 6.39246 5.12346 6.71582 5.36168 6.95501C5.59991 7.19419 5.92313 7.32984 6.26106 7.33247V7.333Z" fill="white"/>
</g>
<defs>
<clipPath id="clip0_336_1292">
<rect width="20.1667" height="20.1667" fill="white" transform="translate(0.222168)"/>
</clipPath>
</defs>
</svg>
