<svg width="21" height="21" viewBox="0 0 21 21" fill="none" xmlns="http://www.w3.org/2000/svg">
<g clip-path="url(#clip0_336_1290)">
<path d="M11.3246 20.1664H10.0642C9.81843 20.1359 9.5716 20.1096 9.32897 20.0745C7.32228 19.7872 5.54772 18.9831 4.03364 17.6371C2.28008 16.0816 1.18878 14.1479 0.768636 11.8397C0.701414 11.4669 0.663601 11.0887 0.611084 10.7132V9.45282C0.641544 9.20651 0.666752 8.95968 0.702464 8.7139C1.01757 6.51657 1.9466 4.6144 3.50269 3.02995C5.01204 1.49276 6.83229 0.528546 8.95767 0.154622C9.32529 0.090026 9.69554 0.0495877 10.0642 -0.00292969H11.3246C11.6618 0.0406597 12.0005 0.0721704 12.3351 0.129414C14.2498 0.455022 15.9425 1.25486 17.3883 2.55151C19.1261 4.1097 20.2137 6.04024 20.6228 8.34313C20.688 8.71075 20.7279 9.081 20.7804 9.4502V10.7106C20.766 10.7604 20.7551 10.8111 20.7478 10.8624C20.6291 12.4185 20.1827 13.8748 19.3703 15.205C17.7701 17.8272 15.4583 19.4395 12.4333 20.0093C12.0651 20.0808 11.6922 20.1138 11.3246 20.1664ZM6.30187 11.0667C6.68577 12.0603 7.39685 12.5771 8.45823 12.6905C7.43992 13.4478 6.33863 13.7498 5.06456 13.6458C5.17327 13.7146 5.23051 13.754 5.29038 13.7881C6.64848 14.5717 8.10846 14.8274 9.64932 14.6016C13.0903 14.098 15.0345 11.1717 15.1726 8.43818C15.1946 7.99546 15.2492 7.64727 15.6479 7.38101C15.87 7.23344 16.0228 6.98188 16.204 6.77496C16.2377 6.7297 16.2679 6.68195 16.2943 6.63211L15.1069 6.95037L15.0859 6.901C15.5202 6.59693 15.8453 6.2125 16.0055 5.72881C15.5808 5.88006 15.1584 6.03114 14.7383 6.18204C14.6217 6.22405 14.5408 6.19359 14.4436 6.10799C13.7383 5.48566 12.9275 5.3092 12.0483 5.64584C11.1792 5.97827 10.6829 6.63842 10.571 7.56587C10.5411 7.81428 10.5663 8.06899 10.5663 8.33525C8.65307 8.19871 7.0807 7.38731 5.82816 5.91945C5.60355 6.29154 5.49495 6.72213 5.51621 7.15624C5.54614 7.91669 5.89013 8.51749 6.49303 8.98121L6.46152 9.03373L5.4868 8.76169C5.56557 9.91707 6.16322 10.6612 7.26871 11.0168L7.25663 11.0646L6.30187 11.0667Z" fill="white"/>
</g>
<defs>
<clipPath id="clip0_336_1290">
<rect width="20.1667" height="20.1667" fill="white" transform="translate(0.611084)"/>
</clipPath>
</defs>
</svg>
